<?xml version="1.0" encoding="utf-8"?>
<!-- Generator: Adobe Illustrator 27.1.1, SVG Export Plug-In . SVG Version: 6.00 Build 0)  -->
<svg version="1.1" id="Layer_1" xmlns="http://www.w3.org/2000/svg" xmlns:xlink="http://www.w3.org/1999/xlink" x="0px" y="0px"
	 viewBox="0 0 29.1 30.1" style="enable-background:new 0 0 29.1 30.1;" xml:space="preserve">
<style type="text/css">
	.st0{fill:#FED3A6;}
	.st1{opacity:0.4;fill:#C27069;}
	.st2{opacity:0.2;fill:#C27069;}
	.st3{opacity:0.1;fill:#C27069;}
	.st4{opacity:0.3;fill:#C27069;}
	.st5{opacity:0.4;}
	.st6{fill:#C27069;}
	.st7{opacity:0.2;fill:#8F534E;}
	.st8{opacity:0.5;fill:#FEE1C4;}
	.st9{opacity:0.3;fill:#FEE0C2;}
	.st10{fill:#FEDBB9;}
	.st11{fill:#FED9B5;}
</style>
<g>
	<rect x="5.7" y="0.9" class="st0" width="17.5" height="1.1"/>
	<rect x="5.7" y="0.9" class="st1" width="17.5" height="0.1"/>
	<rect x="5.7" y="1.3" class="st1" width="17.5" height="0.1"/>
	<g>
		<polygon class="st0" points="18.8,5.6 10.1,5.6 0.8,5.6 0.8,6.6 2,8.1 10.1,8.1 18.8,8.1 26.9,8.1 28.2,6.6 28.2,5.6 		"/>
		<polygon class="st2" points="2,8.1 10.1,8.1 18.8,8.1 26.9,8.1 28.2,6.6 0.8,6.6 		"/>
		<polygon class="st3" points="0.8,6.6 2,8.1 6.3,8.1 5.1,6.6 		"/>
		<polygon class="st4" points="27.9,6.9 28.2,6.6 0.8,6.6 1,6.9 		"/>
		<g>
			<path class="st0" d="M2,8.1v21.3h8.2v-9.6c0-2.4,2-4.4,4.4-4.4s4.4,2,4.4,4.4v9.6h7.9V8.1H2z"/>
			<path class="st4" d="M8.5,29.5h1.7v-9.6c0-2.4,2-4.4,4.4-4.4c2.4,0,4.4,2,4.4,4.4v9.6h1.5V13.9H8.5V29.5z"/>
			<path class="st2" d="M14.5,14.7c-2.8,0-5,2.4-5,5.3v9.5h0.8v-9.6c0-2.4,2-4.4,4.4-4.4c2.4,0,4.4,2,4.4,4.4v9.6h0.4V20
				C19.5,17.1,17.2,14.7,14.5,14.7z"/>
			<path class="st2" d="M20.4,13.6H8.6c-0.2,0-0.3,0.1-0.3,0.3v15.5h0.5v-15c0-0.2,0.1-0.3,0.3-0.3h10.9c0.2,0,0.3,0.1,0.3,0.3v15
				h0.5V13.9C20.7,13.8,20.5,13.6,20.4,13.6z"/>
			<g>
				<path class="st1" d="M9.5,14.7c-0.1,0-0.2,0.1-0.2,0.2v4.3l0,0v-0.4c0-1.8,1.1-3.4,2.7-4.1H9.5z"/>
				<g>
					<path class="st0" d="M9.4,14.9C9.4,14.8,9.4,14.8,9.4,14.9l2-0.1c-0.9,0.6-1.7,1.4-2,2.4V14.9z"/>
				</g>
				<g class="st5">
					<path class="st6" d="M9.5,14.9h1.4c-0.6,0.4-1.1,1-1.4,1.7V14.9z"/>
				</g>
			</g>
			<g>
				<path class="st1" d="M19.6,14.7c0.1,0,0.2,0.1,0.2,0.2v4.3l0,0v-0.4c0-1.8-1.1-3.4-2.7-4.1H19.6z"/>
				<g>
					<path class="st0" d="M19.6,14.9C19.6,14.8,19.6,14.8,19.6,14.9l-2-0.1c0.9,0.6,1.7,1.4,2,2.4V14.9z"/>
				</g>
				<g class="st5">
					<path class="st6" d="M19.5,14.9h-1.4c0.6,0.4,1.1,1,1.4,1.7V14.9z"/>
				</g>
			</g>
			<path class="st7" d="M20.2,14.5c0-0.2-0.1-0.3-0.3-0.3H9c-0.2,0-0.3,0.1-0.3,0.3v0.5h11.4V14.5z"/>
			<g>
				<rect x="2.6" y="12.6" class="st2" width="4.5" height="14"/>
				<rect x="3.2" y="12.6" class="st2" width="4.5" height="14"/>
				<rect x="2.8" y="12.6" class="st0" width="4.5" height="14"/>
				<rect x="2.8" y="12.6" class="st8" width="4.5" height="0.3"/>
				<rect x="2.1" y="26.6" class="st2" width="5.6" height="0.7"/>
				<rect x="2.6" y="26.6" class="st2" width="5.6" height="0.7"/>
				<rect x="2.3" y="26.6" class="st0" width="5.6" height="0.7"/>
				<rect x="2.3" y="27.2" class="st2" width="5.6" height="0.1"/>
				<rect x="2.3" y="27.8" class="st2" width="5.6" height="0.1"/>
				<polygon class="st0" points="9.5,27.9 6,27.9 5.8,27.9 2.4,27.9 1.3,28.6 1.3,29.5 5.8,29.5 6,29.5 10.5,29.5 10.5,28.6 				"/>
				<polygon class="st9" points="6,27.9 5.8,27.9 2.4,27.9 1.3,28.6 10.5,28.6 9.5,27.9 				"/>
				<rect x="1.3" y="29.1" class="st2" width="9.2" height="0.3"/>
				<g>
					<rect x="3.6" y="13.2" class="st0" width="3" height="0.5"/>
					<rect x="3.6" y="13.2" class="st8" width="3" height="0.1"/>
					<rect x="3.6" y="13.6" class="st4" width="3" height="0.2"/>
				</g>
				<g>
					<rect x="3.6" y="16.1" class="st0" width="3" height="0.5"/>
					<rect x="3.6" y="16.1" class="st8" width="3" height="0.1"/>
					<rect x="3.6" y="16.6" class="st4" width="3" height="0.2"/>
				</g>
				<circle class="st4" cx="5.1" cy="14.9" r="1.2"/>
				<circle class="st0" cx="5.1" cy="14.9" r="1"/>
				<circle class="st4" cx="5.1" cy="14.9" r="0.8"/>
			</g>
			<g>
				
					<rect x="21.9" y="12.6" transform="matrix(-1 -1.224647e-16 1.224647e-16 -1 48.2949 39.1477)" class="st2" width="4.5" height="14"/>
				
					<rect x="21.3" y="12.6" transform="matrix(-1 -1.224647e-16 1.224647e-16 -1 47.1324 39.1477)" class="st2" width="4.5" height="14"/>
				
					<rect x="21.7" y="12.6" transform="matrix(-1 -1.224647e-16 1.224647e-16 -1 47.8521 39.1477)" class="st0" width="4.5" height="14"/>
				
					<rect x="21.7" y="12.6" transform="matrix(-1 -1.224647e-16 1.224647e-16 -1 47.8521 25.4192)" class="st8" width="4.5" height="0.3"/>
				
					<rect x="21.4" y="26.6" transform="matrix(-1 -1.224647e-16 1.224647e-16 -1 48.2949 53.8725)" class="st2" width="5.6" height="0.7"/>
				
					<rect x="20.9" y="26.6" transform="matrix(-1 -1.224647e-16 1.224647e-16 -1 47.2708 53.8725)" class="st2" width="5.6" height="0.7"/>
				
					<rect x="21.1" y="26.6" transform="matrix(-1 -1.224647e-16 1.224647e-16 -1 47.8521 53.8725)" class="st0" width="5.6" height="0.7"/>
				
					<rect x="21.1" y="27.2" transform="matrix(-1 -1.224647e-16 1.224647e-16 -1 47.8521 54.4593)" class="st2" width="5.6" height="0.1"/>
				
					<rect x="21.1" y="27.8" transform="matrix(-1 -1.224647e-16 1.224647e-16 -1 47.8521 55.6771)" class="st2" width="5.6" height="0.1"/>
				<polygon class="st0" points="19.6,27.9 23,27.9 23.2,27.9 26.6,27.9 27.7,28.6 27.7,29.5 23.2,29.5 23,29.5 18.5,29.5 
					18.5,28.6 				"/>
				<polygon class="st9" points="23,27.9 23.2,27.9 26.6,27.9 27.7,28.6 18.5,28.6 19.6,27.9 				"/>
				
					<rect x="18.5" y="29.1" transform="matrix(-1 -1.224647e-16 1.224647e-16 -1 46.219 58.5882)" class="st2" width="9.2" height="0.3"/>
				<g>
					
						<rect x="22.4" y="13.2" transform="matrix(-1 -1.224647e-16 1.224647e-16 -1 47.852 26.817)" class="st0" width="3" height="0.5"/>
					
						<rect x="22.4" y="13.2" transform="matrix(-1 -1.224647e-16 1.224647e-16 -1 47.852 26.4433)" class="st8" width="3" height="0.1"/>
					
						<rect x="22.4" y="13.6" transform="matrix(-1 -1.224647e-16 1.224647e-16 -1 47.852 27.4951)" class="st4" width="3" height="0.2"/>
				</g>
				<g>
					
						<rect x="22.4" y="16.1" transform="matrix(-1 -1.224647e-16 1.224647e-16 -1 47.852 32.6778)" class="st0" width="3" height="0.5"/>
					
						<rect x="22.4" y="16.1" transform="matrix(-1 -1.224647e-16 1.224647e-16 -1 47.852 32.3042)" class="st8" width="3" height="0.1"/>
					
						<rect x="22.4" y="16.6" transform="matrix(-1 -1.224647e-16 1.224647e-16 -1 47.852 33.3559)" class="st4" width="3" height="0.2"/>
				</g>
				<path class="st4" d="M22.8,14.9c0,0.6,0.5,1.2,1.2,1.2c0.6,0,1.2-0.5,1.2-1.2c0-0.6-0.5-1.2-1.2-1.2
					C23.3,13.8,22.8,14.3,22.8,14.9z"/>
				<path class="st0" d="M22.9,14.9c0,0.6,0.5,1,1,1c0.6,0,1-0.5,1-1c0-0.6-0.5-1-1-1C23.4,13.9,22.9,14.4,22.9,14.9z"/>
				<path class="st4" d="M23.2,14.9c0,0.4,0.3,0.8,0.8,0.8c0.4,0,0.8-0.3,0.8-0.8s-0.3-0.8-0.8-0.8C23.5,14.2,23.2,14.5,23.2,14.9z"
					/>
			</g>
			<rect x="8.2" y="12.6" class="st2" width="12.4" height="0.3"/>
			<g>
				<rect x="2.9" y="9.3" class="st4" width="4.2" height="2.2"/>
				<rect x="2.9" y="11.7" class="st4" width="4.2" height="0.3"/>
			</g>
			<g>
				<rect x="21.8" y="9.3" class="st4" width="4.2" height="2.2"/>
				<rect x="21.8" y="11.7" class="st4" width="4.2" height="0.3"/>
			</g>
			<polygon class="st4" points="8.2,9.3 8.2,9.5 19.9,9.5 19.9,12 20.2,12 20.2,9.3 			"/>
		</g>
		<rect x="2" y="8.1" class="st4" width="25" height="0.4"/>
		<rect x="2" y="8.1" class="st4" width="25" height="0.2"/>
		<g>
			<g>
				<path class="st4" d="M3,9.1L3,9.1c-0.2,0-0.4-0.2-0.4-0.4V8.2h0.9v0.4C3.5,8.9,3.3,9.1,3,9.1z"/>
				<path class="st0" d="M3,9L3,9C2.8,9,2.6,8.8,2.6,8.6V8.1h0.9v0.4C3.5,8.8,3.3,9,3,9z"/>
				<path class="st3" d="M3,8.8c-0.2,0-0.4-0.2-0.4-0.4v0.2C2.6,8.8,2.8,9,3,9c0.2,0,0.4-0.2,0.4-0.4V8.4C3.5,8.6,3.3,8.8,3,8.8z"/>
				<rect x="2.6" y="8.1" class="st4" width="0.9" height="0.1"/>
			</g>
			<g>
				<path class="st4" d="M5.3,9.1L5.3,9.1c-0.2,0-0.4-0.2-0.4-0.4V8.2h0.9v0.4C5.8,8.9,5.6,9.1,5.3,9.1z"/>
				<path class="st0" d="M5.3,9L5.3,9C5.1,9,4.9,8.8,4.9,8.6V8.1h0.9v0.4C5.8,8.8,5.6,9,5.3,9z"/>
				<path class="st3" d="M5.3,8.8c-0.2,0-0.4-0.2-0.4-0.4v0.2C4.9,8.8,5.1,9,5.3,9c0.2,0,0.4-0.2,0.4-0.4V8.4
					C5.8,8.6,5.6,8.8,5.3,8.8z"/>
				<rect x="4.9" y="8.1" class="st4" width="0.9" height="0.1"/>
			</g>
			<g>
				<path class="st4" d="M7.6,9.1L7.6,9.1c-0.2,0-0.4-0.2-0.4-0.4V8.2h0.9v0.4C8.1,8.9,7.9,9.1,7.6,9.1z"/>
				<path class="st0" d="M7.6,9L7.6,9C7.4,9,7.2,8.8,7.2,8.6V8.1h0.9v0.4C8.1,8.8,7.9,9,7.6,9z"/>
				<path class="st3" d="M7.6,8.8c-0.2,0-0.4-0.2-0.4-0.4v0.2C7.2,8.8,7.4,9,7.6,9c0.2,0,0.4-0.2,0.4-0.4V8.4
					C8.1,8.6,7.9,8.8,7.6,8.8z"/>
				<rect x="7.2" y="8.1" class="st4" width="0.9" height="0.1"/>
			</g>
			<g>
				<path class="st4" d="M9.9,9.1L9.9,9.1c-0.2,0-0.4-0.2-0.4-0.4V8.2h0.9v0.4C10.4,8.9,10.2,9.1,9.9,9.1z"/>
				<path class="st0" d="M9.9,9L9.9,9C9.7,9,9.5,8.8,9.5,8.6V8.1h0.9v0.4C10.4,8.8,10.2,9,9.9,9z"/>
				<path class="st3" d="M9.9,8.8c-0.2,0-0.4-0.2-0.4-0.4v0.2C9.5,8.8,9.7,9,9.9,9s0.4-0.2,0.4-0.4V8.4C10.4,8.6,10.2,8.8,9.9,8.8z"
					/>
				<rect x="9.5" y="8.1" class="st4" width="0.9" height="0.1"/>
			</g>
			<g>
				<path class="st4" d="M12.2,9.1L12.2,9.1c-0.2,0-0.4-0.2-0.4-0.4V8.2h0.9v0.4C12.7,8.9,12.5,9.1,12.2,9.1z"/>
				<path class="st0" d="M12.2,9L12.2,9c-0.2,0-0.4-0.2-0.4-0.4V8.1h0.9v0.4C12.7,8.8,12.5,9,12.2,9z"/>
				<path class="st3" d="M12.2,8.8c-0.2,0-0.4-0.2-0.4-0.4v0.2C11.8,8.8,12,9,12.2,9s0.4-0.2,0.4-0.4V8.4
					C12.7,8.6,12.5,8.8,12.2,8.8z"/>
				<rect x="11.8" y="8.1" class="st4" width="0.9" height="0.1"/>
			</g>
			<g>
				<path class="st4" d="M14.5,9.1L14.5,9.1c-0.2,0-0.4-0.2-0.4-0.4V8.2H15v0.4C15,8.9,14.8,9.1,14.5,9.1z"/>
				<path class="st0" d="M14.5,9L14.5,9c-0.2,0-0.4-0.2-0.4-0.4V8.1H15v0.4C15,8.8,14.8,9,14.5,9z"/>
				<path class="st3" d="M14.5,8.8c-0.2,0-0.4-0.2-0.4-0.4v0.2c0,0.2,0.2,0.4,0.4,0.4C14.8,9,15,8.8,15,8.6V8.4
					C15,8.6,14.8,8.8,14.5,8.8z"/>
				<rect x="14.1" y="8.1" class="st4" width="0.9" height="0.1"/>
			</g>
			<g>
				<path class="st4" d="M16.8,9.1L16.8,9.1c-0.2,0-0.4-0.2-0.4-0.4V8.2h0.9v0.4C17.3,8.9,17.1,9.1,16.8,9.1z"/>
				<path class="st0" d="M16.8,9L16.8,9c-0.2,0-0.4-0.2-0.4-0.4V8.1h0.9v0.4C17.3,8.8,17.1,9,16.8,9z"/>
				<path class="st3" d="M16.8,8.8c-0.2,0-0.4-0.2-0.4-0.4v0.2c0,0.2,0.2,0.4,0.4,0.4s0.4-0.2,0.4-0.4V8.4
					C17.3,8.6,17.1,8.8,16.8,8.8z"/>
				<rect x="16.4" y="8.1" class="st4" width="0.9" height="0.1"/>
			</g>
			<g>
				<path class="st4" d="M19.1,9.1L19.1,9.1c-0.2,0-0.4-0.2-0.4-0.4V8.2h0.9v0.4C19.6,8.9,19.4,9.1,19.1,9.1z"/>
				<path class="st0" d="M19.1,9L19.1,9c-0.2,0-0.4-0.2-0.4-0.4V8.1h0.9v0.4C19.6,8.8,19.4,9,19.1,9z"/>
				<path class="st3" d="M19.1,8.8c-0.2,0-0.4-0.2-0.4-0.4v0.2c0,0.2,0.2,0.4,0.4,0.4s0.4-0.2,0.4-0.4V8.4
					C19.6,8.6,19.4,8.8,19.1,8.8z"/>
				<rect x="18.7" y="8.1" class="st4" width="0.9" height="0.1"/>
			</g>
			<g>
				<path class="st4" d="M21.4,9.1L21.4,9.1c-0.2,0-0.4-0.2-0.4-0.4V8.2h0.9v0.4C21.9,8.9,21.7,9.1,21.4,9.1z"/>
				<path class="st0" d="M21.4,9L21.4,9C21.2,9,21,8.8,21,8.6V8.1h0.9v0.4C21.9,8.8,21.7,9,21.4,9z"/>
				<path class="st3" d="M21.4,8.8c-0.2,0-0.4-0.2-0.4-0.4v0.2C21,8.8,21.2,9,21.4,9c0.2,0,0.4-0.2,0.4-0.4V8.4
					C21.9,8.6,21.7,8.8,21.4,8.8z"/>
				<rect x="21" y="8.1" class="st4" width="0.9" height="0.1"/>
			</g>
			<g>
				<path class="st4" d="M23.7,9.1L23.7,9.1c-0.2,0-0.4-0.2-0.4-0.4V8.2h0.9v0.4C24.2,8.9,24,9.1,23.7,9.1z"/>
				<path class="st0" d="M23.7,9L23.7,9c-0.2,0-0.4-0.2-0.4-0.4V8.1h0.9v0.4C24.2,8.8,24,9,23.7,9z"/>
				<path class="st3" d="M23.7,8.8c-0.2,0-0.4-0.2-0.4-0.4v0.2c0,0.2,0.2,0.4,0.4,0.4c0.2,0,0.4-0.2,0.4-0.4V8.4
					C24.2,8.6,24,8.8,23.7,8.8z"/>
				<rect x="23.3" y="8.1" class="st4" width="0.9" height="0.1"/>
			</g>
			<g>
				<path class="st4" d="M26,9.1L26,9.1c-0.2,0-0.4-0.2-0.4-0.4V8.2h0.9v0.4C26.5,8.9,26.3,9.1,26,9.1z"/>
				<path class="st0" d="M26,9L26,9c-0.2,0-0.4-0.2-0.4-0.4V8.1h0.9v0.4C26.5,8.8,26.3,9,26,9z"/>
				<path class="st3" d="M26,8.8c-0.2,0-0.4-0.2-0.4-0.4v0.2C25.6,8.8,25.8,9,26,9c0.2,0,0.4-0.2,0.4-0.4V8.4
					C26.5,8.6,26.3,8.8,26,8.8z"/>
				<rect x="25.6" y="8.1" class="st4" width="0.9" height="0.1"/>
			</g>
		</g>
		<rect x="0.8" y="5.8" class="st2" width="27.4" height="0.1"/>
		<rect x="0.8" y="6.3" class="st2" width="27.4" height="0.1"/>
		<rect x="0.8" y="5.6" class="st3" width="4.3" height="0.9"/>
		<rect x="2" y="8.1" class="st2" width="25" height="2.5"/>
	</g>
	<rect x="2.6" y="2.4" class="st0" width="23.7" height="3.2"/>
	<rect x="2.6" y="2.4" class="st10" width="23.7" height="0.2"/>
	<rect x="2.6" y="3.5" class="st2" width="23.7" height="0.2"/>
	<rect x="2.6" y="4.7" class="st2" width="23.7" height="0.2"/>
	<polygon class="st11" points="26,1.7 2.9,1.7 2.6,2.4 26.3,2.4 	"/>
	<g>
		<g>
			<path class="st1" d="M5.9,3.4L5.9,3.4c-0.3,0-0.6-0.3-0.6-0.6V1.7c0-0.1,0.1-0.2,0.2-0.2h0.8c0.1,0,0.2,0.1,0.2,0.2v1.1
				C6.5,3.1,6.2,3.4,5.9,3.4z"/>
			<path class="st0" d="M5.9,3.2L5.9,3.2c-0.3,0-0.6-0.3-0.6-0.6V1.5c0-0.1,0.1-0.2,0.2-0.2h0.8c0.1,0,0.2,0.1,0.2,0.2v1.1
				C6.5,2.9,6.2,3.2,5.9,3.2z"/>
			<path class="st2" d="M5.9,2.8c-0.3,0-0.6-0.3-0.6-0.6v0.3c0,0.3,0.3,0.6,0.6,0.6c0.3,0,0.6-0.3,0.6-0.6V2.3
				C6.5,2.6,6.2,2.8,5.9,2.8z"/>
			<path class="st1" d="M6,2.4H5.8c-0.1,0-0.1-0.1-0.1-0.1V1.7c0-0.1,0.1-0.1,0.1-0.1H6c0.1,0,0.1,0.1,0.1,0.1v0.5
				C6.2,2.3,6.1,2.4,6,2.4z"/>
		</g>
		<g>
			<path class="st1" d="M10.1,3.4L10.1,3.4c-0.3,0-0.6-0.3-0.6-0.6V1.7c0-0.1,0.1-0.2,0.2-0.2h0.8c0.1,0,0.2,0.1,0.2,0.2v1.1
				C10.7,3.1,10.5,3.4,10.1,3.4z"/>
			<path class="st0" d="M10.1,3.2L10.1,3.2c-0.3,0-0.6-0.3-0.6-0.6V1.5c0-0.1,0.1-0.2,0.2-0.2h0.8c0.1,0,0.2,0.1,0.2,0.2v1.1
				C10.7,2.9,10.5,3.2,10.1,3.2z"/>
			<path class="st2" d="M10.1,2.8c-0.3,0-0.6-0.3-0.6-0.6v0.3c0,0.3,0.3,0.6,0.6,0.6s0.6-0.3,0.6-0.6V2.3
				C10.7,2.6,10.5,2.8,10.1,2.8z"/>
			<path class="st1" d="M10.3,2.4H10c-0.1,0-0.1-0.1-0.1-0.1V1.7c0-0.1,0.1-0.1,0.1-0.1h0.2c0.1,0,0.1,0.1,0.1,0.1v0.5
				C10.4,2.3,10.3,2.4,10.3,2.4z"/>
		</g>
		<g>
			<path class="st1" d="M14.4,3.4L14.4,3.4c-0.3,0-0.6-0.3-0.6-0.6V1.7c0-0.1,0.1-0.2,0.2-0.2h0.8c0.1,0,0.2,0.1,0.2,0.2v1.1
				C14.9,3.1,14.7,3.4,14.4,3.4z"/>
			<path class="st0" d="M14.4,3.2L14.4,3.2c-0.3,0-0.6-0.3-0.6-0.6V1.5c0-0.1,0.1-0.2,0.2-0.2h0.8c0.1,0,0.2,0.1,0.2,0.2v1.1
				C14.9,2.9,14.7,3.2,14.4,3.2z"/>
			<path class="st2" d="M14.4,2.8c-0.3,0-0.6-0.3-0.6-0.6v0.3c0,0.3,0.3,0.6,0.6,0.6c0.3,0,0.6-0.3,0.6-0.6V2.3
				C14.9,2.6,14.7,2.8,14.4,2.8z"/>
			<path class="st1" d="M14.5,2.4h-0.2c-0.1,0-0.1-0.1-0.1-0.1V1.7c0-0.1,0.1-0.1,0.1-0.1h0.2c0.1,0,0.1,0.1,0.1,0.1v0.5
				C14.6,2.3,14.6,2.4,14.5,2.4z"/>
		</g>
		<g>
			<path class="st1" d="M18.6,3.4L18.6,3.4c-0.3,0-0.6-0.3-0.6-0.6V1.7c0-0.1,0.1-0.2,0.2-0.2H19c0.1,0,0.2,0.1,0.2,0.2v1.1
				C19.2,3.1,18.9,3.4,18.6,3.4z"/>
			<path class="st0" d="M18.6,3.2L18.6,3.2c-0.3,0-0.6-0.3-0.6-0.6V1.5c0-0.1,0.1-0.2,0.2-0.2H19c0.1,0,0.2,0.1,0.2,0.2v1.1
				C19.2,2.9,18.9,3.2,18.6,3.2z"/>
			<path class="st2" d="M18.6,2.8c-0.3,0-0.6-0.3-0.6-0.6v0.3c0,0.3,0.3,0.6,0.6,0.6c0.3,0,0.6-0.3,0.6-0.6V2.3
				C19.2,2.6,18.9,2.8,18.6,2.8z"/>
			<path class="st1" d="M18.7,2.4h-0.2c-0.1,0-0.1-0.1-0.1-0.1V1.7c0-0.1,0.1-0.1,0.1-0.1h0.2c0.1,0,0.1,0.1,0.1,0.1v0.5
				C18.9,2.3,18.8,2.4,18.7,2.4z"/>
		</g>
		<g>
			<path class="st1" d="M22.8,3.4L22.8,3.4c-0.3,0-0.6-0.3-0.6-0.6V1.7c0-0.1,0.1-0.2,0.2-0.2h0.8c0.1,0,0.2,0.1,0.2,0.2v1.1
				C23.4,3.1,23.2,3.4,22.8,3.4z"/>
			<path class="st0" d="M22.8,3.2L22.8,3.2c-0.3,0-0.6-0.3-0.6-0.6V1.5c0-0.1,0.1-0.2,0.2-0.2h0.8c0.1,0,0.2,0.1,0.2,0.2v1.1
				C23.4,2.9,23.2,3.2,22.8,3.2z"/>
			<path class="st2" d="M22.8,2.8c-0.3,0-0.6-0.3-0.6-0.6v0.3c0,0.3,0.3,0.6,0.6,0.6s0.6-0.3,0.6-0.6V2.3
				C23.4,2.6,23.2,2.8,22.8,2.8z"/>
			<path class="st1" d="M23,2.4h-0.2c-0.1,0-0.1-0.1-0.1-0.1V1.7c0-0.1,0.1-0.1,0.1-0.1H23c0.1,0,0.1,0.1,0.1,0.1v0.5
				C23.1,2.3,23,2.4,23,2.4z"/>
		</g>
	</g>
</g>
</svg>
