<?xml version="1.0" encoding="utf-8"?>
<!-- Generator: Adobe Illustrator 27.1.1, SVG Export Plug-In . SVG Version: 6.00 Build 0)  -->
<svg version="1.1" id="Layer_1" xmlns="http://www.w3.org/2000/svg" xmlns:xlink="http://www.w3.org/1999/xlink" x="0px" y="0px"
	 viewBox="0 0 995.4 458" style="enable-background:new 0 0 995.4 458;" xml:space="preserve">
<style type="text/css">
	.st0{fill:#231F20;}
</style>
<g>
	<path class="st0" d="M0.1,145c0-48.3,0-96.6,0-144.9c329.3,0,658.5,0,987.8-0.1c6.1,0,7.5,0.8,7.5,4.6
		c-0.2,57.8-0.2,115.6-0.2,173.4c-12.7,1.6-25.1,2.6-36.8,7.4c-14.2,5.8-32.4,6-48.9,8.4c-12.6,1.8-25,3.6-37.3,6
		c-4.2,0.8-7.6,2.7-7.2,5.9c0.2,2-1.6,3.1-4.2,3.9c-5.3,1.5-10.4,2.9-16.5,3.4c-8.3,0.7-17.4-0.6-24.8,1.6
		c-11.4,3.5-22.1,2.3-33.5,0.7c-10.4-1.4-21.9-3.8-31.7-0.4c-10.9,3.7-19.1,2.2-28.4-1.5c-7.3-2.9-15.5-5.1-24.6-4.9
		c-15.1,0.4-30.1,0.9-45.2-0.8c-15.3-1.7-30.6-3.1-45.9-4.6c-2.7-0.3-5.9-1-6.4-2.6c-1.7-5.3-9-5.6-15.1-6.2
		c-9.1-0.9-17.8-2.3-25.2-5.7c-2.9-1.3-5.6-1.7-8.9-1.7c-26.3,0.3-52.5-0.4-78.6-1.9c-21-1.2-41.2-5.2-60.6-10.3
		c-9.3-2.5-17.7-6.5-27.2-8c-8.1-1.3-15.2-3.3-21.9-6.1c-6.9-2.9-14.1-4.5-22.6-4.6c-15.7-0.3-30.9,2-46.4,2.8
		c-17.4,0.9-33.4,6.1-51,6.7c-12.3,0.4-24.5,1.3-36.4,3.6c-11.8,2.3-21.3-1.1-28.9-5.9c-4.3-2.8-8.6-5.3-14.1-7.2
		c-11.8-4-24-7.6-35-12.3c-14.5-6.2-29-8.5-46.1-4.7c-6.9,1.5-13.9,2.3-21.8,1.4c-10.8-1.2-22.6-1.9-32.7,1.3
		C21.2,145,10.8,145.2,0.1,145z"/>
</g>
</svg>
