<?xml version="1.0" encoding="utf-8"?>
<!-- Generator: Adobe Illustrator 27.1.1, SVG Export Plug-In . SVG Version: 6.00 Build 0)  -->
<svg version="1.1" id="Layer_3" xmlns="http://www.w3.org/2000/svg" xmlns:xlink="http://www.w3.org/1999/xlink" x="0px" y="0px"
	 viewBox="0 0 29.9 42.6" style="enable-background:new 0 0 29.9 42.6;" xml:space="preserve">
<style type="text/css">
	.st0{fill:#E69581;}
	.st1{opacity:0.2;fill:#69443B;enable-background:new    ;}
	.st2{fill:#FFE0CA;}
	.st3{opacity:0.3;fill:#69443B;enable-background:new    ;}
	.st4{fill:#69443B;}
	.st5{opacity:0.3;fill:#85564B;enable-background:new    ;}
	.st6{fill:#85564B;}
	.st7{fill:#5B6665;}
	.st8{fill:#C27E6D;}
	.st9{fill:#B59F9A;}
	.st10{opacity:0.2;fill:#594E4C;enable-background:new    ;}
	.st11{opacity:0.3;fill:#F0D3CC;enable-background:new    ;}
	.st12{opacity:0.2;fill:#85564B;enable-background:new    ;}
	.st13{fill:#FFA273;}
	.st14{fill:#A36A5C;}
	.st15{opacity:0.3;fill:#591200;enable-background:new    ;}
	.st16{fill:#FFE7CA;}
	.st17{opacity:0.1;fill:#FFAB45;enable-background:new    ;}
	.st18{opacity:0.3;fill:#A36A5C;enable-background:new    ;}
	.st19{opacity:0.2;fill:#910C0C;enable-background:new    ;}
	.st20{opacity:0.3;fill:#FF9245;enable-background:new    ;}
	.st21{opacity:0.1;fill:#FF9245;enable-background:new    ;}
	.st22{opacity:0.2;fill:#FFFFFF;enable-background:new    ;}
	.st23{opacity:0.2;fill:#FF9245;enable-background:new    ;}
	.st24{opacity:0.2;fill:#FF8833;enable-background:new    ;}
	.st25{fill:#FFC8A1;}
</style>
<g>
	<g>
		<g>
			<g>
				<rect x="10.2" y="27.8" class="st0" width="8.3" height="2.6"/>
				<rect x="10.2" y="27.8" class="st1" width="0.4" height="2.6"/>
				<rect x="11.2" y="27.8" class="st2" width="6.2" height="2.6"/>
				<rect x="10.2" y="29.1" class="st0" width="8.3" height="0.5"/>
				<polygon class="st2" points="16.4,27.2 12.3,27.2 9.9,27.2 9.9,27.4 10.2,27.8 12.3,27.8 16.4,27.8 18.5,27.8 18.7,27.4 
					18.7,27.2 				"/>
				<rect x="10.2" y="27.8" class="st3" width="8.3" height="0.2"/>
				<polygon class="st4" points="18.8,26.9 9.8,26.9 9.9,27.2 18.7,27.2 				"/>
				<polygon class="st3" points="16.4,27.2 12.3,27.2 9.9,27.2 9.9,27.4 18.7,27.4 18.7,27.2 				"/>
			</g>
			<rect x="10.6" y="19.7" class="st0" width="7.5" height="7.2"/>
			<rect x="10.6" y="19.7" class="st5" width="7.5" height="0.3"/>
			<rect x="10.6" y="25.6" class="st2" width="7.5" height="1.3"/>
			<polygon class="st2" points="15.6,18.3 13.1,18.3 10,18.3 10,19 10.6,19.7 13.1,19.7 15.6,19.7 18.1,19.7 18.7,19 18.7,18.3 			
				"/>
			<polygon class="st6" points="16.2,17.8 12.5,17.8 9.4,17.8 9.4,18 10,18.3 12.5,18.3 16.2,18.3 18.8,18.3 19.3,18 19.3,17.8 			
				"/>
			<polygon class="st5" points="18.7,18.6 18.7,18.3 15.6,18.3 13.1,18.3 10,18.3 10,18.6 			"/>
			<g>
				<path class="st2" d="M15.3,20.8c0-0.3-0.2-0.6-0.5-0.6c-0.2,0-0.4,0.2-0.5,0.5c0-0.3-0.2-0.5-0.5-0.5s-0.5,0.3-0.5,0.6l0,0l0,0
					l0,0v3.9l0,0V26h1.9L15.3,20.8L15.3,20.8z"/>
			</g>
			<g>
				<path class="st2" d="M12.7,20.8c0-0.3-0.2-0.6-0.5-0.6c-0.2,0-0.4,0.2-0.5,0.5c0-0.3-0.2-0.5-0.5-0.5s-0.5,0.3-0.5,0.6l0,0l0,0
					l0,0v3.9l0,0V26h1.9L12.7,20.8L12.7,20.8z"/>
			</g>
			<g>
				<path class="st2" d="M17.9,20.8c0-0.3-0.2-0.6-0.5-0.6c-0.2,0-0.4,0.2-0.5,0.5c0-0.3-0.2-0.5-0.5-0.5s-0.5,0.3-0.5,0.6l0,0l0,0
					l0,0v3.9l0,0V26h1.9L17.9,20.8L17.9,20.8z"/>
			</g>
		</g>
		<path class="st7" d="M17.3,14.4c-0.4-0.2-1.6-1.4-2.4-1.5c-0.2,0-0.3,0-0.4,0c0,0-0.1,0-0.2,0c-0.1,0-0.1,0-0.2,0
			c-0.1,0-0.2,0-0.4,0c-0.8,0.1-2,1.3-2.4,1.5s-1.6,2.3-1.6,3.4h4.2h0.5h4.2C18.8,16.7,17.7,14.5,17.3,14.4z"/>
		<path class="st7" d="M14.6,9.8h-0.1V9.7h-0.1h-0.1v0.1h-0.1c0.1,1.7-0.8,3.8-0.8,3.8h1h0.2h1C15.4,13.7,14.5,11.5,14.6,9.8z"/>
		<path class="st7" d="M15,10c0,0.3-0.3,0.5-0.7,0.5s-0.7-0.2-0.7-0.5s0.3-0.5,0.7-0.5S15,9.7,15,10z"/>
		<path class="st7" d="M14.7,10.7H14c-0.2,0-0.3-0.2-0.3-0.3l0,0h1.4l0,0C15.1,10.5,14.9,10.7,14.7,10.7z"/>
		<g>
			<polygon class="st7" points="14.4,8.9 14.1,9.9 14.4,9.9 14.6,9.9 			"/>
			<rect x="14.2" y="7.9" class="st7" width="0.3" height="1.9"/>
			<rect x="13.6" y="8.3" class="st7" width="1.6" height="0.2"/>
			<g>
				<path class="st7" d="M14.6,7.7c0,0.1-0.1,0.2-0.2,0.2c-0.1,0-0.2-0.1-0.2-0.2s0.1-0.2,0.2-0.2S14.6,7.6,14.6,7.7z"/>
				<path class="st7" d="M14.4,7.8c0,0.1-0.1,0.2-0.2,0.2S14,7.9,14,7.8s0.1-0.2,0.2-0.2C14.3,7.6,14.4,7.7,14.4,7.8z"/>
				<path class="st7" d="M14.7,7.8c0,0.1-0.1,0.2-0.2,0.2c-0.1,0-0.2-0.1-0.2-0.2s0.1-0.2,0.2-0.2C14.7,7.6,14.7,7.7,14.7,7.8z"/>
			</g>
			<g>
				<path class="st7" d="M13.4,8.1c0.1,0,0.2,0.1,0.2,0.2c0,0.1-0.1,0.2-0.2,0.2c-0.1,0-0.2-0.1-0.2-0.2C13.2,8.2,13.3,8.1,13.4,8.1
					z"/>
				<path class="st7" d="M13.6,8.3c0.1,0,0.2,0.1,0.2,0.2c0,0.1-0.1,0.2-0.2,0.2c-0.1,0-0.2-0.1-0.2-0.2C13.4,8.4,13.5,8.3,13.6,8.3
					z"/>
				<path class="st7" d="M13.6,8c0.1,0,0.2,0.1,0.2,0.2c0,0.1-0.1,0.2-0.2,0.2c-0.1,0-0.2-0.1-0.2-0.2C13.4,8.1,13.5,8,13.6,8z"/>
			</g>
			<g>
				<path class="st7" d="M15.3,8.1c-0.1,0-0.2,0.1-0.2,0.2c0,0.1,0.1,0.2,0.2,0.2c0.1,0,0.2-0.1,0.2-0.2C15.6,8.2,15.5,8.1,15.3,8.1
					z"/>
				<path class="st7" d="M15.2,8.3c-0.1,0-0.2,0.1-0.2,0.2c0,0.1,0.1,0.2,0.2,0.2c0.1,0,0.2-0.1,0.2-0.2C15.4,8.4,15.3,8.3,15.2,8.3
					z"/>
				<path class="st7" d="M15.2,8C15.1,8,15,8.1,15,8.2c0,0.1,0.1,0.2,0.2,0.2c0.1,0,0.2-0.1,0.2-0.2S15.3,8,15.2,8z"/>
			</g>
		</g>
	</g>
	<g>
		<g>
			<g>
				<g>
					<rect x="1.5" y="23.4" class="st0" width="26.8" height="19.2"/>
					<polygon class="st8" points="20.8,22.2 9.1,22.2 0.2,22.2 0.2,22.7 1.5,23.4 9.1,23.4 20.8,23.4 28.4,23.4 29.7,22.7 
						29.7,22.2 					"/>
					<polygon class="st6" points="20.8,21.9 9.1,21.9 0,21.9 0.2,22.2 9.1,22.2 20.8,22.2 29.7,22.2 29.9,21.9 					"/>
					<polygon class="st5" points="1.5,23.4 9.1,23.4 20.8,23.4 28.4,23.4 29.7,22.7 0.2,22.7 					"/>
					<rect x="1.5" y="38.8" class="st9" width="26.8" height="3.8"/>
					<rect x="1.5" y="39.2" class="st10" width="26.8" height="0.5"/>
					<rect x="1.5" y="39.2" class="st10" width="26.8" height="0.2"/>
					<rect x="1.5" y="38.8" class="st11" width="26.8" height="0.2"/>
					<polygon class="st9" points="1.5,39.6 1.1,40.2 1.1,42.6 1.5,42.6 					"/>
					<polygon class="st9" points="28.4,39.6 28.8,40.2 28.8,42.6 28.4,42.6 					"/>
				</g>
				<path class="st2" d="M7,26.5L7,26.5c-0.6,0-1,0.4-1,0.9c0-0.4-0.4-0.9-1-0.9l0,0c-0.5,0-0.9,0.4-0.9,0.9v0.7v2.5v8.2H8v-8.2
					v-2.5v-0.7C7.9,27,7.5,26.5,7,26.5z"/>
				<rect x="11.3" y="26.4" class="st0" width="7.4" height="12.4"/>
				<path class="st2" d="M17.5,38.8h-5.1v-8c0-1.3,1-2.3,2.3-2.3h0.4c1.3,0,2.3,1,2.3,2.3v8H17.5z"/>
				<g>
					<rect x="1.5" y="23.4" class="st2" width="1.5" height="15.5"/>
					<rect x="1.5" y="23.8" class="st0" width="1.5" height="0.4"/>
					<rect x="1.5" y="25.1" class="st0" width="1.5" height="0.4"/>
					<rect x="1.5" y="26.4" class="st0" width="1.5" height="0.4"/>
					<rect x="1.5" y="27.7" class="st0" width="1.5" height="0.4"/>
					<rect x="1.5" y="29" class="st0" width="1.5" height="0.4"/>
					<rect x="1.5" y="30.3" class="st0" width="1.5" height="0.4"/>
					<rect x="1.5" y="31.6" class="st0" width="1.5" height="0.4"/>
					<rect x="1.5" y="32.9" class="st0" width="1.5" height="0.4"/>
					<rect x="1.5" y="34.2" class="st0" width="1.5" height="0.4"/>
					<rect x="1.5" y="35.5" class="st0" width="1.5" height="0.4"/>
					<rect x="1.5" y="36.8" class="st0" width="1.5" height="0.4"/>
					<rect x="1.5" y="38.2" class="st0" width="1.5" height="0.4"/>
					<rect x="2.8" y="23.4" class="st12" width="0.2" height="15.5"/>
				</g>
				<rect x="4.7" y="29.6" class="st13" width="2.7" height="3.4"/>
				<rect x="4.9" y="30.1" class="st14" width="2.1" height="4.9"/>
				<rect x="4.9" y="30.3" class="st0" width="2.1" height="0.1"/>
				<rect x="4.9" y="31" class="st0" width="2.1" height="0.1"/>
				<rect x="4.9" y="31.6" class="st0" width="2.1" height="0.1"/>
				<rect x="4.9" y="32.3" class="st0" width="2.1" height="0.1"/>
				<rect x="4.9" y="32.9" class="st0" width="2.1" height="0.1"/>
				<rect x="4.9" y="33.6" class="st0" width="2.1" height="0.1"/>
				<rect x="4.9" y="34.2" class="st0" width="2.1" height="0.1"/>
				<rect x="4.9" y="34.9" class="st0" width="2.1" height="0.1"/>
				<g>
					<rect x="5.6" y="30.1" class="st0" width="0.1" height="4.9"/>
					<rect x="6.4" y="30.1" class="st0" width="0.1" height="4.9"/>
				</g>
				<polygon class="st15" points="4.9,30.1 4.9,30.3 6.8,30.3 6.8,35 7,35 7,30.1 				"/>
				<g>
					<rect x="4.7" y="28.5" class="st15" width="2.6" height="0.2"/>
					<rect x="4.7" y="28.5" class="st13" width="2.6" height="0.2"/>
					<rect x="4.5" y="28.4" class="st15" width="2.9" height="0.3"/>
					<rect x="4.5" y="28.3" class="st13" width="2.9" height="0.3"/>
				</g>
				<path class="st2" d="M22.9,26.5L22.9,26.5c0.6,0,1,0.4,1,0.9c0-0.5,0.4-0.9,0.9-0.9l0,0c0.5,0,0.9,0.4,0.9,0.9v0.7v2.5v8.2H22
					v-8.2v-2.5v-0.7C22,27,22.4,26.5,22.9,26.5z"/>
				<g>
					<rect x="26.8" y="23.3" class="st2" width="1.5" height="15.5"/>
					<rect x="26.8" y="23.8" class="st0" width="1.5" height="0.4"/>
					<rect x="26.8" y="25.1" class="st0" width="1.5" height="0.4"/>
					<rect x="26.8" y="26.4" class="st0" width="1.5" height="0.4"/>
					<rect x="26.8" y="27.8" class="st0" width="1.5" height="0.4"/>
					<rect x="26.8" y="29.1" class="st0" width="1.5" height="0.4"/>
					<rect x="26.8" y="30.4" class="st0" width="1.5" height="0.4"/>
					<rect x="26.8" y="31.7" class="st0" width="1.5" height="0.4"/>
					<rect x="26.8" y="33" class="st0" width="1.5" height="0.4"/>
					<rect x="26.8" y="34.3" class="st0" width="1.5" height="0.4"/>
					<rect x="26.8" y="35.6" class="st0" width="1.5" height="0.4"/>
					<rect x="26.8" y="36.9" class="st0" width="1.5" height="0.4"/>
					<rect x="26.8" y="38.2" class="st0" width="1.5" height="0.4"/>
					<rect x="26.8" y="23.3" class="st12" width="0.2" height="15.5"/>
				</g>
				<rect x="22.5" y="29.6" class="st13" width="2.7" height="3.4"/>
				<rect x="22.8" y="30.1" class="st14" width="2.1" height="4.9"/>
				<rect x="22.8" y="30.3" class="st0" width="2.1" height="0.1"/>
				<rect x="22.8" y="30.9" class="st0" width="2.1" height="0.1"/>
				<rect x="22.8" y="31.6" class="st0" width="2.1" height="0.1"/>
				<rect x="22.8" y="32.2" class="st0" width="2.1" height="0.1"/>
				<rect x="22.8" y="32.9" class="st0" width="2.1" height="0.1"/>
				<rect x="22.8" y="33.5" class="st0" width="2.1" height="0.1"/>
				<rect x="22.8" y="34.2" class="st0" width="2.1" height="0.1"/>
				<rect x="22.8" y="34.8" class="st0" width="2.1" height="0.1"/>
				<g>
					<rect x="24.3" y="30.1" class="st0" width="0.1" height="4.9"/>
					<rect x="23.3" y="30.1" class="st0" width="0.1" height="4.9"/>
				</g>
				<polygon class="st15" points="24.9,30.1 24.9,30.3 23.1,30.3 23.1,35 22.9,35 22.9,30.1 				"/>
				<g>
					<rect x="22.6" y="28.6" class="st15" width="2.6" height="0.2"/>
					<rect x="22.6" y="28.4" class="st13" width="2.6" height="0.2"/>
					<rect x="22.4" y="28.3" class="st15" width="2.9" height="0.3"/>
					<rect x="22.4" y="28.3" class="st13" width="2.9" height="0.3"/>
				</g>
			</g>
			<polygon class="st10" points="27.5,42.1 27.5,41.8 27.5,41.7 26.4,41.7 26.4,41.3 26.4,41.2 25.3,41.2 25.3,40.8 25.3,40.7 
				24.6,40.7 24.6,40.3 24.6,40.3 23.6,40.3 23.6,39.9 23.6,39.8 22.8,39.8 22.8,39.5 22.8,39.4 22.8,39.3 22,39.3 22,39.1 22,38.9 
				22,38.8 6.2,38.8 6.2,38.9 6.2,39.1 6.2,39.3 5.4,39.3 5.4,39.4 5.4,39.5 5.4,39.8 4.6,39.8 4.6,39.9 4.6,40.3 3.6,40.3 
				3.6,40.3 3.6,40.7 3,40.7 3,40.8 3,41.2 1.8,41.2 1.8,41.3 1.8,41.7 1.5,41.7 1.5,42.6 28.4,42.6 28.4,42.1 			"/>
			<g>
				<rect x="7.2" y="38.8" class="st16" width="15.7" height="0.5"/>
				<rect x="7.2" y="38.9" class="st17" width="15.7" height="0.1"/>
				<rect x="6.3" y="39.3" class="st16" width="17.4" height="0.5"/>
				<rect x="6.3" y="39.4" class="st17" width="17.4" height="0.1"/>
				<rect x="5.6" y="39.8" class="st16" width="18.9" height="0.5"/>
				<rect x="5.6" y="39.8" class="st17" width="18.9" height="0.1"/>
				<rect x="4.6" y="40.3" class="st16" width="20.9" height="0.5"/>
				<rect x="4.6" y="40.3" class="st17" width="20.9" height="0.1"/>
				<rect x="3.9" y="40.7" class="st16" width="22.3" height="0.5"/>
				<rect x="3.9" y="40.7" class="st17" width="22.3" height="0.1"/>
				<rect x="2.7" y="41.2" class="st16" width="24.7" height="0.5"/>
				<rect x="2.7" y="41.2" class="st17" width="24.7" height="0.1"/>
				<rect x="1.6" y="41.7" class="st16" width="26.8" height="0.5"/>
				<rect x="1.6" y="41.7" class="st17" width="26.8" height="0.1"/>
				<rect x="0.2" y="42.1" class="st16" width="29.7" height="0.5"/>
				<rect x="0.2" y="42.1" class="st17" width="29.7" height="0.1"/>
			</g>
			<rect x="13" y="32.3" class="st14" width="3.9" height="6.6"/>
			<path class="st13" d="M16.9,31.8H13V31c0-1.1,0.9-1.9,1.9-1.9l0,0c1.1,0,1.9,0.9,1.9,1.9v0.8H16.9z"/>
		</g>
		<rect x="1.5" y="23.4" class="st3" width="26.8" height="0.9"/>
		<polygon class="st18" points="9.3,28.8 9.3,28.9 9.3,29.3 9.3,29.4 9.6,29.4 9.6,29.6 9.6,36.4 9.3,36.4 9.3,36.5 9.3,36.7 
			9.3,36.8 9.3,36.8 9.3,36.8 9.3,36.9 9.3,36.9 9.4,36.9 9.4,37.1 9.4,38.4 9.3,38.4 9.3,38.5 9.3,38.7 9.3,38.8 11.7,38.8 
			11.7,38.7 11.7,38.5 11.7,38.4 11.6,38.4 11.6,37.1 11.6,36.9 11.6,36.9 11.6,36.9 11.6,36.8 11.6,36.8 11.7,36.8 11.7,36.7 
			11.7,36.5 11.7,36.4 11.5,36.4 11.5,29.6 11.5,29.4 11.7,29.4 11.7,29.3 11.7,28.9 11.7,28.8 		"/>
		<path class="st19" d="M14.9,25.3c-2.8,0-5.1,1.3-5.1,2.9v1.4h1.8v-1.3c0-1.1,1.5-1.9,3.3-1.9s3.3,0.9,3.3,1.9v1.3H20v-1.4
			C20,26.6,17.8,25.3,14.9,25.3z"/>
		<g>
			<rect x="9.8" y="29" class="st2" width="1.9" height="7.5"/>
			<rect x="9.8" y="29" class="st20" width="1.9" height="0.6"/>
			<rect x="9.8" y="29" class="st21" width="0.7" height="7.5"/>
			<g>
				<rect x="9.5" y="36.4" class="st2" width="2.4" height="0.4"/>
				<rect x="9.5" y="36.4" class="st22" width="2.4" height="0.1"/>
				<rect x="9.5" y="36.7" class="st23" width="2.4" height="0.1"/>
			</g>
			<g>
				<rect x="9.5" y="28.8" class="st2" width="2.4" height="0.6"/>
				<rect x="9.5" y="28.8" class="st22" width="2.4" height="0.1"/>
				<rect x="9.5" y="29.3" class="st23" width="2.4" height="0.2"/>
			</g>
			<g>
				<rect x="9.5" y="38.4" class="st2" width="2.4" height="0.4"/>
				<rect x="9.5" y="38.4" class="st22" width="2.4" height="0.1"/>
				<rect x="9.5" y="38.7" class="st23" width="2.4" height="0.1"/>
			</g>
			<g>
				<rect x="9.6" y="36.8" class="st2" width="2.3" height="0.1"/>
				<polygon class="st22" points="9.6,36.8 11.9,36.8 11.9,36.8 				"/>
				<polygon class="st23" points="9.6,36.9 11.9,36.9 11.9,36.9 				"/>
			</g>
			<rect x="9.7" y="36.9" class="st2" width="2.1" height="1.8"/>
			<rect x="9.7" y="36.9" class="st20" width="2.1" height="0.1"/>
		</g>
		<polygon class="st18" points="17.7,28.8 17.7,28.9 17.7,29.3 17.7,29.4 18,29.4 18,29.6 18,36.4 17.7,36.4 17.7,36.5 17.7,36.7 
			17.7,36.8 17.8,36.8 17.8,36.8 17.8,36.9 17.8,36.9 17.9,36.9 17.9,37.1 17.9,38.4 17.7,38.4 17.7,38.5 17.7,38.7 17.7,38.8 
			20.1,38.8 20.1,38.7 20.1,38.5 20.1,38.4 20,38.4 20,37.1 20,36.9 20.1,36.9 20.1,36.9 20.1,36.8 20.1,36.8 20.1,36.8 20.1,36.7 
			20.1,36.5 20.1,36.4 19.9,36.4 19.9,29.6 19.9,29.4 20.1,29.4 20.1,29.3 20.1,28.9 20.1,28.8 		"/>
		<g>
			<rect x="18.2" y="29" class="st2" width="1.9" height="7.5"/>
			<rect x="18.2" y="29" class="st20" width="1.9" height="0.6"/>
			<rect x="18.2" y="29" class="st21" width="0.7" height="7.5"/>
			<g>
				<rect x="18" y="36.4" class="st2" width="2.4" height="0.4"/>
				<rect x="18" y="36.4" class="st22" width="2.4" height="0.1"/>
				<rect x="18" y="36.7" class="st23" width="2.4" height="0.1"/>
			</g>
			<g>
				<rect x="18" y="28.8" class="st2" width="2.4" height="0.6"/>
				<rect x="18" y="28.8" class="st22" width="2.4" height="0.1"/>
				<rect x="18" y="29.3" class="st23" width="2.4" height="0.2"/>
			</g>
			<g>
				<rect x="18" y="38.4" class="st2" width="2.4" height="0.4"/>
				<rect x="18" y="38.4" class="st22" width="2.4" height="0.1"/>
				<rect x="18" y="38.7" class="st23" width="2.4" height="0.1"/>
			</g>
			<g>
				<rect x="18" y="36.8" class="st2" width="2.3" height="0.1"/>
				<polygon class="st22" points="18,36.8 20.3,36.8 20.3,36.8 				"/>
				<polygon class="st23" points="18,36.9 20.3,36.9 20.3,36.9 				"/>
			</g>
			<rect x="18.1" y="36.9" class="st2" width="2.1" height="1.8"/>
			<rect x="18.1" y="36.9" class="st20" width="2.1" height="0.1"/>
		</g>
		<path class="st2" d="M14.9,24.5c-2.8,0-5.1,1.3-5.1,2.9v1.4h1.8v-1.3c0-1.1,1.5-1.9,3.3-1.9s3.3,0.9,3.3,1.9v1.3H20v-1.4
			C20,25.8,17.8,24.5,14.9,24.5z"/>
		<polygon class="st2" points="16,23.4 13.9,23.4 8.9,23.4 8.9,24 10.5,26 15,25.5 19.4,26 21,24 21,23.4 		"/>
		<path class="st24" d="M18.8,25.5c-1-0.5-2.3-0.8-3.8-0.8s-2.8,0.3-3.8,0.8c-0.8,0.5-1.3,1.2-1.3,1.9v1.2h0.5v-1.4
			c0-1.2,2.4-2.1,4.6-2.1s4.6,0.9,4.6,2.1v1.4H20v-1.2C20,26.7,19.6,26,18.8,25.5z"/>
		<path class="st25" d="M14.9,24.5c-3.1,0-5.6,1.3-5.6,2.9v0.9h1V27c0-1.2,2.4-2.1,4.6-2.1s4.6,0.9,4.6,2.1v1.4h1.1v-0.9
			C20.6,25.8,18.1,24.5,14.9,24.5z"/>
		<rect x="8.8" y="23" class="st6" width="12.2" height="0.4"/>
		<polygon class="st4" points="21,23.1 8.8,23.1 8.1,22.7 21.7,22.7 		"/>
	</g>
	<g>
		<g>
			<g>
				<rect x="1" y="19.4" class="st0" width="7.9" height="2.5"/>
				<rect x="1" y="19.4" class="st1" width="0.4" height="2.5"/>
				<rect x="1.9" y="19.4" class="st2" width="6" height="2.5"/>
				<rect x="1" y="20.6" class="st0" width="7.9" height="0.5"/>
				<polygon class="st2" points="6.9,18.8 3,18.8 0.7,18.8 0.7,19 1,19.4 3,19.4 6.9,19.4 8.9,19.4 9.1,19 9.1,18.8 				"/>
				<rect x="1" y="19.4" class="st3" width="7.9" height="0.2"/>
				<polygon class="st4" points="9.2,18.6 0.6,18.5 0.7,18.8 9.1,18.8 				"/>
				<polygon class="st3" points="6.9,18.8 3,18.8 0.7,18.8 0.7,19 9.1,19 9.1,18.8 				"/>
			</g>
			<rect x="1.3" y="11.7" class="st0" width="7.2" height="6.9"/>
			<rect x="1.3" y="11.7" class="st5" width="7.2" height="0.3"/>
			<rect x="1.3" y="17.3" class="st2" width="7.2" height="1.3"/>
			<polygon class="st2" points="6.1,10.4 3.8,10.4 0.7,10.4 0.7,11 1.3,11.7 3.8,11.7 6.1,11.7 8.5,11.7 9.1,11 9.1,10.4 			"/>
			<polygon class="st6" points="6.7,9.8 3.2,9.8 0.2,9.8 0.2,10 0.7,10.4 3.2,10.4 6.7,10.4 9.1,10.4 9.6,10 9.6,9.8 			"/>
			<polygon class="st5" points="9.1,10.6 9.1,10.4 6.1,10.4 3.8,10.4 0.7,10.4 0.7,10.6 			"/>
			<g>
				<path class="st2" d="M5.8,12.7c0-0.3-0.2-0.6-0.5-0.6c-0.2,0-0.4,0.2-0.5,0.5c0-0.3-0.2-0.5-0.5-0.5s-0.5,0.3-0.5,0.6l0,0l0,0
					l0,0v3.7l0,0v1.2h1.8L5.8,12.7L5.8,12.7z"/>
				<rect x="4.5" y="13.2" class="st6" width="0.9" height="3.4"/>
			</g>
			<g>
				<path class="st2" d="M3.4,12.7c0-0.3-0.2-0.6-0.5-0.6c-0.2,0-0.4,0.2-0.5,0.5c0-0.3-0.2-0.5-0.5-0.5s-0.5,0.3-0.5,0.6l0,0l0,0
					l0,0v3.7l0,0v1.2h1.8L3.4,12.7L3.4,12.7z"/>
				<rect x="2" y="13.2" class="st6" width="0.9" height="3.4"/>
			</g>
			<g>
				<path class="st2" d="M8.3,12.7c0-0.3-0.2-0.6-0.5-0.6c-0.2,0-0.4,0.2-0.5,0.5c0-0.3-0.2-0.5-0.5-0.5s-0.5,0.3-0.5,0.6l0,0l0,0
					l0,0v3.7l0,0v1.2h1.8L8.3,12.7L8.3,12.7z"/>
				<rect x="6.9" y="13.2" class="st6" width="0.9" height="3.4"/>
			</g>
		</g>
		<path class="st7" d="M7.7,6.6C7.3,6.4,6.1,5.3,5.4,5.2c-0.1,0-0.3,0-0.3,0H5c-0.1,0-0.1,0-0.1,0c-0.1,0-0.2,0-0.3,0
			C3.7,5.3,2.5,6.4,2.1,6.6C1.7,6.7,0.6,8.8,0.6,9.8h4.1h0.5h4.1C9.2,8.8,8.1,6.7,7.7,6.6z"/>
		<path class="st7" d="M5.1,2.3L5.1,2.3L5,2.1H4.9H4.8v0.1H4.7c0.1,1.6-0.8,3.7-0.8,3.7h0.9H5h0.9C5.9,5.9,5,3.9,5.1,2.3z"/>
		<path class="st7" d="M5.6,2.4c0,0.3-0.3,0.5-0.7,0.5c-0.4,0-0.7-0.2-0.7-0.5s0.3-0.5,0.7-0.5C5.3,1.9,5.6,2.2,5.6,2.4z"/>
		<path class="st7" d="M5.3,3H4.6C4.4,3,4.2,2.9,4.2,2.7l0,0h1.3l0,0C5.6,2.9,5.4,3,5.3,3z"/>
		<g>
			<polygon class="st7" points="4.9,1.3 4.7,2.3 4.9,2.3 5.1,2.3 			"/>
			<rect x="4.8" y="0.4" class="st7" width="0.3" height="1.8"/>
			<rect x="4.1" y="0.7" class="st7" width="1.6" height="0.2"/>
			<g>
				<path class="st7" d="M5.2,0.2c0,0.1-0.1,0.2-0.2,0.2S4.8,0.3,4.8,0.2S4.9,0,5,0S5.2,0.1,5.2,0.2z"/>
				<path class="st7" d="M5,0.3c0,0.1-0.1,0.2-0.2,0.2S4.6,0.4,4.6,0.3s0.1-0.2,0.2-0.2C4.9,0.1,5,0.2,5,0.3z"/>
				<path class="st7" d="M5.3,0.3c0,0.1-0.1,0.2-0.2,0.2C5,0.5,4.9,0.4,4.9,0.3S5,0.1,5.1,0.1C5.2,0.1,5.3,0.2,5.3,0.3z"/>
			</g>
			<g>
				<path class="st7" d="M4,0.6c0.1,0,0.2,0.1,0.2,0.2S4.1,1,4,1C3.9,1,3.8,0.9,3.8,0.8C3.8,0.7,3.9,0.6,4,0.6z"/>
				<path class="st7" d="M4.2,0.8c0.1,0,0.2,0.1,0.2,0.2S4.3,1.1,4.2,1.1C4.1,1.1,4,1,4,0.9S4.1,0.8,4.2,0.8z"/>
				<path class="st7" d="M4.2,0.5c0.1,0,0.2,0.1,0.2,0.2S4.3,0.9,4.2,0.9C4.1,0.8,4,0.7,4,0.6S4.1,0.5,4.2,0.5z"/>
			</g>
			<g>
				<path class="st7" d="M5.9,0.6c-0.1,0-0.2,0.1-0.2,0.2S5.8,1,5.9,1s0.2-0.1,0.2-0.2S6,0.6,5.9,0.6z"/>
				<path class="st7" d="M5.7,0.8C5.6,0.8,5.5,0.9,5.5,1s0.1,0.2,0.2,0.2S5.9,1.1,5.9,1C5.9,0.8,5.8,0.8,5.7,0.8z"/>
				<path class="st7" d="M5.7,0.5c-0.1,0-0.2,0.1-0.2,0.2s0.1,0.2,0.2,0.2s0.2-0.1,0.2-0.2C5.9,0.5,5.8,0.5,5.7,0.5z"/>
			</g>
		</g>
	</g>
	<g>
		<g>
			<g>
				<rect x="20" y="19.4" class="st0" width="7.9" height="2.5"/>
				<rect x="20" y="19.4" class="st1" width="0.4" height="2.5"/>
				<rect x="20.9" y="19.4" class="st2" width="6" height="2.5"/>
				<rect x="20" y="20.6" class="st0" width="7.9" height="0.5"/>
				<polygon class="st2" points="25.9,18.8 21.9,18.8 19.7,18.8 19.7,19 20,19.4 21.9,19.4 25.9,19.4 27.8,19.4 28.1,19 28.1,18.8 
									"/>
				<rect x="20" y="19.4" class="st3" width="7.9" height="0.2"/>
				<polygon class="st4" points="28.2,18.6 19.6,18.6 19.7,18.8 28.1,18.8 				"/>
				<polygon class="st3" points="25.9,18.8 21.9,18.8 19.7,18.8 19.7,19 28.1,19 28.1,18.8 				"/>
			</g>
			<rect x="20.3" y="11.7" class="st0" width="7.2" height="6.9"/>
			<rect x="20.3" y="11.7" class="st5" width="7.2" height="0.3"/>
			<rect x="20.3" y="17.3" class="st2" width="7.2" height="1.3"/>
			<polygon class="st2" points="25.1,10.4 22.8,10.4 19.7,10.4 19.7,11 20.3,11.7 22.8,11.7 25.1,11.7 27.5,11.7 28.1,11 28.1,10.4 
							"/>
			<polygon class="st6" points="25.6,9.9 22.2,9.9 19.2,9.8 19.2,10 19.7,10.4 22.2,10.4 25.6,10.4 28.1,10.4 28.6,10 28.6,9.9 			
				"/>
			<polygon class="st5" points="28.1,10.6 28.1,10.4 25.1,10.4 22.8,10.4 19.7,10.4 19.7,10.6 			"/>
			<g>
				<path class="st2" d="M24.8,12.7c0-0.3-0.2-0.6-0.5-0.6c-0.2,0-0.4,0.2-0.5,0.5c0-0.3-0.2-0.5-0.5-0.5s-0.5,0.3-0.5,0.6l0,0l0,0
					l0,0v3.7l0,0v1.2h1.8L24.8,12.7L24.8,12.7z"/>
				<rect x="23.5" y="13.2" class="st6" width="0.9" height="3.4"/>
			</g>
			<g>
				<path class="st2" d="M22.4,12.7c0-0.3-0.2-0.6-0.5-0.6c-0.2,0-0.4,0.2-0.5,0.5c0-0.3-0.2-0.5-0.5-0.5s-0.5,0.3-0.5,0.6l0,0l0,0
					l0,0v3.7l0,0v1.2h1.8L22.4,12.7L22.4,12.7z"/>
				<rect x="21" y="13.2" class="st6" width="0.9" height="3.4"/>
			</g>
			<g>
				<path class="st2" d="M27.3,12.7c0-0.3-0.2-0.6-0.5-0.6c-0.2,0-0.4,0.2-0.5,0.5c0-0.3-0.2-0.5-0.5-0.5s-0.5,0.3-0.5,0.6l0,0l0,0
					l0,0v3.7l0,0v1.2h1.8L27.3,12.7L27.3,12.7z"/>
				<rect x="25.9" y="13.2" class="st6" width="0.9" height="3.4"/>
			</g>
		</g>
		<path class="st7" d="M26.7,6.6c-0.4-0.2-1.5-1.3-2.3-1.4c-0.1,0-0.3,0-0.3,0H24c-0.1,0-0.1,0-0.1,0c-0.1,0-0.2,0-0.3,0
			c-0.7,0.1-1.9,1.2-2.3,1.4c-0.4,0.2-1.5,2.2-1.5,3.3h4.1h0.5h4.1C28.2,8.8,27.1,6.7,26.7,6.6z"/>
		<path class="st7" d="M24.1,2.3H24V2.2h-0.1h-0.1v0.1h-0.1C23.8,3.9,22.9,6,22.9,6h0.9H24h0.9C24.9,5.9,24,3.9,24.1,2.3z"/>
		<path class="st7" d="M24.6,2.4c0,0.3-0.3,0.5-0.7,0.5c-0.4,0-0.7-0.2-0.7-0.5s0.3-0.5,0.7-0.5C24.3,2,24.6,2.2,24.6,2.4z"/>
		<path class="st7" d="M24.3,3h-0.7c-0.2,0-0.3-0.1-0.3-0.3l0,0h1.3l0,0C24.6,2.9,24.4,3,24.3,3z"/>
		<g>
			<polygon class="st7" points="23.9,1.3 23.7,2.3 23.9,2.3 24.1,2.3 			"/>
			<rect x="23.8" y="0.4" class="st7" width="0.3" height="1.8"/>
			<rect x="23.1" y="0.7" class="st7" width="1.6" height="0.2"/>
			<g>
				<path class="st7" d="M24.2,0.2c0,0.1-0.1,0.2-0.2,0.2s-0.2-0.1-0.2-0.2S23.8,0,24,0C24.1,0,24.2,0.1,24.2,0.2z"/>
				<path class="st7" d="M24,0.3c0,0.1-0.1,0.2-0.2,0.2s-0.2-0.1-0.2-0.2s0.1-0.2,0.2-0.2C23.9,0.1,24,0.2,24,0.3z"/>
				<path class="st7" d="M24.3,0.3c0,0.1-0.1,0.2-0.2,0.2s-0.2-0.1-0.2-0.2s0.1-0.2,0.2-0.2C24.2,0.1,24.3,0.2,24.3,0.3z"/>
			</g>
			<g>
				<path class="st7" d="M23,0.6c0.1,0,0.2,0.1,0.2,0.2S23.1,0.9,23,0.9s-0.2-0.1-0.2-0.2C22.8,0.7,22.9,0.6,23,0.6z"/>
				<path class="st7" d="M23.2,0.8c0.1,0,0.2,0.1,0.2,0.2s-0.1,0.2-0.2,0.2C23.1,1.1,23,1,23,0.9S23.1,0.8,23.2,0.8z"/>
				<path class="st7" d="M23.2,0.5c0.1,0,0.2,0.1,0.2,0.2s-0.1,0.2-0.2,0.2S23,0.8,23,0.7S23.1,0.5,23.2,0.5z"/>
			</g>
			<g>
				<path class="st7" d="M24.9,0.6c-0.1,0-0.2,0.1-0.2,0.2S24.8,1,24.9,1s0.2-0.1,0.2-0.2S25,0.6,24.9,0.6z"/>
				<path class="st7" d="M24.7,0.8c-0.1,0-0.2,0.1-0.2,0.2s0.1,0.2,0.2,0.2s0.2-0.1,0.2-0.2C24.9,0.8,24.8,0.8,24.7,0.8z"/>
				<path class="st7" d="M24.7,0.5c-0.1,0-0.2,0.1-0.2,0.2s0.1,0.2,0.2,0.2s0.2-0.1,0.2-0.2C24.9,0.6,24.8,0.5,24.7,0.5z"/>
			</g>
		</g>
	</g>
</g>
</svg>
