<?xml version="1.0" encoding="utf-8"?>
<!-- Generator: Adobe Illustrator 27.1.1, SVG Export Plug-In . SVG Version: 6.00 Build 0)  -->
<svg version="1.1" id="Layer_3" xmlns="http://www.w3.org/2000/svg" xmlns:xlink="http://www.w3.org/1999/xlink" x="0px" y="0px"
	 viewBox="0 0 47.9 42.1" style="enable-background:new 0 0 47.9 42.1;" xml:space="preserve">
<style type="text/css">
	.st0{fill:#C7A589;}
	.st1{opacity:0.2;fill:#1F0D00;enable-background:new    ;}
	.st2{fill:#FFA961;}
	.st3{opacity:0.4;fill:#57483C;enable-background:new    ;}
	.st4{fill:#A88C74;}
	.st5{fill:#D99052;}
	.st6{opacity:0.2;fill:#631F19;enable-background:new    ;}
	.st7{fill:#594A3E;}
	.st8{fill:#917964;}
	.st9{opacity:0.2;enable-background:new    ;}
	.st10{opacity:0.5;fill:#755350;enable-background:new    ;}
	.st11{opacity:0.2;fill:#592B2B;enable-background:new    ;}
	.st12{fill:#FFDDC2;}
	.st13{opacity:0.1;fill:#FFF7C9;enable-background:new    ;}
	.st14{opacity:0.2;fill:#B5382D;enable-background:new    ;}
	.st15{opacity:0.2;fill:#FF7E12;enable-background:new    ;}
	.st16{opacity:0.2;fill:#6B482B;enable-background:new    ;}
	.st17{opacity:0.3;fill:#8A5932;enable-background:new    ;}
	.st18{fill:#F0C7A5;}
	.st19{fill:#D9B495;}
	.st20{fill:#9C816B;}
	.st21{opacity:0.4;fill:#B56B2D;enable-background:new    ;}
	.st22{fill:#B5382D;}
	.st23{opacity:0.2;fill:#FF7400;enable-background:new    ;}
	.st24{fill:#F5CBA9;}
	.st25{fill:#C2A185;}
	.st26{opacity:0.2;fill:#301600;enable-background:new    ;}
	.st27{opacity:0.2;fill:#F0C7A5;enable-background:new    ;}
	.st28{opacity:0.3;fill:#631F19;enable-background:new    ;}
	.st29{opacity:0.3;fill:#FFDC8F;enable-background:new    ;}
	.st30{opacity:0.3;fill:#B5382D;enable-background:new    ;}
	.st31{opacity:0.1;fill:#631F19;enable-background:new    ;}
	.st32{fill:#FFD3B0;}
	.st33{opacity:0.2;fill:#693000;enable-background:new    ;}
	.st34{opacity:0.3;fill:#211C17;enable-background:new    ;}
	.st35{fill:#57483C;}
	.st36{opacity:0.3;fill:#26201A;enable-background:new    ;}
	.st37{opacity:0.4;fill:#6B482B;enable-background:new    ;}
	.st38{opacity:0.4;fill:#631F19;enable-background:new    ;}
</style>
<g>
	<g>
		<path class="st0" d="M6.3,26.7H1.6v-9.2c0-0.2,0.2-0.3,0.3-0.3H6c0.2,0,0.3,0.2,0.3,0.3V26.7z"/>
		<path class="st1" d="M6,17.1H1.9c-0.2,0-0.3,0.2-0.3,0.3v0.7H4h2.4v-0.7C6.3,17.3,6.2,17.1,6,17.1z"/>
		<path class="st2" d="M3.9,7.6L1,17.3c-0.1,0.2,0.1,0.4,0.3,0.4h2.5h2.5c0.2,0,0.4-0.2,0.3-0.4L3.9,7.6z"/>
		<path class="st3" d="M2.1,19.4L2.1,19.4c-0.2,0-0.3-0.1-0.3-0.2v-0.5c0-0.1,0.1-0.2,0.2-0.2h0.1c0.1,0,0.2,0.1,0.2,0.2v0.5
			C2.3,19.3,2.2,19.4,2.1,19.4z"/>
		<path class="st3" d="M3.9,19.4L3.9,19.4c-0.2,0-0.3-0.1-0.3-0.2v-0.5c0-0.1,0.1-0.2,0.2-0.2h0.1c0.1,0,0.2,0.1,0.2,0.2v0.5
			C4.1,19.3,4,19.4,3.9,19.4z"/>
		<path class="st3" d="M5.7,19.4L5.7,19.4c-0.2,0-0.3-0.1-0.3-0.2v-0.5c0-0.1,0.1-0.2,0.2-0.2h0.1c0.1,0,0.2,0.1,0.2,0.2v0.5
			C5.9,19.3,5.8,19.4,5.7,19.4z"/>
	</g>
	<g>
		<g>
			<rect x="5.1" y="24.2" class="st4" width="7.5" height="17.9"/>
			<path class="st5" d="M13.1,17.7c0,0-6.7,4.4-8.3,6.2c-0.2,0.2,0,0.5,0.2,0.5h9L13.1,17.7z"/>
			<path class="st6" d="M12.6,24.3H14l-0.9-6.6c0,0-0.9,0.6-2.2,1.5c0,5-0.1,15.2-0.1,23h1.8V24.3z"/>
			<g>
				<rect x="12.4" y="14.1" class="st7" width="8.9" height="1.3"/>
				<polygon class="st2" points="20.6,12.3 16.8,0 13.1,12.3 11.7,14 16.8,14 22,14 				"/>
				<rect x="11.7" y="14" class="st8" width="10.2" height="0.3"/>
				<rect x="11.7" y="14" class="st9" width="10.2" height="0.3"/>
				<g>
					<path class="st8" d="M12.5,14.7c0.2,0,0.4-0.2,0.4-0.4H12C12.1,14.5,12.3,14.7,12.5,14.7z"/>
					<rect x="12.4" y="14.3" class="st8" width="0.3" height="1.6"/>
				</g>
				<g>
					<path class="st8" d="M13.6,14.7c0.2,0,0.4-0.2,0.4-0.4h-0.9C13.2,14.5,13.4,14.7,13.6,14.7z"/>
					<rect x="13.4" y="14.3" class="st8" width="0.3" height="1.6"/>
				</g>
				<g>
					<path class="st8" d="M14.7,14.7c0.2,0,0.4-0.2,0.4-0.4h-0.9C14.3,14.5,14.4,14.7,14.7,14.7z"/>
					<rect x="14.5" y="14.3" class="st8" width="0.3" height="1.6"/>
				</g>
				<g>
					<path class="st8" d="M15.8,14.7c0.2,0,0.4-0.2,0.4-0.4h-0.9C15.3,14.5,15.5,14.7,15.8,14.7z"/>
					<rect x="15.6" y="14.3" class="st8" width="0.3" height="1.6"/>
				</g>
				<g>
					<path class="st8" d="M16.8,14.7c0.2,0,0.4-0.2,0.4-0.4h-0.9C16.4,14.5,16.6,14.7,16.8,14.7z"/>
					<rect x="16.7" y="14.3" class="st8" width="0.3" height="1.6"/>
				</g>
				<g>
					<path class="st8" d="M17.9,14.7c0.2,0,0.4-0.2,0.4-0.4h-0.9C17.5,14.5,17.7,14.7,17.9,14.7z"/>
					<rect x="17.7" y="14.3" class="st8" width="0.3" height="1.6"/>
				</g>
				<g>
					<path class="st8" d="M19,14.7c0.2,0,0.4-0.2,0.4-0.4h-0.9C18.6,14.5,18.7,14.7,19,14.7z"/>
					<rect x="18.8" y="14.3" class="st8" width="0.3" height="1.6"/>
				</g>
				<g>
					<path class="st8" d="M20.1,14.7c0.2,0,0.4-0.2,0.4-0.4h-0.9C19.6,14.5,19.8,14.7,20.1,14.7z"/>
					<rect x="19.9" y="14.3" class="st8" width="0.3" height="1.6"/>
				</g>
				<g>
					<path class="st8" d="M21.1,14.7c0.2,0,0.4-0.2,0.4-0.4h-0.9C20.7,14.5,20.9,14.7,21.1,14.7z"/>
					<rect x="21" y="14.3" class="st8" width="0.3" height="1.6"/>
				</g>
				<g>
					<path class="st10" d="M22.9,19.8h-0.2c-0.1,0-0.2-0.1-0.2-0.2v-0.4c0-0.1,0.1-0.2,0.2-0.2h0.2c0.1,0,0.2,0.1,0.2,0.2v0.4
						C23,19.8,23,19.8,22.9,19.8z"/>
					<rect x="12.6" y="16.9" class="st0" width="8.4" height="25.2"/>
					<rect x="12.6" y="16.9" class="st11" width="8.4" height="1.4"/>
					<rect x="12.4" y="15.4" class="st8" width="8.9" height="2.4"/>
					<rect x="12.4" y="17.1" class="st9" width="8.9" height="0.7"/>
					<rect x="12.4" y="16.1" class="st9" width="8.9" height="0.3"/>
					<rect x="12.4" y="15.5" class="st9" width="8.9" height="0.1"/>
					<g>
						<rect x="21" y="18.4" class="st12" width="26" height="5.2"/>
						<rect x="21" y="18" class="st0" width="26" height="0.4"/>
						<path class="st2" d="M45,15.7l-1.6-4.5c-0.1-0.2-0.3-0.3-0.5-0.3h-3.3H31h-3.3c-0.2,0-0.4,0.1-0.5,0.3l-1.6,4.5l-2,2.3H31h8.8
							H47L45,15.7z"/>
						<path class="st13" d="M27.3,11.2h3.3h8.8h3.3c0.2,0,0.4,0.1,0.5,0.3l1.6,4.5l1.6,1.9H47l-2-2.3l-1.6-4.5
							c-0.1-0.2-0.3-0.3-0.5-0.3h-3.3H31h-3.3C27.5,10.8,27.3,11,27.3,11.2L27.3,11.2C27.2,11.3,27.3,11.2,27.3,11.2z"/>
						<rect x="21" y="18.3" class="st14" width="26" height="0.1"/>
						<polygon class="st15" points="25.7,15.7 23.7,18 31,18 39.7,18 47,18 45,15.7 45,15.7 						"/>
						<g>
							<g>
								<g>
									<g>
										<g>
											<rect x="43.6" y="25.8" class="st0" width="4.3" height="16.3"/>
											<rect x="43.6" y="25.8" class="st16" width="4.3" height="0.7"/>
											<rect x="43.6" y="25.8" class="st16" width="4.3" height="0.4"/>
											<rect x="43.6" y="21.5" class="st12" width="4.3" height="4.3"/>
											<g>
												<g>
													<g>
														<path class="st16" d="M44.2,27L44.2,27c-0.1,0-0.2,0-0.2-0.1v-0.6h0.4v0.6C44.4,27,44.3,27,44.2,27z"/>
														<path class="st12" d="M44.2,26.9L44.2,26.9c-0.1,0-0.2-0.1-0.2-0.2v-0.6h0.4v0.6C44.4,26.9,44.3,26.9,44.2,26.9z"/>
														<path class="st17" d="M44.2,26.8L44.2,26.8c-0.1,0-0.2-0.1-0.2-0.2v0.1C44,26.8,44.1,26.9,44.2,26.8L44.2,26.8
															c0.1,0.1,0.2,0,0.2-0.1v-0.1C44.4,26.8,44.3,26.8,44.2,26.8z"/>
														<path class="st17" d="M44,26.4C44,26.4,44,26.5,44,26.4h0.3c0,0,0,0,0.1,0v-0.3H44V26.4z"/>
														<path class="st12" d="M44.3,26.4H44c-0.1,0-0.1-0.1-0.1-0.1V26h0.5v0.2C44.4,26.3,44.4,26.4,44.3,26.4z"/>
														<path class="st17" d="M43.9,26.2L43.9,26.2h0.5l0,0V26h-0.5V26.2z"/>
														<path class="st12" d="M44.4,26.1H44c-0.1,0-0.2-0.1-0.2-0.2v-0.2h0.8V26C44.6,26,44.5,26.1,44.4,26.1z"/>
													</g>
													<rect x="43.8" y="25.8" class="st17" width="0.8" height="0.1"/>
												</g>
												<g>
													<g>
														<path class="st16" d="M45.2,27L45.2,27c-0.1,0-0.2,0-0.2-0.1v-0.6h0.4v0.6C45.4,27,45.3,27,45.2,27z"/>
														<path class="st12" d="M45.2,26.9L45.2,26.9c-0.1,0-0.2-0.1-0.2-0.2v-0.6h0.4v0.6C45.4,26.9,45.3,26.9,45.2,26.9z"/>
														<path class="st17" d="M45.2,26.8L45.2,26.8c-0.1,0-0.2-0.1-0.2-0.2v0.1C45,26.8,45.1,26.9,45.2,26.8L45.2,26.8
															c0.1,0.1,0.2,0,0.2-0.1v-0.1C45.4,26.8,45.3,26.8,45.2,26.8z"/>
														<path class="st17" d="M45,26.4C45,26.4,45.1,26.5,45,26.4h0.3c0,0,0,0,0.1,0v-0.3H45V26.4z"/>
														<path class="st12" d="M45.3,26.4h-0.2c-0.1,0-0.1-0.1-0.1-0.1V26h0.5v0.2C45.5,26.3,45.4,26.4,45.3,26.4z"/>
														<path class="st17" d="M45,26.2L45,26.2h0.5l0,0V26H45V26.2z"/>
														<path class="st12" d="M45.4,26.1H45c-0.1,0-0.2-0.1-0.2-0.2v-0.2h0.8V26C45.6,26,45.5,26.1,45.4,26.1z"/>
													</g>
													<rect x="44.8" y="25.8" class="st17" width="0.8" height="0.1"/>
												</g>
												<g>
													<g>
														<path class="st16" d="M46.3,27L46.3,27c-0.1,0-0.2-0.1-0.2-0.2v-0.6h0.4v0.6C46.4,27,46.4,27,46.3,27z"/>
														<path class="st12" d="M46.3,26.9L46.3,26.9c-0.1,0-0.2-0.1-0.2-0.2v-0.6h0.4v0.6C46.4,26.9,46.4,26.9,46.3,26.9z"/>
														<path class="st17" d="M46.3,26.8L46.3,26.8c-0.1,0-0.2-0.1-0.2-0.2v0.1C46.1,26.8,46.1,26.9,46.3,26.8L46.3,26.8
															c0.1,0.1,0.2,0,0.2-0.1v-0.1C46.4,26.8,46.4,26.8,46.3,26.8z"/>
														<path class="st17" d="M46.1,26.4C46.1,26.4,46.1,26.5,46.1,26.4h0.3c0,0,0,0,0.1,0v-0.3h-0.4
															C46.1,26.1,46.1,26.4,46.1,26.4z"/>
														<path class="st12" d="M46.4,26.4h-0.2c-0.1,0-0.1-0.1-0.1-0.1V26h0.5v0.2C46.5,26.3,46.4,26.4,46.4,26.4z"/>
														<path class="st17" d="M46,26.2L46,26.2h0.5l0,0V26H46V26.2z"/>
														<path class="st12" d="M46.5,26.1H46c-0.1,0-0.2-0.1-0.2-0.2v-0.2h0.8V26C46.6,26,46.6,26.1,46.5,26.1z"/>
													</g>
													<rect x="45.9" y="25.8" class="st17" width="0.8" height="0.1"/>
												</g>
												<g>
													<g>
														<path class="st16" d="M47.3,27L47.3,27c-0.1,0-0.2-0.1-0.2-0.2v-0.6h0.4v0.6C47.5,27,47.4,27,47.3,27z"/>
														<path class="st12" d="M47.3,26.9L47.3,26.9c-0.1,0-0.2-0.1-0.2-0.2v-0.6h0.4v0.6C47.5,26.9,47.4,26.9,47.3,26.9z"/>
														<path class="st17" d="M47.3,26.8L47.3,26.8c-0.1,0-0.2-0.1-0.2-0.2v0.1C47.1,26.8,47.2,26.9,47.3,26.8L47.3,26.8
															c0.1,0.1,0.2,0,0.2-0.1v-0.1C47.5,26.8,47.4,26.8,47.3,26.8z"/>
														<path class="st17" d="M47.1,26.4C47.1,26.4,47.1,26.5,47.1,26.4h0.3c0,0,0,0,0.1,0v-0.3h-0.4
															C47.1,26.1,47.1,26.4,47.1,26.4z"/>
														<path class="st12" d="M47.4,26.4h-0.2c-0.1,0-0.1-0.1-0.1-0.1V26h0.5v0.2C47.5,26.3,47.5,26.4,47.4,26.4z"/>
														<path class="st17" d="M47,26.2L47,26.2h0.5l0,0V26H47V26.2z"/>
														<path class="st12" d="M47.5,26.1h-0.4c-0.1,0-0.2-0.1-0.2-0.2v-0.2h0.8V26C47.7,26,47.6,26.1,47.5,26.1z"/>
													</g>
													<rect x="46.9" y="25.8" class="st17" width="0.8" height="0.1"/>
												</g>
											</g>
											<g>
												<rect x="45.1" y="29.4" class="st18" width="1.2" height="1.9"/>
												<rect x="45.2" y="29.5" class="st19" width="1.1" height="1.9"/>
												<rect x="45.3" y="29.6" class="st20" width="0.9" height="1.6"/>
												<polygon class="st9" points="45.3,29.6 45.3,29.7 46.1,29.7 46.1,31.2 46.2,31.2 46.2,29.6 												"/>
												<rect x="45.3" y="30" class="st0" width="0.9" height="0.1"/>
												<rect x="45.7" y="29.6" class="st0" width="0.1" height="1.6"/>
											</g>
										</g>
										<path class="st21" d="M47.9,21.7l-0.1-0.2h-4.2l-0.1,0.2V22l0,0h4.2l0,0v-0.3H47.9z"/>
										<path class="st22" d="M47.8,21.9h-4.2c-0.1,0-0.1-0.2-0.1-0.3l0.3-0.6c0-0.1,0.1-0.1,0.2-0.1h3.6c0.1,0,0.1,0.1,0.2,0.1
											l0.3,0.7C48,21.7,47.9,21.9,47.8,21.9z"/>
										<path class="st2" d="M47.8,21.8h-4.2c-0.1,0-0.1-0.1-0.1-0.2l0.3-0.8c0-0.1,0.1-0.1,0.2-0.1h3.6c0.1,0,0.1,0.1,0.2,0.1
											l0.3,0.8C48,21.7,47.9,21.8,47.8,21.8z"/>
										<path class="st23" d="M43.8,21.6c-0.1,0-0.1-0.1-0.1-0.2l0.2-0.7l0,0c-0.1,0-0.1,0.1-0.2,0.1l-0.3,0.8
											c0,0.1,0,0.2,0.1,0.2h4.2c0.1,0,0.1-0.1,0.1-0.2l0,0C47.8,21.6,43.8,21.6,43.8,21.6z"/>
										<g>
											<g>
												<path class="st24" d="M45.6,25h-1.1v-2.1c0-0.3,0.2-0.5,0.5-0.5l0,0c0.3,0,0.5,0.2,0.5,0.5L45.6,25L45.6,25z"/>
												<path class="st25" d="M45.5,24.9h-1v-2c0-0.3,0.2-0.5,0.5-0.5l0,0c0.3,0,0.5,0.2,0.5,0.5V24.9z"/>
												<path class="st26" d="M45,22.4c-0.1,0-0.3,0.1-0.4,0.2C44.7,22.5,44.8,22.4,45,22.4c0.2,0.1,0.4,0.3,0.4,0.5v2h0.1v-2
													C45.5,22.6,45.3,22.4,45,22.4z"/>
												<path class="st24" d="M45,22.4v2.5h0.1L45,22.4L45,22.4L45,22.4z"/>
												<rect x="44.5" y="23.6" class="st26" width="1" height="0.1"/>
												<rect x="44.5" y="24.1" class="st26" width="1" height="0.1"/>
												<rect x="44.5" y="24.6" class="st26" width="1" height="0.1"/>
												<rect x="44.5" y="23" class="st26" width="1" height="0.1"/>
												<rect x="44.5" y="23" class="st24" width="1" height="0.1"/>
												<rect x="44.5" y="23.5" class="st24" width="1" height="0.1"/>
												<rect x="44.5" y="24.1" class="st24" width="1" height="0.1"/>
												<rect x="44.5" y="24.6" class="st24" width="1" height="0.1"/>
												<path class="st24" d="M45,22.8v-0.5l0,0c-0.1,0-0.2,0-0.3,0.1C45,22.4,45,22.8,45,22.8L45,22.8z"/>
												<path class="st24" d="M45,22.8v-0.5l0,0c0.1,0,0.2,0,0.3,0.1C45,22.4,45.1,22.8,45,22.8L45,22.8z"/>
											</g>
											<g>
												<path class="st24" d="M47,25h-1.1v-2.1c0-0.3,0.2-0.5,0.5-0.5l0,0c0.3,0,0.5,0.2,0.5,0.5L47,25L47,25z"/>
												<path class="st25" d="M46.9,24.9h-1v-2c0-0.3,0.2-0.5,0.5-0.5l0,0c0.3,0,0.5,0.2,0.5,0.5V24.9z"/>
												<path class="st26" d="M46.5,22.4c-0.1,0-0.3,0.1-0.4,0.2C46.2,22.5,46.3,22.4,46.5,22.4c0.2,0.1,0.4,0.3,0.4,0.5v2H47
													v-2C46.9,22.6,46.7,22.4,46.5,22.4z"/>
												<path class="st24" d="M46.4,22.4v2.5h0.1L46.4,22.4C46.5,22.4,46.5,22.4,46.4,22.4L46.4,22.4z"/>
												<rect x="46" y="23.6" class="st26" width="1" height="0.1"/>
												<rect x="46" y="24.1" class="st26" width="1" height="0.1"/>
												<rect x="46" y="24.6" class="st26" width="1" height="0.1"/>
												<rect x="46" y="23" class="st26" width="1" height="0.1"/>
												<rect x="46" y="23" class="st24" width="1" height="0.1"/>
												<rect x="46" y="23.5" class="st24" width="1" height="0.1"/>
												<rect x="46" y="24.1" class="st24" width="1" height="0.1"/>
												<rect x="46" y="24.6" class="st24" width="1" height="0.1"/>
												<path class="st24" d="M46.5,22.8v-0.5l0,0c-0.1,0-0.2,0-0.3,0.1C46.4,22.4,46.4,22.8,46.5,22.8L46.5,22.8z"/>
												<path class="st24" d="M46.5,22.8v-0.5l0,0c0.1,0,0.2,0,0.3,0.1C46.5,22.4,46.5,22.8,46.5,22.8L46.5,22.8z"/>
											</g>
										</g>
									</g>
									<rect x="43.6" y="36.7" class="st27" width="4.3" height="0.9"/>
								</g>
							</g>
							<g>
								<g>
									<g>
										<g>
											<rect x="37.9" y="25.8" class="st0" width="4.8" height="16.3"/>
											<rect x="37.9" y="25.8" class="st16" width="4.3" height="0.7"/>
											<rect x="37.9" y="25.8" class="st16" width="4.3" height="0.4"/>
											<rect x="37.9" y="21.5" class="st12" width="4.3" height="4.3"/>
											<g>
												<g>
													<g>
														<path class="st16" d="M38.5,27L38.5,27c-0.1,0-0.2-0.1-0.2-0.2v-0.6h0.4v0.6C38.7,27,38.6,27,38.5,27z"/>
														<path class="st12" d="M38.5,26.9L38.5,26.9c-0.1,0-0.2-0.1-0.2-0.2v-0.6h0.4v0.6C38.7,26.9,38.6,26.9,38.5,26.9z"/>
														<path class="st17" d="M38.5,26.8L38.5,26.8c-0.1,0-0.2-0.1-0.2-0.2v0.1C38.3,26.8,38.4,26.9,38.5,26.8L38.5,26.8
															c0.1,0.1,0.2,0,0.2-0.1v-0.1C38.7,26.8,38.6,26.8,38.5,26.8z"/>
														<path class="st17" d="M38.3,26.4C38.3,26.4,38.4,26.5,38.3,26.4h0.3c0,0,0,0,0.1,0v-0.3h-0.4
															C38.3,26.1,38.3,26.4,38.3,26.4z"/>
														<path class="st12" d="M38.6,26.4h-0.2c-0.1,0-0.1-0.1-0.1-0.1V26h0.5v0.2C38.8,26.3,38.7,26.4,38.6,26.4z"/>
														<path class="st17" d="M38.3,26.2L38.3,26.2h0.5l0,0V26h-0.5V26.2z"/>
														<path class="st12" d="M38.7,26.1h-0.4c-0.1,0-0.2-0.1-0.2-0.2v-0.2h0.8V26C38.9,26,38.8,26.1,38.7,26.1z"/>
													</g>
													<rect x="38.1" y="25.8" class="st17" width="0.8" height="0.1"/>
												</g>
												<g>
													<g>
														<path class="st16" d="M39.6,27L39.6,27c-0.1,0-0.2-0.1-0.2-0.2v-0.6h0.4v0.6C39.7,27,39.7,27,39.6,27z"/>
														<path class="st12" d="M39.6,26.9L39.6,26.9c-0.1,0-0.2-0.1-0.2-0.2v-0.6h0.4v0.6C39.7,26.9,39.7,26.9,39.6,26.9z"/>
														<path class="st17" d="M39.6,26.8L39.6,26.8c-0.1,0-0.2-0.1-0.2-0.2v0.1C39.4,26.8,39.4,26.9,39.6,26.8L39.6,26.8
															c0.1,0.1,0.2,0,0.2-0.1v-0.1C39.7,26.8,39.7,26.8,39.6,26.8z"/>
														<path class="st17" d="M39.4,26.4C39.4,26.4,39.4,26.5,39.4,26.4h0.3c0,0,0,0,0.1,0v-0.3h-0.4
															C39.4,26.1,39.4,26.4,39.4,26.4z"/>
														<path class="st12" d="M39.7,26.4h-0.2c-0.1,0-0.1-0.1-0.1-0.1V26h0.5v0.2C39.8,26.3,39.7,26.4,39.7,26.4z"/>
														<path class="st17" d="M39.3,26.2L39.3,26.2h0.5l0,0V26h-0.5V26.2z"/>
														<path class="st12" d="M39.8,26.1h-0.4c-0.1,0-0.2-0.1-0.2-0.2v-0.2H40V26C39.9,26,39.9,26.1,39.8,26.1z"/>
													</g>
													<rect x="39.2" y="25.8" class="st17" width="0.8" height="0.1"/>
												</g>
												<g>
													<g>
														<path class="st16" d="M40.6,27L40.6,27c-0.1,0-0.2-0.1-0.2-0.2v-0.6h0.4v0.6C40.8,27,40.7,27,40.6,27z"/>
														<path class="st12" d="M40.6,26.9L40.6,26.9c-0.1,0-0.2-0.1-0.2-0.2v-0.6h0.4v0.6C40.8,26.9,40.7,26.9,40.6,26.9z"/>
														<path class="st17" d="M40.6,26.8L40.6,26.8c-0.1,0-0.2-0.1-0.2-0.2v0.1C40.4,26.8,40.5,26.9,40.6,26.8L40.6,26.8
															c0.1,0.1,0.2,0,0.2-0.1v-0.1C40.8,26.8,40.7,26.8,40.6,26.8z"/>
														<path class="st17" d="M40.4,26.4C40.4,26.4,40.4,26.5,40.4,26.4h0.3c0,0,0,0,0.1,0v-0.3h-0.4
															C40.4,26.1,40.4,26.4,40.4,26.4z"/>
														<path class="st12" d="M40.7,26.4h-0.2c-0.1,0-0.1-0.1-0.1-0.1V26h0.5v0.2C40.8,26.3,40.8,26.4,40.7,26.4z"/>
														<path class="st17" d="M40.3,26.2L40.3,26.2h0.5l0,0V26h-0.5V26.2z"/>
														<path class="st12" d="M40.8,26.1h-0.4c-0.1,0-0.2-0.1-0.2-0.2v-0.2H41V26C41,26,40.9,26.1,40.8,26.1z"/>
													</g>
													<rect x="40.2" y="25.8" class="st17" width="0.8" height="0.1"/>
												</g>
												<g>
													<g>
														<path class="st16" d="M41.6,27L41.6,27c-0.1,0-0.2-0.1-0.2-0.2v-0.6h0.4v0.6C41.8,27,41.7,27,41.6,27z"/>
														<path class="st12" d="M41.6,26.9L41.6,26.9c-0.1,0-0.2-0.1-0.2-0.2v-0.6h0.4v0.6C41.8,26.9,41.7,26.9,41.6,26.9z"/>
														<path class="st17" d="M41.6,26.8L41.6,26.8c-0.1,0-0.2-0.1-0.2-0.2v0.1C41.4,26.8,41.5,26.9,41.6,26.8L41.6,26.8
															c0.1,0.1,0.2,0,0.2-0.1v-0.1C41.8,26.8,41.7,26.8,41.6,26.8z"/>
														<path class="st17" d="M41.4,26.4C41.5,26.4,41.5,26.5,41.4,26.4h0.3c0,0,0,0,0.1,0v-0.3h-0.4
															C41.4,26.1,41.4,26.4,41.4,26.4z"/>
														<path class="st12" d="M41.7,26.4h-0.2c-0.1,0-0.1-0.1-0.1-0.1V26h0.5v0.2C41.9,26.3,41.8,26.4,41.7,26.4z"/>
														<path class="st17" d="M41.4,26.2L41.4,26.2h0.5l0,0V26h-0.5V26.2z"/>
														<path class="st12" d="M41.8,26.1h-0.4c-0.1,0-0.2-0.1-0.2-0.2v-0.2H42V26C42,26,41.9,26.1,41.8,26.1z"/>
													</g>
													<rect x="41.2" y="25.8" class="st17" width="0.8" height="0.1"/>
												</g>
											</g>
											<g>
												<rect x="39.5" y="29.4" class="st18" width="1.2" height="1.9"/>
												<rect x="39.5" y="29.5" class="st19" width="1.1" height="1.9"/>
												<rect x="39.6" y="29.6" class="st20" width="0.9" height="1.6"/>
												<polygon class="st9" points="39.6,29.6 39.6,29.7 40.5,29.7 40.5,31.2 40.5,31.2 40.5,29.6 												"/>
												<rect x="39.6" y="30" class="st0" width="0.9" height="0.1"/>
												<rect x="40" y="29.6" class="st0" width="0.1" height="1.6"/>
											</g>
										</g>
										<path class="st21" d="M42.2,21.7l-0.1-0.2H38l-0.1,0.2V22l0,0h4.2l0,0L42.2,21.7L42.2,21.7z"/>
										<path class="st22" d="M42.2,21.9H38c-0.1,0-0.1-0.2-0.1-0.3l0.3-0.6c0-0.1,0.1-0.1,0.2-0.1H42c0.1,0,0.1,0.1,0.2,0.1
											l0.3,0.7C42.3,21.7,42.3,21.9,42.2,21.9z"/>
										<path class="st2" d="M42.2,21.8H38c-0.1,0-0.1-0.1-0.1-0.2l0.3-0.8c0-0.1,0.1-0.1,0.2-0.1H42c0.1,0,0.1,0.1,0.2,0.1
											l0.3,0.8C42.3,21.7,42.3,21.8,42.2,21.8z"/>
										<path class="st23" d="M38.2,21.6c-0.1,0-0.1-0.1-0.1-0.2l0.2-0.7l0,0c-0.1,0-0.1,0.1-0.2,0.1l-0.3,0.8
											c0,0.1,0,0.2,0.1,0.2h4.2c0.1,0,0.1-0.1,0.1-0.2l0,0C42.2,21.6,38.2,21.6,38.2,21.6z"/>
										<g>
											<g>
												<path class="st24" d="M39.9,25h-1.1v-2.1c0-0.3,0.2-0.5,0.5-0.5l0,0c0.3,0,0.5,0.2,0.5,0.5L39.9,25L39.9,25z"/>
												<path class="st25" d="M39.8,24.9h-1v-2c0-0.3,0.2-0.5,0.5-0.5l0,0c0.3,0,0.5,0.2,0.5,0.5V24.9z"/>
												<path class="st26" d="M39.4,22.4c-0.1,0-0.3,0.1-0.4,0.2C39.1,22.5,39.2,22.4,39.4,22.4c0.2,0.1,0.4,0.3,0.4,0.5v2h0.1
													v-2C39.8,22.6,39.6,22.4,39.4,22.4z"/>
												<path class="st24" d="M39.3,22.4v2.5h0.1L39.3,22.4C39.4,22.4,39.4,22.4,39.3,22.4L39.3,22.4z"/>
												<rect x="38.9" y="23.6" class="st26" width="1" height="0.1"/>
												<rect x="38.9" y="24.1" class="st26" width="1" height="0.1"/>
												<rect x="38.9" y="24.6" class="st26" width="1" height="0.1"/>
												<rect x="38.9" y="23" class="st26" width="1" height="0.1"/>
												<rect x="38.9" y="23" class="st24" width="1" height="0.1"/>
												<rect x="38.9" y="23.5" class="st24" width="1" height="0.1"/>
												<rect x="38.9" y="24.1" class="st24" width="1" height="0.1"/>
												<rect x="38.9" y="24.6" class="st24" width="1" height="0.1"/>
												<path class="st24" d="M39.4,22.8v-0.5l0,0c-0.1,0-0.2,0-0.3,0.1C39.3,22.4,39.3,22.8,39.4,22.8L39.4,22.8z"/>
												<path class="st24" d="M39.3,22.8v-0.5l0,0c0.1,0,0.2,0,0.3,0.1C39.4,22.4,39.4,22.8,39.3,22.8L39.3,22.8z"/>
											</g>
											<g>
												<path class="st24" d="M41.3,25h-1.1v-2.1c0-0.3,0.2-0.5,0.5-0.5l0,0c0.3,0,0.5,0.2,0.5,0.5L41.3,25L41.3,25z"/>
												<path class="st25" d="M41.3,24.9h-1v-2c0-0.3,0.2-0.5,0.5-0.5l0,0c0.3,0,0.5,0.2,0.5,0.5V24.9z"/>
												<path class="st26" d="M40.8,22.4c-0.1,0-0.3,0.1-0.4,0.2C40.5,22.5,40.6,22.4,40.8,22.4c0.2,0.1,0.4,0.3,0.4,0.5v2h0.1
													v-2C41.3,22.6,41.1,22.4,40.8,22.4z"/>
												<path class="st24" d="M40.7,22.4v2.5h0.1L40.7,22.4C40.9,22.4,40.8,22.4,40.7,22.4C40.8,22.4,40.8,22.4,40.7,22.4z"/>
												<rect x="40.3" y="23.6" class="st26" width="1" height="0.1"/>
												<rect x="40.3" y="24.1" class="st26" width="1" height="0.1"/>
												<rect x="40.3" y="24.6" class="st26" width="1" height="0.1"/>
												<rect x="40.3" y="23" class="st26" width="1" height="0.1"/>
												<rect x="40.3" y="23" class="st24" width="1" height="0.1"/>
												<rect x="40.3" y="23.5" class="st24" width="1" height="0.1"/>
												<rect x="40.3" y="24.1" class="st24" width="1" height="0.1"/>
												<rect x="40.3" y="24.6" class="st24" width="1" height="0.1"/>
												<path class="st24" d="M40.8,22.8v-0.5l0,0c-0.1,0-0.2,0-0.3,0.1C40.8,22.4,40.7,22.8,40.8,22.8L40.8,22.8z"/>
												<path class="st24" d="M40.8,22.8v-0.5l0,0c0.1,0,0.2,0,0.3,0.1C40.8,22.4,40.9,22.8,40.8,22.8L40.8,22.8z"/>
											</g>
										</g>
									</g>
									<rect x="37.9" y="36.7" class="st27" width="4.7" height="0.9"/>
									<path class="st28" d="M43.1,36.9h-0.6V25.8H42V22v-0.1c0.1,0,0.1-0.2,0.1-0.3l0,0l0,0l-0.3-0.8c0-0.1-0.1-0.1-0.2-0.1h-0.3
										l-0.4,1l0.1,0.2v3.5l0.6,0.9V37l-0.3,0.7v4.4h0.3h0.2H42h0.5h0.1h0.8v-4.4L43.1,36.9z"/>
									<g>
										<polygon class="st12" points="43,21.7 41.6,21.7 41.6,25.4 42.2,26.3 43,26.3 43.8,26.3 44.3,25.4 44.3,21.7 										
											"/>
										<rect x="42.2" y="26.3" class="st0" width="1.6" height="15.8"/>
										<polygon class="st2" points="43.9,20.6 43,16.8 42.1,20.6 41.6,21.7 43,21.7 44.4,21.7 										"/>
										<g>
											<polygon class="st29" points="43.9,20.6 43,16.8 43.5,20.6 43.8,21.7 44.4,21.7 											"/>
											<polygon class="st30" points="41.6,21.7 42.1,21.7 42.4,20.6 43,16.8 42.1,20.6 											"/>
										</g>
										<polygon class="st22" points="41.6,21.7 41.6,21.9 44.3,21.9 44.4,21.7 										"/>
									</g>
									<polygon class="st31" points="44.3,25.4 44.3,25.5 44.1,25.7 44.1,25.8 44,26 43.8,26.3 42.2,26.3 42,26 41.9,25.8 
										41.8,25.7 41.7,25.5 41.6,25.4 									"/>
									<polygon class="st28" points="44.3,25.5 44.1,25.7 41.8,25.7 41.7,25.5 									"/>
									<polygon class="st28" points="44.1,25.8 44,26 42,26 41.9,25.8 									"/>
									<rect x="42.2" y="26.3" class="st12" width="1.6" height="0.5"/>
									<rect x="42.2" y="26.3" class="st31" width="1.6" height="0.5"/>
									<rect x="42.2" y="26.8" class="st28" width="1.6" height="0.1"/>
								</g>
								<g>
									<path class="st32" d="M42.5,25.2h-0.7v-2.6c0-0.2,0.2-0.4,0.4-0.4l0,0c0.2,0,0.4,0.2,0.4,0.4v2.6H42.5z"/>
									<path class="st33" d="M42.1,22.2c-0.1,0-0.2,0.1-0.3,0.2h0.1c0.2,0,0.4,0.2,0.4,0.5v2.4h0.1v-2.5
										C42.5,22.5,42.3,22.2,42.1,22.2z"/>
								</g>
								<g>
									<path class="st32" d="M43.3,25.2h-0.7v-2.6c0-0.2,0.2-0.4,0.4-0.4l0,0c0.2,0,0.4,0.2,0.4,0.4v2.6H43.3z"/>
									<path class="st33" d="M43,22.2c-0.1,0-0.2,0.1-0.3,0.2h0.1c0.2,0,0.4,0.2,0.4,0.5v2.4h0.1v-2.5
										C43.3,22.5,43.2,22.2,43,22.2z"/>
								</g>
								<g>
									<path class="st32" d="M44.2,25.2h-0.7v-2.6c0-0.2,0.2-0.4,0.4-0.4l0,0c0.2,0,0.4,0.2,0.4,0.4v2.6H44.2z"/>
									<path class="st33" d="M43.8,22.2c-0.1,0-0.2,0.1-0.3,0.2h0.1c0.2,0,0.4,0.2,0.4,0.5v2.4h0.1v-2.5
										C44.2,22.5,44,22.2,43.8,22.2z"/>
								</g>
								<g>
									<rect x="42.6" y="23.3" class="st18" width="0.6" height="1.1"/>
									<rect x="42.7" y="23.4" class="st19" width="0.6" height="1"/>
									<rect x="42.7" y="23.4" class="st20" width="0.5" height="0.9"/>
									<polygon class="st9" points="42.7,23.4 42.7,23.5 43.2,23.5 43.2,24.3 43.2,24.3 43.2,23.4 									"/>
									<rect x="42.7" y="23.7" class="st0" width="0.5" height="0.1"/>
									<rect x="42.9" y="23.4" class="st0" width="0.1" height="0.9"/>
								</g>
								<g>
									<rect x="41.8" y="23.3" class="st18" width="0.6" height="1.1"/>
									<rect x="41.9" y="23.4" class="st19" width="0.6" height="1"/>
									<rect x="41.9" y="23.4" class="st20" width="0.5" height="0.9"/>
									<polygon class="st9" points="41.9,23.4 41.9,23.5 42.4,23.5 42.4,24.3 42.4,24.3 42.4,23.4 									"/>
									<rect x="41.9" y="23.7" class="st0" width="0.5" height="0.1"/>
									<rect x="42.1" y="23.4" class="st0" width="0.1" height="0.9"/>
								</g>
								<g>
									<rect x="43.4" y="23.3" class="st18" width="0.6" height="1.1"/>
									<rect x="43.5" y="23.4" class="st19" width="0.6" height="1"/>
									<rect x="43.5" y="23.4" class="st20" width="0.5" height="0.9"/>
									<polygon class="st9" points="43.5,23.4 43.5,23.5 44,23.5 44,24.3 44,24.3 44,23.4 									"/>
									<rect x="43.5" y="23.7" class="st0" width="0.5" height="0.1"/>
									<rect x="43.7" y="23.4" class="st0" width="0.1" height="0.9"/>
								</g>
								<rect x="41.6" y="21.9" class="st6" width="1" height="3.5"/>
								<polygon class="st0" points="43.8,36.9 42.9,36.9 42.2,36.9 41.9,37.7 41.9,42.1 42.4,42.1 42.7,42.1 43.2,42.1 44.1,42.1 
									44.1,37.7 								"/>
								<polygon class="st27" points="44.1,37.6 43.8,36.9 42.9,36.9 42.2,36.9 41.9,37.6 								"/>
							</g>
							<g>
								<g>
									<g>
										<g>
											<rect x="32.3" y="25.8" class="st0" width="4.8" height="16.3"/>
											<rect x="32.3" y="25.8" class="st16" width="4.3" height="0.7"/>
											<rect x="32.3" y="25.8" class="st16" width="4.3" height="0.4"/>
											<rect x="32.3" y="21.5" class="st12" width="4.3" height="4.3"/>
											<g>
												<g>
													<g>
														<path class="st16" d="M32.9,27L32.9,27c-0.1,0-0.2-0.1-0.2-0.2v-0.6H33v0.6C33,27,33,27,32.9,27z"/>
														<path class="st12" d="M32.9,26.9L32.9,26.9c-0.1,0-0.2-0.1-0.2-0.2v-0.6H33v0.6C33,26.9,33,26.9,32.9,26.9z"/>
														<path class="st17" d="M32.9,26.8L32.9,26.8c-0.1,0-0.2-0.1-0.2-0.2v0.1C32.7,26.8,32.7,26.9,32.9,26.8L32.9,26.8
															c0.1,0.1,0.2,0,0.2-0.1v-0.1C33,26.8,33,26.8,32.9,26.8z"/>
														<path class="st17" d="M32.7,26.4C32.7,26.4,32.7,26.5,32.7,26.4H33c0,0,0,0,0.1,0v-0.3h-0.4
															C32.7,26.1,32.7,26.4,32.7,26.4z"/>
														<path class="st12" d="M33,26.4h-0.2c-0.1,0-0.1-0.1-0.1-0.1V26h0.5v0.2C33.1,26.3,33,26.4,33,26.4z"/>
														<path class="st17" d="M32.6,26.2L32.6,26.2h0.5l0,0V26h-0.5V26.2z"/>
														<path class="st12" d="M33.1,26.1h-0.4c-0.1,0-0.2-0.1-0.2-0.2v-0.2h0.8V26C33.2,26,33.2,26.1,33.1,26.1z"/>
													</g>
													<rect x="32.5" y="25.8" class="st17" width="0.8" height="0.1"/>
												</g>
												<g>
													<g>
														<path class="st16" d="M33.9,27L33.9,27c-0.1,0-0.2-0.1-0.2-0.2v-0.6h0.4v0.6C34.1,27,34,27,33.9,27z"/>
														<path class="st12" d="M33.9,26.9L33.9,26.9c-0.1,0-0.2-0.1-0.2-0.2v-0.6h0.4v0.6C34.1,26.9,34,26.9,33.9,26.9z"/>
														<path class="st17" d="M33.9,26.8L33.9,26.8c-0.1,0-0.2-0.1-0.2-0.2v0.1C33.7,26.8,33.8,26.9,33.9,26.8L33.9,26.8
															c0.1,0.1,0.2,0,0.2-0.1v-0.1C34.1,26.8,34,26.8,33.9,26.8z"/>
														<path class="st17" d="M33.7,26.4C33.7,26.4,33.7,26.5,33.7,26.4H34c0,0,0,0,0.1,0v-0.3h-0.4
															C33.7,26.1,33.7,26.4,33.7,26.4z"/>
														<path class="st12" d="M34,26.4h-0.2c-0.1,0-0.1-0.1-0.1-0.1V26h0.5v0.2C34.1,26.3,34.1,26.4,34,26.4z"/>
														<path class="st17" d="M33.6,26.2C33.6,26.2,33.7,26.2,33.6,26.2h0.5l0,0V26h-0.5V26.2z"/>
														<path class="st12" d="M34.1,26.1h-0.4c-0.1,0-0.2-0.1-0.2-0.2v-0.2h0.8V26C34.3,26,34.2,26.1,34.1,26.1z"/>
													</g>
													<rect x="33.5" y="25.8" class="st17" width="0.8" height="0.1"/>
												</g>
												<g>
													<g>
														<path class="st16" d="M34.9,27L34.9,27c-0.1,0-0.2-0.1-0.2-0.2v-0.6h0.4v0.6C35.1,27,35,27,34.9,27z"/>
														<path class="st12" d="M34.9,26.9L34.9,26.9c-0.1,0-0.2-0.1-0.2-0.2v-0.6h0.4v0.6C35.1,26.9,35,26.9,34.9,26.9z"/>
														<path class="st17" d="M34.9,26.8L34.9,26.8c-0.1,0-0.2-0.1-0.2-0.2v0.1C34.7,26.8,34.8,26.9,34.9,26.8L34.9,26.8
															c0.1,0.1,0.2,0,0.2-0.1v-0.1C35.1,26.8,35,26.8,34.9,26.8z"/>
														<path class="st17" d="M34.7,26.4C34.8,26.4,34.8,26.5,34.7,26.4H35c0,0,0,0,0.1,0v-0.3h-0.4
															C34.7,26.1,34.7,26.4,34.7,26.4z"/>
														<path class="st12" d="M35,26.4h-0.2c-0.1,0-0.1-0.1-0.1-0.1V26h0.5v0.2C35.2,26.3,35.1,26.4,35,26.4z"/>
														<path class="st17" d="M34.7,26.2L34.7,26.2h0.5l0,0V26h-0.5V26.2z"/>
														<path class="st12" d="M35.1,26.1h-0.4c-0.1,0-0.2-0.1-0.2-0.2v-0.2h0.8V26C35.3,26,35.2,26.1,35.1,26.1z"/>
													</g>
													<rect x="34.5" y="25.8" class="st17" width="0.8" height="0.1"/>
												</g>
												<g>
													<g>
														<path class="st16" d="M36,27L36,27c-0.1,0-0.2-0.1-0.2-0.2v-0.6h0.4v0.6C36.1,27,36.1,27,36,27z"/>
														<path class="st12" d="M36,26.9L36,26.9c-0.1,0-0.2-0.1-0.2-0.2v-0.6h0.4v0.6C36.1,26.9,36.1,26.9,36,26.9z"/>
														<path class="st17" d="M36,26.8L36,26.8c-0.1,0-0.2-0.1-0.2-0.2v0.1C35.8,26.8,35.9,26.9,36,26.8L36,26.8
															c0.1,0.1,0.2,0,0.2-0.1v-0.1C36.1,26.8,36.1,26.8,36,26.8z"/>
														<path class="st17" d="M35.8,26.4C35.8,26.4,35.8,26.5,35.8,26.4h0.3c0,0,0,0,0.1,0v-0.3h-0.4
															C35.8,26.1,35.8,26.4,35.8,26.4z"/>
														<path class="st12" d="M36.1,26.4h-0.2c-0.1,0-0.1-0.1-0.1-0.1V26h0.5v0.2C36.2,26.3,36.2,26.4,36.1,26.4z"/>
														<path class="st17" d="M35.7,26.2L35.7,26.2h0.5l0,0V26h-0.5V26.2z"/>
														<path class="st12" d="M36.2,26.1h-0.4c-0.1,0-0.2-0.1-0.2-0.2v-0.2h0.8V26C36.3,26,36.3,26.1,36.2,26.1z"/>
													</g>
													<rect x="35.6" y="25.8" class="st17" width="0.8" height="0.1"/>
												</g>
											</g>
											<g>
												<rect x="33.8" y="29.4" class="st18" width="1.2" height="1.9"/>
												<rect x="33.9" y="29.5" class="st19" width="1.1" height="1.9"/>
												<rect x="33.9" y="29.6" class="st20" width="0.9" height="1.6"/>
												<polygon class="st9" points="33.9,29.6 33.9,29.7 34.8,29.7 34.8,31.2 34.9,31.2 34.9,29.6 												"/>
												<rect x="33.9" y="30" class="st0" width="0.9" height="0.1"/>
												<rect x="34.3" y="29.6" class="st0" width="0.1" height="1.6"/>
											</g>
										</g>
										<path class="st21" d="M36.5,21.7l-0.1-0.2h-4.2l-0.1,0.2V22l0,0h4.2l0,0v-0.3H36.5z"/>
										<path class="st22" d="M36.5,21.9h-4.2c-0.1,0-0.1-0.2-0.1-0.3l0.3-0.6c0-0.1,0.1-0.1,0.2-0.1h3.6c0.1,0,0.1,0.1,0.2,0.1
											l0.3,0.7C36.6,21.7,36.6,21.9,36.5,21.9z"/>
										<path class="st2" d="M36.5,21.8h-4.2c-0.1,0-0.1-0.1-0.1-0.2l0.3-0.8c0-0.1,0.1-0.1,0.2-0.1h3.6c0.1,0,0.1,0.1,0.2,0.1
											l0.3,0.8C36.6,21.7,36.6,21.8,36.5,21.8z"/>
										<path class="st23" d="M32.5,21.6c-0.1,0-0.1-0.1-0.1-0.2l0.2-0.7l0,0c-0.1,0-0.1,0.1-0.2,0.1l-0.3,0.8
											c0,0.1,0,0.2,0.1,0.2h4.2c0.1,0,0.1-0.1,0.1-0.2l0,0C36.5,21.6,32.5,21.6,32.5,21.6z"/>
										<g>
											<g>
												<path class="st24" d="M34.2,25h-1.1v-2.1c0-0.3,0.2-0.5,0.5-0.5l0,0c0.3,0,0.5,0.2,0.5,0.5L34.2,25L34.2,25z"/>
												<path class="st25" d="M34.2,24.9h-1v-2c0-0.3,0.2-0.5,0.5-0.5l0,0c0.3,0,0.5,0.2,0.5,0.5V24.9z"/>
												<path class="st26" d="M33.7,22.4c-0.1,0-0.3,0.1-0.4,0.2C33.4,22.5,33.5,22.4,33.7,22.4c0.2,0.1,0.4,0.3,0.4,0.5v2h0.1
													v-2C34.2,22.6,34,22.4,33.7,22.4z"/>
												<path class="st24" d="M33.6,22.4v2.5h0.1L33.6,22.4C33.7,22.4,33.7,22.4,33.6,22.4C33.7,22.4,33.7,22.4,33.6,22.4z"/>
												<rect x="33.2" y="23.6" class="st26" width="1" height="0.1"/>
												<rect x="33.2" y="24.1" class="st26" width="1" height="0.1"/>
												<rect x="33.2" y="24.6" class="st26" width="1" height="0.1"/>
												<rect x="33.2" y="23" class="st26" width="1" height="0.1"/>
												<rect x="33.2" y="23" class="st24" width="1" height="0.1"/>
												<rect x="33.2" y="23.5" class="st24" width="1" height="0.1"/>
												<rect x="33.2" y="24.1" class="st24" width="1" height="0.1"/>
												<rect x="33.2" y="24.6" class="st24" width="1" height="0.1"/>
												<path class="st24" d="M33.7,22.8v-0.5l0,0c-0.1,0-0.2,0-0.3,0.1C33.7,22.4,33.6,22.8,33.7,22.8L33.7,22.8z"/>
												<path class="st24" d="M33.7,22.8v-0.5l0,0c0.1,0,0.2,0,0.3,0.1C33.7,22.4,33.8,22.8,33.7,22.8L33.7,22.8z"/>
											</g>
											<g>
												<path class="st24" d="M35.7,25h-1.1v-2.1c0-0.3,0.2-0.5,0.5-0.5l0,0c0.3,0,0.5,0.2,0.5,0.5L35.7,25L35.7,25z"/>
												<path class="st25" d="M35.6,24.9h-1v-2c0-0.3,0.2-0.5,0.5-0.5l0,0c0.3,0,0.5,0.2,0.5,0.5V24.9z"/>
												<path class="st26" d="M35.2,22.4c-0.1,0-0.3,0.1-0.4,0.2C34.9,22.5,35,22.4,35.2,22.4c0.2,0.1,0.4,0.3,0.4,0.5v2h0.1v-2
													C35.6,22.6,35.4,22.4,35.2,22.4z"/>
												<path class="st24" d="M35.1,22.4v2.5h0.1L35.1,22.4C35.2,22.4,35.2,22.4,35.1,22.4L35.1,22.4z"/>
												<rect x="34.7" y="23.6" class="st26" width="1" height="0.1"/>
												<rect x="34.7" y="24.1" class="st26" width="1" height="0.1"/>
												<rect x="34.7" y="24.6" class="st26" width="1" height="0.1"/>
												<rect x="34.7" y="23" class="st26" width="1" height="0.1"/>
												<rect x="34.7" y="23" class="st24" width="1" height="0.1"/>
												<rect x="34.7" y="23.5" class="st24" width="1" height="0.1"/>
												<rect x="34.7" y="24.1" class="st24" width="1" height="0.1"/>
												<rect x="34.7" y="24.6" class="st24" width="1" height="0.1"/>
												<path class="st24" d="M35.2,22.8v-0.5l0,0c-0.1,0-0.2,0-0.3,0.1C35.1,22.4,35.1,22.8,35.2,22.8L35.2,22.8z"/>
												<path class="st24" d="M35.1,22.8v-0.5l0,0c0.1,0,0.2,0,0.3,0.1C35.2,22.4,35.2,22.8,35.1,22.8L35.1,22.8z"/>
											</g>
										</g>
									</g>
									<rect x="32.3" y="36.7" class="st27" width="4.7" height="0.9"/>
									<path class="st28" d="M37.4,36.9h-0.6V25.8h-0.5V22v-0.1c0.1,0,0.1-0.2,0.1-0.3l0,0l0,0l-0.3-0.8c0-0.1-0.1-0.1-0.2-0.1
										h-0.3l-0.4,1l0.1,0.2v3.5l0.6,0.9V37l-0.3,0.7v4.4h0.3H36h0.3h0.5h0.1h0.8v-4.4L37.4,36.9z"/>
									<g>
										<polygon class="st12" points="37.3,21.7 36,21.7 36,25.4 36.5,26.3 37.3,26.3 38.1,26.3 38.7,25.4 38.7,21.7 										
											"/>
										<rect x="36.5" y="26.3" class="st0" width="1.6" height="15.8"/>
										<polygon class="st2" points="38.3,20.6 37.3,16.8 36.4,20.6 35.9,21.7 37.3,21.7 38.8,21.7 										"/>
										<g>
											<polygon class="st29" points="38.3,20.6 37.3,16.8 37.9,20.6 38.2,21.7 38.8,21.7 											"/>
											<polygon class="st30" points="35.9,21.7 36.5,21.7 36.8,20.6 37.3,16.8 36.4,20.6 											"/>
										</g>
										<polygon class="st22" points="35.9,21.7 36,21.9 38.7,21.9 38.8,21.7 										"/>
									</g>
									<polygon class="st31" points="38.7,25.4 38.6,25.5 38.5,25.7 38.4,25.8 38.3,26 38.1,26.3 36.5,26.3 36.3,26 36.2,25.8 
										36.2,25.7 36.1,25.5 36,25.4 									"/>
									<polygon class="st28" points="38.6,25.5 38.5,25.7 36.2,25.7 36.1,25.5 									"/>
									<polygon class="st28" points="38.4,25.8 38.3,26 36.3,26 36.2,25.8 									"/>
									<rect x="36.5" y="26.3" class="st12" width="1.6" height="0.5"/>
									<rect x="36.5" y="26.3" class="st31" width="1.6" height="0.5"/>
									<rect x="36.5" y="26.8" class="st28" width="1.6" height="0.1"/>
								</g>
								<g>
									<path class="st32" d="M36.8,25.2h-0.7v-2.6c0-0.2,0.2-0.4,0.4-0.4l0,0c0.2,0,0.4,0.2,0.4,0.4v2.6H36.8z"/>
									<path class="st33" d="M36.5,22.2c-0.1,0-0.2,0.1-0.3,0.2h0.1c0.2,0,0.4,0.2,0.4,0.5v2.4h0.1v-2.5
										C36.8,22.5,36.7,22.2,36.5,22.2z"/>
								</g>
								<g>
									<path class="st32" d="M37.7,25.2H37v-2.6c0-0.2,0.2-0.4,0.4-0.4l0,0c0.2,0,0.4,0.2,0.4,0.4v2.6H37.7z"/>
									<path class="st33" d="M37.3,22.2c-0.1,0-0.2,0.1-0.3,0.2h0.1c0.2,0,0.4,0.2,0.4,0.5v2.4h0.1v-2.5
										C37.7,22.5,37.5,22.2,37.3,22.2z"/>
								</g>
								<g>
									<path class="st32" d="M38.5,25.2h-0.7v-2.6c0-0.2,0.2-0.4,0.4-0.4l0,0c0.2,0,0.4,0.2,0.4,0.4v2.6H38.5z"/>
									<path class="st33" d="M38.1,22.2c-0.1,0-0.2,0.1-0.3,0.2h0.1c0.2,0,0.4,0.2,0.4,0.5v2.4h0.1v-2.5
										C38.5,22.5,38.3,22.2,38.1,22.2z"/>
								</g>
								<g>
									<rect x="37" y="23.3" class="st18" width="0.6" height="1.1"/>
									<rect x="37" y="23.4" class="st19" width="0.6" height="1"/>
									<rect x="37.1" y="23.4" class="st20" width="0.5" height="0.9"/>
									<polygon class="st9" points="37.1,23.4 37.1,23.5 37.5,23.5 37.5,24.3 37.5,24.3 37.5,23.4 									"/>
									<rect x="37.1" y="23.7" class="st0" width="0.5" height="0.1"/>
									<rect x="37.3" y="23.4" class="st0" width="0.1" height="0.9"/>
								</g>
								<g>
									<rect x="36.2" y="23.3" class="st18" width="0.6" height="1.1"/>
									<rect x="36.2" y="23.4" class="st19" width="0.6" height="1"/>
									<rect x="36.2" y="23.4" class="st20" width="0.5" height="0.9"/>
									<polygon class="st9" points="36.2,23.4 36.2,23.5 36.7,23.5 36.7,24.3 36.7,24.3 36.7,23.4 									"/>
									<rect x="36.2" y="23.7" class="st0" width="0.5" height="0.1"/>
									<rect x="36.4" y="23.4" class="st0" width="0.1" height="0.9"/>
								</g>
								<g>
									<rect x="37.8" y="23.3" class="st18" width="0.6" height="1.1"/>
									<rect x="37.8" y="23.4" class="st19" width="0.6" height="1"/>
									<rect x="37.9" y="23.4" class="st20" width="0.5" height="0.9"/>
									<polygon class="st9" points="37.9,23.4 37.9,23.5 38.3,23.5 38.3,24.3 38.3,24.3 38.3,23.4 									"/>
									<rect x="37.9" y="23.7" class="st0" width="0.5" height="0.1"/>
									<rect x="38.1" y="23.4" class="st0" width="0.1" height="0.9"/>
								</g>
								<rect x="36" y="21.9" class="st6" width="1" height="3.5"/>
								<polygon class="st0" points="38.1,36.9 37.3,36.9 36.5,36.9 36.2,37.7 36.2,42.1 36.8,42.1 37.1,42.1 37.6,42.1 38.4,42.1 
									38.4,37.7 								"/>
								<polygon class="st27" points="38.4,37.6 38.1,36.9 37.3,36.9 36.5,36.9 36.3,37.6 								"/>
							</g>
							<g>
								<g>
									<g>
										<g>
											<rect x="26.6" y="25.8" class="st0" width="4.8" height="16.3"/>
											<rect x="26.6" y="25.8" class="st16" width="4.3" height="0.7"/>
											<rect x="26.6" y="25.8" class="st16" width="4.3" height="0.4"/>
											<rect x="26.6" y="21.5" class="st12" width="4.3" height="4.3"/>
											<g>
												<g>
													<g>
														<path class="st16" d="M27.2,27L27.2,27c-0.1,0-0.2,0-0.2-0.1v-0.6h0.4v0.6C27.4,27,27.3,27,27.2,27z"/>
														<path class="st12" d="M27.2,26.9L27.2,26.9c-0.1,0-0.2-0.1-0.2-0.2v-0.6h0.4v0.6C27.4,26.9,27.3,26.9,27.2,26.9z"/>
														<path class="st17" d="M27.2,26.8L27.2,26.8c-0.1,0-0.2-0.1-0.2-0.2v0.1C27,26.8,27.1,26.9,27.2,26.8L27.2,26.8
															c0.1,0.1,0.2,0,0.2-0.1v-0.1C27.4,26.8,27.3,26.8,27.2,26.8z"/>
														<path class="st17" d="M27,26.4C27,26.4,27,26.5,27,26.4h0.3c0,0,0,0,0.1,0v-0.3H27V26.4z"/>
														<path class="st12" d="M27.3,26.4h-0.2c-0.1,0-0.1-0.1-0.1-0.1V26h0.5v0.2C27.5,26.3,27.4,26.4,27.3,26.4z"/>
														<path class="st17" d="M26.9,26.2C26.9,26.2,27,26.2,26.9,26.2h0.5l0,0V26h-0.5V26.2z"/>
														<path class="st12" d="M27.4,26.1H27c-0.1,0-0.2-0.1-0.2-0.2v-0.2h0.8V26C27.6,26,27.5,26.1,27.4,26.1z"/>
													</g>
													<rect x="26.8" y="25.8" class="st17" width="0.8" height="0.1"/>
												</g>
												<g>
													<g>
														<path class="st16" d="M28.2,27L28.2,27c-0.1,0-0.2,0-0.2-0.1v-0.6h0.4v0.6C28.4,27,28.3,27,28.2,27z"/>
														<path class="st12" d="M28.2,26.9L28.2,26.9c-0.1,0-0.2-0.1-0.2-0.2v-0.6h0.4v0.6C28.4,26.9,28.3,26.9,28.2,26.9z"/>
														<path class="st17" d="M28.3,26.8L28.3,26.8c-0.1,0-0.2-0.1-0.2-0.2v0.1C28,26.8,28.1,26.9,28.3,26.8L28.3,26.8
															c0.1,0.1,0.2,0,0.2-0.1v-0.1C28.4,26.8,28.3,26.8,28.3,26.8z"/>
														<path class="st17" d="M28,26.4C28.1,26.4,28.1,26.5,28,26.4h0.3c0,0,0,0,0.1,0v-0.3H28V26.4z"/>
														<path class="st12" d="M28.4,26.4h-0.2c-0.1,0-0.1-0.1-0.1-0.1V26h0.5v0.2C28.5,26.3,28.4,26.4,28.4,26.4z"/>
														<path class="st17" d="M28,26.2L28,26.2h0.5l0,0V26H28V26.2z"/>
														<path class="st12" d="M28.4,26.1H28c-0.1,0-0.2-0.1-0.2-0.2v-0.2h0.8V26C28.6,26,28.5,26.1,28.4,26.1z"/>
													</g>
													<rect x="27.8" y="25.8" class="st17" width="0.8" height="0.1"/>
												</g>
												<g>
													<g>
														<path class="st16" d="M29.3,27L29.3,27c-0.1,0-0.2-0.1-0.2-0.2v-0.6h0.4v0.6C29.5,27,29.4,27,29.3,27z"/>
														<path class="st12" d="M29.3,26.9L29.3,26.9c-0.1,0-0.2-0.1-0.2-0.2v-0.6h0.4v0.6C29.5,26.9,29.4,26.9,29.3,26.9z"/>
														<path class="st17" d="M29.3,26.8L29.3,26.8c-0.1,0-0.2-0.1-0.2-0.2v0.1C29.1,26.8,29.2,26.9,29.3,26.8L29.3,26.8
															c0.1,0.1,0.2,0,0.2-0.1v-0.1C29.5,26.8,29.4,26.8,29.3,26.8z"/>
														<path class="st17" d="M29.1,26.4C29.1,26.4,29.1,26.5,29.1,26.4h0.3c0,0,0,0,0.1,0v-0.3h-0.4V26.4z"/>
														<path class="st12" d="M29.4,26.4h-0.2c-0.1,0-0.1-0.1-0.1-0.1V26h0.5v0.2C29.5,26.3,29.5,26.4,29.4,26.4z"/>
														<path class="st17" d="M29,26.2L29,26.2h0.5l0,0V26H29V26.2z"/>
														<path class="st12" d="M29.5,26.1h-0.4c-0.1,0-0.2-0.1-0.2-0.2v-0.2h0.8V26C29.6,26,29.6,26.1,29.5,26.1z"/>
													</g>
													<rect x="28.9" y="25.8" class="st17" width="0.8" height="0.1"/>
												</g>
												<g>
													<g>
														<path class="st16" d="M30.3,27L30.3,27c-0.1,0-0.2-0.1-0.2-0.2v-0.6h0.4v0.6C30.5,27,30.4,27,30.3,27z"/>
														<path class="st12" d="M30.3,26.9L30.3,26.9c-0.1,0-0.2-0.1-0.2-0.2v-0.6h0.4v0.6C30.5,26.9,30.4,26.9,30.3,26.9z"/>
														<path class="st17" d="M30.3,26.8L30.3,26.8c-0.1,0-0.2-0.1-0.2-0.2v0.1C30.1,26.8,30.2,26.9,30.3,26.8L30.3,26.8
															c0.1,0.1,0.2,0,0.2-0.1v-0.1C30.5,26.8,30.4,26.8,30.3,26.8z"/>
														<path class="st17" d="M30.1,26.4C30.1,26.4,30.2,26.5,30.1,26.4h0.3c0,0,0,0,0.1,0v-0.3h-0.4V26.4z"/>
														<path class="st12" d="M30.4,26.4h-0.2c-0.1,0-0.1-0.1-0.1-0.1V26h0.5v0.2C30.6,26.3,30.5,26.4,30.4,26.4z"/>
														<path class="st17" d="M30,26.2C30.1,26.2,30.1,26.2,30,26.2h0.5l0,0V26H30V26.2z"/>
														<path class="st12" d="M30.5,26.1h-0.4c-0.1,0-0.2-0.1-0.2-0.2v-0.2h0.8V26C30.7,26,30.6,26.1,30.5,26.1z"/>
													</g>
													<rect x="29.9" y="25.8" class="st17" width="0.8" height="0.1"/>
												</g>
											</g>
											<g>
												<rect x="28.1" y="29.4" class="st18" width="1.2" height="1.9"/>
												<rect x="28.2" y="29.5" class="st19" width="1.1" height="1.9"/>
												<rect x="28.3" y="29.6" class="st20" width="0.9" height="1.6"/>
												<polygon class="st9" points="28.3,29.6 28.3,29.7 29.2,29.7 29.2,31.2 29.2,31.2 29.2,29.6 												"/>
												<rect x="28.3" y="30" class="st0" width="0.9" height="0.1"/>
												<rect x="28.7" y="29.6" class="st0" width="0.1" height="1.6"/>
											</g>
										</g>
										<path class="st21" d="M30.9,21.7l-0.1-0.2h-4.2l-0.1,0.2V22l0,0h4.2l0,0v-0.3H30.9z"/>
										<path class="st22" d="M30.9,21.9h-4.2c-0.1,0-0.1-0.2-0.1-0.3l0.3-0.6c0-0.1,0.1-0.1,0.2-0.1h3.6c0.1,0,0.1,0.1,0.2,0.1
											l0.3,0.7C31,21.7,30.9,21.9,30.9,21.9z"/>
										<path class="st2" d="M30.9,21.8h-4.2c-0.1,0-0.1-0.1-0.1-0.2l0.3-0.8c0-0.1,0.1-0.1,0.2-0.1h3.6c0.1,0,0.1,0.1,0.2,0.1
											l0.3,0.8C31,21.7,30.9,21.8,30.9,21.8z"/>
										<path class="st23" d="M26.8,21.6c-0.1,0-0.1-0.1-0.1-0.2l0.2-0.7l0,0c-0.1,0-0.1,0.1-0.2,0.1l-0.3,0.8
											c0,0.1,0,0.2,0.1,0.2h4.2c0.1,0,0.1-0.1,0.1-0.2l0,0C30.8,21.6,26.8,21.6,26.8,21.6z"/>
										<g>
											<g>
												<path class="st24" d="M28.6,25h-1.1v-2.1c0-0.3,0.2-0.5,0.5-0.5l0,0c0.3,0,0.5,0.2,0.5,0.5V25H28.6z"/>
												<path class="st25" d="M28.5,24.9h-1v-2c0-0.3,0.2-0.5,0.5-0.5l0,0c0.3,0,0.5,0.2,0.5,0.5V24.9z"/>
												<path class="st26" d="M28,22.4c-0.1,0-0.3,0.1-0.4,0.2C27.8,22.5,27.9,22.4,28,22.4c0.2,0.1,0.4,0.3,0.4,0.5v2h0.1v-2
													C28.5,22.6,28.3,22.4,28,22.4z"/>
												<path class="st24" d="M28,22.4v2.5h0.1v-2.5C28.1,22.4,28.1,22.4,28,22.4L28,22.4z"/>
												<rect x="27.6" y="23.6" class="st26" width="1" height="0.1"/>
												<rect x="27.6" y="24.1" class="st26" width="1" height="0.1"/>
												<rect x="27.6" y="24.6" class="st26" width="1" height="0.1"/>
												<rect x="27.6" y="23" class="st26" width="1" height="0.1"/>
												<rect x="27.6" y="23" class="st24" width="1" height="0.1"/>
												<rect x="27.6" y="23.5" class="st24" width="1" height="0.1"/>
												<rect x="27.6" y="24.1" class="st24" width="1" height="0.1"/>
												<rect x="27.6" y="24.6" class="st24" width="1" height="0.1"/>
												<path class="st24" d="M28.1,22.8v-0.5l0,0c-0.1,0-0.2,0-0.3,0.1C28,22.4,28,22.8,28.1,22.8L28.1,22.8z"/>
												<path class="st24" d="M28,22.8v-0.5l0,0c0.1,0,0.2,0,0.3,0.1C28.1,22.4,28.1,22.8,28,22.8L28,22.8z"/>
											</g>
											<g>
												<path class="st24" d="M30,25h-1v-2.1c0-0.3,0.2-0.5,0.5-0.5l0,0c0.3,0,0.5,0.2,0.5,0.5V25z"/>
												<path class="st25" d="M30,24.9h-1v-2c0-0.3,0.2-0.5,0.5-0.5l0,0c0.3,0,0.5,0.2,0.5,0.5V24.9z"/>
												<path class="st26" d="M29.5,22.4c-0.1,0-0.3,0.1-0.4,0.2C29.2,22.5,29.3,22.4,29.5,22.4c0.2,0.1,0.4,0.3,0.4,0.5v2H30
													v-2C30,22.6,29.8,22.4,29.5,22.4z"/>
												<path class="st24" d="M29.4,22.4v2.5h0.1v-2.5C29.5,22.4,29.5,22.4,29.4,22.4C29.5,22.4,29.4,22.4,29.4,22.4z"/>
												<rect x="29" y="23.6" class="st26" width="1" height="0.1"/>
												<rect x="29" y="24.1" class="st26" width="1" height="0.1"/>
												<rect x="29" y="24.6" class="st26" width="1" height="0.1"/>
												<rect x="29" y="23" class="st26" width="1" height="0.1"/>
												<rect x="29" y="23" class="st24" width="1" height="0.1"/>
												<rect x="29" y="23.5" class="st24" width="1" height="0.1"/>
												<rect x="29" y="24.1" class="st24" width="1" height="0.1"/>
												<rect x="29" y="24.6" class="st24" width="1" height="0.1"/>
												<path class="st24" d="M29.5,22.8v-0.5l0,0c-0.1,0-0.2,0-0.3,0.1C29.5,22.4,29.4,22.8,29.5,22.8L29.5,22.8z"/>
												<path class="st24" d="M29.5,22.8v-0.5l0,0c0.1,0,0.2,0,0.3,0.1C29.5,22.4,29.6,22.8,29.5,22.8L29.5,22.8z"/>
											</g>
										</g>
									</g>
									<rect x="26.6" y="36.7" class="st27" width="4.7" height="0.9"/>
									<path class="st28" d="M31.7,36.9h-0.6V25.8h-0.5V22v-0.1c0.1,0,0.1-0.2,0.1-0.3l0,0l0,0l-0.3-0.8c0-0.1-0.1-0.1-0.2-0.1
										h-0.3l-0.4,1l0.1,0.2v3.5l0.6,0.9V37l-0.3,0.7v4.4h0.3h0.2h0.3h0.5h0.1H32v-4.4L31.7,36.9z"/>
									<g>
										<polygon class="st12" points="31.7,21.7 30.3,21.7 30.3,25.4 30.9,26.3 31.7,26.3 32.5,26.3 33,25.4 33,21.7 										
											"/>
										<rect x="30.9" y="26.3" class="st0" width="1.6" height="15.8"/>
										<polygon class="st2" points="32.6,20.6 31.7,16.8 30.7,20.6 30.2,21.7 31.7,21.7 33.1,21.7 										"/>
										<g>
											<polygon class="st29" points="32.6,20.6 31.7,16.8 32.2,20.6 32.5,21.7 33.1,21.7 											"/>
											<polygon class="st30" points="30.2,21.7 30.8,21.7 31.1,20.6 31.7,16.8 30.7,20.6 											"/>
										</g>
										<polygon class="st22" points="30.2,21.7 30.3,21.9 33,21.9 33.1,21.7 										"/>
									</g>
									<polygon class="st31" points="33,25.4 32.9,25.5 32.8,25.7 32.8,25.8 32.7,26 32.5,26.3 30.9,26.3 30.7,26 30.6,25.8 
										30.5,25.7 30.4,25.5 30.3,25.4 									"/>
									<polygon class="st28" points="32.9,25.5 32.8,25.7 30.5,25.7 30.4,25.5 									"/>
									<polygon class="st28" points="32.8,25.8 32.7,26 30.7,26 30.6,25.8 									"/>
									<rect x="30.9" y="26.3" class="st12" width="1.6" height="0.5"/>
									<rect x="30.9" y="26.3" class="st31" width="1.6" height="0.5"/>
									<rect x="30.9" y="26.8" class="st28" width="1.6" height="0.1"/>
								</g>
								<g>
									<path class="st32" d="M31.2,25.2h-0.7v-2.6c0-0.2,0.2-0.4,0.4-0.4l0,0c0.2,0,0.4,0.2,0.4,0.4L31.2,25.2L31.2,25.2z"/>
									<path class="st33" d="M30.8,22.2c-0.1,0-0.2,0.1-0.3,0.2h0.1c0.2,0,0.4,0.2,0.4,0.5v2.4h0.1v-2.5
										C31.2,22.5,31,22.2,30.8,22.2z"/>
								</g>
								<g>
									<path class="st32" d="M32,25.2h-0.7v-2.6c0-0.2,0.2-0.4,0.4-0.4l0,0c0.2,0,0.4,0.2,0.4,0.4L32,25.2L32,25.2z"/>
									<path class="st33" d="M31.6,22.2c-0.1,0-0.2,0.1-0.3,0.2h0.1c0.2,0,0.4,0.2,0.4,0.5v2.4H32v-2.5
										C32,22.5,31.8,22.2,31.6,22.2z"/>
								</g>
								<g>
									<path class="st32" d="M32.8,25.2h-0.7v-2.6c0-0.2,0.2-0.4,0.4-0.4l0,0c0.2,0,0.4,0.2,0.4,0.4v2.6H32.8z"/>
									<path class="st33" d="M32.5,22.2c-0.1,0-0.2,0.1-0.3,0.2h0.1c0.2,0,0.4,0.2,0.4,0.5v2.4h0.1v-2.5
										C32.8,22.5,32.7,22.2,32.5,22.2z"/>
								</g>
								<g>
									<rect x="31.3" y="23.3" class="st18" width="0.6" height="1.1"/>
									<rect x="31.4" y="23.4" class="st19" width="0.6" height="1"/>
									<rect x="31.4" y="23.4" class="st20" width="0.5" height="0.9"/>
									<polygon class="st9" points="31.4,23.4 31.4,23.5 31.9,23.5 31.9,24.3 31.9,24.3 31.9,23.4 									"/>
									<rect x="31.4" y="23.7" class="st0" width="0.5" height="0.1"/>
									<rect x="31.6" y="23.4" class="st0" width="0.1" height="0.9"/>
								</g>
								<g>
									<rect x="30.5" y="23.3" class="st18" width="0.6" height="1.1"/>
									<rect x="30.5" y="23.4" class="st19" width="0.6" height="1"/>
									<rect x="30.6" y="23.4" class="st20" width="0.5" height="0.9"/>
									<polygon class="st9" points="30.6,23.4 30.6,23.5 31,23.5 31,24.3 31.1,24.3 31.1,23.4 									"/>
									<rect x="30.6" y="23.7" class="st0" width="0.5" height="0.1"/>
									<rect x="30.8" y="23.4" class="st0" width="0.1" height="0.9"/>
								</g>
								<g>
									<rect x="32.1" y="23.3" class="st18" width="0.6" height="1.1"/>
									<rect x="32.2" y="23.4" class="st19" width="0.6" height="1"/>
									<rect x="32.2" y="23.4" class="st20" width="0.5" height="0.9"/>
									<polygon class="st9" points="32.2,23.4 32.2,23.5 32.6,23.5 32.6,24.3 32.7,24.3 32.7,23.4 									"/>
									<rect x="32.2" y="23.7" class="st0" width="0.5" height="0.1"/>
									<rect x="32.4" y="23.4" class="st0" width="0.1" height="0.9"/>
								</g>
								<rect x="30.3" y="21.9" class="st6" width="1" height="3.5"/>
								<polygon class="st0" points="32.5,36.9 31.6,36.9 30.9,36.9 30.6,37.7 30.6,42.1 31.1,42.1 31.4,42.1 31.9,42.1 32.8,42.1 
									32.8,37.7 								"/>
								<polygon class="st27" points="32.8,37.6 32.5,36.9 31.6,36.9 30.9,36.9 30.6,37.6 								"/>
							</g>
							<g>
								<g>
									<g>
										<g>
											<rect x="21" y="25.8" class="st0" width="4.8" height="16.3"/>
											<rect x="21" y="25.8" class="st16" width="4.3" height="0.7"/>
											<rect x="21" y="25.8" class="st16" width="4.3" height="0.4"/>
											<rect x="21" y="21.5" class="st12" width="4.3" height="4.3"/>
											<g>
												<g>
													<g>
														<path class="st16" d="M21.5,27L21.5,27c-0.1,0-0.2-0.1-0.2-0.2v-0.6h0.4v0.6C21.7,27,21.6,27,21.5,27z"/>
														<path class="st12" d="M21.5,26.9L21.5,26.9c-0.1,0-0.2-0.1-0.2-0.2v-0.6h0.4v0.6C21.7,26.9,21.6,26.9,21.5,26.9z"/>
														<path class="st17" d="M21.6,26.8L21.6,26.8c-0.1,0-0.2-0.1-0.2-0.2v0.1C21.3,26.8,21.4,26.9,21.6,26.8L21.6,26.8
															c0.1,0.1,0.2,0,0.2-0.1v-0.1C21.7,26.8,21.6,26.8,21.6,26.8z"/>
														<path class="st17" d="M21.3,26.4C21.4,26.4,21.4,26.5,21.3,26.4h0.3c0,0,0,0,0.1,0v-0.3h-0.4V26.4z"/>
														<path class="st12" d="M21.7,26.4h-0.2c-0.1,0-0.1-0.1-0.1-0.1V26h0.5v0.2C21.8,26.3,21.7,26.4,21.7,26.4z"/>
														<path class="st17" d="M21.3,26.2L21.3,26.2h0.5l0,0V26h-0.5V26.2z"/>
														<path class="st12" d="M21.7,26.1h-0.4c-0.1,0-0.2-0.1-0.2-0.2v-0.2h0.8V26C21.9,26,21.8,26.1,21.7,26.1z"/>
													</g>
													<rect x="21.2" y="25.8" class="st17" width="0.8" height="0.1"/>
												</g>
												<g>
													<g>
														<path class="st16" d="M22.6,27L22.6,27c-0.1,0-0.2-0.1-0.2-0.2v-0.6h0.4v0.6C22.8,27,22.7,27,22.6,27z"/>
														<path class="st12" d="M22.6,26.9L22.6,26.9c-0.1,0-0.2-0.1-0.2-0.2v-0.6h0.4v0.6C22.8,26.9,22.7,26.9,22.6,26.9z"/>
														<path class="st17" d="M22.6,26.8L22.6,26.8c-0.1,0-0.2-0.1-0.2-0.2v0.1C22.4,26.8,22.5,26.9,22.6,26.8L22.6,26.8
															c0.1,0.1,0.2,0,0.2-0.1v-0.1C22.8,26.8,22.7,26.8,22.6,26.8z"/>
														<path class="st17" d="M22.4,26.4C22.4,26.4,22.4,26.5,22.4,26.4h0.3c0,0,0,0,0.1,0v-0.3h-0.4V26.4z"/>
														<path class="st12" d="M22.7,26.4h-0.2c-0.1,0-0.1-0.1-0.1-0.1V26h0.5v0.2C22.8,26.3,22.8,26.4,22.7,26.4z"/>
														<path class="st17" d="M22.3,26.2L22.3,26.2h0.5l0,0V26h-0.5V26.2z"/>
														<path class="st12" d="M22.8,26.1h-0.4c-0.1,0-0.2-0.1-0.2-0.2v-0.2H23V26C22.9,26,22.9,26.1,22.8,26.1z"/>
													</g>
													<rect x="22.2" y="25.8" class="st17" width="0.8" height="0.1"/>
												</g>
												<g>
													<g>
														<path class="st16" d="M23.6,27L23.6,27c-0.1,0-0.2-0.1-0.2-0.2v-0.6h0.4v0.6C23.8,27,23.7,27,23.6,27z"/>
														<path class="st12" d="M23.6,26.9L23.6,26.9c-0.1,0-0.2-0.1-0.2-0.2v-0.6h0.4v0.6C23.8,26.9,23.7,26.9,23.6,26.9z"/>
														<path class="st17" d="M23.6,26.8L23.6,26.8c-0.1,0-0.2-0.1-0.2-0.2v0.1C23.4,26.8,23.5,26.9,23.6,26.8L23.6,26.8
															c0.1,0.1,0.2,0,0.2-0.1v-0.1C23.8,26.8,23.7,26.8,23.6,26.8z"/>
														<path class="st17" d="M23.4,26.4C23.4,26.4,23.5,26.5,23.4,26.4h0.3c0,0,0,0,0.1,0v-0.3h-0.4V26.4z"/>
														<path class="st12" d="M23.7,26.4h-0.2c-0.1,0-0.1-0.1-0.1-0.1V26h0.5v0.2C23.9,26.3,23.8,26.4,23.7,26.4z"/>
														<path class="st17" d="M23.3,26.2C23.4,26.2,23.4,26.2,23.3,26.2h0.5l0,0V26h-0.5V26.2z"/>
														<path class="st12" d="M23.8,26.1h-0.4c-0.1,0-0.2-0.1-0.2-0.2v-0.2H24V26C24,26,23.9,26.1,23.8,26.1z"/>
													</g>
													<rect x="23.2" y="25.8" class="st17" width="0.8" height="0.1"/>
												</g>
												<g>
													<g>
														<path class="st16" d="M24.7,27L24.7,27c-0.1,0-0.2-0.1-0.2-0.2v-0.6h0.4v0.6C24.8,27,24.8,27,24.7,27z"/>
														<path class="st12" d="M24.7,26.9L24.7,26.9c-0.1,0-0.2-0.1-0.2-0.2v-0.6h0.4v0.6C24.8,26.9,24.8,26.9,24.7,26.9z"/>
														<path class="st17" d="M24.7,26.8L24.7,26.8c-0.1,0-0.2-0.1-0.2-0.2v0.1C24.5,26.8,24.5,26.9,24.7,26.8L24.7,26.8
															c0.1,0.1,0.2,0,0.2-0.1v-0.1C24.8,26.8,24.8,26.8,24.7,26.8z"/>
														<path class="st17" d="M24.5,26.4C24.5,26.4,24.5,26.5,24.5,26.4h0.3c0,0,0,0,0.1,0v-0.3h-0.4V26.4z"/>
														<path class="st12" d="M24.8,26.4h-0.2c-0.1,0-0.1-0.1-0.1-0.1V26H25v0.2C24.9,26.3,24.8,26.4,24.8,26.4z"/>
														<path class="st17" d="M24.4,26.2L24.4,26.2h0.5l0,0V26h-0.5V26.2z"/>
														<path class="st12" d="M24.9,26.1h-0.4c-0.1,0-0.2-0.1-0.2-0.2v-0.2H25V26L24.9,26.1z"/>
													</g>
													<rect x="24.3" y="25.8" class="st17" width="0.8" height="0.1"/>
												</g>
											</g>
											<g>
												<rect x="22.5" y="29.4" class="st18" width="1.2" height="1.9"/>
												<rect x="22.5" y="29.5" class="st19" width="1.1" height="1.9"/>
												<rect x="22.6" y="29.6" class="st20" width="0.9" height="1.6"/>
												<polygon class="st9" points="22.6,29.6 22.6,29.7 23.5,29.7 23.5,31.2 23.6,31.2 23.6,29.6 												"/>
												<rect x="22.6" y="30" class="st0" width="0.9" height="0.1"/>
												<rect x="23" y="29.6" class="st0" width="0.1" height="1.6"/>
											</g>
										</g>
										<path class="st21" d="M25.2,21.7l-0.1-0.2H21v0.2V22l0,0h4.2l0,0V21.7z"/>
										<path class="st22" d="M25.2,21.9H21c-0.1,0-0.1-0.2-0.1-0.3l0.3-0.6c0-0.1,0.1-0.1,0.2-0.1H25c0.1,0,0.1,0.1,0.2,0.1
											l0.3,0.7C25.3,21.7,25.3,21.9,25.2,21.9z"/>
										<path class="st2" d="M25.2,21.8H21c-0.1,0-0.1-0.1-0.1-0.2l0.3-0.8c0-0.1,0.1-0.1,0.2-0.1H25c0.1,0,0.1,0.1,0.2,0.1
											l0.3,0.8C25.3,21.7,25.3,21.8,25.2,21.8z"/>
										<path class="st23" d="M21.2,21.6c-0.1,0-0.1-0.1-0.1-0.2l0.2-0.7l0,0c-0.1,0-0.1,0.1-0.2,0.1l-0.3,0.8
											c0,0.1,0,0.2,0.1,0.2h4.2c0.1,0,0.1-0.1,0.1-0.2l0,0C25.2,21.6,21.2,21.6,21.2,21.6z"/>
										<g>
											<g>
												<path class="st24" d="M22.9,25h-1.1v-2.1c0-0.3,0.2-0.5,0.5-0.5l0,0c0.3,0,0.5,0.2,0.5,0.5V25H22.9z"/>
												<path class="st25" d="M22.9,24.9h-1v-2c0-0.3,0.2-0.5,0.5-0.5l0,0c0.3,0,0.5,0.2,0.5,0.5V24.9z"/>
												<path class="st26" d="M22.4,22.4c-0.1,0-0.3,0.1-0.4,0.2C22.1,22.5,22.2,22.4,22.4,22.4c0.2,0.1,0.4,0.3,0.4,0.5v2h0.1
													v-2C22.9,22.6,22.6,22.4,22.4,22.4z"/>
												<path class="st24" d="M22.3,22.4v2.5h0.1v-2.5C22.4,22.4,22.4,22.4,22.3,22.4C22.4,22.4,22.3,22.4,22.3,22.4z"/>
												<rect x="21.9" y="23.6" class="st26" width="1" height="0.1"/>
												<rect x="21.9" y="24.1" class="st26" width="1" height="0.1"/>
												<rect x="21.9" y="24.6" class="st26" width="1" height="0.1"/>
												<rect x="21.9" y="23" class="st26" width="1" height="0.1"/>
												<rect x="21.9" y="23" class="st24" width="1" height="0.1"/>
												<rect x="21.9" y="23.5" class="st24" width="1" height="0.1"/>
												<rect x="21.9" y="24.1" class="st24" width="1" height="0.1"/>
												<rect x="21.9" y="24.6" class="st24" width="1" height="0.1"/>
												<path class="st24" d="M22.4,22.8v-0.5l0,0c-0.1,0-0.2,0-0.3,0.1C22.4,22.4,22.3,22.8,22.4,22.8L22.4,22.8z"/>
												<path class="st24" d="M22.4,22.8v-0.5l0,0c0.1,0,0.2,0,0.3,0.1C22.4,22.4,22.4,22.8,22.4,22.8L22.4,22.8z"/>
											</g>
											<g>
												<path class="st24" d="M24.4,25h-1.1v-2.1c0-0.3,0.2-0.5,0.5-0.5l0,0c0.3,0,0.5,0.2,0.5,0.5V25H24.4z"/>
												<path class="st25" d="M24.3,24.9h-1v-2c0-0.3,0.2-0.5,0.5-0.5l0,0c0.3,0,0.5,0.2,0.5,0.5V24.9z"/>
												<path class="st26" d="M23.8,22.4c-0.1,0-0.3,0.1-0.4,0.2C23.6,22.5,23.7,22.4,23.8,22.4c0.2,0.1,0.4,0.3,0.4,0.5v2h0.1
													v-2C24.3,22.6,24.1,22.4,23.8,22.4z"/>
												<path class="st24" d="M23.8,22.4v2.5h0.1v-2.5C23.9,22.4,23.9,22.4,23.8,22.4L23.8,22.4z"/>
												<rect x="23.4" y="23.6" class="st26" width="1" height="0.1"/>
												<rect x="23.4" y="24.1" class="st26" width="1" height="0.1"/>
												<rect x="23.4" y="24.6" class="st26" width="1" height="0.1"/>
												<rect x="23.4" y="23" class="st26" width="1" height="0.1"/>
												<rect x="23.4" y="23" class="st24" width="1" height="0.1"/>
												<rect x="23.4" y="23.5" class="st24" width="1" height="0.1"/>
												<rect x="23.4" y="24.1" class="st24" width="1" height="0.1"/>
												<rect x="23.4" y="24.6" class="st24" width="1" height="0.1"/>
												<path class="st24" d="M23.8,22.8v-0.5l0,0c-0.1,0-0.2,0-0.3,0.1C23.8,22.4,23.8,22.8,23.8,22.8L23.8,22.8z"/>
												<path class="st24" d="M23.8,22.8v-0.5l0,0c0.1,0,0.2,0,0.3,0.1C23.9,22.4,23.9,22.8,23.8,22.8L23.8,22.8z"/>
											</g>
										</g>
									</g>
									<rect x="21" y="36.7" class="st27" width="4.7" height="0.9"/>
									<path class="st28" d="M26.1,36.9h-0.6V25.8H25V22v-0.1c0.1,0,0.1-0.2,0.1-0.3l0,0l0,0l-0.3-0.8c0-0.1-0.1-0.1-0.2-0.1h-0.3
										l-0.4,1l0.1,0.2v3.5l0.6,0.9V37l-0.3,0.7v4.4h0.3h0.2H25h0.5h0.1h0.8v-4.4L26.1,36.9z"/>
									<g>
										<polygon class="st12" points="26,21.7 24.7,21.7 24.7,25.4 25.2,26.3 26,26.3 26.8,26.3 27.4,25.4 27.4,21.7 										
											"/>
										<rect x="25.2" y="26.3" class="st0" width="1.6" height="15.8"/>
										<polygon class="st2" points="26.9,20.6 26,16.8 25.1,20.6 24.6,21.7 26,21.7 27.4,21.7 										"/>
										<g>
											<polygon class="st29" points="26.9,20.6 26,16.8 26.6,20.6 26.9,21.7 27.4,21.7 											"/>
											<polygon class="st30" points="24.6,21.7 25.2,21.7 25.5,20.6 26,16.8 25.1,20.6 											"/>
										</g>
										<polygon class="st22" points="24.6,21.7 24.7,21.9 27.4,21.9 27.4,21.7 										"/>
									</g>
									<polygon class="st31" points="27.4,25.4 27.3,25.5 27.2,25.7 27.1,25.8 27,26 26.8,26.3 25.2,26.3 25,26 24.9,25.8 
										24.9,25.7 24.7,25.5 24.7,25.4 									"/>
									<polygon class="st28" points="27.3,25.5 27.2,25.7 24.9,25.7 24.7,25.5 									"/>
									<polygon class="st28" points="27.1,25.8 27,26 25,26 24.9,25.8 									"/>
									<rect x="25.2" y="26.3" class="st12" width="1.6" height="0.5"/>
									<rect x="25.2" y="26.3" class="st31" width="1.6" height="0.5"/>
									<rect x="25.2" y="26.8" class="st28" width="1.6" height="0.1"/>
								</g>
								<g>
									<path class="st32" d="M25.5,25.2h-0.7v-2.6c0-0.2,0.2-0.4,0.4-0.4l0,0c0.2,0,0.4,0.2,0.4,0.4L25.5,25.2L25.5,25.2z"/>
									<path class="st33" d="M25.2,22.2c-0.1,0-0.2,0.1-0.3,0.2H25c0.2,0,0.4,0.2,0.4,0.5v2.4h0.1v-2.5
										C25.5,22.5,25.4,22.2,25.2,22.2z"/>
								</g>
								<g>
									<path class="st32" d="M26.4,25.2h-0.7v-2.6c0-0.2,0.2-0.4,0.4-0.4l0,0c0.2,0,0.4,0.2,0.4,0.4L26.4,25.2L26.4,25.2z"/>
									<path class="st33" d="M26,22.2c-0.1,0-0.2,0.1-0.3,0.2h0.1c0.2,0,0.4,0.2,0.4,0.5v2.4h0.1v-2.5
										C26.4,22.5,26.2,22.2,26,22.2z"/>
								</g>
								<g>
									<path class="st32" d="M27.2,25.2h-0.7v-2.6c0-0.2,0.2-0.4,0.4-0.4l0,0c0.2,0,0.4,0.2,0.4,0.4L27.2,25.2L27.2,25.2z"/>
									<path class="st33" d="M26.8,22.2c-0.1,0-0.2,0.1-0.3,0.2h0.1c0.2,0,0.4,0.2,0.4,0.5v2.4h0.1v-2.5
										C27.2,22.5,27,22.2,26.8,22.2z"/>
								</g>
								<g>
									<rect x="25.7" y="23.3" class="st18" width="0.6" height="1.1"/>
									<rect x="25.7" y="23.4" class="st19" width="0.6" height="1"/>
									<rect x="25.7" y="23.4" class="st20" width="0.5" height="0.9"/>
									<polygon class="st9" points="25.7,23.4 25.7,23.5 26.2,23.5 26.2,24.3 26.2,24.3 26.2,23.4 									"/>
									<rect x="25.7" y="23.7" class="st0" width="0.5" height="0.1"/>
									<rect x="26" y="23.4" class="st0" width="0.1" height="0.9"/>
								</g>
								<g>
									<rect x="24.8" y="23.3" class="st18" width="0.6" height="1.1"/>
									<rect x="24.9" y="23.4" class="st19" width="0.6" height="1"/>
									<rect x="24.9" y="23.4" class="st20" width="0.5" height="0.9"/>
									<polygon class="st9" points="24.9,23.4 24.9,23.5 25.4,23.5 25.4,24.3 25.4,24.3 25.4,23.4 									"/>
									<rect x="24.9" y="23.7" class="st0" width="0.5" height="0.1"/>
									<rect x="25.1" y="23.4" class="st0" width="0.1" height="0.9"/>
								</g>
								<g>
									<rect x="26.5" y="23.3" class="st18" width="0.6" height="1.1"/>
									<rect x="26.5" y="23.4" class="st19" width="0.6" height="1"/>
									<rect x="26.5" y="23.4" class="st20" width="0.5" height="0.9"/>
									<polygon class="st9" points="26.5,23.4 26.5,23.5 27,23.5 27,24.3 27,24.3 27,23.4 									"/>
									<rect x="26.5" y="23.7" class="st0" width="0.5" height="0.1"/>
									<rect x="26.7" y="23.4" class="st0" width="0.1" height="0.9"/>
								</g>
								<rect x="24.7" y="21.9" class="st6" width="1" height="3.5"/>
								<polygon class="st0" points="26.8,36.9 26,36.9 25.2,36.9 24.9,37.7 24.9,42.1 25.4,42.1 25.8,42.1 26.3,42.1 27.1,42.1 
									27.1,37.7 								"/>
								<polygon class="st27" points="27.1,37.6 26.8,36.9 26,36.9 25.2,36.9 24.9,37.6 								"/>
							</g>
						</g>
						<path class="st10" d="M28.5,19.8h-0.2c-0.1,0-0.1-0.1-0.1-0.1v-0.4c0-0.1,0.1-0.1,0.1-0.1h0.2c0.1,0,0.1,0.1,0.1,0.1v0.4
							C28.7,19.8,28.6,19.8,28.5,19.8z"/>
						<path class="st10" d="M34.1,19.8h-0.2c-0.1,0-0.1-0.1-0.1-0.1v-0.4c0-0.1,0.1-0.1,0.1-0.1h0.2c0.1,0,0.1,0.1,0.1,0.1v0.4
							C34.3,19.8,34.2,19.8,34.1,19.8z"/>
						<path class="st10" d="M39.8,19.8h-0.2c-0.1,0-0.1-0.1-0.1-0.1v-0.4c0-0.1,0.1-0.1,0.1-0.1h0.2c0.1,0,0.1,0.1,0.1,0.1v0.4
							C39.9,19.8,39.9,19.8,39.8,19.8z"/>
						<path class="st10" d="M45.4,19.8h-0.2c-0.1,0-0.1-0.1-0.1-0.1v-0.4c0-0.1,0.1-0.1,0.1-0.1h0.2c0.1,0,0.1,0.1,0.1,0.1v0.4
							C45.6,19.8,45.5,19.8,45.4,19.8z"/>
					</g>
					<rect x="15.1" y="27.6" class="st8" width="4.2" height="5.7"/>
					<polygon class="st34" points="15.1,27.6 15.1,28 19,28 19,33.3 19.3,33.3 19.3,27.6 					"/>
					<path class="st35" d="M18.8,33.3h-3.3v-2.9c0-0.9,0.7-1.6,1.6-1.6h0.2c0.9,0,1.6,0.7,1.6,1.6v2.9H18.8z"/>
					<path class="st36" d="M17.2,28.8c-0.6,0-1.1,0.3-1.4,0.6c0.3-0.2,0.6-0.3,1-0.3c0.9,0,1.7,0.7,1.7,1.5v2.6h0.4v-3
						C18.8,29.5,18.1,28.8,17.2,28.8z"/>
					<g>
						<rect x="15.6" y="25.5" class="st37" width="2.5" height="0.4"/>
						<rect x="15.6" y="25.6" class="st37" width="2.5" height="0.4"/>
						<rect x="15.6" y="22.3" class="st12" width="2.5" height="3.3"/>
						<rect x="15.6" y="22.3" class="st21" width="2.5" height="0.4"/>
						<g>
							<g>
								<g>
									<path class="st16" d="M15.9,26.3L15.9,26.3c-0.1,0-0.1,0-0.1-0.1v-0.3H16v0.3C16,26.3,15.9,26.3,15.9,26.3z"/>
									<path class="st12" d="M15.9,26.3L15.9,26.3c-0.1,0-0.1,0-0.1-0.1v-0.3H16v0.3C16,26.2,15.9,26.3,15.9,26.3z"/>
									<path class="st17" d="M15.9,26.2L15.9,26.2c-0.1,0-0.1,0-0.1-0.1v0.1C15.7,26.2,15.8,26.3,15.9,26.2L15.9,26.2
										c0.1,0.1,0.1,0,0.1,0v-0.1C16,26.2,15.9,26.2,15.9,26.2z"/>
									<path class="st17" d="M15.7,26C15.8,26,15.8,26,15.7,26h0.2l0,0v-0.1h-0.2V26z"/>
									<path class="st12" d="M15.9,26h-0.2c0,0-0.1,0-0.1-0.1v-0.1H16L15.9,26C16,25.9,16,26,15.9,26z"/>
									<path class="st17" d="M15.7,25.9L15.7,25.9H16l0,0v-0.1L15.7,25.9L15.7,25.9z"/>
									<path class="st12" d="M16,25.8h-0.3c-0.1,0-0.1,0-0.1-0.1v-0.1h0.5L16,25.8C16.1,25.8,16.1,25.8,16,25.8z"/>
								</g>
								<rect x="15.6" y="25.6" class="st17" width="0.5" height="0.1"/>
							</g>
							<g>
								<g>
									<path class="st16" d="M16.5,26.3L16.5,26.3c-0.1,0-0.1,0-0.1-0.1v-0.3h0.2v0.3C16.6,26.3,16.6,26.3,16.5,26.3z"/>
									<path class="st12" d="M16.5,26.3L16.5,26.3c-0.1,0-0.1,0-0.1-0.1v-0.3h0.2v0.3C16.6,26.2,16.6,26.3,16.5,26.3z"/>
									<path class="st17" d="M16.5,26.2L16.5,26.2c-0.1,0-0.1,0-0.1-0.1v0.1C16.4,26.2,16.4,26.3,16.5,26.2L16.5,26.2
										c0.1,0.1,0.1,0,0.1,0v-0.1C16.6,26.2,16.6,26.2,16.5,26.2z"/>
									<path class="st17" d="M16.4,26L16.4,26h0.2l0,0v-0.1h-0.2V26z"/>
									<path class="st12" d="M16.6,26h-0.2c0,0-0.1,0-0.1-0.1v-0.1h0.3L16.6,26C16.7,25.9,16.6,26,16.6,26z"/>
									<path class="st17" d="M16.3,25.9C16.4,25.9,16.4,25.9,16.3,25.9h0.3l0,0v-0.1L16.3,25.9L16.3,25.9z"/>
									<path class="st12" d="M16.7,25.8h-0.3c-0.1,0-0.1,0-0.1-0.1v-0.1h0.5L16.7,25.8C16.8,25.8,16.7,25.8,16.7,25.8z"/>
								</g>
								<rect x="16.3" y="25.6" class="st17" width="0.5" height="0.1"/>
							</g>
							<g>
								<g>
									<path class="st16" d="M17.2,26.3L17.2,26.3c-0.1,0-0.1,0-0.1-0.1v-0.3h0.2v0.3C17.3,26.3,17.2,26.3,17.2,26.3z"/>
									<path class="st12" d="M17.2,26.3L17.2,26.3c-0.1,0-0.1,0-0.1-0.1v-0.3h0.2v0.3C17.3,26.2,17.2,26.3,17.2,26.3z"/>
									<path class="st17" d="M17.2,26.2L17.2,26.2c-0.1,0-0.1,0-0.1-0.1v0.1C17.1,26.2,17.1,26.3,17.2,26.2L17.2,26.2
										c0.1,0.1,0.1,0,0.1,0v-0.1C17.3,26.2,17.2,26.2,17.2,26.2z"/>
									<path class="st17" d="M17.1,26L17.1,26h0.2l0,0v-0.1h-0.2V26z"/>
									<path class="st12" d="M17.2,26H17c0,0-0.1,0-0.1-0.1v-0.1h0.3L17.2,26C17.3,25.9,17.3,26,17.2,26z"/>
									<path class="st17" d="M17,25.9L17,25.9h0.3l0,0v-0.1L17,25.9L17,25.9z"/>
									<path class="st12" d="M17.3,25.8H17c-0.1,0-0.1,0-0.1-0.1v-0.1h0.5L17.3,25.8C17.4,25.8,17.4,25.8,17.3,25.8z"/>
								</g>
								<rect x="16.9" y="25.6" class="st17" width="0.5" height="0.1"/>
							</g>
							<g>
								<g>
									<path class="st16" d="M17.8,26.3L17.8,26.3c-0.1,0-0.1,0-0.1-0.1v-0.3h0.2v0.3C17.9,26.3,17.9,26.3,17.8,26.3z"/>
									<path class="st12" d="M17.8,26.3L17.8,26.3c-0.1,0-0.1,0-0.1-0.1v-0.3h0.2v0.3C17.9,26.2,17.9,26.3,17.8,26.3z"/>
									<path class="st17" d="M17.8,26.2L17.8,26.2c-0.1,0-0.1,0-0.1-0.1v0.1C17.7,26.2,17.8,26.3,17.8,26.2L17.8,26.2
										c0.1,0.1,0.1,0,0.1,0v-0.1C17.9,26.2,17.9,26.2,17.8,26.2z"/>
									<path class="st17" d="M17.7,26L17.7,26h0.2l0,0v-0.1h-0.2V26z"/>
									<path class="st12" d="M17.9,26h-0.2c0,0-0.1,0-0.1-0.1v-0.1H18L17.9,26C18,25.9,18,26,17.9,26z"/>
									<path class="st17" d="M17.7,25.9L17.7,25.9H18l0,0v-0.1L17.7,25.9L17.7,25.9z"/>
									<path class="st12" d="M18,25.8h-0.3c-0.1,0-0.1,0-0.1-0.1v-0.1h0.5L18,25.8C18.1,25.8,18,25.8,18,25.8z"/>
								</g>
								<rect x="17.6" y="25.6" class="st17" width="0.5" height="0.1"/>
							</g>
						</g>
						<path class="st2" d="M17.7,21.1h-0.6h-0.5H16c0,0.1-0.8,1.5-0.8,1.5h1.3H17h1.3C18.4,22.6,17.6,21.2,17.7,21.1z"/>
						<g>
							<rect x="16.3" y="23.1" class="st18" width="1.1" height="1.6"/>
							<rect x="16.4" y="23.1" class="st19" width="1" height="1.6"/>
							<rect x="16.4" y="23.2" class="st20" width="0.8" height="1.4"/>
							<polygon class="st9" points="16.4,23.2 16.4,23.3 17.2,23.3 17.2,24.6 17.3,24.6 17.3,23.2 							"/>
							<rect x="16.4" y="23.6" class="st0" width="0.8" height="0.1"/>
							<rect x="16.8" y="23.2" class="st0" width="0.1" height="1.4"/>
						</g>
					</g>
					<rect x="12.6" y="32.5" class="st8" width="8.7" height="1.3"/>
					<rect x="13.1" y="33.7" class="st28" width="5.8" height="8.4"/>
					<rect x="14.1" y="33.7" class="st0" width="5.8" height="8.4"/>
					<rect x="14.1" y="33.7" class="st6" width="5.8" height="1.5"/>
					<rect x="13.7" y="19.2" class="st8" width="0.9" height="1.4"/>
					<rect x="19.5" y="19.2" class="st8" width="0.9" height="1.4"/>
				</g>
			</g>
			<rect x="8.4" y="25.6" class="st35" width="0.7" height="1.7"/>
			<rect x="5.1" y="24.3" class="st3" width="7.5" height="0.3"/>
		</g>
		<rect x="0.4" y="22.7" class="st0" width="7" height="19.4"/>
		<rect x="0.4" y="22.7" class="st38" width="7" height="0.5"/>
		<rect y="20.9" class="st12" width="7.7" height="1.8"/>
		<g>
			<g>
				<g>
					<g>
						<path class="st16" d="M0.7,23.6L0.7,23.6c-0.1,0-0.2-0.1-0.2-0.1V23h0.3v0.5C0.8,23.5,0.8,23.6,0.7,23.6z"/>
						<path class="st12" d="M0.7,23.5L0.7,23.5c-0.1,0-0.2-0.1-0.2-0.1v-0.5h0.3v0.5C0.8,23.4,0.8,23.5,0.7,23.5z"/>
						<path class="st17" d="M0.7,23.4L0.7,23.4c-0.1,0-0.2-0.1-0.2-0.1v0.1C0.5,23.4,0.6,23.5,0.7,23.4L0.7,23.4
							c0.1,0.1,0.1,0,0.1-0.1v-0.1C0.8,23.4,0.8,23.4,0.7,23.4z"/>
						<path class="st17" d="M0.5,23.1L0.5,23.1h0.3c0,0,0,0,0.1,0v-0.2H0.5V23.1z"/>
						<path class="st12" d="M0.8,23.1H0.6c-0.1,0-0.1-0.1-0.1-0.1v-0.2H1V23C0.9,23,0.9,23.1,0.8,23.1z"/>
						<path class="st17" d="M0.4,22.9C0.5,22.9,0.5,22.9,0.4,22.9h0.4l0,0v-0.1H0.4V22.9z"/>
						<path class="st12" d="M0.9,22.9H0.5c-0.1,0-0.1-0.1-0.1-0.1v-0.1H1v0.1C1,22.8,1,22.9,0.9,22.9z"/>
					</g>
					<rect x="0.3" y="22.6" class="st17" width="0.7" height="0.1"/>
				</g>
				<g>
					<g>
						<path class="st16" d="M1.6,23.6L1.6,23.6c-0.1,0-0.2-0.1-0.2-0.1V23h0.3v0.5C1.8,23.5,1.7,23.6,1.6,23.6z"/>
						<path class="st12" d="M1.6,23.5L1.6,23.5c-0.1,0-0.2-0.1-0.2-0.1v-0.5h0.3v0.5C1.8,23.4,1.7,23.5,1.6,23.5z"/>
						<path class="st17" d="M1.6,23.4L1.6,23.4c-0.1,0-0.2-0.1-0.2-0.1v0.1C1.5,23.4,1.5,23.5,1.6,23.4L1.6,23.4
							c0.1,0.1,0.1,0,0.1-0.1v-0.1C1.8,23.4,1.7,23.4,1.6,23.4z"/>
						<path class="st17" d="M1.5,23.1L1.5,23.1h0.3c0,0,0,0,0.1,0v-0.2H1.5V23.1z"/>
						<path class="st12" d="M1.7,23.1H1.5c-0.1,0-0.1-0.1-0.1-0.1v-0.2h0.5V23C1.9,23,1.8,23.1,1.7,23.1z"/>
						<path class="st17" d="M1.4,22.9L1.4,22.9h0.4l0,0v-0.1H1.4V22.9z"/>
						<path class="st12" d="M1.8,22.9H1.4c-0.1,0-0.1-0.1-0.1-0.1v-0.1H2v0.1C2,22.8,1.9,22.9,1.8,22.9z"/>
					</g>
					<rect x="1.3" y="22.6" class="st17" width="0.7" height="0.1"/>
				</g>
				<g>
					<g>
						<path class="st16" d="M2.6,23.6L2.6,23.6c-0.1,0-0.2-0.1-0.2-0.1V23h0.3v0.5C2.7,23.5,2.7,23.6,2.6,23.6z"/>
						<path class="st12" d="M2.6,23.5L2.6,23.5c-0.1,0-0.2-0.1-0.2-0.1v-0.5h0.3v0.5C2.7,23.4,2.7,23.5,2.6,23.5z"/>
						<path class="st17" d="M2.6,23.4L2.6,23.4c-0.1,0-0.2-0.1-0.2-0.1v0.1C2.4,23.4,2.5,23.5,2.6,23.4L2.6,23.4
							c0.1,0.1,0.1,0,0.1-0.1v-0.1C2.7,23.4,2.7,23.4,2.6,23.4z"/>
						<path class="st17" d="M2.4,23.1L2.4,23.1h0.3c0,0,0,0,0.1,0v-0.2H2.4V23.1z"/>
						<path class="st12" d="M2.7,23.1H2.4c-0.1,0-0.1-0.1-0.1-0.1v-0.2h0.5V23C2.8,23,2.7,23.1,2.7,23.1z"/>
						<path class="st17" d="M2.3,22.9L2.3,22.9h0.4l0,0v-0.1H2.3V22.9z"/>
						<path class="st12" d="M2.8,22.9H2.4c-0.1,0-0.1-0.1-0.1-0.1v-0.1H3v0.1C2.9,22.8,2.8,22.9,2.8,22.9z"/>
					</g>
					<rect x="2.2" y="22.6" class="st17" width="0.7" height="0.1"/>
				</g>
				<g>
					<g>
						<path class="st16" d="M3.5,23.6L3.5,23.6c-0.1,0-0.2-0.1-0.2-0.1V23h0.3v0.5C3.7,23.5,3.6,23.6,3.5,23.6z"/>
						<path class="st12" d="M3.5,23.5L3.5,23.5c-0.1,0-0.2-0.1-0.2-0.1v-0.5h0.3v0.5C3.7,23.4,3.6,23.5,3.5,23.5z"/>
						<path class="st17" d="M3.5,23.4L3.5,23.4c-0.1,0-0.2-0.1-0.2-0.1v0.1C3.3,23.4,3.4,23.5,3.5,23.4L3.5,23.4
							c0.1,0.1,0.1,0,0.1-0.1v-0.1C3.7,23.4,3.6,23.4,3.5,23.4z"/>
						<path class="st17" d="M3.3,23.1C3.3,23.1,3.4,23.1,3.3,23.1h0.3c0,0,0,0,0.1,0v-0.2H3.3V23.1z"/>
						<path class="st12" d="M3.6,23.1H3.4c-0.1,0-0.1-0.1-0.1-0.1v-0.2h0.5V23C3.7,23,3.7,23.1,3.6,23.1z"/>
						<path class="st17" d="M3.3,22.9L3.3,22.9h0.4l0,0v-0.1H3.3V22.9z"/>
						<path class="st12" d="M3.7,22.9H3.3c-0.1,0-0.1-0.1-0.1-0.1v-0.1h0.7v0.1C3.8,22.8,3.8,22.9,3.7,22.9z"/>
					</g>
					<rect x="3.1" y="22.6" class="st17" width="0.7" height="0.1"/>
				</g>
			</g>
			<g>
				<g>
					<g>
						<path class="st16" d="M4.4,23.6L4.4,23.6c-0.1,0-0.2-0.1-0.2-0.1V23h0.3v0.5C4.5,23.5,4.4,23.6,4.4,23.6z"/>
						<path class="st12" d="M4.4,23.5L4.4,23.5c-0.1,0-0.2-0.1-0.2-0.1v-0.5h0.3v0.5C4.5,23.4,4.4,23.5,4.4,23.5z"/>
						<path class="st17" d="M4.4,23.4L4.4,23.4c-0.1,0-0.2-0.1-0.2-0.1v0.1C4.2,23.4,4.2,23.5,4.4,23.4L4.4,23.4
							c0.1,0.1,0.1,0,0.1-0.1v-0.1C4.5,23.4,4.4,23.4,4.4,23.4z"/>
						<path class="st17" d="M4.2,23.1L4.2,23.1h0.3c0,0,0,0,0.1,0v-0.2H4.2V23.1z"/>
						<path class="st12" d="M4.5,23.1H4.2c-0.1,0-0.1-0.1-0.1-0.1v-0.2h0.5V23L4.5,23.1z"/>
						<path class="st17" d="M4.1,22.9L4.1,22.9h0.4l0,0v-0.1H4.1V22.9z"/>
						<path class="st12" d="M4.5,22.9H4.1C4,22.9,4,22.8,4,22.8v-0.1h0.7v0.1C4.7,22.8,4.6,22.9,4.5,22.9z"/>
					</g>
					<rect x="4" y="22.6" class="st17" width="0.7" height="0.1"/>
				</g>
				<g>
					<g>
						<path class="st16" d="M5.3,23.6L5.3,23.6c-0.1,0-0.2-0.1-0.2-0.1V23h0.3v0.5C5.4,23.5,5.4,23.6,5.3,23.6z"/>
						<path class="st12" d="M5.3,23.5L5.3,23.5c-0.1,0-0.2-0.1-0.2-0.1v-0.5h0.3v0.5C5.4,23.4,5.4,23.5,5.3,23.5z"/>
						<path class="st17" d="M5.3,23.4L5.3,23.4c-0.1,0-0.2-0.1-0.2-0.1v0.1C5.1,23.4,5.2,23.5,5.3,23.4L5.3,23.4
							c0.1,0.1,0.1,0,0.1-0.1v-0.1C5.4,23.4,5.4,23.4,5.3,23.4z"/>
						<path class="st17" d="M5.1,23.1L5.1,23.1h0.3c0,0,0,0,0.1,0v-0.2H5.1V23.1z"/>
						<path class="st12" d="M5.4,23.1H5.2C5.1,23.1,5,23,5,22.9v-0.2h0.5v0.2C5.5,23,5.5,23.1,5.4,23.1z"/>
						<path class="st17" d="M5,22.9C5.1,22.9,5.1,22.9,5,22.9h0.4l0,0v-0.1H5V22.9z"/>
						<path class="st12" d="M5.5,22.9H5.1C5,22.9,5,22.8,5,22.8v-0.1h0.7v0.1C5.6,22.8,5.6,22.9,5.5,22.9z"/>
					</g>
					<rect x="4.9" y="22.6" class="st17" width="0.7" height="0.1"/>
				</g>
				<g>
					<g>
						<path class="st16" d="M6.2,23.6L6.2,23.6c-0.1,0-0.2-0.1-0.2-0.1V23h0.3v0.5C6.4,23.5,6.3,23.6,6.2,23.6z"/>
						<path class="st12" d="M6.2,23.5L6.2,23.5c-0.1,0-0.2-0.1-0.2-0.1v-0.5h0.3v0.5C6.4,23.4,6.3,23.5,6.2,23.5z"/>
						<path class="st17" d="M6.2,23.4L6.2,23.4c-0.1,0-0.2-0.1-0.2-0.1v0.1C6,23.4,6.1,23.5,6.2,23.4L6.2,23.4
							c0.1,0.1,0.1,0,0.1-0.1v-0.1C6.4,23.4,6.3,23.4,6.2,23.4z"/>
						<path class="st17" d="M6,23.1C6.1,23.1,6.1,23.1,6,23.1h0.3c0,0,0,0,0.1,0v-0.2H6V23.1z"/>
						<path class="st12" d="M6.3,23.1H6.1C6,23.1,6,23,6,22.9v-0.2h0.5v0.2C6.4,23,6.4,23.1,6.3,23.1z"/>
						<path class="st17" d="M6,22.9L6,22.9h0.4l0,0v-0.1H6V22.9z"/>
						<path class="st12" d="M6.4,22.9H6c-0.1,0-0.1-0.1-0.1-0.1v-0.1h0.7v0.1C6.6,22.8,6.5,22.9,6.4,22.9z"/>
					</g>
					<rect x="5.9" y="22.6" class="st17" width="0.7" height="0.1"/>
				</g>
				<g>
					<g>
						<path class="st16" d="M7.2,23.6L7.2,23.6C7,23.6,7,23.5,7,23.4V23h0.3v0.5C7.3,23.5,7.3,23.6,7.2,23.6z"/>
						<path class="st12" d="M7.2,23.5L7.2,23.5C7,23.5,7,23.4,7,23.4v-0.5h0.3v0.5C7.3,23.4,7.3,23.5,7.2,23.5z"/>
						<path class="st17" d="M7.2,23.4L7.2,23.4c-0.2,0-0.2,0-0.2-0.1v0.1C7,23.4,7,23.5,7.2,23.4L7.2,23.4c0.1,0.1,0.1,0,0.1-0.1
							v-0.1C7.3,23.4,7.2,23.4,7.2,23.4z"/>
						<path class="st17" d="M7,23.1L7,23.1h0.3c0,0,0,0,0.1,0v-0.2H7V23.1z"/>
						<path class="st12" d="M7.3,23.1H7c-0.1,0-0.1-0.1-0.1-0.1v-0.2h0.5V23L7.3,23.1z"/>
						<path class="st17" d="M6.9,22.9L6.9,22.9h0.4l0,0v-0.1H6.9V22.9z"/>
						<path class="st12" d="M7.4,22.9H6.9c-0.1,0-0.1-0.1-0.1-0.1v-0.1h0.7v0.1L7.4,22.9z"/>
					</g>
					<rect x="6.8" y="22.6" class="st17" width="0.7" height="0.1"/>
				</g>
			</g>
		</g>
		<rect x="3.4" y="24.8" class="st3" width="0.5" height="1.4"/>
	</g>
</g>
</svg>
