<?xml version="1.0" encoding="utf-8"?>
<!-- Generator: Adobe Illustrator 27.1.1, SVG Export Plug-In . SVG Version: 6.00 Build 0)  -->
<svg version="1.1" id="Layer_1" xmlns="http://www.w3.org/2000/svg" xmlns:xlink="http://www.w3.org/1999/xlink" x="0px" y="0px"
	 viewBox="0 0 33.6 30.6" style="enable-background:new 0 0 33.6 30.6;" xml:space="preserve">
<style type="text/css">
	.st0{fill:#FFE7B3;}
	.st1{fill:#DBAF8B;}
	.st2{fill:#997877;}
	.st3{opacity:0.3;fill:#AD6464;}
	.st4{fill:#C59999;}
	.st5{opacity:0.3;fill:#A92224;}
	.st6{fill:#AD6464;}
	.st7{fill:#FFF3D7;}
	.st8{fill:#FFE1B0;}
	.st9{fill:#FFE9BA;}
	.st10{opacity:0.2;fill:#C16328;}
	.st11{fill:#3B2F2F;}
	.st12{fill:#FED1A3;}
	.st13{opacity:0.2;fill:#581818;}
	.st14{fill:#596364;}
	.st15{opacity:0.1;fill:#F59193;}
	.st16{opacity:0.2;fill:#A92224;}
	.st17{opacity:0.1;fill:#AD6464;}
	.st18{opacity:0.3;fill:#945656;}
	.st19{fill:#945656;}
	.st20{fill:#FFDF99;}
	.st21{fill:#C48E64;}
	.st22{fill:#EA7B52;}
	.st23{opacity:0.2;fill:#AF2F2F;}
	.st24{fill:#FFEEC5;}
	.st25{opacity:0.3;fill:#F79774;}
	.st26{opacity:0.5;fill:#F79774;}
	.st27{opacity:0.3;fill:#FBC8B6;}
	.st28{opacity:0.4;fill:#AD6464;}
	.st29{fill:#FFEABD;}
	.st30{opacity:0.2;fill:#FFDF99;}
	.st31{opacity:0.5;fill:#543131;}
	.st32{fill:#543131;}
	.st33{opacity:0.5;fill:#AD6464;}
	.st34{opacity:0.4;fill:#231212;}
	.st35{opacity:0.3;fill:#581818;}
	.st36{fill:#333939;}
</style>
<g>
	<g>
		<g>
			<polygon class="st0" points="33.6,15.5 33.2,16 18.7,16 20.1,15.5 			"/>
			<polygon class="st1" points="33.6,15.5 33.2,16 18.7,16 20.1,15.5 			"/>
			<rect x="14" y="16" class="st0" width="19.2" height="14.6"/>
			<rect x="14" y="26.1" class="st2" width="19.2" height="4.5"/>
			<rect x="14" y="26.4" class="st3" width="19.2" height="0.1"/>
			<rect x="14" y="26.1" class="st4" width="19.2" height="0.3"/>
			<polygon class="st5" points="19.6,15.7 33.5,15.7 33.6,15.5 20.1,15.5 			"/>
			<polygon class="st6" points="31.4,5.5 14.4,5.5 14.4,15.5 33.6,15.5 			"/>
		</g>
		<g>
			<path class="st7" d="M22.8,18.5c-0.2-0.2-0.6-0.2-0.9,0c-0.3,0.3-0.6,0.7-0.6,0.9v5.2h2v-5.2C23.3,19.1,23,18.8,22.8,18.5z"/>
			<path class="st8" d="M22.7,18.6c-0.2-0.2-0.6-0.2-0.8,0c-0.2,0.3-0.5,0.6-0.5,0.9v5.1h1.8v-5.1C23.2,19.2,23,18.8,22.7,18.6z"/>
			<path class="st9" d="M22.7,18.6c-0.2-0.2-0.5-0.2-0.7,0c-0.2,0.3-0.5,0.6-0.5,0.9v5h1.7v-5C23.2,19.3,22.9,18.9,22.7,18.6z"/>
			<path class="st10" d="M22.7,18.6c-0.2-0.2-0.5-0.2-0.7,0c-0.1,0.1-0.2,0.3-0.3,0.5c0.1-0.1,0.2-0.2,0.2-0.3
				c0.2-0.2,0.5-0.2,0.7,0c0.2,0.3,0.5,0.6,0.5,0.9v4.9h0.1v-5C23.2,19.3,22.9,18.9,22.7,18.6z"/>
			<path class="st11" d="M23,19.8v4.4h-1.3v-4.4c0-0.2,0.2-0.5,0.3-0.7c0,0,0,0,0,0c0,0,0,0,0.1-0.1c0.1-0.1,0.3-0.1,0.5,0
				c0,0,0,0,0.1,0.1c0,0,0,0,0,0C22.8,19.4,23,19.6,23,19.8z"/>
			<polygon class="st12" points="21.7,24.3 21.4,24.6 23.2,24.6 23,24.3 			"/>
			<g>
				<path class="st12" d="M22.1,19v5.2H22L22.1,19C22,19.1,22,19.1,22.1,19C22.1,19.1,22.1,19.1,22.1,19z"/>
				<path class="st12" d="M22.7,19.1v5.1h-0.1L22.7,19.1C22.6,19.1,22.6,19.1,22.7,19.1C22.6,19.1,22.7,19.1,22.7,19.1z"/>
			</g>
		</g>
		<g>
			<path class="st7" d="M26.6,18.5c-0.2-0.2-0.6-0.2-0.9,0c-0.3,0.3-0.6,0.7-0.6,0.9v5.2h2v-5.2C27.2,19.1,26.9,18.8,26.6,18.5z"/>
			<path class="st8" d="M26.6,18.6c-0.2-0.2-0.6-0.2-0.8,0c-0.2,0.3-0.5,0.6-0.5,0.9v5.1h1.8v-5.1C27.1,19.2,26.8,18.8,26.6,18.6z"
				/>
			<path class="st9" d="M26.5,18.6c-0.2-0.2-0.5-0.2-0.7,0c-0.2,0.3-0.5,0.6-0.5,0.9v5H27v-5C27,19.3,26.8,18.9,26.5,18.6z"/>
			<path class="st10" d="M26.5,18.6c-0.2-0.2-0.5-0.2-0.7,0c-0.1,0.1-0.2,0.3-0.3,0.5c0.1-0.1,0.2-0.2,0.2-0.3
				c0.2-0.2,0.5-0.2,0.7,0c0.2,0.3,0.5,0.6,0.5,0.9v4.9H27v-5C27,19.3,26.8,18.9,26.5,18.6z"/>
			<path class="st11" d="M26.8,19.8v4.4h-1.3v-4.4c0-0.2,0.2-0.5,0.3-0.7c0,0,0,0,0,0c0,0,0,0,0.1-0.1c0.1-0.1,0.3-0.1,0.5,0
				c0,0,0,0,0.1,0.1c0,0,0,0,0,0C26.7,19.4,26.8,19.6,26.8,19.8z"/>
			<polygon class="st12" points="25.5,24.3 25.3,24.6 27.1,24.6 26.8,24.3 			"/>
			<g>
				<path class="st12" d="M25.9,19v5.2h-0.1L25.9,19C25.8,19.1,25.9,19.1,25.9,19C25.9,19.1,25.9,19.1,25.9,19z"/>
				<path class="st12" d="M26.5,19.1v5.1h-0.1L26.5,19.1C26.4,19.1,26.4,19.1,26.5,19.1C26.5,19.1,26.5,19.1,26.5,19.1z"/>
			</g>
		</g>
		<g>
			<path class="st7" d="M30.4,18.5c-0.2-0.2-0.6-0.2-0.9,0c-0.3,0.3-0.6,0.7-0.6,0.9v5.2h2v-5.2C31,19.1,30.7,18.8,30.4,18.5z"/>
			<path class="st8" d="M30.4,18.6c-0.2-0.2-0.6-0.2-0.8,0c-0.2,0.3-0.5,0.6-0.5,0.9v5.1h1.8v-5.1C30.9,19.2,30.6,18.8,30.4,18.6z"
				/>
			<path class="st9" d="M30.4,18.6c-0.2-0.2-0.5-0.2-0.7,0c-0.2,0.3-0.5,0.6-0.5,0.9v5h1.7v-5C30.8,19.3,30.6,18.9,30.4,18.6z"/>
			<path class="st10" d="M30.4,18.6c-0.2-0.2-0.5-0.2-0.7,0c-0.1,0.1-0.2,0.3-0.3,0.5c0.1-0.1,0.2-0.2,0.2-0.3
				c0.2-0.2,0.5-0.2,0.7,0c0.2,0.3,0.5,0.6,0.5,0.9v4.9h0.1v-5C30.8,19.3,30.6,18.9,30.4,18.6z"/>
			<path class="st11" d="M30.7,19.8v4.4h-1.3v-4.4c0-0.2,0.2-0.5,0.3-0.7c0,0,0,0,0,0c0,0,0,0,0.1-0.1c0.1-0.1,0.3-0.1,0.5,0
				c0,0,0,0,0.1,0.1c0,0,0,0,0,0C30.5,19.4,30.7,19.6,30.7,19.8z"/>
			<polygon class="st12" points="29.3,24.3 29.1,24.6 30.9,24.6 30.7,24.3 			"/>
			<g>
				<path class="st12" d="M29.7,19v5.2h-0.1L29.7,19C29.7,19.1,29.7,19.1,29.7,19C29.7,19.1,29.7,19.1,29.7,19z"/>
				<path class="st12" d="M30.3,19.1v5.1h-0.1L30.3,19.1C30.2,19.1,30.3,19.1,30.3,19.1C30.3,19.1,30.3,19.1,30.3,19.1z"/>
			</g>
		</g>
		<polygon class="st13" points="24.7,18.3 24.7,18.2 24.7,18.1 23.9,16.1 23.7,16.1 23.7,15.9 23.9,15.6 24.1,15.5 21.7,5.5 
			13.8,5.5 13.8,15.5 19.4,15.5 18.1,16 13.3,16 13.3,26.1 13.3,26.4 13.3,26.5 13.3,30.6 22.7,30.6 23.4,30.6 23.7,30.6 24.7,30.6 
			24.7,18.4 		"/>
		<g>
			<g>
				<rect x="3.4" y="2.7" class="st14" width="0.1" height="1.5"/>
				<rect x="3.4" y="2.5" class="st14" width="0.1" height="1.5"/>
				<circle class="st14" cx="3.5" cy="2.9" r="0.1"/>
				<polygon class="st14" points="3.8,2.6 3.4,2.6 3.4,2.3 3.8,2.3 3.7,2.4 				"/>
			</g>
			<g>
				<rect x="17.1" y="2.7" class="st14" width="0.1" height="1.5"/>
				<rect x="17.1" y="2.5" class="st14" width="0.1" height="1.5"/>
				<path class="st14" d="M17.3,2.9C17.3,3,17.2,3,17.1,3S17,3,17,2.9c0-0.1,0.1-0.1,0.1-0.1S17.3,2.8,17.3,2.9z"/>
				<polygon class="st14" points="17.5,2.6 17.1,2.6 17.1,2.3 17.5,2.3 17.4,2.4 				"/>
			</g>
			<polygon class="st6" points="17.2,3.4 3.4,3.4 0.5,15.5 7.7,15.5 12.9,15.5 20.1,15.5 			"/>
			<polygon class="st15" points="16.9,3.6 19.7,15.5 20.1,15.5 17.2,3.4 3.4,3.4 3.4,3.6 			"/>
			<rect x="0.9" y="15.5" class="st0" width="18.9" height="15.1"/>
			<rect x="0.9" y="26.1" class="st2" width="18.9" height="4.5"/>
			<rect x="0.9" y="26.1" class="st4" width="18.9" height="0.3"/>
			<rect x="0.9" y="26.4" class="st3" width="18.9" height="0.1"/>
			<rect x="0.9" y="15.9" class="st16" width="18.9" height="0.2"/>
			<polygon class="st1" points="12,15.5 8.6,15.5 0.5,15.5 0.9,15.9 8.6,15.9 12,15.9 19.7,15.9 20.1,15.5 			"/>
			<polygon class="st16" points="8.6,15.6 12,15.6 19.9,15.6 20.1,15.5 12,15.5 8.6,15.5 0.5,15.5 0.7,15.6 			"/>
			<polygon class="st17" points="3.4,3.4 0.5,15.5 7.7,15.5 12.9,15.5 15.2,15.5 3.3,14.5 5,3.4 			"/>
			<g>
				<polygon class="st0" points="0.9,16.1 0,18.1 0,30.6 1.3,30.6 1.3,18.1 2,16.1 				"/>
				<polygon class="st6" points="1.3,18.1 0,18.1 0.9,16.1 2,16.1 				"/>
				<rect y="18.2" class="st18" width="1.3" height="0.2"/>
				<rect y="18.1" class="st19" width="1.3" height="0.2"/>
				<polygon class="st20" points="2,16.1 2,30.6 1.3,30.6 1.3,18.1 				"/>
			</g>
			<g>
				<polygon class="st0" points="19.9,16.1 20.8,18.1 20.8,30.6 19.4,30.6 19.4,18.1 18.7,16.1 				"/>
				<polygon class="st6" points="19.4,18.1 20.8,18.1 19.9,16.1 18.7,16.1 				"/>
				
					<rect x="19.4" y="18.2" transform="matrix(-1 -1.224647e-16 1.224647e-16 -1 40.1973 36.6098)" class="st18" width="1.3" height="0.2"/>
				
					<rect x="19.4" y="18.1" transform="matrix(-1 -1.224647e-16 1.224647e-16 -1 40.1973 36.4084)" class="st19" width="1.3" height="0.2"/>
				<polygon class="st20" points="18.7,16.1 18.7,30.6 19.4,30.6 19.4,18.1 				"/>
			</g>
		</g>
		<g>
			<path class="st3" d="M15.6,30.6V20.5h0.3v-1.8V18v-0.3l-1-1.9L12.3,7l-2.6,8.9l-1,1.9V18h0v0.7v1.8H9v0.3l0,0v9.8H15.6z M15.6,18
				h0.1v0.7h-0.1V18z M8.9,18.8V18H9v0.7H8.9z"/>
			<g>
				<rect x="8.2" y="17.4" class="st0" width="6.6" height="13.2"/>
				<rect x="8.2" y="27.1" class="st2" width="6.6" height="3.5"/>
				<rect x="8.2" y="17.4" class="st21" width="6.6" height="1"/>
				<polygon class="st22" points="14.1,15.2 11.5,6.4 8.9,15.2 7.9,17.1 7.9,17.4 11.5,17.4 15.1,17.4 15.1,17.1 				"/>
				<rect x="8.2" y="18.4" class="st23" width="6.6" height="1.8"/>
				<rect x="7.9" y="18.1" class="st6" width="7.2" height="1.8"/>
				<g>
					<rect x="7.9" y="17.4" class="st6" width="0.2" height="0.7"/>
					<rect x="9.3" y="17.4" class="st6" width="0.2" height="0.7"/>
					<rect x="10.7" y="17.4" class="st6" width="0.2" height="0.7"/>
					<rect x="12.1" y="17.4" class="st6" width="0.2" height="0.7"/>
					<rect x="13.5" y="17.4" class="st6" width="0.2" height="0.7"/>
					<rect x="14.9" y="17.4" class="st6" width="0.2" height="0.7"/>
				</g>
			</g>
			<g>
				<path class="st24" d="M8.9,20.9H8.4c0,0,0,0,0,0v-0.5c0,0,0,0,0,0h0.5c0,0,0,0,0,0L8.9,20.9C9,20.9,8.9,20.9,8.9,20.9z"/>
				<path class="st6" d="M8.8,20.8H8.6c0,0,0,0,0,0v-0.2c0,0,0,0,0,0h0.2c0,0,0,0,0,0L8.8,20.8C8.8,20.8,8.8,20.8,8.8,20.8z"/>
			</g>
			<g>
				<path class="st24" d="M10.3,20.9H9.8c0,0,0,0,0,0v-0.5c0,0,0,0,0,0h0.5c0,0,0,0,0,0L10.3,20.9C10.3,20.9,10.3,20.9,10.3,20.9z"
					/>
				<path class="st6" d="M10.1,20.8H9.9c0,0,0,0,0,0v-0.2c0,0,0,0,0,0h0.2c0,0,0,0,0,0L10.1,20.8C10.2,20.8,10.2,20.8,10.1,20.8z"/>
			</g>
			<g>
				<path class="st24" d="M11.6,20.9h-0.5c0,0,0,0,0,0v-0.5c0,0,0,0,0,0h0.5c0,0,0,0,0,0L11.6,20.9C11.7,20.9,11.7,20.9,11.6,20.9z"
					/>
				<path class="st6" d="M11.5,20.8h-0.2c0,0,0,0,0,0v-0.2c0,0,0,0,0,0h0.2c0,0,0,0,0,0L11.5,20.8C11.5,20.8,11.5,20.8,11.5,20.8z"
					/>
			</g>
			<g>
				<path class="st24" d="M13,20.9h-0.5c0,0,0,0,0,0v-0.5c0,0,0,0,0,0H13c0,0,0,0,0,0L13,20.9C13,20.9,13,20.9,13,20.9z"/>
				<path class="st6" d="M12.9,20.8h-0.2c0,0,0,0,0,0v-0.2c0,0,0,0,0,0h0.2c0,0,0,0,0,0L12.9,20.8C12.9,20.8,12.9,20.8,12.9,20.8z"
					/>
			</g>
			<g>
				<path class="st24" d="M14.3,20.9h-0.5c0,0,0,0,0,0v-0.5c0,0,0,0,0,0h0.5c0,0,0,0,0,0L14.3,20.9C14.4,20.9,14.4,20.9,14.3,20.9z"
					/>
				<path class="st6" d="M14.2,20.8H14c0,0,0,0,0,0v-0.2c0,0,0,0,0,0h0.2c0,0,0,0,0,0L14.2,20.8C14.2,20.8,14.2,20.8,14.2,20.8z"/>
			</g>
			<polygon class="st25" points="8.9,15.2 7.9,17.1 7.9,17.4 9.8,17.4 10.2,15.2 11.5,6.4 			"/>
			<polygon class="st26" points="7.9,17.1 7.9,17.4 11.5,17.4 15.1,17.4 15.1,17.1 15.1,17.1 7.9,17.1 			"/>
			<polygon class="st27" points="11.5,6.4 9.9,15.6 8.1,17.4 10,15.6 			"/>
		</g>
		<g>
			<path class="st7" d="M17.5,18.5c-0.2-0.2-0.6-0.2-0.9,0c-0.3,0.3-0.6,0.7-0.6,0.9v5.2h2v-5.2C18.1,19.1,17.8,18.8,17.5,18.5z"/>
			<path class="st8" d="M17.5,18.6c-0.2-0.2-0.6-0.2-0.8,0c-0.2,0.3-0.5,0.6-0.5,0.9v5.1H18v-5.1C18,19.2,17.7,18.8,17.5,18.6z"/>
			<path class="st9" d="M17.4,18.6c-0.2-0.2-0.5-0.2-0.7,0c-0.2,0.3-0.5,0.6-0.5,0.9v5h1.7v-5C17.9,19.3,17.7,18.9,17.4,18.6z"/>
			<path class="st10" d="M17.4,18.6c-0.2-0.2-0.5-0.2-0.7,0c-0.1,0.1-0.2,0.3-0.3,0.5c0.1-0.1,0.2-0.2,0.2-0.3
				c0.2-0.2,0.5-0.2,0.7,0c0.2,0.3,0.5,0.6,0.5,0.9v4.9h0.1v-5C17.9,19.3,17.7,18.9,17.4,18.6z"/>
			<path class="st11" d="M17.7,19.8v4.4h-1.3v-4.4c0-0.2,0.2-0.5,0.3-0.7c0,0,0,0,0,0c0,0,0,0,0.1-0.1c0.1-0.1,0.3-0.1,0.5,0
				c0,0,0,0,0.1,0.1c0,0,0,0,0,0C17.6,19.4,17.7,19.6,17.7,19.8z"/>
			<polygon class="st12" points="16.4,24.3 16.2,24.6 18,24.6 17.7,24.3 			"/>
			<g>
				<path class="st12" d="M16.8,19v5.2h-0.1L16.8,19C16.8,19.1,16.8,19.1,16.8,19C16.8,19.1,16.8,19.1,16.8,19z"/>
				<path class="st12" d="M17.4,19.1v5.1h-0.1L17.4,19.1C17.3,19.1,17.4,19.1,17.4,19.1C17.4,19.1,17.4,19.1,17.4,19.1z"/>
			</g>
		</g>
		<g>
			<path class="st7" d="M6.3,18.5c-0.2-0.2-0.6-0.2-0.9,0c-0.3,0.3-0.6,0.7-0.6,0.9v5.2h2v-5.2C6.9,19.1,6.6,18.8,6.3,18.5z"/>
			<path class="st8" d="M6.3,18.6c-0.2-0.2-0.6-0.2-0.8,0C5.2,18.8,5,19.2,5,19.5v5.1h1.8v-5.1C6.7,19.2,6.5,18.8,6.3,18.6z"/>
			<path class="st9" d="M6.2,18.6c-0.2-0.2-0.5-0.2-0.7,0C5.3,18.9,5,19.3,5,19.5v5h1.7v-5C6.7,19.3,6.4,18.9,6.2,18.6z"/>
			<path class="st10" d="M6.2,18.6c-0.2-0.2-0.5-0.2-0.7,0c-0.1,0.1-0.2,0.3-0.3,0.5c0.1-0.1,0.2-0.2,0.2-0.3c0.2-0.2,0.5-0.2,0.7,0
				c0.2,0.3,0.5,0.6,0.5,0.9v4.9h0.1v-5C6.7,19.3,6.4,18.9,6.2,18.6z"/>
			<path class="st11" d="M6.5,19.8v4.4H5.2v-4.4c0-0.2,0.2-0.5,0.3-0.7c0,0,0,0,0,0c0,0,0,0,0.1-0.1c0.1-0.1,0.3-0.1,0.5,0
				c0,0,0,0,0.1,0.1c0,0,0,0,0,0C6.4,19.4,6.5,19.6,6.5,19.8z"/>
			<polygon class="st12" points="5.2,24.3 5,24.6 6.7,24.6 6.5,24.3 			"/>
			<g>
				<path class="st12" d="M5.6,19v5.2H5.5L5.6,19C5.5,19.1,5.6,19.1,5.6,19C5.6,19.1,5.6,19.1,5.6,19z"/>
				<path class="st12" d="M6.2,19.1v5.1H6.1L6.2,19.1C6.1,19.1,6.1,19.1,6.2,19.1C6.2,19.1,6.2,19.1,6.2,19.1z"/>
			</g>
		</g>
		<path class="st28" d="M3.2,15.5v0.2v14.9h0.1h2.3V15.7v-0.2v-1.2v-0.2h0.2l-0.3-0.5c-0.2-0.3-0.3-0.5-0.4-0.9L4.4,9.6l-0.7,3.3
			c-0.1,0.3-0.2,0.6-0.4,0.9L3,14.2h0.2v0.2V15.5z"/>
		<g>
			<rect x="2.6" y="14.9" class="st0" width="2.4" height="15.7"/>
			<rect x="2.6" y="14.9" class="st29" width="0.8" height="15.7"/>
			<rect x="4.2" y="14.9" class="st30" width="0.8" height="15.7"/>
			<rect x="2.6" y="13.5" class="st6" width="2.4" height="1.6"/>
			<rect x="2.6" y="13.5" class="st31" width="2.4" height="0.3"/>
			<path class="st6" d="M4.8,13.1c-0.2-0.3-0.3-0.5-0.4-0.9L3.8,8.9l-0.7,3.3c-0.1,0.3-0.2,0.6-0.4,0.9l-0.3,0.5h1.4h1.4L4.8,13.1z"
				/>
			<g>
				
					<rect x="2.7" y="13.7" transform="matrix(-1 -1.224647e-16 1.224647e-16 -1 5.875 28.1538)" class="st32" width="0.5" height="0.7"/>
				
					<rect x="3.3" y="13.7" transform="matrix(-1 -1.224647e-16 1.224647e-16 -1 7.0302 28.1538)" class="st32" width="0.5" height="0.7"/>
				
					<rect x="3.9" y="13.7" transform="matrix(-1 -1.224647e-16 1.224647e-16 -1 8.1854 28.1538)" class="st32" width="0.5" height="0.7"/>
				
					<rect x="4.4" y="13.7" transform="matrix(-1 -1.224647e-16 1.224647e-16 -1 9.3406 28.1538)" class="st32" width="0.5" height="0.7"/>
			</g>
		</g>
		<path class="st33" d="M4,17.7H3.6V17c0-0.1,0.1-0.2,0.2-0.2h0C3.9,16.8,4,16.9,4,17V17.7z"/>
		<path class="st33" d="M4,21.9H3.6v-0.8c0-0.1,0.1-0.2,0.2-0.2h0C3.9,20.9,4,21,4,21.2V21.9z"/>
		<path class="st33" d="M4,26.1H3.6v-0.8c0-0.1,0.1-0.2,0.2-0.2h0c0.1,0,0.2,0.1,0.2,0.2V26.1z"/>
		<g>
			<path class="st3" d="M10,26.5H9.7c-0.1,0-0.2,0.1-0.2,0.2v0.8v3h0.7v-3v-0.8C10.2,26.6,10.1,26.5,10,26.5z"/>
			<g>
				<path class="st2" d="M10,30.6H9.3v-3.8c0-0.1,0.1-0.2,0.2-0.2h0.2c0.1,0,0.2,0.1,0.2,0.2V30.6z"/>
				<path class="st4" d="M9.8,26.5H9.5c-0.1,0-0.2,0.1-0.2,0.2v0.8H10v-0.8C10,26.6,9.9,26.5,9.8,26.5z"/>
			</g>
		</g>
		<g>
			<path class="st3" d="M14,26.5h-0.2c-0.1,0-0.2,0.1-0.2,0.2v0.8v3h0.7v-3v-0.8C14.3,26.6,14.2,26.5,14,26.5z"/>
			<g>
				<path class="st2" d="M14.1,30.6h-0.7v-3.8c0-0.1,0.1-0.2,0.2-0.2h0.2c0.1,0,0.2,0.1,0.2,0.2V30.6z"/>
				<path class="st4" d="M13.8,26.5h-0.2c-0.1,0-0.2,0.1-0.2,0.2v0.8h0.7v-0.8C14.1,26.6,14,26.5,13.8,26.5z"/>
			</g>
		</g>
		<polygon class="st2" points="18.7,26.1 18.7,30.6 19.4,30.6 20.8,30.6 20.8,26.1 		"/>
		<polygon class="st4" points="18.7,26.1 18.7,26.4 19.4,26.4 20.8,26.4 20.8,26.1 		"/>
		<polygon class="st3" points="18.7,26.6 18.7,26.4 19.4,26.4 20.8,26.4 20.8,26.6 		"/>
		<polygon class="st3" points="18.7,26.1 18.7,30.6 19,30.6 19.4,30.6 19.4,26.1 		"/>
		<polygon class="st2" points="0,26.1 0,30.6 0.7,30.6 2,30.6 2,26.1 		"/>
		<polygon class="st4" points="0,26.1 0,26.4 0.7,26.4 2,26.4 2,26.1 		"/>
		<polygon class="st3" points="0,26.5 0,26.4 0.7,26.4 2,26.4 2,26.5 		"/>
		<path class="st4" d="M0.7,26.4H2H0.7z"/>
		<polygon class="st3" points="1.3,26.1 1.3,30.6 1.6,30.6 2,30.6 2,26.1 		"/>
		<path class="st34" d="M32.6,30.2h-2.8v-2c0-0.7,1.4-1.3,1.4-1.3l0,0c0,0,1.4,0.6,1.4,1.3V30.2z"/>
		<path class="st34" d="M28.8,30.2H26v-2c0-0.7,1.4-1.3,1.4-1.3l0,0c0,0,1.4,0.6,1.4,1.3V30.2z"/>
		<path class="st34" d="M24.9,30.2h-2.8v-2c0-0.7,1.4-1.3,1.4-1.3l0,0c0,0,1.4,0.6,1.4,1.3V30.2z"/>
	</g>
	<g>
		<g>
			<path class="st35" d="M20.3,6.9C20.3,6.9,20.4,6.9,20.3,6.9C20.4,6.9,20.4,6.9,20.3,6.9C20.4,6.9,20.4,6.9,20.3,6.9
				c0.1,0,0.1,0,0.1,0c0.3-0.2,0.7-1.2,0.7-1.2V5.5h-1.4v0.3C19.7,5.8,20,6.8,20.3,6.9z"/>
			<path class="st14" d="M20.2,5h-0.3h-0.6v0.7c0,0,0.3,1,0.7,1.2c0,0,0,0,0.1,0c0,0,0,0,0,0c0,0,0,0,0,0c0,0,0,0,0.1,0
				c0.3-0.2,0.7-1.2,0.7-1.2V5H20.2z"/>
			<rect x="19.4" y="4.7" class="st36" width="1.4" height="0.2"/>
			<rect x="19.4" y="4.8" class="st14" width="0.2" height="0.2"/>
			<rect x="19.8" y="4.8" class="st14" width="0.2" height="0.2"/>
			<rect x="20.2" y="4.8" class="st14" width="0.2" height="0.2"/>
			<rect x="20.6" y="4.8" class="st14" width="0.2" height="0.2"/>
		</g>
		<polygon class="st14" points="20.7,3.9 20.1,0 19.5,3.9 19.2,4.5 19.2,4.7 20.1,4.7 21,4.7 21,4.5 		"/>
	</g>
</g>
</svg>
