<?xml version="1.0" encoding="iso-8859-1"?>
<!-- Generator: Adobe Illustrator 19.0.0, SVG Export Plug-In . SVG Version: 6.00 Build 0)  -->
<svg version="1.1" id="Layer_1" xmlns="http://www.w3.org/2000/svg" xmlns:xlink="http://www.w3.org/1999/xlink" x="0px" y="0px"
	 viewBox="0 0 330 330" style="enable-background:new 0 0 330 330;" xml:space="preserve">
<path id="XMLID_71_" d="M315,0H15C6.716,0,0,6.716,0,15v300c0,8.284,6.716,15,15,15h300c8.284,0,15-6.716,15-15V15
	C330,6.716,323.284,0,315,0z M239.246,218.033c5.858,5.858,5.858,15.355,0,21.213c-2.929,2.929-6.768,4.394-10.606,4.394
	c-3.839,0-7.678-1.464-10.606-4.394L165,186.213l-53.033,53.033c-2.929,2.929-6.768,4.394-10.606,4.394
	c-3.839,0-7.678-1.464-10.606-4.394c-5.858-5.858-5.858-15.355,0-21.213L143.787,165l-53.033-53.033
	c-5.858-5.858-5.858-15.355,0-21.213c5.857-5.858,15.355-5.858,21.213,0L165,143.787l53.033-53.033
	c5.857-5.858,15.355-5.858,21.213,0c5.858,5.858,5.858,15.355,0,21.213L186.213,165L239.246,218.033z"/>
<g>
</g>
<g>
</g>
<g>
</g>
<g>
</g>
<g>
</g>
<g>
</g>
<g>
</g>
<g>
</g>
<g>
</g>
<g>
</g>
<g>
</g>
<g>
</g>
<g>
</g>
<g>
</g>
<g>
</g>
</svg>
