<?xml version="1.0" encoding="utf-8"?>
<!-- Generator: Adobe Illustrator 27.1.1, SVG Export Plug-In . SVG Version: 6.00 Build 0)  -->
<svg version="1.1" id="Layer_1" xmlns="http://www.w3.org/2000/svg" xmlns:xlink="http://www.w3.org/1999/xlink" x="0px" y="0px"
	 viewBox="0 0 96.8 187.2" style="enable-background:new 0 0 96.8 187.2;" xml:space="preserve">
<style type="text/css">
	.st0{fill:#41485C;}
	.st1{fill:#E0AE81;}
	.st2{fill:#663759;}
	.st3{fill:#B9CCD6;}
	.st4{fill:#FFFFFF;}
	.st5{fill:#D58482;}
	.st6{fill:#F2DECD;}
	.st7{fill:#5D6485;}
	.st8{fill:#EEBB8B;}
</style>
<g>
	<g>
		<g>
			<path class="st0" d="M32,177.3c-1.4-0.6-3.2-0.2-4.6-0.1c-1.3,0.1-2.8,0.1-4,0.5c0-0.1,0-0.2,0-0.3c0-0.2-0.3-0.2-0.3,0
				c-0.5,4.2,3.1,7.5,6.6,9.1c2.4,1.1,8,1.6,8.5-2.1C38.4,181.3,34.3,178.3,32,177.3z"/>
			<path class="st0" d="M45.9,173.1c-1.4-3.4-5.9-2.3-8.9-2.2c0.1-0.2,0.3-0.4,0.1-0.5c0-0.1,0.2-0.1,0.2,0c0,0,0,0,0,0
				c-2,0-0.5,0-0.5,0.1c-0.4,0.3-0.6,0.4-0.7,0.8c0,0.1-0.1,0.2,0,0.3c-0.7,2.2-0.2,4.7,1.1,6.6c1.4,2.1,4.6,4.4,7.2,2.6
				C46.6,179,47,175.6,45.9,173.1z"/>
		</g>
		<path class="st1" d="M48.8,139.4c-0.4-4.1-0.9-8-0.7-12.2c0.1-2.9,0.1-5.8,0.1-8.7c0-0.1,0-0.2,0-0.3c0.1-0.2,0.2-0.4,0.1-0.9
			c0-0.1,0-0.2,0-0.3c0.1-1.3,0.2-2.5,0.2-3.8c0.1-3.3-0.1-6.6-0.5-9.9c-0.4-3.7-1-7.2-1.7-10.8c-0.7-3.5-0.5-7.1-1-10.6
			c-0.1-0.5-0.2-1-0.4-1.4c0,0,0-0.1,0-0.1c-0.3-0.2-0.4-0.5-0.4-0.9c0-0.3-0.5-0.2-0.5,0.1c-2.3,0.5-4.7,1-7,1.5
			c-2.1,0.5-4.3,0.4-6.4,0.3l-12.4-2c-0.1-0.1-0.2-0.2-0.3-0.4c-0.1-0.2-0.3-0.1-0.5,0c-0.2,0-0.3-0.1-0.5-0.1
			c-0.1-0.1-0.7-0.1-0.8-0.2c-0.1-0.1-0.8,0-0.8,0.2c0,0,0,0,0,0c0,0,0.2,0.1,0.2,0.2c0,0,0.2,0,0.2,0c0,0,0.1,0,0.1,0.1
			c0,0,0,0,0,0c-2,6.3-2,13.3-2.2,19.9c-0.1,7.1,1,13.9,2,20.8c1.1,7.3,2.1,14.6,2.9,21.9c0.8,7,0.3,13.8-0.2,20.9
			c-0.4,5,0,10.9,4,14.5c1.3,1.2,3.2,1,4.8,0.7c1.3-0.2,2.7-0.4,4-0.4c0.7,0,1.6,0.1,2.2-0.3c1.4-1,1.4-2.5,1.3-4.1
			c0-0.6,0-1.1,0-1.6c0.6,0.1,1.3,0.1,1.8,0c3.4-0.1,6.7,0,10.1,0.5c0.2,0,0.4-0.1,0.4-0.4c1.1-7.3,0.1-14.7,1.2-22
			C48.6,146,49.1,142.9,48.8,139.4z M33.2,170.1c0-0.3-1.1-0.9-1.4-1.9c-0.5-1.7-0.2-3.8-0.2-5.6c0-3.1-0.5-6.1-0.7-9.2
			c-0.3-3.6,0.3-7.2,0.7-10.9c0.2-2.3,0.4-4.6,0.5-6.9c0.1,4.1,0.1,8.2,0.1,12.2c0,7.4,0.9,14.7,0.9,22.1V170.1z"/>
		<g>
			<path class="st2" d="M42.3,8.4c-0.9-2-3-2.5-5.2-2.5c-1.2-0.2-2.4-0.2-3.6,0.2c-3.3,1.2-4.2,3.8-4.1,6.7c0,0,0,0,0,0
				c-0.2-0.4-0.5-0.8-1.1-0.6c-0.9,0.3-0.6,1.6-0.5,2.2c0.2,1.2,0.2,2.5,0.8,3.6c0.3,0.6,0.9,0.9,1.2,1.4c-0.4,2-0.9,4-1,6.1
				c-0.1,0.3-0.2,0.6-0.3,0.9c-0.1,0.2,0.1,0.4,0.4,0.4c0,0.1,0,0.2,0.1,0.3c-0.1,0.1-0.1,0.2-0.2,0.2c-0.1,0.1-0.1,0.3,0,0.4
				c0.6,0.8,1.4,1.2,2.4,1.4c0.6,0.4,1.3,0.6,1.9,0.8c1.8,0.6,3.4,0.1,5.1-0.4c0.1,0,0.2-0.2,0.2-0.3c0-2-0.1-4-0.2-5.9
				c0.6-0.1,1.2-0.2,1.7-0.5c0.3-0.1,0.6-0.3,0.9-0.6c1-0.9,1.1-2.4,1.2-3.6c0-0.6,0.1-1.2,0.1-1.8c0.3-1.2,0.5-2.4,0.4-3.7
				C42.8,11.7,43,9.9,42.3,8.4z"/>
			<path class="st0" d="M44.8,4.2c-0.4-2.1-1.6-2.8-3.2-3.2c-0.5-0.3-1.1-0.5-1.6-0.6c-1.2-0.4-2.7-0.5-4-0.3
				c-1.4,0.2-2.8,0.2-4.3,0.3c-0.3,0-0.6,0-0.9,0.1c0,0-0.1,0-0.1,0c-0.1,0-0.2-0.1-0.2,0c-0.1,0-0.1,0.1-0.2,0.1c0,0-0.1,0-0.1,0
				c-2.2,0.3-3.3,2.9-2.9,4.9c0.3,1.6,0.3,3.1,0.3,4.8c0,0.4,0,0.7,0.1,1.1c0,0.3,0,0.6,0,0.9c0,0.1,0.1,0.3,0.2,0.3
				c0.5,0.1,0.4,0.1,0.9,0.2c0,0,0.1,0,0.1,0c0,0,0,0,0,0c0.1,0.5,0.4,0.9,0.7,1.4c0.1,0.2,0.4,0,0.4-0.2c0-1.7,0.6-3.3,1-4.9
				c1.6-1.8,4.3-2,6.7-1.9c1.5,0.1,2.5,0.9,3.4,2c0.1,0.2,0.4,0.5,0.7,0.9c0,0.7,0.3,1.5,0.6,2.1c0,0.1,0,0.2,0,0.3l0.1,0.1
				c0.2,0.3,0.7,0.4,0.9,0C44.9,9.9,45.5,7.3,44.8,4.2z"/>
		</g>
		<g>
			<path class="st2" d="M95.4,45c-0.1-2.1-2.7-3.3-4.5-3.2c-2.1,0.1-5,2.4-6,4.2c-1.1,2-1.6,3.4-3.8,4.5c-1.9,1-4,1.9-6,2.8
				c-2,0.9-3.8,2-6,1.8c-2-0.2-3.7-1.4-5.2-2.7c-2.5-2.1-4.2-4.9-6.5-7.1c-1.4-1.4-2.9-3.3-4.8-3.7c-0.9,0.8-1.9,1.6-2.8,2.3
				c-0.9,0.8-1.7,1.6-2.6,2.4c-0.4,0.5-0.8,0.9-1.2,1.4c1,3,4.6,5.3,6.8,7c2.3,1.7,4.4,3.3,6.3,5.4c1.4,1.6,3.1,2.9,5.1,3.6
				c4.1,1.6,8.4-0.9,11.7-3.1c5.5-3.6,11.3-6.9,16.8-10.5c0.2-0.1,0.2-0.3,0.1-0.5C94.2,48.4,95.5,46.9,95.4,45z"/>
			<g>
				<path class="st3" d="M57.7,43.9C57.6,43.9,57.6,43.9,57.7,43.9c-0.1-0.2-0.1-0.3-0.1-0.3c-1.9-3.7-4.4-6.8-7.3-9.8
					c-0.9-0.9-1.8-1.9-2.7-2.7c-0.3-0.5-0.7-0.8-1.2-1c-0.1-0.1-0.3-0.2-0.4-0.3c-0.4-0.3-0.8-0.6-1.2-1c-0.1-0.1-0.2,0-0.2,0
					c-0.9-0.6-1.8-1.2-2.8-1.3c-1-0.5-1.8-0.7-2.4-0.2c-1.6,1.3-6,2.7-11.1-1.8c-0.1-0.1-0.3-0.2-0.4-0.2c0,0,0,0,0,0
					c-3,0.6-6,0.4-9,1.5c-2.7,1-5.1,2.8-6.8,5c-1.8,2.3-2.8,5.1-3.8,7.8c-1,2.9-2.7,5.5-2.7,8.7c0,0.2,0.1,0.4,0.4,0.4
					c2.7,0.4,5.3,3.1,8.2,2.2c-0.3,2.5,0.6,5,0.9,7.4c0.5,3,0.4,6.2,0.5,9.3c0.3,0.3,0.3,0.8,0,1.2c0.1,2.9-0.2,6,0.3,8.8
					c0.2,1.3,1.1,2,2.2,2.5c2.7,1.2,5.9,1.8,8.8,2.4c2.5,0.5,4.9,0.1,7.3-0.5c2.9-0.7,6.1-1.7,8.9-0.3c0.2,0.1,0.4,0,0.6-0.2
					c1.2-1.5,1.3-3.5,1.5-5.3c0.2-2.7,0.2-5.5,0.3-8.2c0.1-5.3,0.4-10.6,1.3-15.8c0.5,0.7,1.1,1.3,1.2,1.5c0.2,0.3,0.6,0.2,0.7-0.1
					c0.7-1.8,2.3-3.2,3.7-4.5c1.6-1.5,3-3.1,4.8-4.4c0.1-0.1,0.1-0.1,0.2-0.2C57.7,44.6,57.8,44.2,57.7,43.9z"/>
				<path class="st4" d="M37.7,64.3c-0.1-0.1-0.3-0.2-0.5-0.3c0,0-0.1,0-0.1,0c0-3.8-0.5-7.6-0.7-11.3c-0.1-2.3-0.2-4.6-0.2-6.8
					c0-2-0.3-4.1-0.2-6.1c0.1-1.5-1.5-1.6-2.8-1.4c-0.9,2.4-2,4.9-3,7.2c-1,2.3-1.9,4.6-3.2,6.7c0.1,0.6,0.1,1.1,0.2,1.7
					c0.2,0,0.4-0.1,0.5-0.2c1.4-0.6,1.9-2.5,2.7-3.9c0.1,3.1-0.1,6.2-0.1,9.4c0,0.9,0.2,4.5-0.7,4.9c-0.4,0.2-0.6,0.3-0.8,0.5
					c0.1,0.7,0.2,1.4,0.3,2.1c2-0.2,4-0.7,6-0.6c0.9,0,1.9,0.1,2.8,0.1C37.8,65.6,37.7,64.9,37.7,64.3z"/>
			</g>
			<g>
				<path class="st5" d="M29.3,84.6c0-0.9-0.1-1.8-0.3-2.7c0-0.4-0.1-0.8-0.3-1.1c-0.1-0.2-0.2-0.3-0.3-0.4
					c-0.1-0.2-0.3-0.4-0.5-0.5c0.4-5.9,0.5-11.8,0.4-17.6c0-1.9-0.1-3.8-0.1-5.7c0-3.9-0.3-7.8-0.4-11.7c-0.1-3.2,0-6.5-0.6-9.7
					c-0.4-2.3-1-4.4-1.8-6.5c-0.1-0.8-0.3-1.7-0.7-2.3c-0.6-1.9-1.9-1.4-3.8-0.8c-0.1,0-0.1,0.1-0.2,0.1c-0.2,0-0.3,0.2-0.3,0.4
					c0.4,1.9,1.5,3.4,2.1,5.2c0.6,2,1.1,4,1.6,5.9c0.3,0.9,0.5,1.9,0.7,2.9c0.5,5.2,0.6,10.5,0.8,15.8c0.2,4.6,0.1,9.2,0.2,13.9
					c0,1.4,0,2.8,0,4.2c0,1,0.2,4.1-0.9,4.7c-0.2,0.1-0.2,0.2-0.2,0.4c-0.5,0-1.1,0-1.6,0c-0.5,0-0.9,0-1.3-0.1
					c-1.3-0.6-2.8-1-4-0.9c-0.2,0-0.4-0.1-0.5-0.1c-0.1,0-0.1,0-0.2,0c-0.7-0.1-1.5-0.3-2.3-0.3c-1.4-0.1-2.9,0.4-4.3,0.2
					c-0.3,0-0.7-0.1-1-0.2c0-0.8,0-1.6,0-2.4c-0.1-2.3-0.1-4.6-0.1-7c0-1.4,0-2.8,0-4.2c0.3-1.8,0.5-3.7,0.5-5.6
					c0.1-1.8,0.6-3.9,0-5.6c-0.3-0.9-1.6-1-2.4-1.3c0,0,0,0,0,0c-0.5-0.4-1-0.5-1.5,0c-1.3,1.4-0.7,4.7-0.7,6.5
					c0,3.8,0.3,7.7,0.4,11.5c-0.2,1.9-0.1,4,0,6C5.9,76,6,76.5,6,76.9v0c-5.1,2-5.7,9.5-6,14.1c-0.1,3.3,0,6.8,0.7,10
					c0.3,1.4,1.2,3.6,2.6,4.6c0.2,0.4,0.5,0.7,0.8,1c0.1,0.1,0.4,0.3,0.6,0.4c1.5,1.5,4,2.2,6.4,2.6c2.7,0.5,5.4,0.5,8.1,0.3
					c2.4-0.2,5-0.4,7.2-1.5c1.1-0.6,1.7-1.6,2-2.7c0.5-1.1,0.7-2.5,0.5-3.8c0.2-2.8,0.2-5.6,0.4-8.4C29.6,90.6,29.7,87.6,29.3,84.6z
					"/>
				<g>
					<path class="st4" d="M28.1,82.3c-3.5,1-3.6,5.1-3.6,8.1c0,2.3,0.2,4.5,0.3,6.8c0,0.8,0,1.6-0.1,2.4c-0.2,2.3-1.8,2.9-3.9,2.9
						c-2.7,0-5.4-0.4-8.1-0.5c-2.8-0.1-6.5,0.6-8.7-1.4c-1.7-1.6-2-4.6-2.3-6.8c-0.5-3-0.4-6.1,0.5-9c0,0-0.1-0.1-0.1,0
						c-1.7,4.4-1.4,10.5,0.7,14.8c0.7,1.5,2.1,2.4,3.7,2.7c1.7,0.4,3.5,0.4,5.4,0.3c-0.1,0.8-0.2,1.7,0.1,2.5
						c0.2,0.6,0.9,0.7,1.5,0.7c0.6,0,1.4,0.2,1.8-0.2c0.6-0.6,0.3-1.9,0.3-2.7c0-0.2-0.4-0.3-0.4,0c0,0.7,0.1,1.4-0.1,2.1
						c-0.2,0.6-1.1,0.3-1.5,0.3c-0.6,0-1.2,0.1-1.4-0.6c-0.2-0.7,0-1.4-0.1-2.1c1.3,0,2.7-0.1,3.9-0.1c4,0.1,8.8,2,9.4-3.4
						c0.2-2.3,0-4.8-0.2-7.1c-0.2-2.9-0.4-8,3.1-9.1C28.6,82.8,28.5,82.2,28.1,82.3z"/>
					<path class="st4" d="M13.7,104c0-0.1-0.2-0.1-0.2,0c-0.1,0.3,0,0.7,0.1,1.1c0.1,0.2,0.3,0.1,0.3-0.1
						C13.7,104.7,13.8,104.4,13.7,104z"/>
					<path class="st4" d="M11.4,107.7c-1,0-1.8,0.1-2.8-0.2c-0.8-0.2-1.6-0.6-2.5-0.8c-0.1,0-0.1,0.1,0,0.1c1.8,0.6,3.3,1.5,5.3,1
						C11.5,107.8,11.5,107.7,11.4,107.7z"/>
					<path class="st4" d="M24.1,106.6c-3.1,1.5-6.5,1.7-9.9,1.1c0,0,0,0,0,0C17.2,108.4,21.7,108.9,24.1,106.6
						C24.2,106.7,24.2,106.6,24.1,106.6z"/>
					<path class="st4" d="M28.1,86.1c0-0.2-0.2-0.2-0.3,0c-0.7,5.3,0.8,10.6-0.3,15.9c0,0,0,0,0,0C28.8,96.8,27.4,91.4,28.1,86.1z"
						/>
				</g>
			</g>
			<path class="st2" d="M34,36.6c-0.3-0.3-0.7-0.5-1.2-0.7c-5.6-2.6-6.2,2.1-8,5.1c-1.7,2.7-3.9,4.7-6.4,6.6
				c-1.1,1.3-2.5,2.5-3.9,3.1c0.1-0.8,0.3-1.8-0.3-2.3c-2.5,0-5.1-0.1-7.6-0.2c-0.4,0.7-0.7,1.5-0.8,2.5c-0.2,1-0.4,2-0.5,2.9
				c-0.5,2.8-0.6,5.7,0.2,8.4c0.6,1.8,4.1,4.9,5.9,3.4c1.7-0.4,3.3-1.8,4.5-2.8c0.9-0.8,1.8-1.7,2.7-2.6c1.4-1.7,2.7-3.3,3.9-5.1
				c2.4-3.4,4.3-6.5,7.6-9c1.2-0.9,3.9-3,4.9-5.2C35.2,39.2,35,37.7,34,36.6z"/>
		</g>
	</g>
	<g>
		<g>
			<path class="st0" d="M85.6,29.6c-1.6-3.9-5.7-9.5-10.1-10.1c-2.5-0.4-5.8-0.6-8.3,0c-2.4,0.6-4.3,2.7-5.8,4.5
				c-2,2.5-3.6,4.7-6.8,5.8c-2.5,0.9-4.7,1.6-6.9,3.2c-2.7,1.9-4.8,4.3-5,7.4c-0.9,0.9-1.6,2.8-1.8,3.4c-0.1,0.2-0.1,0.4-0.2,0.6
				c0,0,0,0-0.1,0c-0.8,0.8-1.4,1.7-1.9,2.8c-1.1,2.3-1.1,4.8-0.5,7.2c0.5,2.2,1.8,4.5,3.2,6.3c0.5,0.6,1.1,1.3,1.9,1.7
				c0.6,0.3,1.2,0.4,1.8,0.6c0.7,0.7,1.6,1.3,2.5,1.7c0.7,0.6,1.4,0.8,2.2,0.7c0.5,0.1,1.2,0.2,1.6,0c0.4-0.2,0.4-0.2,0.8-0.5
				c0.7-0.7,1.2-0.5,2.1-0.5c2.3,0,3.7-2.2,4.5-4.7c1.1-2.5,1.6-5.2,2.7-7.7c0.5-1.1,1.1-4.2,2.3-4.6c0.7-0.2,1.2-0.5,1.6-0.9
				c0.4-0.1,0.9-0.2,1.3-0.3c1.2-0.5,2.1-1.4,3-2.2c1.3-1.2,2.7-1.7,4.5-1.8c1.2,0,2.4,0.8,3.6,0.8c1.9,0,3.6-1.3,4.9-2.5
				C85.7,37.7,87.2,33.5,85.6,29.6z"/>
			<path class="st1" d="M79,44.6c-0.2-0.5-0.5-0.9-0.8-1.4c-0.2-0.7-0.4-1.4-0.6-2.1c-0.4-1.6,0.2-2.8,0.8-4.2
				c0.9-2,0.5-4.5,0.3-6.6c-0.2-1.6-0.3-3.5-1.5-4.7c0-0.1-0.1-0.3-0.1-0.4c-0.4,0.2-0.9,0.4-1.3,0.6c-3.3,3.6-3.4,9.7-7.2,12.7
				c0.4,0.5,0.8,0.9,1.2,1.3c1.4,1.5,0.9,4.4,0.4,6.3c0,0.2,0.2,0.3,0.3,0.1c-0.1,1.3,0.5,2.5,1.7,3.1c0,0,0,0,0,0
				c0.1,0.3,0.4,0.4,0.6,0.3c0.1,0,0.2,0.1,0.3,0.1c0,0.1,0.1,0.1,0.1,0.2c0.2,0.3,0.6,0.2,0.8,0c0.9,0.2,1.8,0.1,2.7-0.2
				c1.9-0.7,2.7-2.6,3.1-4.6c0,0,0-0.1,0-0.1C79.5,45.1,79.2,45,79,44.6z"/>
		</g>
		<g>
			<g>
				<path class="st0" d="M73.7,173.9c-0.7,0.2-1.6,0.2-2.3,0.5c-0.4,0.2-0.7,0.8-1,1.4c-0.8,1.3-1.4,2.7-1.7,4.2
					c-0.1,0.3-0.1,0.5-0.1,0.8c0,0.1-0.1,0.1-0.1,0.2c-0.4,2.2,2.1,3.4,3.8,2.6c0.5-0.1,1-0.3,1.5-0.7c0.7-0.6,1.3-1.3,1.7-2.1
					c1.1-1.8,1.4-4.2,1.5-6.1C77.2,172.4,74.9,173.6,73.7,173.9z"/>
				<path class="st0" d="M88.9,175.2c-1.6-2.3-4.8-2.1-7.2-2.2c-0.2,0-0.4,0.2-0.4,0.4c0,0.9,0.2,2,0.6,3c0.2,2.1,0.7,4.2,2.2,5.4
					c0.3,0.3,0.6,0.5,0.9,0.5c1.8,0.9,4.4,0.9,5.6-1C91.7,179.5,89.9,176.7,88.9,175.2z"/>
			</g>
			<g>
				<path class="st3" d="M77.2,169.7c-1-3-0.8-6.6-0.9-9.7c-0.1-3.5-0.3-7-0.5-10.5c-0.3-7,0.3-14-0.1-21
					c-0.4-7.1-0.4-14.2-0.4-21.3c0-2.1-0.1-4.2,0.1-6.4c0.1-1.3,0.4-2.9-0.1-4.1c-0.9-2.4-4.1-1.4-5.9-1.1c-1.3,0.2-2.6,0.4-3.8,0.9
					c-1.1,0.5-2,1-3.2,1.3c-0.6,0.1-1,0.3-1.4,0.7c-1.4,1.3-0.2,3.9,0.4,5.8c-0.1,0-0.1,0.1-0.1,0.2c0.1,0.6,0.2,1.1,0.4,1.7
					c0,0.1,0,0.1,0,0.2c0,0.1,0,0.2,0.1,0.2c0.5,2.5,1.2,5,1.9,7.4c0.4,1.5,0.9,2.9,1.2,4.5c0.3,1.9,0.2,3.9,0.3,5.8
					c0.2,3.1,0.9,6.1,0.9,9.2c0.1,3.6-0.3,7.1,0,10.7c0.2,2.9,0.5,5.8,1,8.6c0.6,3.1,1.8,6,2.4,9c0.7,3,1,6,1.2,9.1
					c0.1,1.4,0.3,3,1.6,3.6c1.1,0.5,3.1,0,4.1-0.5C78.3,173,77.8,171.3,77.2,169.7z M62,101.4c-0.1-0.2-0.2-0.2-0.3-0.2 M62,101.4"
					/>
				<path class="st3" d="M91.2,95.4c-1.2-2.7-4.2-1.7-6.4-1c-1.7,0.5-3.4,0.2-5.1,0.1c-0.9,0-1.7,0.2-2.3,0.8c-0.7,0.7-0.6,2-0.5,3
					c0.2,2.5,0,4.9-0.1,7.4c-0.2,4.7-0.4,9.5-0.4,14.2c-0.1,7.4,0,15,1.9,22.2c0.2,2.8,0.2,5.7,0.4,8.5c0.1,2.9,0.7,5.7,1.3,8.5
					c0.6,3.2,1.7,6.7,1.4,9.9c-0.1,1.3-0.3,2.9,0.9,3.8c1.1,0.8,3.1,0.9,4.4,1.1c0.4,0.1,1.2,0.2,1.9,0.2c0,0-0.1-0.1-0.1-0.1
					c-0.3,0-0.6-0.2-0.7-0.6c-1.5-6.2,0.5-12.1,0.9-18.4c0.2-3.5-0.1-7-0.3-10.5c-0.8-4.4-1.5-8.8-1-13.4c0.3-3.2,0.7-6.4,1.1-9.6
					c0.4-3.6,1.6-7.2,2.3-10.8c0.6-2.9,0.9-5.8,1.1-8.8C91.7,100.1,92,97.2,91.2,95.4z"/>
			</g>
		</g>
		<path class="st6" d="M94.1,102.4c-0.3-1.6-0.7-3.2-1.1-4.8c-0.4-2-0.5-4-0.9-5.9c-0.3-1.7-0.9-3.4-1.3-5.1
			c-0.5-2.1-0.4-4.5-0.6-6.7c-0.2-3.4-0.6-6.8-1.4-10.1c-1.6-6.6,0.1-13.4-0.5-20.2c-0.2-2.2-0.7-4.5-2.4-5.8
			c-1.7-1.4-4.6-0.8-6.4-0.3c-0.1,3.6-4.2,5.1-7.2,3.5c-0.9-0.3-1.8-1-2.1-1.7c0,0,0,0-0.1,0.1c-2.8,0.7-5.9,1.3-7.2,4.5
			c-0.7,1.8-0.6,4-0.6,5.9c0,2.8-0.2,5.6-0.3,8.4c-0.1,2.7-0.6,5.4-0.7,8.2c-0.1,3.2-0.2,6.2-0.9,9.3c-1.2,5.6-0.8,11.2-1.6,16.8
			c-0.6,4.3-0.9,8.8,0.4,13c1,3.3,3.6,1.4,5.4,0.1c2-1.4,4.5-0.9,6.8-1.1c2.5-0.3,4.8-1.1,7.2-1.7c2.9-0.7,5.5-0.2,8.2,1
			c2,0.9,4.6,0.2,6.1,2.1c0.3,0.4,0.9,0,0.8-0.5C93.1,108.4,94.6,105.5,94.1,102.4z"/>
		<path class="st6" d="M96.6,67.3c-0.4-2.8-1-5.6-1.3-8.5c-0.4-3.1-0.9-6.2-2-9.2c-1-2.7-3-7.5-6.6-6c-0.5,0-0.9,0.2-1.3,0.5
			c-1.1,1-0.3,3.8,0,5c0.6,2.9,0.9,5.7,1.2,8.6c0.2,3.2,0.9,6.4,1,9.7c0.2,3.1,0.7,6,0,9.1c-0.7,3.2-2.9,6.2-5,8.6
			c-0.8,0.9-3.1,2.2-3,3.7c0,0.7,0.2,1,0.7,1.4c0.9,0.8,1.2,1.7,2,2.5c0.1,0.2,0.4,0.1,0.5,0c1.9-1.7,3.5-3.6,5.3-5.3
			c2-1.8,3.8-3.5,5.3-5.6C96.6,77.3,97.3,72.6,96.6,67.3z"/>
		<g>
			<polygon class="st7" points="65.2,79.2 65.2,60.1 80.9,59.1 81,78.2 			"/>
			<polygon class="st4" points="65.2,60.1 67.3,58.6 82.1,57.2 80.7,59.1 65.2,60.4 			"/>
			<polygon class="st4" points="81.6,78.2 80.6,59.1 82.3,57.2 82.5,76.6 			"/>
		</g>
		<g>
			<g>
				<path class="st1" d="M82.4,92.3c-0.1-0.4-0.3-0.8-0.6-1.1c0-0.1-0.1-0.2-0.1-0.3c-0.6-0.2-1.2-0.8-1.4-1.4
					c-1.1,0.7-2.2,1.3-3.5,1.9c-0.4,0.2-1.2,0.6-1.2,1.2c0.1,0.9,0.8,1.2,1.6,1.1c-0.6,0.7-1.2,1.5-1.9,2.2C74.8,96.3,74,97,74,97.7
					c0,1.3,1.1,3,2.6,2.7c0.9-0.2,1.5-1.2,2.1-1.8c1-1.1,1.9-2.2,2.6-3.5c0.2-0.4,0.3-0.7,0.4-1c0.1-0.1,0.2-0.3,0.3-0.4
					c0.2-0.3,0.4-0.5,0.6-0.8C82.8,92.6,82.6,92.3,82.4,92.3z"/>
				<path class="st8" d="M74.8,68.9C74.8,68.9,74.8,68.9,74.8,68.9c0.1,0.4,0.1,0.9,0.3,1.5c0,0.8,0.2,1.4,0.4,2.2c0,0,0,0,0,0.1
					c-0.2,0.1-0.2,0.4-0.1,0.6c2.1-1.1,4.6-1.5,6.6-2.7c1.3-0.8,1.9-1.3,1.5-2.9c-0.1-0.3-0.1-0.6-0.2-0.8c-0.3,0-0.6,0-1,0.1
					c-0.7,0.2-1.4,0.5-2.1,0.7c-1.2,0.3-0.1-0.7,0-1.3c0.2-0.5-0.5-0.9-0.9-0.7c-0.6,0.3-1.1,0.9-1.6,1.3c-0.8,0.8-2.1,1.3-3.1,1.7
					C74.6,68.7,74.7,68.8,74.8,68.9z"/>
			</g>
			<path class="st6" d="M71.6,66.2c-1.7-0.3-3.6-0.1-5.3,0.2c-1.6,0.2-4.6,0.2-3.6-2.2c0.4-1,0.5-1.9,0.5-3c0.1-2.9,0-5.7,0.1-8.6
				c0.1-1.3,1.1-2.8,1-4.1c0,0,0,0,0,0c0,0,0,0,0,0c0.3-0.2,0.3-0.5,0.1-0.7c0,0,0,0,0,0c0.2-0.1,0.1-0.3-0.1-0.3
				c-3.1,0.6-5.6,4.7-7,7.3c-2.3,4.2-3.2,9.3-4,14c-0.5,3.5-0.3,8.1,3.1,10c1.4,0.8,3.3,0.7,4.9,0.5c1.8-0.1,3.9-0.1,5.6-0.8
				c2.3-1,4.2-2.3,6.6-3.1c1.3-0.4,2.2-1.2,2.4-2.5C76.5,69.5,75,66.8,71.6,66.2z"/>
			<g>
				<path class="st4" d="M87.5,65c-0.1-1.5-0.4-3-0.7-4.5c-0.3-1.5-0.3-3-0.7-4.4c0-0.2-0.3-0.1-0.3,0.1c0.6,5.2,2.3,10.2,1.2,15.5
					c0,0.1,0.2,0.2,0.2,0.1C87.7,69.6,87.7,67.3,87.5,65z"/>
				<g>
					<path class="st4" d="M89.9,72.1c-0.6-0.4-1.4-0.4-2.2-0.3c0.6-0.4,1.3-0.6,1.8-1c0.1-0.1,0.1-0.2-0.1-0.2
						c-0.8,0.2-1.5,0.7-2.2,1.2c-0.1,0-0.1,0.1,0,0.2c0,0-0.1,0-0.1,0c-0.1,0-0.1,0-0.2,0c-1.6,2.9-2.5,6.1-3.8,9.2
						c-1.1,2.6-2.6,5.4-3.3,8.1c0,0,0.1,0.1,0.1,0c2.6-5.6,4.8-11.4,7.2-17.1c0.3,0.3,0.6,0.7,0.8,1c0.2,0.3,0.6,0.8,1,0.9
						c0.1,0,0.1-0.1,0.1-0.1c-0.1-0.2-0.3-0.3-0.4-0.4c-0.2-0.2-0.4-0.4-0.5-0.6c-0.2-0.3-0.4-0.6-0.7-0.8c0.4-0.1,0.8-0.1,1.3,0
						c0.4,0.1,0.7,0.2,1.1,0.1C89.9,72.3,89.9,72.2,89.9,72.1z"/>
					<path class="st4" d="M81.6,90.8c-0.3-0.3-0.7-0.5-0.9-0.9c-0.2-0.3-0.4-0.4-0.7-0.6c-0.1,0-0.2,0.1-0.1,0.2
						c0.4,0.2,0.6,0.5,0.8,0.8c0.1,0.2,0.4,0.4,0.6,0.5c0.7,0.6,1,1.1,1.2,2c0,0.2,0.3,0.1,0.3-0.1C82.5,92,82.2,91.4,81.6,90.8z"/>
					<path class="st4" d="M90.5,84.6c-1.2,1.4-2.8,2.3-4,3.6c-1.3,1.3-2.8,2.7-3.7,4.4c0,0.1,0.1,0.2,0.1,0.1c1.3-1.4,2.4-3,3.8-4.4
						c0.8-0.9,1.6-1.6,2.7-2.3c0.6-0.4,1-0.8,1.4-1.4C90.7,84.6,90.6,84.5,90.5,84.6z"/>
					<path class="st4" d="M67.1,66.3c-0.4,0-0.8,0.1-1.2,0.1c0,0,0,0,0,0c-0.1,0-0.3,0-0.4,0.1c-0.3,0-0.7,0.1-1,0.2
						c-1.2,0.2-2.4,0.4-3.6,0.6c-0.4,0.1-0.8,0.1-1.3,0.3c0,0-0.1,0-0.1,0c0,0,0,0,0,0c-0.2,0.1-0.4,0.2-0.6,0.3c0,0,0,0,0,0
						c-0.6,0.5-1.4,0.9-1.8,1.6c0,0,0,0.1,0,0c0.4-0.6,1-0.9,1.5-1.3c0,0,0,0.1-0.1,0.1c0,0,0,0,0,0c0.2-0.1,0.4-0.2,0.6-0.3
						c-0.6,0.7-1.1,1.4-1.3,2.2c0,0.1,0.1,0.1,0.1,0c0.2-0.9,0.9-1.5,1.4-2.2c0.2-0.1,0.5-0.2,0.7-0.3c0.6-0.1,1.2-0.2,1.8-0.3
						c1.4-0.2,2.9-0.2,4.2-0.8c0.1,0,0.1-0.1,0.1-0.1c0.4,0,0.7-0.1,1.1-0.1C67.1,66.4,67.1,66.3,67.1,66.3z"/>
					<path class="st4" d="M59.7,67.8c-0.6,0.6-0.6,1.6-0.8,2.4c0,0.1,0.1,0.1,0.1,0c0.2-0.8,0.3-1.6,0.8-2.4
						C59.8,67.8,59.7,67.7,59.7,67.8z"/>
				</g>
			</g>
		</g>
	</g>
</g>
</svg>
