<?xml version="1.0" encoding="utf-8"?>
<!-- Generator: Adobe Illustrator 27.1.1, SVG Export Plug-In . SVG Version: 6.00 Build 0)  -->
<svg version="1.1" id="Layer_1" xmlns="http://www.w3.org/2000/svg" xmlns:xlink="http://www.w3.org/1999/xlink" x="0px" y="0px"
	 viewBox="0 0 441.5 408.4" style="enable-background:new 0 0 441.5 408.4;" xml:space="preserve">
<style type="text/css">
	.st0{fill:#CC7257;}
	.st1{fill:#A1503A;}
	.st2{fill:#E3846C;}
	.st3{fill:#FFFFFF;}
	.st4{fill:#DBE4F4;}
	.st5{fill:#FCB316;}
	.st6{fill:#26507A;}
	.st7{fill:#456A99;}
	.st8{fill:#6A8DB2;}
	.st9{fill:#F15A5C;}
	.st10{fill:#E93C3B;}
	.st11{fill:#EDF1F9;}
	.st12{fill:#F79E83;}
	.st13{fill:#F47D72;}
	.st14{fill:#434343;}
	.st15{fill:#C4AEBA;}
	.st16{fill:#B098A7;}
	.st17{fill:#FBBE95;}
	.st18{fill:#D04B57;}
	.st19{fill:#F494AD;}
	.st20{fill:#252727;}
	.st21{fill:#595A5A;}
	.st22{fill:#F1678E;}
	.st23{fill:#F15C69;}
	.st24{fill:#424257;}
</style>
<g>
	<g>
		<g>
			<g>
				<g>
					<g>
						<g>
							<g>
								<g>
									<path class="st0" d="M238.2,73.2l3.1,1.2l2.5,4.7l3.9-2.7l4-2.7l2.4-1.6c-0.4-0.7-0.6-1.2-0.7-1.3l0,0c0,0,0.6-0.7,1.5-1.8
										c0.1-0.1,0.2-0.3,0.3-0.4c0.2-0.3,0.4-0.6,0.6-0.9c0.1-0.2,0.3-0.4,0.4-0.7c0.1-0.2,0.3-0.5,0.4-0.7s0.2-0.5,0.3-0.7l0,0
										c0.7-1.5,1.2-3.2,0.8-4.7c-0.1-0.5-0.2-1-0.4-1.6c-0.1-0.5-0.2-1-0.3-1.6c-0.2-1.4-0.3-2.9-0.1-4.4c0-0.2,0.1-0.3,0.1-0.5
										c0.1-0.6,0.3-1.3,0.4-1.9c0.1-0.3,0.1-0.6,0.1-1c0-0.2,0-0.4,0-0.5c0-0.2,0-0.3,0-0.5c0-0.5-0.1-1-0.3-1.5
										c-0.2-0.5-0.4-0.9-0.7-1.3c-0.1-0.1-0.2-0.2-0.3-0.4c0,0-0.1,0-0.1-0.1c0,0-0.1,0-0.1-0.1c-0.1,0-0.1-0.1-0.2-0.1
										c-0.1,0-0.2,0-0.3,0h-0.1c-0.1,0.1-0.3,0.2-0.4,0.3l-0.1,0.1c0,0,0,0.1-0.1,0.1c-2.4,2.9-3.7,6.6-3.8,10.3
										c0,0-15.2-17.9-16.5-17.2c-0.5,0.3-0.8,0.6-1.1,0.9c-0.4,0.5-0.5,1-0.5,1s8.7,13.7,8.6,14.5c-0.1,0.5-5.4-4.5-9-7.4
										c-1.4-1.2-2.6-2-3-2s-0.8,0.3-1.2,0.8c-0.3,0.3-0.5,0.7-0.7,1.1c-0.1,0.1-0.1,0.3-0.2,0.4c-0.5,0.8-0.8,1.6-0.8,1.6
										s-0.2,0.1-0.4,0.3l0,0l0,0c-0.1,0.1-0.2,0.1-0.3,0.2c-0.3,0.2-0.7,0.5-1,0.9c-0.3,0.3-0.6,0.6-0.9,0.9
										C223.3,53.6,236.1,72.1,238.2,73.2z"/>
									<g>
										<g>
											<path class="st1" d="M227.6,48.4c0.3,0.3,0.5,0.7,0.8,1c1.7,1.9,3.5,3.4,4.8,4.4c1.2,0.9,2.1,1.5,2.2,1.5
												c-0.1-0.1-0.7-0.9-1.6-2.2c-1-1.3-2.5-3.1-4.1-4.9c-0.4-0.4-0.8-0.9-1.2-1.3C228.2,47.3,227.8,47.9,227.6,48.4z"/>
										</g>
										<g>
											<path class="st1" d="M225.1,51.5c2.7,3.1,5.3,5,5.5,5.2c-0.1-0.2-1.6-3.1-4.2-6.3C226.1,50.6,225.6,51,225.1,51.5z"/>
										</g>
									</g>
									<path class="st2" d="M250.8,71.7c0,0.3,0.1,0.6,0.2,0.9c0.1,0.3,0.3,0.7,0.5,1c0,0.1,0.1,0.1,0.1,0.2l2.4-1.6
										c-0.4-0.7-0.6-1.2-0.7-1.3l0,0c0,0,0.6-0.7,1.5-1.8c0.1-0.1,0.2-0.3,0.3-0.4c0.2-0.3,0.4-0.6,0.6-0.9
										c0.1-0.2,0.3-0.4,0.4-0.7c0.1-0.2,0.3-0.5,0.4-0.7s0.2-0.5,0.3-0.7l0,0c0.7-1.5,1.2-3.2,0.8-4.7c-0.1-0.5-0.2-1-0.4-1.6
										c-0.1-0.5-0.2-1-0.3-1.6c-0.2-1.4-0.3-2.9-0.1-4.4c0-0.2,0.1-0.3,0.1-0.5c0.1-0.6,0.3-1.3,0.4-1.9c0.1-0.3,0.1-0.6,0.1-1
										c0-0.2,0-0.4,0-0.5c0-0.2,0-0.3,0-0.5c0-0.5-0.1-1-0.3-1.5c-0.2-0.5-0.4-0.9-0.7-1.3c-0.1-0.1-0.2-0.3-0.3-0.4
										c0,0-0.1,0-0.1-0.1c0,0-0.1,0-0.1-0.1c-0.1,0-0.1-0.1-0.2-0.1c-0.1,0-0.2,0-0.3,0h-0.1c-0.1,0.1-0.3,0.2-0.4,0.3l-0.1,0.1
										c0.1,0.3,0.2,0.5,0.3,0.8c0.6,2.1,0,4.4-0.1,6.7c-0.1,3.1,0.9,6.2,0.3,9.2c-0.6,2.5-2.2,4.7-3.7,6.8
										C251.3,70.2,250.8,70.9,250.8,71.7z"/>
								</g>
								<g>
									<path class="st1" d="M245.6,71.3c0,0-0.1-0.1-0.3-0.4c-0.2-0.2-0.4-0.6-0.6-1.1c-0.4-1-0.8-2.5-0.5-4.2
										c0.3-1.7,1.1-3,1.9-3.8c0.4-0.4,0.7-0.7,1-0.9c0.2-0.2,0.4-0.3,0.4-0.3s-0.1,0.2-0.2,0.4c-0.1,0.3-0.3,0.7-0.5,1.1
										c-0.4,1-0.7,2.2-0.9,3.7c-0.2,1.4-0.3,2.8-0.3,3.8c0,0.5,0,0.9,0.1,1.2C245.6,71.1,245.6,71.3,245.6,71.3z"/>
								</g>
							</g>
						</g>
						<g>
							<g>
								<path class="st0" d="M289.2,109.4l-7.2,17.7c-7.7-4.6-19-9-20.3-10.2c-0.5-0.5-1.5-2.2-2.8-4.7
									c-4.1-7.9-10.8-23.1-13.8-29.8c-0.9-2-1.4-3.3-1.4-3.3l3.9-2.7l4-2.7l2.4-1.6l17.4,26.3L289.2,109.4z"/>
								<polygon class="st2" points="251.6,73.7 251.6,73.7 271.4,98.4 254,72.1 								"/>
							</g>
						</g>
					</g>
				</g>
				<path class="st3" d="M314.1,147.6l1-31.5l-35.5-19.5l-13.1-14.3L244.1,100c0,0,14,17.5,15.1,19.3
					C260.2,121,314.1,147.6,314.1,147.6z"/>
				<path class="st4" d="M278.1,103.8c0,0,1.1-5.4,0.5-6s-7.2,1.7-6.8,2.2c0.4,0.5,5.2-0.3,5.2-0.3S276.4,105.9,278.1,103.8z"/>
			</g>
			<g>
				<g>
					<polygon class="st1" points="403.7,329.9 388.5,323.5 396.4,306.8 411.1,313.9 					"/>
					<g>
						<path class="st5" d="M408.1,358.3c-0.7-0.4-1.5-1.1-1.5-2.2c-0.1-3.3,0.1-15.1-1.1-18.8c-0.9-2.8-3.9-6.2-5.2-7.5l8.6-18.9
							c5.5,0.8,15.4,3.6,17.5,4.3L408.1,358.3z"/>
						<polygon class="st3" points="412.5,360.1 430.9,316.9 426.5,315.1 408.1,358.3 						"/>
						<g>
							<path class="st3" d="M408.3,334.2c0.1,0,0.1,0,0.2,0c0.5-0.1,1.1,0,1.1,0.6c0,0.3-0.2,0.6-0.3,0.8c-0.6,0.9-1.4,1.6-2.2,2.2
								c-0.9,0.7-1.9,1.4-3,1.7c-1.2,0.2-1.7-0.9-1-1.9C404.2,336,406.3,334.5,408.3,334.2z"/>
							<path class="st3" d="M409.3,338.4c0.1,0,0.1,0,0.2,0c0.5-0.1,1.1,0,1.1,0.6c0,0.3-0.2,0.6-0.3,0.8c-0.6,0.9-1.4,1.6-2.2,2.2
								c-0.9,0.7-1.9,1.4-3,1.7c-1.2,0.2-1.7-0.9-1-1.9C405.2,340.2,407.3,338.7,409.3,338.4z"/>
							<path class="st3" d="M409.1,343c0.1,0,0.1,0,0.2,0c0.5-0.1,1.1,0,1.1,0.6c0,0.3-0.2,0.6-0.3,0.8c-0.6,0.9-1.4,1.6-2.2,2.2
								c-0.9,0.7-1.9,1.4-3,1.7c-1.2,0.2-1.7-0.9-1-1.9C405,344.8,407.1,343.3,409.1,343z"/>
						</g>
					</g>
					<polygon class="st6" points="327,303.1 340.2,266 400.8,298 384.4,333.5 					"/>
				</g>
				<path class="st6" d="M304.7,223.2l32.1-0.9c-1.2,17.3-2.8,48.7,0.1,55.1c0.1,0.2,0.7,1.2,1.8,2.8l-25.6,24
					c0,0-9.8-15.1-11.1-20.9C298.7,268.7,304.7,226.1,304.7,223.2z"/>
				<g>
					<polygon class="st0" points="304.6,378.1 305.5,361.6 324,363.4 322.2,379.7 					"/>
					<g>
						<g>
							<path class="st7" d="M367,223.3c0,0-26.3,70.6-32.7,87.3l-1.9,55.9l-34.5-3.2l1.2-11.3l5.8-52.5l22.2-75.3l31.7-0.7
								L367,223.3z"/>
						</g>
						<path class="st6" d="M367,223.3c0,0-26.3,70.6-32.7,87.3l-1.9,55.9l-34.5-3.2l1.2-11.3H326l4-45.2l28.9-83.3L367,223.3z"/>
						<path class="st8" d="M308.5,309.3c1.8,3.2,5.4,3,8.2-0.1c1.5-1.7,2.7-3.8,3.2-6.1c0.5-2.3,0.1-4.9-1.1-6.7
							c-1.3-1.9-3.6-3-5.6-2.4c-2.4,0.7-4,3.4-4.9,6c-0.7,2.2-1.1,4.5-0.7,6.7C307.8,307.8,308.1,308.6,308.5,309.3z"/>
					</g>
					<g>
						<g>
							<path class="st5" d="M278.1,391.5c0.2-0.8,0.6-1.7,1.7-2.1c3.1-1.1,14.6-4.5,17.8-6.7c2.5-1.7,4.8-5.5,5.8-7.2l20.8,2.5
								c0.8,5.4,0.9,15.7,0.9,17.8L278.1,391.5z"/>
							<polygon class="st3" points="277.6,396.2 324.6,400.6 325.1,395.9 278.1,391.5 							"/>
							<g>
								<path class="st3" d="M301.5,384.4c0,0.1,0.1,0.1,0.1,0.2c0.2,0.4,0.3,1.1-0.3,1.3c-0.3,0.1-0.6,0-0.9-0.1
									c-1-0.3-1.9-0.8-2.8-1.4s-1.9-1.3-2.5-2.3s0.4-1.9,1.5-1.5C298.5,381.1,300.6,382.7,301.5,384.4z"/>
								<path class="st3" d="M297.7,386.6c0,0.1,0.1,0.1,0.1,0.2c0.2,0.4,0.3,1.1-0.3,1.3c-0.3,0.1-0.6,0-0.9-0.1
									c-1-0.3-1.9-0.8-2.8-1.4s-1.9-1.3-2.5-2.3s0.4-1.9,1.5-1.5C294.8,383.3,296.8,384.8,297.7,386.6z"/>
								<path class="st3" d="M293.2,387.8c0,0.1,0.1,0.1,0.1,0.2c0.2,0.4,0.3,1.1-0.3,1.3c-0.3,0.1-0.6,0-0.9-0.1
									c-1-0.3-1.9-0.8-2.8-1.4s-1.9-1.3-2.5-2.3s0.4-1.9,1.5-1.5C290.2,384.5,292.3,386,293.2,387.8z"/>
							</g>
						</g>
					</g>
				</g>
			</g>
			<g>
				<path class="st9" d="M372.4,232.7c-14.2,6.3-73.7,1.9-73.7,1.9s0.2-2.4,0.5-6.6c1.8-25,8.2-112.9,10.4-115.1
					c0.8-0.8,5.7-2.1,8.9-3c0.9-0.3,1.7-0.5,2.7-0.8c6.2-1.7,13.1-3.2,13.1-3.2c-0.4,8.1,16-2.7,16-2.7l11.4,2l0.5,0.1l8.6,1.5
					l-3.8,47.5l5,72.9L372.4,232.7z"/>
				<path class="st10" d="M372.4,232.7c-14.2,6.3-73.7,1.9-73.7,1.9s0.2-2.4,0.5-6.6c13.3,0.6,54.6,2.2,72.9-0.9L372.4,232.7z"/>
			</g>
			<g>
				<g>
					<g>
						<g>
							<g>
								<path class="st0" d="M350.1,105.2c-0.4,0.4-16.7,11.8-16.7,11.8s0.6-7.3,0.9-11.1c0.1-1.2,0.1-2,0.1-2.2
									c0-1.5-1.1-8.2-1.1-8.2l16.4-7c0,0,0.2,3.3,0.3,7C350.2,100,350.4,105,350.1,105.2z"/>
								<path class="st1" d="M350,95.6c-4.6,3.1-14.7,10-15.7,10.3h-0.1c0.1-1.2,0.1-2,0.1-2.2c0-1.5-1.1-8.2-1.1-8.2l16.4-7
									C349.7,88.5,349.9,91.9,350,95.6z"/>
							</g>
						</g>
						<g>
							<path class="st0" d="M351.9,89.2c0,0-0.4,1.2-2.3,2.7l0,0c-0.4,0.3-0.8,0.7-1.3,1c-1.9,1.3-19.9,8.4-22.6,8s-5-9.9-5.2-10.9
								c-0.7-6.1-2.6-24.9-2.6-24.9c7.3-20.3,31.1-9,33.8-6.9C354.4,60.2,351.9,89.2,351.9,89.2z"/>
							<path class="st4" d="M357.5,66.1c0.5,0.9,0.8,2,0.9,3.2c0.1,1.9-0.4,3.9-1.3,5.4c-2.3,0.5-4,2.3-4.1,4.6
								c-2.6-4.3-3.4-9.7-2.5-14.6c-2.5-0.5-4.4-2.9-3.9-5.4c-0.9,1.3-2.7,2-4.3,1.7c-1.6-0.3-3-1.6-3.4-3.2
								c-0.6,1.8-2.3,3.2-4.1,3.5c-1.9,0.3-4.2-0.5-5.3-2.1c0.1,1.9-1.1,3.9-2.8,4.7c-1.7,0.8-4,0.5-5.4-0.8
								c-0.6,2.2-1.7,4.4-3.5,5.9c-1.8,1.4-4.5,1.9-6.4,0.6c-1.3-0.8-1.9-2.3-2.1-3.8c-0.2-1.3,0-2.7,0.5-4s1.2-2.6,2.5-3.1
								c-1-2.5-0.2-6.1,1.7-7.9c1.9-1.9,5-2.4,7.5-1.4c1.2-2.2,3.3-4.4,5.8-4.6c2.5-0.3,5.1,0.7,6.7,2.6c1.3-2.1,3.7-3.4,6.2-3.2
								c2.4,0.2,4.7,1.8,5.7,4c0.8-1,2.4-1.7,3.6-1.5c3.2,0.5,5.3,3.4,4.9,6.6c2.2,0.8,3.9,2.8,4.4,5.1
								C359.3,61,358.4,63.8,357.5,66.1z"/>
							<path class="st11" d="M357.5,66.1c0.5,0.9,0.8,2,0.9,3.2c-1.3-0.1-2.6,0.2-2.9,1.4c-2.5-2-2.9-6.1-0.8-8.5
								c-3-0.5-5.2-3.8-4.5-6.7c-1.6,1.3-3.8,1.8-5.8,1.1c-1.9-0.7-3.5-2.4-3.9-4.4c-1.2,2.3-3.5,3.9-6,4.3c-2.5,0.4-5.2-0.6-7-2.4
								c-0.4,2-1.2,4.1-2.9,5.2c-1.7,1.1-4.5,0.6-5-1.4c-0.4,2.9-1.9,5.7-4.3,7.3c-1.8,1.1-4.2,1.5-6.2,0.8c-0.2-1.3,0-2.7,0.5-4
								s1.2-2.6,2.5-3.1c-0.4-1.1-0.5-2.3-0.3-3.5c0.2-1.7,0.9-3.3,2.1-4.4c1.9-1.9,5-2.4,7.5-1.4c1.2-2.2,3.3-4.4,5.8-4.6
								c2.5-0.3,5.1,0.7,6.7,2.6c1.3-2.1,3.7-3.4,6.2-3.2c2.4,0.2,4.7,1.8,5.7,4c0.8-1,2.4-1.7,3.6-1.5c3.2,0.5,5.3,3.4,4.9,6.6
								c2.2,0.8,3.9,2.8,4.4,5.1c0,0.2,0.1,0.3,0.1,0.5C359.2,61.4,358.3,63.9,357.5,66.1z"/>
							<path class="st3" d="M358.8,59c-1.4-0.8-3.2-1.1-4.7-0.5c-0.2-2.4-0.7-5-2.6-6.6c-1.8-1.6-5.2-1.5-6.2,0.7
								c-1-2.1-2.7-4-4.9-4.6c-2.2-0.6-5,0.6-5.6,2.8c-1.4-2.2-4.3-3.3-6.8-2.6c-2.5,0.6-4.5,3-4.7,5.6c-3.5-2.3-8.5-1.5-11.5,1.4
								c0.2-1.7,0.9-3.3,2.1-4.4c1.9-1.9,5-2.4,7.5-1.4c1.2-2.2,3.3-4.4,5.8-4.6c2.5-0.3,5.1,0.7,6.7,2.6c1.3-2.1,3.7-3.4,6.2-3.2
								c2.4,0.2,4.7,1.8,5.7,4c0.8-1,2.4-1.7,3.6-1.5c3.2,0.5,5.3,3.4,4.9,6.6c2.2,0.8,3.9,2.8,4.4,5.1
								C358.8,58.7,358.8,58.9,358.8,59z"/>
							<path class="st2" d="M349.6,91.9c-0.4,0.3-0.8,0.7-1.3,1c-1.9,1.3-19.9,8.4-22.6,8s-5-9.9-5.2-10.9c1.6,4.2,3.4,9.9,5.3,9.8
								C328.7,99.6,347.4,92.9,349.6,91.9z"/>
						</g>
						<g>
							<path class="st2" d="M349.3,89.8c3.7-0.2,6.4-2.3,7.9-4.1c0.3-0.4,0.6-0.8,0.8-1.1c1.1-1.9,1.6-8.4-1.1-10
								c-1.9-1.1-3.3,0.4-4,1.4l0,0c-0.3,0.4-0.4,0.8-0.4,0.8L349.3,89.8z"/>
							<path class="st0" d="M349.3,89.8c3.7-0.2,6.4-2.3,7.9-4.1c0.1-0.2,0.2-0.4,0.3-0.5c1.1-1.9,1.6-8.4-1.1-10
								c-1.5-0.9-2.7-0.1-3.5,0.8l0,0c-0.3,0.4-0.4,0.8-0.4,0.8L349.3,89.8z"/>
							<path class="st2" d="M357.6,79.8c0.1,0.5,0,1.1-0.2,1.6c-0.8,2.2-3,3.8-5.2,5.3c0.7-1.1,0.9-2.3,0.8-3.4
								c0-0.4-0.1-0.8-0.1-1.2C353,80.4,356.9,76.7,357.6,79.8z"/>
							<g>
								<path class="st1" d="M351.2,87.3c0,0,0,0,0.1-0.1c0.1,0,0.2-0.1,0.3-0.2c0.3-0.2,0.7-0.5,1.1-0.9s0.7-1,0.9-1.7
									c0.2-0.7,0.2-1.5-0.2-2.3c0-0.1-0.1-0.2-0.1-0.3v-0.1l0,0l0,0l0,0l0,0l0,0v-0.1l0.1-0.1c0.1-0.1,0.1-0.2,0.2-0.2
									c0.2-0.3,0.4-0.6,0.7-0.9c0.2-0.3,0.5-0.5,0.7-0.8c0.2-0.2,0.5-0.4,0.7-0.6s0.5-0.3,0.7-0.3s0.4,0,0.6,0.1
									c0.1,0.1,0.2,0.2,0.3,0.2c0,0.1,0,0.1,0,0.1s0,0,0-0.1s-0.1-0.2-0.2-0.3c-0.1-0.1-0.4-0.2-0.7-0.2c-0.3,0-0.6,0.1-0.9,0.2
									c-0.3,0.2-0.6,0.4-0.8,0.6c-0.3,0.2-0.6,0.5-0.8,0.7c-0.3,0.3-0.5,0.6-0.8,0.9c-0.1,0.1-0.1,0.2-0.2,0.3l-0.1,0.1l-0.1,0.2
									l-0.1,0.1c0,0,0,0.1,0.1,0.1l0.1,0.2c0,0.1,0.1,0.2,0.1,0.3c0.3,0.7,0.4,1.4,0.3,2.1c-0.1,0.6-0.3,1.2-0.6,1.7
									c-0.3,0.4-0.6,0.8-0.8,1c-0.1,0.1-0.2,0.2-0.3,0.2C351.2,87.3,351.2,87.3,351.2,87.3z"/>
							</g>
						</g>
					</g>
				</g>
				<path class="st3" d="M362.2,105.2c-3.3,5.9-13.7,22.6-24.4,22.2c-10.2-0.4-15.1-13.1-16.7-18.5c6.2-1.7,13.1-3.2,13.1-3.2
					c-0.4,8.1,16-2.7,16-2.7l11.4,2L362.2,105.2z"/>
				<path class="st4" d="M334.3,105.8c0,0-6.8,0.5-9,2.1l6.4,10.4l6-7.4l7.9,7.4c0,0,8.5-9.5,11.5-13.9c0,0-3.8-1.3-6.8-1.2
					C350.2,103.2,338.3,110.7,334.3,105.8z"/>
			</g>
			<g>
				<g>
					<g>
						<g>
							<g>
								<path class="st0" d="M310.5,167.3c-0.7-0.4-1.3-0.8-1.9-0.9c-4.2-0.9-10.7-2.2-11.3-0.5c-0.6,1.7,11.5,4.3,11.5,4.3l0.5,3.4
									l-5.1-0.6l-7,2.8c0,0-0.1,1.5-0.1,3.2c0,0.2,0,0.3,0,0.5l0,0c0,0,0,0.1,0,0.2c0,0.2,0,0.4,0,0.6c0,0.9,0.1,1.8,0.2,2.6
									c0,0.1,0,0.2,0,0.3c0.1,0.5,0.2,0.9,0.3,1.3c0.1,0.4,0.3,0.7,0.5,0.9l5.8-0.9c0,0,6,5.4,7.2,5.7c0.5,0.1,10.4-2,10.4-2
									l0.5-12h-3.2C318.6,176,312.1,168.3,310.5,167.3z"/>
								<g>
									<g>
										<path class="st1" d="M297,179c0,0.2,0,0.5,0,0.7h0.1c0.8-0.2,2-0.6,3.2-0.9c1.2-0.3,2.4-0.5,3.3-0.6c0.2,0,0.4,0,0.6,0
											s0.3,0,0.5,0c0.3,0,0.4,0,0.4,0s-0.1-0.1-0.4-0.2c-0.1-0.1-0.3-0.1-0.5-0.2c-0.2-0.1-0.4-0.1-0.6-0.2
											c-0.9-0.2-2.3-0.3-3.7,0C298.7,178,297.7,178.5,297,179z"/>
									</g>
								</g>
								<g>
									<path class="st1" d="M297.2,182.9c0,0.1,0,0.2,0,0.3c0.2-0.1,0.5-0.2,0.9-0.3c0.8-0.2,2-0.6,3.2-0.9
										c1.2-0.3,2.4-0.5,3.2-0.6c0.2,0,0.4,0,0.6,0s0.3,0,0.5,0c0.3,0,0.4,0,0.4,0s-0.1-0.1-0.4-0.2c-0.1-0.1-0.3-0.1-0.5-0.2
										c-0.2-0.1-0.4-0.1-0.6-0.2c-0.9-0.2-2.3-0.3-3.7,0c-1.4,0.4-2.4,1-3.1,1.5C297.6,182.6,297.4,182.8,297.2,182.9z"/>
								</g>
							</g>
						</g>
					</g>
				</g>
				<polygon class="st0" points="321.9,176.1 347,171.7 349.6,188.7 321.4,188.1 				"/>
			</g>
			<path class="st3" d="M370.8,106.7c0,0,12.1,10.6,14.2,14.6s12.9,59.9,10.5,63.9c-2.4,4.1-45.9,10.5-45.9,10.5s-7.3-12.3-4.7-28.8
				l25.2-5l-3.1-7.7L370.8,106.7z"/>
		</g>
		<g>
			<g>
				<g>
					<g>
						<path class="st12" d="M150.4,269.3c-1.8,14.2-3.9,26.6-4.7,29.1c-1.9,5.4-6.8,91.7-6.8,91.7l-11.5,0.3l-2.8,0.1
							c0,0-4.5-62.6-4.2-74.4c0-0.2,0-0.4,0-0.6c0-0.4,0.1-0.8,0.1-1c1.5-7.6,6.4-22,6.4-22c-0.2-1.2-0.5-11.2-0.7-22.8
							c1.2,0.1,2.5,0.1,3.7,0.1c0.3,0,0.6,0,0.9,0C137.3,270,143.9,269.9,150.4,269.3z"/>
						<path class="st13" d="M123.9,318.4l3.5,71.9l-2.8,0.1c0,0-4.5-62.6-4.2-74.4c0-0.2,0-0.4,0-0.6c0-0.4,0.1-0.8,0.1-1
							c1.5-7.6,6.4-22,6.4-22c-0.2-1.2-0.5-11.2-0.7-22.8c1.2,0.1,2.5,0.1,3.7,0.1c0.3,0,0.6,0,0.9,0l0.2,21L123.9,318.4z"/>
						<g>
							<g>
								<path class="st14" d="M168.6,396.8l-48.7,1.3c0.1-1.4,0.4-5.8,0.9-10.3c4.3,0.5,13.3,1.6,14.6,0.9c1.4-0.7,2-7.8,2.1-10.1
									l6.1-0.3c0.8,1.8,3,6,5.4,7.9c3.1,2.5,14.7,6.9,17.9,8.3C168,394.9,168.4,395.9,168.6,396.8z"/>
								<polygon class="st3" points="168.7,401.7 120,403 119.9,398.1 168.6,396.8 								"/>
							</g>
						</g>
					</g>
					<g>
						<path class="st12" d="M123,276c-8.2,11.7-15.8,21.8-17.7,23.6c-4.1,3.9-51.9,79.3-51.9,79.3l-7.2-5.9l-3.7-3.1
							c0,0,26.4-56.5,32.3-66.4c0.2-0.3,0.4-0.6,0.5-0.8c0.1-0.1,0.1-0.2,0.2-0.3l0.1-0.1c4.8-6,15.8-16.6,15.8-16.6
							c0.4-1.2,4.8-10.1,9.9-20.5c1.3,0.8,2.7,1.5,4,2.3C111.1,270.6,117,273.5,123,276z"/>
						<path class="st13" d="M105.4,267.4l-9.6,18.7l-19,21.1l-30.6,65.6l-3.7-3.1c0,0,26.4-56.5,32.3-66.4c0.2-0.3,0.4-0.6,0.5-0.8
							c0.1-0.1,0.1-0.2,0.2-0.3l0.1-0.1c4.8-6,15.8-16.6,15.8-16.6c0.4-1.2,4.8-10.1,9.9-20.5C102.7,265.9,104.1,266.7,105.4,267.4z
							"/>
						<g>
							<g>
								<path class="st14" d="M80.2,397.4L36.4,376c0.7-1.1,2.9-4.7,5.4-8.4c2.6,2.6,7.5,7.4,9.7,7.7c2.2,0.3,6.1-5.6,8.1-9.1
									l6.9,3.2c-0.1,2-0.1,6.7,1.1,9.6c1.6,3.7,9.9,12.9,12,15.6C80.6,395.6,80.5,396.6,80.2,397.4z"/>
								<polygon class="st3" points="78,401.8 34.3,380.5 36.4,376 80.2,397.4 								"/>
							</g>
						</g>
					</g>
					<g>
						<path class="st15" d="M160.2,356c0,0-69.8,6.8-112.2-13.1l36.6-104.6c0,0-0.9-35,0.7-39.7c0.4-1,3.4-1.8,7.9-2.4
							c16.2-2.3,51.5-2.5,51.5-2.5s12.7,122.1,15.2,157.6C160,353.1,160.1,354.7,160.2,356z"/>
						<path class="st16" d="M160.2,356c0,0-69.8,6.8-112.2-13.1l36.6-104.6c0,0-0.9-35,0.7-39.7c0.4-1,3.4-1.8,7.9-2.4
							c0.2,12.8,0.6,41.5-0.1,44.4c-0.9,3.6-32,95.2-32,95.2l98.8,15.6C160,353.1,160.1,354.7,160.2,356z"/>
					</g>
				</g>
				<path class="st4" d="M145.4,119.7c-0.6,3.3-1.3,6.7-1.9,10c-0.1,0.3-0.2,0.6-0.5,0.6c-0.2,0-0.2-0.3-0.1-0.4H85.3
					c-4-3.8-6.4-9.4-6.6-14.7c-0.3-5.3,1.6-10.7,5.1-14.8c0.2-0.3,0.5-0.6,0.8-0.9c2.8-3,6.1-5.8,6.4-9.7c0.2-2.8-1.4-5.3-2-8
					c-0.5-2.2-0.4-4.4,0.4-6.5c0.9-2.6,2.7-4.9,3.3-7.5c0.9-4.1,0.6-7.2,3.5-10.7c1.3-1.6,2.8-3.1,4.5-4.4
					c5.2-4.3,11.9-7.3,18.9-6.9c6.9,0.4,13.6,4.2,16.8,9.9c3,5.2,3,11.4,4.9,17c1,3,2.6,5.9,3.4,8.9c0.7,2.8,0.8,5.7,0.3,8.5
					c0,0.2-0.1,0.5-0.2,0.7c-0.7,2.7-1.9,5.3-1.9,8.1c0,4,2.5,7.7,3.2,11.7C146.6,113.6,146,116.7,145.4,119.7z"/>
				<g>
					<g>
						<g>
							<path class="st12" d="M109.2,102.6c0,0,8.9,6.1,10.7,5.5c1.7-0.6,4.2-4.1,4.2-4.1c-0.4-0.4-2.9-2.2-2.8-3.5
								c0.3-3.1,1.4-7.5,1.4-7.5l-10.5-3.6c0,0-0.4,3-1,6.2C110.6,98.7,109.8,102.1,109.2,102.6z"/>
							<path class="st13" d="M111.2,95.5c2.9,2.2,6.4,4.7,7.6,5.1c0.9,0.3,1.8,0.1,2.5-0.2c0.3-3.1,1.4-7.5,1.4-7.5l-10.5-3.6
								C112.2,89.3,111.8,92.3,111.2,95.5z"/>
							<g>
								<path class="st17" d="M106.5,59.9c5.8-6.6,15.4-8.6,23-4.2c1.7,1,3.1,2.1,3.8,3.4c2.5,5,6.1,23.5,2.2,32.4
									c-3.8,8.9-9.9,7.7-12,7c-2.1-0.6-12.2-4.8-14.6-8.1c-2.3-3.3-7.3-20.3-6.2-24.7C103,64.3,104.5,62.1,106.5,59.9z"/>
								<path class="st12" d="M105.8,58.6c5.8-6.6,15.4-8.6,23-4.2c1.7,1,3.1,2.1,3.8,3.4c2.5,5,6.1,23.5,2.2,32.4s-9.9,7.7-12,7
									c-2.1-0.6-12.2-4.8-14.6-8.1c-2.3-3.3-7.3-20.3-6.2-24.7C102.3,63,103.9,60.8,105.8,58.6z"/>
								<path class="st4" d="M131.2,53.1c-1.8-1.5-4.2-2.3-6.5-2.8c-6.4-1.1-13.3,0.5-18.6,4.4c-2.5,1.9-4.7,4.3-5.9,7.2
									c-1.2,3-1.4,6.3-1,9.6c0.4,3.2,1.5,6.7,2.4,9.8c0,0,1.2-2.3,2.1-2.3c0.8,0,2.5,1.4,2.5,1.4c1.3-1.3,2.6-1.5,2.8-9.9
									c0-1.2-0.8-3.1-2-4.1c1.1-1.1,2.1-2.3,3.1-3.5c0.2-0.3,0.4-0.6,0.6-1c0.1,0.3,0.1,0.6,0.1,0.8c0,1-0.4,2.1-1.2,2.7
									c3.3,0.3,6.7-1.9,7.7-5c1.1,1.1,0.7,3.2-0.8,3.8c1.8,0.9,4,0.9,5.8,0s3.1-2.6,3.5-4.6c0.7,0.5,1.1,1.5,0.8,2.3
									c-0.2,0.8-1,1.5-1.9,1.6c1.7,1.1,3.9,1.3,5.8,0.4c1.8-0.8,3.1-2.7,3.4-4.7C134.2,57,133,54.6,131.2,53.1z"/>
								<path class="st12" d="M107.9,81.3c-0.5-0.3-3.3-3.8-5.2-1.6c-1.9,2.2-2.4,5.8-0.6,7.8c1.6,1.8,3.9,3.8,6.7,3.1L107.9,81.3z"
									/>
								<path class="st13" d="M102.8,82.4c-0.1,0.5,0,1,0.1,1.4c0.7,2,2.6,3.5,4.4,4.9c-0.6-1-0.8-2.1-0.7-3.1
									c0-0.4,0.1-0.7,0.1-1.1C106.7,83,103.4,79.5,102.8,82.4z"/>
								<g>
									<path class="st18" d="M108.2,89.3C108.2,89.3,108.2,89.3,108.2,89.3c-0.2-0.1-0.3-0.2-0.4-0.3c-0.2-0.2-0.6-0.4-0.9-0.8
										s-0.6-0.9-0.8-1.6c-0.1-0.6-0.1-1.4,0.2-2.1c0-0.1,0.1-0.2,0.1-0.3v-0.1l0,0l0,0l0,0l0,0l0,0V84l-0.1-0.1
										c0-0.1-0.1-0.1-0.1-0.2c-0.2-0.3-0.4-0.6-0.6-0.8c-0.2-0.3-0.4-0.5-0.6-0.7s-0.4-0.4-0.6-0.6c-0.2-0.1-0.4-0.2-0.6-0.3
										c-0.2,0-0.4,0-0.5,0.1s-0.2,0.2-0.2,0.2c0,0.1,0,0.1,0,0.1s0,0,0-0.1s0.1-0.2,0.2-0.3c0.1-0.1,0.3-0.2,0.6-0.2
										c0.3,0,0.5,0.1,0.8,0.2c0.2,0.1,0.5,0.3,0.7,0.5s0.5,0.4,0.7,0.7c0.2,0.3,0.4,0.5,0.7,0.8c0.1,0.1,0.1,0.2,0.1,0.2l0.1,0.1
										l0.1,0.2l0.1,0.1c0,0,0,0.1-0.1,0.1l-0.1,0.2c0,0.1-0.1,0.1-0.1,0.2c-0.3,0.6-0.3,1.3-0.3,1.9c0.1,0.6,0.3,1.1,0.5,1.5
										s0.5,0.7,0.7,0.9C107.9,89.1,108,89.1,108.2,89.3C108.1,89.2,108.2,89.3,108.2,89.3z"/>
								</g>
							</g>
						</g>
					</g>
				</g>
				<g>
					<path class="st19" d="M83.5,201.2c21.8,6.1,65.9-4.1,65.9-4.1l-7.6-39.9c0,0,6.9-14.5,6.6-24.3c-0.3-9.8-11.3-24.6-11.3-24.6
						l-0.8-0.3l-3.4-1.1l-8.9-2.8l-14.9-1.4l-10.5,3.2l-4.7,1.7l-2.7,0.9l2,44.6L83.5,201.2z"/>
					<path class="st12" d="M98.7,105.8c2.3,4.2,9.8,15.7,21.1,14.7c11-1,12.9-10.1,13.2-13.7l-8.9-2.8l-14.9-1.4L98.7,105.8z"/>
					<path class="st3" d="M98.7,105.8c0,0,6.3,19.9,11.8,19.2c5.5-0.7,9.2-4.6,9.2-4.6s7.4,5.5,9.7,4.6c2.3-0.9,3.4-18.3,3.4-18.3
						l-9.2-3.5c0,0-1.5,7.7-5.3,7.4c-3.8-0.3-9.3-8.1-9.3-8.1L98.7,105.8z"/>
				</g>
				<g>
					<g>
						<g>
							<g>
								<g>
									<path class="st20" d="M145.7,177.7c0,0,5.5-0.3,6.5-1.1l-5.9-28.7l-9,3.1C137.3,151,144.9,176.1,145.7,177.7z"/>
									<g>
										<path class="st21" d="M175.6,350.6c-2.9-4.9-7.6-8.4-11.9-11.3l-1.5-1c-3.9-2.6-7.9-5.3-10.9-8.9
											c-5.4-6.6-7.6-16.6-5.8-27.6c1.1-6.9,3.5-13.6,5.8-20.1c1.5-4.1,3-8.4,4.1-12.7c8.8-31.7,0.6-65.1-6.5-94.6l-1.8,0.4
											c7.1,29.3,15.2,62.4,6.5,93.7c-1.2,4.2-2.7,8.4-4.1,12.5c-2.3,6.6-4.7,13.4-5.9,20.4c-1.1,6.8-1.7,19.5,6.2,29.1
											c3.1,3.8,7.3,6.6,11.3,9.2l1.5,1c4.1,2.8,8.6,6.1,11.3,10.7c2.3,4,3.3,9.9,0.1,14.1c-2,2.7-5.4,4.4-10.7,5.4
											c-6.5,1.2-16.9,0.6-23.4-0.7l-0.1,2.1c3.3,0.6,10.5,1.4,13.9,1.4c3.3,0,6.6-0.3,9.9-0.9c5.7-1.1,9.6-3.1,11.9-6.1
											C179.2,362,178.2,355.2,175.6,350.6z"/>
									</g>
									<g>
										<path class="st14" d="M135,140.2l0.1-0.1c0.4-0.5,0.9-0.8,1.4-1.2c0.5-0.3,0.9-0.5,1.4-0.7c0.8-0.3,1.6-0.4,2.4-0.5
											c0.6,0,1.1,0,1.7,0.1c0.7,0.1,1.4,0.4,2.1,0.7c0.5,0.3,1,0.6,1.5,1c0.2,0.1,0.3,0.3,0.4,0.4c0.3,0.3,0.7,0.7,0.9,1.1
											c0.4,0.5,0.7,1.1,0.9,1.6c0.3,0.8,0.5,1.5,0.5,2.3c0,0.2,0,0.4,0,0.6c0,0.8-0.2,1.6-0.4,2.4c-0.2,0.5-0.4,1-0.7,1.4
											c-0.3,0.5-0.7,1-1.1,1.4l-0.1,0.1c-0.5,0.5-1.1,0.9-1.6,1.2c-0.7,0.4-1.4,0.6-2.1,0.8c-0.7,0.2-1.3,0.2-2,0.2
											c-0.8,0-1.6-0.2-2.4-0.5c-0.6-0.2-1.1-0.5-1.6-0.8c-0.4-0.3-0.8-0.6-1.1-0.9c-0.1-0.1-0.3-0.3-0.4-0.4
											c-0.4-0.5-0.7-1-1-1.5c-0.4-0.7-0.6-1.4-0.8-2.1c-0.2-1-0.2-2.1,0-3.1c0.1-0.7,0.4-1.4,0.7-2.1
											C134.1,141.3,134.5,140.7,135,140.2z"/>
										<path class="st21" d="M137.4,142.6L136,144l-2.2-2.2c-0.4,0.7-0.6,1.4-0.7,2.1l1.5,1.5l-1.5,1.6c0.1,0.7,0.4,1.4,0.8,2.1
											l2.2-2.3l1.3,1.2l-2.5,2.5c0.1,0.1,0.3,0.3,0.4,0.4c0.3,0.3,0.7,0.6,1.1,0.9l2.4-2.4l1.3,1.2l-2,2.1
											c0.8,0.3,1.6,0.4,2.4,0.5l1.1-1.1l0.9,0.9c0.7-0.2,1.4-0.4,2.1-0.8l-1.6-1.6l1.4-1.4l1.8,1.8l0.1-0.1
											c0.4-0.5,0.8-0.9,1.1-1.4l-1.7-1.7l1.1-1.1l1.3,1.3c0.3-0.8,0.4-1.6,0.4-2.4l-0.3-0.3l0.3-0.3c-0.1-0.8-0.2-1.6-0.5-2.3
											l-1.2,1.2l-1.3-1.2l1.6-1.6c-0.3-0.4-0.6-0.7-0.9-1.1c-0.1-0.1-0.3-0.3-0.4-0.4l-1.7,1.7l-1.3-1.2l1.4-1.5
											c-0.7-0.3-1.4-0.6-2.1-0.7l-0.8,0.8l-0.9-0.9c-0.8,0-1.6,0.2-2.4,0.5l1.9,1.9l-1.1,1.1l-2.3-2.2c-0.5,0.3-1,0.7-1.4,1.2
											l-0.1,0.1L137.4,142.6z M144,144.1l1.3,1.2l-1.1,1.1l-1.3-1.2L144,144.1z M141.6,146.6l1.3,1.2l-1.4,1.4l-1.3-1.2
											L141.6,146.6z M141.3,141.5l1.3,1.2l-1.1,1.1l-1.3-1.2L141.3,141.5z M138.9,144l1.3,1.2l-1.4,1.4l-1.3-1.2L138.9,144z"/>
									</g>
								</g>
								<path class="st12" d="M139,155.8c0.5-0.7,1-1.4,1.6-1.8c3.8-2.8,9.8-7,11.1-5.6s-9.5,9.5-9.5,9.5l1,3.6l4.8-2.9l8.3-0.4
									c0,0,0.7,1.4,1.5,3.2c0.1,0.2,0.2,0.3,0.2,0.5l0,0c0,0,0,0.1,0.1,0.2c0.1,0.2,0.2,0.4,0.3,0.6c0.4,0.9,0.7,1.8,1,2.7
									c0,0.1,0.1,0.2,0.1,0.3c0.1,0.5,0.2,1,0.3,1.4c0.1,0.5,0.1,0.8-0.1,1.1l-6.2,1.7c0,0-3.6,8.1-4.6,8.9
									c-0.4,0.3-11.3,2.7-11.3,2.7l-6-11.7l3.2-1.4C134.9,168.2,137.9,157.5,139,155.8z"/>
								<g>
									<g>
										<path class="st18" d="M157.9,161.4c0.1,0.2,0.2,0.5,0.3,0.7c-0.1,0-0.1,0-0.2,0c-1,0.1-2.2,0.3-3.6,0.6
											c-1.4,0.3-2.6,0.6-3.5,0.9c-0.2,0.1-0.4,0.2-0.6,0.2c-0.2,0.1-0.3,0.2-0.5,0.2c-0.3,0.1-0.4,0.2-0.4,0.2s0.1-0.1,0.3-0.4
											c0.1-0.1,0.2-0.3,0.4-0.4c0.2-0.1,0.3-0.3,0.5-0.5c0.8-0.7,2.1-1.4,3.7-1.6C155.7,161.1,156.9,161.2,157.9,161.4z"/>
									</g>
								</g>
								<g>
									<path class="st18" d="M159.4,165.3c0,0.1,0.1,0.2,0.1,0.3c-0.3,0-0.6,0.1-1,0.1c-1,0.1-2.2,0.3-3.6,0.6
										c-1.4,0.3-2.6,0.6-3.5,0.9c-0.2,0.1-0.4,0.2-0.6,0.2c-0.2,0.1-0.3,0.2-0.4,0.2c-0.3,0.1-0.4,0.2-0.4,0.2s0.1-0.1,0.3-0.4
										c0.1-0.1,0.2-0.3,0.4-0.4c0.2-0.1,0.3-0.3,0.5-0.5c0.8-0.7,2.1-1.4,3.7-1.6c1.5-0.3,2.9-0.1,3.8,0.1
										C158.9,165.2,159.2,165.3,159.4,165.3z"/>
								</g>
							</g>
						</g>
					</g>
				</g>
				<path class="st19" d="M91.3,108.5c0,0-14.9,5.3-15.6,6.6c-0.7,1.4-12.2,72.4-10.5,75.4c1.7,3,15.2,10.5,18.3,10.6
					c3,0.2,55-16.6,55-16.6l-6.9-21.4l-40.3,6.8l2.8-35L91.3,108.5z"/>
				<path class="st22" d="M82.8,126.4c0,0,4.8,8.4,5,13.2c0.2,4.7-3.5,34.3-3.5,34.3l44.1-7l5.5,16L77,198.8c0,0,33.1-3.5,61.4-14.1
					l-6.9-21.4l-41.2,5.6c0,0,2.9-22.9,0.8-30.1C90.1,135.1,82.8,126.4,82.8,126.4z"/>
				<g>
					<path class="st11" d="M144.9,90.1c-0.4-1.2-0.8-2.3-1.2-3.5c-1.9-5.3-3.7-10.5-5.2-15.9c-1.5-5.7-2.8-11.8-7.2-15.7
						c-0.9,1.4-2.2,2.5-3.6,3.2c0.1-2-0.6-4-1.8-5.5c-1.4,3-3.9,5.4-7,6.6c-0.1-1.9-0.6-3.8-1.4-5.6c-1.3,2.3-3.4,4-5.9,4.8
						c-0.2-1.1-0.4-2.3-0.6-3.4c-2.3,3.6-5.6,6.5-9.5,8.4c1.8,3.8,1.4,8.6-1.1,12.1c-0.3-0.8-0.7-1.6-1.3-2.2
						c-0.6-0.6-1.6-0.8-2.3-0.4c-0.3,0.2-0.6,0.5-0.7,0.9c-1.1,1.7-1.8,3.6-2.1,5.6c-0.4,2.7-0.1,5.5-0.6,8.2
						c-0.5,3.5-2.3,6.8-5,9.2c-1.1,1-2.4,1.9-3.7,2.7c2.8-3,6.1-5.8,6.4-9.7c0.2-2.8-1.4-5.3-2-8c0-0.2-0.1-0.4-0.1-0.6l0,0
						c-0.3-1.9-0.2-4,0.5-5.8c0.9-2.6,2.7-4.9,3.3-7.5c0.9-4.1,0.6-7.2,3.5-10.7c1.3-1.6,2.8-3.1,4.5-4.4c5.2-4.3,11.9-7.3,18.9-6.9
						c6.9,0.4,13.6,4.2,16.8,9.9c2.8,4.8,3,10.5,4.5,15.8c0.1,0.4,0.2,0.8,0.4,1.2c1,3,2.6,5.9,3.4,8.9
						C145.4,84.4,145.5,87.3,144.9,90.1z"/>
					<path class="st3" d="M140.8,71.4c-1.2-2.2-2.2-4.7-3.1-7.1c-1.7-4.6-3.8-9.5-7.9-12c-0.2,0.9-0.5,1.9-0.7,2.8
						c-0.6-2.3-2.1-4.4-4.1-5.7c-1.6,1.5-3.5,2.6-5.5,3.4c0.2-1.6-0.1-3.2-0.8-4.6c-2,2.4-4.6,4.3-7.5,5.5c-0.2-0.9-0.6-1.8-1.1-2.6
						c-2.9,4.9-7.2,8.9-12.3,11.4c0.8,2.5,1,5.3,0.6,7.9c-0.6-1-1.6-1.8-2.7-2.1c0.3,1.7-0.5,3.5-1.6,4.9s-2.4,2.6-3.4,4
						c-0.8,1.2-1.4,2.6-1.8,4c-0.3-1.9-0.2-4,0.5-5.8c0.9-2.6,2.7-4.9,3.3-7.5c0.9-4.1,0.6-7.2,3.5-10.7c1.3-1.6,2.8-3.1,4.5-4.4
						c5.2-4.3,11.9-7.3,18.9-6.9c6.9,0.4,13.6,4.2,16.8,9.9C139.1,60.5,139.3,66.2,140.8,71.4z"/>
				</g>
				<g>
					<g>
						<g>
							<g>
								<g>
									<g>
										<path class="st12" d="M203,57.4l-2.1,2.1l-0.3,3.9l-0.1,0.8l-4.1-0.8l-0.9-0.2l-3.3-0.6l-2.5-0.4c0.1-0.7,0.1-1.2,0.1-1.3
											l0,0c0,0-0.8-0.3-1.8-0.9c-0.1-0.1-0.3-0.2-0.4-0.2c-0.3-0.2-0.5-0.3-0.8-0.5c-0.2-0.1-0.4-0.3-0.6-0.4
											c-0.2-0.1-0.4-0.3-0.6-0.4c-0.2-0.1-0.4-0.3-0.5-0.5l0,0c-0.4-0.4-0.8-0.8-1.2-1.2c-0.2-0.3-0.4-0.6-0.6-0.9l0,0
											c-0.1-0.1-0.2-0.3-0.2-0.5l0,0c-0.1-0.2-0.1-0.3-0.2-0.5l0,0c-0.1-0.2-0.1-0.3-0.1-0.5l0,0c-0.1-0.5-0.2-0.9-0.3-1.4
											s-0.2-0.9-0.3-1.4c-0.3-1.3-0.8-2.5-1.5-3.6c-0.1-0.1-0.2-0.2-0.2-0.4c-0.3-0.5-0.7-0.9-1-1.4c-0.2-0.2-0.3-0.5-0.5-0.7
											c-0.1-0.1-0.2-0.3-0.2-0.4s-0.1-0.3-0.2-0.4c-0.2-0.4-0.3-0.8-0.3-1.3c-0.1-0.4,0-0.9,0.1-1.3c0-0.1,0.1-0.3,0.1-0.4v-0.1
											c0,0,0-0.1,0.1-0.1c0-0.1,0.1-0.1,0.1-0.2c0.1,0,0.1-0.1,0.2-0.1h0.1c0.1,0,0.3,0,0.4,0.1l0,0c0,0,0,0,0.1,0h0.1
											c3,1.5,5.4,4,6.8,7c0,0,5.8-20,7.1-19.9c0.5,0,0.9,0.2,1.2,0.4c0.5,0.3,0.8,0.6,0.8,0.6s-2.1,14.2-1.7,14.8
											c0.3,0.4,2.8-5.6,4.6-9.3c0.7-1.5,1.4-2.6,1.7-2.7c0.3-0.1,0.8,0,1.2,0.2c0.2,0.1,0.5,0.3,0.7,0.5
											c0.1,0.1,0.2,0.1,0.2,0.2c0.1,0.1,0.2,0.2,0.3,0.2c0.7,0.5,1.2,1.1,1.2,1.1s0.2,0,0.4,0.1h0.1c0.1,0,0.1,0,0.2,0
											c0.1,0,0.2,0,0.3,0.1c0.3,0.1,0.6,0.2,0.9,0.3c0.4,0.1,0.7,0.3,1.1,0.4C207.9,36.1,204.3,55.7,203,57.4z"/>
										<g>
											<g>
												<path class="st18" d="M202.6,33.4c-0.1,0.4-0.2,0.7-0.3,1.1c-0.7,2.1-1.6,4-2.3,5.3c-0.7,1.2-1.2,2-1.2,2.1
													c0-0.1,0.2-1,0.5-2.3c0.4-1.4,0.9-3.4,1.6-5.5c0.2-0.5,0.3-1,0.5-1.5C201.7,32.8,202.2,33.1,202.6,33.4z"/>
											</g>
											<g>
												<path class="st1" d="M205.7,35c-1.1,3.4-2.5,6-2.6,6.2c0-0.2,0.2-3.1,1.1-6.6C204.6,34.7,205.1,34.8,205.7,35z"/>
											</g>
										</g>
										<path class="st17" d="M192.3,61.5c0,0.3,0,0.7,0,1c0,0.1,0,0.1,0,0.2l-2.5-0.4c0.1-0.7,0.1-1.2,0.1-1.3l0,0
											c0,0-0.8-0.3-1.8-0.9c-0.1-0.1-0.3-0.2-0.4-0.2c-0.3-0.2-0.5-0.3-0.8-0.5c-0.2-0.1-0.4-0.3-0.6-0.4
											c-0.2-0.1-0.4-0.3-0.6-0.4c-0.2-0.1-0.4-0.3-0.5-0.5l0,0c-0.4-0.4-0.8-0.8-1.2-1.2c-0.2-0.3-0.4-0.6-0.6-0.9l0,0
											c-0.1-0.1-0.2-0.3-0.2-0.5l0,0c-0.1-0.2-0.1-0.3-0.2-0.5l0,0c-0.1-0.2-0.1-0.3-0.1-0.5l0,0c-0.1-0.5-0.2-0.9-0.3-1.4
											s-0.2-0.9-0.3-1.4c-0.3-1.3-0.8-2.5-1.5-3.6c-0.1-0.1-0.2-0.2-0.2-0.4c-0.3-0.5-0.7-0.9-1-1.4c-0.2-0.2-0.3-0.5-0.5-0.7
											c-0.1-0.1-0.2-0.3-0.2-0.4s-0.1-0.3-0.2-0.4c-0.2-0.4-0.3-0.8-0.3-1.3c-0.1-0.4,0-0.9,0.1-1.3c0-0.1,0.1-0.3,0.1-0.4v-0.1
											c0,0,0-0.1,0.1-0.1c0-0.1,0.1-0.1,0.1-0.2c0.1,0,0.1-0.1,0.2-0.1h0.1c0.1,0,0.3,0,0.4,0.1l0,0l0,0c0,0.3,0,0.5,0.1,0.7
											c0.3,2,1.6,3.6,2.5,5.4c1.2,2.5,1.5,5.3,3.1,7.5c1.4,1.9,3.5,3,5.5,4.2c0.6,0.4,1.2,0.8,1.5,1.5
											C192.2,61,192.3,61.2,192.3,61.5z"/>
									</g>
									<g>
										<path class="st23" d="M196.3,58.5c0,0,0-0.1,0.1-0.4c0.1-0.3,0.1-0.7,0.1-1.1c0-1-0.3-2.3-1.1-3.6s-2-2.1-2.9-2.4
											c-0.4-0.2-0.8-0.3-1.1-0.4c-0.3,0-0.4-0.1-0.4-0.1s0.1,0.1,0.3,0.3s0.5,0.4,0.8,0.8c0.6,0.6,1.4,1.6,2.1,2.6
											c0.7,1.1,1.3,2.1,1.6,3c0.2,0.4,0.3,0.8,0.4,1C196.2,58.4,196.3,58.5,196.3,58.5z"/>
									</g>
								</g>
							</g>
						</g>
					</g>
					<path class="st19" d="M202.4,63c0,0-8.6,39-9,41.1s-47.6,29.5-47.6,29.5l-8.7-25.4l35.5-15.5L184,61.5l4,0.3l2.8,0.2l3.9,0.3
						l5.7,0.5L202.4,63z"/>
					<path class="st22" d="M176.5,98.8c0,0-2.9-4.7-2.5-5.5s7.3-0.9,7.1-0.3s-5,1.6-5,1.6S178.8,100.2,176.5,98.8z"/>
				</g>
			</g>
		</g>
		<g>
			<path class="st24" d="M185.1,135.1c-1.3-1.4-3.3-1.6-5.2-1.8c-1.2-0.2-2.5-0.3-3.7-0.4c-1.1,1.4-2.1,2.8-2.8,4.5
				c0.2,0,0.3,0.1,0.5,0.1c2,0.2,4.1,0,6.1,0.1c0.4,0,0.8,0,1.2,0.1c-0.7,0.5-3.8,3.7-4.8,4.9s-5.3,6.6-5.4,7.8
				c-0.2,1.7,0.4,3.3,1.5,4.5c2.4,2.6,7.3,2.4,7.4-1.8c0.1-2.2-1.9-5.9-4.4-6.1c0.9-1.1,1.8-2.4,2.6-3.3c0.9-1,6.5-6.3,6.8-6.4l0,0
				C185.6,136.7,185.7,135.7,185.1,135.1z"/>
			<path class="st24" d="M251.2,24.7c-0.7-2.1-3.8-4.9-6.3-4.2c0.5-1.4,0.8-2.9,1.2-4c0.5-1.2,3.9-8.1,4.2-8.4l0,0
				c0.5-0.6,0.3-1.6-0.5-2c-1.5-0.7-12.1,0.3-15.6,0.8l-1.5,0.2c-0.4,0.8-2.9,8.7-3.3,10.2c-0.4,1.6-2,8.2-1.5,9.4
				c0.6,1.6,1.8,2.8,3.3,3.4c3.2,1.3,7.6-1,5.9-4.9c-0.9-2-4.3-4.5-6.6-3.6c0.3-1.4,0.5-2.9,0.9-4.1c0.2-0.7,1.2-3.3,2-5.5
				c3-0.5,10.8-1.3,12.5-1.8c0.4-0.1,0.8-0.2,1.1-0.3c-0.4,0.7-2.3,4.8-2.8,6.3c-0.5,1.5-2.7,8-2.4,9.2c0.4,1.6,1.5,2.9,3,3.7
				C248,30.6,252.6,28.7,251.2,24.7z"/>
			<path class="st24" d="M207.2,115c0.7-2.1,3.8-4.9,6.3-4.2c-0.5-1.4-0.8-2.9-1.2-4c-0.5-1.2-3.9-8.1-4.2-8.4l0,0
				c-0.5-0.6-0.3-1.6,0.5-2c1.5-0.7,12.1,0.3,15.6,0.8l1.5,0.2c0.4,0.8,2.9,8.7,3.3,10.2c0.4,1.6,2,8.2,1.5,9.4
				c-0.6,1.6-1.8,2.8-3.3,3.4c-3.2,1.3-7.6-1-5.9-4.9c0.9-2,4.3-4.5,6.6-3.6c-0.3-1.4-0.5-2.9-0.9-4.1c-0.2-0.7-1.2-3.3-2-5.5
				c-3-0.5-10.8-1.3-12.5-1.8c-0.4-0.1-0.8-0.2-1.1-0.3c0.4,0.7,2.3,4.8,2.8,6.3s2.7,8,2.4,9.2c-0.4,1.6-1.5,2.9-3,3.7
				C210.4,120.9,205.9,119,207.2,115z"/>
			<path class="st24" d="M278.8,39.4c1.8-0.6,3.7,0.2,5.4,0.9c1.1,0.4,2.3,0.9,3.4,1.4c0.3,1.8,0.5,3.5,0.3,5.3
				c-0.2,0-0.3-0.1-0.5-0.2c-1.8-0.8-3.6-1.9-5.4-2.8c-0.4-0.2-0.7-0.3-1.1-0.5c0.3,0.8,1.5,5.1,1.8,6.6c0.3,1.6,1.5,8.3,1.1,9.4
				c-0.7,1.6-1.9,2.7-3.5,3.2c-3.3,1.1-7.6-1.4-5.7-5.2c1-1.9,4.5-4.3,6.8-3.3c-0.3-1.4-0.4-2.9-0.7-4.1c-0.3-1.3-2.7-8.6-2.9-8.9
				l0,0C277.6,40.6,277.9,39.7,278.8,39.4z"/>
		</g>
	</g>
</g>
</svg>
