<?xml version="1.0" encoding="utf-8"?>
<!-- Generator: Adobe Illustrator 27.1.1, SVG Export Plug-In . SVG Version: 6.00 Build 0)  -->
<svg version="1.1" id="Layer_1" xmlns="http://www.w3.org/2000/svg" xmlns:xlink="http://www.w3.org/1999/xlink" x="0px" y="0px"
	 viewBox="0 0 339.6 366.3" style="enable-background:new 0 0 339.6 366.3;" xml:space="preserve">
<style type="text/css">
	.st0{fill:#FCB316;}
	.st1{fill:#171818;}
	.st2{fill:#FFCF78;}
	.st3{fill:#424257;}
	.st4{fill:#5F5E74;}
	.st5{fill:#F58041;}
	.st6{fill:#F15A5C;}
	.st7{fill:#FFFFFF;}
	.st8{fill:#323044;}
	.st9{fill:#EA5124;}
	.st10{fill:#F79E83;}
	.st11{fill:#F47D72;}
	.st12{fill:#FBBE95;}
	.st13{fill:#D04B57;}
	.st14{fill:#DBE4F4;}
	.st15{fill:#EDF1F9;}
	.st16{fill:#F19C20;}
	.st17{fill:#773332;}
	.st18{fill:#456A99;}
	.st19{fill:#935652;}
	.st20{fill:#A96F6C;}
	.st21{fill:#00A999;}
	.st22{fill:#008574;}
	.st23{fill:#434343;}
	.st24{fill:#C6C5CD;}
	.st25{fill:#E3E4E4;}
	.st26{fill:#00A7C2;}
	.st27{fill:#40C5E8;}
	.st28{fill:#C8E9F2;}
</style>
<g>
	<g>
		<g>
			<path class="st0" d="M54.9,48.8c0,0,63.1-5.6,67,0c4,5.6,5.5,26.6,5.5,26.6H56.1L54.9,48.8z"/>
			<path class="st1" d="M74.8,69.1h-2.9c1-7.4-0.5-15.2-4.4-21.6c1-0.9,2.8-1.1,3.9-0.3C74.6,54.3,75.4,61.5,74.8,69.1z"/>
			<path class="st1" d="M115.9,71.1h-3.4c1.2-8.7-0.6-17.9-5.2-25.4c1.2-1.1,3.3-1.3,4.6-0.3C115.6,53.6,116.5,62.1,115.9,71.1z"/>
			<path class="st2" d="M66.5,62.2c0,7.4-5.2,13.5-11.6,13.5s-11.6-6-11.6-13.5c0-7.4,5.1-13.4,11.5-13.5h0.1c0.7,0,1.4,0.1,2,0.2
				C62.4,50.1,66.5,55.6,66.5,62.2z"/>
			<path class="st3" d="M36.5,102c0,0-7.1,57.8-7.1,63.9c0,6.1,10.2,28.7,13.4,31.1c3.2,2.4,27.1,0,30.3-6.4s0-69.9,0-69.9
				L60.3,89.8L36.5,102z"/>
			<path class="st4" d="M54.9,75.3c0,0-16.7,3.4-19.8,8.8c-3,5.4-8.1,39.8-8.1,39.8s7.1-4,9.5-7C38.9,113.8,41,105,41,105l17.5-8.7
				L54.9,75.3z"/>
			<g>
				<path class="st5" d="M127.5,73.8l2.9,44l2.9,43.8c0,0,26-2.4,29.1-9.1c1.6-3.5-3.9-22.6-9.7-40.3c-5.3-16.1-11-31.1-12-32.4
					C138.5,77.2,127.5,73.8,127.5,73.8z"/>
			</g>
			<g>
				<g>
					<path class="st6" d="M77.2,355.8c0.4-0.7,0.7-1.7,0.2-2.7c-1.6-2.9-7.8-13-8.7-16.7c-0.7-2.9,0.2-7.3,0.6-9.1l-17.1-11.8
						c-4.3,3.4-11.4,11-12.9,12.6L77.2,355.8z"/>
					<polygon class="st7" points="74.4,359.6 36.5,331.9 39.4,328.1 77.2,355.8 					"/>
					<g>
						<path class="st7" d="M64.7,335.2c-0.1,0-0.1,0-0.2,0.1c-0.4,0.2-0.9,0.6-0.6,1.1c0.1,0.3,0.4,0.4,0.7,0.6c1,0.5,2,0.7,3,0.8
							c1.1,0.1,2.3,0.3,3.4-0.1s1-1.7-0.1-2.1C69.1,334.7,66.6,334.5,64.7,335.2z"/>
						<path class="st7" d="M66,339.3c-0.1,0-0.1,0-0.2,0.1c-0.4,0.2-0.9,0.6-0.6,1.1c0.1,0.3,0.4,0.4,0.7,0.6c1,0.5,2,0.7,3,0.8
							c1.1,0.1,2.3,0.3,3.4-0.1s1-1.7-0.1-2.1C70.5,338.8,67.9,338.5,66,339.3z"/>
						<path class="st7" d="M68.5,343.2c-0.1,0-0.1,0-0.2,0.1c-0.4,0.2-0.9,0.6-0.6,1.1c0.1,0.3,0.4,0.4,0.7,0.6c1,0.5,2,0.7,3,0.8
							c1.1,0.1,2.3,0.3,3.4-0.1s1-1.7-0.1-2.1C73,342.6,70.4,342.4,68.5,343.2z"/>
					</g>
				</g>
				<polygon class="st8" points="118.7,267 95.9,243.7 47.4,313.4 71.9,331.4 				"/>
				<path class="st8" d="M132.3,184.1l-32-0.9c1.2,17.3,2.8,48.6-0.1,55c-0.1,0.2-0.7,1.2-1.8,2.8l25.6,24c0,0,9.8-15.1,11.1-20.9
					C138.4,229.5,132.3,187,132.3,184.1z"/>
				<g>
					<path class="st3" d="M70.1,184.2c0,0,26.2,70.5,32.6,87.2l6.5,70.1l27-4.8l-0.4-8l-3.7-68.4L110,185.1l-31.7-0.7L70.1,184.2z"
						/>
				</g>
				<path class="st4" d="M128.6,270.1c-1.8,3.2-5.4,3-8.2-0.1c-1.5-1.7-2.7-3.8-3.2-6.1c-0.5-2.3-0.1-4.9,1.1-6.7
					c1.3-1.9,3.6-2.9,5.6-2.4c2.4,0.7,4,3.4,4.9,6c0.7,2.2,1.1,4.5,0.7,6.7C129.3,268.6,129,269.4,128.6,270.1z"/>
				<g>
					<g>
						<path class="st6" d="M158.9,352.2c-0.2-0.8-0.6-1.7-1.7-2.1c-3.1-1.1-14.6-4.5-17.8-6.7c-2.5-1.7-4.8-5.5-5.8-7.2l-20.8,2.5
							c-0.8,5.4-0.9,15.7-0.9,17.8L158.9,352.2z"/>
						<polygon class="st7" points="159.4,356.9 112.4,361.2 112,356.6 158.9,352.2 						"/>
						<g>
							<path class="st7" d="M135.6,345.2c0,0.1-0.1,0.1-0.1,0.2c-0.2,0.4-0.3,1.1,0.3,1.3c0.3,0.1,0.6,0,0.9-0.1
								c1-0.3,1.9-0.8,2.8-1.4c0.9-0.6,1.9-1.3,2.5-2.3s-0.4-1.9-1.5-1.5C138.5,341.8,136.4,343.4,135.6,345.2z"/>
							<path class="st7" d="M139.3,347.3c0,0.1-0.1,0.1-0.1,0.2c-0.2,0.4-0.3,1.1,0.3,1.3c0.3,0.1,0.6,0,0.9-0.1
								c1-0.3,1.9-0.8,2.8-1.4c0.9-0.6,1.9-1.3,2.5-2.3s-0.4-1.9-1.5-1.5C142.3,344,140.2,345.5,139.3,347.3z"/>
							<path class="st7" d="M143.8,348.5c0,0.1-0.1,0.1-0.1,0.2c-0.2,0.4-0.3,1.1,0.3,1.3c0.3,0.1,0.6,0,0.9-0.1
								c1-0.3,1.9-0.8,2.8-1.4c0.9-0.6,1.9-1.3,2.5-2.3s-0.4-1.9-1.5-1.5C146.8,345.2,144.7,346.7,143.8,348.5z"/>
						</g>
					</g>
				</g>
				<path class="st8" d="M70.1,184.2c0,0,26.2,70.5,32.6,87.2l6.5,70.1l27-4.8l-0.4-8l-21.2,1.6c0,0-5.4-56.9-6.8-63
					c-1.3-5.5-25.4-71.3-29.6-82.9L70.1,184.2z"/>
			</g>
			<path class="st5" d="M138.3,195.4c0,0-13.7,1-29.5,1.4c-0.6,0-1.3,0-1.9,0c-16.7,0.3-35.1-0.1-42.2-3.3l5.4-78.4l-3.8-47.4
				l9.1-1.6l2.3-0.4l9.1-1.6c0,0,3.4,2.2,7,3.9c4,1.8,8.3,3,8.9-0.1c0.1-0.3,0.1-0.7,0.1-1.1c0,0,3.6,0.7,7.8,1.8h0.1
				c2.5,0.6,5.4,1.4,7.8,2.1c3.2,1,8.1,2.2,8.9,3C130.1,76.4,138.3,195.4,138.3,195.4z"/>
			<path class="st8" d="M121.7,71.7l10.3,40.7h3.4l-3.8-37.2C131.5,75.2,127.1,71.8,121.7,71.7z"/>
			<g>
				<path class="st9" d="M108.6,105.6c1.6,16,2.3,32.1,2.3,48.2c0,14.4-0.7,28.7-2.1,43c-0.6,0-1.3,0-1.9,0c0.7-7.3,1.2-14.7,1.5-22
					c0.7-15.9,0.7-31.9-0.1-47.8c-0.8-15.9-2.5-31.7-4.9-47.4l-12.3,10l-13.4-24l9.1-3.5l7,5.8l8.8,7.3l0.1-7.4v-1.7l7.9,2.4h0.1
					l2.8,16.2l-8.1-4.5C106.7,88.8,107.8,97.2,108.6,105.6z"/>
				<path class="st9" d="M100.9,92.6c-2.4,0-2.4,3.8,0,3.8C103.4,96.4,103.4,92.6,100.9,92.6z"/>
				<path class="st9" d="M103.6,103.4c-0.1-0.2-0.2-0.4-0.4-0.6c-0.2-0.2-0.4-0.3-0.6-0.4s-0.5-0.2-0.7-0.2s-0.3,0-0.5,0.1
					c-0.3,0.1-0.6,0.3-0.8,0.5c-0.1,0.1-0.2,0.3-0.3,0.4c-0.2,0.3-0.3,0.6-0.3,1v0.2c0,0.3,0,0.5,0.2,0.7c0.1,0.2,0.2,0.4,0.4,0.6
					c0.2,0.2,0.4,0.3,0.6,0.4s0.5,0.2,0.7,0.2s0.3,0,0.5-0.1c0.3-0.1,0.6-0.3,0.8-0.5c0.1-0.1,0.2-0.3,0.3-0.4
					c0.2-0.3,0.3-0.6,0.3-1v-0.2C103.7,103.9,103.7,103.7,103.6,103.4z"/>
				<path class="st9" d="M104.2,113.6c-0.1-0.2-0.2-0.4-0.4-0.6c-0.2-0.2-0.4-0.3-0.6-0.4s-0.5-0.2-0.7-0.2s-0.3,0-0.5,0.1
					c-0.3,0.1-0.6,0.3-0.8,0.5c-0.1,0.1-0.2,0.3-0.3,0.4c-0.2,0.3-0.3,0.6-0.3,1v0.2c0,0.3,0,0.5,0.2,0.7c0.1,0.2,0.2,0.4,0.4,0.6
					c0.2,0.2,0.4,0.3,0.6,0.4s0.5,0.2,0.7,0.2s0.3,0,0.5-0.1c0.3-0.1,0.6-0.3,0.8-0.5c0.1-0.1,0.2-0.3,0.3-0.4
					c0.2-0.3,0.3-0.6,0.3-1v-0.2C104.4,114,104.4,113.8,104.2,113.6z"/>
			</g>
			<polygon class="st7" points="110.8,157.8 105.7,105 114.8,108.1 127.5,103.1 136.2,109.8 145,106.7 149,112.3 162.6,108.1 
				155.8,163.4 150.5,165.9 144.1,160.1 134.2,163.4 126.4,158.1 119.1,161.7 			"/>
			<path class="st10" d="M157.1,132.6c-0.6,1.4,3.8,7.8,2.5,5.9c-1.3-2-9.2-6.8-10.4-5.5s6.2,12.3,6.2,12.3s-7.7-7.2-9.5-4.3
				c-0.6,1,0,2.8,1.1,4.8c-2.4-0.7-4.5-0.8-4.4,0.9c0.2,4,10.7,8.1,10.7,8.1c12.6,3.5,12.8-17.3,12.8-17.3S157.7,131.2,157.1,132.6z
				"/>
			<g>
				<g>
					<g>
						<g>
							<g>
								<path class="st10" d="M86.9,66.2c0.4,0.4,16.7,11.8,16.7,11.8s-0.6-7.3-0.9-11.1c-0.1-1.2-0.1-2-0.1-2.2
									c0-1.5,1.1-8.1,1.1-8.1l-16.4-6.9c0,0-0.2,3.3-0.3,7C86.9,61,86.7,66,86.9,66.2z"/>
								<path class="st11" d="M87.1,56.6c4.6,3.1,14.7,10,15.7,10.2h0.1c-0.1-1.2-0.1-2-0.1-2.2c0-1.5,1.1-8.1,1.1-8.1l-16.4-6.9
									C87.4,49.6,87.2,52.9,87.1,56.6z"/>
							</g>
						</g>
						<g>
							<path class="st10" d="M85.2,50.2c0,0,0.4,1.2,2.3,2.7l0,0c0.4,0.3,0.8,0.7,1.3,1c1.9,1.3,19.9,8.4,22.6,8s5-9.9,5.2-10.9
								c0.7-6.1,2.6-24.9,2.6-24.9c-7.3-20.2-31.1-9-33.8-6.9C82.7,21.3,85.2,50.2,85.2,50.2z"/>
							<path class="st12" d="M87.5,52.9c0.4,0.3,0.8,0.7,1.3,1c1.9,1.3,19.9,8.4,22.6,8s5-9.9,5.2-10.9c-1.6,4.2-3.4,9.9-5.3,9.8
								C108.3,60.6,89.6,54,87.5,52.9z"/>
						</g>
						<g>
							<path class="st12" d="M87.8,50.8c-3.7-0.2-6.4-2.3-7.9-4.1c-0.3-0.4-0.6-0.8-0.8-1.1c-1.1-1.9-1.6-8.4,1.1-10
								c1.9-1.1,3.3,0.4,3.9,1.4l0,0c0.3,0.4,0.4,0.8,0.4,0.8L87.8,50.8z"/>
							<path class="st10" d="M87.8,50.8c-3.7-0.2-6.4-2.3-7.9-4.1c-0.1-0.2-0.2-0.4-0.3-0.5c-1.1-1.9-1.6-8.4,1.1-10
								c1.5-0.9,2.7-0.1,3.5,0.8l0,0c0.3,0.4,0.4,0.8,0.4,0.8L87.8,50.8z"/>
							<path class="st11" d="M79.5,40.9c-0.1,0.5,0,1.1,0.2,1.6c0.8,2.2,3,3.8,5.2,5.3c-0.7-1.1-0.9-2.3-0.8-3.4
								c0-0.4,0.1-0.8,0.1-1.2C84.1,41.5,80.2,37.8,79.5,40.9z"/>
							<g>
								<path class="st13" d="M85.9,48.4C85.9,48.4,85.9,48.4,85.9,48.4c-0.2-0.1-0.3-0.2-0.4-0.3c-0.3-0.2-0.7-0.5-1.1-0.9
									s-0.7-1-0.9-1.7c-0.2-0.7-0.2-1.5,0.2-2.3c0-0.1,0.1-0.2,0.1-0.3v-0.1l0,0l0,0l0,0l0,0l0,0v-0.1l-0.1-0.1
									c-0.1-0.1-0.1-0.2-0.2-0.2c-0.2-0.3-0.4-0.6-0.7-0.9c-0.2-0.3-0.5-0.5-0.7-0.8c-0.2-0.2-0.5-0.4-0.7-0.6
									c-0.2-0.2-0.5-0.3-0.7-0.3s-0.4,0-0.6,0.1c-0.1,0.1-0.2,0.2-0.3,0.2c0,0.1,0,0.1,0,0.1s0,0,0-0.1s0.1-0.2,0.2-0.3
									s0.4-0.2,0.7-0.2c0.3,0,0.6,0.1,0.9,0.2c0.3,0.2,0.6,0.4,0.8,0.6c0.3,0.2,0.6,0.5,0.8,0.7c0.3,0.3,0.5,0.6,0.8,0.9
									c0.1,0.1,0.1,0.2,0.2,0.3l0.1,0.1l0.1,0.2l0.1,0.1c0,0,0,0.1-0.1,0.1L84.3,43c0,0.1-0.1,0.2-0.1,0.3
									c-0.3,0.7-0.4,1.4-0.3,2.1c0.1,0.6,0.3,1.2,0.6,1.7c0.3,0.4,0.6,0.8,0.8,1c0.1,0.1,0.2,0.2,0.3,0.2
									C85.9,48.3,85.9,48.4,85.9,48.4z"/>
							</g>
						</g>
					</g>
				</g>
				<g>
					<path class="st14" d="M121.6,30.5c-2-1.3-3.6-3-4.9-4.9c0,0.5-0.1,1.1-0.1,1.6c-1.3-1.7-2.5-3.4-3.8-5.2
						c-0.1,1-0.1,1.9-0.2,2.9c-1.5-1.1-2.6-2.7-3.2-4.4c-1.2,1.3-2.8,2.2-4.6,2.4c0.8-1,1.3-2.3,1.5-3.6c-1.9,1.2-4.2,1.9-6.5,1.9
						c0.6-0.7,1-1.6,0.9-2.6c-1.6,1.7-3.8,2.9-6,3.5l0.7-3.2c-0.9,2.9-3.1,5.4-5.9,6.7c0.4-1.4,0.9-2.8,1.3-4.3
						c-1,2.5-2.3,5-4.3,6.9c0.4,4.6,0.4,9.2,0,13.7c-1.2-2.8-3.4-5.1-6-6.6c-0.3-1.1-0.7-2.2-1.1-3.4c-1.1-3.7-2.2-7.8-1.6-11.2
						c-1,0.1-2.1,0.4-2.9,1c0.7-2.6,2-5.1,3.9-7c-0.9,0.1-1.8,0.3-2.7,0.4c0.7-3.1,2.8-5.8,5.6-7.3c2.8-1.4,6.7-1.3,9.4,0.2
						c0.2,0.1,0.5,0.3,0.7,0.4c6.8-3.5,15.7-5.4,21.9-0.8c4.3,3.2,7.1,9.3,7.9,15.3C122.1,25.6,122.1,28.2,121.6,30.5z"/>
					<path class="st15" d="M121.7,22.9c-2.7-0.9-5.2-2.5-7.2-4.7c-0.1,1.1-0.2,2.1-0.3,3.2c-1.1-1.6-2-3.4-2.7-5.2
						c-0.3,0.9-0.7,1.9-1,2.8c-0.8-1.3-1.2-2.9-1.3-4.4c-0.9,1.1-2.2,1.9-3.6,2.3c0.2-0.9,0.4-1.9,0.6-2.8c-1.4,1.3-3.3,2.1-5.2,2.2
						c0.2-0.9,0.4-1.8,0.6-2.6c-1.6,2.1-4,3.6-6.6,4.2c0.1-0.7,0.2-1.4,0.3-2.2c-1.5,2.3-3.6,4.2-6.1,5.4c0.1-0.8,0.3-1.6,0.4-2.4
						c-1.8,3.5-4.5,6.5-7.9,8.5c1,2.2,1.5,4.6,1.4,7c-0.9-1.2-2.3-2-3.8-2.3c-0.7-2.2-1.3-4.5-1.6-6.8c-0.2-1.5-0.2-3,0-4.4
						c-1,0.1-2.1,0.4-2.9,1c0.7-2.6,2-5.1,3.9-7c-0.9,0.1-1.8,0.3-2.7,0.4c0.7-3.1,2.8-5.8,5.6-7.3C84.4,6.4,88.3,6.5,91,8
						c0.2,0.1,0.5,0.3,0.7,0.4c6.8-3.5,15.7-5.4,21.9-0.8c2.6,1.9,4.7,5,6.1,8.5C120.7,18.3,121.3,20.6,121.7,22.9z"/>
					<path class="st7" d="M119.8,16.1c-3.3-1.4-6.3-3.6-8.7-6.4c-0.3,0.8-0.5,1.6-0.8,2.4c-0.6-1.3-1.1-2.6-1.7-3.9
						c-1.3,0.9-2.5,1.7-3.8,2.6c0.5-0.9,0.7-1.8,0.7-2.8c-1.6,1.2-3.3,2.2-5.1,2.9c0.1-0.5,0.3-1,0.4-1.6c-1.9,2-4.2,3.5-6.8,4.4
						c0.2-0.8,0.3-1.7,0.5-2.5c-0.6,0.6-1.2,1.1-1.8,1.7c-2.2-2.1-5.8-2.7-8.6-1.4c1.2,0.7,2.4,1.4,3.6,2c-2.5,1.4-4.9,3-7,4.9
						c1.1,0,2.2,0,3.3,0.1c-2.5,1.8-4.6,4.1-6.2,6.6c-0.2-1.5-0.2-3,0-4.4c-1,0.1-2.1,0.4-2.9,1c0.7-2.6,2-5.1,3.9-7
						c-0.9,0.1-1.8,0.3-2.7,0.4c0.7-3.1,2.8-5.8,5.6-7.3c2.8-1.4,6.7-1.3,9.4,0.2c0.2,0.1,0.5,0.3,0.7,0.4
						c6.8-3.5,15.7-5.4,21.9-0.8C116.4,9.5,118.4,12.6,119.8,16.1z"/>
				</g>
			</g>
			<g>
				<g>
					<g>
						<g>
							<g>
								<path class="st10" d="M109,121c0.5-0.7,1-1.3,1.5-1.7c3.7-2.7,9.4-6.8,10.7-5.5c1.3,1.4-9.2,9.2-9.2,9.2l1,3.5l4.7-2.9
									l8-0.4c0,0,0.7,1.4,1.5,3.1c0.1,0.2,0.2,0.3,0.2,0.5l0,0c0,0,0,0.1,0.1,0.2c0.1,0.2,0.2,0.4,0.3,0.6c0.4,0.9,0.7,1.8,1,2.6
									c0,0.1,0.1,0.2,0.1,0.3c0.1,0.5,0.2,1,0.3,1.4s0.1,0.8-0.1,1.1l-6,1.6c0,0-3.4,7.9-4.5,8.7c-0.4,0.3-10.9,2.6-10.9,2.6
									l-5.8-11.4l3.1-1.4C105,133,107.9,122.7,109,121z"/>
								<polygon class="st10" points="101.8,134.6 79.1,140.7 84.6,156.2 107.7,146 								"/>
								<g>
									<g>
										<path class="st13" d="M127.2,126.4c0.1,0.2,0.2,0.4,0.3,0.7c-0.1,0-0.1,0-0.2,0c-0.9,0.1-2.2,0.3-3.5,0.6
											c-1.3,0.2-2.5,0.5-3.4,0.9c-0.2,0.1-0.4,0.2-0.6,0.2c-0.2,0.1-0.3,0.2-0.4,0.2c-0.2,0.1-0.4,0.2-0.4,0.2s0.1-0.1,0.3-0.3
											c0.1-0.1,0.2-0.2,0.4-0.4c0.1-0.1,0.3-0.3,0.5-0.5c0.8-0.6,2.1-1.3,3.5-1.6C125.1,126.2,126.3,126.3,127.2,126.4z"/>
									</g>
								</g>
								<g>
									<path class="st13" d="M128.7,130.3c0,0.1,0.1,0.2,0.1,0.3c-0.3,0-0.6,0.1-1,0.1c-0.9,0.1-2.2,0.3-3.5,0.6
										c-1.3,0.2-2.5,0.5-3.4,0.9c-0.2,0.1-0.4,0.2-0.6,0.2c-0.2,0.1-0.3,0.2-0.4,0.2c-0.2,0.1-0.4,0.2-0.4,0.2s0.1-0.1,0.3-0.3
										c0.1-0.1,0.2-0.2,0.3-0.4c0.2-0.1,0.3-0.3,0.5-0.5c0.8-0.6,2.1-1.3,3.5-1.6c1.5-0.3,2.8-0.1,3.7,0.1
										C128.2,130.1,128.5,130.2,128.7,130.3z"/>
								</g>
							</g>
						</g>
					</g>
				</g>
			</g>
			<polygon class="st9" points="72.1,139.4 79.6,137 88.2,160.8 82.8,163.4 			"/>
			<path class="st5" d="M66.3,67.7c0,0-12,2.9-13.6,4.7c-1.6,1.8-14.8,72.3-14,75.1s8.2,17,9.3,18.4s34-4.2,34-4.2l-9-20.3h-4.7
				l1.8-26.2L66.3,67.7z"/>
			<path class="st9" d="M64.7,80.7c0,0,5.3,9.3,6.6,14.2c1.4,4.9-11,44.8-11,44.8l11.8-0.3l-14.5,3c0,0,11.1-43,11-46.5
				C68.4,92.4,64.7,80.7,64.7,80.7z"/>
			<path class="st8" d="M64.8,67.7c0,0,15.9,33.8,15.2,44.7s-9.9,27.4-9.9,27.4l2-0.4l5.6-1.8c0,0,10.9-20.6,9.7-26
				c-1.2-5.4-11.2-38.5-13.9-45.1C73.6,66.5,69.5,64.5,64.8,67.7z"/>
			<path class="st16" d="M62.1,67.6c-0.9,2.6-3,4.8-5.8,5.2c-1.4,0.2-2.8,0-4-0.8s-2.1-2.1-2.8-3.3C48,66.1,47.2,63,47.4,60
				c0.3-4.7,3.2-9.2,7.4-11.2h0.1c0.7,0,1.4,0.1,2,0.2c-5.1,1.4-8.6,6.4-8.7,11.6c0,2.5,0.6,5.1,1.8,7.3c0.6,1.1,1.3,2.3,2.3,3.1
				c1,0.8,2.3,1.1,3.5,0.9c2.5-0.3,4.4-2.3,5.2-4.6c0.9-2.6,0.7-5.6-0.2-8.1c-0.8-2.2-2.5-4.2-5-4.1c-1.1,0-2.1,0.5-2.6,1.4
				c-0.7,1.1-0.8,2.5-0.8,3.8c0,1.2,0.2,2.3,0.6,3.4c0.4,1,1.4,2.6,2.7,2.5c1.3,0,1.8-1.7,1.9-2.7c0.2-1.3-0.1-2.6-0.8-3.8
				c-0.3-0.5,0.5-1,0.8-0.5c0.9,1.4,1.1,3.1,0.9,4.7c-0.2,1.4-1.1,3.1-2.6,3.2s-2.8-1.3-3.4-2.5c-0.7-1.4-1-3-1-4.6
				c0-1.4,0.2-2.9,0.9-4.1c0.7-1.1,1.8-1.7,3-1.9c2.7-0.3,5,1.6,6,4C62.8,61,63.1,64.6,62.1,67.6z"/>
		</g>
	</g>
	<g>
		<g>
			<path class="st17" d="M218.1,67.1c0,0-23.9-2.3-29.6,3.8c-5.7,6.1-13.2,35.4-13.2,35.4l11.5-2c0,0-10.5,59.2-8.1,66
				s8.4,13.5,10.8,13c2.4-0.5,22.5,0.9,22.5,0.9l30.1-57.4L218.1,67.1z"/>
			<g>
				<path class="st14" d="M251.7,32.7c-0.5,4.5-2.3,8.8-5.5,12.1c-5.3-2.6-10.6-5.2-15.8-7.8c-4.6,5.4-7.6,11.6-9.1,18.5
					c-3.9,0.9-7.6,3.8-8.3,7.7c-0.4-2-0.4-4.1,0.1-6.1c-1.8,0.6-3.4,2.1-4,4c-0.3-2.4,0.8-4.9,2.7-6.3c-1.2-2-2.4-4.3-3.6-6.7
					c-1.4-2.9-2.6-5.9-3.5-8.7c-1.6-5-1.9-10.6,0.2-15.4c2.1-4.8,7.1-7.8,12.4-7.7c1.5-1.6,3.9-2.8,5.8-3.8
					c8.5-4.1,19.6-1.2,25.1,6.4C251.1,22.8,252.2,27.8,251.7,32.7z"/>
				<g>
					<g>
						<g>
							<g>
								<path class="st10" d="M238.5,70.4c-7.4,2.9-13.1,1.1-15.9-0.2c0.6-2.5,1.1-5.7,1.1-7.6c-0.1-3.2-0.3-6.2-0.3-6.2l11,1.3
									c0,0-0.2,4.5,0.2,7.6C234.7,66.6,238,70.1,238.5,70.4z"/>
								<path class="st11" d="M223.7,62.6c3.3,1.5,7.3,3.2,8.5,3.3c1,0.1,1.8-0.3,2.4-0.7c-0.4-3.1-0.2-7.6-0.2-7.6l-11-1.3
									C223.3,56.3,223.6,59.4,223.7,62.6z"/>
							</g>
							<g>
								<path class="st12" d="M219.8,24.3c6.3-6,16.1-7.1,23.2-2.1c1.6,1.2,2.9,2.4,3.4,3.7c2,5.2,3.9,23.9-0.8,32.4
									S235.1,65,233,64.2c-2.1-0.8-11.7-5.9-13.8-9.4c-2-3.5-5.4-20.8-3.9-25.2C215.9,28.3,217.7,26.3,219.8,24.3z"/>
								<path class="st10" d="M219.2,22.9c6.3-6,16.1-7.1,23.2-2.1c1.6,1.2,2.9,2.4,3.4,3.7c2,5.2,3.9,23.9-0.8,32.4
									c-4.6,8.5-10.5,6.7-12.6,5.9s-11.7-5.9-13.8-9.4c-2-3.5-5.4-20.8-3.9-25.2C215.4,26.9,217.1,24.9,219.2,22.9z"/>
								<path class="st10" d="M219.2,45.6c-0.5-0.3-2.9-4.1-5-2.1s-2.9,5.5-1.3,7.7c1.5,2,3.6,4.1,6.4,3.7L219.2,45.6z"/>
								<path class="st11" d="M214,46.2c-0.2,0.5-0.1,1,0,1.4c0.5,2,2.2,3.7,3.9,5.3c-0.5-1-0.6-2.1-0.4-3.2
									c0.1-0.4,0.2-0.7,0.2-1.1C217.9,47.2,214.9,43.5,214,46.2z"/>
								<g>
									<path class="st13" d="M218.8,53.6L218.8,53.6c-0.2-0.1-0.3-0.2-0.4-0.3c-0.2-0.2-0.5-0.5-0.8-0.9s-0.5-1-0.6-1.6
										s0-1.4,0.4-2.1c0-0.1,0.1-0.2,0.2-0.3v-0.1l0,0l0,0l0,0l0,0l0,0v-0.1l-0.1-0.1c0-0.1-0.1-0.2-0.1-0.2
										c-0.1-0.3-0.3-0.6-0.5-0.9c-0.2-0.3-0.3-0.5-0.5-0.7s-0.3-0.4-0.5-0.6c-0.2-0.2-0.4-0.3-0.6-0.3c-0.2,0-0.4,0-0.5,0
										c-0.1,0.1-0.2,0.1-0.2,0.2c0,0.1,0,0.1,0,0.1s0,0,0-0.1s0.1-0.2,0.2-0.3c0.1-0.1,0.3-0.2,0.6-0.1c0.3,0,0.5,0.1,0.7,0.3
										s0.4,0.4,0.7,0.6c0.2,0.2,0.4,0.5,0.6,0.7c0.2,0.3,0.4,0.6,0.6,0.9c0,0.1,0.1,0.2,0.1,0.2l0.1,0.1l0.1,0.2l0.1,0.1
										c0,0,0,0.1-0.1,0.1l-0.1,0.2c0,0.1-0.1,0.1-0.1,0.2c-0.3,0.6-0.4,1.2-0.4,1.8s0.2,1.1,0.4,1.5s0.4,0.8,0.6,1
										C218.6,53.4,218.7,53.5,218.8,53.6L218.8,53.6z"/>
								</g>
							</g>
						</g>
					</g>
					<path class="st14" d="M207.4,30.9c0.4-1.6,1.6-3.1,2.5-4.4c2-2.7,4.7-5.3,7.7-7.3c3.8-2.5,8.1-4.3,12.4-4.7
						c1.7-0.2,3.5,0,5.4,0.3c3.9,0.7,7.9,2.4,11.2,4.8c0.8,0.6,1.5,2.3,1.9,3.2c0.6,1.3,1,2.6,1.2,3.9c0.4,2.7-0.3,5.8-1.5,8.3
						c0,0-10.3-6.3-11.8-8.8l2.4,4.7c0,0-5.9-0.8-6.8-4.4c0,0-4.6,7.6-13.5,9.1c-0.2,2.8-0.7,8-1.1,9.1c0,0-1.4-1.4-3-0.5
						s-2.2,3.6-2.2,3.6c-0.8-1.5-1.6-3.1-2.3-4.8c-0.3-0.6-0.5-1.3-0.7-1.9C208.1,38.1,206.7,34,207.4,30.9z"/>
				</g>
				<path class="st15" d="M251.7,32.7c-0.8-0.4-1.5-0.7-2.3-1.1c-5.4-2.9-10.3-6.7-14.5-11.1c-0.2,1.5-0.4,3-0.6,4.5
					c-1.6-1.2-2.8-2.8-3.6-4.7c-4.1,6-10.2,10.5-17.1,12.7c0.3,2.8,0.5,5.5,0.8,8.3c-1.1-1.1-2.3-2.3-3.4-3.4
					c-0.1,1.4-0.2,2.8-0.3,4.2c-1-1.2-1.8-2.6-2.1-4.1c-0.1,0.4-0.1,0.7-0.2,1.1c-0.4,3-0.5,6-0.2,9.1c-1.3-2.8-2.5-5.7-3.4-8.4
					c0-0.1-0.1-0.2-0.1-0.3c-1.6-5-1.9-10.6,0.2-15.4c2.1-4.8,7.1-7.8,12.4-7.7c1.5-1.6,3.9-2.8,5.8-3.8c8.5-4.1,19.6-1.2,25.1,6.4
					c0.5,0.7,0.9,1.4,1.3,2.2C251.4,24.6,252.1,28.7,251.7,32.7z"/>
				<path class="st7" d="M249.6,21c-6-1-11.7-3.4-16.6-6.9c-0.4,1.3-0.8,2.7-1.1,4c-1.1-1.4-2.1-2.8-3.1-4.3
					c-3.9,6.5-10.6,11.3-18.1,12.9c0,1.5,0,3-0.1,4.5c-0.7-0.9-1.4-1.9-2-2.9c0.1,2,0.2,4,0.3,5.9c-1-0.8-1.8-1.8-2.2-3.1
					c-0.6,2.8-1.1,5.7-1.7,8.5c0-0.1-0.1-0.2-0.1-0.3c-1.6-5-1.9-10.6,0.2-15.4c2.1-4.8,7.1-7.8,12.4-7.7c1.5-1.6,3.9-2.8,5.8-3.8
					c8.5-4.1,19.6-1.2,25.1,6.4C248.7,19.6,249.2,20.3,249.6,21z"/>
			</g>
			<g>
				<g>
					<g>
						<g>
							<g>
								<g>
									<g>
										<g>
											<path class="st10" d="M233.2,224.2c-2.8,15-5.8,29.6-7.2,32.9c-3.2,7.3-15,83-15,83h-16.3c0,0,5.3-59.6,5.8-66.5
												c0-0.2,0-0.3,0-0.4c0.6-8.4,10.8-29.2,10.8-29.2s-0.1-10.5-0.2-23.1c1.5,0.3,3.1,0.6,4.6,0.9
												C221.5,222.7,227.3,223.6,233.2,224.2z"/>
											<path class="st10" d="M266.3,224.7c-1.7,13.9-3.6,26.2-4.4,28.6c-1.7,5.3-6.2,89.9-6.2,89.9l-9.8-0.9l-2.5-0.2
												c0,0-5.4-63.6-4.8-72.4c0-0.1,0-0.2,0-0.3c0-0.2,0-0.3,0.1-0.4c1.4-7.4,5.9-21.6,5.9-21.6c-0.2-1.2-0.4-11-0.6-22.4
												c0.9,0.1,1.9,0.1,2.8,0.1c0.5,0,1,0,1.4,0.1C254.3,225.4,260.3,225.3,266.3,224.7z"/>
											<path class="st11" d="M216.5,241.7c0,0-11.4,29.3-12.5,30.4c-0.9,0.9-4,51.7-4.9,67.9h-4.5c0,0,5.3-59.6,5.8-66.5
												c0-0.2,0-0.3,0-0.4c0.6-8.4,10.8-29.2,10.8-29.2s-0.1-10.5-0.2-23.1c1.5,0.3,3.1,0.6,4.6,0.9
												C216.1,233,216.5,241.7,216.5,241.7z"/>
											<path class="st11" d="M241.8,272.9l4.2,69.4l-2.5-0.2c0,0-5.4-63.6-4.8-72.4c0-0.1,0-0.2,0-0.3c0-0.2,0-0.3,0.1-0.4
												c1.4-7.4,5.9-21.6,5.9-21.6c-0.2-1.2-0.4-11-0.6-22.4c0.9,0.1,1.9,0.1,2.8,0.1c0.5,0,1,0,1.4,0l0,0l0.1,20.6L241.8,272.9
												z"/>
										</g>
									</g>
								</g>
							</g>
						</g>
					</g>
					<g>
						<g>
							<path class="st18" d="M283.1,349.9L242,351c-0.1-4.2,0.1-7.6,0.2-9.5c0.4,0,0.8,0,1.2,0c0.8,0,1.7,0,2.5,0.1
								c2.7,0,5.2,0,5.7-0.2c1.3-0.4,4.1-9.5,4.1-9.5l0,0h0.6l3.7-0.2c0.8,1.8,2.8,5.9,5,7.8c2.9,2.4,13.6,6.7,16.5,8.1
								C282.6,348.1,283,349,283.1,349.9z"/>
							<path class="st7" d="M283.3,354.7l-41.1,1.2c-0.1-1.7-0.1-3.3-0.2-4.8l41.1-1.2L283.3,354.7z"/>
						</g>
					</g>
					<g>
						<g>
							<g>
								<path class="st18" d="M217.3,355.7c0,1.9-14,5.8-16.6,5.5c-2.7-0.2-12.4-7.7-12.4-7.7s0.4-1.5,1-3.9c0.7-2.6,1.6-6.3,2.7-10
									c1.4-0.4,3-0.9,3.4-1.2c0.7-0.6,2.9-6,3.9-6c1.1,0,10.4,0,11,0.9s0.8,5.3,1.8,5.8c0.4,0.2,1.6,0.6,2.9,0.9
									c0.7,3.8,1.4,7.5,1.7,9.7C217,352.6,217.3,355,217.3,355.7z"/>
								<path class="st7" d="M188.2,353.5c0,0,9.8,7.5,12.4,7.7c2.7,0.2,16.6-3.6,16.6-5.5c0-0.7-0.3-3.1-0.7-5.9
									c-4.5,1.9-14.3,5.8-17.5,4.5c-2.2-0.9-6.3-2.9-9.8-4.6C188.6,352,188.2,353.5,188.2,353.5z"/>
							</g>
						</g>
					</g>
				</g>
				<path class="st19" d="M265.8,254.4l-3.2,75.6l-19.4,1.4l-4.6,0.3c0,0-3.3-55.4-2.3-61.5s4-22.6,4-22.6l-3.4-48.3v0.1
					c-0.3,2.9-4.9,50-5.4,53.2c-0.6,3.3-12.3,73.8-12.3,73.8H192c0,0,3.6-49.7,5.4-56.2c1.8-6.5,9.8-28.5,9.8-28.5
					s-5.5-47.5-4.3-52.8s4.3-20.1,4.3-20.1h59.6c0,0,0.3,3,0.8,7.1c0.6,4.9,1.4,11.2,2.2,15.4C271,199,265.8,254.4,265.8,254.4z"/>
				<path class="st20" d="M263.7,254.1c-0.1,2.9-1.2,5.8-3.2,7.9c-1.3,1.4-3.4,2.5-5.1,1.8c-1.6-0.7-2.3-2.7-2.6-4.4
					c-0.4-2.2-0.5-4.5-0.3-6.8c0.2-2,0.7-4.2,2.1-5.6C259.8,241.8,263.8,249.8,263.7,254.1z"/>
				<path class="st20" d="M226.8,254.1c-0.1,2.9-1.2,5.8-3.2,7.9c-1.3,1.4-3.4,2.5-5.1,1.8c-1.6-0.7-2.3-2.7-2.6-4.4
					c-0.4-2.2-0.5-4.5-0.3-6.8c0.2-2,0.7-4.2,2.1-5.6C222.9,241.8,226.9,249.8,226.8,254.1z"/>
				<path class="st17" d="M267.4,175.9c-3.2,1-8.7,2.5-9.7,2.5c-1.4,0-32.6,2.3-34.2,1.5c-1.6-0.8-12.9-1.7-12.9-1.7
					s-4.2,18.6-3.6,21.9c0.6,3.2,4.5,40.9,4.5,40.9s-7.2,24.7-8.1,32.3c-0.8,6.4-2.9,41.8-3.6,53.1h-8c0,0,3.6-49.7,5.4-56.2
					c1.8-6.5,9.8-28.5,9.8-28.5s-5.5-47.5-4.3-52.8s4.3-20.1,4.3-20.1s10.6,3.3,15.4,3.9c4.8,0.6,33.6-0.8,33.6-0.8l10.5-3.1
					C266.7,168.8,267,171.8,267.4,175.9z"/>
				<path class="st17" d="M244.6,245.6c0,0-6.1,21.5-6,24.1c0.1,2.1,3.4,47.4,4.5,61.6l-4.6,0.3c0,0-3.3-55.4-2.3-61.5
					s4-22.6,4-22.6l-3.4-48.3l10.2-4.1l-6.9,9.4L244.6,245.6z"/>
			</g>
			<g>
				<path class="st21" d="M254.4,70.9c0,0,7.7,4.2,9.3,6.9c1.7,2.7,20.5,57.1,20.5,57.1s-16,16.9-18.4,16.3s-6.2-36.8-6.2-36.8
					L254.4,70.9z"/>
				<path class="st21" d="M272.3,198.8c-8.7,2.2-19.5,3-30.2,3c-0.6,0-1.3,0-1.9,0c-21.2-0.1-41.2-3-41.2-3l2.1-38.2l1.3-24.4
					L199,72.6c2.1-0.6,3.8-0.8,4.4-0.9h0.2l11.4-1.2l0,0l3.1-3.3l1.2-1.3c0,0,9.7,0.7,10.7,2.3c0.3,0.4,0.5,0.8,0.7,1.2
					c0,0,0,0,0,0.1c0.5,0.9,0.8,1.4,0.8,1.4s0.3-0.7,0.8-1.4c0.1-0.1,0.2-0.3,0.3-0.4c0.4-0.5,0.8-1,1.1-1.1
					c0.9-0.2,7.5,0.2,7.9,0.5c0.2,0.1,0.3,0.3,0.4,0.6c0.2,0.4,0.4,0.8,0.4,0.8l12,1.2c0,0,13.5,29.6,13.2,36.8
					c-0.3,7.2-3.4,27.5-3.4,27.5L272.3,198.8z"/>
				<path class="st19" d="M203.7,71.7c0,0,12.4,23,12.2,30.3s-9.5,33.3-9.5,33.3l4.4-0.2c0,0,13.2-27.3,11.8-32.8
					c-1.4-5.6-11.7-31.3-11.7-31.3S208.7,69.2,203.7,71.7z"/>
				<path class="st22" d="M240.8,157.6c-1.6-18.8-4.2-37.4-6.1-56.2c-0.9-9.1-1.6-20.3-2-30c1-1.3,2.5-2.1,4.1-2.5
					c1.7-0.4,3.6-0.3,5.3,0.1c-0.1-0.2-0.3-0.5-0.4-0.6c-0.4-0.3-7-0.6-7.9-0.5c-0.4,0.1-0.8,0.5-1.1,1.1c-0.1,0.1-0.2,0.3-0.3,0.4
					c-0.4,0.7-0.8,1.4-0.8,1.4s-0.3-0.5-0.8-1.4c0,0,0,0,0-0.1c-0.2-0.4-0.4-0.7-0.7-1.2c-1-1.6-10.7-2.3-10.7-2.3l-1.2,1.3
					c2.4,0.3,4.8,0.6,7.1,1.3c2,0.6,4,1.6,5.6,3.1c0.7,17.7,2.7,37.3,4.7,54.6c2.2,18.7,4.3,37.3,4.8,56.1
					c0.2,6.5,0.1,13.1-0.2,19.6c0.6,0,1.3,0,1.9,0C242.8,187.1,242.1,172.3,240.8,157.6z"/>
			</g>
			<path class="st23" d="M268.5,123c0,0-11-49.7-14.1-52.1s-6.4-0.6-6.4-0.6l2,4.5l15.9,49.7L268.5,123z"/>
			<g>
				<g>
					<g>
						<g>
							<polygon class="st23" points="243.7,131 245,135.6 248.9,149.9 253.9,151.7 280.7,142.5 277.8,123.1 271.3,120.5 							"/>
						</g>
						<polygon class="st24" points="243.7,131 245,135.6 250.7,137.1 278.5,127.9 277.8,123.1 271.3,120.5 						"/>
						<polygon class="st25" points="277.8,123.1 249.7,132.6 243.7,131 271.3,120.5 						"/>
						<polygon class="st24" points="249.7,132.6 253.9,151.7 248.9,149.9 243.7,131 						"/>
					</g>
					<g>
						<polygon class="st23" points="271.3,126.7 271.7,128.7 273.8,128 274.7,127.8 275,127.6 276.3,127.2 276.7,127.1 276.4,124.8 
							275,125.3 273.7,125.8 273.4,125.9 272.5,126.2 						"/>
						<polygon class="st23" points="273.7,125.8 275,127.6 276.3,127.2 275,125.3 						"/>
						<polygon class="st23" points="272.5,126.2 273.8,128 274.7,127.8 273.4,125.9 						"/>
					</g>
					<g>
						<polygon class="st25" points="251.5,133.2 252.2,134.9 253.5,134.4 254.1,134.2 255,133.9 255.6,133.7 255.8,133.6 
							257.5,133.1 258.6,132.7 258.2,131.1 256.3,131.7 255,132.1 254.8,132.2 254.1,132.4 253.3,132.6 252.7,132.8 						"/>
						<polygon class="st23" points="255,132.1 255.8,133.6 257.5,133.1 256.3,131.7 						"/>
						<polygon class="st23" points="254.1,132.4 255,133.9 255.6,133.7 254.8,132.2 						"/>
						<polygon class="st23" points="252.7,132.8 253.5,134.4 254.1,134.2 253.3,132.6 						"/>
					</g>
					<polygon class="st24" points="269.7,125.8 267.9,124.5 259.6,127 259.2,129.4 					"/>
					<g>
						<polygon class="st25" points="267.9,124.5 263.8,123 256.3,125.3 259.6,127 						"/>
						<polygon class="st23" points="267.9,124.5 263.8,123 256.3,125.3 259.6,127 						"/>
					</g>
					<g>
						<polygon class="st24" points="256.3,125.3 254.9,126.8 259.2,129.4 259.6,127 						"/>
						<polygon class="st24" points="256.3,125.3 254.9,126.8 259.2,129.4 259.6,127 						"/>
					</g>
					<g>
						<path class="st24" d="M269,122.1l5-0.7l0.6-0.1l0.1,0.8c0.1,0.8-1.2,1.6-2.9,1.8c-1.7,0.3-3.2-0.2-3.3-0.9l-0.1-0.8L269,122.1
							z"/>
						<g>
							<path class="st25" d="M268.4,122.2c0.1,0.8,1.6,1.2,3.3,0.9c1.7-0.3,3-1.1,2.9-1.8c-0.1-0.8-1.6-1.2-3.3-0.9
								C269.6,120.6,268.3,121.4,268.4,122.2z"/>
							<path class="st23" d="M268.4,122.2c0.1,0.8,1.6,1.2,3.3,0.9c1.7-0.3,3-1.1,2.9-1.8c-0.1-0.8-1.6-1.2-3.3-0.9
								C269.6,120.6,268.3,121.4,268.4,122.2z"/>
						</g>
					</g>
					<g>
						<path class="st24" d="M247.6,129.5l3.2-0.5l0.4-0.1l0.1,0.5c0.1,0.5-0.8,1-1.8,1.2c-1.1,0.2-2-0.1-2.1-0.6l-0.1-0.5
							L247.6,129.5z"/>
						<g>
							<path class="st25" d="M247.2,129.5c0.1,0.5,1,0.7,2.1,0.6c1.1-0.2,1.9-0.7,1.8-1.2s-1-0.7-2.1-0.6
								C247.9,128.5,247.1,129,247.2,129.5z"/>
							<path class="st23" d="M247.2,129.5c0.1,0.5,1,0.7,2.1,0.6c1.1-0.2,1.9-0.7,1.8-1.2s-1-0.7-2.1-0.6
								C247.9,128.5,247.1,129,247.2,129.5z"/>
						</g>
					</g>
					<polygon class="st24" points="268.4,126 268.8,128.2 261.8,130.5 260.7,128 					"/>
					<g>
						<g>
							<path class="st24" d="M270.6,131l-6.1,0.4c0,0-3.9,2.7-3,8.7c0.7,4.8,2,5.2,2,5.2l8.2,0.9L270.6,131z"/>
							<path class="st24" d="M261.5,140.1c0.7,4.8,2,5.2,2,5.2l1.2,0.1l0.6,0.1l6.4,0.7l-1.1-15.2l-3.9,0.3H266l-1.5,0.1
								C264.5,131.4,260.6,134.1,261.5,140.1z"/>
						</g>
						<g>
							<path class="st25" d="M264.9,139.6c0.6,4.2,4.2,7.1,7.9,6.6c3.8-0.6,6.3-4.4,5.7-8.6c-0.6-4.2-4.2-7.1-7.9-6.6
								C266.9,131.5,264.3,135.4,264.9,139.6z"/>
							<g>
								<path class="st23" d="M265.9,139.4c-0.5-3.7,1.7-7.1,5.1-7.6c3.3-0.5,6.5,2.1,7.1,5.8c0.5,3.7-1.7,7.1-5.1,7.6
									S266.5,143.1,265.9,139.4z M266.1,139.4c0.5,3.6,3.6,6.2,6.9,5.7s5.5-3.8,4.9-7.4c-0.5-3.6-3.6-6.2-6.9-5.7
									C267.7,132.4,265.5,135.8,266.1,139.4z"/>
							</g>
							<g>
								<path class="st26" d="M266.8,139.2c0.5,3.2,3.2,5.5,6.1,5.1c1.5-0.2,2.8-1.2,3.6-2.4c0.7-1.2,1-2.7,0.8-4.2
									c-0.5-3.2-3.2-5.5-6.1-5.1c-1.9,0.3-3.4,1.6-4,3.4C266.8,136.9,266.7,138,266.8,139.2z"/>
								<path class="st27" d="M266.8,139.2c0.5,3.2,3.2,5.5,6.1,5.1c1.5-0.2,2.8-1.2,3.6-2.4c0.4-1,0.5-2.1,0.3-3.2
									c-0.5-3.2-3.2-5.5-6.1-5.1c-1.5,0.2-2.8,1.1-3.6,2.4C266.8,136.9,266.7,138,266.8,139.2z"/>
								<path class="st28" d="M268.5,135.2c0.6-1,1.9-1.4,3-1.3c1.1,0.1,2.2,0.7,3,1.6c0.8,0.9,1.3,1.9,1.6,3
									C273.3,138.4,270.5,137,268.5,135.2z"/>
							</g>
						</g>
						<g>
							<path class="st23" d="M264.7,145.4l0.6,0.1c-0.7-1-2.1-3.1-2.2-5.9c-0.2-4.4,2.6-7.4,3.5-8.3h-0.7c-1.2,1.3-3.5,4.2-3.3,8.3
								C262.8,142.3,263.9,144.3,264.7,145.4z"/>
						</g>
					</g>
				</g>
				<g>
					<path class="st24" d="M255.9,146c0.1,0.9,1,1.5,1.9,1.4s1.5-1,1.4-1.9s-1-1.5-1.9-1.4C256.4,144.2,255.8,145.1,255.9,146z"/>
					<path class="st24" d="M256.6,145.9c0.1,0.5,0.6,0.9,1.1,0.8c0.5-0.1,0.9-0.6,0.8-1.1s-0.6-0.9-1.1-0.8
						C256.9,144.8,256.5,145.3,256.6,145.9z"/>
				</g>
			</g>
			<path class="st21" d="M232.2,157.7c0,0-6.1,0.8-14.3,1.5c0,0-8,0.9-16.8,1.4c-3.1,0.2-6.2,0.4-9.1,0.4c-0.3-0.2-0.6-0.3-0.9-0.5
				c-0.1,0-0.2-0.1-0.3-0.2c-0.3-0.2-0.7-0.4-1-0.6c-0.3-0.2-0.7-0.4-1-0.6c-0.2-0.1-0.3-0.2-0.5-0.3c-0.3-0.2-0.5-0.3-0.8-0.5
				c-1.1-0.7-2.3-1.4-3.4-2.2c-1-0.7-2-1.3-2.9-2c-1.4-0.9-2.7-1.9-4-2.8c-0.8-19.4,10.3-70.7,12.6-73.5s6.2-4.4,9.3-5.3
				c2.1-0.6,3.8-0.8,4.4-0.9c0.2,0,0.2,0,0.2,0l-0.3,65.9h25.5L232.2,157.7z"/>
			<path class="st23" d="M248,137.1c0,0-33.7-59.3-32.9-66.6c0,0-7.6-1.9-7.8,0.8c-0.3,2.7,40.4,69.4,40.4,69.4L248,137.1z"/>
			<g>
				<g>
					<g>
						<g>
							<g>
								<g>
									<g>
										<g>
											<path class="st10" d="M258,132.1c0.4,1.9-13.2,3.1-13.2,3.1l-1,3.6h5.7l7.3,4c0,0-0.1,1.6-0.4,3.6c0,0.2,0,0.4-0.1,0.5
												l0,0c0,0.1,0,0.1,0,0.2c0,0.2-0.1,0.5-0.1,0.7c-0.1,1-0.3,2-0.6,2.8c0,0.1-0.1,0.2-0.1,0.3c-0.2,0.5-0.3,1-0.5,1.4
												s-0.4,0.7-0.7,0.9l-6.2-1.8c0,0-6.1,3.9-7.5,4.1c-2.8,0.3-9.4-2.9-9.7-3.1l-1.6-9.1c0.1-0.2,4.2-4.1,4.4-4.3
												c0.5-0.6,1.2-1.2,1.9-1.9c0.5-0.4,1-0.9,1.5-1.3c1.9-1.7,4-3.3,5.9-4.2c0.8-0.4,1.6-0.6,2.3-0.7
												C250.2,130.7,257.6,130.2,258,132.1z"/>
										</g>
									</g>
								</g>
							</g>
							<g>
								<g>
									<path class="st13" d="M256.4,146.6c0,0.2-0.1,0.5-0.1,0.8c-0.1,0-0.1,0-0.2-0.1c-0.9-0.4-2.1-0.9-3.4-1.4
										c-1.3-0.5-2.5-0.9-3.5-1.1c-0.2,0-0.5-0.1-0.6-0.1c-0.2,0-0.4,0-0.5-0.1c-0.3,0-0.4,0-0.4,0s0.1-0.1,0.4-0.1
										c0.1,0,0.3-0.1,0.5-0.2c0.2,0,0.4-0.1,0.7-0.1c1.1-0.1,2.6,0,4,0.5C254.7,145.2,255.7,145.9,256.4,146.6z"/>
								</g>
							</g>
							<g>
								<path class="st13" d="M255.6,150.8c0,0.1-0.1,0.2-0.1,0.3c-0.2-0.1-0.6-0.3-1-0.4c-0.9-0.4-2.1-0.9-3.4-1.4
									c-1.3-0.5-2.5-0.9-3.5-1.1c-0.2,0-0.5-0.1-0.7-0.1s-0.4,0-0.5,0c-0.3,0-0.4-0.1-0.4-0.1s0.2-0.1,0.4-0.1
									c0.1,0,0.3-0.1,0.5-0.2c0.2,0,0.4-0.1,0.7-0.1c1.1-0.1,2.6,0,4,0.5c1.4,0.6,2.5,1.4,3.2,2.1
									C255.3,150.4,255.5,150.6,255.6,150.8z"/>
							</g>
						</g>
					</g>
				</g>
			</g>
			<path class="st10" d="M276.9,128.1c0.3,1.4,7.2,3.5,5.1,2.8s-10.5,0.3-10.6,1.9c-0.1,1.6,11.5,5.4,11.5,5.4s-9.6-0.9-9.2,2.2
				c0.1,1,1.6,2,3.5,2.8c-2.1,0.9-3.7,2-2.7,3.2c2.4,2.8,12.3-0.2,12.3-0.2c11.1-4.6-0.5-19.7-0.5-19.7S276.6,126.7,276.9,128.1z"/>
			<path class="st22" d="M199,80.4c0,0,7.7,9.2,9.2,13.3c1.6,4.1-5.5,44.6-5.5,44.6l21.2-0.7l2.5,18.1l-34.4,5.4l40.2-2.4l-3.4-24.2
				l-22.3,0.9c0,0,5.7-34.6,4.7-40.9C210.2,88.1,199,80.4,199,80.4z"/>
		</g>
	</g>
</g>
</svg>
