<?xml version="1.0" encoding="utf-8"?>
<!-- Generator: Adobe Illustrator 27.1.1, SVG Export Plug-In . SVG Version: 6.00 Build 0)  -->
<svg version="1.1" id="_x2018_ëîé_x5F_1" xmlns="http://www.w3.org/2000/svg" xmlns:xlink="http://www.w3.org/1999/xlink"
	 x="0px" y="0px" viewBox="0 0 2730 1654.2" style="enable-background:new 0 0 2730 1654.2;" xml:space="preserve">
<style type="text/css">
	.st0{opacity:0.4;fill:#F9DDBF;enable-background:new    ;}
	.st1{fill:#82B378;}
	.st2{fill:#EAC3A0;}
	.st3{fill:#D39E7A;}
	.st4{fill:#FFFFFF;}
	.st5{fill:#FFEEDE;}
	.st6{fill:#EFCBAB;}
	.st7{fill:#F9DDBF;}
	.st8{fill:#FCECDB;}
	.st9{fill:#699DEE;}
	.st10{fill:#548EE2;}
	.st11{fill:#F4D2B8;}
	.st12{fill:#B5453C;}
	.st13{fill:#568CDB;}
	.st14{fill:#F99746;}
	.st15{fill:#FFF0E3;}
	.st16{fill:#FFB27D;}
	.st17{fill:#F3A36C;}
	.st18{fill:#FFE59F;}
	.st19{fill:#ADC8FE;}
	.st20{fill:#8EB3EF;}
	.st21{fill:#ED7D2B;}
	.st22{fill:#233862;}
	.st23{fill:#E8945B;}
	.st24{fill:#D7E6FF;}
	.st25{opacity:0.6;}
	.st26{fill:#A8D29F;}
</style>
<path class="st0" d="M2538.4,1656.9c0,0,182.9-232.2,89.9-863c-166-1126-2348-920.9-2156.9-210.7
	c120.1,446.5-612.3,361.1-331.5,1074.3L2538.4,1656.9z"/>
<rect x="773.2" y="235.6" class="st1" width="1129.6" height="754.5"/>
<g>
	<path class="st2" d="M1923.5,1006.6h-1171V219.1h1171V1006.6z M773.2,990.2h1129.6V235.6H773.2V990.2z"/>
</g>
<path class="st3" d="M1931,1006H746.7c-6.2,0-11.3-5.1-11.3-11.3v-0.6c0-6.2,5.1-11.3,11.3-11.3H1931c6.2,0,11.3,5.1,11.3,11.3v0.6
	C1942.3,1000.9,1937.2,1006,1931,1006z"/>
<path class="st4" d="M1678.6,982.8h-34.4c-4.1,0-7.5-3.4-7.5-7.5v-0.4c0-4.1,3.4-7.5,7.5-7.5h34.4c4.1,0,7.5,3.4,7.5,7.5v0.4
	C1686,979.4,1682.7,982.8,1678.6,982.8z"/>
<path class="st4" d="M1451.8,982.8h-17.2c-3.1,0-5.7-2.6-5.7-5.7v-4c0-3.1,2.6-5.7,5.7-5.7h17.2c3.1,0,5.7,2.6,5.7,5.7v4
	C1457.5,980.2,1454.9,982.8,1451.8,982.8z"/>
<path class="st4" d="M1412.9,982.8H1378c-4.1,0-7.5-3.4-7.5-7.5v-0.4c0-4.1,3.4-7.5,7.5-7.5h34.9c4.1,0,7.5,3.4,7.5,7.5v0.4
	C1420.4,979.4,1417.1,982.8,1412.9,982.8z"/>
<g>
	<path class="st2" d="M2246.2,541.1h-158.7c-7.3,0-13.2-6-13.2-13.2V374.7c0-7.3,6-13.2,13.2-13.2h158.7c7.3,0,13.2,6,13.2,13.2
		v153.2C2259.5,535.2,2253.5,541.1,2246.2,541.1z"/>
	<path class="st5" d="M2239.3,533.3h-145c-6.7,0-12.1-5.4-12.1-12.1V381.3c0-6.7,5.4-12.1,12.1-12.1h145c6.7,0,12.1,5.4,12.1,12.1
		v139.9C2251.4,527.9,2246,533.3,2239.3,533.3z"/>
	<g>
		<g>
			<path class="st2" d="M2163,385.6c0-2.1,1.7-3.8,3.8-3.8s3.8,1.7,3.8,3.8s-1.7,3.8-3.8,3.8S2163,387.7,2163,385.6z"/>
			<path class="st2" d="M2194,391c1-1.9,3.4-2.5,5.2-1.5c1.9,1,2.5,3.4,1.5,5.2c-1,1.9-3.4,2.5-5.2,1.5
				C2193.6,395.2,2192.9,392.9,2194,391z"/>
			<path class="st2" d="M2220.5,412.1c1.8-1.1,4.2-0.6,5.3,1.1c1.1,1.8,0.6,4.2-1.1,5.3c-1.8,1.1-4.2,0.6-5.3-1.1
				C2218.2,415.6,2218.7,413.2,2220.5,412.1z"/>
			<path class="st2" d="M2233.6,444.7c2.1,0,3.8,1.7,3.8,3.8s-1.7,3.8-3.8,3.8s-3.8-1.7-3.8-3.8S2231.5,444.7,2233.6,444.7z"/>
			<path class="st2" d="M2226.9,482.6c1.5,1.5,1.5,3.9,0,5.4s-3.9,1.5-5.4,0s-1.5-3.9,0-5.4S2225.4,481.1,2226.9,482.6z"/>
			<path class="st2" d="M2202.8,506.7c1.5,1.5,1.5,3.9,0,5.4c-1.5,1.5-3.9,1.5-5.4,0s-1.5-3.9,0-5.4
				C2198.9,505.2,2201.3,505.2,2202.8,506.7z"/>
			<path class="st2" d="M2163,519.2c0-2.1,1.7-3.8,3.8-3.8s3.8,1.7,3.8,3.8s-1.7,3.8-3.8,3.8S2163,521.3,2163,519.2z"/>
		</g>
		<g>
			<path class="st2" d="M2139.6,391c-1-1.9-3.4-2.5-5.2-1.5c-1.9,1-2.5,3.4-1.5,5.2c1,1.9,3.4,2.5,5.2,1.5
				C2140,395.2,2140.6,392.9,2139.6,391z"/>
			<path class="st2" d="M2113.1,412.1c-1.8-1.1-4.2-0.6-5.3,1.1c-1.1,1.8-0.6,4.2,1.1,5.3c1.8,1.1,4.2,0.6,5.3-1.1
				C2115.4,415.6,2114.8,413.2,2113.1,412.1z"/>
			<path class="st2" d="M2099.9,444.7c-2.1,0-3.8,1.7-3.8,3.8s1.7,3.8,3.8,3.8s3.8-1.7,3.8-3.8
				C2103.8,446.4,2102,444.7,2099.9,444.7z"/>
			<path class="st2" d="M2106.6,482.6c-1.5,1.5-1.5,3.9,0,5.4s3.9,1.5,5.4,0s1.5-3.9,0-5.4C2110.6,481.1,2108.1,481.1,2106.6,482.6z
				"/>
			<path class="st2" d="M2130.7,506.7c-1.5,1.5-1.5,3.9,0,5.4c1.5,1.5,3.9,1.5,5.4,0s1.5-3.9,0-5.4
				C2134.7,505.2,2132.2,505.2,2130.7,506.7z"/>
		</g>
	</g>
	<g>
		<path class="st2" d="M2165.8,448.5c0-2.1,1.7-3.8,3.8-3.8s3.8,1.7,3.8,3.8s-1.7,3.8-3.8,3.8S2165.8,450.7,2165.8,448.5z"/>
		<g>
			<rect x="2169.1" y="400.6" class="st2" width="1" height="47.9"/>
		</g>
		<g>
			
				<rect x="2165.5" y="437" transform="matrix(0.7866 -0.6174 0.6174 0.7866 194.7221 1440.6036)" class="st2" width="32.3" height="3.1"/>
		</g>
	</g>
</g>
<path class="st3" d="M662.6,1230.7v10.7c0,3.7-1.2,6.8-2.7,6.8H270.5c-1.5,0-2.7-3.1-2.7-6.8v-10.7c0-3.7,1.2-6.8,2.7-6.8H660
	C661.4,1223.9,662.6,1227,662.6,1230.7z"/>
<path class="st6" d="M662.6,1230.7v10.7c0,3.7-1.1,6.8-2.5,6.8H351c-1.4,0-2.5-3.1-2.5-6.8v-10.7c0-3.7,1.1-6.8,2.5-6.8h309.2
	C661.5,1223.9,662.6,1227,662.6,1230.7z"/>
<rect x="287.6" y="1248.2" class="st2" width="276.5" height="403"/>
<rect x="365.1" y="1248.2" class="st7" width="276.5" height="403"/>
<g>
	<g>
		<path class="st2" d="M626.7,1628.9H379.9v-369.4h246.8V1628.9z M382.6,1626.3H624v-364H382.6V1626.3z"/>
	</g>
	<g>
		<rect x="381.3" y="1381.8" class="st2" width="244.1" height="2.7"/>
	</g>
	<g>
		<rect x="381.3" y="1506.3" class="st2" width="244.1" height="2.7"/>
	</g>
	<path class="st2" d="M528.3,1283.4H483c-2.2,0-4-1.8-4-4l0,0c0-2.2,1.8-4,4-4h45.3c2.2,0,4,1.8,4,4l0,0
		C532.3,1281.6,530.5,1283.4,528.3,1283.4z"/>
	<path class="st2" d="M528.3,1405.2H483c-2.2,0-4-1.8-4-4l0,0c0-2.2,1.8-4,4-4h45.3c2.2,0,4,1.8,4,4l0,0
		C532.3,1403.4,530.5,1405.2,528.3,1405.2z"/>
	<path class="st2" d="M528.3,1532.2H483c-2.2,0-4-1.8-4-4l0,0c0-2.2,1.8-4,4-4h45.3c2.2,0,4,1.8,4,4l0,0
		C532.3,1530.4,530.5,1532.2,528.3,1532.2z"/>
</g>
<g>
	<path class="st2" d="M2174.8,1646.6h0.5c2.8,0,5.1-2.3,5-5.2l-7.6-330.9l-22.5-2.6l19.2,333.5
		C2169.5,1644.3,2171.9,1646.6,2174.8,1646.6z"/>
</g>
<g>
	<path class="st2" d="M2305.8,1646.6h0.5c2.8,0,5.1-2.3,5-5.2l-7.6-330.9l-22.5-2.6l19.2,333.5
		C2300.6,1644.3,2303,1646.6,2305.8,1646.6z"/>
</g>
<g>
	<path class="st2" d="M1944.3,1646.6h-0.5c-2.8,0-5.1-2.3-5-5.2l7.6-330.9l22.5-2.6l-19.2,333.5
		C1949.5,1644.3,1947.1,1646.6,1944.3,1646.6z"/>
</g>
<path class="st6" d="M2320.7,1290.1v-226.7c0-39.9-32.3-72.2-72.2-72.2h-163.3c-39.9,0-72.2,32.3-72.2,72.2v235.3L2320.7,1290.1z"/>
<path class="st2" d="M1983.7,1325.8h315.4c12,0,21.7-9.7,21.7-21.7V1290h-337.1L1983.7,1325.8L1983.7,1325.8z"/>
<path class="st7" d="M1945.9,1325.8h238.6c8.9,0,16-7.2,16-16v-3.7c0-8.9-7.2-16-16-16h-238.6c-8.9,0-16,7.2-16,16v3.7
	C1929.8,1318.7,1937,1325.8,1945.9,1325.8z"/>
<g>
	<g>
		<path class="st3" d="M2478.1,1653.5h0.6c3.7,0,6.7-3.3,6.7-7.2l-10.1-463.3l-29.7-3.7l25.4,467
			C2471.1,1650.4,2474.2,1653.5,2478.1,1653.5z"/>
	</g>
	<g>
		<path class="st3" d="M1752.8,1653.5h-0.6c-3.7,0-6.7-3.3-6.7-7.2l10.1-463.3l29.7-3.7l-25.4,467
			C1759.8,1650.4,1756.6,1653.5,1752.8,1653.5z"/>
	</g>
	<path class="st3" d="M2534.1,1191.6h-819.4c-6.4,0-11.5-5.2-11.5-11.5v-9.3c0-6.4,5.2-11.5,11.5-11.5h819.4
		c6.4,0,11.5,5.2,11.5,11.5v9.3C2545.6,1186.4,2540.4,1191.6,2534.1,1191.6z"/>
</g>
<g>
	<g>
		<g>
			<path class="st8" d="M1851.3,1139h-73.9v-26.1h74.1c5.8,0,10.4,4.7,10.4,10.4v5C1861.9,1134.2,1857.2,1139,1851.3,1139z"/>
			<path class="st9" d="M1925,1123.6v3.9c0,2.1-0.6,4.1-1.6,5.8c-2,3.4-5.7,5.7-9.9,5.7H1775c-0.9,0-1.7-0.7-1.7-1.7v-0.6
				c0-0.9,0.7-1.7,1.7-1.7h84.4c0.5-0.6,0.8-1.1,1.2-1.8c0.8-1.5,1.2-3.2,1.2-5v-5c0-0.9-0.1-1.8-0.3-2.7c-0.4-1.4-1.1-2.8-2-3.9
				H1775c-0.9,0-1.7-0.7-1.7-1.7v-0.6c0-0.9,0.7-1.7,1.7-1.7h139.2c4.9,0,9,3.3,10.3,7.8C1924.9,1121.6,1925,1122.6,1925,1123.6z"/>
			<path class="st10" d="M1924.6,1120.6h-63c-0.4-1.4-1.1-2.8-2-3.9h-84.5c-0.9,0-1.7-0.7-1.7-1.7v-0.6c0-0.9,0.7-1.7,1.7-1.7h139.2
				C1919.2,1112.9,1923.3,1116.1,1924.6,1120.6z"/>
		</g>
		<polygon class="st11" points="1777.4,1125.9 1787.6,1126.3 1777.4,1126.6 		"/>
		<polygon class="st11" points="1777.4,1130 1801.8,1130.4 1777.4,1130.7 		"/>
	</g>
	<g>
		<g>
			<g>
				<path class="st12" d="M1795,1159.2h78.7v-20.3h-79.3c-5.4,0-9.8,4.4-9.8,9.8l0,0C1784.5,1154.5,1789.2,1159.2,1795,1159.2z"/>
				<path class="st8" d="M1869.1,1159.2h89.5v-20.3h-89.7c-5.5,0-10,4.5-10,10v0.1C1858.9,1154.6,1863.5,1159.2,1869.1,1159.2z"/>
				<path class="st12" d="M1852.9,1159.2h108.8c0.8,0,1.5-0.7,1.5-1.5l0,0c0-0.8-0.7-1.5-1.5-1.5h-108.8c-0.8,0-1.5,0.7-1.5,1.5l0,0
					C1851.4,1158.5,1852.1,1159.2,1852.9,1159.2z"/>
				<path class="st12" d="M1852.9,1141.9h108.8c0.8,0,1.5-0.7,1.5-1.5l0,0c0-0.8-0.7-1.5-1.5-1.5h-108.8c-0.8,0-1.5,0.7-1.5,1.5l0,0
					C1851.4,1141.3,1852.1,1141.9,1852.9,1141.9z"/>
			</g>
			<polygon class="st11" points="1958.7,1149 1946.6,1149.4 1958.7,1149.6 			"/>
			<polygon class="st11" points="1958.7,1144.4 1929.9,1144.7 1958.7,1144.9 			"/>
		</g>
		<g>
			<path class="st9" d="M1930.2,1144.6c0,0,1.2,0.9,1.6,2.3c0.1,0.2,0.1,0.5,0.1,0.8c0.1,1.9,0,6.2,0,6.2l3.6-2.2l3.6,2.2v-5.8
				c0-1.1-0.3-2.2-0.9-2.9c-0.3-0.3-0.6-0.6-1-0.6H1930.2z"/>
			<path class="st13" d="M1930.2,1144.6c0,0,1.2,0.9,1.6,2.3l7.3,0.1c0,0-0.3-2.1-1.8-2.4H1930.2z"/>
		</g>
	</g>
</g>
<g>
	<g>
		<g>
			<g>
				<path class="st14" d="M1930.9,1112.9h-42.2v-19.5h42.6c3.1,0,5.6,2.5,5.6,5.6v7.9C1936.8,1110.2,1934.2,1112.9,1930.9,1112.9z"
					/>
				<path class="st8" d="M1900,1112.9h-132.3v-19.5h132.5c5.1,0,9.3,4.2,9.3,9.3v0.7C1909.6,1108.6,1905.3,1112.9,1900,1112.9z"/>
				<path class="st14" d="M1918.8,1112.9h-156.2c-0.8,0-1.4-0.6-1.4-1.4v-0.1c0-0.8,0.6-1.4,1.4-1.4h156.2c0.8,0,1.4,0.6,1.4,1.4
					v0.1C1920.2,1112.2,1919.6,1112.9,1918.8,1112.9z"/>
				<path class="st14" d="M1918.8,1096.3h-156.2c-0.8,0-1.4-0.6-1.4-1.4v-0.1c0-0.8,0.6-1.4,1.4-1.4h156.2c0.8,0,1.4,0.6,1.4,1.4
					v0.1C1920.2,1095.6,1919.6,1096.3,1918.8,1096.3z"/>
			</g>
		</g>
	</g>
</g>
<g>
	<g>
		<g>
			<polygon class="st2" points="2448.3,1146 2442.7,1146 2442.7,1049.8 2499.8,904.1 2397.8,825 2401.3,820.6 2506.6,902.2 
				2448.3,1050.9 			"/>
		</g>
		<path class="st2" d="M2386.3,835.1L2386.3,835.1c-2.6-1.8-3.2-5.4-1.4-7.9l8.5-12c1.8-2.6,5.4-3.2,7.9-1.4l0,0
			c2.6,1.8,3.2,5.4,1.4,7.9l-8.5,12C2392.4,836.3,2388.9,836.9,2386.3,835.1z"/>
		<circle class="st2" cx="2501.9" cy="902.4" r="7.4"/>
	</g>
	<g>
		<path class="st14" d="M2399,918c-0.3,0.3-0.5,0.6-0.8,0.9l-0.1,0.1c-0.3,0.3-0.5,0.6-0.8,0.8c-7.6,6.6-32.9-5.2-57.4-27.1
			s-39.1-45.7-33.3-54c0.2-0.3,0.5-0.6,0.7-0.9l0.1-0.1c0.2-0.3,0.5-0.6,0.8-0.9c22.4-25.1,60.9-27.2,86-4.8
			C2419.2,854.5,2421.4,892.9,2399,918z"/>
		<path class="st7" d="M2398.2,918.9L2398.2,918.9c-0.1,0.2-0.2,0.3-0.3,0.4c-0.2,0.2-0.3,0.4-0.5,0.5c-7.6,6.6-32.9-5.2-57.4-27.1
			s-39.1-45.7-33.3-54c0.2-0.2,0.3-0.4,0.5-0.6c0.1-0.1,0.2-0.2,0.3-0.3l0.1-0.1c5.2-4.9,19.3-0.5,35.8,10.1
			c7,4.5,14.4,10.2,21.8,16.8c5.8,5.2,11,10.5,15.6,15.6C2395.4,897.1,2402.9,912.7,2398.2,918.9z"/>
		<path class="st15" d="M2380.5,880.3c-4.3,3.6-9.9,5.7-15.9,5.7c-13.9,0-25.1-11.2-25.1-25.1c0-4.8,1.3-9.2,3.6-13
			c7,4.5,14.4,10.2,21.8,16.8C2370.8,869.8,2376,875.1,2380.5,880.3z"/>
	</g>
	<g>
		<path class="st2" d="M2472.6,1159.2h-56.2v-5.7c0-5.7,4.6-10.3,10.3-10.3h35.1c5.9,0,10.7,4.8,10.7,10.7L2472.6,1159.2
			L2472.6,1159.2z"/>
		<rect x="2439.6" y="1056.6" class="st2" width="11.8" height="89.3"/>
	</g>
</g>
<g>
	<path class="st16" d="M1147.8,1208.1c-23.5,146.5-42.9,304.4-34.5,387.5c6.9,23.3,28.3,31,47.2,34l-13,14.2l-36.6,2.1l-48.8-19.2
		c0,0,2.8-9.6,5.1-26.5c2.6-19.5-6.5-64.2-6.5-64.2s-23.8-154.3-10.3-188.9c3.8-9.8,6.4-21.1,7.9-33.3l0,0c4-31.2,1.8-68.6-0.9-105
		c-2.8-39.6-6.2-77.9-2.4-105.5c17.1-126.2,17.3-235.4,17.3-235.4h95.8c0,0,27.1,77.1,14.5,143.2
		C1171.9,1067.2,1159.4,1136.3,1147.8,1208.1z"/>
	<path class="st17" d="M1058.4,1313.7c4-31.2,1.8-68.6-0.9-105l70.7-28.6l19.6,28C1144.8,1211.8,1092.2,1273.9,1058.4,1313.7z"/>
	<path class="st16" d="M1333.6,770.9c0,0,10.9-11.5,18.6-17.1s29.6-11.3,31.8-1.8c1,4.2-6.7,13.6-12.2,16.9
		c-5.5,3.3-6.4,7.6-12.2,13.6c-5.9,6-20.2,6.3-20.2,6.3L1333.6,770.9z"/>
	<path class="st18" d="M1014.9,676.2c-4.6-8.8,99.6-40.5,101.2,46.4c0,0,195.1-4.8,101.9-113.5c-32.2-37.6-28.9-68.8-28-97.7
		c1-29-20.1-113.2-92.3-104.7c0,0-18.9-7.7-42.5,4.5C1001.6,439,881.4,708.2,1014.9,676.2z"/>
	<path class="st19" d="M1150.1,779.5c0,0,6.9,13.7,19.4,29.4c15.1,18.9,38.4,40.7,67.6,45c14,2.1,27.6-0.9,40.1-6.5l0,0
		c35.5-15.7,62.2-52,62.2-52c6.3-17.1-4-28.6-4-28.6s-71.6,16.1-78.5,12.7c-6.8-3.4-46.6-118.1-56.1-132.5s-41.8-21.9-41.8-21.9
		L1150.1,779.5z"/>
	<path class="st20" d="M1169.6,808.9c15.1,18.9,38.4,40.7,67.6,45c14,2.1,27.6-0.9,40.1-6.5c-1.4,0.2-36.8,4.6-50.9-20.7
		c-14.4-25.8-30-66.7-51.4-53.1C1165.7,779.6,1166.1,794.2,1169.6,808.9z"/>
	<path class="st16" d="M948.2,1652.5c0,0-23.4,0-33,0s-20.5-7.3-23.2-24.7c-2.7-17.3-22.4-26.8-26.7-40.9c-2.9-9.7,4-16.7,10.5-22
		c3-2.5,5.9-4.6,7.8-6.5c6.7-6.8,13-36,13-36l34.8,18.3c0,0-16.4,27.9-6.9,59.2c4.4,14.7,8.4,28.2,18.2,36.6c2.3,2,4.9,3.7,8,5.1
		C965.9,1648.5,948.2,1652.5,948.2,1652.5z"/>
	<path class="st19" d="M973.4,722.5c0,0-1.8,25.8,0,56.8c1.2,20.5,22,48,24.9,54.8c7.4,17.1,15.7,19.8,15.7,19.8l64.5,15.8l22.7,5.5
		l71.5-21.4c0,0,32.6-90.9,19.5-142.1c-13.1-51.2-33.1-86.7-33.1-86.7s-82.2-21.4-145.9-2.8L973.4,722.5z"/>
	<path class="st16" d="M1018.2,864.5c0,0-54,72.5-59,121.5s42.7,184.6,32,232.3c-8,35.4-50.4,63.6-62.1,152.9
		c-4.1,31-18.8,93.1-32.3,151.2l29.9,29.4c71.3-162.4,145-264.7,149.3-300.6c3.1-25.4,17.5-159.1,76-257.9
		c14-23.7-8.6-117.9-8.6-117.9L1018.2,864.5z"/>
	<path class="st14" d="M1186,1031.3c-7.9,96.8-17.3,178.3-17.3,178.3s-45.1,30.4-109,34.3l0,0l0,0c-29.2,1.8-62.2-2-96.7-16.7
		c0,0-13.1-233.7-4.8-270.9c8.4-37.2,45.4-88.4,45.4-88.4l166.6,6.4C1170.3,874.2,1194,934.5,1186,1031.3z"/>
	<path class="st21" d="M1173.8,850.7c0,0-14.2,11.2-42.5,11.8c-33.7,0.7-117.3-8.6-117.3-8.6s-3.7,10.4-3.6,21.3
		c0,0,102.1,25.7,161.2,3.8C1171.7,879,1179.4,864.7,1173.8,850.7z"/>
	<g>
		<path class="st4" d="M1124.1,874.2c0-9.6,6.9-17.4,15.4-17.4s15.4,7.8,15.4,17.4s-6.9,17.4-15.4,17.4S1124.1,883.8,1124.1,874.2z
			 M1129.2,874.2c0,6.8,4.6,12.3,10.3,12.3c5.7,0,10.3-5.5,10.3-12.3s-4.6-12.3-10.3-12.3C1133.8,861.9,1129.2,867.4,1129.2,874.2z"
			/>
	</g>
	
		<rect x="923.8" y="775.2" transform="matrix(0.6567 -0.7542 0.7542 0.6567 -287.1981 1058.2518)" class="st22" width="189.8" height="138.7"/>
	<path class="st16" d="M1037.7,871c0,0,38.3,4.5,38.2,13.6c-0.1,9.1-9.5,27.8-14.3,28.6s-31.2-25.3-31.2-25.3L1037.7,871z"/>
	<path class="st19" d="M1024.9,620.3c0,0-51.2,3.6-70.8,51.3s-56.8,127.7-56.8,141.2s20.8,55,132.4,78.8c0,0,11.5-12.1,10.8-21.7
		c0,0-69.7-59.8-69.5-66.8c0.4-13.2,11.4-30.7,72.6-91.9C1060.3,694.5,1024.9,620.3,1024.9,620.3z"/>
	<g>
		<path class="st7" d="M1326.2,907.5l153.3-450.6c0.7-2.1,1.6-4-0.4-4.8l-1.9-0.7c-2.1-0.8-2.7,0.6-3.5,2.7l-163.4,444.1
			c-1.5,4.2,0.5,9,4.6,10.8l3.8,1.7C1321.7,912.1,1325.2,910.6,1326.2,907.5z"/>
	</g>
	<path class="st16" d="M1347,768.7c0,0,7-0.2,14.3-2.2c5.8-1.5,13.2-4.2,13.2-4.2c4.4,3.2-10.8,11.9-14.7,17.8
		c-3.2,4.8-6.8,6.2-15.5,8.1L1347,768.7z"/>
	<path class="st22" d="M1102,1651.2c21.3-2.6,15.7,2.8,45.6,3s40.1-9.8,41.5-14.1c1.3-3.8-13.2-6.9-28.6-10.5l-0.6,0.4
		c0,0-18.8,10.4-43.4,8.1c-20.1-1.9-40.6-10.1-54.4-11.4c-0.8,4.5-1.7,9.2-1.3,13.9C1061.9,1653.9,1080.7,1653.9,1102,1651.2z"/>
	<path class="st22" d="M948.2,1652.5c0,0-23.4,0-33,0s-20.5-7.3-23.2-24.7c-2.7-17.3-22.4-26.8-26.7-40.9c-2.9-9.7,4-16.7,10.5-22
		c3.6,5.4,11.5,19,19.1,44c9,29.2,30.5,30.1,47.7,27.6c2.3,2,4.9,3.7,8,5.1C965.9,1648.5,948.2,1652.5,948.2,1652.5z"/>
	<path class="st16" d="M1032.9,617.9c10.4-2.3,18.9-9.6,22.5-19.6c4.3-12,7.7-29.8,7.6-52.1l3.2,0.6l54.4,10.8
		c0,0-1.2,17.1-1.3,33.3c0,0.1,0,0.3,0,0.4c-0.1,14,9.1,26.4,22.6,30.3c6.9,2-32.8,54.2-37.3,53.2
		C1095.3,672.6,1029.6,618.6,1032.9,617.9z"/>
	<path class="st23" d="M1120.7,557.6c0,0-1.2,17.1-1.3,33.3c-30.5-0.9-46.6-28.6-53.2-44L1120.7,557.6z"/>
	<path class="st16" d="M1130.9,572.9c0,0-72.1,1.2-72.1-43.7s-9.4-75,36.6-77.6c46-2.7,55,14.5,58.6,29.4
		C1157.7,496,1149.6,571.4,1130.9,572.9z"/>
	<path class="st18" d="M1128.2,450.4c0,0-19.7,52.7-50,60.5c-30.3,7.8-43.4-0.3-43.4-0.3s23.2-18.5,28-50.7
		C1062.8,459.9,1113.3,425.4,1128.2,450.4z"/>
	<path class="st18" d="M1123.3,454.7c0,0,14.6,5.5,20.7,16.1c5.9,10.4,10.9,24.3,9.7,41.2c0,0,14.9-35.8-1.8-56
		C1134.2,434.5,1123.3,454.7,1123.3,454.7z"/>
	<path class="st4" d="M1116.8,546.2c0,0,1.2,5.3,14.4,4.5c0,0,11-0.7,10.7-6.5C1141.9,544.2,1131.2,540.1,1116.8,546.2z"/>
	<path class="st24" d="M1104.7,674.7c0,0-48.7-52.1-50.6-73.4c0,0-12.4,3.5-27,17.7c0,0,11.7,29.3,25.7,39c0,0,10.2-1.4,18.2-4.7
		c0,0-5.1,8.4-9.1,13.5C1061.9,666.8,1084,679.3,1104.7,674.7z"/>
	<path class="st24" d="M1121.8,603.3c0,0,19.2,35.1-17.1,71.4c0,0,22.8-4.4,34.5-20.4c0,0-3.6-8.6-6.7-10.6c0,0,6.8-2.7,11.1,1.3
		c0,0,2.6-18.8,0-24.6C1141,614.6,1127.4,603.2,1121.8,603.3z"/>
	<path class="st22" d="M1101.1,674.7c0-2,1.6-3.6,3.6-3.6s3.6,1.6,3.6,3.6s-1.6,3.6-3.6,3.6S1101.1,676.7,1101.1,674.7z"/>
	<path class="st22" d="M1120.5,726.2c0-2,1.6-3.6,3.6-3.6s3.6,1.6,3.6,3.6s-1.6,3.6-3.6,3.6S1120.5,728.2,1120.5,726.2z"/>
	<path class="st22" d="M1124.1,786.5c0-2,1.6-3.6,3.6-3.6s3.6,1.6,3.6,3.6s-1.6,3.6-3.6,3.6S1124.1,788.5,1124.1,786.5z"/>
	<path class="st21" d="M1186,1031.3c-7.9,96.8-17.3,178.3-17.3,178.3s-45.1,30.4-109,34.3c1.1-0.4,37.4-14.4,64.3-45.9
		C1151.4,1166,1186,1031.3,1186,1031.3z"/>
</g>
<g class="st25">
	<path class="st4" d="M1598.4,313.8h5.9l16,36.6h-6.7l-3.7-8.8h-17.2l-3.7,8.8h-6.5L1598.4,313.8z M1607.5,336l-6.3-14.5L1595,336
		H1607.5z"/>
	<path class="st4" d="M1658.4,314.1h16.3c4.2,0,7.4,1.1,9.5,3.2c1.6,1.6,2.4,3.6,2.4,6.1c0,4.4-2.5,6.7-5.2,8.1
		c4.3,1.5,7.2,3.9,7.2,8.9c0,6.5-5.3,10-13.4,10h-16.8V314.1z M1673.4,329.4c4.1,0,6.9-1.6,6.9-5c0-2.9-2.3-4.6-6.4-4.6h-9.2v9.7
		h8.7V329.4z M1675.3,344.7c4.4,0,7-1.7,7-5.1c0-3.1-2.4-4.9-7.5-4.9h-10.1v10H1675.3z"/>
	<path class="st4" d="M1726.2,332.2c0-10.3,7.7-18.8,18.7-18.8c6.7,0,10.7,2.3,14.2,5.7l-4.1,4.7c-2.9-2.7-6-4.5-10.2-4.5
		c-7,0-12,5.7-12,12.9c0,7.1,5,12.9,12,12.9c4.5,0,7.3-1.8,10.4-4.7l4.1,4.2c-3.8,3.9-7.9,6.4-14.7,6.4
		C1734.1,351,1726.2,342.8,1726.2,332.2z"/>
	<path class="st4" d="M1552.9,395.6h13.5c11.4,0,19.3,7.8,19.3,18.2c0,10.2-7.9,18.2-19.3,18.2h-13.5V395.6z M1566.4,426.1
		c7.6,0,12.6-5.1,12.6-12.4c0-7.1-5-12.4-12.6-12.4h-7.2V426h7.2V426.1z"/>
	<path class="st4" d="M1625.4,395.6h26.9v5.7h-20.6v9.4h18.2v5.7h-18.2v9.8h20.8v5.7h-27.2L1625.4,395.6L1625.4,395.6z"/>
	<path class="st4" d="M1692.1,395.6h27v5.8h-20.7v9.9h18.3v5.8h-18.3v14.8h-6.4L1692.1,395.6L1692.1,395.6z"/>
	<path class="st4" d="M1756.5,413.8c0-10.2,7.8-18.8,18.7-18.8c6.3,0,10.2,1.8,14,4.9l-4,4.8c-2.8-2.4-5.6-3.9-10.2-3.9
		c-6.7,0-11.8,5.9-11.8,12.9c0,7.5,4.9,13,12.4,13c3.4,0,6.5-1.1,8.8-2.8v-6.8h-9.3v-5.4h15.5V427c-3.6,3.1-8.7,5.7-15.2,5.7
		C1763.9,432.6,1756.5,424.5,1756.5,413.8z"/>
	<path class="st4" d="M1534.6,477.2h6.4v15.1h17.3v-15.1h6.4v36.3h-6.4v-15.3H1541v15.3h-6.4V477.2z"/>
	<path class="st4" d="M1606.4,477.2h6.4v36.3h-6.4V477.2z"/>
	<path class="st4" d="M1650.8,508.2l4.2-4.3c2.1,2.7,4.3,4.3,7.3,4.3c3.4,0,5.8-2.3,5.8-7.1v-23.8h6.5v24c0,4.3-1.2,7.5-3.4,9.7
		c-2.1,2.1-5.2,3.2-8.8,3.2C1656.8,514,1653.2,511.5,1650.8,508.2z"/>
	<path class="st4" d="M1715.3,477.2h6.4v18.3l17.3-18.3h7.8l-15.1,15.6l15.8,20.7h-7.7l-12.4-16.4l-5.7,5.8v10.5h-6.4L1715.3,477.2
		L1715.3,477.2z"/>
	<path class="st4" d="M1784.9,477.2h6.4v30.5h19.1v5.8h-25.5V477.2z"/>
	<path class="st4" d="M1545.5,558.8h6.8l11.1,17.2l11.1-17.2h6.8v36.3h-6.4V569l-11.5,17.1h-0.2l-11.4-17v26h-6.3V558.8z"/>
	<path class="st4" d="M1622.5,558.8h5.9l19.5,25.1v-25.1h6.3v36.3h-5.3l-20-25.9v25.9h-6.3L1622.5,558.8L1622.5,558.8z"/>
	<path class="st4" d="M1693.8,576.9c0-10.2,7.9-18.8,19.1-18.8s18.9,8.5,18.9,18.8c0,10.2-7.9,18.8-19.1,18.8
		C1701.6,595.7,1693.8,587.3,1693.8,576.9z M1725.1,576.9c0-7.1-5.1-12.9-12.4-12.9c-7.2,0-12.3,5.8-12.3,12.9
		c0,7.1,5.1,12.9,12.4,12.9C1720.1,589.9,1725.1,584.1,1725.1,576.9z"/>
	<path class="st4" d="M1771.5,558.8h14.3c8.5,0,13.8,4.8,13.8,12.3c0,8.1-6.5,12.4-14.5,12.4h-7.2v11.7h-6.4L1771.5,558.8
		L1771.5,558.8z M1785.3,577.7c4.8,0,7.8-2.7,7.8-6.6c0-4.3-3.1-6.5-7.8-6.5h-7.4v13.1H1785.3z"/>
	<path class="st4" d="M1582.1,673.9c-3.1,2.2-6.8,3.4-11.1,3.4c-11.2,0-18.9-8.5-18.9-18.8c0-10.2,7.9-18.8,19.1-18.8
		s18.9,8.5,18.9,18.8c0,4.1-1.3,8-3.7,11.2l4.2,3.5l-4.1,4.6L1582.1,673.9z M1577.3,669.7l-6.2-5.3l4.1-4.7l6.3,5.7
		c1.2-1.9,1.9-4.3,1.9-6.9c0-7.1-5.1-12.9-12.4-12.9c-7.2,0-12.3,5.8-12.3,12.9c0,7.1,5.1,12.9,12.4,12.9
		C1573.5,671.4,1575.6,670.7,1577.3,669.7z"/>
	<path class="st4" d="M1629.7,640.3h16.2c8.5,0,13.5,4.6,13.5,11.6c0,6-3.6,9.6-8.7,11l9.8,13.8h-7.5l-9-12.7h-7.9v12.7h-6.4V640.3z
		 M1645.4,658.3c4.6,0,7.5-2.4,7.5-6.2c0-3.9-2.8-6-7.5-6h-9.3v12.2H1645.4z"/>
	<path class="st4" d="M1696.7,671.4l3.8-4.6c3.5,3,7,4.7,11.5,4.7c3.9,0,6.4-1.8,6.4-4.7c0-2.6-1.5-4-8.2-5.6
		c-7.7-1.8-12.1-4.1-12.1-10.9c0-6.2,5.2-10.5,12.4-10.5c5.3,0,9.5,1.6,13.2,4.6l-3.4,4.8c-3.3-2.4-6.5-3.7-9.9-3.7
		c-3.7,0-5.9,1.9-5.9,4.4c0,2.8,1.7,4,8.6,5.7c7.7,1.9,11.7,4.6,11.7,10.7c0,6.8-5.3,10.8-13,10.8
		C1706.3,677.2,1701.1,675.3,1696.7,671.4z"/>
	<path class="st4" d="M1773.2,646.2h-11.5v-5.9h29.5v5.9h-11.5v30.5h-6.4L1773.2,646.2L1773.2,646.2z"/>
	<path class="st4" d="M1575.2,742.8v-20.9h6.4v20.7c0,6.7,3.5,10.4,9.2,10.4s9.1-3.4,9.1-10.1V722h6.4v20.6
		c0,10.8-6.1,16.3-15.6,16.3C1581.3,758.8,1575.2,753.3,1575.2,742.8z"/>
	<path class="st4" d="M1643.9,721.9h7.1l11,27.9l10.9-27.9h6.9l-15.1,36.6h-5.6L1643.9,721.9z"/>
	<path class="st4" d="M1715.1,721.9h6.9l8.7,26.9l8.9-27h5.4l8.9,27l8.7-26.9h6.7l-12.7,36.6h-5.5l-8.9-26.1l-8.9,26.1h-5.5
		L1715.1,721.9z"/>
	<path class="st4" d="M1598.7,821.3l-12.7-17.9h7.5l9,13l9.1-13h7.3l-12.7,17.8l13.2,18.6h-7.5l-9.6-13.8l-9.6,13.8h-7.3
		L1598.7,821.3z"/>
	<path class="st4" d="M1668.6,825.5l-14.4-22h7.5l10.2,16.1l10.3-16.1h7.3l-14.4,21.9v14.5h-6.4L1668.6,825.5L1668.6,825.5z"/>
	<path class="st4" d="M1725.7,835.1l21.4-26h-20.8v-5.7h29.1v4.7l-21.4,26h21.4v5.7h-29.7V835.1z"/>
</g>
<g>
	<g>
		
			<rect x="2298.3" y="1052.9" transform="matrix(0.9873 -0.1587 0.1587 0.9873 -144.0376 379.1035)" class="st12" width="6.5" height="77"/>
		<polygon class="st7" points="2293.5,1040 2292.4,1053.9 2298.9,1052.9 		"/>
	</g>
	<g>
		
			<rect x="2320.1" y="1094.5" transform="matrix(0.1826 -0.9832 0.9832 0.1826 848.6053 3216.2708)" class="st12" width="77" height="6.5"/>
		<polygon class="st6" points="2368.1,1046.6 2362.4,1059.3 2368.8,1060.5 		"/>
	</g>
	<g>
		
			<rect x="2311.9" y="1072.3" transform="matrix(0.1826 -0.9832 0.9832 0.1826 863.7457 3190.062)" class="st12" width="77" height="6.5"/>
		<polygon class="st6" points="2359.9,1024.4 2354.2,1037.1 2360.6,1038.3 		"/>
	</g>
	<g>
		<rect x="2316.6" y="1085" class="st21" width="51.5" height="74.2"/>
		<rect x="2290.9" y="1085" class="st14" width="51.5" height="74.2"/>
	</g>
</g>
<g>
	<g>
		<path class="st1" d="M446,1065.8c0,0,25.4-29.6,1.6-48.4c0,0-17.4-10.5-31.6-9.7c0,0,20.1,33.7,13.6,37.1s-19.7-39.2-19.7-39.2
			s-39.6-3.8-52.3,2.3c0,0,33.8,27.7,26.7,29.3c-7.1,1.6-43.7-25.5-43.7-25.5s-36.8,6.3-34.9,28.7c2,22.5,14.7,29.4,20.2,28.8
			s38.2-13.1,38.9-8.5c0.7,4.6-18.9,19.5-32.7,20.2c0,0,26,28.6,43.2,20.4c17.3-8.3,18.7-21.4,29.5-26.3s19.9-4.9,15.5,0.1
			s-23.9,9.9-30.1,20.8s-11.7,18.2,6.2,15.5s46.9-15.8,48.2-30.7C446,1065.8,446,1065.8,446,1065.8z"/>
		<g>
			<path class="st1" d="M323.8,1041c0,0,100.1-3.9,122.2,24.8c0,0,4.9,14.6,19.9,28l2.3,6.4c0,0-17.3-18.3-23.5-19.4
				C444.7,1080.7,454.4,1045.3,323.8,1041z"/>
			<path class="st1" d="M465.9,1093.7c0,0,21.5,15.9,23,44.3l-3.9,0.3c0,0-6.9-29.3-19.3-40.8C453.3,1086,465.9,1093.7,465.9,1093.7
				z"/>
		</g>
	</g>
	<g>
		<path class="st26" d="M534.7,1028.5c0,0-40.4-22.6-21.5-53.3c0,0,15.1-18.8,31.2-23.7c0,0-8.6,45.8,0,46.8
			c8.6,1.1,5.9-51.7,5.9-51.7s42.5-20.5,59.2-18.8c0,0-26.4,44.7-17.8,43.6c8.6-1.1,38.2-46.3,38.2-46.3s43.6-8.1,50.6,17.8
			c7,25.8-4.3,38.8-10.8,40.4s-47.9,1.1-46.8,6.5c1.1,5.4,29.1,14,44.7,9.2c0,0-17.2,42.5-39.8,40.4c-22.6-2.2-29.6-16.2-43.6-17.2
			c-14-1.1-24.2,2.7-17.2,6.5s30.7,1.2,42,10.8c11.3,9.6,20.5,15.5-0.5,19.8s-58.7,1.6-66.2-14.5
			C534.7,1028.5,534.7,1028.5,534.7,1028.5z"/>
		<g>
			<path class="st1" d="M660.7,951c0,0-113,36.6-126,77.5c0,0,0.5,18.3-10.8,39.3v8.1c0,0,11.8-27.5,18.3-31.2
				C542.2,1044.7,516.9,1009.1,660.7,951z"/>
			<path class="st1" d="M523.9,1067.8c0,0-17.4,26.5-7.5,58.7l4.5-1.2c0,0-4.4-35.5,4.8-53.3
				C534.8,1054.1,523.9,1067.8,523.9,1067.8z"/>
		</g>
	</g>
	<g>
		<path class="st26" d="M470.5,997.3c0,0,53.2-29.8,28.4-70.3c0,0-19.9-24.8-41.2-31.2c0,0,11.4,60.3,0,61.7s-7.8-68.1-7.8-68.1
			s-56.1-27-78.1-24.8c0,0,34.8,58.9,23.4,57.5s-50.4-61-50.4-61s-57.5-10.6-66.7,23.4c-9.2,34.1,5.7,51.1,14.2,53.2
			s63.2,1.4,61.7,8.5c-1.4,7.1-38.3,18.5-58.9,12.1c0,0,22.7,56.1,52.5,53.2c29.8-2.8,39-21.3,57.5-22.7c18.4-1.4,31.9,3.5,22.7,8.5
			s-40.4,1.6-55.4,14.3c-14.9,12.7-27,20.5,0.7,26.2s77.3,2.1,87.3-19.2C470.5,997.3,470.5,997.3,470.5,997.3z"/>
		<g>
			<path class="st1" d="M304.4,895.1c0,0,149,48.3,166.1,102.2c0,0-0.7,24.1,14.2,51.8v10.6c0,0-15.6-36.2-24.1-41.2
				C460.5,1018.6,493.9,971.8,304.4,895.1z"/>
			<path class="st1" d="M484.7,1049.1c0,0,23,34.9,9.9,77.4l-5.9-1.6c0,0,5.7-46.8-6.3-70.3C470.3,1031.1,484.7,1049.1,484.7,1049.1
				z"/>
		</g>
	</g>
	<path class="st21" d="M368,1114.4c0,57.6,46.7,104.3,104.3,104.3c12,0,23.6-2,34.3-5.8c40.7-14.2,69.9-52.9,69.9-98.5H368z"/>
	<path class="st14" d="M436.6,1114.4c0,39.1,9.4,78.8,41.2,96.7c5.3,3,23-0.2,28.8,1.8c40.7-14.2,69.9-52.9,69.9-98.5H436.6z"/>
	<path class="st21" d="M366.6,1223.9H578c0-3.6-1.4-6.8-3.8-9.1c-2.3-2.3-5.5-3.8-9.1-3.8H379.4
		C372.3,1211.1,366.6,1216.8,366.6,1223.9z"/>
	<path class="st14" d="M465.6,1223.9H578c0-3.6-1.4-6.8-3.8-9.1c-2.3-2.3-5.5-3.8-9.1-3.8h-86.6
		C471.4,1211.1,465.6,1216.8,465.6,1223.9z"/>
	<rect x="365.7" y="1114.4" class="st12" width="214.3" height="3.2"/>
</g>
</svg>
