<svg width="551" height="423" viewBox="0 0 551 423" fill="none" xmlns="http://www.w3.org/2000/svg">
<path opacity="0.5" d="M61.1177 149.956C5.81848 210.367 -28.7077 314.873 32.895 382.192C48.6538 399.389 70.8594 411.001 92.9218 416.88C95.6438 417.615 98.3658 418.203 101.088 418.791C112.549 421.29 124.296 422.466 135.9 422.76C140.915 422.907 146.215 423.495 150.943 422.025C155.814 420.555 161.401 420.996 166.559 420.261C177.876 418.791 188.907 415.999 199.509 411.883C202.088 411.001 204.523 409.678 207.102 408.943C208.678 408.502 210.397 408.502 211.973 408.355C213.119 408.208 214.122 407.914 215.268 407.62C220.998 405.857 226.729 403.799 232.459 402.035C246.212 397.772 260.252 394.245 274.435 391.452C295.924 387.043 317.843 384.25 339.763 382.927C362.971 381.604 386.323 382.045 409.388 378.664C421.422 376.901 433.169 374.255 444.774 370.433C448.642 369.257 452.367 367.053 456.378 366.318C457.238 366.171 457.954 366.171 458.813 365.877C460.819 365.142 462.968 363.525 464.687 362.349C468.555 359.85 472.423 357.205 476.148 354.265C483.598 348.679 490.474 342.359 496.921 335.745C509.958 322.369 520.989 306.936 529.728 290.326C532.88 284.3 535.888 277.98 538.467 271.659C542.765 261.076 546.633 250.2 548.639 238.882C550.644 227.417 551.217 215.805 550.931 204.193C550.931 201.842 550.788 199.637 550.788 197.285C550.358 185.232 549.068 173.18 547.206 161.127C546.203 155.1 545.057 149.221 543.768 143.342C543.195 140.549 542.622 137.315 541.619 134.669C541.332 133.788 540.759 133.2 540.33 132.318C539.04 130.113 538.324 127.761 537.321 125.409C535.315 120.706 533.166 116.002 530.874 111.446C523.281 96.3064 513.826 82.1959 502.938 69.2612C492.193 56.4735 479.873 45.1557 466.406 35.4547C452.94 25.7537 438.47 17.9635 422.998 12.0841C412.969 8.26246 402.655 5.46976 392.053 3.70594C389.474 3.26498 386.753 2.82402 384.174 2.53005C382.311 2.23608 380.879 1.50116 379.016 1.0602C374.002 0.0313097 368.558 0.178299 363.401 0.0313143C340.049 -0.40964 316.984 3.85292 294.492 9.8793C253.519 20.9032 212.546 35.6017 175.298 56.1795C132.462 80.2851 93.3516 111.887 61.1177 149.956Z" fill="#4ECDC4"/>
</svg>
