<svg width="670" height="385" viewBox="0 0 670 385" fill="none" xmlns="http://www.w3.org/2000/svg">
<g clip-path="url(#clip0_6_234)">
<g opacity="0.5">
<path opacity="0.25" d="M15.4814 376.144C15.4814 376.144 -26.024 233.191 52.6015 148.894C102.966 94.9194 185.113 110.953 185.113 110.953C185.113 110.953 297.293 -52.2742 406.992 17.248C554.454 110.732 551.154 17.7118 628.805 71.9294C721.472 136.615 628.805 385 628.805 385L15.4814 376.144Z" fill="#4ECDC4"/>
<path opacity="0.25" d="M620.5 127.783C555.761 51.5026 507.102 155.41 412.485 87.5004C276.983 -9.7599 267.061 245.272 221.348 237.962C156.188 227.538 148.458 172.504 73.0221 218.572C54.1741 230.078 28.9475 259.583 21.9487 294.101C14.6177 330.32 23.6763 372.545 23.6763 372.545L623.357 383.875C639.768 344.145 671.905 188.383 620.5 127.783Z" fill="url(#paint0_linear_6_234)"/>
</g>
<path d="M635.693 386.129H12.0928C5.40412 386.129 0 380.718 0 374.07V372.569H647.786V374.07C647.786 380.718 642.382 386.129 635.693 386.129Z" fill="#1D2126"/>
<path d="M247.526 84.1642H312.11C318.267 84.1642 323.25 79.1951 323.25 73.0556V50.8165C323.25 44.677 318.267 39.708 312.11 39.708H247.526C241.369 39.708 236.386 44.677 236.386 50.8165V73.0556C236.386 79.1951 241.369 84.1642 247.526 84.1642Z" fill="#DCE2E2"/>
<path d="M298.865 79.0185L272.443 102.384L278.223 78.2676L298.865 79.0185Z" fill="#DCE2E2"/>
<path d="M522.605 147.9L521.165 141.407C521.165 141.407 516.47 144.367 513.746 148.607C510.999 152.847 509.715 164.155 508.917 164.574C508.142 164.994 499.482 151.699 497.954 149.601C496.072 147.017 495.385 144.035 494.211 141.761C493.037 139.508 488.918 138.735 487.345 139.022C485.773 139.309 489.494 145.913 489.494 145.913C489.494 145.913 498.884 162.167 502.007 171.067C505.13 179.967 514.897 184.207 516.47 182.949C518.042 181.668 522.605 147.9 522.605 147.9Z" fill="#E2CBB7"/>
<path d="M494.122 143.02C494.122 143.02 493.724 141.319 492.683 140.966C491.62 140.612 489.804 140.922 489.671 140.966C489.56 141.01 487.522 139.906 487.522 139.906L489.206 143.02C489.206 143.02 492.484 146.862 493.569 145.427C494.654 143.991 494.122 143.02 494.122 143.02Z" fill="#EDD5C1"/>
<path d="M486.947 140.06C486.947 140.06 485.773 146.067 486.061 147.326C486.371 148.585 487.124 147.9 487.257 147.635C487.832 146.509 488.253 142.666 488.253 142.666L486.947 140.06Z" fill="#E2CBB7"/>
<path d="M489.494 145.051C489.494 145.051 488.94 148.784 488.342 149.203C487.965 149.49 487.478 149.314 487.323 148.563C487.168 147.812 488.076 143.218 488.076 143.218L489.494 145.051Z" fill="#E2CBB7"/>
<path d="M492.927 155.608L494.898 154.658L486.548 137.587C485.463 138.117 485.02 139.42 485.551 140.502L492.927 155.608Z" fill="#184655"/>
<path d="M513.901 121.156C512.727 115.811 511.575 110.445 514.676 104.592C517.179 99.8443 521.52 97.1279 526.547 96.5316C540.788 94.8532 537.732 108.104 557.643 110.975C563.822 111.858 569.559 112.72 574.741 115.789C584.066 121.333 587.587 130.211 581.408 144.676C566.281 180.1 529.116 150.02 524.532 143.042C521.077 137.852 514.654 124.601 513.901 121.156Z" fill="#292F36"/>
<path d="M570.821 344.961C570.821 344.961 571.84 355.23 574.431 357.107C577.045 358.984 580.522 365.963 578.772 369.74C578.219 370.91 577.133 371.595 575.915 371.97C572.261 373.096 568.363 371.197 566.79 367.708C565.927 365.764 565.151 363.158 564.996 359.89C564.598 351.542 562.006 347.302 562.006 347.302L570.821 344.961Z" fill="#F2DECD"/>
<path d="M530.778 349.157C530.778 349.157 529.958 359.514 530.622 362.871C530.977 364.682 532.97 368.392 532.062 370.071C531.154 371.771 530.113 372.191 530.113 372.191L506.481 372.566C505.197 372.588 506.038 371.771 507.079 370.998C508.785 369.762 510.158 368.922 515.584 366.316C515.938 366.14 517.223 365.323 517.688 365.058C518.862 364.351 520.058 363.225 521.077 362.076C522.782 360.199 522.915 351.078 522.915 351.078L530.778 349.157Z" fill="#F2DECD"/>
<path d="M512.306 211.504C512.306 211.504 509.338 228.31 511.287 239.33C513.236 250.35 522.627 352.536 522.627 352.536L533.059 353.11C533.059 353.11 535.251 310.42 534.853 304.502C534.454 298.561 531.375 288.623 531.375 288.623L532.416 254.171L519.26 208.898L512.306 211.504Z" fill="#3FB7AE"/>
<path d="M542.937 207.97C542.937 207.97 551.154 220.272 553.103 230.43C555.052 240.611 551.663 271.883 555.428 285.2C557.466 292.422 565.173 303.574 566.347 312.894C567.521 322.214 572.128 346.661 572.128 346.661L561.718 348.715L537.511 287.696L518.485 232.551L513.613 204.15L542.937 207.97Z" fill="#4ECDC4"/>
<path d="M536.292 138.006C536.292 138.006 543.49 138.823 547.787 143.483C552.084 148.143 540.833 185.643 540.057 191.561C539.282 197.502 546.458 211.349 546.458 211.349C546.458 211.349 519.593 216.296 512.306 211.504C512.306 211.504 511.531 168.814 512.306 164.574C513.081 160.334 519.593 143.086 521.165 141.385C522.738 139.707 536.292 138.006 536.292 138.006Z" fill="white"/>
<path d="M546.458 146.995C545.772 144.897 543.38 143.903 541.364 144.764C538.596 145.957 534.764 148.232 532.882 152.118C529.759 158.611 518.818 180.939 515.429 181.8C512.04 182.639 498.22 158.611 498.22 158.611C498.22 158.611 498.619 154.371 497.445 151.964C496.271 149.557 492.749 147.017 492.24 147.856C491.708 148.695 494.189 150.815 494.189 151.257C494.189 151.677 493.148 151.964 491.708 151.125C490.269 150.285 489.494 148.563 489.494 148.563C489.494 148.563 487.146 152.825 489.626 156.646C492.107 160.466 493.148 162.012 493.148 162.012C493.148 162.012 509.183 197.48 515.03 197.9C520.501 198.319 551.951 163.536 546.458 146.995Z" fill="#F2DECD"/>
<path d="M532.682 123.563C532.682 123.563 532.749 123.872 532.837 124.424C533.325 127.03 535.185 135.643 536.447 138.028C537.976 140.899 531.243 150.042 524.753 148.916C522.826 148.585 526.392 140.524 526.215 139.663C525.883 138.029 525.44 135.798 524.997 133.501C524.731 132.22 524.488 130.895 524.244 129.681C523.557 126.191 522.981 123.32 522.981 123.32L532.682 123.563Z" fill="#F2DECD"/>
<path d="M532.837 124.424C532.727 123.872 532.682 123.563 532.682 123.563L522.959 123.32C522.959 123.32 523.535 126.169 524.222 129.681C524.465 130.895 524.731 132.198 524.975 133.479C526.481 133.258 528.053 132.529 529.626 131.16C531.331 129.658 532.461 127.87 533.147 125.948C533.014 125.352 532.904 124.822 532.837 124.424Z" fill="#E2CBB7"/>
<path d="M526.835 100.529C526.835 100.529 530.8 101.081 533.679 104.769C536.558 108.457 539.637 119.897 532.505 126.103C525.373 132.309 518.33 125.286 517.289 117.821C516.226 110.379 516.448 100.264 526.835 100.529Z" fill="#F2DECD"/>
<path d="M514.986 115.281C515.828 116.938 517.267 117.843 518.175 117.313C519.083 116.783 519.128 115.038 518.286 113.382C517.444 111.726 516.005 110.82 515.097 111.35C514.189 111.88 514.144 113.625 514.986 115.281Z" fill="#F2DECD"/>
<path d="M525.617 100.352C525.617 100.352 531.73 111.218 536.115 111.726C540.501 112.234 541.076 117.998 541.076 117.998C541.076 117.998 539.504 104.681 535.185 102.119C530.844 99.5572 525.617 100.352 525.617 100.352Z" fill="#292F36"/>
<path d="M534.698 114.31C534.343 116.231 535.052 118.02 536.292 118.263C537.533 118.506 538.817 117.159 539.172 115.237C539.526 113.316 538.817 111.527 537.577 111.284C536.337 111.019 535.052 112.388 534.698 114.31Z" fill="#F2DECD"/>
<path d="M566.104 365.875C571.774 366.913 575.561 363.6 577.532 361.127C578.972 363.931 579.858 367.421 578.794 369.74C577.864 371.771 575.317 372.324 573.169 372.412C570.888 372.5 568.761 371.308 567.632 369.342C567.1 368.393 566.547 367.244 566.104 365.875Z" fill="#4ECDC4"/>
<path d="M517.688 365.079C523.934 366.669 528.563 365.587 531.154 364.549C531.819 366.427 532.704 368.79 532.239 370.159C531.663 371.815 530.844 372.191 530.135 372.213C524.421 372.367 509.228 372.566 504.864 372.632C504.266 372.632 503.912 371.926 504.311 371.462C505.352 370.159 517.201 365.344 517.688 365.079Z" fill="#3FB7AE"/>
<path d="M468.209 70.5601H520.301C525.263 70.5601 529.294 66.5408 529.294 61.5938V43.6612C529.294 38.7142 525.263 34.6948 520.301 34.6948H468.209C463.248 34.6948 459.217 38.7142 459.217 43.6612V61.5938C459.217 66.5408 463.248 70.5601 468.209 70.5601Z" fill="#DCE2E2"/>
<path d="M506.968 65.6132L513.79 86.0193L493.945 65.6132H506.968Z" fill="#DCE2E2"/>
<path d="M508.718 53.9967C508.718 55.8076 510.291 57.2652 512.24 57.2652C514.189 57.2652 515.739 55.8076 515.739 53.9967C515.739 52.1857 514.166 50.7281 512.24 50.7281C510.291 50.7281 508.718 52.1857 508.718 53.9967Z" fill="white"/>
<path d="M490.778 53.9967C490.778 55.8076 492.351 57.2652 494.277 57.2652C496.227 57.2652 497.777 55.8076 497.777 53.9967C497.777 52.1857 496.204 50.7281 494.277 50.7281C492.351 50.7281 490.778 52.1857 490.778 53.9967Z" fill="white"/>
<path d="M472.838 53.9967C472.838 55.8076 474.411 57.2652 476.338 57.2652C478.264 57.2652 479.837 55.8076 479.837 53.9967C479.837 52.1857 478.264 50.7281 476.338 50.7281C474.411 50.7281 472.838 52.1857 472.838 53.9967Z" fill="white"/>
<path d="M188.901 64.8181H127.263C121.393 64.8181 116.632 60.0699 116.632 54.2175V32.9943C116.632 27.1418 121.393 22.3937 127.263 22.3937H188.901C194.77 22.3937 199.532 27.1418 199.532 32.9943V54.2175C199.532 60.0699 194.77 64.8181 188.901 64.8181Z" fill="#DCE2E2"/>
<path d="M143.054 58.9657L134.97 83.1041L158.447 58.9657H143.054Z" fill="#DCE2E2"/>
<path d="M140.972 45.2291C140.972 47.3713 139.112 49.0939 136.808 49.0939C134.505 49.0939 132.667 47.3713 132.667 45.2291C132.667 43.0869 134.527 41.3643 136.808 41.3643C139.112 41.3643 140.972 43.0869 140.972 45.2291Z" fill="white"/>
<path d="M162.19 45.2291C162.19 47.3713 160.33 49.0939 158.048 49.0939C155.745 49.0939 153.885 47.3713 153.885 45.2291C153.885 43.0869 155.745 41.3643 158.048 41.3643C160.33 41.3643 162.19 43.0869 162.19 45.2291Z" fill="white"/>
<path d="M183.408 45.2291C183.408 47.3713 181.547 49.0939 179.244 49.0939C176.941 49.0939 175.08 47.3713 175.08 45.2291C175.08 43.0869 176.941 41.3643 179.244 41.3643C181.57 41.3643 183.408 43.0869 183.408 45.2291Z" fill="white"/>
<path d="M367.834 218.858C372.241 217.599 372.352 218.372 372.905 218.195C373.57 217.997 378.885 210.797 378.885 210.797C378.885 210.797 394.721 189.751 395.519 188.58L400.502 161.328L415.496 161.217C415.496 161.217 409.228 190.634 408.608 192.091C407.988 193.549 382.916 219.255 380.79 221.596C380.79 221.596 379.417 225.395 378.465 227.758C377.512 230.099 375.497 231.822 375.12 232.44C375.054 232.528 373.681 234.494 371.266 236.393C369.185 238.027 370.292 235.488 370.292 235.488C370.292 235.488 373.503 231.711 373.127 231.49C372.839 231.314 371.222 233.478 368.941 235.333C368.365 235.797 367.767 236.283 367.236 236.702C365.818 237.807 364.622 237.232 365.884 235.819C366.327 235.311 367.103 234.516 367.723 234.03C368.409 233.5 368.83 232.771 369.34 232.241C370.336 231.181 371.067 230.408 371.001 230.386C370.912 230.364 370.934 229.989 370.292 230.474C369.517 231.049 368.21 232.661 366.992 233.434C366.305 233.875 364.932 234.847 364.932 234.847C364.932 234.847 362.54 235.951 362.407 235.819C361.721 235.156 363.094 233.942 364.113 233.478C364.578 232.837 366.04 231.844 366.04 231.844C366.04 231.844 368.476 229.127 368.055 228.752C367.878 228.597 366.15 230.055 364.201 231.225C362.385 232.307 360.347 233.102 360.037 232.749C359.506 232.175 361.366 230.762 361.366 230.762C361.366 230.762 362.739 229.834 363.16 229.503C363.67 229.105 365.043 227.78 365.043 227.78C365.043 227.78 369.628 222.944 369.185 222.612C368.742 222.281 367.324 221.839 366.925 222.038C366.527 222.237 366.017 222.988 365.619 223.187C365.22 223.385 364.489 223.275 364.157 222.811C363.825 222.325 365.309 220.625 365.309 220.625C365.309 220.625 366.571 219.211 367.834 218.858Z" fill="#F48C7F"/>
<path d="M392.75 355.539C392.75 355.539 393.282 364.947 393.282 364.969C393.481 366.162 394.256 369.121 394.256 370.203C394.256 374.289 376.073 366.736 380.148 364.947C380.524 364.793 382.451 363.556 382.562 362.165C382.739 360.022 383.226 355.694 383.226 355.694L392.75 355.539Z" fill="#F7A491"/>
<path d="M380.17 364.881C380.17 364.881 384.444 366.118 386.637 366.449C388.83 366.758 391.709 364.13 393.259 364.837C394.965 365.61 394.788 373.295 394.788 373.295C394.788 373.295 371.997 374.642 365.552 372.567C363.005 371.749 371.444 367.774 380.17 364.881Z" fill="#F7CC7F"/>
<path d="M432.816 356.423C432.816 356.423 433.347 365.831 433.347 365.853C433.547 367.045 434.322 370.005 434.322 371.087C434.322 375.172 416.138 367.619 420.214 365.831C420.59 365.676 423.093 363.512 423.204 362.12C423.381 359.978 423.292 356.577 423.292 356.577L432.816 356.423Z" fill="#F7A491"/>
<path d="M420.258 365.764C420.258 365.764 424.533 367.001 426.725 367.332C428.918 367.641 431.797 365.013 433.348 365.72C435.053 366.493 435.119 373.516 435.119 373.516C435.119 373.516 410.757 375.283 405.02 373.626C402.429 372.898 411.51 368.679 420.258 365.764Z" fill="#F7CC7F"/>
<path d="M403.979 220.735L396.294 224.048L380.126 301.057L380.79 358.786L393.747 359.095C393.747 359.095 399.771 308.588 399.771 304.679C399.771 300.77 427.7 236.172 427.7 236.172L403.979 220.735Z" fill="#1D2226"/>
<path d="M409.915 224.975C409.915 224.975 415.585 284.317 415.585 294.321C415.585 304.325 420.169 360.309 420.169 360.309L433.17 360.243C433.17 360.243 434.101 343.172 435.496 318.084C435.717 314.153 435.208 306.224 435.496 302.139C437.511 272.855 441.52 245.293 439.615 234.383C439.305 232.617 438.729 228.023 437.6 226.875C429.095 218.063 409.915 224.975 409.915 224.975Z" fill="#292F36"/>
<path d="M394.079 178.134L409.804 177.074C409.804 177.074 410.579 163.05 410.579 156.381C410.579 148.276 413.06 136.306 412.085 136.527C409.361 137.167 404.666 139.663 402.495 142.688C394.943 153.178 394.079 178.134 394.079 178.134Z" fill="#3FB7AE"/>
<path d="M431.332 136.24C431.332 136.24 440.302 137.476 442.65 139.221C445.307 141.164 448.253 145.515 448.253 145.515C448.253 145.515 437.246 197.414 437.223 206.137C437.201 212.895 439.615 229.481 439.615 229.481C439.615 229.481 406.349 231.579 393.747 226.61C393.747 226.61 397.733 206.888 397.733 201.698C397.733 196.508 402.495 149.402 403.581 146.111C404.555 143.13 406.349 137.763 412.44 136.438C418.508 135.135 431.332 136.24 431.332 136.24Z" fill="#4ECDC4"/>
<path d="M428.874 122.26L431.088 136.748C431.088 136.748 422.982 153.996 418.132 152.516C414.079 151.257 416.559 135.997 416.559 135.997C416.559 135.997 418.774 127.803 418.11 123.696C417.467 119.588 428.874 122.26 428.874 122.26Z" fill="#F7A491"/>
<path d="M418.132 123.674C417.467 119.566 428.874 122.238 428.874 122.238L429.051 123.431C428.719 124.226 428.32 124.932 427.81 125.44C425.263 128.157 421.277 129.791 417.844 129.901C418.198 127.737 418.42 125.374 418.132 123.674Z" fill="#F47458"/>
<path d="M430.756 101.766C431.088 101.655 433.347 118.263 429.051 122.834C424.754 127.406 416.404 128.908 413.392 125.308C410.07 121.333 410.247 103.466 416.914 98.7621C423.58 94.036 430.756 101.766 430.756 101.766Z" fill="#F7A491"/>
<path d="M419.461 89.8621C424.621 90.9 427.966 94.0139 429.184 95.3611C431.531 95.6261 434.699 96.907 437.999 102.296C442.03 108.921 439.062 116.253 434.344 119.875C429.649 123.475 429.693 127.649 429.693 127.649L428.962 125.484C428.408 123.85 428.187 122.128 428.364 120.405C428.475 119.389 428.696 118.263 429.117 117.357C430.247 114.95 426.681 113.36 425.684 111.35C424.909 109.804 424.887 106.293 423.669 103.731L422.229 101.788C422.229 101.788 418.885 99.2259 415.629 99.9326C412.373 100.683 412.838 88.5149 419.461 89.8621Z" fill="#F7CC7F"/>
<path d="M425.928 114.31C425.884 116.341 426.814 117.998 428.01 118.02C429.184 118.042 430.18 116.408 430.202 114.376C430.247 112.344 429.317 110.688 428.121 110.666C426.947 110.666 425.95 112.278 425.928 114.31Z" fill="#F7A491"/>
<path d="M408.453 189.022L408.231 190.258C408.121 190.899 407.523 191.318 406.88 191.208L381.167 186.769C380.524 186.659 380.103 186.062 380.214 185.422L380.436 184.185C380.546 183.545 381.144 183.125 381.787 183.236L407.501 187.675C408.143 187.785 408.564 188.381 408.453 189.022Z" fill="#13375B"/>
<path d="M444.909 142.909C441.897 142.821 439.217 162.675 441.144 164.618C443.048 166.584 443.425 191.009 443.425 191.009L414.965 190.303C414.411 189.927 408.453 185.93 407.589 185.068C406.703 184.163 402.34 184.605 401.188 185.864C400.037 187.122 403.735 186.084 404.776 186.769C405.795 187.454 404.001 189.176 404.001 189.176C404.001 189.176 396.781 190.214 395.386 188.735C393.99 187.255 390.225 184.737 389.716 186.217C389.45 186.99 391.399 189.309 392.484 190.28C391.111 189.265 389.494 188.182 388.941 188.381C387.922 188.735 388.343 190.015 388.896 190.413C389.45 190.788 395.186 195.161 396.072 195.47C396.936 195.779 410.269 196.089 412.573 196.597C412.573 196.597 450.113 205.121 452.24 204.591C454.122 204.127 455.983 192.136 455.983 182.97C455.961 173.805 454.344 143.196 444.909 142.909Z" fill="#F7A491"/>
<path d="M441.011 138.382C441.011 138.382 446.26 139.596 451.686 145.67C456.625 151.191 459.726 182.153 459.726 182.153L442.694 184.892L441.343 169.919L436.802 163.072L441.011 138.382Z" fill="#4ECDC4"/>
<path d="M222.255 108.634C222.255 108.634 208.324 105.056 206.663 119.853C205.002 134.65 212.555 136.924 208.457 144.08C204.36 151.213 199.775 145.868 198.867 166.142C197.981 186.416 244.581 211.04 256.873 199.004C296.784 159.892 249.431 143.947 251.336 131.977C253.263 119.985 247.77 109.826 240.483 105.498C233.197 101.125 223.916 101.103 222.255 108.634Z" fill="#20110C"/>
<path d="M269.564 360C269.564 360 269.32 363.865 271.291 366.051C273.262 368.238 280.593 369.408 281.568 371.904C282.542 374.399 274.193 374.554 271.38 373.781C268.567 373.008 261.258 372.412 259.42 372.323C257.582 372.235 261.767 360.089 262.144 359.757C262.521 359.426 269.564 360 269.564 360Z" fill="#784949"/>
<path d="M226.774 357.615C226.774 357.615 228.59 365.764 228.413 368.9C228.235 372.036 224.404 376.917 221.458 376.762C218.512 376.608 216.076 374.642 216.785 370.822C217.494 367.001 219.731 357.902 219.731 357.902L226.774 357.615Z" fill="#784949"/>
<path d="M204.914 220.161C204.914 220.161 203.031 158.147 205.977 155.21C207.15 154.04 216.829 150.86 223.429 149.777C233.307 148.165 241.059 148.85 241.059 148.85C241.059 148.85 251.136 160.886 251.136 165.347C251.136 169.808 251.779 220.647 251.779 220.647C259.575 223.518 271.645 274.997 272.531 288.269C273.439 301.542 271.49 363.246 271.49 363.246L260.129 362.01C253.927 352.315 251.136 301.277 249.32 294.939C246.818 286.171 235.079 259.339 235.079 259.339L229.033 256.711C229.033 256.711 230.428 297.17 229.919 306.511C229.409 315.831 229.985 361.016 229.985 361.016L218.601 360.398C209.697 344.452 203.319 270.911 203.54 267.068C203.762 263.226 199.819 256.909 199 245.867C198.358 237.122 204.914 220.161 204.914 220.161Z" fill="#4ECDC4"/>
<path d="M224.824 220.696H245.023V218.554H224.824V220.696Z" fill="white"/>
<path d="M233.108 221.552H237.006C237.715 221.552 238.313 220.978 238.313 220.249V219.322C238.313 218.615 237.737 218.019 237.006 218.019H233.108C232.399 218.019 231.801 218.593 231.801 219.322V220.249C231.801 220.978 232.399 221.552 233.108 221.552Z" fill="#50BFA5"/>
<path opacity="0.38" d="M204.913 220.161C204.913 220.161 203.252 165.104 205.511 156.292C208.457 154.305 217.87 150.793 220.173 150.617C219.753 155.144 223.872 180.608 228.102 193.682C230.76 201.941 230.384 212.056 229.365 219.94C228.745 224.843 227.77 229.569 226.663 233.699C226.419 233.765 220.151 237.122 209.254 237.122C208.789 237.1 204.714 236.835 200.041 236.106C201.791 228.222 204.913 220.161 204.913 220.161Z" fill="#001C41"/>
<path opacity="0.38" d="M238.379 234.295C238.136 233.522 239.996 224.556 240.572 219.918H240.594C244.426 188.911 240.97 149.424 240.926 148.828C241.148 149.049 241.812 149.799 242.698 150.86C245.4 154.305 250.583 161.261 251.092 164.817C251.092 164.927 251.114 165.038 251.114 165.126C251.114 165.148 251.114 165.192 251.114 165.215C251.114 165.767 251.114 166.893 251.136 168.439C251.136 168.748 251.159 169.057 251.181 169.366C251.314 182.44 251.801 220.647 251.801 220.647C254.326 221.574 257.271 227.581 260.173 235.709C250.76 236.305 239.044 236.459 238.379 234.295Z" fill="#001C41"/>
<path d="M193.884 228.244C193.862 236.018 214.858 236.57 224.825 232.109L223.739 198.408L220.329 150.396C220.329 150.396 207.726 152.891 203.43 155.807C203.43 155.807 202.034 205.718 200.816 215.877C199.598 226.013 193.906 224.71 193.884 228.244Z" fill="#F7FFF7"/>
<path d="M252.155 151.566C252.155 151.566 257.072 191.318 257.072 201.654C257.072 212.012 259.043 229.878 259.043 229.878C259.043 229.878 248.412 233.942 241.015 232.109C241.015 232.109 248.058 192.246 248.058 189.64C248.058 187.034 240.926 148.806 240.926 148.806C240.926 148.806 247.681 149.181 252.155 151.566Z" fill="#F7FFF7"/>
<path d="M258.733 362.761L272.509 363.666L272.531 360.11L258.202 359.315L258.733 362.761Z" fill="white"/>
<path d="M217.073 360.464L230.738 361.37L230.827 357.836L216.475 357.041L217.073 360.464Z" fill="white"/>
<path d="M260.195 365.301C261.28 366.67 264.824 369.475 275.189 368.238C277.891 369.32 280.948 370.358 281.568 371.904C282.542 374.399 274.193 374.554 271.38 373.781C268.567 373.008 261.258 372.412 259.42 372.323C258.423 372.257 259.221 368.635 260.195 365.301Z" fill="#292F36"/>
<path d="M228.413 368.9C228.235 372.036 224.404 376.917 221.458 376.762C218.512 376.608 216.076 374.642 216.785 370.822C217.028 369.541 217.449 367.641 217.892 365.72C218.269 368.105 219.376 372.169 222.521 370.755C225.932 369.232 227.438 365.698 228.036 364.329C228.302 366.073 228.479 367.796 228.413 368.9Z" fill="#292F36"/>
<path opacity="0.18" d="M257.825 216.87C253.839 216.672 248.767 216.407 243.783 216.164C244.071 214.441 244.381 212.674 244.691 210.885L257.449 211.57C257.559 213.337 257.692 215.126 257.825 216.87Z" fill="#001653"/>
<path opacity="0.18" d="M224.293 215.28C224.271 215.28 224.249 215.28 224.227 215.28C221.126 215.28 209.077 218.571 204.692 218.571C203.009 218.571 201.636 218.085 200.55 217.489C200.55 217.445 200.572 217.422 200.572 217.378C200.661 216.914 200.727 216.407 200.794 215.854C200.816 215.589 200.86 215.302 200.883 214.993C201.038 213.491 201.148 211.791 201.259 210.179H224.138L224.293 215.28Z" fill="#001653"/>
<path d="M252.067 151.655C252.067 151.655 255.788 152.427 261.059 170.007C266.308 187.586 262.831 210.157 259.198 212.497C255.566 214.838 220.329 213.977 220.329 213.977L220.196 201.323C220.196 201.323 246.884 197.171 249.52 193.924C250.162 193.129 249.055 189.728 249.276 185.863C249.985 173.982 252.067 151.655 252.067 151.655Z" fill="#F7FFF7"/>
<path d="M250.76 192.047C250.76 192.047 254.414 189.552 255.788 187.873C257.161 186.195 259.907 183.942 260.018 185.135C260.151 186.327 258.888 188.05 258.888 188.05C258.888 188.05 263.872 184.583 264.536 185.113C265.2 185.643 265.843 189.375 265.4 193.483C264.935 197.591 253.263 200.572 253.263 200.572L250.76 192.047Z" fill="#784949"/>
<path d="M204.161 215.943C216.873 218.063 243.695 208.633 254.569 205.232L250.494 191.164C250.494 191.164 218.468 199.998 214.26 198.121C212.178 197.193 206.863 187.343 204.914 177.339C202.92 167.114 203.407 155.807 203.407 155.807C203.407 155.807 194.194 167.821 196.807 193.218C198.801 212.63 198.579 215.015 204.161 215.943Z" fill="#F7FFF7"/>
<path d="M207.394 187.056C207.394 187.056 210.384 189.596 212.732 191.495C215.08 193.394 218.734 198.518 218.734 198.518C218.734 198.518 214.393 199.556 212.865 199.711C211.336 199.865 206.331 197.083 204.581 197.259C202.832 197.436 203.341 194.852 205.489 195.294C207.616 195.735 209.742 195.956 209.742 195.956C209.742 195.956 204.736 192.688 202.389 190.766C200.041 188.867 201.946 187.432 203.85 188.978C205.755 190.523 207.837 191.407 207.837 191.407C207.837 191.407 201.104 185.731 202.079 184.539C203.053 183.346 207.394 187.056 207.394 187.056Z" fill="#784949"/>
<path d="M234.99 134.959C234.99 134.959 235.699 145.007 236.652 147.194C236.917 147.812 237.382 148.276 237.892 148.629C240.55 150.396 235.81 172.767 233.396 172.26C230.805 171.73 224.359 157.86 222.3 153.355C221.68 152.03 222.233 150.418 223.584 149.822C223.584 149.822 223.584 149.822 223.606 149.822C225.843 148.828 224.204 130.431 224.204 130.431L234.99 134.959Z" fill="#784949"/>
<path opacity="0.65" d="M225.752 129.475C225.752 129.475 225.291 129.735 225.348 130.456C225.444 131.856 226.155 133.597 226.751 134.858C229.536 140.66 233.57 143.461 236.336 143.861C235.644 140.92 235.145 133.597 235.145 133.597L225.752 129.475Z" fill="#643D3D"/>
<path d="M223.806 122.503C223.806 122.503 225.445 115.259 230.915 113.095C236.364 110.953 241.369 112.565 243.252 119.654C245.134 126.743 242.41 138.006 239.088 141.474C235.766 144.941 224.227 139.155 223.806 122.503Z" fill="#784949"/>
<path d="M225.445 124.8C225.445 124.8 222.721 120.582 221.037 123.011C219.354 125.462 220.838 131.293 224.027 131.58C227.194 131.911 225.445 124.8 225.445 124.8Z" fill="#784949"/>
<path d="M86.931 356.666C86.931 356.666 86.9088 356.975 86.9088 357.505C86.9088 359.095 87.1746 362.584 89.3672 365.168C92.2908 368.613 92.3129 372.898 89.2122 373.626C86.1115 374.355 78.7583 373.383 78.7583 373.383C78.7583 373.383 77.0972 370.115 78.2268 361.37C79.3563 352.624 80.0208 343.017 80.0208 343.017L88.4149 341.538L86.931 356.666Z" fill="#FF7446"/>
<path d="M88.57 360.376C88.57 360.376 91.6929 365.168 92.4237 367.156C93.1546 369.143 92.9996 374.112 92.4237 374.62C87.3961 379.126 77.8282 375.062 77.8282 375.062C77.8282 375.062 77.1638 371.771 76.8315 367.708C76.4993 363.666 76.6765 359.89 77.8282 359.89C78.9799 359.89 79.1571 362.01 81.7484 361.414C84.3176 360.84 85.9122 359.78 88.57 360.376Z" fill="#FFE66D"/>
<path d="M77.0309 369.739C78.9799 370.601 81.6155 371.595 84.0518 371.992C86.6653 372.412 90.1868 371.087 92.8446 369.784C92.9775 371.904 92.7781 374.289 92.4016 374.62C87.374 379.125 77.8061 375.062 77.8061 375.062C77.8061 375.062 77.3631 372.809 77.0309 369.739Z" fill="white"/>
<path d="M111.161 350.902C110.076 354.788 111.139 359.051 113.952 361.613C114.926 362.496 116.034 363.335 117.296 363.953C122.191 366.383 128.525 365.831 129.411 370.8C130.297 375.769 98.3816 369.408 98.3816 369.408C98.3816 369.408 100.596 357.328 100.729 355.296C100.862 353.265 100.53 345.844 100.53 345.844L112.844 344.85L111.161 350.902Z" fill="#FF7446"/>
<path d="M99.6882 360.84C99.6882 360.84 99.2895 362.761 98.4036 366.007C97.5177 369.254 98.0714 372.324 98.0714 372.324C98.0714 372.324 127.949 373.936 129.167 372.854C130.385 371.794 129.765 367.885 129.455 367.531C129.145 367.178 125.358 366.03 123.409 364.66C121.46 363.313 114.815 358.167 112.578 358.366C110.341 358.565 109.3 360.442 105.026 360.663C100.751 360.906 100.729 359.912 99.6882 360.84Z" fill="#FFE66D"/>
<path d="M129.145 372.853C127.927 373.913 98.0493 372.323 98.0493 372.323C98.0493 372.323 97.6728 370.314 98.0272 367.818C113.619 371.087 129.433 367.531 129.433 367.531C129.743 367.884 130.363 371.793 129.145 372.853Z" fill="white"/>
<path d="M98.0272 367.818C108.68 370.225 120.485 369.717 129.433 367.531C113.176 370.314 100.043 368.149 100.951 368.26C100.929 368.282 97.8278 367.796 98.0272 367.818Z" fill="#9CB9BD"/>
<path d="M74.5724 232.087L77.3852 354.457L90.8069 352.536C90.8069 352.536 95.0593 254.326 97.562 251.411C100.043 248.495 101.039 251.587 101.039 251.587C101.039 251.587 111.759 292.444 109.766 300.593C107.772 308.742 98.8688 352.403 98.8688 352.403L111.759 352.978C111.759 352.978 126.465 319.497 126.465 296.22C126.465 272.943 117.385 234.229 117.385 234.229L74.5724 232.087Z" fill="#292F36"/>
<path d="M98.3851 352.93H113.889V349.33H98.3851V352.93Z" fill="#021753"/>
<path d="M76.206 354.464H91.8646V349.915H76.206V354.464Z" fill="#021753"/>
<path d="M80.2644 351.697C80.2865 351.697 80.3308 351.697 80.353 351.675C80.5745 351.608 80.7073 351.365 80.663 351.122C78.1825 338.159 78.0274 253.95 78.0274 253.111C78.0274 252.846 77.8502 252.647 77.6288 252.647C77.4073 252.647 77.2301 252.846 77.2301 253.111C77.2301 256.578 77.3851 338.269 79.8879 351.321C79.9322 351.542 80.0872 351.697 80.2644 351.697Z" fill="#021753"/>
<path d="M101.061 351.696C101.216 351.696 101.371 351.586 101.438 351.387C102.036 349.466 116.189 304.259 115.391 298.031C114.594 291.869 105.557 253.133 105.181 251.477C105.115 251.234 104.915 251.079 104.694 251.146C104.472 251.212 104.361 251.477 104.406 251.72C104.494 252.117 113.819 292.068 114.594 298.164C115.369 304.171 100.818 350.592 100.685 351.056C100.618 351.299 100.707 351.564 100.929 351.652C100.973 351.697 101.017 351.696 101.061 351.696Z" fill="#021753"/>
<path d="M114.993 146.376L133.752 171.045L111.648 179.084L114.993 146.376Z" fill="#4ECDC4"/>
<path d="M66.2005 138.426C69.0576 135.577 75.6798 133.501 79.9987 132.375C82.4793 131.734 85.0706 131.58 87.6176 131.933L97.3406 133.258C97.3406 133.258 109.987 141.363 114.727 146.089C119.466 150.815 123.763 180.409 123.763 180.409L121.615 191.694L124.095 241.34C123.01 241.34 90.3861 245.315 72.2469 239.905C72.2469 239.905 72.2469 213.425 71.7375 197.348C69.5891 185.091 62.4353 142.18 66.2005 138.426Z" fill="#4ECDC4"/>
<path d="M66.3998 138.227C67.8837 136.836 70.1871 135.71 72.0697 134.937C72.0697 134.937 75.6577 132.971 78.9134 146.376C82.1692 159.782 78.0275 176.08 79.4893 177.516C80.9289 178.951 112.667 177.317 112.667 177.317C112.667 177.317 94.1291 187.94 85.0706 195.691C81.4383 198.805 71.8039 200.439 71.8039 200.329C71.7818 199.269 71.7375 198.253 71.7153 197.281C70.6965 191.407 62.0366 142.291 66.3998 138.227Z" fill="#3FB7AE"/>
<path d="M146.487 166.473L130.54 196.508C130.164 197.215 129.411 197.635 128.636 197.59L109.699 196.486C108.348 196.398 107.44 195.029 107.905 193.748L117.672 166.297C117.938 165.524 118.647 164.994 119.466 164.95L144.582 163.448C146.155 163.359 147.24 165.06 146.487 166.473Z" fill="#F7CC7F"/>
<path d="M106.399 193.571L116.299 166.407C116.587 165.634 117.296 165.104 118.115 165.06L119.09 164.994C118.514 165.193 118.049 165.656 117.85 166.231L107.949 193.637C107.529 194.808 108.237 196.067 109.411 196.332L108.215 196.266C106.842 196.221 105.934 194.852 106.399 193.571Z" fill="#DB9044"/>
<path d="M70.7186 174.954L72.2247 180.342C72.2247 180.342 104.273 172.105 108.038 170.294C111.072 168.836 123.165 165.612 127.683 165.921C128.414 165.965 128.503 167.003 127.794 167.18C124.959 167.865 119.311 169.278 119.311 169.852C119.311 170.603 124.981 171.707 124.583 172.635C123.763 174.49 120.973 175.55 120.441 177.295C119.909 179.017 114.151 177.67 112.18 177.67C110.209 177.67 73.6422 199.799 62.5903 194.543C51.5384 189.287 58.2271 166.01 58.2271 166.01L70.7186 174.954Z" fill="#F99662"/>
<path d="M130.806 186.504C131.537 185.775 131.493 183.964 132.357 183.125C133.198 182.286 134.128 183.986 134.35 182.065C134.571 180.144 133.22 177.184 134.527 177.339C135.834 177.494 137.65 182.882 137.65 182.882C138.602 185.091 134.35 193.306 132.091 192.754C129.832 192.202 128.968 189.53 128.968 188.293C128.968 187.056 130.075 187.233 130.806 186.504Z" fill="#F99662"/>
<path d="M97.3406 133.258C97.3628 133.258 97.3628 133.28 97.3849 133.28C97.3849 133.28 97.4071 133.28 97.4071 133.302C97.4292 133.302 97.4292 133.324 97.4514 133.324L97.4735 133.347C97.4957 133.369 97.5178 133.369 97.54 133.391L97.5621 133.413C97.5843 133.435 97.6286 133.457 97.6507 133.479C97.6507 133.479 97.6507 133.479 97.6729 133.479C97.6729 133.479 97.695 133.479 97.695 133.501C97.695 133.501 97.7172 133.501 97.7172 133.523C97.7393 133.523 97.7393 133.545 97.7615 133.545C97.7615 133.545 97.7836 133.545 97.7836 133.567C97.85 133.612 97.9165 133.656 97.9829 133.7C98.0051 133.7 98.0051 133.722 98.0272 133.722C99.2232 134.495 101.792 136.195 104.649 138.205C104.649 138.205 105.823 142.953 105.27 145.979C104.716 149.027 103.52 149.976 101.837 149.292C100.153 148.607 96.9641 144.124 96.2332 144.367C95.5024 144.61 90.6076 150.749 88.2378 149.8C86.6431 149.159 81.8592 138.735 79.4672 132.529C79.6443 132.485 79.7994 132.441 79.9766 132.397C82.4572 131.756 85.0485 131.602 87.5955 131.955L97.3406 133.258Z" fill="white"/>
<path d="M102.457 125.573C101.704 129.548 101.327 133.854 102.014 136.35C102.014 136.35 100.441 143.174 96.499 143.505C92.5566 143.837 85.1149 131.779 85.1149 131.779L93.3096 118.947L102.457 125.573Z" fill="#F99662"/>
<path opacity="0.4" d="M101.682 131.823C96.964 131.006 92.5344 127.406 91.3163 122.039L93.3096 118.903L102.457 125.551C102.036 127.671 101.748 129.857 101.682 131.823Z" fill="#F26E5A"/>
<path d="M110.829 101.456C110.829 101.456 114.682 125.573 107.794 128.355C100.906 131.138 91.5821 126.677 90.8733 118.484C90.1868 110.312 91.9364 93.6385 110.829 101.456Z" fill="#F99662"/>
<path d="M103.852 96.5316C103.852 96.5316 117.008 92.6668 117.783 96.4875C118.558 100.308 114.239 103.157 111.205 103.422C108.193 103.687 100.486 103.29 98.1379 106.05C95.7902 108.811 91.6042 121.598 91.6042 121.598L89.2344 125.308C89.2344 125.308 88.2599 118.572 84.8712 114.464C81.4604 110.357 83.3873 103.267 86.6431 98.4088C89.921 93.5281 100.862 96.7746 103.852 96.5316Z" fill="#784949"/>
<path d="M95.4579 112.697C95.4579 112.697 94.2176 109.319 92.3572 109.804C88.1491 110.887 91.2277 118.351 92.623 118.572C95.4358 118.992 96.5653 116.783 95.4579 112.697Z" fill="#F99662"/>
<path d="M78.0718 148.784C78.2047 156.778 73.8637 180.387 73.8637 180.387C73.8637 180.387 57.009 180.055 55.658 178.708C54.307 177.361 58.648 141.739 66.0897 136.748C74.9932 130.763 77.9389 141.054 78.0718 148.784Z" fill="#4ECDC4"/>
<path d="M357.934 62.6317H422.518C428.675 62.6317 433.659 57.6627 433.659 51.5232V29.3062C433.659 23.1667 428.675 18.1976 422.518 18.1976H357.934C351.777 18.1976 346.794 23.1667 346.794 29.3062V51.5453C346.772 57.6627 351.777 62.6317 357.934 62.6317Z" fill="#DCE2E2"/>
<path d="M406.305 48.4976L407.944 79.9902L385.641 47.7467L406.305 48.4976Z" fill="#DCE2E2"/>
<path d="M263.599 65.4508C263.599 66.0375 263.482 66.5801 263.247 67.0788C263.013 67.5628 262.697 67.9881 262.301 68.3548C261.905 68.7068 261.443 68.9855 260.915 69.1908C260.387 69.3815 259.823 69.4768 259.221 69.4768H251.873V53.8568H259.375C259.918 53.8568 260.409 53.9741 260.849 54.2088C261.289 54.4435 261.663 54.7515 261.971 55.1328C262.279 55.4995 262.514 55.9248 262.675 56.4088C262.851 56.8781 262.939 57.3548 262.939 57.8388C262.939 58.6308 262.741 59.3568 262.345 60.0168C261.949 60.6621 261.399 61.1461 260.695 61.4688C261.59 61.7328 262.294 62.2241 262.807 62.9428C263.335 63.6615 263.599 64.4975 263.599 65.4508ZM262.059 65.1868C262.059 64.8055 261.993 64.4388 261.861 64.0868C261.729 63.7201 261.539 63.4048 261.289 63.1408C261.055 62.8621 260.769 62.6421 260.431 62.4808C260.109 62.3048 259.757 62.2168 259.375 62.2168H253.391V68.1348H259.221C259.617 68.1348 259.991 68.0541 260.343 67.8928C260.695 67.7315 260.996 67.5188 261.245 67.2548C261.495 66.9761 261.693 66.6608 261.839 66.3088C261.986 65.9421 262.059 65.5681 262.059 65.1868ZM253.391 55.1988V60.9628H258.759C259.141 60.9628 259.493 60.8821 259.815 60.7208C260.153 60.5595 260.439 60.3468 260.673 60.0828C260.923 59.8188 261.113 59.5181 261.245 59.1808C261.377 58.8288 261.443 58.4621 261.443 58.0808C261.443 57.6848 261.377 57.3108 261.245 56.9588C261.128 56.6068 260.952 56.3061 260.717 56.0568C260.497 55.7928 260.226 55.5875 259.903 55.4408C259.595 55.2795 259.258 55.1988 258.891 55.1988H253.391ZM269.715 69.6968C268.513 69.6968 267.603 69.2861 266.987 68.4648C266.371 67.6288 266.063 66.3895 266.063 64.7468V58.0148H267.559V64.4828C267.559 67.0788 268.447 68.3768 270.221 68.3768C270.661 68.3768 271.094 68.3035 271.519 68.1568C271.945 68.0101 272.333 67.7975 272.685 67.5188C273.052 67.2401 273.375 66.9101 273.653 66.5288C273.947 66.1475 274.181 65.7148 274.357 65.2308V58.0148H275.853V67.5408C275.853 67.9515 276.037 68.1568 276.403 68.1568V69.4768C276.11 69.5208 275.905 69.5428 275.787 69.5428C275.45 69.5428 275.157 69.4401 274.907 69.2348C274.673 69.0295 274.555 68.7728 274.555 68.4648V66.8808C274.042 67.7755 273.36 68.4721 272.509 68.9708C271.659 69.4548 270.727 69.6968 269.715 69.6968ZM288.872 69.4768H287.376V63.0748C287.376 61.7108 287.178 60.7208 286.782 60.1048C286.386 59.4888 285.77 59.1808 284.934 59.1808C284.494 59.1808 284.054 59.2615 283.614 59.4228C283.174 59.5841 282.763 59.8115 282.382 60.1048C282 60.3981 281.663 60.7501 281.37 61.1608C281.091 61.5568 280.878 61.9895 280.732 62.4588V69.4768H279.236V58.0148H280.6V60.6108C280.834 60.2001 281.12 59.8261 281.458 59.4888C281.81 59.1368 282.198 58.8361 282.624 58.5868C283.049 58.3375 283.496 58.1468 283.966 58.0148C284.45 57.8828 284.948 57.8168 285.462 57.8168C286.107 57.8168 286.642 57.9341 287.068 58.1688C287.508 58.4035 287.86 58.7335 288.124 59.1588C288.388 59.5841 288.578 60.1048 288.696 60.7208C288.813 61.3368 288.872 62.0188 288.872 62.7668V69.4768ZM295.012 69.6968C294.425 69.6968 293.89 69.6088 293.406 69.4328C292.922 69.2421 292.504 68.9855 292.152 68.6628C291.815 68.3401 291.551 67.9661 291.36 67.5408C291.169 67.1155 291.074 66.6681 291.074 66.1988C291.074 65.6708 291.191 65.1941 291.426 64.7688C291.661 64.3288 291.991 63.9548 292.416 63.6468C292.841 63.3388 293.347 63.1041 293.934 62.9428C294.535 62.7668 295.195 62.6788 295.914 62.6788C296.486 62.6788 297.073 62.7301 297.674 62.8328C298.275 62.9355 298.811 63.0821 299.28 63.2728V62.2388C299.28 61.2268 298.987 60.4275 298.4 59.8408C297.828 59.2395 297.051 58.9388 296.068 58.9388C295.452 58.9388 294.836 59.0561 294.22 59.2908C293.619 59.5255 293.003 59.8628 292.372 60.3028L291.844 59.3128C292.592 58.8141 293.318 58.4401 294.022 58.1908C294.726 57.9415 295.459 57.8168 296.222 57.8168C297.615 57.8168 298.723 58.2201 299.544 59.0268C300.365 59.8335 300.776 60.9481 300.776 62.3708V67.5408C300.776 67.9515 300.952 68.1568 301.304 68.1568V69.4768C301.187 69.4915 301.077 69.4988 300.974 69.4988C300.871 69.5135 300.783 69.5208 300.71 69.5208C300.417 69.5208 300.145 69.4328 299.896 69.2568C299.661 69.0808 299.529 68.8168 299.5 68.4648L299.456 67.5628C298.957 68.2375 298.297 68.7655 297.476 69.1468C296.669 69.5135 295.848 69.6968 295.012 69.6968ZM295.386 68.5528C296.046 68.5528 296.699 68.4135 297.344 68.1348C298.004 67.8415 298.525 67.4455 298.906 66.9468C299.009 66.8148 299.097 66.6755 299.17 66.5288C299.243 66.3675 299.28 66.2208 299.28 66.0888V64.2188C298.781 64.0281 298.261 63.8815 297.718 63.7788C297.175 63.6761 296.647 63.6248 296.134 63.6248C295.063 63.6248 294.191 63.8448 293.516 64.2848C292.856 64.7101 292.526 65.3041 292.526 66.0668C292.526 66.3748 292.585 66.6755 292.702 66.9688C292.819 67.2621 292.995 67.5261 293.23 67.7608C293.479 67.9955 293.78 68.1861 294.132 68.3328C294.484 68.4795 294.902 68.5528 295.386 68.5528ZM296.156 54.8688C296.464 54.8688 296.735 54.7295 296.97 54.4508C297.219 54.1721 297.366 53.8275 297.41 53.4168H298.312C298.312 53.7248 298.253 54.0181 298.136 54.2968C298.033 54.5608 297.879 54.7955 297.674 55.0008C297.483 55.1915 297.256 55.3455 296.992 55.4628C296.728 55.5801 296.449 55.6388 296.156 55.6388C295.54 55.6388 295.027 55.4261 294.616 55.0008C294.205 54.5755 294 54.0475 294 53.4168H294.924C294.924 53.7981 295.049 54.1355 295.298 54.4288C295.547 54.7221 295.833 54.8688 296.156 54.8688ZM304.359 64.4608V53.7028H305.855V64.4608H304.359ZM304.359 69.4768V67.0128H305.855V69.4768H304.359Z" fill="#292F36"/>
<path d="M372.556 36.5824C372.116 36.0837 371.522 35.6804 370.774 35.3724C370.041 35.0644 369.212 34.9104 368.288 34.9104C366.895 34.9104 365.883 35.1744 365.252 35.7024C364.622 36.2157 364.306 36.9197 364.306 37.8144C364.306 38.2837 364.387 38.6724 364.548 38.9804C364.724 39.2737 364.988 39.5304 365.34 39.7504C365.707 39.9704 366.162 40.161 366.704 40.3224C367.262 40.4837 367.914 40.645 368.662 40.8064C369.498 40.9824 370.246 41.1804 370.906 41.4004C371.566 41.6057 372.131 41.877 372.6 42.2144C373.07 42.537 373.429 42.9404 373.678 43.4244C373.928 43.8937 374.052 44.4804 374.052 45.1844C374.052 45.903 373.913 46.5264 373.634 47.0544C373.356 47.5824 372.967 48.0224 372.468 48.3744C371.97 48.7264 371.376 48.9904 370.686 49.1664C369.997 49.3277 369.249 49.4084 368.442 49.4084C365.993 49.4084 363.903 48.653 362.172 47.1424L362.92 45.8884C363.492 46.4897 364.262 47.003 365.23 47.4284C366.198 47.839 367.276 48.0444 368.464 48.0444C369.711 48.0444 370.686 47.8244 371.39 47.3844C372.094 46.9297 372.446 46.2477 372.446 45.3384C372.446 44.8544 372.344 44.451 372.138 44.1284C371.948 43.791 371.654 43.505 371.258 43.2704C370.862 43.021 370.364 42.8084 369.762 42.6324C369.176 42.4564 368.494 42.2804 367.716 42.1044C366.895 41.9137 366.176 41.7157 365.56 41.5104C364.944 41.305 364.424 41.0484 363.998 40.7404C363.588 40.4324 363.272 40.0657 363.052 39.6404C362.847 39.2004 362.744 38.665 362.744 38.0344C362.744 37.3157 362.876 36.6777 363.14 36.1204C363.419 35.5484 363.8 35.079 364.284 34.7124C364.783 34.331 365.37 34.045 366.044 33.8544C366.734 33.649 367.489 33.5464 368.31 33.5464C369.337 33.5464 370.254 33.7077 371.06 34.0304C371.882 34.3384 372.622 34.7784 373.282 35.3504L372.556 36.5824ZM379.494 49.4964C378.907 49.4964 378.372 49.4084 377.888 49.2324C377.404 49.0417 376.986 48.785 376.634 48.4624C376.296 48.1397 376.032 47.7657 375.842 47.3404C375.651 46.915 375.556 46.4677 375.556 45.9984C375.556 45.4704 375.673 44.9937 375.908 44.5684C376.142 44.1284 376.472 43.7544 376.898 43.4464C377.323 43.1384 377.829 42.9037 378.416 42.7424C379.017 42.5664 379.677 42.4784 380.396 42.4784C380.968 42.4784 381.554 42.5297 382.156 42.6324C382.757 42.735 383.292 42.8817 383.762 43.0724V42.0384C383.762 41.0264 383.468 40.227 382.882 39.6404C382.31 39.039 381.532 38.7384 380.55 38.7384C379.934 38.7384 379.318 38.8557 378.702 39.0904C378.1 39.325 377.484 39.6624 376.854 40.1024L376.326 39.1124C377.074 38.6137 377.8 38.2397 378.504 37.9904C379.208 37.741 379.941 37.6164 380.704 37.6164C382.097 37.6164 383.204 38.0197 384.026 38.8264C384.847 39.633 385.258 40.7477 385.258 42.1704V47.3404C385.258 47.751 385.434 47.9564 385.786 47.9564V49.2764C385.668 49.291 385.558 49.2984 385.456 49.2984C385.353 49.313 385.265 49.3204 385.192 49.3204C384.898 49.3204 384.627 49.2324 384.378 49.0564C384.143 48.8804 384.011 48.6164 383.982 48.2644L383.938 47.3624C383.439 48.037 382.779 48.565 381.958 48.9464C381.151 49.313 380.33 49.4964 379.494 49.4964ZM379.868 48.3524C380.528 48.3524 381.18 48.213 381.826 47.9344C382.486 47.641 383.006 47.245 383.388 46.7464C383.49 46.6144 383.578 46.475 383.652 46.3284C383.725 46.167 383.762 46.0204 383.762 45.8884V44.0184C383.263 43.8277 382.742 43.681 382.2 43.5784C381.657 43.4757 381.129 43.4244 380.616 43.4244C379.545 43.4244 378.672 43.6444 377.998 44.0844C377.338 44.5097 377.008 45.1037 377.008 45.8664C377.008 46.1744 377.066 46.475 377.184 46.7684C377.301 47.0617 377.477 47.3257 377.712 47.5604C377.961 47.795 378.262 47.9857 378.614 48.1324C378.966 48.279 379.384 48.3524 379.868 48.3524ZM388.576 33.2164H390.072V46.6804C390.072 47.1057 390.19 47.443 390.424 47.6924C390.659 47.927 390.989 48.0444 391.414 48.0444C391.576 48.0444 391.766 48.0224 391.986 47.9784C392.206 47.9344 392.412 47.8757 392.602 47.8024L392.866 49.0124C392.588 49.1297 392.243 49.225 391.832 49.2984C391.436 49.3717 391.092 49.4084 390.798 49.4084C390.109 49.4084 389.566 49.2177 389.17 48.8364C388.774 48.4404 388.576 47.8904 388.576 47.1864V33.2164ZM397.853 49.4964C396.65 49.4964 395.741 49.0857 395.125 48.2644C394.509 47.4284 394.201 46.189 394.201 44.5464V37.8144H395.697V44.2824C395.697 46.8784 396.584 48.1764 398.359 48.1764C398.799 48.1764 399.232 48.103 399.657 47.9564C400.082 47.8097 400.471 47.597 400.823 47.3184C401.19 47.0397 401.512 46.7097 401.791 46.3284C402.084 45.947 402.319 45.5144 402.495 45.0304V37.8144H403.991V47.3404C403.991 47.751 404.174 47.9564 404.541 47.9564V49.2764C404.248 49.3204 404.042 49.3424 403.925 49.3424C403.588 49.3424 403.294 49.2397 403.045 49.0344C402.81 48.829 402.693 48.5724 402.693 48.2644V46.6804C402.18 47.575 401.498 48.2717 400.647 48.7704C399.796 49.2544 398.865 49.4964 397.853 49.4964ZM412.896 48.7264C412.808 48.7704 412.676 48.829 412.5 48.9024C412.339 48.9757 412.148 49.049 411.928 49.1224C411.708 49.1957 411.459 49.2617 411.18 49.3204C410.901 49.379 410.608 49.4084 410.3 49.4084C409.977 49.4084 409.669 49.3644 409.376 49.2764C409.083 49.1884 408.826 49.0564 408.606 48.8804C408.386 48.6897 408.21 48.455 408.078 48.1764C407.946 47.8977 407.88 47.575 407.88 47.2084V39.0024H406.296V37.8144H407.88V33.9424H409.376V37.8144H412.016V39.0024H409.376V46.7904C409.405 47.2157 409.552 47.531 409.816 47.7364C410.08 47.927 410.395 48.0224 410.762 48.0224C411.187 48.0224 411.561 47.9564 411.884 47.8244C412.207 47.6777 412.412 47.575 412.5 47.5164L412.896 48.7264ZM414.987 44.2604V33.5024H416.483V44.2604H414.987ZM414.987 49.2764V46.8124H416.483V49.2764H414.987Z" fill="#292F36"/>
</g>
<defs>
<linearGradient id="paint0_linear_6_234" x1="19.0868" y1="224.625" x2="648.444" y2="224.625" gradientUnits="userSpaceOnUse">
<stop stop-color="#BCFFFA"/>
<stop offset="1" stop-color="#1A7E77"/>
</linearGradient>
<clipPath id="clip0_6_234">
<rect width="670" height="385" fill="white"/>
</clipPath>
</defs>
</svg>
