<?xml version="1.0" encoding="utf-8"?>
<!-- Generator: Adobe Illustrator 27.1.1, SVG Export Plug-In . SVG Version: 6.00 Build 0)  -->
<svg version="1.1" id="Layer_3" xmlns="http://www.w3.org/2000/svg" xmlns:xlink="http://www.w3.org/1999/xlink" x="0px" y="0px"
	 viewBox="0 0 40.5 10.9" style="enable-background:new 0 0 40.5 10.9;" xml:space="preserve">
<style type="text/css">
	.st0{fill:#FFCD87;}
	.st1{opacity:0.2;fill:#FF9F19;enable-background:new    ;}
	.st2{fill:#FFDBA8;}
	.st3{fill:#FFCA4F;}
	.st4{opacity:0.1;fill:#FFE6AD;enable-background:new    ;}
	.st5{opacity:0.2;fill:#FFE19C;enable-background:new    ;}
	.st6{opacity:0.1;fill:#FF580A;enable-background:new    ;}
	.st7{opacity:0.1;fill:#A8392F;enable-background:new    ;}
	.st8{opacity:0.1;fill:#7D0000;enable-background:new    ;}
	.st9{fill:#E39666;}
	.st10{opacity:0.2;}
	.st11{fill:#FFA973;}
	.st12{opacity:0.2;fill:#E39666;enable-background:new    ;}
	.st13{opacity:0.3;fill:#FFA973;enable-background:new    ;}
	.st14{opacity:0.2;fill:#FFA973;enable-background:new    ;}
	.st15{opacity:0.3;}
	.st16{opacity:0.1;fill:#FFA973;enable-background:new    ;}
	.st17{opacity:0.2;fill:#7D0000;enable-background:new    ;}
	.st18{fill:#A8A527;}
</style>
<g>
	<ellipse class="st0" cx="20.2" cy="6.1" rx="18.5" ry="4.8"/>
	<path class="st1" d="M6.6,2.9c-3,0.9-4.8,2-4.8,3.2c0,0.4,0.2,0.8,0.6,1.2c3.2,1.3,10,2.1,17.9,2.1S35,8.5,38.2,7.3
		c0.4-0.4,0.6-0.8,0.6-1.2c0-1.2-1.8-2.4-4.8-3.2c-3.6-0.6-8.4-1-13.7-1C14.9,1.8,10.1,2.2,6.6,2.9z"/>
	<ellipse class="st0" cx="20.2" cy="4.8" rx="19.9" ry="3.8"/>
	<ellipse class="st2" cx="20.2" cy="4.2" rx="20.2" ry="3.8"/>
	<path class="st0" d="M39.4,4c0,1.7-8.6,3.1-19.2,3.1S1.1,5.7,1.1,4s8.6-3.1,19.2-3.1S39.4,2.2,39.4,4z"/>
	<path class="st3" d="M20.2,1.8C10.7,1.8,2.9,3,1.4,4.5C2.9,6,10.7,7.1,20.2,7.1S37.6,6,39.1,4.5C37.6,3,29.8,1.8,20.2,1.8z"/>
	<path class="st4" d="M24.3,5.7c-9.5,0-17.4-1.1-18.9-2.6C5.4,3,5.5,3,5.5,3C3.4,3.4,1.9,3.9,1.4,4.5C2.9,6,10.7,7.1,20.2,7.1
		C29.6,7.1,37.3,6,39,4.6C35.5,5.2,30.2,5.7,24.3,5.7z"/>
	<path class="st5" d="M21.2,6.8c-9.5,0-17.4-1.1-18.9-2.6c0.3-0.3,0.8-0.5,1.5-0.8c-1.2,0.3-2,0.7-2.4,1.1C2.9,6,10.7,7.1,20.2,7.1
		c7.7,0,14.4-0.8,17.4-1.8C34.3,6.2,28.2,6.8,21.2,6.8z"/>
	<path class="st6" d="M17,2.5c9.5,0,17.4,1.1,18.9,2.6c-0.4,0.4-1.2,0.7-2.3,1.1c2.9-0.5,4.9-1.1,5.5-1.7C37.6,3,29.8,1.8,20.2,1.8
		c-7,0-13.2,0.7-16.5,1.6C7.1,2.9,11.8,2.5,17,2.5z"/>
	<path class="st7" d="M20.2,0.8C10.7,0.8,2.8,2,1.3,3.4c3.1-1,9.6-1.8,17.2-1.8c10.6,0,19.2,1.4,19.2,3.1c0,0.2-0.1,0.3-0.3,0.5
		c1.2-0.4,1.9-0.9,1.9-1.4C39.4,2.2,30.8,0.8,20.2,0.8z"/>
	<g>
		<path class="st8" d="M10.9,4.3C6.4,4.5,7.2,5.6,10.1,6c2.9,0.4,3.3,0.1,4.8,0.1s1.6,0.2,3.5-0.1c1.8-0.3,3.4-0.8,2.4-1.2
			C19.7,4.5,10.9,4.3,10.9,4.3z"/>
		<g>
			<path class="st9" d="M9.8,4.8C9.7,4.6,10,4.2,10,4.2s-0.3-0.6,0.1-0.9C10.5,3,10.8,3.2,11,2.7s0.4-1.1,0.8-1.4
				c0.4-0.3,0.6-0.3,1-0.4c0.3,0,0.5-0.4,1.2-0.6s1.1-0.6,1.6-0.3s1,0.1,2,0.3s1.4,0.6,1.6,0.9S18.9,1.6,19.6,2
				c0.6,0.5,1,0.7,1.3,1.3c0.3,0.5,0.4,0.2,0.3,0.8c-0.1,0.5,0.1,0.5,0,0.9c-0.1,0.3-0.9,0.5-1.3,0.5s-1.6,0.2-1.6,0.2
				s-0.6,0.1-1.7,0.1s-1.9-0.1-1.9-0.1s-0.3-0.1-1.2,0s-1,0.1-1.7,0s-0.7-0.3-1.2-0.3S9.8,4.8,9.8,4.8z"/>
			<g class="st10">
				<path class="st11" d="M12,1.3c0.3,0,0.5-0.2,0.9-0.4h-0.1c-0.3,0-0.5,0-0.9,0.4c0,0,0,0-0.1,0.1C11.8,1.3,11.9,1.3,12,1.3z"/>
				<path class="st11" d="M21.2,4.2c0.1-0.5-0.1-0.3-0.3-0.8c-0.3-0.5-0.6-0.8-1.3-1.3c-0.6-0.5-0.2-0.6-0.4-0.8
					C19,1,18.7,0.6,17.6,0.4c-1-0.2-1.6,0-2-0.3S14.7,0.2,14,0.4c-0.5,0.1-0.7,0.3-0.9,0.5c0.1,0,0.1,0,0.1-0.1
					c0.7-0.2,1.1-0.6,1.6-0.3s1,0.1,2,0.3s1.4,0.6,1.6,0.9s-0.3,0.4,0.4,0.8s1,0.7,1.3,1.3c0.3,0.5,0.4,0.2,0.3,0.8
					c-0.1,0.5,0.1,0.5,0,0.9c0,0,0,0-0.1,0.1c0.4-0.1,0.8-0.2,0.9-0.5C21.2,4.8,21.1,4.8,21.2,4.2z"/>
				<path class="st11" d="M10.2,3.3C10.1,3.3,10.1,3.3,10.2,3.3C10.1,3.3,10.1,3.3,10.2,3.3C10.1,3.3,10.1,3.3,10.2,3.3z"/>
			</g>
			<path class="st12" d="M13.5,5.8c0.9-0.1,1.2,0,1.2,0s0.8,0.2,1.9,0.1c1.1,0,1.7-0.1,1.7-0.1s1.2-0.1,1.6-0.2
				c0.4,0,1.2-0.2,1.3-0.5c0.1-0.3-0.1-0.3,0-0.9c0.1-0.5-0.1-0.3-0.3-0.8c-0.1-0.3-0.3-0.5-0.6-0.7C20,2.8,19.6,3,19.3,3
				c-0.9,0-0.5,0-1.2,0s-0.4,0-0.7-0.4c-0.3-0.4-0.3,0.1-0.8,0.2c-0.5,0.1-0.4,0.1-1-0.1c-0.6-0.2,0,0-0.1-0.3
				c-0.1-0.4-0.7,0-1.1-0.4C14,1.6,14,1.8,14.1,1.5C14.2,1.2,14.6,1,14.6,1s-0.7-0.1-0.8-0.5c-0.5,0.2-0.7,0.4-1,0.5
				c-0.3,0-0.5,0-0.9,0.4c-0.4,0.3-0.6,0.9-0.8,1.4s-0.6,0.2-1,0.5S10,4.2,10,4.2S9.7,4.6,9.8,4.8c0,0,0.3,0.6,0.8,0.7
				s0.5,0.2,1.2,0.3C12.5,5.9,12.6,5.9,13.5,5.8z"/>
			<path class="st12" d="M9.8,4.8c0,0,0.3,0.6,0.8,0.7s0.5,0.2,1.2,0.3c0.7,0.1,0.8,0.1,1.7,0s1.2,0,1.2,0s0.8,0.2,1.9,0.1
				c1.1,0,1.7-0.1,1.7-0.1s1.2-0.1,1.6-0.2c0.4,0,1.2-0.2,1.3-0.5c0.1-0.3-0.1-0.3,0-0.9c0-0.1,0-0.1,0-0.2c-0.3,1-0.8,0.3-1.3,0.1
				C19.4,4,19.3,4.6,19,4.6s-0.5-0.5-1.1-0.5c-0.6,0.1-1.4,0.7-1.7,0.4c-0.4-0.3-0.4-0.1-1.1,0.1c-0.6,0.2-1.1,0.3-1.5-0.2
				c-0.5-0.5-0.4-0.1-0.9,0s-1-0.1-1.1-0.5s0.4-0.3,0.5-0.6s-0.2-0.3,0.3-1s0.4-0.6-0.3-0.7c-0.3,0-0.4-0.2-0.3-0.4
				c-0.4,0.3-0.5,0.9-0.7,1.4s-0.6,0.3-0.9,0.6s-0.2,1-0.2,1S9.7,4.6,9.8,4.8z"/>
			<path class="st13" d="M11.7,2.4c0,0.6-0.2,0.7-0.8,0.8c-0.5,0.1-0.7-0.1-0.8,0.4c0,0.5,0.4,0.6,0.3,0.9c-0.1,0.3-0.3,0.2,0.2,0.5
				s0.6,0.4,1,0.4c0.4,0.1,0.5,0,1.1,0s0.9,0,1.5,0.1s0.5,0.1,1.2,0.1c0.7,0,0.8-0.1,1.5-0.1c0.7,0.1,0.5,0,1.3-0.1
				C19,5.5,20,5.2,20,5.2s0.1-0.2-0.5-0.1s-1.3,0.2-2.3,0.1C16.1,5.2,16,5,15.1,5s-0.6-0.1-1.7-0.1c-1.2,0-0.8,0.3-1.5-0.1
				s-0.6-0.2-0.8-0.7c-0.1-0.4,0.1-0.6,0.4-0.8c0.2-0.2,0.7-0.9,0.7-1.1C12.1,2.1,11.7,2.1,11.7,2.4z"/>
			<path class="st14" d="M14.8,0.6c-1.2,0,0.6,0.7,0.3,1S15,2,15.6,2.1c0.6,0.1,0.7-0.3,0.7,0.1s0.1,0.1,0.5,0s0.4-0.3,0.7,0
				c0.3,0.3,0.4,0.4,1,0.4s0.8,0,0.6-0.3c-0.2-0.3-0.3-0.7-0.6-0.9c-0.3-0.2,0-0.4-0.7-0.6c-0.7-0.1-0.5-0.1-1-0.2
				c-0.4-0.1-0.3,0-0.9-0.1c-0.6-0.2-0.4-0.5-0.8-0.3C14.8,0.3,14.8,0.6,14.8,0.6z"/>
			<g class="st15">
				<path class="st11" d="M10.1,3.4c0.4-0.3,0.7-0.1,0.9-0.6c0,0,0,0,0-0.1c-0.2,0.4-0.5,0.2-0.9,0.5C10,3.4,10,3.5,10,3.6
					C10,3.5,10,3.5,10.1,3.4z"/>
				<path class="st11" d="M21.2,4.2c0.1-0.5-0.1-0.3-0.3-0.8c-0.3-0.5-0.6-0.8-1.3-1.3c-0.6-0.5-0.2-0.6-0.4-0.8
					C19,1,18.7,0.6,17.6,0.4c-1-0.2-1.6,0-2-0.3S14.7,0.2,14,0.4S13.1,0.9,12.8,1c-0.3,0-0.5,0-0.9,0.4c-0.2,0.2-0.4,0.4-0.5,0.7
					c0.1-0.2,0.2-0.4,0.4-0.5c0.4-0.3,0.6-0.3,0.9-0.4c0.3,0,0.5-0.4,1.2-0.6S15,0,15.5,0.3s1,0.1,2,0.3s1.4,0.6,1.6,0.9
					s-0.3,0.4,0.4,0.8c0.6,0.5,1,0.7,1.3,1.3c0.3,0.5,0.4,0.2,0.3,0.8c-0.1,0.5,0,0.6,0,0.8l0.1-0.1C21.2,4.8,21.1,4.8,21.2,4.2z"/>
				<path class="st11" d="M10,4.3L10,4.3L9.9,4.4L10,4.3z"/>
			</g>
			<path class="st16" d="M13.6,1c-0.5,0.1,0,0.3-0.5,0.5s0.1-0.3-0.2,0.3s0.6,0.9,0.2,1.2c-0.3,0.3-0.4,0.1-0.3,0.5
				c0.1,0.4,0,0.7,0.5,0.4s0.4-0.7,0.7-0.3s0.4,0.6,0.6,0.5c0.2-0.1,0-0.3,0.7-0.1s1.2,0.5,1.4,0.4s0.2-0.3,0.5-0.3s1.1-0.2,1.1-0.2
				s0.7,0.2,1,0.2S19.9,4.2,20,4c0-0.3,0.4-0.8-0.3-0.8c-0.7,0-1.3,0.2-1.7,0.1c-0.5,0-0.4-0.2-0.7-0.2C17,3,16.9,2.8,16.1,2.8
				c-0.8,0-0.7,0.1-1.1-0.2c-0.4-0.2-0.6-0.3-0.8-0.4c-0.2-0.1-0.5,0.3-0.3-0.6s0.2-1,0.1-0.9C13.8,0.8,13.6,1,13.6,1z"/>
		</g>
	</g>
	<g>
		<path class="st8" d="M23.6,4.2c-3.3,0.1-2.7,1-0.6,1.3s2.4,0.1,3.5,0.1s1.2,0.1,2.5-0.1s2.5-0.6,1.7-0.9C30,4.3,23.6,4.2,23.6,4.2
			z"/>
		<g>
			<path class="st9" d="M22.8,4.5c0-0.1,0.2-0.4,0.2-0.4s-0.2-0.4,0.1-0.7c0.3-0.2,0.5-0.1,0.7-0.4c0.1-0.4,0.3-0.8,0.6-1
				c0.3-0.2,0.4-0.2,0.7-0.3c0.2,0,0.4-0.3,0.9-0.4s0.8-0.4,1.2-0.2c0.3,0.2,0.7,0.1,1.5,0.2s1,0.5,1.1,0.6c0.1,0.2-0.2,0.3,0.3,0.6
				S30.8,3,31,3.4s0.3,0.2,0.2,0.6c-0.1,0.4,0,0.4,0,0.6S30.6,5,30.3,5s-1.2,0.1-1.2,0.1s-0.4,0.1-1.2,0.1c-0.8,0-1.4-0.1-1.4-0.1
				s-0.2-0.1-0.8,0c-0.6,0.1-0.7,0.1-1.2,0C23.8,5.2,23.8,5,23.4,5C23.1,5,22.8,4.5,22.8,4.5z"/>
			<g class="st10">
				<path class="st11" d="M24.4,2c0.2,0,0.3-0.2,0.6-0.3c0,0,0,0-0.1,0c-0.2,0-0.4,0-0.7,0.3l0,0C24.3,2,24.4,2,24.4,2z"/>
				<path class="st11" d="M31,4.1c0.1-0.4,0-0.2-0.2-0.6S30.4,3,29.9,2.6c-0.5-0.3-0.1-0.4-0.3-0.6s-0.4-0.5-1.1-0.6
					c-0.8-0.1-1.1,0-1.5-0.2s-0.6,0-1.2,0.2c-0.4,0.1-0.5,0.2-0.7,0.3h0.1c0.5-0.1,0.8-0.4,1.2-0.2c0.3,0.2,0.7,0.1,1.5,0.2
					s1,0.5,1.1,0.6c0.1,0.2-0.2,0.3,0.3,0.6s0.7,0.5,0.9,0.9c0.2,0.4,0.3,0.2,0.2,0.6c-0.1,0.4,0,0.4,0,0.6c0,0,0,0,0,0.1
					C30.7,5,31,4.9,31,4.7C31.1,4.5,31,4.5,31,4.1z"/>
				<path class="st11" d="M23.1,3.4L23.1,3.4C23,3.4,23,3.5,23.1,3.4C23.1,3.5,23.1,3.4,23.1,3.4z"/>
			</g>
			<path class="st12" d="M25.5,5.2c0.6-0.1,0.8,0,0.8,0s0.6,0.1,1.4,0.1s1.2-0.1,1.2-0.1s0.9-0.1,1.2-0.1C30.4,5.1,31,5,31,4.7
				c0-0.2-0.1-0.2,0-0.6s0-0.2-0.2-0.6c-0.1-0.2-0.2-0.4-0.4-0.5c-0.2,0.1-0.5,0.2-0.7,0.2c-0.6,0-0.4,0-0.9,0s-0.3,0-0.5-0.3
				S28.1,3,27.7,3.1c-0.4,0.1-0.3,0-0.7-0.1c-0.5-0.1,0,0-0.1-0.2s-0.5,0.1-0.8-0.2s-0.3-0.1-0.2-0.3C26,2,26.3,1.7,26.3,1.7
				s-0.5-0.1-0.6-0.4c-0.4,0.1-0.5,0.3-0.7,0.3s-0.4,0-0.7,0.3c-0.3,0.2-0.4,0.7-0.6,1c-0.1,0.4-0.4,0.2-0.7,0.4
				c-0.2,0.4,0,0.8,0,0.8s-0.2,0.3-0.1,0.4c0,0,0.2,0.5,0.6,0.5s0.4,0.1,0.9,0.2C24.8,5.3,24.9,5.3,25.5,5.2z"/>
			<path class="st12" d="M22.8,4.5c0,0,0.2,0.5,0.6,0.5s0.4,0.1,0.9,0.2s0.6,0.1,1.2,0s0.8,0,0.8,0s0.6,0.1,1.4,0.1s1.2-0.1,1.2-0.1
				s0.9-0.1,1.2-0.1C30.4,5.1,31,5,31,4.7c0-0.2-0.1-0.2,0-0.6C31,4,31,4,31,4c-0.2,0.7-0.6,0.2-0.9,0.1c-0.4-0.1-0.4,0.3-0.6,0.3
				S29.1,4,28.7,4.1c-0.4,0.1-1,0.5-1.2,0.3c-0.3-0.2-0.3-0.1-0.8,0s-0.8,0.2-1.1-0.1c-0.3-0.3-0.3-0.1-0.6,0
				c-0.4,0.1-0.7-0.1-0.8-0.4c-0.1-0.3,0.3-0.2,0.4-0.4s-0.2-0.2,0.2-0.7c0.4-0.5,0.3-0.4-0.2-0.5c-0.2,0-0.3-0.1-0.3-0.3
				c-0.3,0.2-0.4,0.6-0.5,1s-0.4,0.2-0.7,0.4C22.8,3.7,23,4.1,23,4.1S22.8,4.4,22.8,4.5z"/>
			<path class="st13" d="M24.2,2.8c0,0.4-0.2,0.5-0.5,0.6c-0.4,0.1-0.5-0.1-0.6,0.3c0,0.4,0.3,0.4,0.2,0.6c-0.1,0.2-0.2,0.2,0.1,0.4
				C23.8,4.9,23.9,5,24.2,5c0.3,0.1,0.4,0,0.8,0s0.7,0,1.1,0c0.4,0.1,0.3,0.1,0.8,0.1s0.6-0.1,1.1,0s0.4,0,0.9,0
				c0.5-0.1,1.2-0.2,1.2-0.2s0.1-0.1-0.3-0.1c-0.4,0.1-0.9,0.1-1.7,0.1c-0.8-0.1-0.9-0.2-1.5-0.2c-0.7,0-0.4-0.1-1.2,0
				c-0.8,0-0.6,0.2-1.1-0.1c-0.5-0.3-0.4-0.2-0.5-0.5s0.1-0.4,0.3-0.6c0.2-0.1,0.5-0.6,0.5-0.8C24.5,2.5,24.2,2.5,24.2,2.8z"/>
			<path class="st14" d="M26.4,1.5c-0.9,0,0.4,0.5,0.2,0.7c-0.2,0.2-0.1,0.3,0.3,0.3s0.5-0.2,0.5,0.1s0,0.1,0.3,0s0.3-0.2,0.5,0
				s0.3,0.3,0.7,0.3s0.6,0,0.5-0.2S29.2,2.2,29,2.1c-0.2-0.1,0-0.3-0.5-0.4s-0.4-0.1-0.7-0.1c-0.3,0-0.2,0-0.6-0.1S27,1,26.7,1.2
				C26.4,1.3,26.4,1.5,26.4,1.5z"/>
			<g class="st15">
				<path class="st11" d="M23,3.5c0.3-0.2,0.5-0.1,0.7-0.4c0,0,0,0,0-0.1C23.6,3.3,23.3,3.2,23,3.5c0,0-0.1,0-0.1,0.1
					C23,3.6,23,3.6,23,3.5z"/>
				<path class="st11" d="M31,4.1c0.1-0.4,0-0.2-0.2-0.6S30.4,3,29.9,2.6c-0.5-0.3-0.1-0.4-0.3-0.6s-0.4-0.5-1.1-0.6
					c-0.8-0.1-1.1,0-1.5-0.2s-0.6,0-1.2,0.2c-0.5,0.1-0.6,0.4-0.9,0.4c-0.2,0-0.4,0-0.7,0.3c0,0-0.2,0.2-0.2,0.4
					c0.1-0.2,0.2-0.3,0.3-0.4c0.3-0.2,0.4-0.2,0.7-0.3c0.2,0,0.4-0.3,0.9-0.4C26.3,1.3,26.7,1,27,1.2s0.7,0.1,1.5,0.2s1,0.5,1.1,0.6
					c0.1,0.2-0.2,0.3,0.3,0.6s0.7,0.5,0.9,0.9C31,4,31,3.8,31,4.1c-0.1,0.5,0,0.5,0,0.7c0,0,0,0,0-0.1C31.1,4.5,31,4.5,31,4.1z"/>
				<path class="st11" d="M22.9,4.2L22.9,4.2L22.9,4.2L22.9,4.2z"/>
			</g>
			<path class="st16" d="M25.6,1.8c-0.4,0.1,0,0.2-0.4,0.4C24.8,2.3,25.3,2,25,2.4s0.4,0.7,0.2,0.9C25,3.5,24.9,3.4,25,3.7
				C25,4,24.9,4.2,25.3,4s0.3-0.5,0.5-0.2s0.3,0.4,0.4,0.3c0.2-0.1,0-0.2,0.5-0.1s0.9,0.4,1,0.3C27.9,4.1,28,4,28.2,4
				C28.4,4,29,3.9,29,3.9s0.5,0.2,0.7,0.2s0.5,0.1,0.5-0.1s0.3-0.6-0.2-0.6s-1,0.1-1.3,0c-0.3,0-0.3-0.1-0.5-0.2
				C28,3.2,27.9,3,27.3,3s-0.5,0-0.8-0.1c-0.3-0.2-0.4-0.2-0.6-0.3c-0.1-0.1-0.4,0.2-0.2-0.4c0.1-0.6,0.2-0.7,0-0.7
				C25.7,1.6,25.6,1.8,25.6,1.8z"/>
		</g>
	</g>
	<g>
		<path class="st17" d="M7,4c0.4,0,0.6,0.2,0.6,0.2s-1,0-1.2,0C6.1,4.2,6.4,4,7,4z"/>
		<path class="st18" d="M7.1,3.9c0.4,0,0.6,0.2,0.6,0.2s-1,0-1.2,0C6.2,4.1,6.4,4,7.1,3.9z"/>
	</g>
	<g>
		<path class="st17" d="M22.4,2.4c0.4,0,0.6,0.2,0.6,0.2s-1,0.1-1.2,0.1C21.6,2.7,21.8,2.5,22.4,2.4z"/>
		<path class="st18" d="M22.5,2.4c0.4,0,0.6,0.2,0.6,0.2s-0.9,0.1-1.2,0.1C21.6,2.6,21.9,2.4,22.5,2.4z"/>
	</g>
	<g>
		<path class="st17" d="M4.2,3.9c0.4,0,0.6,0.2,0.6,0.2s-1,0.1-1.2,0.1C3.3,4.2,3.6,4,4.2,3.9z"/>
		<path class="st18" d="M4.3,3.9C4.7,3.8,4.8,4,4.8,4S3.9,4.1,3.7,4.1C3.4,4.1,3.6,3.9,4.3,3.9z"/>
	</g>
	<g>
		<path class="st17" d="M24.4,6.7c0.4,0,0.6,0.2,0.6,0.2s-1,0.1-1.2,0C23.6,6.9,23.8,6.8,24.4,6.7z"/>
		<path class="st18" d="M24.5,6.6c0.4,0,0.6,0.2,0.6,0.2s-0.9,0.1-1.2,0.1C23.7,6.9,23.9,6.7,24.5,6.6z"/>
	</g>
	<g>
		<path class="st17" d="M33.1,4c0.4,0,0.6,0.2,0.6,0.2s-0.9,0.1-1.2,0.1C32.3,4.2,32.5,4.1,33.1,4z"/>
		<path class="st18" d="M33.2,4c0.4,0,0.6,0.2,0.6,0.2s-0.9,0.1-1.2,0.1C32.4,4.2,32.6,4,33.2,4z"/>
	</g>
	<g>
		<path class="st17" d="M36.1,4.7c0.4,0,0.6,0.2,0.6,0.2S35.8,5,35.5,5C35.2,4.9,35.4,4.7,36.1,4.7z"/>
		<path class="st18" d="M36.1,4.6c0.4,0,0.6,0.2,0.6,0.2s-0.9,0.1-1.2,0.1C35.3,4.8,35.5,4.7,36.1,4.6z"/>
	</g>
	<g>
		<path class="st17" d="M8.9,3c0.4,0,0.6,0.2,0.6,0.2s-1,0.1-1.2,0C8,3.2,8.2,3.1,8.9,3z"/>
		<path class="st18" d="M9,2.9c0.4,0,0.6,0.2,0.6,0.2s-1,0.1-1.3,0.1C8.1,3.2,8.3,3,9,2.9z"/>
	</g>
	<g>
		<path class="st17" d="M6.1,4.5c0.4,0,0.6,0.2,0.6,0.2s-1,0.1-1.2,0C5.2,4.7,5.4,4.6,6.1,4.5z"/>
		<path class="st18" d="M6.2,4.4c0.4,0,0.6,0.2,0.6,0.2s-1,0.1-1.3,0.1C5.3,4.7,5.5,4.5,6.2,4.4z"/>
	</g>
	<g>
		<path class="st17" d="M6,3.5c0.3,0,0.3,0.1,0.3,0.1s-0.6,0-0.7,0C5.5,3.6,5.6,3.5,6,3.5z"/>
		<path class="st18" d="M6,3.5c0.3,0,0.3,0.1,0.3,0.1s-0.6,0-0.7,0C5.5,3.6,5.6,3.5,6,3.5z"/>
	</g>
	<g>
		<path class="st17" d="M2.4,4.5c0.3,0,0.3,0.1,0.3,0.1s-0.6,0-0.7,0C1.9,4.6,2.1,4.5,2.4,4.5z"/>
		<path class="st18" d="M2.5,4.5c0.3,0,0.3,0.1,0.3,0.1s-0.6,0-0.7,0S2.1,4.5,2.5,4.5z"/>
	</g>
	<g>
		<path class="st17" d="M9,3.7c0.2-0.1,0.4,0,0.4,0S8.9,3.9,8.7,4C8.6,4,8.7,3.9,9,3.7z"/>
		<path class="st18" d="M9.1,3.6c0.2-0.1,0.4,0,0.4,0S8.9,3.9,8.8,3.9C8.6,3.9,8.7,3.8,9.1,3.6z"/>
	</g>
	<g>
		<path class="st17" d="M6.9,5.6c0.3,0,0.3,0.1,0.3,0.1s-0.6,0-0.7,0C6.4,5.8,6.5,5.7,6.9,5.6z"/>
		<path class="st18" d="M7,5.6c0.3,0,0.3,0.1,0.3,0.1s-0.6,0-0.7,0C6.5,5.7,6.6,5.6,7,5.6z"/>
	</g>
	<g>
		<path class="st17" d="M4.1,5.1c0.2,0.1,0.3,0.2,0.3,0.2S3.8,5.2,3.7,5.1C3.6,5,3.7,5,4.1,5.1z"/>
		<path class="st18" d="M4.2,5.1c0.2,0.1,0.3,0.2,0.3,0.2S3.9,5.1,3.8,5.1C3.6,5,3.8,5,4.2,5.1z"/>
	</g>
	<g>
		<path class="st17" d="M8.4,5.8c0.3,0,0.3,0.1,0.3,0.1s-0.6,0-0.7,0C7.9,5.9,8,5.8,8.4,5.8z"/>
		<path class="st18" d="M8.5,5.8c0.3,0,0.3,0.1,0.3,0.1s-0.6,0-0.7,0C7.9,5.9,8.1,5.8,8.5,5.8z"/>
	</g>
	<g>
		<path class="st17" d="M17.4,6.3c0.3,0,0.3,0.1,0.3,0.1s-0.6,0-0.7,0C16.9,6.4,17.1,6.3,17.4,6.3z"/>
		<path class="st18" d="M17.5,6.3c0.3,0,0.3,0.1,0.3,0.1s-0.6,0-0.7,0C17,6.4,17.1,6.3,17.5,6.3z"/>
	</g>
	<g>
		<path class="st17" d="M22,5.8c0.3,0,0.3,0.1,0.3,0.1s-0.6,0-0.7,0C21.5,5.9,21.6,5.8,22,5.8z"/>
		<path class="st18" d="M22.1,5.7c0.3,0,0.3,0.1,0.3,0.1s-0.6,0-0.7,0C21.6,5.9,21.7,5.8,22.1,5.7z"/>
	</g>
	<g>
		<path class="st17" d="M28.7,5.9C29,5.9,29,6.1,29,6.1S28.4,6,28.3,5.9S28.3,5.8,28.7,5.9z"/>
		<path class="st18" d="M28.7,5.9C29,5.9,29,6.1,29,6.1S28.5,6,28.3,5.9C28.2,5.9,28.3,5.8,28.7,5.9z"/>
	</g>
	<g>
		<path class="st17" d="M31.7,5.3C32,5.3,32,5.4,32,5.4s-0.6,0.1-0.7,0.1C31.2,5.4,31.3,5.3,31.7,5.3z"/>
		<path class="st18" d="M31.8,5.2c0.3,0,0.3,0.1,0.3,0.1s-0.6,0.1-0.7,0.1C31.2,5.4,31.4,5.3,31.8,5.2z"/>
	</g>
	<g>
		<path class="st17" d="M35,3.6c0.3,0,0.3,0.1,0.3,0.1s-0.6,0.1-0.7,0.1C34.5,3.8,34.6,3.7,35,3.6z"/>
		<path class="st18" d="M35.1,3.6c0.3,0,0.3,0.1,0.3,0.1s-0.6,0.1-0.7,0.1C34.6,3.7,34.7,3.6,35.1,3.6z"/>
	</g>
	<g>
		<path class="st17" d="M31.7,3.1C32,3.1,32,3.2,32,3.2s-0.6,0.1-0.7,0.1C31.2,3.3,31.3,3.2,31.7,3.1z"/>
		<path class="st18" d="M31.7,3.1C32,3.1,32,3.2,32,3.2s-0.6,0.1-0.7,0.1C31.2,3.2,31.3,3.1,31.7,3.1z"/>
	</g>
</g>
</svg>
