<?xml version="1.0" encoding="utf-8"?>
<!-- Generator: Adobe Illustrator 27.1.1, SVG Export Plug-In . SVG Version: 6.00 Build 0)  -->
<svg version="1.1" id="Layer_3" xmlns="http://www.w3.org/2000/svg" xmlns:xlink="http://www.w3.org/1999/xlink" x="0px" y="0px"
	 viewBox="0 0 31.5 18.8" style="enable-background:new 0 0 31.5 18.8;" xml:space="preserve">
<style type="text/css">
	.st0{opacity:0.5;fill:#FFA66E;enable-background:new    ;}
	.st1{fill:#414959;}
	.st2{opacity:0.2;fill:#14171C;enable-background:new    ;}
	.st3{opacity:0.2;fill:#B6D1FF;enable-background:new    ;}
	.st4{opacity:0.2;fill:#BAD1FF;enable-background:new    ;}
	.st5{fill:#E08B56;}
	.st6{opacity:0.2;fill:#FF9E62;enable-background:new    ;}
	.st7{opacity:0.3;fill:#FF9E62;enable-background:new    ;}
	.st8{opacity:0.2;fill:#E08B56;enable-background:new    ;}
	.st9{opacity:0.2;fill:#730E0E;enable-background:new    ;}
	.st10{fill:#FFEAD8;}
	.st11{opacity:0.1;fill:#C41818;enable-background:new    ;}
	.st12{opacity:0.2;}
	.st13{fill:#FFFFFF;}
	.st14{fill:#FF956E;}
	.st15{opacity:0.1;}
	.st16{opacity:0.4;fill:#FFEAD8;enable-background:new    ;}
	.st17{opacity:0.3;}
	.st18{fill:#FFFBF7;}
	.st19{opacity:0.1;fill:#FF956E;enable-background:new    ;}
	.st20{opacity:0.3;fill:#FFFFFF;enable-background:new    ;}
	.st21{opacity:0.4;fill:#FFA66E;enable-background:new    ;}
	.st22{opacity:0.3;fill:#FFA66E;enable-background:new    ;}
	.st23{opacity:0.4;fill:#FF9E62;enable-background:new    ;}
	.st24{opacity:0.1;fill:#730E0E;enable-background:new    ;}
	.st25{opacity:0.3;fill:#FF956E;enable-background:new    ;}
	.st26{opacity:0.3;fill:#9E1414;enable-background:new    ;}
</style>
<g>
	<g>
		<g>
			<path class="st0" d="M18.1,5.1c0,0.2-0.5,0.3-1.1,0.3s-1.1-0.2-1.1-0.3c0-0.2,0.5-0.3,1.1-0.3C17.6,4.7,18.1,4.9,18.1,5.1z"/>
			<ellipse class="st1" cx="17.4" cy="4.5" rx="0.9" ry="0.9"/>
			<path class="st2" d="M17.8,4.8c-0.5,0-0.9-0.4-0.9-0.9V3.8c-0.2,0.2-0.4,0.4-0.4,0.7c0,0.5,0.4,0.9,0.9,0.9
				c0.4,0,0.8-0.3,0.9-0.7C18.1,4.7,17.9,4.8,17.8,4.8z"/>
			<path class="st3" d="M18.2,4.2c-0.1,0.1-0.3,0.1-0.5,0s-0.3-0.3-0.3-0.4c0.1-0.1,0.3-0.1,0.5,0C18.1,3.9,18.2,4.1,18.2,4.2z"/>
			<path class="st4" d="M17.5,5.3c-0.5,0-0.9-0.4-0.9-0.9c0-0.2,0.1-0.4,0.2-0.6c-0.2,0.2-0.3,0.4-0.3,0.6C16.5,5,16.9,5.3,17.5,5.3
				c0.2,0.1,0.4,0,0.6-0.2C17.9,5.2,17.7,5.3,17.5,5.3z"/>
		</g>
		<g>
			<g>
				<path class="st5" d="M16.6,4.7c-5.4,1.1-5.1,8.5-4.4,9.9c0.9,1.8,3.6,3.2,11.2,2.7c6.4-0.4,8.4-2,7.9-4.1
					c-0.5-2-0.8-7.2-4.6-8.4C24.4,4.2,18.4,4.3,16.6,4.7z"/>
				<path class="st6" d="M31.2,13.3c-0.5-2-0.8-7.2-4.6-8.4c-1.7-0.6-5.7-0.6-8.2-0.5c0.7,0.1,1.3,0.2,1.8,0.3
					c3.8,1.2,4.2,6.3,4.6,8.4c0.4,2-1.5,3.6-7.5,4c1.6,0.2,3.5,0.3,6,0.1C29.7,17,31.7,15.3,31.2,13.3z"/>
				<path class="st7" d="M31.2,13.3c-0.5-2-0.8-7.2-4.6-8.4c-1.1-0.4-3.3-0.5-5.3-0.5c0.9,0.1,1.8,0.2,2.3,0.4
					c3.8,1.2,4.2,6.3,4.6,8.4c0.5,2-1.5,3.7-7.9,4.1c-0.9,0-1.7,0.1-2.4,0.1c1.4,0.1,3.2,0.2,5.4,0.1C29.7,17,31.7,15.3,31.2,13.3z"
					/>
				<path class="st7" d="M23.7,17.1c-7.5,0.4-10.2-1-11.2-2.7c-0.6-1.1-0.8-6.1,1.9-8.6c-3,2.4-2.8,7.7-2.2,8.9
					c0.9,1.8,3.6,3.2,11.2,2.7c3.9-0.2,6.1-0.9,7.2-1.9C29.4,16.3,27.2,16.9,23.7,17.1z"/>
				<path class="st8" d="M26.5,16.4c-7.5,0.4-10.2-1-11.2-2.7c-0.6-1.2-0.9-6.9,2.5-9.1c-0.5,0-0.9,0.1-1.3,0.2
					c-5.4,1.1-5.1,8.5-4.4,9.9c0.9,1.8,3.6,3.2,11.2,2.7c3-0.2,5.1-0.6,6.3-1.3C28.8,16.2,27.7,16.3,26.5,16.4z"/>
				<path class="st9" d="M27.5,5.7c-2.4-1.1-9.9-1-11.6-0.2c-1.4,0.7-2.4,1.4-3.1,2.3c-0.7,1.5-1,3.2-0.9,4.6
					c0.3,0.4,0.7,0.7,1.1,0.6c1.9-0.3,2.8-0.5,3.3,0.5c0.4,1,0.5,2.6,3,2.8c2.5,0.2,2.4-2.4,4.6-2.2c2.2,0.1,3.4,1.5,4.7,0.9
					s-0.5-3.3,0.9-2.8c0.8,0.3,1.4,0.9,1.7,0.9c-0.2-1.1-0.5-3-1.2-4.7C29.4,7.2,28.5,6.2,27.5,5.7z"/>
				<path class="st9" d="M29.5,11.6c0.7,0.3,1.3,0.8,1.6,0.9c-0.2-1.1-0.5-2.7-1.1-4.1c-0.7-1.1-1.5-2.2-2.6-2.6
					c-2.4-1.1-9.9-1-11.6-0.2c-1.4,0.7-2.4,1.4-3.1,2.3c-0.6,1.3-0.9,2.8-0.9,4c0.3,0.4,0.7,0.7,1.1,0.6c1.9-0.3,2.8-0.5,3.3,0.5
					c0.4,1,0.5,2.6,3,2.8s2.4-2.4,4.6-2.2s3.4,1.5,4.7,0.9c0.3-0.1,0.5-0.4,0.5-0.7c-0.1-0.6-0.2-1.1-0.1-1.4
					C28.9,11.7,28.9,11.4,29.5,11.6z"/>
				<path class="st10" d="M15.8,4.7C10,7.5,11,12.4,13,12.2c1.9-0.3,2.8-0.5,3.3,0.5c0.4,1,0.5,2.6,3,2.8c2.5,0.2,2.4-2.4,4.6-2.2
					c2.2,0.1,3.4,1.5,4.7,0.9s-0.5-3.3,0.9-2.8c1.3,0.5,2,1.7,2,0.3s-1.6-5.6-4-6.7C25,3.8,17.6,3.9,15.8,4.7z"/>
				<path class="st11" d="M16.2,12.7c0.4,1,0.5,2.6,3,2.8c2.5,0.2,2.4-2.4,4.6-2.2c2.2,0.1,3.4,1.5,4.7,0.9s-0.5-3.3,0.9-2.8
					c1.3,0.5,2,1.7,2,0.3c0-0.2,0-0.4-0.1-0.7c-0.3,0.4-0.8,0.5-1.3,0c-0.9-1-2.3-0.2-1.9,1.2s-0.6,1.9-2.2,1s-2.7-1.2-5,0.4
					c-2.3,1.7-3.2,0.3-3.6-0.9s-0.8-1.9-3.5-1.4c-1.3,0.2-2.1-0.4-2.3-1.6c-0.2,1.5,0.5,2.6,1.5,2.5C14.9,11.9,15.8,11.7,16.2,12.7z
					"/>
				<g class="st12">
					<path class="st13" d="M29.6,11.2c-0.3-0.1-0.5-0.1-0.5,0.2c0.1,0,0.2,0,0.4,0c1.1,0.5,1.8,1.3,1.9,0.7
						C31.2,12.2,30.6,11.5,29.6,11.2z"/>
					<path class="st13" d="M28.7,14c-1.3,0.6-2.6-0.8-4.7-0.9s-2.1,2.4-4.6,2.2s-2.6-1.8-3-2.8s-1.3-0.8-3.3-0.5
						c-1.3,0.2-2.2-2-0.8-4.3c-1.5,2.4-0.6,4.7,0.7,4.5c1.9-0.3,2.8-0.5,3.3,0.5c0.4,1,0.5,2.6,3,2.8c2.5,0.2,2.4-2.4,4.6-2.2
						c2.2,0.1,3.4,1.5,4.7,0.9c0.2-0.1,0.3-0.2,0.4-0.4C29,13.8,28.9,13.9,28.7,14z"/>
				</g>
				<g class="st12">
					<path class="st14" d="M21.1,4.1C21,4.2,21,4.3,20.9,4.4c-1.8,2.7,0.9,3.4-1.1,5.9c-1.2,1.5-2.6,2.4-3.2,3.4
						c0.3,0.8,0.9,1.6,2.6,1.8c1.8,0.1,2.3-1.1,3.2-1.8c0-0.1,0-0.2,0-0.3c-0.2-3.8,1.3-6.5,1.1-7.4c-0.1-0.4-0.3-1.1-0.3-1.9
						C22.5,4.1,21.8,4.1,21.1,4.1z"/>
					<path class="st14" d="M28.6,14.2c1.3-0.6-0.5-3.3,0.9-2.8c0.4,0.2,0.8,0.4,1.1,0.6c-0.2-1.2-0.1-2.3-0.7-4.1
						c-0.4-1.2-1.5-2-2.2-2.8c0-0.1-0.1-0.1-0.2-0.2c-0.5-0.2-1.1-0.4-1.9-0.5c0,0.1-0.1,0.2-0.1,0.3c-0.6,2.1-0.5,2-0.5,4
						c-0.1,2-0.5,3.6,1.9,5.4C27.5,14.3,28,14.4,28.6,14.2z"/>
					<path class="st14" d="M17.5,8c0.2-1.4-0.6-2.6-0.8-3.6c-0.4,0.1-0.7,0.2-0.9,0.3c-0.5,0.2-0.9,0.5-1.3,0.7
						c-0.8,1.2-0.7,2.3-1.4,3.7c-0.6,1.1-1,1.6-1.5,2.2c0.3,0.6,0.7,0.9,1.3,0.8c1.1-0.2,1.9-0.3,2.4-0.2c0,0,0-0.1,0.1-0.1
						C16.3,10.2,17.2,10.8,17.5,8z"/>
				</g>
				<g class="st15">
					<path class="st14" d="M29.2,6.3c-0.5-0.6-1.1-1.1-1.7-1.4c-0.1-0.1-0.3-0.1-0.5-0.2c-0.2,0.4-0.5,0.8-0.7,1.3
						c-0.8,1.7-1.2,3.5-0.5,5.1c0.4,0.9,1.1,2.2,1.8,3.2c0.3,0.1,0.7,0,1-0.1c1.2-0.5-0.1-2.7,0.5-2.9c-0.5-1.5-1.5-2.1-0.1-4.8
						C29.1,6.4,29.1,6.4,29.2,6.3z"/>
					<path class="st14" d="M21.8,4.1c-0.4,1.2-1.3,1.9-1,3.2c0.4,1.5,1.5,2.9-0.7,4.6c-1.2,0.9-2.4,1.6-3.2,2.4
						c0.4,0.6,1,1.1,2.4,1.2c1.2,0.1,1.9-0.5,2.4-1.1c-0.2-0.7-0.4-1.5-0.1-2.2c0.6-1.7,0.9-3.3,0.9-5.7c0-1-0.1-1.8,0-2.4
						C22.2,4.1,22,4.1,21.8,4.1z"/>
					<path class="st14" d="M15.6,9.4c0.5-1,0.1-2.9,0.2-4.6c-0.4,0.2-0.7,0.4-1,0.6c0,0.5,0,1.2-0.2,2.3c-0.4,2.5-1.7,2.9-2.6,4.1
						c0.3,0.3,0.6,0.4,1,0.4c0.7-0.1,1.2-0.2,1.6-0.2C15,11.1,15.1,10.4,15.6,9.4z"/>
				</g>
				<path class="st16" d="M25.5,10.1c-2.1,0.5-2.8,1.8-5.6,1.5c-2.7-0.3-2.9-2.6-5-2c-1.2,0.3-2.9,0-2.9-1.4c-1.1,2.2-0.3,4.2,1,4.1
					c1.9-0.3,2.8-0.5,3.3,0.5c0.4,1,0.5,2.6,3,2.8s2.4-2.4,4.6-2.2c2.2,0.1,3.4,1.5,4.7,0.9s-0.5-3.3,0.9-2.8c1.3,0.5,2,1.7,2,0.3
					c0-0.3-0.1-0.8-0.3-1.4C29.3,11,27.1,9.7,25.5,10.1z"/>
				<g class="st17">
					<path class="st18" d="M21.3,14.7c0.2-0.2,0.4-0.4,0.5-0.6C21.7,14.3,21.5,14.5,21.3,14.7z"/>
					<path class="st18" d="M29,11.5c-0.7,0,0.3,1.7-0.2,2.6C29.5,13.6,28.9,12.1,29,11.5z"/>
					<path class="st18" d="M27.5,4.9c-2.4-1.1-9.9-1-11.6-0.2c-1.2,0.6-2.1,1.2-2.7,1.9C13.7,6,14.6,5.4,15.6,5
						c1.8-0.8,9.2-0.9,11.6,0.2s4,5.3,4,6.7c0,0.2,0,0.3,0,0.4c0.2,0,0.3-0.1,0.3-0.7C31.4,10.2,29.9,6.1,27.5,4.9z"/>
				</g>
				<path class="st19" d="M13,12.2c1.9-0.3,2.8-0.5,3.3,0.5c0.4,1,0.5,2.6,3,2.8c2.5,0.2,2.4-2.4,4.6-2.2c2.2,0.1,3.4,1.5,4.7,0.9
					s-0.5-3.3,0.9-2.8c1.3,0.5,2,1.7,2,0.3c0-0.7-0.4-2.1-1.1-3.5C24,11.2,15.2,9.4,15.5,5C10.1,7.7,11.1,12.4,13,12.2z"/>
				<path class="st16" d="M12,8.7c-0.7,2.3,0.4,3.7,2.4,3s2.6,1.6,2.9,2s1.7,1.6,3.4,0.7c1.7-0.9,1.9-1.6,1.9-1.6s-1.6,1-3.5,0.4
					s-1.3-2.7-3.2-2.9s-1.9,0.2-3-0.1C11.8,9.9,12,8.7,12,8.7z"/>
				<path class="st20" d="M21.2,4.4c-3.7-0.1-2.9,1.3,2,1.1s7.7,4.7,7.7,4.7S29.7,7.1,28,5.6C26.1,4.2,22.8,4.5,21.2,4.4z"/>
				<path class="st6" d="M30.2,12.7c0.4,2-2.4,3.6-2.4,3.6s2.5-0.7,3.2-1.7S30.2,12.7,30.2,12.7z"/>
				<path class="st7" d="M12.2,12.8c-0.3,4.3,7,4.5,7,4.5s-1.6,0-4.3-1.6C12.1,14.1,12.2,12.8,12.2,12.8z"/>
			</g>
			<path class="st21" d="M21.8,5.7c2.6-0.2,3.6-0.3,3.5-1.3c-2.7-0.4-6.5-0.3-8.5,0.1c0,0.2,0.1,0.3,0.1,0.4
				C17.2,5.4,18.7,5.9,21.8,5.7z"/>
			<path class="st22" d="M20.3,5.9c4.6-0.1,5.3-1,5.3-1s-0.5-0.3-1.2-0.6c-3.2-0.3-7.3-0.1-8.6,0.5C15.4,5.5,17.1,6,20.3,5.9z"/>
			<path class="st5" d="M21.1,0.2c-3.5,0.3-4.2,3.7-3.7,4.5c0.3,0.6,1.9,1,4.9,0.8s3.9-0.3,3.4-2S24.2,0,21.1,0.2z"/>
			<path class="st23" d="M22.5,5.4c-3,0.2-4.6-0.3-4.9-0.8C17.3,4,17.5,2,19.2,0.8c-1.9,1.1-2.2,3.3-1.9,3.9c0.3,0.6,1.9,1,4.9,0.8
				C24,5.4,25,5.3,25.5,4.9C25,5.2,24,5.3,22.5,5.4z"/>
			<path class="st9" d="M25.7,3.6L25.7,3.6c-0.3-0.8-0.6-1.7-1.2-2.3c-0.6-0.4-1.6-0.8-3.1-0.8c-1.1,0-1.9,0.2-2.5,0.5
				c-0.9,0.6-1.4,1.6-1.6,2.4c0,0.1,0,0.2,0,0.3c0,0.5,0.5,1.2,1.1,0.4C19.1,3.3,20,3,20.1,3.4s0.9,0.5,1.3,0.3
				c0.3-0.2,0.8-0.9,1.3-0.9s0.6,0.5,0.9,1.2s1.3,0.4,1.3,0.2s0.1-0.6,0.4-0.5C25.4,3.8,25.6,3.7,25.7,3.6z"/>
			<path class="st24" d="M25.8,4.5c-3.2,1.8-8.4-0.3-6.5-3.6L18.9,1c-1.6,1.1-1.8,3.1-1.5,3.7s1.9,1,4.9,0.8
				C24.6,5.4,25.6,5.3,25.8,4.5z"/>
			<path class="st10" d="M21.4,0c-4-0.1-4,2.6-4.1,3.1c0,0.5,0.5,1.2,1.1,0.4s1.5-1.1,1.6-0.7s0.9,0.5,1.3,0.3
				c0.3-0.2,0.8-0.9,1.3-0.9s0.6,0.5,0.9,1.2s1.3,0.4,1.3,0.2s0.1-0.6,0.4-0.5s0.6,0,0.4-0.6S25.1,0.1,21.4,0z"/>
			<g class="st15">
				<path class="st14" d="M25.2,3.1C25,2.5,24.8,1.7,24.7,1c-0.2-0.2-0.5-0.4-0.9-0.5c0,0,0,0.1-0.1,0.1c-0.5,0.9,0.3,0.8,0,2.1
					c-0.1,0.3-0.2,0.5-0.3,0.7v0.1c0.3,0.7,1.3,0.4,1.3,0.2C24.9,3.4,25,3,25.2,3.1L25.2,3.1z"/>
				<path class="st14" d="M22.7,1c0-0.3,0.1-0.6,0.1-0.9C22.6,0.1,22.3,0,22,0c-0.2,0.6-0.3,1.2-0.8,1.8c-0.4,0.5-0.8,0.8-1,1.2
					c0.3,0.2,0.9,0.3,1.1,0.1c0.3-0.2,0.8-0.8,1.2-0.9C22.6,2,22.6,1.6,22.7,1z"/>
				<path class="st14" d="M21.6,0c-0.1,0-0.1,0-0.2,0c-2.2-0.1-3.2,0.7-3.6,1.5c-0.3,1,0,1.7-0.2,2.2c0.2,0.2,0.5,0.2,0.9-0.2
					l0.1-0.1c0-0.5,0.1-1.1,1.2-1.5C21,1.5,21.4,0.7,21.6,0z"/>
			</g>
			<g class="st12">
				<path class="st14" d="M21,2.5c-0.2,0.2-0.5,0.5-0.6,0.7c0.3,0.1,0.7,0.1,0.9,0c0.3-0.1,0.6-0.6,1-0.8c0-0.1,0-0.3,0-0.4
					c0-0.5-0.1-1-0.1-1.4l0,0C22,1.1,21.9,1.7,21,2.5z"/>
				<path class="st14" d="M24,3.8c0.3,0.1,0.6,0,0.8-0.1c-0.1-0.7-0.3-2-0.1-2.8c-0.1-0.1-0.3-0.2-0.4-0.3c0,0.5,0.3,0.8,0.1,1.4
					C24.1,2.8,24,3.4,24,3.8z"/>
				<path class="st14" d="M22.3,0.1c0,0.1,0,0.3,0,0.5c0.1-0.2,0.1-0.3,0.1-0.4S22.4,0.1,22.3,0.1z"/>
				<path class="st14" d="M20.7,0.2c0-0.1,0.1-0.2,0.1-0.2c-0.9,0.1-1.6,0.3-2,0.6c-0.2,0.2-0.4,0.5-0.6,0.7C17.8,1.8,18,3,17.8,3.8
					v0.1c0.1,0,0.2,0,0.3,0c0-0.5,0.1-1.3,0.6-1.9C19.6,0.9,20.3,1.3,20.7,0.2z"/>
			</g>
			<path class="st25" d="M18.5,3.5c0.7-0.8,1.5-1.1,1.6-0.7s0.9,0.5,1.3,0.3c0.3-0.2,0.8-0.9,1.3-0.9s0.6,0.5,0.9,1.2
				s1.3,0.4,1.3,0.2S25,3,25.3,3.1s0.6,0,0.4-0.6c0,0,0,0,0-0.1c-0.2,0-0.4,0.1-0.4,0.2c-0.1,0.2-1.2,0.4-1.3,0
				c-0.1-0.4-1-1.1-1.6-0.6c-0.7,0.5-1.3,0.8-1.6,0.3c-0.3-0.3-0.7-0.7-1.8,0c-0.8,0.5-1.8,0.3-0.9-1.2c-0.7,0.8-0.8,1.8-0.8,2.1
				C17.3,3.6,17.8,4.3,18.5,3.5z"/>
			<g class="st17">
				<path class="st13" d="M23.6,3.3c-0.3-0.7-0.4-1.2-0.9-1.2s-1,0.7-1.3,0.9s-1.2,0.1-1.3-0.3c-0.1-0.4-1-0.1-1.6,0.7
					S17.3,3.5,17.4,3c0-0.2,0-0.5,0.1-0.9c-0.2,0.5-0.2,0.9-0.2,1c0,0.5,0.5,1.2,1.1,0.4s1.5-1.1,1.6-0.7s0.9,0.5,1.3,0.3
					c0.3-0.2,0.8-0.9,1.3-0.9s0.6,0.5,0.9,1.2s1.3,0.4,1.3,0.2V3.5C24.8,3.7,23.9,3.9,23.6,3.3z"/>
				<path class="st13" d="M25.3,3C25.1,2.9,25,3.1,25,3.3c0.1-0.1,0.1-0.2,0.3-0.1c0.2,0.1,0.4,0.1,0.5-0.2
					C25.7,3.1,25.5,3.1,25.3,3z"/>
			</g>
			<path class="st23" d="M17.3,4.1c0.3,1.4,3.2,1.4,3.2,1.4s-1-0.1-2-0.6S17.3,4.1,17.3,4.1z"/>
			<path class="st7" d="M25.3,4.1c-0.2,1-1.7,1.2-1.7,1.2s0.7,0,1.7-0.4C26.2,4.5,25.4,3.6,25.3,4.1z"/>
		</g>
		<g>
			<path class="st0" d="M16.5,6.2c0,0.2-0.5,0.3-1.1,0.3s-1.1-0.2-1.1-0.3c0-0.2,0.5-0.3,1.1-0.3C16,5.9,16.5,6,16.5,6.2z"/>
			<path class="st1" d="M16.7,5.6c0,0.5-0.4,0.9-0.9,0.9s-0.9-0.4-0.9-0.9s0.4-0.9,0.9-0.9C16.3,4.8,16.7,5.2,16.7,5.6z"/>
			<path class="st2" d="M16.1,5.9c-0.5,0-0.9-0.4-0.9-0.9V4.9c-0.2,0.2-0.4,0.4-0.4,0.7c0,0.5,0.4,0.9,0.9,0.9
				c0.4,0,0.8-0.3,0.9-0.7C16.5,5.9,16.3,5.9,16.1,5.9z"/>
			<path class="st3" d="M16.5,5.3c-0.1,0.1-0.3,0.1-0.5,0c-0.2-0.1-0.3-0.3-0.3-0.4c0.1-0.1,0.3-0.1,0.5,0
				C16.5,5.1,16.6,5.2,16.5,5.3z"/>
			<path class="st4" d="M15.8,6.4c-0.5,0-0.9-0.4-0.9-0.9c0-0.2,0.1-0.4,0.2-0.6c-0.2,0.2-0.3,0.4-0.3,0.6
				C14.9,6.1,15.3,6.5,15.8,6.4c0.2,0.1,0.4,0,0.6-0.2C16.3,6.3,16.1,6.4,15.8,6.4z"/>
		</g>
		<g>
			<path class="st0" d="M24.5,6.5c0,0.2-0.5,0.3-1.1,0.3s-1.1-0.2-1.1-0.3c0-0.2,0.5-0.3,1.1-0.3C24.1,6.1,24.5,6.3,24.5,6.5z"/>
			<path class="st1" d="M24.7,5.9c0,0.5-0.4,0.9-0.9,0.9s-0.9-0.4-0.9-0.9S23.3,5,23.8,5C24.3,5,24.7,5.4,24.7,5.9z"/>
			<path class="st2" d="M24.2,6.2c-0.5,0-0.9-0.4-0.9-0.9V5.2c-0.2,0.2-0.4,0.4-0.4,0.7c0,0.5,0.4,0.9,0.9,0.9
				c0.4,0,0.8-0.3,0.9-0.7C24.5,6.1,24.4,6.2,24.2,6.2z"/>
			<path class="st3" d="M24.6,5.6c-0.1,0.1-0.3,0.1-0.5,0s-0.3-0.3-0.3-0.4c0.1-0.1,0.3-0.1,0.5,0C24.5,5.3,24.6,5.5,24.6,5.6z"/>
			<path class="st4" d="M23.9,6.7c-0.5,0-0.9-0.4-0.9-0.9c0-0.2,0.1-0.4,0.2-0.6c-0.2,0.2-0.3,0.4-0.3,0.6
				C22.9,6.3,23.3,6.7,23.9,6.7c0.2,0.1,0.4,0,0.6-0.2C24.3,6.6,24.1,6.7,23.9,6.7z"/>
		</g>
		<g>
			<ellipse class="st0" cx="20.1" cy="6.4" rx="0.8" ry="0.3"/>
			<path class="st1" d="M21.1,5.9c0,0.4-0.3,0.7-0.7,0.7c-0.4,0-0.7-0.3-0.7-0.7c0-0.4,0.3-0.7,0.7-0.7C20.8,5.2,21.1,5.5,21.1,5.9z
				"/>
			<path class="st2" d="M20.7,6.1c-0.4,0-0.7-0.3-0.7-0.7V5.3c-0.2,0.1-0.3,0.3-0.3,0.5c0,0.4,0.3,0.7,0.7,0.7
				c0.4,0,0.6-0.3,0.7-0.6C21,6.1,20.8,6.1,20.7,6.1z"/>
			<path class="st3" d="M21,5.6c0,0.1-0.2,0.1-0.4,0c-0.2-0.1-0.3-0.2-0.2-0.3c0-0.1,0.2-0.1,0.4,0C21,5.4,21.1,5.6,21,5.6z"/>
			<path class="st4" d="M20.4,6.5c-0.4,0-0.7-0.3-0.7-0.7c0-0.2,0.1-0.3,0.2-0.4c-0.1,0.1-0.2,0.3-0.2,0.5C19.7,6.3,20,6.6,20.4,6.5
				c0.2,0.1,0.3,0,0.5-0.2C20.8,6.4,20.6,6.5,20.4,6.5z"/>
		</g>
		<g>
			<path class="st0" d="M26.9,5.4c0,0.1-0.4,0.3-0.8,0.3c-0.5,0-0.8-0.1-0.8-0.3s0.4-0.3,0.8-0.3S26.9,5.2,26.9,5.4z"/>
			<path class="st1" d="M27.1,4.9c0,0.4-0.3,0.7-0.7,0.7c-0.4,0-0.7-0.3-0.7-0.7c0-0.4,0.3-0.7,0.7-0.7C26.7,4.2,27.1,4.6,27.1,4.9z
				"/>
			<path class="st2" d="M26.6,5.2c-0.4,0-0.7-0.3-0.7-0.7V4.4c-0.2,0.1-0.3,0.3-0.3,0.5c0,0.4,0.3,0.7,0.7,0.7C26.7,5.6,27,5.4,27,5
				C26.9,5.1,26.8,5.2,26.6,5.2z"/>
			<path class="st3" d="M27,4.7c0,0.1-0.2,0.1-0.4,0c-0.2-0.1-0.3-0.2-0.2-0.3c0-0.1,0.2-0.1,0.4,0C26.9,4.5,27,4.6,27,4.7z"/>
			<path class="st4" d="M26.4,5.5c-0.4,0-0.7-0.3-0.7-0.7c0-0.2,0.1-0.3,0.2-0.4c-0.1,0.1-0.2,0.3-0.2,0.5C25.6,5.3,26,5.6,26.4,5.5
				c0.2,0.1,0.3,0,0.5-0.2C26.8,5.5,26.6,5.5,26.4,5.5z"/>
		</g>
	</g>
	<path class="st26" d="M21.8,16.6c0.1-0.1,0.1-0.2,0.2-0.3c0.2-0.3,0.2-0.7,0.2-1.1c0-0.1,0-0.3-0.1-0.4c0-0.1,0-0.1,0-0.2
		c0-0.2-0.1-0.4-0.1-0.6l0,0c0-0.1,0-0.2,0-0.2s0,0,0.1,0h0.1h0.1l0,0l0,0c0,0,0,0,0-0.1l0,0l0,0v-0.1l0,0v-0.1c0,0,0,0,0-0.1
		c0,0,0,0,0-0.1s0-0.1,0-0.2c0-0.1,0-0.2,0-0.3l0,0l0,0l0,0l0,0c0-0.1,0-0.2,0-0.2l0,0l0,0l0,0c-0.2-0.8-0.5-1.8-1-2.8
		c-0.1-0.2-0.2-0.3-0.3-0.5c-0.2-0.3-0.4-0.7-0.6-1c-0.1-0.1-0.2-0.2-0.3-0.3l0,0c-0.1-0.2-0.3-0.3-0.4-0.4l0,0
		c-0.1-0.1-0.2-0.2-0.4-0.4l0,0c-0.1-0.1-0.2-0.2-0.4-0.3c0,0-0.1,0-0.1-0.1c-0.1,0-0.1-0.1-0.2-0.1l0,0c-0.1-0.1-0.2-0.1-0.3-0.2
		c-0.1-0.1-0.3-0.1-0.4-0.2V6.2c0-0.1,0-0.1-0.1-0.2s-0.3-0.2-0.5-0.2S17,5.9,16.9,5.9l0,0l0,0h-0.1l0,0l0,0l0,0l0,0c0,0,0,0-0.1,0
		c0-0.2,0-0.5-0.1-0.9c0-0.1-0.1-0.2-0.1-0.3h0.1l0,0c0,0,0.1-0.1,0.1-0.2l0,0l0,0l0,0c0-0.1,0-0.2-0.1-0.3c0,0,0,0,0-0.1l0,0l0,0
		l0,0l0,0l0,0c0,0,0,0,0,0.1s-0.1,0.2-0.1,0.3l0,0l0,0c-0.1,0-0.1,0-0.2,0.1c0,0,0,0-0.1,0l0,0c0,0,0,0-0.1,0s-0.2,0.1-0.3,0.1l0,0
		c-0.1,0-0.1,0.1-0.1,0.1c-0.2,0-0.3,0.1-0.4,0.2l0,0l0,0c0,0-0.1,0-0.1,0.1l0,0l0,0l-0.1,0.1L15,5.3c-0.1,0.1-0.2,0.1-0.4,0.2
		c-0.1,0.1-0.3,0.2-0.4,0.3c-0.2,0-0.3,0.1-0.5,0.2c-0.1,0.1-0.1,0.1-0.2,0.2c-0.1,0.1-0.3,0.3-0.4,0.4c-0.4,0.4-0.8,0.9-1,1.3
		C12,8,12,8.1,11.9,8.2c0,0.1-0.1,0.2-0.1,0.3s-0.1,0.2-0.1,0.3S11.6,9,11.6,9.2c0,0.1-0.1,0.2-0.1,0.3s0,0.2,0,0.2
		c0,0.1,0,0.2,0,0.3s0,0.1,0,0.2c0,0.1,0,0.3,0,0.4c0,0.1,0,0.1,0,0.1l0,0l0,0c0,0.1,0,0.2,0.1,0.3v0.1c0,0,0,0.1,0.1,0.1l0,0
		c0,0,0,0.1,0.1,0.1c0,0,0,0,0,0.1l0,0l0,0l0,0c0,0.1,0,0.2,0,0.3c0,0.2,0,0.3,0,0.5l0,0v0.1l0,0c0,0.2,0,0.3,0,0.4
		c0,0.1,0,0.1,0,0.2c0,0.1,0,0.3,0,0.4c0,0.1,0,0.1,0,0.1c0,0.1,0,0.2,0.1,0.3v0.1c0.1,0.2,0.1,0.4,0.2,0.6c0.7,1.2,2.2,2.3,5.7,2.7
		l0,0c0.3,0,0.7,0.1,1.1,0.1c0,0,0,0,0.1,0c0,0,0,0,0.1,0s0.1,0,0.2,0c0.2,0,0.3,0,0.5,0c0.1,0,0.3,0,0.5,0c0.1,0,0.1,0,0.2,0l0,0
		c0.1,0,0.3,0,0.4,0C21.3,17.2,21.6,16.9,21.8,16.6z"/>
	<g>
		<g>
			<path class="st0" d="M6.7,6.5c0,0.2-0.5,0.3-1.1,0.3s-1-0.1-1-0.3s0.5-0.3,1.1-0.3C6.2,6.2,6.7,6.3,6.7,6.5z"/>
			<path class="st1" d="M6.8,5.9c0,0.5-0.4,0.9-0.9,0.9S5,6.4,5,5.9S5.4,5,5.9,5C6.4,5.1,6.8,5.4,6.8,5.9z"/>
			<path class="st2" d="M6.3,6.2c-0.5,0-0.9-0.4-0.9-0.9V5.2C5.2,5.4,5,5.6,5,5.9c0,0.5,0.4,0.9,0.9,0.9c0.4,0,0.8-0.3,0.9-0.7
				C6.7,6.1,6.5,6.2,6.3,6.2z"/>
			<path class="st3" d="M6.7,5.6c-0.1,0.1-0.3,0.1-0.5,0C6.1,5.5,5.9,5.3,6,5.2c0.1-0.1,0.3-0.1,0.5,0C6.7,5.3,6.8,5.5,6.7,5.6z"/>
			<path class="st4" d="M6,6.7c-0.5,0-0.9-0.4-0.9-0.9c0-0.2,0.1-0.4,0.2-0.6C5.2,5.4,5,5.7,5,5.9C5,6.4,5.4,6.8,6,6.7
				c0.2,0.1,0.4,0,0.6-0.2C6.5,6.6,6.2,6.7,6,6.7z"/>
		</g>
		<g>
			<g>
				<path class="st5" d="M5.2,6.1C-0.2,7.2,0,14.6,0.7,16c0.9,1.8,3.6,3.2,11.2,2.7c6.4-0.4,8.4-2,7.9-4.1c-0.5-2-0.8-7.2-4.6-8.4
					C12.9,5.6,7,5.7,5.2,6.1z"/>
				<path class="st6" d="M19.8,14.7c-0.5-2-0.8-7.2-4.6-8.4C13.4,5.8,9.5,5.7,7,5.9C7.7,6,8.3,6.1,8.7,6.2c3.8,1.2,4.2,6.3,4.6,8.4
					c0.4,2-1.5,3.6-7.5,4c1.6,0.2,3.5,0.3,6,0.1C18.3,18.4,20.3,16.8,19.8,14.7z"/>
				<path class="st7" d="M19.8,14.7c-0.5-2-0.8-7.2-4.6-8.4C14,6,11.9,5.8,9.9,5.8c0.9,0.1,1.8,0.2,2.3,0.4c3.8,1.2,4.2,6.3,4.6,8.4
					c0.5,2-1.5,3.7-7.9,4.1c-0.9,0-1.7,0.1-2.4,0.1c1.4,0.1,3.2,0.2,5.4,0.1C18.3,18.4,20.3,16.8,19.8,14.7z"/>
				<path class="st7" d="M12.2,18.5C4.7,18.9,2,17.5,1,15.8c-0.6-1.1-0.8-6.1,1.9-8.6c-3,2.4-2.8,7.7-2.2,8.9
					c0.9,1.8,3.6,3.2,11.2,2.7c3.9-0.2,6.1-0.9,7.2-1.9C17.9,17.7,15.8,18.3,12.2,18.5z"/>
				<path class="st8" d="M15.1,17.8c-7.5,0.4-10.2-1-11.2-2.7C3.3,13.8,3,8.2,6.4,5.9C5.9,6,5.5,6,5.2,6.1C-0.2,7.2,0,14.6,0.7,16
					c0.9,1.8,3.6,3.2,11.2,2.7c3-0.2,5.1-0.6,6.3-1.3C17.3,17.6,16.3,17.7,15.1,17.8z"/>
				<path class="st9" d="M16,7.1C13.6,6,6.1,6.1,4.4,6.9C3,7.6,2,8.4,1.3,9.2c-0.7,1.5-1,3.2-0.9,4.6c0.3,0.4,0.7,0.7,1.1,0.6
					c1.9-0.3,2.8-0.5,3.3,0.5c0.4,1,0.5,2.6,3,2.8c2.5,0.2,2.4-2.4,4.6-2.2c2.2,0.1,3.4,1.5,4.7,0.9c1.3-0.6-0.5-3.3,0.9-2.8
					c0.8,0.3,1.4,0.9,1.7,0.9c-0.2-1.1-0.5-3-1.2-4.7C17.9,8.7,17,7.6,16,7.1z"/>
				<path class="st9" d="M18,13c0.7,0.3,1.3,0.8,1.6,0.9c-0.2-1.1-0.5-2.7-1.1-4.1C17.9,8.7,17,7.6,16,7.1C13.6,6,6.1,6.1,4.4,6.9
					C3,7.6,2,8.4,1.3,9.2c-0.6,1.3-0.9,2.8-0.9,4c0.3,0.4,0.7,0.7,1.1,0.6c1.9-0.3,2.8-0.5,3.3,0.5c0.4,1,0.5,2.6,3,2.8
					s2.4-2.4,4.6-2.2c2.2,0.1,3.4,1.5,4.7,0.9c0.3-0.1,0.5-0.4,0.5-0.7c-0.1-0.6-0.2-1.1-0.1-1.4C17.5,13.1,17.5,12.8,18,13z"/>
				<path class="st10" d="M4.4,6.1c-5.8,2.8-4.8,7.7-2.9,7.5c1.9-0.3,2.8-0.5,3.3,0.5c0.4,1,0.5,2.6,3,2.8c2.5,0.2,2.4-2.4,4.6-2.2
					c2.2,0.1,3.4,1.5,4.7,0.9s-0.5-3.3,0.9-2.8c1.3,0.5,2,1.7,2,0.3s-1.6-5.6-4-6.7C13.6,5.2,6.1,5.3,4.4,6.1z"/>
				<path class="st11" d="M4.8,14.1c0.4,1,0.5,2.6,3,2.8c2.5,0.2,2.4-2.4,4.6-2.2c2.2,0.1,3.4,1.5,4.7,0.9s-0.5-3.3,0.9-2.8
					c1.3,0.5,2,1.7,2,0.3c0-0.2,0-0.4-0.1-0.7c-0.3,0.4-0.8,0.5-1.3,0c-0.9-1-2.3-0.2-1.9,1.2s-0.6,1.9-2.2,1s-2.7-1.2-5,0.4
					s-3.3,0.3-3.6-0.9C5.5,13,5,12.2,2.3,12.7c-1.3,0.2-2-0.4-2.3-1.6c-0.2,1.5,0.5,2.6,1.5,2.5C3.5,13.3,4.3,13.1,4.8,14.1z"/>
				<g class="st12">
					<path class="st13" d="M18.2,12.6c-0.3-0.1-0.5-0.1-0.5,0.2c0.1,0,0.2,0,0.4,0c1.1,0.5,1.8,1.3,1.9,0.7
						C19.7,13.6,19.1,13,18.2,12.6z"/>
					<path class="st13" d="M17.3,15.4c-1.3,0.6-2.6-0.8-4.7-0.9c-2.2-0.1-2.1,2.4-4.6,2.2c-2.5-0.2-2.6-1.8-3-2.8s-1.3-0.8-3.3-0.5
						c-1.3,0.2-2.2-2-0.8-4.3c-1.5,2.4-0.6,4.7,0.7,4.5c1.9-0.3,2.8-0.5,3.3,0.5c0.4,1,0.5,2.6,3,2.8c2.5,0.2,2.4-2.4,4.6-2.2
						c2.2,0.1,3.4,1.5,4.7,0.9c0.2-0.1,0.3-0.2,0.4-0.4C17.5,15.2,17.4,15.3,17.3,15.4z"/>
				</g>
				<g class="st12">
					<path class="st14" d="M9.7,5.5C9.6,5.6,9.5,5.7,9.4,5.8c-1.8,2.7,0.9,3.4-1.1,5.9c-1.2,1.5-2.6,2.4-3.2,3.4
						c0.3,0.8,0.9,1.6,2.6,1.8c1.8,0.1,2.3-1.1,3.2-1.8c0-0.1,0-0.2,0-0.3C10.7,11,12.2,8.3,12,7.4c0-0.4-0.2-1.1-0.2-1.8
						C11.1,5.5,10.4,5.5,9.7,5.5z"/>
					<path class="st14" d="M17.2,15.6c1.3-0.6-0.5-3.3,0.9-2.8c0.4,0.2,0.8,0.4,1.1,0.6c-0.2-1.2-0.1-2.3-0.7-4.1
						c-0.4-1.2-1.5-2-2.2-2.8c-0.1-0.1-0.2-0.1-0.3-0.2c-0.5-0.2-1.1-0.4-1.9-0.5C14.1,5.9,14,6,14,6.1c-0.6,2.1-0.5,2-0.5,4
						c-0.1,2-0.5,3.6,1.9,5.4C16,15.7,16.6,15.8,17.2,15.6z"/>
					<path class="st14" d="M6.1,9.4C6.3,8,5.5,6.8,5.3,5.8C4.9,5.9,4.6,6,4.4,6.1C3.9,6.4,3.5,6.6,3.1,6.9C2.3,8,2.4,9.2,1.7,10.6
						c-0.6,1.1-1,1.6-1.5,2.2c0.3,0.6,0.7,0.9,1.3,0.8c1.1-0.2,1.9-0.3,2.4-0.2c0,0,0-0.1,0.1-0.1C4.9,11.6,5.7,12.2,6.1,9.4z"/>
				</g>
				<g class="st15">
					<path class="st14" d="M17.7,7.8c-0.5-0.6-1.1-1.1-1.7-1.4c-0.1-0.1-0.3-0.1-0.5-0.2C15.3,6.6,15,7,14.8,7.5
						c-0.8,1.7-1.2,3.5-0.5,5.1c0.4,0.9,1.1,2.2,1.8,3.2c0.3,0.1,0.7,0,1-0.1c1.2-0.5-0.1-2.7,0.5-2.9c-0.5-1.5-1.5-2.1-0.1-4.8
						C17.7,7.9,17.7,7.8,17.7,7.8z"/>
					<path class="st14" d="M10.3,5.5C9.9,6.7,9,7.4,9.3,8.7c0.4,1.5,1.5,2.9-0.7,4.6c-1.2,0.9-2.4,1.6-3.2,2.4
						c0.4,0.6,1,1.1,2.4,1.2c1.2,0.1,1.9-0.5,2.4-1.1c-0.2-0.7-0.4-1.5-0.1-2.2c0.6-1.7,0.9-3.3,0.9-5.7c0-1-0.1-1.8,0-2.4
						C10.8,5.5,10.5,5.5,10.3,5.5z"/>
					<path class="st14" d="M4.1,10.8c0.5-1,0.1-2.9,0.2-4.6c-0.4,0.2-0.7,0.4-1,0.6c0,0.5,0,1.2-0.2,2.3c-0.4,2.5-1.7,2.9-2.6,4.1
						c0.3,0.3,0.6,0.4,1,0.4c0.7-0.1,1.2-0.2,1.6-0.2C3.5,12.5,3.6,11.8,4.1,10.8z"/>
				</g>
				<path class="st16" d="M14,11.5c-2.1,0.5-2.8,1.8-5.6,1.5c-2.7-0.3-2.9-2.6-5-2c-1.2,0.3-2.9,0-2.9-1.4c-1.1,2.2-0.3,4.2,1,4.1
					c1.9-0.3,2.8-0.5,3.3,0.5c0.4,1,0.5,2.6,3,2.8c2.5,0.2,2.4-2.4,4.6-2.2c2.2,0.1,3.4,1.5,4.7,0.9c1.3-0.6-0.5-3.3,0.9-2.8
					c1.3,0.5,2,1.7,2,0.3c0-0.3-0.1-0.8-0.3-1.4C17.9,12.4,15.7,11.1,14,11.5z"/>
				<g class="st17">
					<path class="st18" d="M9.9,16.1c0.2-0.2,0.4-0.4,0.5-0.6C10.3,15.7,10.1,15.9,9.9,16.1z"/>
					<path class="st18" d="M17.5,13c-0.7,0,0.3,1.7-0.2,2.6C18.1,15,17.4,13.5,17.5,13z"/>
					<path class="st18" d="M16,6.3c-2.4-1.1-9.9-1-11.6-0.2C3.2,6.7,2.3,7.3,1.7,8c0.6-0.6,1.4-1.1,2.5-1.6C6,5.6,13.4,5.5,15.8,6.6
						s4,5.3,4,6.7c0,0.2,0,0.3,0,0.4c0.2,0,0.3-0.1,0.3-0.7C20,11.6,18.4,7.5,16,6.3z"/>
				</g>
				<path class="st19" d="M1.5,13.6c1.9-0.3,2.8-0.5,3.3,0.5c0.4,1,0.5,2.6,3,2.8c2.5,0.2,2.4-2.4,4.6-2.2c2.2,0.1,3.4,1.5,4.7,0.9
					s-0.5-3.3,0.9-2.8c1.3,0.5,2,1.7,2,0.3c0-0.7-0.4-2.1-1.1-3.5c-6.4,3-15.2,1.2-14.9-3.2C-1.4,9.2-0.4,13.8,1.5,13.6z"/>
				<path class="st16" d="M0.5,10.2c-0.7,2.3,0.4,3.7,2.4,3s2.6,1.6,2.9,2s1.7,1.6,3.4,0.7c1.7-0.9,1.9-1.6,1.9-1.6s-1.6,1-3.5,0.4
					S6.3,12,4.4,11.8s-1.9,0.2-3-0.1C0.3,11.3,0.5,10.2,0.5,10.2z"/>
				<path class="st20" d="M9.7,5.8c-3.7-0.1-2.9,1.3,2,1.1c5-0.2,7.7,4.7,7.7,4.7S18.2,8.5,16.5,7C14.7,5.6,11.3,5.9,9.7,5.8z"/>
				<path class="st6" d="M18.7,14.1c0.4,2-2.4,3.6-2.4,3.6s2.5-0.7,3.2-1.7S18.7,14.1,18.7,14.1z"/>
				<path class="st7" d="M0.7,14.2c-0.3,4.3,7,4.5,7,4.5s-1.6,0-4.3-1.6S0.7,14.2,0.7,14.2z"/>
			</g>
			<path class="st21" d="M10.3,7.1c2.6-0.2,3.6-0.3,3.5-1.3c-2.7-0.4-6.5-0.3-8.5,0.1c0,0.2,0.1,0.3,0.1,0.4
				C5.8,6.8,7.3,7.3,10.3,7.1z"/>
			<path class="st22" d="M8.8,7.3c4.6-0.1,5.3-1,5.3-1S13.7,6,13,5.7C9.8,5.3,5.6,5.5,4.4,6.1C3.9,6.9,5.6,7.4,8.8,7.3z"/>
			<path class="st5" d="M9.7,1.6C6.1,1.9,5.5,5.3,5.9,6.1c0.3,0.6,1.8,1,4.9,0.8c3-0.2,3.9-0.3,3.4-2C13.7,3.3,12.7,1.4,9.7,1.6z"/>
			<path class="st23" d="M11.1,6.8C8,7,6.5,6.5,6.2,5.9C5.8,5.4,6.1,3.3,7.8,2.2C5.9,3.3,5.6,5.5,5.9,6.1s1.8,1,4.9,0.8
				c1.7-0.1,2.8-0.2,3.2-0.6C13.5,6.6,12.5,6.7,11.1,6.8z"/>
			<path class="st9" d="M14.2,5.1C14.2,5,14.2,5,14.2,5.1C14,4.2,13.6,3.4,13,2.7c-0.6-0.4-1.6-0.8-3.1-0.8C8.8,1.9,8,2.1,7.4,2.4
				C6.6,3,6.1,3.9,5.9,4.7c0,0.1,0,0.2,0,0.3c0,0.5,0.5,1.2,1.1,0.4c0.7-0.8,1.5-1.1,1.6-0.7S9.5,5.2,9.9,5c0.3-0.2,0.8-0.9,1.3-0.9
				s0.6,0.5,0.9,1.2c0.3,0.7,1.3,0.4,1.3,0.2s0.1-0.6,0.4-0.5C14,5.2,14.1,5.2,14.2,5.1z"/>
			<path class="st24" d="M14.3,5.9c-3.2,1.8-8.4-0.3-6.5-3.6L7.4,2.4C5.9,3.5,5.6,5.5,5.9,6.1s1.8,1,4.9,0.8
				C13.1,6.8,14.2,6.7,14.3,5.9z"/>
			<path class="st10" d="M9.9,1.4C6,1.3,5.9,4,5.9,4.5C5.8,5.1,6.3,5.7,7,5c0.7-0.8,1.5-1.1,1.6-0.7s0.9,0.5,1.3,0.3
				c0.3-0.2,0.8-0.9,1.3-0.9s0.6,0.5,0.9,1.2c0.3,0.7,1.3,0.4,1.3,0.2s0.1-0.6,0.4-0.5c0.3,0.2,0.6,0,0.4-0.6
				C14.1,3.5,13.7,1.5,9.9,1.4z"/>
			<g class="st15">
				<path class="st14" d="M13.8,4.5c-0.2-0.6-0.4-1.4-0.5-2.1c-0.2-0.2-0.5-0.4-0.9-0.5c0,0,0,0.1-0.1,0.1c-0.5,0.9,0.3,0.8,0,2.1
					c-0.1,0.3-0.2,0.5-0.3,0.7v0.1c0.3,0.7,1.3,0.4,1.3,0.2C13.5,4.8,13.5,4.5,13.8,4.5C13.8,4.6,13.8,4.5,13.8,4.5z"/>
				<path class="st14" d="M11.2,2.5c0-0.3,0.1-0.6,0.1-0.9c-0.2,0-0.5-0.1-0.8-0.1c-0.2,0.6-0.3,1.2-0.8,1.8c-0.4,0.5-0.8,0.8-1,1.2
					C9,4.7,9.6,4.7,9.9,4.6c0.3-0.2,0.8-0.8,1.2-0.9C11.1,3.4,11.1,3.1,11.2,2.5z"/>
				<path class="st14" d="M10.1,1.4c-0.1,0-0.1,0-0.2,0C7.8,1.4,6.8,2.2,6.3,3C6,4,6.3,4.7,6.1,5.2C6.4,5.4,6.7,5.4,7,5l0.1-0.1
					c0-0.5,0.1-1.1,1.2-1.5C9.5,3,10,2.1,10.1,1.4z"/>
			</g>
			<g class="st12">
				<path class="st14" d="M9.6,3.9C9.4,4.1,9.1,4.4,9,4.6c0.3,0.1,0.7,0.1,0.9,0c0.3-0.1,0.6-0.6,1-0.8c0-0.1,0-0.3,0-0.4
					c0-0.5-0.1-1-0.1-1.4l0,0C10.6,2.6,10.4,3.1,9.6,3.9z"/>
				<path class="st14" d="M12.5,5.3c0.3,0.1,0.6,0,0.8-0.1c-0.1-0.7-0.3-2-0.1-2.8c-0.1-0.1-0.3-0.2-0.4-0.3c0,0.5,0.3,0.8,0.1,1.4
					C12.7,4.2,12.6,4.8,12.5,5.3z"/>
				<path class="st14" d="M10.9,1.5c0,0.1,0,0.3,0,0.5c0-0.2,0.1-0.4,0.1-0.5C10.9,1.5,10.9,1.5,10.9,1.5z"/>
				<path class="st14" d="M9.2,1.7c0-0.1,0.1-0.2,0.1-0.2c-0.9,0-1.6,0.2-2,0.5C7,2.2,6.8,2.5,6.7,2.7C6.4,3.3,6.6,4.4,6.3,5.2v0.1
					c0.1,0,0.2,0,0.3,0c0-0.5,0.1-1.3,0.6-1.9C8.1,2.3,8.8,2.7,9.2,1.7z"/>
			</g>
			<path class="st25" d="M7,5c0.7-0.8,1.5-1.1,1.6-0.7s0.9,0.5,1.3,0.3c0.3-0.2,0.8-0.9,1.3-0.9s0.6,0.5,0.9,1.2
				c0.3,0.7,1.3,0.4,1.3,0.2s0.1-0.6,0.4-0.5c0.3,0.2,0.6,0,0.4-0.6c0,0,0,0,0-0.1c-0.2,0-0.4,0.1-0.4,0.2c-0.1,0.2-1.2,0.4-1.3,0
				s-1-1.1-1.6-0.6C10.3,4,9.6,4.3,9.3,3.9C9,3.4,8.6,3,7.5,3.7C6.7,4.2,5.7,4,6.7,2.5c-0.8,0.7-0.8,1.7-0.8,2C5.8,5.1,6.3,5.7,7,5z
				"/>
			<g class="st17">
				<path class="st13" d="M12.2,4.7c-0.3-0.7-0.4-1.2-0.9-1.2s-1,0.7-1.3,0.9C9.6,4.6,8.8,4.5,8.7,4.1S7.7,4,7.1,4.8
					S5.9,4.9,5.9,4.3c0-0.2,0-0.5,0.1-0.9c-0.2,0.5-0.2,0.9-0.2,1C5.8,5.1,6.3,5.7,7,5c0.7-0.8,1.5-1.1,1.6-0.7s0.9,0.5,1.3,0.3
					c0.3-0.2,0.8-0.9,1.3-0.9s0.6,0.5,0.9,1.2c0.3,0.7,1.3,0.4,1.3,0.2V5C13.3,5.2,12.5,5.3,12.2,4.7z"/>
				<path class="st13" d="M13.9,4.4c-0.2-0.1-0.3,0.1-0.4,0.3c0.1-0.1,0.1-0.2,0.3-0.1s0.4,0.1,0.5-0.2C14.2,4.5,14.1,4.5,13.9,4.4z
					"/>
			</g>
			<path class="st23" d="M5.9,5.5C6.2,6.9,9,6.9,9,6.9S8,6.8,7,6.3C6.1,5.8,5.9,5.5,5.9,5.5z"/>
			<path class="st7" d="M13.8,5.5c-0.2,1-1.7,1.2-1.7,1.2s0.7,0,1.7-0.4C14.8,5.9,13.9,5,13.8,5.5z"/>
		</g>
		<g>
			<path class="st0" d="M5,7.6C5,7.8,4.6,8,4,8S2.9,7.8,2.9,7.6c0-0.2,0.5-0.3,1.1-0.3C4.6,7.3,5,7.5,5,7.6z"/>
			<path class="st1" d="M5.2,7c0,0.5-0.4,0.9-0.9,0.9S3.4,7.5,3.4,7s0.4-0.9,0.9-0.9S5.2,6.6,5.2,7z"/>
			<path class="st2" d="M4.7,7.3C4.2,7.3,3.8,7,3.8,6.5V6.4C3.6,6.5,3.4,6.8,3.4,7c0,0.5,0.4,0.9,0.9,0.9c0.4,0,0.8-0.3,0.9-0.7
				C5,7.3,4.9,7.3,4.7,7.3z"/>
			<path class="st3" d="M5.1,6.7C5,6.8,4.8,6.8,4.6,6.7C4.4,6.6,4.3,6.5,4.4,6.4s0.3-0.1,0.5,0C5,6.5,5.1,6.6,5.1,6.7z"/>
			<path class="st4" d="M4.4,7.8C3.9,7.8,3.5,7.4,3.5,7c0-0.2,0.1-0.4,0.2-0.6C3.5,6.6,3.4,6.8,3.4,7C3.4,7.5,3.8,7.9,4.4,7.8
				c0.2,0.1,0.4,0,0.6-0.2C4.8,7.7,4.6,7.8,4.4,7.8z"/>
		</g>
		<g>
			<path class="st0" d="M13.1,7.9c0,0.2-0.5,0.3-1.1,0.3S10.9,8,10.9,7.9c0-0.2,0.5-0.3,1.1-0.3C12.6,7.5,13.1,7.7,13.1,7.9z"/>
			<path class="st1" d="M13.2,7.3c0,0.5-0.4,0.9-0.9,0.9s-0.9-0.4-0.9-0.9s0.4-0.9,0.9-0.9S13.2,6.8,13.2,7.3z"/>
			<path class="st2" d="M12.7,7.6c-0.5,0-0.9-0.4-0.9-0.9V6.6c-0.2,0.2-0.4,0.4-0.4,0.7c0,0.5,0.4,0.9,0.9,0.9
				c0.4,0,0.8-0.3,0.9-0.7C13.1,7.5,12.9,7.6,12.7,7.6z"/>
			<path class="st3" d="M13.1,7c-0.1,0.1-0.3,0.1-0.5,0s-0.3-0.3-0.3-0.4c0.1-0.1,0.3-0.1,0.5,0C13.1,6.7,13.2,6.9,13.1,7z"/>
			<path class="st4" d="M12.4,8.1c-0.5,0-0.9-0.4-0.9-0.9c0-0.2,0.1-0.4,0.2-0.6c-0.2,0.2-0.3,0.4-0.3,0.6
				C11.4,7.8,11.9,8.2,12.4,8.1c0.2,0.1,0.4,0,0.6-0.2C12.9,8,12.7,8.1,12.4,8.1z"/>
		</g>
		<g>
			<ellipse class="st0" cx="8.7" cy="7.8" rx="0.8" ry="0.3"/>
			<path class="st1" d="M9.7,7.3C9.7,7.7,9.3,8,8.9,8S8.2,7.7,8.2,7.3c0-0.4,0.3-0.7,0.7-0.7S9.7,6.9,9.7,7.3z"/>
			<path class="st2" d="M9.2,7.5c-0.4,0-0.7-0.3-0.7-0.7V6.7C8.4,6.9,8.2,7.1,8.2,7.3C8.2,7.7,8.5,8,8.9,8s0.6-0.3,0.7-0.6
				C9.5,7.5,9.4,7.5,9.2,7.5z"/>
			<path class="st3" d="M9.6,7.1c0,0.1-0.2,0.1-0.4,0C9,7,8.9,6.8,9,6.8c0-0.1,0.2-0.1,0.4,0C9.5,6.8,9.6,7,9.6,7.1z"/>
			<path class="st4" d="M9,7.9c-0.4,0-0.7-0.3-0.7-0.7c0-0.2,0.1-0.3,0.2-0.4C8.3,6.9,8.2,7.1,8.2,7.3C8.2,7.7,8.5,8,9,7.9
				c0.2,0.1,0.3,0,0.5-0.2C9.4,7.9,9.2,7.9,9,7.9z"/>
		</g>
		<g>
			<ellipse class="st0" cx="14.6" cy="6.8" rx="0.8" ry="0.3"/>
			<path class="st1" d="M15.6,6.3c0,0.4-0.3,0.7-0.7,0.7s-0.7-0.3-0.7-0.7s0.3-0.7,0.7-0.7C15.3,5.7,15.6,6,15.6,6.3z"/>
			<path class="st2" d="M15.2,6.6c-0.4,0-0.7-0.3-0.7-0.7V5.8c-0.2,0.1-0.3,0.3-0.3,0.5c0,0.4,0.3,0.7,0.7,0.7s0.6-0.3,0.7-0.6
				C15.5,6.5,15.3,6.6,15.2,6.6z"/>
			<path class="st3" d="M15.5,6.1c0,0.1-0.2,0.1-0.4,0C15,6,14.9,5.9,14.9,5.8s0.2-0.1,0.4,0C15.5,5.9,15.6,6,15.5,6.1z"/>
			<path class="st4" d="M15,7c-0.4,0-0.7-0.3-0.7-0.7c0-0.2,0.1-0.3,0.2-0.4c-0.1,0.1-0.2,0.3-0.2,0.5C14.2,6.7,14.5,7,15,7
				c0.2,0.1,0.3,0,0.5-0.2C15.3,6.9,15.1,7,15,7z"/>
		</g>
	</g>
</g>
</svg>
