<?xml version="1.0" encoding="utf-8"?>
<!-- Generator: Adobe Illustrator 27.1.1, SVG Export Plug-In . SVG Version: 6.00 Build 0)  -->
<svg version="1.1" id="Layer_3" xmlns="http://www.w3.org/2000/svg" xmlns:xlink="http://www.w3.org/1999/xlink" x="0px" y="0px"
	 viewBox="0 0 40.8 13.3" style="enable-background:new 0 0 40.8 13.3;" xml:space="preserve">
<style type="text/css">
	.st0{fill:#F7D38B;}
	.st1{opacity:0.2;fill:#B37600;enable-background:new    ;}
	.st2{fill:#FFDE9C;}
	.st3{fill:#FFEAC0;}
	.st4{opacity:0.2;fill:#AD6F6F;enable-background:new    ;}
	.st5{opacity:0.2;fill:#6E2828;enable-background:new    ;}
	.st6{fill:#B89076;}
	.st7{opacity:0.1;fill:#FFC8A4;enable-background:new    ;}
	.st8{opacity:0.1;fill:#B89076;enable-background:new    ;}
	.st9{fill:#D9AA8B;}
	.st10{opacity:0.1;fill:#C27A4A;enable-background:new    ;}
	.st11{opacity:0.2;fill:#FFC8A3;enable-background:new    ;}
	.st12{opacity:0.2;fill:#C27A4A;enable-background:new    ;}
	.st13{opacity:0.3;fill:#FFC8A3;enable-background:new    ;}
	.st14{fill:#FFE2CA;}
	.st15{opacity:0.2;fill:#FFF9F5;enable-background:new    ;}
	.st16{opacity:0.1;fill:#FF8A29;enable-background:new    ;}
	.st17{fill:#FFD863;}
	.st18{opacity:0.2;fill:#D9AA8B;enable-background:new    ;}
</style>
<g>
	<g>
		<path class="st0" d="M40.3,10.4c0,1.6-8.9,2.9-19.9,2.9S0.5,12,0.5,10.4c0-0.2-0.1-0.7,0.1-0.8c1.6-1.3,10-2,19.8-2
			c10.6,0,19.3,0.8,19.9,2.3C40.4,9.9,40.3,10.3,40.3,10.4z"/>
		<path class="st1" d="M40.3,10.4c0-0.1,0-0.5,0-0.5C39.7,8.4,31,7.5,20.4,7.5c-9.8,0-18.2,0.7-19.8,2c-0.2,0.2-0.1,0.7-0.1,0.8
			c0,0.2,0.1,0.3,0.3,0.4C3,12.1,11,13,20.4,13s17.4-0.9,19.7-2.1C40.2,10.7,40.3,10.6,40.3,10.4z"/>
		<path class="st2" d="M40.8,10c0,1.6-9.1,2.9-20.4,2.9S0,11.6,0,10c0-0.2-0.1-0.7,0.1-0.8c1.7-1.3,10.2-2,20.3-2
			c10.9,0,19.8,0.8,20.4,2.3V10z"/>
		<ellipse class="st3" cx="20.4" cy="9.5" rx="20.4" ry="2.9"/>
		<path class="st3" d="M39.9,9.3c0,1.4-8.7,2.5-19.5,2.5S0.9,10.7,0.9,9.3s8.7-2.5,19.5-2.5C31.2,6.9,39.9,8,39.9,9.3z"/>
		<path class="st4" d="M20.4,6.9C10.6,6.9,2.6,7.8,1.1,9C3.3,7.9,10.9,7.1,20,7.1c10.8,0,19.5,1.1,19.5,2.5c0,0.1-0.1,0.3-0.3,0.4
			c0.4-0.2,0.6-0.4,0.6-0.6C39.9,8,31.2,6.9,20.4,6.9z"/>
	</g>
	<path class="st5" d="M6.1,9.3c0,0,3.4,2.9,14.9,2.9c8.3,0,19.3-1.2,17.6-2.5s-7.9-1.3-9.8-1.4C26.9,8.1,6.3,8.5,6.1,9.3z"/>
	<g>
		<path class="st6" d="M6.7,1.4c4-1.6,20.9-1.5,22.5-1.3c1.7,0.2,4.1,0.4,4.9,1.8c0.9,1.3,2.4,7,1.9,7.7c-0.5,0.6-18.4,2.2-21.4,1.7
			S6.7,1.4,6.7,1.4z"/>
		<path class="st7" d="M34.2,1.9c-0.9-1.3-3.3-1.6-4.9-1.8C27.6-0.1,10.7-0.2,6.7,1.4c0,0,0,0.1,0.1,0.3c5-1.3,20.2-1.2,21.8-1
			c1.7,0.2,4.1,0.4,4.9,1.8c0.8,1.2,2,5.9,1.9,7.3c0.3-0.1,0.5-0.1,0.5-0.2C36.5,8.9,35,3.2,34.2,1.9z"/>
		<path class="st8" d="M36,9.6c0.5-0.6-0.9-6.4-1.8-7.7c-0.1-0.2-0.2-0.3-0.4-0.4C30,2.9,21,2.9,14.4,1.9l-5.5,3H8.8
			c1.7,2.7,4.1,6,5.8,6.3C17.6,11.7,35.4,10.2,36,9.6z"/>
		<path class="st7" d="M35.6,5.9c-0.5,1.3-1.5,2.8-3.4,3.2c-3.9,0.9-7.3-1.2-9.4-0.5c-2.2,0.8-7.7,3-8.5-1.3L9.9,6.7
			c1.5,2.2,3.3,4.3,4.7,4.5c3,0.5,20.8-1.1,21.4-1.7C36.2,9.2,36,7.6,35.6,5.9z"/>
		<path class="st9" d="M6.5,1.5C4.9,2.5,5.8,8.2,5.9,9c0.2,0.9,7.1,2.5,9.1,2.2s0.2-8.7-0.3-9.2C14.3,1.6,7.8,0.7,6.5,1.5z"/>
		<path class="st10" d="M15,11.2c0.9-0.1,1.1-2,0.9-4.1c-0.8,0-2,2.2-3,1.7c-1.5-0.8-3,0.5-4.6-0.2S7,6,5.7,7.8
			c0.1,0.6,0.2,1.1,0.2,1.3C6.1,9.9,13,11.5,15,11.2z"/>
		<path class="st11" d="M14.8,2.1c-0.5-0.4-7-1.4-8.3-0.6C5.9,1.9,5.6,2.9,5.6,4.1C5.7,3.9,5.8,3.7,6,3.5C7.1,2,7.9,2.4,8.2,2.6
			C8.6,2.8,9.7,2,9.7,2s0.9,0.6,1.2,0.6s0.3-0.8,1.3-0.2c1.1,0.6,1.3,0.4,1.4,1c0.1,0.6-1.2,1.6,1,1.5c0.3,0,0.7-0.1,1-0.1
			C15.2,3.3,14.9,2.2,14.8,2.1z"/>
		<path class="st10" d="M6.4,6.4C6.1,5.6,6.5,6.5,6.6,5.2s-1.3-1.8,0.1-2s1.5-0.1,1.6,0.2c0.1,0.2,0.3-0.7,1.2-0.1s0.6,0.8,0.3,1.3
			S9.2,4.2,9.6,5.7c0.4,1.4,1.2,1.6,0.5,2c-0.6,0.4-1,0.7-1.5-0.1C8.1,6.7,8.5,6,7.7,6.4C6.8,6.8,6.4,6.4,6.4,6.4z"/>
		<path class="st11" d="M11.9,4.7c-0.8,0.5-1.7,0.4-1,1.1S11.3,6.4,11,7c-0.3,0.6-0.4,1,0.3,1s1.3-0.4,1.5-0.1
			c0.2,0.3,0.9,0.8,1.4,0.2s1-1.2,0.8-1.7s0.4-0.9-0.4-1c-0.8-0.1-0.5,0.2-1-0.2c-0.6-0.4-0.9-0.7-1.2-0.9C12,4.2,11.9,4.7,11.9,4.7
			z"/>
		<path class="st12" d="M9.6,2.6C9,3,10.4,3,10.3,3.3c0,0.3,0,0-0.1,0.5c-0.1,0.4-0.2,0.4-0.1,0.8c0,0.4-0.2,1.3,0.4,0.4
			c0.6-0.9,0.2-1.4,1.1-1.3c0.8,0.1,0.7,0.2,1.1,0.1C13,3.7,13.6,3.3,12.9,3c-0.7-0.2-0.8-0.6-1.1-0.5c-0.3,0.2,0.1,0.5-0.6,0.3
			c-0.6-0.2-0.6-0.3-1-0.4C9.8,2.5,9.6,2.6,9.6,2.6z"/>
		<path class="st12" d="M10.3,10c0.4-0.4,0.8-0.4,1.1-0.2c0.4,0.2,0.7,0.5,1.5,0.3s1.3-0.3,1.6-0.7c0.3-0.5,0.4-1.8,0.6-0.7
			c0.2,1.1-0.2,2-0.4,2.1s-0.3-0.1-1.2-0.1s-1.3,0.1-1.9,0c-0.6-0.1-0.8,0-1-0.1C10.3,10.3,10.3,10,10.3,10z"/>
		<path class="st12" d="M6.5,8.1C6.1,8.6,6.1,9,6.7,9.1s0.5-0.1,1,0.2C8.2,9.7,9.4,10,9.5,9.8S9.4,9.2,8.8,9c-0.6-0.3-0.6-0.4-1-0.5
			c-0.3-0.1-0.2,0-0.7-0.4C6.6,7.7,6.3,7.4,6.2,7.4C6,7.4,6.5,8.1,6.5,8.1z"/>
		<path class="st12" d="M6.8,3.2C6.2,3.6,6.2,3.9,6.4,4.1c0.2,0.2,0.4,0.2,0.3,0.6C6.6,5.2,6.6,5,6.5,5.4s0,1.9,0.3,0.3S7.2,4,7.2,4
			s0-0.2-0.1-0.5S6.9,3.1,6.9,3.1L6.8,3.2z"/>
		<path class="st11" d="M6.4,2C6,2.5,6.1,2.9,6.1,2.9S6.2,3,6.9,2.5S7.5,1.9,8,2.1c0.4,0.2,0.1,0.4,0.5,0.3C8.8,2.3,8.8,2.2,9.1,2
			s0.6-0.6,0.8-0.3s0.4,0.4,0.4,0.4s0.4-0.5-0.4-0.6C9.1,1.4,8.8,1.3,8.6,1.4c-0.2,0-0.2-0.2-0.9,0C7,1.5,6.6,1.4,6.6,1.6
			S6.4,2,6.4,2z"/>
		<path class="st13" d="M6.6,1.8c1.3-0.9,7.7,0.1,8.3,0.5c-0.1-0.1-0.1-0.2-0.1-0.3c-0.5-0.4-7-1.4-8.3-0.6c-1.6,1-0.7,6.7-0.6,7.5
			C5.9,9,6,9,6,9.1C5.9,8.2,5.1,2.8,6.6,1.8z"/>
		<path class="st8" d="M16.1,3c0.3,2,2.2,2.4,3.2,1.9c1.1-0.5,1.5-0.1,2.9,0c1.3,0.1,1.9-1.1,3.6-0.7s3.4,0.6,5,0.4
			c1.6-0.3,2.9-0.7,2.7-1.5s0.1-1.3-0.9-0.7s-1.2,0.5-2.5,0.7s-2.2,0-4-0.1c-1.7,0-1.3-0.3-2.8,0c-1.4,0.3-1.4,0.3-2.3,0.6
			c-0.8,0.2-0.7,0.2-2.2-0.1c-1.5-0.2-1.9-0.4-2.3-0.5C16.1,3,16.1,3,16.1,3z"/>
		<path class="st7" d="M16.3,8.1c0.3,1.8,2.1,1.5,3.2,0.6s2.2-1.3,3-1C23.2,8,23.9,7.5,25,7.8c1.1,0.2,3.2,0.5,4.2,0.9
			s2.3,0.7,3.4,0c1.1-0.7,1.9-0.9,1.9-1.5s-0.1-2-0.1-2S33.6,5.3,32.8,6s0.2,0.9-2,0.7C28.6,6.5,27.7,6,26.4,6
			c-1.3,0.1-2.3,0-3.2,0.2c-0.8,0.2-0.6,0.1-1.6,0.3c-1.1,0.2-1.9,0-2.4,0s-0.1-0.4-1.1,0.1c-1,0.6-0.9,0.5-1.2,0.6
			c-0.4,0.1-0.7,0.6-0.7,0.6L16.3,8.1L16.3,8.1z"/>
		<path class="st7" d="M11.7,1c0.2,0,1.8,1,2.9,0.8s2.2-0.7,3.3-0.6c1.1,0.1,1.6,0.3,3,0.5s2.3,0.7,4.9,0.4s4.2-0.5,4.4-0.6
			c0.3-0.2,2.5-0.5-0.5-0.7s-2.4-0.2-4.8-0.2s-3.7-0.1-4.8-0.2c-1.1,0-0.9-0.2-2.5-0.1s-2.6,0-4.2,0C11.8,0.3,9.4,0.8,11.7,1z"/>
	</g>
	<path class="st12" d="M9.2,3.4c-3.6-0.5-1.6,7.9,2.3,6.3C15.4,8,12.2,3.8,9.2,3.4z"/>
	<path class="st14" d="M9,3.1C5.5,2.6,7.4,11,11.3,9.4C15.2,7.7,12,3.5,9,3.1z"/>
	<path class="st15" d="M11.3,8.9C8.8,10,7.1,6.8,7.2,4.6c-0.4,2.2,1.4,5.9,4.1,4.8c1.3-0.6,1.8-1.4,1.8-2.3
		C12.9,7.8,12.4,8.5,11.3,8.9z"/>
	<path class="st16" d="M9,3.6c1.9,0.3,3.9,2.1,4.1,3.7c0.2-1.8-2-3.9-4.1-4.2c-1.4-0.2-1.9,1-1.9,2.4C7.2,4.3,7.8,3.4,9,3.6z"/>
	<path class="st12" d="M9.2,5.2c-2,0.8,0,4.3,1.9,2.8C13,6.4,10.8,4.6,9.2,5.2z"/>
	<path class="st17" d="M9.1,5.1c-2,0.8,0,4.3,1.9,2.8C13,6.3,10.7,4.4,9.1,5.1z"/>
	<path class="st18" d="M9.2,5.5c1-0.4,2.2,0.1,2.6,1c-0.1-1-1.5-1.8-2.6-1.3C8.3,5.5,8.2,6.3,8.4,7C8.3,6.4,8.5,5.8,9.2,5.5z"/>
</g>
</svg>
