<?xml version="1.0" encoding="utf-8"?>
<!-- Generator: Adobe Illustrator 27.1.1, SVG Export Plug-In . SVG Version: 6.00 Build 0)  -->
<svg version="1.1" id="Layer_3" xmlns="http://www.w3.org/2000/svg" xmlns:xlink="http://www.w3.org/1999/xlink" x="0px" y="0px"
	 viewBox="0 0 19.2 24.7" style="enable-background:new 0 0 19.2 24.7;" xml:space="preserve">
<style type="text/css">
	.st0{fill:#FFE0C9;}
	.st1{opacity:0.2;fill:#FFFFFF;enable-background:new    ;}
	.st2{fill:#FF9447;}
	.st3{opacity:0.2;fill:#A9B2D1;enable-background:new    ;}
	.st4{opacity:0.5;fill:#8D9ABD;enable-background:new    ;}
	.st5{opacity:0.4;fill:#8D9ABD;enable-background:new    ;}
	.st6{opacity:0.2;}
	.st7{opacity:0.4;}
	.st8{opacity:0.4;fill:#FFFFFF;enable-background:new    ;}
	.st9{opacity:0.5;fill:#FFFFFF;enable-background:new    ;}
	.st10{opacity:0.3;}
	.st11{fill:#8D9ABD;}
</style>
<g>
	<path class="st0" d="M0.9,5.4c0,0,0-3.1,0-4.3C0.9-0.2,3.4,0,4,0.4c0.5,0.4,1.4,0.1,2.2-0.1c0.9-0.2,1.2-0.4,2,0
		c0.8,0.5,0.7,0.2,1.6,0c0.9-0.2,1.8-0.4,2.8,0.1c0.6,0.3,0.5,5.4,0.5,5.4s-0.7,2-5.3,1.5C3.1,6.8,1,5.4,1,5.4H0.9z"/>
	<path class="st1" d="M1.5,2.4c0-1.2,2.5-1.1,3.1-0.7C5.1,2.2,6,1.9,6.8,1.6c0.9-0.2,1.2-0.4,2,0c0.8,0.5,0.7,0.2,1.6,0
		c0.8-0.2,1.6-0.4,2.5,0c-0.1-0.7-0.2-1.1-0.3-1.2c-1-0.5-1.9-0.3-2.8-0.1S9,0.8,8.2,0.3S7,0,6.2,0.3C5.3,0.5,4.5,0.8,4,0.4
		C3.4,0,0.9-0.2,0.9,1s0,4.3,0,4.3H1c0,0,0.2,0.1,0.5,0.3C1.5,4.7,1.5,3.2,1.5,2.4z"/>
	<path class="st2" d="M13.1,5.8C8.9,7.3,4.3,5.4,0.9,5.4v16.2c0,0.4,0.3,0.7,0.7,0.7h10.8c0.4,0,0.7-0.3,0.7-0.7
		C13.1,21.6,13.1,5.8,13.1,5.8z"/>
	<path class="st3" d="M13.3,22.6H0.6V3.9c0-0.6,0.5-1.1,1.1-1.1h10.5c0.6,0,1.1,0.5,1.1,1.1V22.6z"/>
	<path class="st3" d="M12.2,2.8H8.5c0.6,0,1.1,0.5,1.1,1.1v18.7h3.7V3.9C13.3,3.3,12.8,2.8,12.2,2.8z"/>
	<path class="st4" d="M13.3,22.6H9.5H4.4H0.6C-0.1,23.2,0,23.7,0,23.7v1h4.4h5.1H14v-1C14,23.7,14,23.2,13.3,22.6z"/>
	<path class="st5" d="M15.8,6h-2.5v2.1h2.5c0.7,0,1.2,0.6,1.2,1.2v5.4c0,1.7-1.4,3-3,3h-0.7v2.1H14c2.8,0,5.1-2.3,5.1-5.1V9.3
		C19.2,7.5,17.7,6,15.8,6z"/>
	<g class="st6">
		<path class="st5" d="M17.1,9.3v5.4c0,0.6-0.2,1.2-0.5,1.7c0.5-0.5,0.9-1.3,0.9-2.1V8.9c0-0.7-0.6-1.2-1.2-1.2h-2.5V6h-0.4v2.1h2.5
			C16.5,8.1,17.1,8.6,17.1,9.3z"/>
		<path class="st5" d="M14.4,19.4h-0.7v-1.7h-0.4v2.1H14c1.8,0,3.4-0.9,4.3-2.3C17.4,18.7,16,19.4,14.4,19.4z"/>
	</g>
	<g class="st7">
		<path class="st8" d="M13.6,18.1c0.9,0,1.7-0.4,2.2-1c-0.5,0.4-1.1,0.6-1.8,0.6h-0.7v0.4H13.6z"/>
		<path class="st8" d="M15.8,6h-2.5v0.4h2.1c1.8,0,3.3,1.5,3.3,3.3v5.4c0,1.4-0.5,2.6-1.4,3.5c1.1-0.9,1.9-2.3,1.9-3.9V9.3
			C19.2,7.5,17.7,6,15.8,6z"/>
	</g>
	<path class="st9" d="M3,13.8H2.5c-0.5,0-1-0.4-1-1V4.2c0-0.5,0.4-1,1-1H3c0.5,0,1,0.4,1,1v8.7C4,13.4,3.5,13.8,3,13.8z"/>
	<path class="st9" d="M3.4,17.8H2.1c-0.3,0-0.6-0.2-0.6-0.6v-2.4c0-0.3,0.2-0.6,0.6-0.6h1.3c0.3,0,0.6,0.2,0.6,0.6v2.4
		C4,17.5,3.7,17.8,3.4,17.8z"/>
	<path class="st9" d="M12.2,2.8h-0.5c0.6,0,1.1,0.5,1.1,1.1v18.7h0.5V3.9C13.3,3.3,12.8,2.8,12.2,2.8z"/>
	<g class="st10">
		<rect x="13.3" y="6" class="st11" width="1.4" height="2.1"/>
		<path class="st11" d="M14.7,17.7c-0.2,0-0.4,0.1-0.7,0.1h-0.7v2.1H14c0.2,0,0.4,0,0.7-0.1V17.7z"/>
	</g>
</g>
</svg>
