<?xml version="1.0" encoding="utf-8"?>
<!-- Generator: Adobe Illustrator 27.1.1, SVG Export Plug-In . SVG Version: 6.00 Build 0)  -->
<svg version="1.1" id="Layer_3" xmlns="http://www.w3.org/2000/svg" xmlns:xlink="http://www.w3.org/1999/xlink" x="0px" y="0px"
	 viewBox="0 0 40.4 9.2" style="enable-background:new 0 0 40.4 9.2;" xml:space="preserve">
<style type="text/css">
	.st0{fill:#F2B98F;}
	.st1{opacity:0.2;fill:#992C2C;enable-background:new    ;}
	.st2{fill:#FFE9C7;}
	.st3{opacity:0.1;fill:#992C2C;enable-background:new    ;}
	.st4{opacity:0.2;fill:#B31E1E;enable-background:new    ;}
	.st5{fill:#965648;}
	.st6{opacity:0.2;fill:#FF927A;enable-background:new    ;}
	.st7{opacity:0.2;fill:#965648;enable-background:new    ;}
	.st8{opacity:0.2;}
	.st9{opacity:0.1;fill:#FF927A;enable-background:new    ;}
	.st10{opacity:0.2;fill:#FFB87A;enable-background:new    ;}
	.st11{fill:#FFD573;}
	.st12{opacity:0.2;fill:#FFF7D6;enable-background:new    ;}
	.st13{opacity:0.2;fill:#FF9D7A;enable-background:new    ;}
	.st14{opacity:0.2;fill:#FFF8DB;enable-background:new    ;}
</style>
<g>
	<g>
		<ellipse class="st0" cx="20.2" cy="5.5" rx="19" ry="3.7"/>
		<path class="st1" d="M20.2,1.7c-10.5,0-19,1.7-19,3.7c0,0.4,0.3,0.8,0.9,1.1c3.3,1.2,10.2,2.1,18.1,2.1S35,7.8,38.3,6.5
			c0.6-0.4,0.9-0.7,0.9-1.1C39.2,3.4,30.7,1.7,20.2,1.7z"/>
		<ellipse class="st0" cx="20.2" cy="4.6" rx="20.2" ry="3.7"/>
		<ellipse class="st2" cx="20.2" cy="4.4" rx="20.2" ry="3.7"/>
		<path class="st2" d="M39.1,4.1c0,1.6-8.4,2.9-18.9,2.9S1.4,5.7,1.4,4.1s8.4-2.9,18.9-2.9S39.1,2.5,39.1,4.1z"/>
		<path class="st3" d="M20.2,1.2C12.3,1.2,5.5,1.9,2.7,3c3.1-0.9,9.5-1.6,16.7-1.6c10.4,0,18.9,1.3,18.9,2.9c0,0.4-0.5,0.8-1.4,1.1
			C38.3,5,39,4.5,39,4.1C39.1,2.5,30.6,1.2,20.2,1.2z"/>
	</g>
	<path class="st4" d="M3.5,3.2c-3.3-0.1,0,2,0,2s-0.6,1,2.9,1.7c3.6,0.7,5.8-0.1,5.8-0.1s-1.4,0.9,3.1,1.1c4.4,0.2,4,0,8.2,0
		s4.5-0.7,5.8-0.8c1.4-0.1,5.8-0.3,7.8-1.3s1.5-1.9-0.9-2.3s-5.1,0.7-15.7-0.3C9.9,2.3,3.5,3.2,3.5,3.2z"/>
	<g>
		<g>
			<path class="st5" d="M14,1.3c-1-1-0.8-1.7-3.1-1.2C10,0.3,7.1,0.6,5.4,0.5C3.8,0.4,2.8,1.6,2.6,2.3S3.3,4.6,5,4.6
				s2.6-0.2,3.9-0.1c1.3,0,4.2,0.1,4.9-0.7C14.5,3.1,14.9,2.2,14,1.3z"/>
			<path class="st6" d="M2.6,2.5c0.2-0.6,1.3-1.9,2.9-1.8s4.6-0.2,5.4-0.3C13.1,0,13,0.6,14,1.6c0.3,0.3,0.5,0.6,0.5,0.9
				c0-0.4-0.1-0.8-0.5-1.2c-1-1-0.8-1.7-3.1-1.2C10,0.3,7.1,0.6,5.4,0.5C3.8,0.4,2.8,1.6,2.6,2.3C2.5,2.4,2.5,2.5,2.6,2.5
				C2.5,2.6,2.5,2.6,2.6,2.5z"/>
			<path class="st7" d="M14,1.3c-0.1-0.1-0.2-0.2-0.2-0.2c0.1,0.7,0.2,1.3-0.1,1.6C13,3.2,13,2.7,12.4,3s-1.8,0.7-2.9,0.2
				C8.3,2.8,8,3.1,7,3.4S6,3.8,5.3,3.1C4.6,2.3,4.4,2.6,3.5,2.7C3,2.8,2.8,2.6,2.6,2.1c0,0.1-0.1,0.1-0.1,0.2C2.3,2.9,3.3,4.6,5,4.6
				s2.6-0.2,3.9-0.1c1.3,0,4.2,0.1,4.9-0.7C14.5,3.1,14.9,2.2,14,1.3z"/>
			<path class="st6" d="M13.8,3.5c-0.7,0.7-3.6,0.7-4.9,0.7C7.6,4.2,6.7,4.3,5,4.3c-1.5,0-2.4-1.2-2.5-2C2.4,3.1,3.4,4.6,5,4.6
				c1.7,0,2.6-0.2,3.9-0.1c1.3,0,4.2,0.1,4.9-0.7c0.4-0.5,0.8-1,0.7-1.5C14.4,2.7,14.2,3.1,13.8,3.5z"/>
			<g class="st8">
				<path class="st5" d="M6.1,0.5C6,0.7,6.1,0.8,6.1,1c0.1,0.3,0,0.5,0.1,0.6c0,0.1,0.3,0.1,0.3,0.4s0.2,0.4,0.3,0.4
					C7,2.3,7.1,2.3,7,1.9c0-0.3,0.2-0.7,0.1-1c0-0.1,0-0.3,0-0.4C6.8,0.5,6.4,0.5,6.1,0.5z"/>
				<path class="st5" d="M9,2c0-0.2-0.5-0.9-0.5-1.3c0-0.1,0-0.2,0-0.2c-0.1,0-0.2,0-0.3,0C7.9,0.6,8.1,0.6,8.1,0.9
					c0,0.5-0.1,0.5,0.1,0.8C8.3,1.9,8,1.8,8.4,2C8.7,2.2,9,2.2,9,2z"/>
				<path class="st5" d="M9.6,0.3c0,0.3,0.1,0.3,0.2,0.7c0.1,0.5-0.3,0.5,0.1,0.7c0.4,0.2,0.5,0.1,0.5,0.1s0.1-0.1,0-0.7
					c-0.1-0.3,0.1-0.6,0.2-1C10.3,0.2,10,0.3,9.6,0.3z"/>
				<path class="st5" d="M13,0.3c-0.3-0.3-0.8-0.4-1.7-0.2c0,0.1,0,0.2,0.1,0.3c0,0.1,0.6,0.4,0.6,0.7c0.1,0.2-0.2,0.3,0.1,0.6
					s0.6,0.5,0.5,0.2c0-0.2-0.7-0.7-0.5-1.1C12.3,0.6,12.7,0.5,13,0.3z"/>
				<path class="st5" d="M5.8,2.6c0,0-0.1-0.5-0.2-0.8c-0.2-0.3-0.2-0.7,0-1.3c-0.1,0-0.1,0-0.2,0c-0.2,0-0.4,0-0.6,0
					C4.8,0.8,5,1,4.9,1.3C4.8,1.8,5.1,2.2,5.2,2.4C5.3,2.7,5.8,2.6,5.8,2.6z"/>
				<path class="st5" d="M4.1,2.3c0.1-0.1,0.2,0,0.1-0.4S3.9,1.5,4,0.8C3.8,0.9,3.7,1,3.5,1.1c0.3,0.3,0.4,0.5,0.3,0.8
					C3.7,2.1,4,2.3,4.1,2.3z"/>
			</g>
			<path class="st7" d="M12.8,0.2c0,0.4,0.6,1.1,0.6,1.5c0,0.6-0.1,0.4-0.6,0.5c-0.4,0.1-0.7,0.3-1,0.4S11,2.5,10.6,2.3
				S10,2.2,9.4,2.5c-0.6,0.3-0.3,0-1-0.4s-1,0.1-1.2,0.1C7,2.3,6.9,2.8,6.4,2.8S6.2,2.7,5.1,2.2C4.1,1.7,4.2,2,2.9,1.6
				C2.7,1.9,2.6,2.1,2.6,2.3C2.3,2.9,3.3,4.6,5,4.6s2.6-0.2,3.9-0.1c1.3,0,4.2,0.1,4.9-0.7c0.7-0.7,1.1-1.5,0.2-2.4
				C13.4,0.8,13.2,0.4,12.8,0.2z"/>
			<path class="st9" d="M3.2,2.8c0,1,0.8,1.7,1.9,1.5C6.2,4,6.2,4.1,7.8,4.1s0.5-0.4,2.4-0.2c1.9,0.3,2.6-0.2,3.2-0.5S14,2.1,14,2.1
				c0,0.1-0.3,0.8-0.8,1.2c-0.6,0.3-0.5,0.5-1.7,0.3c-1.2-0.1-1.1-0.4-2-0.1C8.4,3.7,8.7,3.8,7.6,3.8S6.3,3.5,5.5,3.6
				C4.8,3.7,4.8,4,4.2,3.7C3.6,3.5,3.2,2.8,3.2,2.8z"/>
			<path class="st10" d="M4.6,0.9C3.3,1.5,3.1,1.7,4.5,1.7c1.5,0,1.7-0.3,2.5,0c0.9,0.4,0.8,0.1,2-0.1s1.7-0.3,2.5-0.1
				s1.4,0,1.3-0.5c-0.2-0.5,0.1-1-0.8-0.8c-1,0.2-1.5,0.4-2.3,0.4C8.9,0.5,9.3,0.4,8,0.7C6.7,1.1,6.9,0.8,6.3,0.8S4.8,0.8,4.6,0.9z"
				/>
		</g>
		<g>
			<path class="st5" d="M22.4,2.6c-0.9-1.1-0.7-1.7-3-1.5c-0.9,0.1-3.8,0.1-5.4-0.2c-1.6-0.2-2.7,0.9-3,1.5s0.5,2.4,2.3,2.5
				C15,5.1,15.8,5,17.1,5.2S21.3,5.7,22,5C22.8,4.3,23.3,3.5,22.4,2.6z"/>
			<path class="st6" d="M10.9,2.7c0.3-0.6,1.4-1.7,3-1.5s4.6,0.3,5.4,0.2c2.3-0.2,2.1,0.4,3,1.5c0.3,0.4,0.4,0.7,0.5,1
				c0.1-0.4,0-0.8-0.4-1.2c-0.9-1.1-0.7-1.7-3-1.5C18.5,1.3,15.6,1.3,14,1c-1.6-0.2-2.7,0.9-3,1.5C10.9,2.5,10.9,2.6,10.9,2.7
				L10.9,2.7z"/>
			<path class="st7" d="M22.4,2.6c-0.1-0.1-0.1-0.2-0.2-0.3C22.3,3,22.3,3.6,22,3.8c-0.7,0.5-0.7,0-1.3,0.2c-0.7,0.2-1.9,0.5-2.9,0
				c-1-0.6-1.4-0.3-2.4,0c-1,0.2-1,0.3-1.7-0.5c-0.7-0.8-1-0.6-1.9-0.5c-0.5,0-0.7-0.2-0.8-0.7v0.1c-0.3,0.6,0.5,2.4,2.3,2.5
				C15,5.1,15.8,5,17.1,5.2S21.3,5.7,22,5C22.8,4.3,23.3,3.5,22.4,2.6z"/>
			<path class="st6" d="M22.1,4.7c-0.7,0.7-3.6,0.4-4.9,0.2c-1.3-0.2-2.2-0.1-3.9-0.2C11.8,4.6,11,3.3,11,2.5
				c-0.1,0.7,0.7,2.3,2.3,2.4C15,5.1,15.8,5,17.1,5.2S21.3,5.7,22,5c0.5-0.4,0.8-0.9,0.8-1.5C22.8,4,22.5,4.4,22.1,4.7z"/>
			<g class="st8">
				<path class="st5" d="M14.7,1c-0.1,0.2-0.1,0.3,0,0.5c0.1,0.3,0,0.5,0,0.7c0,0.1,0.3,0.1,0.3,0.4S15.1,3,15.3,3s0.2,0,0.2-0.4
					s0.2-0.7,0.2-1.1c0-0.1,0-0.3,0-0.4C15.3,1,15,1,14.7,1z"/>
				<path class="st5" d="M17.4,2.7c0-0.2-0.4-0.9-0.4-1.4c0-0.1,0-0.2,0-0.2c-0.1,0-0.2,0-0.3,0c-0.2,0.1-0.1,0.1-0.1,0.5
					c0,0.5-0.1,0.5,0,0.8c0.1,0.2-0.1,0.1,0.2,0.3C17.1,2.9,17.4,3,17.4,2.7z"/>
				<path class="st5" d="M18.1,1.1c0,0.3,0.1,0.3,0.1,0.8s-0.3,0.4,0.1,0.7s0.5,0.1,0.5,0.1s0.1-0.1,0-0.7c0-0.3,0.1-0.6,0.3-0.9
					C18.8,1.1,18.5,1.1,18.1,1.1z"/>
				<path class="st5" d="M21.5,1.4C21.2,1.1,20.8,1,19.8,1c0,0.1,0,0.2,0,0.3c0.1,0.2,0.6,0.6,0.7,0.8c0,0.2-0.2,0.3,0.1,0.6
					C20.9,3,21.1,3.2,21.1,3s-0.7-0.8-0.4-1.2C20.8,1.6,21.2,1.6,21.5,1.4z"/>
				<path class="st5" d="M14.1,3.1c0,0-0.1-0.5-0.2-0.8C13.8,2,13.8,1.6,14.1,1C14,1,14,1,13.9,1c-0.2,0-0.4,0-0.6,0
					c-0.1,0.3,0.1,0.5,0,0.8c-0.1,0.4,0.1,0.9,0.2,1.1C13.7,3.1,14.1,3.1,14.1,3.1z"/>
				<path class="st5" d="M12.5,2.6c0.1-0.1,0.2,0,0.2-0.4c-0.1-0.4-0.3-0.4-0.1-1.1c-0.2,0.1-0.4,0.2-0.6,0.3
					c0.2,0.3,0.4,0.6,0.2,0.8C12.1,2.4,12.4,2.6,12.5,2.6z"/>
			</g>
			<path class="st7" d="M21.3,1.3c0,0.4,0.5,1.1,0.5,1.5c-0.1,0.6-0.1,0.4-0.6,0.5s-0.7,0.2-1,0.3s-0.8-0.1-1.1-0.4
				c-0.4-0.3-0.6-0.1-1.2,0.1c-0.6,0.2-0.3,0-1-0.5c-0.6-0.5-1,0.1-1.2,0c-0.2,0-0.4,0.5-0.9,0.4s-0.2-0.1-1.2-0.7s-0.8-0.3-2.1-0.8
				C11.2,2.1,11,2.3,11,2.4c-0.3,0.6,0.5,2.4,2.3,2.5C15,5.1,15.8,5,17.1,5.2S21.3,5.7,22,5s1.2-1.4,0.3-2.4
				C21.9,2,21.7,1.5,21.3,1.3z"/>
			<path class="st9" d="M11.5,3.1c-0.1,1,0.7,1.8,1.8,1.6s1.1-0.1,2.7,0.1s0.5-0.4,2.4,0.1C20.3,5.3,21,5,21.6,4.7
				c0.6-0.3,0.7-1.4,0.6-1.3c-0.1,0.1-0.4,0.8-0.9,1.1c-0.6,0.3-0.6,0.4-1.7,0.2c-1.1-0.3-1.1-0.5-2-0.3c-1,0.1-0.7,0.3-1.8,0.1
				c-1.1-0.1-1.2-0.4-2-0.4s-0.8,0.3-1.4,0C11.9,3.8,11.5,3.1,11.5,3.1z"/>
			<path class="st10" d="M13.1,1.2c-1.3,0.6-1.6,0.7-0.2,0.8c1.4,0.1,1.7-0.2,2.5,0.2s0.7,0.1,1.9,0S19,2,19.8,2.3s1.4,0.2,1.3-0.4
				c-0.1-0.5,0.2-1-0.7-0.8c-0.9,0.1-1.5,0.2-2.3,0.1s-0.3-0.2-1.7,0c-1.3,0.2-1.1,0-1.7-0.1S13.3,1.1,13.1,1.2z"/>
		</g>
		<g>
			<path class="st5" d="M15.4,3c-1-1-0.8-1.7-3.1-1.2C11.4,2,8.5,2.2,6.9,2.1C5.3,2,4.2,3.2,4,3.9C3.7,4.5,4.7,6.2,6.4,6.2
				S9,6,10.3,6.1c1.3,0,4.2,0.1,4.9-0.7C15.9,4.7,16.3,3.9,15.4,3z"/>
			<path class="st6" d="M4,4.2c0.2-0.6,1.3-1.9,2.9-1.8c1.6,0.1,4.6-0.2,5.4-0.3c2.2-0.5,2.1,0.2,3.1,1.2c0.3,0.3,0.5,0.6,0.5,0.9
				c0-0.4-0.1-0.8-0.5-1.2c-1-1-0.8-1.7-3.1-1.2C11.4,2,8.5,2.2,6.9,2.1C5.3,2,4.2,3.2,4,3.9C3.9,4,3.9,4.1,4,4.2
				C3.9,4.2,4,4.2,4,4.2z"/>
			<path class="st7" d="M15.4,3c-0.1-0.1-0.2-0.2-0.2-0.2c0.1,0.7,0.2,1.3-0.1,1.6c-0.7,0.5-0.7,0-1.3,0.3S12,5.4,10.9,4.9
				C9.7,4.4,9.4,4.7,8.4,5c-0.9,0.3-1,0.4-1.7-0.4C6,3.9,5.8,4.2,4.9,4.3C4.4,4.4,4.2,4.2,4,3.7c0,0.1,0,0.1,0,0.2
				C3.7,4.5,4.7,6.2,6.4,6.2S9,6,10.3,6.1c1.3,0,4.2,0.1,4.9-0.7C15.9,4.7,16.3,3.9,15.4,3z"/>
			<path class="st6" d="M15.2,5.2c-0.7,0.7-3.6,0.7-4.9,0.7c-1.3-0.1-2.2,0-3.9,0C4.9,6,4,4.7,3.9,4C3.8,4.7,4.8,6.2,6.4,6.2
				C8.1,6.2,9,6,10.3,6.1c1.3,0,4.2,0.1,4.9-0.7c0.4-0.5,0.8-1,0.7-1.5C15.8,4.3,15.6,4.8,15.2,5.2z"/>
			<g class="st8">
				<path class="st5" d="M7.5,2.1c-0.1,0.2,0,0.3,0,0.5c0.1,0.3,0,0.5,0.1,0.6C7.7,3.3,8,3.3,8,3.6S8.2,4,8.3,4
					c0.1,0,0.2-0.1,0.1-0.4c0-0.4,0.2-0.7,0.1-1.1c0-0.1,0-0.3,0-0.4C8.2,2.1,7.8,2.1,7.5,2.1z"/>
				<path class="st5" d="M10.4,3.6c0-0.2-0.5-0.9-0.5-1.3c0-0.1,0-0.2,0-0.2C9.7,2,9.6,2,9.5,2c-0.2,0.2,0,0.2,0,0.5
					C9.5,3,9.4,3,9.6,3.3c0.2,0.2-0.1,0.1,0.2,0.3S10.4,3.9,10.4,3.6z"/>
				<path class="st5" d="M11,1.9c0,0.3,0.1,0.3,0.2,0.7c0.1,0.5-0.3,0.5,0.1,0.7c0.4,0.2,0.5,0.1,0.5,0.1s0.1-0.1,0-0.7
					c-0.1-0.3,0.1-0.6,0.2-1C11.7,1.9,11.4,1.9,11,1.9z"/>
				<path class="st5" d="M14.4,1.9c-0.3-0.3-0.8-0.4-1.7-0.2c0,0.1,0,0.2,0.1,0.3c0.1,0.2,0.7,0.5,0.7,0.7c0.1,0.2-0.2,0.3,0.1,0.6
					s0.6,0.5,0.5,0.2c0-0.2-0.7-0.7-0.5-1.1C13.7,2.2,14.1,2.1,14.4,1.9z"/>
				<path class="st5" d="M7.2,4.2c0,0-0.1-0.5-0.2-0.8C6.8,3.1,6.8,2.7,7,2.1c-0.1,0-0.1,0-0.2,0c-0.2,0-0.4,0-0.6,0
					c0,0.3,0.2,0.5,0.1,0.9C6.2,3.4,6.5,3.8,6.6,4C6.7,4.3,7.2,4.2,7.2,4.2z"/>
				<path class="st5" d="M5.5,3.9c0.1-0.1,0.2,0,0.1-0.4S5.3,3.1,5.4,2.4C5.2,2.5,5.1,2.6,4.9,2.7C5.2,3,5.3,3.3,5.2,3.5
					C5.1,3.7,5.4,3.9,5.5,3.9z"/>
			</g>
			<path class="st7" d="M14.2,1.8c0,0.4,0.6,1.1,0.6,1.5c0,0.6-0.1,0.4-0.6,0.5c-0.4,0.1-0.7,0.3-1,0.4S12.4,4.1,12,3.9
				c-0.4-0.2-0.6-0.1-1.2,0.2c-0.6,0.3-0.3,0-1-0.4s-1,0.1-1.2,0.1S8.2,4.3,7.7,4.3S7.5,4.2,6.4,3.7c-1-0.5-0.9-0.2-2.2-0.6
				C4.1,3.5,4,3.7,4,3.9C3.7,4.5,4.7,6.2,6.4,6.2S9,6,10.3,6.1c1.3,0,4.2,0.1,4.9-0.7c0.7-0.7,1.1-1.5,0.2-2.4
				C14.8,2.4,14.6,2,14.2,1.8z"/>
			<path class="st9" d="M4.6,4.5c0,1,0.8,1.7,1.9,1.5c1.1-0.3,1.1-0.2,2.7-0.2s0.5-0.4,2.4-0.2c1.9,0.3,2.6-0.2,3.2-0.5
				c0.6-0.3,0.6-1.4,0.5-1.4c0,0.1-0.3,0.8-0.8,1.2C14,5.3,14,5.4,12.8,5.3s-1.1-0.4-2-0.1c-1,0.2-0.7,0.3-1.8,0.2
				c-1.1,0-1.2-0.3-2-0.2C6.2,5.3,6.2,5.6,5.6,5.4C5,5.1,4.6,4.5,4.6,4.5z"/>
			<path class="st10" d="M6,2.5C4.7,3.2,4.5,3.3,5.9,3.3c1.5,0,1.7-0.3,2.5,0c0.8,0.3,0.7,0.1,1.9-0.1C11.5,3,12,2.9,12.8,3.1
				s1.4,0,1.3-0.5c-0.2-0.5,0.1-1-0.8-0.8C12.4,2,11.8,2.2,11,2.1C10.2,2,10.7,2,9.4,2.3C8.1,2.7,8.3,2.4,7.7,2.4S6.2,2.4,6,2.5z"/>
		</g>
		<g>
			<path class="st11" d="M25.4,2.9c1.4,0,6.6-0.6,7.6-0.4c1.1,0.2,0.7,0.7,0.5,0.9s-6.2,1-8.1,1C23.5,4.5,24.3,2.9,25.4,2.9z"/>
			<path class="st12" d="M33.1,2.5c-1.1-0.2-6.3,0.3-7.6,0.4c-0.5,0-0.9,0.3-1.1,0.6c0.2-0.2,0.6-0.4,1-0.5C26.8,3,32,2.4,33,2.6
				c0.8,0.2,0.8,0.5,0.7,0.7C33.8,3.1,34,2.7,33.1,2.5z"/>
			<path class="st13" d="M28,3.8c-2.2,0.2-3.3,0.1-3.7-0.2c-0.2,0.5,0,1,1.1,0.9c1.9-0.1,7.9-0.9,8.1-1c0.1-0.1,0.2-0.2,0.2-0.3
				C32.4,3.3,30.3,3.5,28,3.8z"/>
			<path class="st14" d="M33.7,3.3c-0.2,0.2-6.2,1-8.1,1c-1.1,0-1.3-0.4-1.1-0.9c-0.3,0.5-0.2,1.1,1,1c1.9-0.1,7.9-0.9,8.1-1
				c0.1-0.1,0.2-0.2,0.2-0.3C33.7,3.2,33.7,3.2,33.7,3.3z"/>
		</g>
		<g>
			<path class="st11" d="M24.6,3.9C26,4,31.2,4.2,32.2,4.5c1,0.3,0.7,0.8,0.4,1c-0.2,0.1-6.3,0.2-8.2,0S23.4,3.8,24.6,3.9z"/>
			<path class="st12" d="M32.2,4.5c-1-0.3-6.2-0.5-7.6-0.6c-0.5,0-0.9,0.2-1.1,0.4c0.2-0.2,0.6-0.4,1-0.3c1.4,0.1,6.6,0.3,7.6,0.6
				c0.8,0.3,0.8,0.6,0.6,0.8C32.9,5.2,33.1,4.8,32.2,4.5z"/>
			<path class="st13" d="M27.1,5.1c-2.2-0.1-3.3-0.3-3.6-0.7c-0.3,0.4-0.1,1,1,1.1c1.9,0.2,8,0.2,8.2,0c0.1-0.1,0.2-0.2,0.2-0.3
				C31.4,5.2,29.3,5.2,27.1,5.1z"/>
			<path class="st14" d="M32.7,5.3c-0.2,0.1-6.3,0.2-8.2,0c-1.1-0.1-1.2-0.6-1-1c-0.4,0.4-0.3,1,0.9,1.1c1.9,0.2,8,0.2,8.2,0
				C32.7,5.4,32.8,5.3,32.7,5.3C32.8,5.3,32.7,5.3,32.7,5.3z"/>
		</g>
		<g>
			<path class="st11" d="M28.4,3.6c1.4-0.1,6.5-1,7.6-0.8c1.1,0.1,0.8,0.7,0.6,0.9c-0.2,0.2-6.2,1.3-8.1,1.5
				C26.6,5.4,27.2,3.7,28.4,3.6z"/>
			<path class="st12" d="M36,2.8c-1.1-0.1-6.2,0.7-7.6,0.8c-0.5,0-0.8,0.3-1,0.6c0.2-0.3,0.5-0.5,0.9-0.5c1.4-0.1,6.5-1,7.6-0.8
				c0.8,0.1,0.8,0.4,0.7,0.7C36.8,3.4,36.9,2.9,36,2.8z"/>
			<path class="st13" d="M31.1,4.3c-2.2,0.3-3.3,0.3-3.7,0c-0.2,0.5,0,1,1.1,0.9c1.9-0.2,7.9-1.4,8.1-1.5c0.1-0.1,0.2-0.2,0.2-0.3
				C35.4,3.7,33.3,4,31.1,4.3z"/>
			<path class="st14" d="M36.6,3.5c-0.2,0.2-6.2,1.3-8.1,1.5c-1.1,0.1-1.3-0.4-1.1-0.8c-0.3,0.5-0.1,1.1,1.1,1
				c1.9-0.2,7.9-1.4,8.1-1.5c0.1-0.1,0.1-0.2,0.2-0.3C36.7,3.4,36.7,3.5,36.6,3.5z"/>
		</g>
		<g>
			<path class="st11" d="M29.9,4.8c1.4-0.1,6.5-1,7.6-0.8c1.1,0.1,0.8,0.7,0.6,0.9C37.8,5,31.8,6.2,30,6.4
				C28.1,6.6,28.7,4.9,29.9,4.8z"/>
			<path class="st12" d="M37.5,4c-1.1-0.1-6.2,0.7-7.6,0.8c-0.5,0-0.8,0.3-1,0.6c0.2-0.3,0.5-0.5,0.9-0.5c1.4-0.1,6.5-1,7.6-0.8
				c0.8,0.1,0.8,0.4,0.7,0.7C38.3,4.5,38.4,4.1,37.5,4z"/>
			<path class="st13" d="M32.5,5.5c-2.2,0.3-3.3,0.3-3.7,0c-0.2,0.5,0,1,1.1,0.9C31.8,6.2,37.8,5,38,4.8c0.1-0.1,0.2-0.2,0.2-0.3
				C36.9,4.8,34.8,5.2,32.5,5.5z"/>
			<path class="st14" d="M38.1,4.7C37.9,4.9,31.9,6,30,6.2c-1.1,0.1-1.3-0.4-1.1-0.8c-0.3,0.5-0.1,1.1,1.1,1c1.8-0.2,7.8-1.4,8-1.6
				c0.1-0.1,0.1-0.2,0.2-0.3C38.2,4.6,38.1,4.7,38.1,4.7z"/>
		</g>
		<g>
			<path class="st11" d="M23.2,5.4c1.4-0.1,6.5-1,7.6-0.8c1.1,0.1,0.8,0.7,0.6,0.9c-0.2,0.2-6.2,1.3-8.1,1.5
				C21.4,7.2,22.1,5.5,23.2,5.4z"/>
			<path class="st12" d="M30.8,4.6c-1.1-0.1-6.2,0.7-7.6,0.8c-0.5,0-0.8,0.3-1,0.6c0.2-0.3,0.5-0.5,0.9-0.5c1.4-0.1,6.5-1,7.6-0.8
				c0.8,0.1,0.8,0.4,0.7,0.7C31.7,5.1,31.8,4.7,30.8,4.6z"/>
			<path class="st13" d="M25.9,6.1c-2.2,0.3-3.3,0.3-3.7,0c-0.2,0.5,0,1,1.1,0.9c1.9-0.2,7.9-1.4,8.1-1.5c0.1-0.1,0.2-0.2,0.2-0.3
				C30.2,5.4,28.1,5.8,25.9,6.1z"/>
			<path class="st14" d="M31.5,5.3c-0.2,0.2-6.2,1.3-8.1,1.5c-1.1,0.1-1.3-0.4-1.1-0.8c-0.3,0.5-0.1,1.1,1.1,1
				c1.9-0.2,7.9-1.4,8.1-1.5c0.1-0.1,0.1-0.2,0.2-0.3C31.5,5.2,31.5,5.3,31.5,5.3z"/>
		</g>
		<g>
			<path class="st11" d="M23.8,1.5c1.4,0.1,6.6,0,7.6,0.3c1,0.3,0.7,0.8,0.5,0.9c-0.2,0.2-6.3,0.4-8.2,0.4
				C21.8,2.9,22.6,1.4,23.8,1.5z"/>
			<path class="st12" d="M31.4,1.7c-1-0.3-6.3-0.2-7.6-0.3c-0.5,0-0.9,0.2-1.1,0.5c0.2-0.2,0.6-0.4,1-0.4c1.4,0.1,6.6,0,7.6,0.3
				c0.8,0.2,0.8,0.5,0.6,0.8C32.2,2.4,32.4,2,31.4,1.7z"/>
			<path class="st13" d="M26.4,2.6c-2.2,0-3.3-0.2-3.7-0.6c-0.3,0.4-0.1,1,1,1c1.9,0.1,8-0.2,8.2-0.4c0.1-0.1,0.2-0.2,0.2-0.3
				C30.7,2.5,28.6,2.5,26.4,2.6z"/>
			<path class="st14" d="M32,2.5c-0.2,0.2-6.3,0.4-8.2,0.4c-1.1,0-1.3-0.5-1-1c-0.4,0.4-0.2,1,0.9,1.1c1.9,0.1,8-0.2,8.2-0.4
				c0.1-0.1,0.2-0.1,0.2-0.2C32.1,2.5,32,2.5,32,2.5z"/>
		</g>
		<g>
			<path class="st11" d="M23.4,4.1c1.3-0.4,6.2-2.4,7.3-2.5c1.1-0.1,0.9,0.5,0.7,0.7c-0.2,0.2-5.8,2.7-7.6,3.3S22.3,4.4,23.4,4.1z"
				/>
			<path class="st12" d="M30.7,1.6c-1.1,0.1-6,2.1-7.3,2.5C23,4.2,22.6,4.6,22.5,5c0.1-0.3,0.4-0.6,0.8-0.7c1.3-0.4,6.2-2.4,7.3-2.5
				c0.8-0.1,0.9,0.2,0.8,0.5C31.6,1.9,31.7,1.5,30.7,1.6z"/>
			<path class="st13" d="M26.2,4.2C24.1,5,23,5.2,22.5,5c-0.1,0.5,0.2,1,1.3,0.6c1.8-0.6,7.5-3.1,7.6-3.3c0.1-0.1,0.1-0.2,0.1-0.4
				C30.3,2.5,28.3,3.3,26.2,4.2z"/>
			<path class="st14" d="M31.5,2.1c-0.2,0.2-5.8,2.7-7.6,3.3c-1,0.3-1.4-0.1-1.3-0.5c-0.2,0.5,0.1,1.1,1.2,0.7
				c1.8-0.6,7.5-3.1,7.6-3.3c0.1-0.1,0.1-0.2,0.1-0.3C31.5,2,31.5,2.1,31.5,2.1z"/>
		</g>
		<g>
			<path class="st11" d="M28,3c1.4-0.1,6.5-0.9,7.6-0.8c1.1,0.2,0.8,0.7,0.6,0.9C36,3.3,30,4.4,28.1,4.6C26.1,4.8,26.8,3.1,28,3z"/>
			<path class="st12" d="M35.6,2.3C34.5,2.1,29.3,2.9,28,3c-0.5,0-0.8,0.3-1,0.6c0.2-0.3,0.5-0.5,0.9-0.5C29.3,3,34.4,2.2,35.6,2.3
				c0.7,0.1,0.7,0.4,0.6,0.7C36.4,2.9,36.5,2.4,35.6,2.3z"/>
			<path class="st13" d="M30.6,3.8c-2.2,0.3-3.3,0.3-3.7,0c-0.2,0.5,0,1,1.1,0.9c1.9-0.2,7.9-1.3,8.1-1.5c0.1-0.1,0.2-0.2,0.2-0.3
				C35,3.1,32.9,3.5,30.6,3.8z"/>
			<path class="st14" d="M36.2,3C36,3.2,30,4.3,28.1,4.5C27,4.6,26.8,4.1,27,3.7c-0.3,0.5-0.1,1.1,1.1,1C30,4.5,36,3.4,36.2,3.2
				c0.1-0.1,0.1-0.2,0.2-0.3C36.3,2.9,36.2,3,36.2,3z"/>
		</g>
		<g>
			<path class="st11" d="M30,4.3c1.3-0.2,6.5-1.2,7.6-1.1c1.1,0.1,0.8,0.6,0.6,0.8c-0.2,0.2-6.1,1.6-8,1.9C28.3,6.2,28.9,4.5,30,4.3
				z"/>
			<path class="st12" d="M37.6,3.2c-1.1-0.1-6.2,1-7.6,1.1c-0.5,0.1-0.8,0.4-1,0.7c0.2-0.3,0.5-0.5,0.9-0.6c1.3-0.2,6.5-1.2,7.6-1.1
				c0.8,0.1,0.8,0.4,0.7,0.6C38.4,3.7,38.5,3.3,37.6,3.2z"/>
			<path class="st13" d="M32.7,4.9C30.5,5.3,29.4,5.3,29,5c-0.2,0.5,0,1,1.1,0.8c1.9-0.3,7.8-1.7,8-1.9c0.1-0.1,0.2-0.2,0.2-0.3
				C37,4.1,35,4.5,32.7,4.9z"/>
			<path class="st14" d="M38.3,3.9c-0.2,0.2-6.1,1.6-8,1.9c-1,0.1-1.3-0.3-1.2-0.8c-0.3,0.5-0.1,1.1,1.1,0.9c1.9-0.3,7.8-1.7,8-1.9
				c0.1-0.1,0.1-0.2,0.2-0.3C38.3,3.8,38.3,3.9,38.3,3.9z"/>
		</g>
		<g>
			<path class="st11" d="M29.6,1.7c1.3,0.2,6.6,0.7,7.6,1.1s0.6,0.9,0.4,1c-0.2,0.1-6.3-0.3-8.2-0.6S28.5,1.5,29.6,1.7z"/>
			<path class="st12" d="M37.2,2.8c-1-0.4-6.2-0.9-7.6-1.1c-0.5-0.1-0.9,0.1-1.1,0.4c0.2-0.2,0.6-0.3,1-0.3c1.3,0.2,6.6,0.7,7.6,1.1
				c0.7,0.3,0.7,0.6,0.6,0.8C37.9,3.6,38.1,3.2,37.2,2.8z"/>
			<path class="st13" d="M32.1,3c-2.2-0.2-3.3-0.6-3.6-1c-0.3,0.4-0.2,1,0.9,1.1c1.9,0.3,7.9,0.7,8.2,0.6c0.1,0,0.2-0.1,0.3-0.3
				C36.4,3.5,34.3,3.3,32.1,3z"/>
			<path class="st14" d="M37.7,3.6c-0.2,0.1-6.3-0.3-8.2-0.6c-1-0.2-1.2-0.7-0.9-1.1c-0.4,0.4-0.3,1,0.8,1.2
				c1.9,0.3,7.9,0.7,8.2,0.6c0.1,0,0.2-0.1,0.2-0.2C37.7,3.6,37.7,3.6,37.7,3.6z"/>
		</g>
		<g>
			<path class="st11" d="M23.5,3c1.3-0.2,6.5-1.2,7.6-1.1s0.8,0.6,0.6,0.8c-0.2,0.2-6.1,1.6-8,1.9C21.8,4.9,22.4,3.2,23.5,3z"/>
			<path class="st12" d="M31.1,1.9c-1.1-0.1-6.2,1-7.6,1.1c-0.5,0.1-0.8,0.4-1,0.7c0.2-0.3,0.5-0.5,0.9-0.6C24.8,3,30,1.9,31,2
				c0.8,0.1,0.8,0.4,0.7,0.6C31.9,2.4,32.1,2,31.1,1.9z"/>
			<path class="st13" d="M26.2,3.7c-2.2,0.4-3.3,0.4-3.7,0.1c-0.2,0.5,0,1,1.1,0.8c1.9-0.3,7.8-1.7,8-1.9c0.1-0.1,0.2-0.2,0.2-0.3
				C30.5,2.8,28.5,3.2,26.2,3.7z"/>
			<path class="st14" d="M31.8,2.6c-0.2,0.2-6.1,1.6-8,1.9c-1.1,0.1-1.3-0.3-1.2-0.8c-0.3,0.5-0.1,1.1,1.1,0.9
				c1.9-0.3,7.8-1.7,8-1.9c0.1-0.1,0.1-0.2,0.2-0.3C31.8,2.5,31.8,2.6,31.8,2.6z"/>
		</g>
		<g>
			<path class="st11" d="M23,2.1c1.4-0.2,6.5-1.1,7.6-1s0.8,0.7,0.6,0.8C31,2.1,25,3.4,23.1,3.6C21.2,3.8,21.9,2.2,23,2.1z"/>
			<path class="st12" d="M30.6,1.1c-1.1-0.1-6.2,0.8-7.6,1c-0.5,0.1-0.8,0.3-1,0.7c0.2-0.3,0.5-0.5,0.9-0.5c1.4-0.2,6.5-1.1,7.6-1
				c0.8,0.1,0.8,0.4,0.7,0.6C31.4,1.6,31.6,1.2,30.6,1.1z"/>
			<path class="st13" d="M25.7,2.7c-2.2,0.4-3.3,0.4-3.7,0c-0.2,0.5,0,1,1.1,0.8C25,3.4,31,2.1,31.2,1.9c0.1-0.1,0.2-0.2,0.2-0.3
				C30,2,27.9,2.3,25.7,2.7z"/>
			<path class="st14" d="M31.3,1.8C31,2,25.1,3.2,23.2,3.5c-1.1,0.1-1.3-0.3-1.2-0.8c-0.3,0.5-0.1,1.1,1.1,0.9
				C25,3.4,31,2.1,31.2,1.9c0.1-0.1,0.1-0.2,0.2-0.3C31.3,1.7,31.3,1.8,31.3,1.8z"/>
		</g>
		<g>
			<path class="st5" d="M23.7,4.6c-1-1-0.8-1.7-3-1.4c-0.9,0.1-3.8,0.2-5.4,0s-2.7,1-3,1.6c-0.2,0.6,0.6,2.4,2.3,2.4
				c1.7,0.1,2.6,0,3.9,0.1c1.3,0.1,4.2,0.3,4.9-0.4C24.1,6.3,24.6,5.5,23.7,4.6z"/>
			<path class="st6" d="M12.2,5.1c0.2-0.6,1.4-1.8,3-1.6s4.6,0.1,5.4,0c2.3-0.3,2.1,0.4,3,1.4c0.3,0.3,0.5,0.7,0.5,1
				c0.1-0.4,0-0.8-0.5-1.2c-1-1-0.8-1.7-3-1.4c-0.9,0.1-3.8,0.2-5.4,0s-2.7,1-3,1.6C12.2,4.9,12.2,5,12.2,5.1L12.2,5.1z"/>
			<path class="st7" d="M23.7,4.6c-0.1-0.1-0.2-0.2-0.2-0.3c0.1,0.7,0.1,1.4-0.2,1.6c-0.7,0.5-0.7,0-1.3,0.2
				c-0.7,0.3-1.8,0.6-2.9,0.1S17.7,6,16.7,6.3c-0.9,0.3-1,0.3-1.7-0.5c-0.7-0.8-1-0.5-1.8-0.5c-0.5,0-0.7-0.1-0.8-0.7
				c0,0.1-0.1,0.1-0.1,0.2c-0.2,0.6,0.6,2.4,2.3,2.4c1.7,0.1,2.6,0,3.9,0.1c1.3,0.1,4.2,0.3,4.9-0.4C24.1,6.3,24.6,5.5,23.7,4.6z"/>
			<path class="st6" d="M23.4,6.7c-0.7,0.7-3.6,0.5-4.9,0.4s-2.2,0-3.9-0.1c-1.5-0.1-2.3-1.3-2.4-2.1c-0.1,0.7,0.7,2.2,2.4,2.3
				c1.7,0.1,2.6,0,3.9,0.1s4.2,0.3,4.9-0.4c0.4-0.4,0.8-0.9,0.8-1.5C24.1,5.9,23.8,6.4,23.4,6.7z"/>
			<g class="st8">
				<path class="st5" d="M15.9,3.2c-0.1,0.2-0.1,0.3,0,0.5C16,4,16,4.2,16,4.4c0,0.1,0.3,0.1,0.3,0.4s0.1,0.4,0.3,0.4
					c0.1,0,0.2-0.1,0.2-0.4c0-0.4,0.2-0.7,0.1-1.1c0-0.1,0-0.3,0-0.4C16.5,3.3,16.2,3.3,15.9,3.2z"/>
				<path class="st5" d="M18.7,4.9c0-0.2-0.4-0.9-0.4-1.4c0-0.1,0-0.2,0-0.2c-0.1,0-0.2,0-0.3,0c-0.2,0.1-0.1,0.1-0.1,0.5
					c0,0.5-0.1,0.5,0.1,0.8c0.2,0.2-0.1,0.1,0.2,0.3C18.4,5.1,18.7,5.2,18.7,4.9z"/>
				<path class="st5" d="M19.4,3.3c0,0.3,0.1,0.3,0.2,0.8s-0.3,0.4,0.1,0.7C20,5,20.1,4.9,20.1,4.9s0.1-0.1,0-0.7
					c0-0.3,0.1-0.6,0.2-0.9C20.1,3.2,19.8,3.3,19.4,3.3z"/>
				<path class="st5" d="M22.8,3.5c-0.3-0.3-0.7-0.4-1.7-0.3c0,0.1,0,0.2,0,0.3c0.1,0.2,0.6,0.5,0.7,0.8c0,0.2-0.2,0.3,0.1,0.6
					C22.2,5,22.5,5.3,22.4,5c0-0.2-0.7-0.8-0.4-1.2C22.1,3.7,22.5,3.6,22.8,3.5z"/>
				<path class="st5" d="M15.5,5.3c0,0-0.1-0.5-0.2-0.8c-0.1-0.3-0.1-0.7,0.2-1.3c-0.1,0-0.1,0-0.2,0c-0.2,0-0.4,0-0.6,0
					c-0.1,0.3,0.1,0.5,0,0.8c-0.1,0.4,0.1,0.9,0.2,1.1C15,5.4,15.5,5.3,15.5,5.3z"/>
				<path class="st5" d="M13.8,4.9c0.1-0.1,0.2,0,0.1-0.4c-0.1-0.4-0.3-0.4-0.1-1.1c-0.2,0.1-0.4,0.2-0.6,0.3
					c0.3,0.3,0.4,0.6,0.3,0.8C13.4,4.7,13.7,4.9,13.8,4.9z"/>
			</g>
			<path class="st7" d="M22.6,3.3c0,0.4,0.6,1.1,0.5,1.5C23,5.5,23,5.2,22.5,5.3c-0.5,0.1-0.7,0.2-1,0.4c-0.3,0.1-0.8-0.1-1.1-0.4
				c-0.4-0.2-0.6-0.1-1.2,0.1c-0.6,0.3-0.3,0-1-0.4s-1,0.1-1.2,0.1s-0.4,0.5-0.9,0.5S15.9,5.5,14.9,5s-0.8-0.2-2.2-0.7
				c-0.2,0.2-0.3,0.4-0.4,0.6c-0.2,0.6,0.6,2.4,2.3,2.4c1.7,0.1,2.6,0,3.9,0.1c1.3,0.1,4.2,0.3,4.9-0.4c0.7-0.7,1.2-1.5,0.3-2.4
				C23.2,4,23,3.6,22.6,3.3z"/>
			<path class="st9" d="M12.8,5.4c0,1,0.7,1.8,1.8,1.6s1.1-0.1,2.7,0s0.5-0.4,2.4,0s2.6,0,3.2-0.3s0.6-1.4,0.6-1.3
				c-0.1,0.1-0.3,0.8-0.9,1.1S22.2,6.9,21,6.7c-1.1-0.2-1.1-0.4-2-0.3c-1,0.2-0.7,0.3-1.8,0.2c-1.1-0.1-1.3-0.4-2.1-0.3
				s-0.8,0.3-1.4,0.1C13.2,6.1,12.8,5.4,12.8,5.4z"/>
			<path class="st10" d="M14.4,3.5c-1.3,0.6-1.6,0.8-0.2,0.9s1.7-0.2,2.5,0.2c0.8,0.4,0.7,0.1,1.9,0c1.2-0.1,1.7-0.2,2.5,0.1
				c0.8,0.3,1.4,0.1,1.3-0.4s0.2-1-0.8-0.8c-0.9,0.1-1.5,0.3-2.3,0.2S19,3.5,17.6,3.8c-1.3,0.3-1.1,0-1.7,0
				C15.5,3.5,14.6,3.4,14.4,3.5z"/>
		</g>
	</g>
</g>
</svg>
