<?xml version="1.0" encoding="utf-8"?>
<!-- Generator: Adobe Illustrator 27.1.1, SVG Export Plug-In . SVG Version: 6.00 Build 0)  -->
<svg version="1.1" id="Layer_3" xmlns="http://www.w3.org/2000/svg" xmlns:xlink="http://www.w3.org/1999/xlink" x="0px" y="0px"
	 viewBox="0 0 31.5 14.5" style="enable-background:new 0 0 31.5 14.5;" xml:space="preserve">
<style type="text/css">
	.st0{fill:#E3824B;}
	.st1{opacity:0.1;fill:#AD3919;enable-background:new    ;}
	.st2{fill:#F2A468;}
	.st3{fill:#FFDDA6;}
	.st4{opacity:0.5;fill:#FFA719;enable-background:new    ;}
	.st5{opacity:0.1;fill:#99542C;enable-background:new    ;}
	.st6{fill:#F28B50;}
	.st7{opacity:0.2;fill:#FFF263;enable-background:new    ;}
	.st8{opacity:0.2;}
	.st9{fill:#AD3919;}
	.st10{opacity:0.2;fill:#7D5F50;enable-background:new    ;}
	.st11{fill:#B37C60;}
	.st12{fill:#4A1900;}
	.st13{fill:#1F1714;}
	.st14{opacity:0.3;fill:#FFDDA6;enable-background:new    ;}
	.st15{opacity:0.2;fill:#FF9254;enable-background:new    ;}
	.st16{opacity:0.1;fill:#F8FFBF;enable-background:new    ;}
	.st17{opacity:0.2;fill:#FF9E00;enable-background:new    ;}
</style>
<g>
	<path class="st0" d="M30.3,2.2c-1.1-1.4-3.3-1.6-6.9-1.7c-0.7,0-1.2,0-1.7,0.1l0,0c-5,0-16.2,0.1-17.8,0.5c-1.6,0.3-1.1,5-1,6.1
		c0.1,1,2.3,7.1,2.3,7.1c5.1,0.5,16.6,0,21.6-0.5c0.9,0,1.7-0.1,2.3-0.3c0,0,0,0,0.1,0l0,0c0.5-0.1,0.8-0.3,1-0.5
		C30.9,11.6,31.9,4.1,30.3,2.2z"/>
	<path class="st1" d="M26.8,13.8c0.9,0,1.7-0.1,2.3-0.3c0,0,0,0,0.1,0l0,0c0.5-0.1,0.8-0.3,1-0.5c0.2-0.4,0.5-1.4,0.7-2.7
		c-1,0.3-2.3,0.3-4.1-0.1c-3.4-0.8-5.6-0.7-8,0.7s-4.5,1.7-6.5,0.3L8,14.5C13.7,14.6,22.6,14.2,26.8,13.8z"/>
	<path class="st1" d="M31.1,4.8c0-0.5-0.1-1-0.2-1.5c-0.8-1.1-2.6-2.5-5.1-2.6C21.9,0.6,21,1.2,21,1.2s-0.5-0.3-3.9-0.4
		S11,1.3,11,1.3s0.4-0.1-3.9-0.4c-0.5,0-0.9,0-1.3,0C4.8,1,4.1,1,3.8,1.1C3.4,1.2,3.2,1.6,3,2.2c3.9-0.8,8.2-0.4,8.9,1.3
		c0.8,1.9,1.7,2.1,3.1,1.7s3.8-0.9,5.1-0.7c1.3,0.2,2.4,0.8,3.8,0.4c1.3-0.3,1.7-0.7,3.1-0.5C28.2,4.7,30.3,5.1,31.1,4.8z"/>
	<path class="st2" d="M0,4.7c0,2.4,1,7.1,1.6,8.4c0.6,1.4,9.2,1.8,10,0.4c0.8-1.3,1.8-8.9,0.2-10.8C10.6,1.4,8.4,1.2,4.9,1
		C1.4,0.9,0,2.7,0,4.7z"/>
	<path class="st3" d="M0.4,5c0,2.2,0.9,6.6,1.5,7.8c0.6,1.3,8.7,1.6,9.4,0.4C12,12,12.9,5,11.4,3.2c-1-1.3-3.1-1.4-6.4-1.6
		C1.7,1.5,0.3,3.2,0.4,5z"/>
	<path class="st4" d="M0.5,5.3c0-1.9,1.3-3.5,4.6-3.4s5.4,0.3,6.5,1.6c0.1,0.1,0.2,0.2,0.2,0.4c-0.1-0.3-0.2-0.5-0.4-0.7
		c-1-1.3-3.1-1.4-6.4-1.6C1.7,1.5,0.3,3.2,0.4,5c0,2.2,0.9,6.6,1.5,7.8l0,0C1.3,11.3,0.5,7.4,0.5,5.3z"/>
	<path class="st5" d="M31.1,2.8C31.1,2.8,31.1,2.9,31.1,2.8c-0.4,0.7-3,0.2-4.4,0s-1.8,0.1-3.1,0.5c-1.3,0.3-2.5-0.2-3.8-0.4
		s-3.7,0.3-5.1,0.7s-2.3,0.2-3.1-1.7C11.3,1,10.3,0.6,9,0.3c-0.5,0-1-0.1-1.7-0.1c-6-0.4-6,1.8-6,1.8C3.5,0.5,11.2,0.8,12,2.8
		c0.8,1.9,1.7,2.1,3.1,1.7c1.4-0.4,3.8-0.9,5.1-0.7C21.5,4,22.7,4.6,24,4.2c1.3-0.3,1.7-0.7,3.1-0.5s4,0.7,4.4,0.1
		C31.6,3.7,31.5,3.3,31.1,2.8z"/>
	<path class="st6" d="M1.3,1.9C3.5,0.5,11.2,0.8,12,2.8c0.8,1.9,1.7,2.1,3.1,1.7c1.4-0.4,3.8-0.9,5.1-0.7C21.5,4,22.7,4.6,24,4.2
		c1.3-0.3,1.7-0.7,3.1-0.5s4,0.7,4.4,0.1s-1.8-3.7-5.6-3.9c-3.8-0.1-4.7,0.4-4.7,0.4S20.7,0,17.3-0.1s-6.1,0.5-6.1,0.5
		S11.6,0.3,7.3,0C1.3-0.2,1.3,1.9,1.3,1.9z"/>
	<path class="st7" d="M25.9,0c-3.8-0.1-4.7,0.4-4.7,0.4S20.7,0.1,17.3,0s-6.1,0.5-6.1,0.5s0.4-0.1-3.9-0.4c-4.9-0.3-5.8,1.1-6,1.6
		c0.6-0.6,2.1-1.2,5.6-1c4.3,0.3,3.9,0.4,3.9,0.4s2.7-0.6,6.1-0.5S20.8,1,20.8,1s0.9-0.6,4.7-0.4c3.3,0.1,5.3,2.5,5.6,3.5
		c0.2,0,0.3-0.1,0.4-0.2C31.9,3.3,29.7,0.2,25.9,0z"/>
	<g class="st8">
		<path class="st9" d="M11.2,0.6L11.2,0.6L11.2,0.6z"/>
		<path class="st9" d="M12.9,0.3c-1.1,0.1-1.7,0.3-1.7,0.3c3.9,0.7,5.5,1.9,6.4,2.3C18.4,3.2,18.1,1.7,12.9,0.3z"/>
		<path class="st9" d="M22.5,0.1c-1,0.1-1.3,0.3-1.3,0.3c1.9,1,2.5,2,3.1,2.3C24.7,2.9,24.6,1.8,22.5,0.1z"/>
	</g>
	<path class="st10" d="M1.2,4.9c0.3-1.7,2.3-3.1,6.1-2C11,4,10.1,9,6,9.6S1.7,5.4,4.6,5.3c3-0.3,1.3,2.1-0.3,1.8s0.5,3.5,3.5,0.4
		s-1-4.9-4.4-3.6C0.1,5.2,2.1,9.5,2.1,9.5S0.7,7.4,1.2,4.9z"/>
	<path class="st11" d="M1.1,4.7c0.3-1.7,2.3-3.1,6.1-2c3.7,1.1,2.9,6.1-1.3,6.7C1.8,9.9,1.7,5.2,4.6,5s1.3,2.2-0.3,1.8
		s0.5,3.5,3.5,0.4s-1-4.9-4.4-3.6C0.1,5,2,9.3,2,9.3S0.6,7.2,1.1,4.7z"/>
	<g class="st8">
		<path class="st12" d="M4.7,5.2c0.8,0,1.3,0.1,1.5,0.4C6.1,5.2,5.7,5,4.6,5C2.8,5.1,2.2,7,2.9,8.2C2.4,7,3,5.3,4.7,5.2z"/>
		<path class="st12" d="M7.9,7.5C9,6.4,9.2,5.4,8.8,4.7c0.3,0.7,0.1,1.6-1,2.6C5.9,9.2,4.4,8.4,3.9,7.6C4.2,8.5,5.8,9.6,7.9,7.5z"/>
		<path class="st12" d="M1.2,4.9c0.3-1.7,2.3-3.1,6.1-2c1,0.3,1.6,0.9,2,1.5C9,3.7,8.3,3,7.2,2.7C3.5,1.6,1.5,3,1.1,4.7
			C0.8,6.6,1.5,8.3,1.8,9C1.4,8.2,0.9,6.7,1.2,4.9z"/>
	</g>
	<path class="st11" d="M11.6,8.2c0,0.5-0.4,4.6-0.9,4.9c-0.4,0.3-3.2,0.7-5,0.3s0.6-0.3,2.9-0.9c2.4-0.6,2.4-1.4,1.6-3.6
		C9.4,6.7,11.6,5.4,11.6,8.2z"/>
	<path class="st11" d="M4.9,10.5C2.2,9.9,1.3,13,3.7,12.8c2.4-0.1,4.4-0.8,4.7-0.7c0.3,0.1-0.3-0.9-2.2-0.5s-2.5,0.6-2.6,0
		C3.3,11,4.9,10.5,4.9,10.5z"/>
	<g class="st8">
		<path class="st13" d="M3.7,11.9c0.2,0.6,0.7,0.3,2.6,0c1.1-0.2,1.8,0,2.1,0.2c0.1-0.1-0.5-0.8-2.3-0.5C4.7,11.9,4,12.1,3.7,11.9z"
			/>
		<path class="st13" d="M4.5,10.7C4.8,10.6,5,10.5,5,10.5c-2.1-0.4-3.2,1.3-2.4,2C2.2,11.8,3,10.7,4.5,10.7z"/>
	</g>
	<path class="st11" d="M8.1,9.8c-0.6,0.7-2.3,0.8-2.3,0.8s1.8,0.7,2.7,0C9.3,9.9,8.8,8.9,8.1,9.8z"/>
	<path class="st10" d="M9.2,2.9c1.1,1.4,1.3,2.2,1.3,2.2s1-0.2,0.5-1.1S8.5,2.1,9.2,2.9z"/>
	<path class="st11" d="M9.2,2.8C10.3,4.1,10.5,5,10.5,5s1-0.2,0.5-1.1C10.5,2.9,8.5,1.9,9.2,2.8z"/>
	<path class="st14" d="M11.1,2.9c-0.9,4.8-4.8,8.7-9.7,8.7c0.2,0.6,0.3,1,0.4,1.3c0.6,1.3,8.7,1.6,9.4,0.4C12,12,12.9,5,11.4,3.2
		C11.3,3.1,11.2,3,11.1,2.9z"/>
	<path class="st15" d="M13.4,7.2C13,10.4,15.2,11.3,18,10s7.7-0.6,10-0.2c2.4,0.4,2.5-4.7,2.5-4.7s-1,1.9-3,1.6s-4.1-2-6.6-0.8
		S18.7,8.2,17,7.4C15.2,6.6,13.5,5.8,13.4,7.2z"/>
	<path class="st16" d="M12.2,1.5c0.6,1.4,2.2,1.9,3.9,1.3c1.7-0.7,3.8,0.1,5.7,0.3s2-0.1,4-0.4s3.7,0.4,4,0.4s-1.7-1.9-4.5-1.8
		s-2,1.4-5,1c-3.1-0.4-4.8-0.6-5.5-0.2C14.2,2.6,12.2,1.5,12.2,1.5z"/>
	<path class="st17" d="M11.5,3.3c1.3,2.1,0.4,8.6-0.3,9.8C10.4,14.3,3,14,1.9,12.8l0,0c0.6,1.3,8.7,1.6,9.4,0.4
		C12,12,12.9,5.1,11.5,3.3z"/>
</g>
</svg>
