<?xml version="1.0" encoding="utf-8"?>
<!-- Generator: Adobe Illustrator 27.1.1, SVG Export Plug-In . SVG Version: 6.00 Build 0)  -->
<svg version="1.1" id="Layer_3" xmlns="http://www.w3.org/2000/svg" xmlns:xlink="http://www.w3.org/1999/xlink" x="0px" y="0px"
	 viewBox="0 0 36.7 12" style="enable-background:new 0 0 36.7 12;" xml:space="preserve">
<style type="text/css">
	.st0{fill:#FFBA66;}
	.st1{opacity:0.3;fill:#FFF0DE;enable-background:new    ;}
	.st2{opacity:0.1;fill:#FFBA66;enable-background:new    ;}
	.st3{opacity:0.1;fill:#B80B0B;enable-background:new    ;}
	.st4{fill:#FFD27D;}
	.st5{fill:#F28857;}
	.st6{opacity:0.2;fill:#F29266;enable-background:new    ;}
	.st7{opacity:0.1;fill:#A33200;enable-background:new    ;}
	.st8{opacity:0.1;fill:#F0FFD9;enable-background:new    ;}
	.st9{opacity:0.2;fill:#FFD5C2;enable-background:new    ;}
	.st10{opacity:0.1;fill:#BF0000;enable-background:new    ;}
	.st11{opacity:0.2;fill:#FFF0C4;enable-background:new    ;}
	.st12{opacity:0.4;fill:#FFF0C4;enable-background:new    ;}
	.st13{opacity:0.2;fill:#F2C9BA;enable-background:new    ;}
	.st14{opacity:0.3;fill:#FFF0C4;enable-background:new    ;}
	.st15{clip-path:url(#SVGID_00000050628489457777448180000010867027664457257102_);}
	.st16{fill:#FFB433;}
	.st17{opacity:0.2;fill:#FFB433;enable-background:new    ;}
	.st18{clip-path:url(#SVGID_00000035497298331572244720000000381839188250291102_);}
	.st19{clip-path:url(#SVGID_00000108303271644272850280000006420809720584648087_);}
	.st20{clip-path:url(#SVGID_00000018945375318463986860000013467510782319183784_);}
	.st21{clip-path:url(#SVGID_00000070807879107191056720000018035577147721324727_);}
	.st22{clip-path:url(#SVGID_00000152955858388125265700000003366189518278291632_);}
	.st23{clip-path:url(#SVGID_00000053522277795616236070000009856963738756969875_);}
	.st24{clip-path:url(#SVGID_00000124135404188978667600000000639280356689256854_);}
	.st25{clip-path:url(#SVGID_00000030453970643875560790000007960211790509054618_);}
	.st26{clip-path:url(#SVGID_00000054964641372957067310000010986074663799991471_);}
	.st27{clip-path:url(#SVGID_00000124881446401414066920000000147586942225162909_);}
	.st28{clip-path:url(#SVGID_00000155118966985955196770000012999469734965200052_);}
	.st29{clip-path:url(#SVGID_00000046333838223920265680000011661543173604858254_);}
	.st30{clip-path:url(#SVGID_00000002366401552089736270000012429619474702330257_);}
	.st31{clip-path:url(#SVGID_00000033345299311386347290000011019927747635829641_);}
	.st32{clip-path:url(#SVGID_00000122714642246756726300000017506046292768820391_);}
	.st33{clip-path:url(#SVGID_00000087406369331312673100000005402362806876403883_);}
</style>
<g>
	<g>
		<path class="st0" d="M35.3,6.4c0,2.5-7.6,5.6-16.9,5.6c-9.4,0-17-3.1-17-5.6s7.6-3.5,17-3.5C27.7,2.9,35.3,3.9,35.3,6.4z"/>
		<path class="st1" d="M34.9,5.4c0.2,0.2,0.3,0.5,0.3,0.8c0,2.5-7.6,5.6-16.9,5.6c-7.6,0-14-2-16.2-4.1C4,9.8,10.6,12,18.4,12
			c9.4,0,16.9-3,16.9-5.6C35.3,6,35.1,5.7,34.9,5.4z"/>
		<path class="st2" d="M19.4,10.8c-9.4,0-16.9-3-16.9-5.6c0-0.1,0-0.2,0-0.2c-0.7,0.4-1,0.9-1,1.4C1.4,8.9,9,12,18.4,12
			c8.6,0,15.8-2.6,16.8-5C32.7,9,26.6,10.8,19.4,10.8z"/>
		<path class="st3" d="M2.2,5.2C1.7,5.5,1.4,5.9,1.4,6.4c0,0.6,0.4,1.2,1.1,1.8c3.2,1.1,9.1,2,15.8,2s12.6-0.9,15.8-2
			c0.7-0.6,1.1-1.2,1.1-1.8c0-0.5-0.3-0.9-0.7-1.2c-3.1-0.8-9.2-1.1-16.2-1.1S5.2,4.4,2.2,5.2z"/>
		<path class="st0" d="M36.7,5.5c0,1.7-8.2,3.7-18.4,3.7S0,7.2,0,5.5s8.2-2.4,18.4-2.4S36.7,3.9,36.7,5.5z"/>
		<path class="st3" d="M18.5,9.1c-10.1,0-18.4-2-18.4-3.7c0-0.2,0.1-0.3,0.3-0.5C0.1,5.1,0,5.3,0,5.5c0,1.7,8.2,3.7,18.4,3.7
			c9,0,16.5-1.6,18-3.2C34.6,7.6,27.3,9.1,18.5,9.1z"/>
		<path class="st4" d="M36.7,5.3c0,1.7-8.2,3.1-18.4,3.1S0,7,0,5.3s8.2-3.1,18.4-3.1S36.7,3.6,36.7,5.3z"/>
		<path class="st3" d="M35.9,5.2c0,1.5-7.8,2.7-17.5,2.7S0.9,6.6,0.9,5.2c0-1.5,7.8-2.7,17.5-2.7S35.9,3.7,35.9,5.2z"/>
		<path class="st3" d="M18.4,2.5c-8,0-14.8,0.8-16.8,1.9c3.1-0.8,8.6-1.3,14.9-1.3C26.2,3.1,34,4.3,34,5.8c0,0.2-0.2,0.5-0.7,0.7
			C35,6.1,36,5.6,36,5.1C35.9,3.7,28,2.5,18.4,2.5z"/>
	</g>
	<g>
		<path class="st5" d="M6.1,1.9C16.6-1.3,24.6,0,26.5,2.3c0.6,0.7,0,2.4-2.7,2.3C20.4,4.5,12.4,4.1,7,5.8C3.1,7.1,0.4,3.6,6.1,1.9z"
			/>
		<path class="st6" d="M26.6,2.4c-0.2,0.3-0.4,0.6-0.8,0.9c-3.2,2.2-10.5-1.7-15.2,0.6C7.4,5.5,4.2,5.2,3,3.9c-0.7,1.5,1.4,2.8,4,2
			c5.4-1.7,13.3-1.3,16.7-1.2C26.3,4.7,27,3.2,26.6,2.4z"/>
		<path class="st7" d="M25.2,1.3C22-0.3,15-0.8,6.1,1.9C5.1,2.2,4.3,2.6,3.8,3C3.6,3.8,4.3,4,5,3.6c1-0.7,0.8-1.1,1.9-1
			c1.1,0.2,1.3,0,2.2-0.4C10,1.8,11,1.7,11.7,1.8c0.7,0.1,0.9,0,1.7-0.4C14.3,1.1,13.8,0.8,15,1s0.8,0.1,2.7,0s2.2-0.3,2.8,0.2
			c0.6,0.5,1.1,0.5,2,0.3s0-0.3,1.6,0.1C24.4,1.7,24.8,1.6,25.2,1.3z"/>
		<path class="st8" d="M5.2,2.9C3.9,3.5,4.9,4.5,6.4,3.7s4.5-1.8,7.4-1.7c2.8,0.1,3.1-0.8,0.4-1S7.7,1.8,5.2,2.9z"/>
		<path class="st9" d="M23.7,4.4C20.4,4.3,12.4,3.9,7,5.7C4.8,6.4,3.1,5.6,2.9,4.5c0,1.2,1.9,2.1,4.2,1.4c5.4-1.7,13.3-1.3,16.7-1.2
			c2.2,0.1,3-1,2.9-1.8C26.6,3.6,25.7,4.5,23.7,4.4z"/>
		<path class="st10" d="M23.8,4.6c2.7,0.1,3.3-1.6,2.7-2.3c-0.2-0.2-0.4-0.4-0.6-0.6c-0.8,0.4-1.6,0.7-2.4,0.8
			c-1.6,0.1-1.4-0.4-3.4-0.1s-1.7,0.2-2.8-0.2c-1.1-0.4-1.5-0.4-4,0.2s-1.6,0.8-2.4,0.8C10,3.4,9,3,7.4,3.8C6.1,4.3,4.1,4.4,3.5,3.2
			C1.7,4.9,4,6.8,7,5.8C12.4,4.1,20.4,4.5,23.8,4.6z"/>
		<path class="st11" d="M5.6,3.1C5.5,3.4,5.7,3.8,6,3.4S6.6,3,7.3,2.9c0.6-0.1,1-0.2,1.2-0.4s0.4-0.3,0.9-0.2S11,1.9,11,1.9
			s0.7-0.3,1.5-0.1c0.7,0.2,2.3,0,2.2-0.4c0-0.4-0.5-0.7-1.1-0.5s-0.9,0.2-1.5,0.3s-0.5-0.1-1.2,0.2c-0.6,0.3-0.5,0.2-1.2,0.2
			S8.9,1.5,8.4,1.8C7.8,2.1,7.6,2,7.2,2.1c-0.5,0.2-0.4,0.1-1,0.4C5.6,2.7,5.4,3.1,5.4,3.1H5.6z"/>
		<path class="st8" d="M17,1.3c-0.6,0.5,0,0.8,1.7,1s6.3,0.4,6.4,0c0-0.4-0.2-0.7-1.6-0.8c-1.4-0.1-2.2-0.7-4-0.6S17.2,1.1,17,1.3z"
			/>
		<path class="st12" d="M17.4,1.4c-0.1,0.4,0.2,0.6,0.5,0.4c0.3-0.1,0.2-0.2,0.7,0S19.5,2,20,2s0.6,0,1.1,0.1c0.4,0.1,0.8-0.1,1.3,0
			s1.1,0.2,1.1,0.2s1.1-0.1,0.9-0.3c-0.1-0.2-0.6-0.3-0.8-0.2s-0.4,0-1-0.1c-0.7-0.1-0.9-0.6-1.6-0.4c-0.7,0.1-0.2,0.2-1,0.1
			s-0.6-0.2-1.2-0.1s-0.7,0-0.9,0.1C17.5,1.2,17.4,1.4,17.4,1.4z"/>
		<path class="st13" d="M26.5,2.3C24.6,0,16.6-1.3,6.1,1.9C5,2.2,4.2,2.6,3.6,3.1C4.2,2.7,4.9,2.3,5.9,2c10.5-3.1,18.5-1.8,20.4,0.4
			c0.4,0.4,0.3,1.2-0.4,1.7C26.8,3.6,26.9,2.7,26.5,2.3z"/>
	</g>
	<g>
		<path class="st5" d="M12.8,2.6C23.4,0,31.3,1.8,33.1,4.1c0.6,0.8-0.1,2.4-2.8,2.2C26.9,6,18.9,5.2,13.5,6.6C9.5,7.7,7,4,12.8,2.6z
			"/>
		<path class="st6" d="M33.2,4.3c-0.2,0.3-0.5,0.6-0.9,0.9C29,7.2,21.9,2.9,17.1,5c-3.2,1.4-6.4,0.9-7.5-0.5
			c-0.8,1.4,1.2,2.9,3.9,2.2C18.9,5.2,26.9,6,30.3,6.3C32.8,6.5,33.6,5.1,33.2,4.3z"/>
		<path class="st7" d="M31.8,3.1c-3-1.7-10.1-2.6-19-0.5c-1,0.3-1.8,0.6-2.4,0.9c-0.2,0.8,0.5,1.1,1.2,0.7c1.1-0.6,0.9-1.1,2-0.9
			c1.1,0.2,1.3,0,2.2-0.3c0.9-0.4,1.9-0.3,2.6-0.3c0.7,0.1,0.9,0,1.7-0.3c0.8-0.3,0.3-0.6,1.5-0.3s0.8,0.2,2.7,0.2
			c1.9,0,2.2-0.2,2.8,0.4c0.6,0.6,1.1,0.6,2,0.4s0-0.3,1.6,0.2C31,3.4,31.4,3.3,31.8,3.1z"/>
		<path class="st8" d="M11.8,3.6c-1.3,0.5-0.4,1.6,1.1,0.8s4.6-1.6,7.4-1.3s3.1-0.7,0.5-1S14.4,2.6,11.8,3.6z"/>
		<path class="st9" d="M30.3,6.1C26.9,5.8,18.9,5,13.5,6.4c-2.2,0.6-4-0.2-4.1-1.3c0,1.2,1.7,2.2,4.1,1.6C18.9,5.2,26.9,6,30.3,6.3
			c2.2,0.2,3-0.8,3-1.6C33.2,5.4,32.2,6.3,30.3,6.1z"/>
		<path class="st10" d="M30.3,6.3c2.7,0.2,3.4-1.4,2.8-2.2c-0.1-0.2-0.4-0.4-0.6-0.6c-0.8,0.4-1.7,0.6-2.4,0.7
			c-1.6,0.1-1.4-0.5-3.4-0.2c-2,0.2-1.7,0.1-2.8-0.3c-1.1-0.4-1.5-0.4-4.1,0s-1.6,0.7-2.4,0.7S15.5,4,13.9,4.7
			C12.6,5.2,10.6,5.2,10,4c-1.8,1.6,0.3,3.6,3.4,2.8C18.9,5.2,26.9,6,30.3,6.3z"/>
		<path class="st11" d="M12.2,3.8c-0.1,0.3,0.1,0.7,0.4,0.3c0.4-0.4,0.6-0.4,1.3-0.4c0.6,0,1-0.1,1.2-0.3s0.4-0.2,0.9-0.1
			c0.5,0.1,1.6-0.4,1.6-0.4s0.7-0.2,1.5,0c0.7,0.2,2.3,0.1,2.2-0.3c0-0.4-0.5-0.7-1.1-0.5s-0.9,0.1-1.5,0.2
			c-0.6,0.1-0.5-0.1-1.2,0.1c-0.6,0.3-0.5,0.2-1.2,0.2c-0.7,0-0.8-0.2-1.3,0.1C14.4,3,14.3,2.9,13.9,3c-0.5,0.1-0.4,0.1-1,0.3
			C12.2,3.4,12,3.8,12,3.8H12.2z"/>
		<path class="st8" d="M23.6,2.6c-0.6,0.5,0,0.8,1.7,1.1s6.3,0.8,6.4,0.4c0-0.4-0.2-0.7-1.5-0.9c-1.4-0.2-2.2-0.8-4-0.8
			C24.4,2.4,23.9,2.4,23.6,2.6z"/>
		<path class="st14" d="M24.1,2.8c-0.1,0.4,0.2,0.6,0.5,0.4c0.3-0.1,0.2-0.2,0.7,0s0.8,0.2,1.3,0.2s0.6,0,1.1,0.1s0.8,0,1.3,0
			s1,0.4,1,0.4s1.1-0.1,0.9-0.2c-0.1-0.2-0.6-0.3-0.8-0.2c-0.2,0.1-0.4-0.1-1-0.2c-0.7-0.1-0.9-0.6-1.6-0.5c-0.7,0.1-0.2,0.2-1,0
			s-0.6-0.2-1.2-0.2s-0.7,0-0.9,0S24.1,2.8,24.1,2.8z"/>
		<path class="st13" d="M33.1,4.1C31.3,1.8,23.4,0,12.8,2.6c-1.2,0.3-2,0.7-2.5,1.1c0.5-0.4,1.3-0.7,2.4-0.9
			C23.3,0.2,31.3,1.9,33,4.3c0.3,0.5,0.2,1.2-0.5,1.7C33.3,5.4,33.5,4.6,33.1,4.1z"/>
	</g>
	<g>
		<g>
			<defs>
				<path id="SVGID_1_" d="M35.9,5.2c0,1.5-7.8,2.7-17.5,2.7S0.9,6.6,0.9,5.2c0-1.5,7.8-3.5,17.5-3.5S35.9,3.7,35.9,5.2z"/>
			</defs>
			<clipPath id="SVGID_00000101085654041031771610000008079244517350732976_">
				<use xlink:href="#SVGID_1_"  style="overflow:visible;"/>
			</clipPath>
			<g style="clip-path:url(#SVGID_00000101085654041031771610000008079244517350732976_);">
				<ellipse class="st16" cx="4.2" cy="5.1" rx="2.7" ry="1.3"/>
				<path class="st17" d="M5.1,5.6C3.6,5.6,2.4,5,2.4,4.3c0-0.1,0.1-0.2,0.1-0.2c-0.6,0.2-1,0.6-1,1c0,0.7,1.2,1.3,2.7,1.3
					c1.3,0,2.4-0.5,2.6-1.1C6.4,5.5,5.8,5.6,5.1,5.6z"/>
			</g>
		</g>
		<g>
			<defs>
				<path id="SVGID_00000154405865273013346690000014044843414184578726_" d="M35.9,5.2c0,1.5-7.8,2.7-17.5,2.7S0.9,6.6,0.9,5.2
					c0-1.5,7.8-3.5,17.5-3.5S35.9,3.7,35.9,5.2z"/>
			</defs>
			<clipPath id="SVGID_00000083771655848915781400000015723828864297487533_">
				<use xlink:href="#SVGID_00000154405865273013346690000014044843414184578726_"  style="overflow:visible;"/>
			</clipPath>
			<g style="clip-path:url(#SVGID_00000083771655848915781400000015723828864297487533_);">
				<path class="st16" d="M10.1,6C10,6.7,8.8,7.2,7.3,7C5.8,6.9,4.7,6.2,4.8,5.4c0.1-0.7,1.3-1.2,2.8-1C9.1,4.6,10.2,5.3,10.1,6z"/>
				<path class="st17" d="M8.3,6.4C6.8,6.2,5.7,5.5,5.8,4.8c0-0.1,0.1-0.1,0.1-0.2C5.3,4.7,4.8,5,4.8,5.4c-0.1,0.8,1,1.5,2.5,1.7
					C8.6,7.2,9.7,6.8,10,6.3C9.5,6.4,9,6.5,8.3,6.4z"/>
			</g>
		</g>
		<g>
			<defs>
				<path id="SVGID_00000145031369911301787340000008091210386087310218_" d="M35.9,5.2c0,1.5-7.8,2.7-17.5,2.7S0.9,6.6,0.9,5.2
					c0-1.5,7.8-3.5,17.5-3.5S35.9,3.7,35.9,5.2z"/>
			</defs>
			<clipPath id="SVGID_00000073679671824828472820000008607242026735658680_">
				<use xlink:href="#SVGID_00000145031369911301787340000008091210386087310218_"  style="overflow:visible;"/>
			</clipPath>
			<g style="clip-path:url(#SVGID_00000073679671824828472820000008607242026735658680_);">
				<path class="st16" d="M13.9,6.9c-0.1,0.7-1.3,1.2-2.8,1S8.4,7,8.5,6.3s1.3-1.2,2.8-1C12.8,5.4,14,6.1,13.9,6.9z"/>
				<path class="st17" d="M12,7.2C10.6,7,9.4,6.3,9.5,5.6c0-0.1,0.1-0.1,0.1-0.2C9,5.5,8.6,5.9,8.5,6.3C8.4,7,9.6,7.7,11,7.9
					c1.3,0.1,2.4-0.2,2.7-0.8C13.3,7.2,12.7,7.3,12,7.2z"/>
			</g>
		</g>
		<g>
			<defs>
				<path id="SVGID_00000065776625793703311650000016671749298411747490_" d="M35.9,5.2c0,1.5-7.8,2.7-17.5,2.7S0.9,6.6,0.9,5.2
					c0-1.5,7.8-3.5,17.5-3.5S35.9,3.7,35.9,5.2z"/>
			</defs>
			<clipPath id="SVGID_00000128480568580058928630000006184852695797978250_">
				<use xlink:href="#SVGID_00000065776625793703311650000016671749298411747490_"  style="overflow:visible;"/>
			</clipPath>
			<g style="clip-path:url(#SVGID_00000128480568580058928630000006184852695797978250_);">
				<path class="st16" d="M18.1,5.8c0.3,0.7-0.6,1.7-2,2.3s-2.7,0.5-3-0.2s0.6-1.7,2-2.3C16.4,5,17.8,5.1,18.1,5.8z"/>
				<path class="st17" d="M16.6,7c-1.4,0.6-2.7,0.5-3-0.2c0-0.1,0-0.2,0-0.2C13.2,7,13,7.5,13.1,7.9c0.3,0.7,1.6,0.7,3,0.2
					c1.2-0.5,2-1.4,2-2C17.7,6.4,17.2,6.7,16.6,7z"/>
			</g>
		</g>
		<g>
			<defs>
				<path id="SVGID_00000100368147515763628960000011319601902209430204_" d="M35.9,5.2c0,1.5-7.8,2.7-17.5,2.7S0.9,6.6,0.9,5.2
					c0-1.5,7.8-3.5,17.5-3.5S35.9,3.7,35.9,5.2z"/>
			</defs>
			<clipPath id="SVGID_00000041975414675471259360000016774624817594797972_">
				<use xlink:href="#SVGID_00000100368147515763628960000011319601902209430204_"  style="overflow:visible;"/>
			</clipPath>
			<g style="clip-path:url(#SVGID_00000041975414675471259360000016774624817594797972_);">
				<path class="st16" d="M11.9,6c0.3,0.7-0.6,1.7-2,2.3s-2.7,0.5-3-0.2s0.6-1.7,2-2.3C10.2,5.3,11.6,5.4,11.9,6z"/>
				<path class="st17" d="M10.4,7.2C9,7.8,7.7,7.7,7.4,7c0-0.1,0-0.2,0-0.2C7,7.3,6.7,7.8,6.9,8.1c0.3,0.7,1.6,0.7,3,0.2
					c1.2-0.5,2-1.4,2-2C11.5,6.6,11,7,10.4,7.2z"/>
			</g>
		</g>
		<g>
			<defs>
				<path id="SVGID_00000180343839807513648920000017232565726867813553_" d="M35.9,5.2c0,1.5-7.8,2.7-17.5,2.7S0.9,6.6,0.9,5.2
					c0-1.5,7.8-3.5,17.5-3.5S35.9,3.7,35.9,5.2z"/>
			</defs>
			<clipPath id="SVGID_00000149375482178285825500000010185658755570797713_">
				<use xlink:href="#SVGID_00000180343839807513648920000017232565726867813553_"  style="overflow:visible;"/>
			</clipPath>
			<g style="clip-path:url(#SVGID_00000149375482178285825500000010185658755570797713_);">
				<path class="st16" d="M8.7,6c0.1,0.7-1.1,1.4-2.6,1.6C4.6,7.7,3.4,7.3,3.3,6.5C3.2,5.8,4.4,5.1,5.9,5C7.3,4.8,8.6,5.3,8.7,6z"/>
				<path class="st17" d="M6.9,6.7c-1.4,0.2-2.7-0.3-2.8-1c0-0.1,0.1-0.2,0.1-0.2c-0.6,0.2-0.9,0.6-0.9,1c0.1,0.7,1.3,1.2,2.8,1.1
					c1.3-0.1,2.3-0.7,2.5-1.3C8.1,6.5,7.6,6.7,6.9,6.7z"/>
			</g>
		</g>
		<g>
			<defs>
				<path id="SVGID_00000000201759309710794980000002835546637207666869_" d="M35.9,5.2c0,1.5-7.8,2.7-17.5,2.7S0.9,6.6,0.9,5.2
					c0-1.5,7.8-3.5,17.5-3.5S35.9,3.7,35.9,5.2z"/>
			</defs>
			<clipPath id="SVGID_00000121254855825930357830000013682911443860879777_">
				<use xlink:href="#SVGID_00000000201759309710794980000002835546637207666869_"  style="overflow:visible;"/>
			</clipPath>
			<g style="clip-path:url(#SVGID_00000121254855825930357830000013682911443860879777_);">
				<path class="st16" d="M21.5,6.9c0.1,0.7-1.1,1.4-2.6,1.6c-1.5,0.1-2.7-0.3-2.8-1.1C16,6.7,17.2,6,18.7,5.8
					C20.2,5.7,21.4,6.1,21.5,6.9z"/>
				<path class="st17" d="M19.8,7.6C18.3,7.7,17,7.2,17,6.5c0-0.1,0-0.2,0-0.2c-0.6,0.3-0.9,0.7-0.9,1.1c0.1,0.7,1.3,1.2,2.8,1.1
					c1.3-0.1,2.3-0.7,2.5-1.3C21,7.3,20.4,7.5,19.8,7.6z"/>
			</g>
		</g>
		<g>
			<defs>
				<path id="SVGID_00000072272336870209120150000015138773364189950650_" d="M35.9,5.2c0,1.5-7.8,2.7-17.5,2.7S0.9,6.6,0.9,5.2
					c0-1.5,7.8-3.5,17.5-3.5S35.9,3.7,35.9,5.2z"/>
			</defs>
			<clipPath id="SVGID_00000124147284079596005540000005923564979147683517_">
				<use xlink:href="#SVGID_00000072272336870209120150000015138773364189950650_"  style="overflow:visible;"/>
			</clipPath>
			<g style="clip-path:url(#SVGID_00000124147284079596005540000005923564979147683517_);">
				<path class="st16" d="M23.7,7c0,0.5-0.7,1-1.7,1.1s-1.9-0.2-1.9-0.7s0.7-1,1.7-1.1C22.8,6.2,23.6,6.6,23.7,7z"/>
				<path class="st17" d="M22.5,7.5c-1,0.1-1.9-0.2-1.9-0.7c0-0.1,0-0.1,0-0.2C20.3,6.9,20,7.1,20,7.4c0,0.5,0.9,0.8,1.9,0.7
					c0.9-0.1,1.6-0.5,1.7-0.9C23.3,7.4,23,7.5,22.5,7.5z"/>
			</g>
		</g>
		<g>
			<defs>
				<path id="SVGID_00000036250059414087086610000004215238761510001290_" d="M35.9,5.2c0,1.5-7.8,2.7-17.5,2.7S0.9,6.6,0.9,5.2
					c0-1.5,7.8-3.5,17.5-3.5S35.9,3.7,35.9,5.2z"/>
			</defs>
			<clipPath id="SVGID_00000146493338496320170990000001031887240217493120_">
				<use xlink:href="#SVGID_00000036250059414087086610000004215238761510001290_"  style="overflow:visible;"/>
			</clipPath>
			<g style="clip-path:url(#SVGID_00000146493338496320170990000001031887240217493120_);">
				<path class="st16" d="M27.5,5.4c0.2,0.6-0.8,1.4-2,1.6c-1.3,0.3-2.4,0-2.5-0.6c-0.2-0.6,0.7-1.4,2-1.6
					C26.3,4.5,27.4,4.8,27.5,5.4z"/>
				<path class="st17" d="M26.1,6.2c-1.3,0.3-2.4,0-2.5-0.6c0-0.1,0-0.1,0-0.2c-0.5,0.3-0.7,0.7-0.7,1C23.1,7,24.2,7.3,25.5,7
					c1.1-0.2,1.9-0.8,2-1.4C27.1,5.9,26.7,6.1,26.1,6.2z"/>
			</g>
		</g>
		<g>
			<defs>
				<path id="SVGID_00000144334553096146698630000010207632253718057633_" d="M35.9,5.2c0,1.5-7.8,2.7-17.5,2.7S0.9,6.6,0.9,5.2
					c0-1.5,7.8-3.5,17.5-3.5S35.9,3.7,35.9,5.2z"/>
			</defs>
			<clipPath id="SVGID_00000144299996704094759480000003493486246991691960_">
				<use xlink:href="#SVGID_00000144334553096146698630000010207632253718057633_"  style="overflow:visible;"/>
			</clipPath>
			<g style="clip-path:url(#SVGID_00000144299996704094759480000003493486246991691960_);">
				<path class="st16" d="M30.9,6.3c-0.1,0.6-1.2,1-2.5,0.9c-1.3-0.2-2.3-0.8-2.2-1.4s1.2-1,2.5-0.9C30,5,30.9,5.7,30.9,6.3z"/>
				<path class="st17" d="M29.3,6.6C28,6.4,27,5.8,27.1,5.2c0-0.1,0.1-0.1,0.1-0.2c-0.5,0.1-0.9,0.4-1,0.8c-0.1,0.6,0.9,1.3,2.2,1.4
					c1.1,0.1,2.1-0.2,2.4-0.7C30.3,6.6,29.8,6.6,29.3,6.6z"/>
			</g>
		</g>
		<g>
			<defs>
				<path id="SVGID_00000084506777361816075900000003646131444260213162_" d="M35.9,5.2c0,1.5-7.8,2.7-17.5,2.7S0.9,6.6,0.9,5.2
					c0-1.5,7.8-3.5,17.5-3.5S35.9,3.7,35.9,5.2z"/>
			</defs>
			<clipPath id="SVGID_00000008859463027403493010000014649392172254772609_">
				<use xlink:href="#SVGID_00000084506777361816075900000003646131444260213162_"  style="overflow:visible;"/>
			</clipPath>
			<g style="clip-path:url(#SVGID_00000008859463027403493010000014649392172254772609_);">
				<path class="st16" d="M23.7,6c0,0.5-0.9,0.8-1.9,0.8c-1-0.1-1.8-0.5-1.8-1S20.9,5,21.9,5C22.9,5.1,23.7,5.5,23.7,6z"/>
				<path class="st17" d="M22.4,6.3c-1-0.1-1.8-0.5-1.8-1c0-0.1,0.1-0.1,0.1-0.2C20.3,5.3,20,5.5,20,5.8c0,0.5,0.8,1,1.8,1
					c0.9,0.1,1.6-0.2,1.8-0.6C23.3,6.3,22.9,6.3,22.4,6.3z"/>
			</g>
		</g>
		<g>
			<defs>
				<path id="SVGID_00000140707318279866146440000013569461233011747503_" d="M35.9,5.2c0,1.5-7.8,2.7-17.5,2.7S0.9,6.6,0.9,5.2
					c0-1.5,7.8-3.5,17.5-3.5S35.9,3.7,35.9,5.2z"/>
			</defs>
			<clipPath id="SVGID_00000003095359382460623130000009463095998655584926_">
				<use xlink:href="#SVGID_00000140707318279866146440000013569461233011747503_"  style="overflow:visible;"/>
			</clipPath>
			<g style="clip-path:url(#SVGID_00000003095359382460623130000009463095998655584926_);">
				<path class="st16" d="M25.8,6.8c0.1,0.5-0.6,1-1.6,1.3s-1.9,0-2-0.5s0.6-1,1.6-1.3S25.7,6.4,25.8,6.8z"/>
				<path class="st17" d="M24.7,7.5c-1,0.2-1.9,0-2-0.5c0-0.1,0-0.1,0-0.2c-0.4,0.2-0.6,0.5-0.5,0.8c0.1,0.5,1,0.7,2,0.5
					c0.9-0.2,1.5-0.6,1.6-1.1C25.5,7.2,25.1,7.4,24.7,7.5z"/>
			</g>
		</g>
		<g>
			<defs>
				<path id="SVGID_00000018223027820116055890000011055836075838593471_" d="M35.9,5.2c0,1.5-7.8,2.7-17.5,2.7S0.9,6.6,0.9,5.2
					c0-1.5,7.8-3.5,17.5-3.5S35.9,3.7,35.9,5.2z"/>
			</defs>
			<clipPath id="SVGID_00000029749537724811084920000005185184336192150706_">
				<use xlink:href="#SVGID_00000018223027820116055890000011055836075838593471_"  style="overflow:visible;"/>
			</clipPath>
			<g style="clip-path:url(#SVGID_00000029749537724811084920000005185184336192150706_);">
				<path class="st16" d="M27.7,7.4c0,0.5-0.8,0.9-1.8,0.9s-1.8-0.4-1.8-0.9s0.8-0.9,1.8-0.9C26.9,6.5,27.7,6.9,27.7,7.4z"/>
				<path class="st17" d="M26.5,7.7c-1,0-1.8-0.4-1.8-0.9c0-0.1,0-0.1,0.1-0.2c-0.4,0.2-0.7,0.4-0.7,0.7c0,0.5,0.8,0.9,1.8,0.9
					c0.9,0,1.6-0.3,1.8-0.7C27.3,7.6,26.9,7.7,26.5,7.7z"/>
			</g>
		</g>
		<g>
			<defs>
				<path id="SVGID_00000096756961174343948350000002396741942089169569_" d="M35.9,5.2c0,1.5-7.8,2.7-17.5,2.7S0.9,6.6,0.9,5.2
					c0-1.5,7.8-3.5,17.5-3.5S35.9,3.7,35.9,5.2z"/>
			</defs>
			<clipPath id="SVGID_00000015345495325518552750000002310040944230352786_">
				<use xlink:href="#SVGID_00000096756961174343948350000002396741942089169569_"  style="overflow:visible;"/>
			</clipPath>
			<g style="clip-path:url(#SVGID_00000015345495325518552750000002310040944230352786_);">
				<path class="st16" d="M30,7.2c0,0.5-0.8,0.9-1.8,0.9s-1.8-0.4-1.8-0.9s0.8-0.9,1.8-0.9C29.1,6.3,30,6.7,30,7.2z"/>
				<path class="st17" d="M28.7,7.6c-1,0-1.8-0.4-1.8-0.9c0-0.1,0-0.1,0.1-0.2c-0.4,0.2-0.7,0.4-0.7,0.7c0,0.5,0.8,0.9,1.8,0.9
					c0.9,0,1.6-0.3,1.8-0.7C29.6,7.5,29.2,7.6,28.7,7.6z"/>
			</g>
		</g>
		<g>
			<defs>
				<path id="SVGID_00000053511364162182342170000018267128285435490965_" d="M35.9,5.2c0,1.5-7.8,2.7-17.5,2.7S0.9,6.6,0.9,5.2
					c0-1.5,7.8-3.5,17.5-3.5S35.9,3.7,35.9,5.2z"/>
			</defs>
			<clipPath id="SVGID_00000126325565990808684520000013257065203985468563_">
				<use xlink:href="#SVGID_00000053511364162182342170000018267128285435490965_"  style="overflow:visible;"/>
			</clipPath>
			<g style="clip-path:url(#SVGID_00000126325565990808684520000013257065203985468563_);">
				<path class="st16" d="M32.8,6c0.1,0.5-0.5,1.1-1.5,1.4s-1.9,0.1-2-0.4s0.5-1.1,1.5-1.4C31.7,5.3,32.6,5.5,32.8,6z"/>
				<path class="st17" d="M31.7,6.7c-1,0.3-1.9,0.1-2-0.4c0-0.1,0-0.1,0-0.2c-0.3,0.3-0.5,0.6-0.5,0.8c0.1,0.5,1,0.6,2,0.4
					c0.9-0.2,1.5-0.8,1.5-1.2C32.5,6.4,32.1,6.6,31.7,6.7z"/>
			</g>
		</g>
		<g>
			<defs>
				<path id="SVGID_00000139291848188855791980000006149874365771280002_" d="M35.9,5.2c0,1.5-7.8,2.7-17.5,2.7S0.9,6.6,0.9,5.2
					c0-1.5,7.8-3.5,17.5-3.5S35.9,3.7,35.9,5.2z"/>
			</defs>
			<clipPath id="SVGID_00000114793551686241054120000014362160805693061522_">
				<use xlink:href="#SVGID_00000139291848188855791980000006149874365771280002_"  style="overflow:visible;"/>
			</clipPath>
			<g style="clip-path:url(#SVGID_00000114793551686241054120000014362160805693061522_);">
				<path class="st16" d="M35.3,5.2c-0.1,0.5-1,0.7-2,0.5S31.6,5,31.7,4.5s1-0.7,2-0.5C34.7,4.1,35.4,4.7,35.3,5.2z"/>
				<path class="st17" d="M34,5.3c-1-0.2-1.7-0.7-1.6-1.2C32.4,4,32.5,4,32.5,4c-0.4,0.1-0.7,0.3-0.8,0.5c-0.1,0.5,0.6,1,1.6,1.2
					c0.9,0.2,1.6,0,1.9-0.4C34.9,5.4,34.5,5.4,34,5.3z"/>
			</g>
		</g>
		<g>
			<defs>
				<path id="SVGID_00000013183553134459716060000003232630373290066855_" d="M35.9,5.2c0,1.5-7.8,2.7-17.5,2.7S0.9,6.6,0.9,5.2
					c0-1.5,7.8-3.5,17.5-3.5S35.9,3.7,35.9,5.2z"/>
			</defs>
			<clipPath id="SVGID_00000004534917527769836080000017312261598407391123_">
				<use xlink:href="#SVGID_00000013183553134459716060000003232630373290066855_"  style="overflow:visible;"/>
			</clipPath>
			<g style="clip-path:url(#SVGID_00000004534917527769836080000017312261598407391123_);">
				<path class="st16" d="M35,5.6c0.1,0.5-0.5,1.1-1.5,1.4s-1.9,0.1-2-0.4c-0.1-0.4,0.5-1,1.5-1.3C34,5,34.9,5.2,35,5.6z"/>
				<path class="st17" d="M34,6.3c-1,0.3-1.9,0.1-2-0.4c0-0.1,0-0.1,0-0.2c-0.3,0.3-0.5,0.6-0.5,0.8c0.1,0.5,1,0.6,2,0.4
					C34.4,6.8,35,6.3,35,5.8C34.7,6,34.4,6.2,34,6.3z"/>
			</g>
		</g>
	</g>
</g>
</svg>
