<?xml version="1.0" encoding="utf-8"?>
<!-- Generator: Adobe Illustrator 27.1.1, SVG Export Plug-In . SVG Version: 6.00 Build 0)  -->
<svg version="1.1" id="Layer_3" xmlns="http://www.w3.org/2000/svg" xmlns:xlink="http://www.w3.org/1999/xlink" x="0px" y="0px"
	 viewBox="0 0 32.9 14.7" style="enable-background:new 0 0 32.9 14.7;" xml:space="preserve">
<style type="text/css">
	.st0{fill:#FFD399;}
	.st1{opacity:0.4;fill:#FFF9F2;enable-background:new    ;}
	.st2{opacity:0.3;fill:#FFE9A8;enable-background:new    ;}
	.st3{opacity:0.3;fill:#FFFBE0;enable-background:new    ;}
	.st4{opacity:0.2;fill:#FFD399;enable-background:new    ;}
	.st5{fill:#FFE2BA;}
	.st6{opacity:0.1;fill:#F2BF7B;enable-background:new    ;}
	.st7{fill:#F2BF7B;}
	.st8{opacity:0.1;fill:#D9B382;enable-background:new    ;}
	.st9{fill:#FFEBBF;}
	.st10{opacity:0.1;fill:#FFD373;enable-background:new    ;}
	.st11{opacity:0.1;fill:#D14200;enable-background:new    ;}
	.st12{opacity:0.2;fill:#D9B382;enable-background:new    ;}
	.st13{opacity:0.3;fill:#FFFCF5;enable-background:new    ;}
	.st14{opacity:0.3;fill:#FFFFFF;enable-background:new    ;}
	.st15{opacity:0.4;fill:#FFFFFF;enable-background:new    ;}
	.st16{opacity:0.2;}
	.st17{fill:#D14200;}
	.st18{fill:#BAD160;}
	.st19{opacity:0.2;fill:#D14200;enable-background:new    ;}
	.st20{fill:#FC8830;}
</style>
<g>
	<g>
		<path class="st0" d="M32.9,3.1c0,1.7,0,11.6-16.4,11.6C0,14.7,0,4.8,0,3.1S7.4,0,16.5,0S32.9,1.4,32.9,3.1z"/>
		<path class="st1" d="M16.6,14.5C0.2,14.5,0.2,4.7,0.2,2.9c0-0.2,0.1-0.3,0.2-0.4C0.1,2.7,0,2.9,0,3.1c0,1.7,0,11.6,16.4,11.6
			c7.8,0,11.9-2.2,14-4.7C28.3,12.4,24.2,14.5,16.6,14.5z"/>
		<path class="st2" d="M16.8,0.4c-1.2,0-2.4,0-3.5,0.1C20.2,0.8,25.4,2,25.4,3.4c0,1.5,0,9.5-12.1,10.8c1.1,0.1,2.2,0.2,3.5,0.2
			c15.6,0,15.6-9.4,15.6-11C32.4,1.7,25.4,0.4,16.8,0.4z"/>
		<path class="st3" d="M16.8,14.5C0.3,14.5,0.3,4.7,0.3,2.9c0-0.3,0.2-0.5,0.5-0.8C0.3,2.5,0,2.8,0,3.1c0,1.7,0,11.6,16.4,11.6
			c5.7,0,9.4-1.2,11.9-2.8C25.9,13.4,22.3,14.5,16.8,14.5z"/>
		<path class="st4" d="M19.3,12.6C3.8,12.6,2.9,3.8,2.8,1.4C1.1,1.9,0,2.5,0,3.1c0,1.7,0,11.6,16.4,11.6c7.4,0,11.5-2,13.7-4.4
			C27.8,11.7,24.3,12.6,19.3,12.6z"/>
		<ellipse class="st5" cx="16.5" cy="3.1" rx="16.4" ry="3.1"/>
		<path class="st6" d="M16.8,6.1C7.7,6.1,0.3,4.7,0.3,3c0-0.5,0.6-0.9,1.6-1.3C0.7,2.1,0,2.6,0,3.1c0,1.7,7.4,3.1,16.4,3.1
			c6.6,0,12.2-0.7,14.9-1.8C28.6,5.4,23.1,6.1,16.8,6.1z"/>
		<ellipse class="st7" cx="16.5" cy="3" rx="15.7" ry="2.7"/>
		<path class="st8" d="M0.9,3.4c1.4,1.2,7.8,2.1,15.4,2.1s13.9-0.9,15.4-2.1c-1.4-1.2-7.8-2.1-15.4-2.1C8.7,1.3,2.4,2.2,0.9,3.4z"/>
		<path class="st9" d="M1.1,3.5c1.4,1.2,7.8,2.1,15.4,2.1s13.9-0.9,15.4-2.1c-1.4-1.2-7.8-2.1-15.4-2.1S2.5,2.3,1.1,3.5z"/>
		<path class="st10" d="M19.6,5.1C12,5.1,5.6,4.2,4.2,3C4.6,2.6,5.6,2.2,7,1.9c-3,0.4-5.2,1-5.9,1.6c1.4,1.2,7.8,2.1,15.4,2.1
			c5.1,0,9.7-0.4,12.6-1.1C26.4,4.9,23.1,5.1,19.6,5.1z"/>
		<path class="st11" d="M14.8,1.7c7.6,0,13.9,0.9,15.4,2.1c-0.5,0.4-1.7,0.8-3.3,1.2c2.5-0.4,4.3-0.9,5-1.5
			c-1.4-1.2-7.8-2.1-15.4-2.1c-4.8,0-9.2,0.4-12.1,1C7.2,1.9,10.8,1.7,14.8,1.7z"/>
		<path class="st12" d="M16.5,0.3c-7.2,0-13.3,0.8-15.1,2C4,1.5,9.2,0.9,15.1,0.9c8.7,0,15.7,1.2,15.7,2.7c0,0.2-0.2,0.5-0.6,0.7
			c1.3-0.4,2-0.8,2-1.3C32.2,1.5,25.1,0.3,16.5,0.3z"/>
		<path class="st13" d="M29.9,5.8c-0.2,3.6-3,6.2-3,6.2s3.1-1.5,4.4-3.8c0.7-1.3,1-2.2,1.1-2.8c0-0.3-0.3-0.6-0.6-0.5l-1.6,0.5
			C30,5.4,29.9,5.6,29.9,5.8z"/>
		<path class="st14" d="M16.5,6.2c-9,0-16.4-1.4-16.4-3.1c0-0.4,0.3-0.7,1-1.1C0.4,2.4,0,2.7,0,3.1c0,1.7,7.4,3.1,16.4,3.1
			c7.1,0,13.2-0.9,15.5-2.1C29.6,5.4,23.6,6.2,16.5,6.2z"/>
		<path class="st15" d="M16.5,0C11.6,0,7.3,0.4,4.3,1c3-0.6,7.2-1,11.9-1c9.1,0,16.4,1.4,16.4,3.1c0,0.8-1.6,1.5-4.3,2.1
			c2.8-0.6,4.5-1.3,4.5-2.1C32.9,1.4,25.6,0,16.5,0z"/>
	</g>
	<g class="st16">
		<path class="st17" d="M9.2,2.8c-0.2-0.1-0.5,0-0.7,0C8.4,2.9,8.2,3.1,8.4,3.1s0.7,0.1,1,0.1C9.5,3.1,9.5,2.9,9.2,2.8z"/>
		<path class="st17" d="M12.9,4.4c0.1-0.1,1.2,0,1.2,0.1c0.1,0.1,0.4,0.4-0.3,0.3s-1.4-0.1-1.5-0.2C12.4,4.6,12.9,4.4,12.9,4.4z"/>
		<path class="st17" d="M16.4,2.9c0.1-0.1,1.2,0,1.2,0.1c0.1,0.1,0.4,0.4-0.3,0.3c-0.7-0.1-1.4-0.1-1.5-0.2
			C15.9,3.2,16.4,2.9,16.4,2.9z"/>
		<path class="st17" d="M22.7,2.7c-0.8,0.1-0.9,0.2-0.8,0.4c0.1,0.1,0.7,0.1,1,0C23.1,3,23.1,2.6,22.7,2.7z"/>
		<path class="st17" d="M18.1,4.7c-0.5,0-0.5,0.4-0.3,0.4s1-0.2,1-0.2S18.6,4.7,18.1,4.7z"/>
		<path class="st17" d="M2.6,3.4c-0.4,0.1-0.2,0,0,0.2s0.8,0.2,0.9,0.1c0.1-0.1,0.2-0.3-0.1-0.4C3,3.3,2.6,3.4,2.6,3.4z"/>
		<path class="st17" d="M25.5,3.8C25.1,3.8,25,4,25,4.2c0,0.2,1.3,0.3,1.4,0S26.3,3.8,25.5,3.8z"/>
		<path class="st17" d="M7.8,4.2c-0.4,0-0.4,0.4,0,0.4c0.4,0,0.8,0,0.7-0.2C8.5,4.1,8.3,4.2,7.8,4.2z"/>
		<path class="st17" d="M4.9,2.9C4.6,3,4.8,3.2,5.3,3.2s0.7,0,0.6-0.1C5.9,2.9,5.1,2.8,4.9,2.9z"/>
		<path class="st17" d="M11.6,2.4c-0.1,0.1,0.6,0.2,0.8,0.2c0.3,0,0.4-0.4,0.3-0.3C12.7,2.3,11.8,2.2,11.6,2.4z"/>
		<path class="st17" d="M27,3c-0.1,0.2,0.7,0.4,0.9,0.2c0.3-0.1,0.6-0.3,0.3-0.4C28.1,2.7,27.2,2.7,27,3z"/>
		<path class="st17" d="M21.1,4.8c-0.3,0,0.6,0.4,0.9,0.3s0.6-0.4,0.4-0.4C22.3,4.6,22.1,4.9,21.1,4.8z"/>
		<path class="st17" d="M11.7,3.4c-0.3,0.1,1,0.3,1.4,0.1C13.5,3.4,11.9,3.4,11.7,3.4z"/>
	</g>
	<g>
		<path class="st18" d="M9.2,2.7c-0.2-0.1-0.5,0-0.7,0C8.4,2.8,8.2,3,8.4,3s0.7,0.1,1,0.1C9.6,3.1,9.5,2.8,9.2,2.7z"/>
		<path class="st18" d="M12.9,4.3c0.1-0.1,1.2,0,1.2,0.1s0.4,0.4-0.3,0.3s-1.4-0.1-1.5-0.2C12.4,4.5,12.9,4.3,12.9,4.3z"/>
		<path class="st18" d="M16.5,2.9c0.1-0.1,1.2,0,1.2,0.1c0.1,0.1,0.4,0.4-0.3,0.3C16.8,3.2,16,3.2,16,3.1
			C15.9,3.1,16.5,2.9,16.5,2.9z"/>
		<path class="st18" d="M22.7,2.6C22,2.8,21.9,2.9,21.9,3c0.1,0.1,0.7,0.1,1,0S23.1,2.6,22.7,2.6z"/>
		<path class="st18" d="M18.1,4.6c-0.5,0-0.5,0.4-0.3,0.4s1-0.2,1-0.2S18.6,4.6,18.1,4.6z"/>
		<path class="st18" d="M2.6,3.3c-0.4,0.1-0.2,0,0,0.2s0.8,0.2,0.9,0.1c0.1-0.1,0.2-0.3-0.1-0.4S2.6,3.3,2.6,3.3z"/>
		<path class="st18" d="M25.6,3.7c-0.4,0-0.5,0.2-0.5,0.4c0,0.2,1.3,0.3,1.4,0C26.6,3.9,26.3,3.7,25.6,3.7z"/>
		<path class="st18" d="M7.9,4.1c-0.4,0-0.4,0.4,0,0.4s0.8,0,0.7-0.2C8.5,4,8.3,4.1,7.9,4.1z"/>
		<path class="st18" d="M4.9,2.8C4.6,3,4.9,3.1,5.3,3.1c0.5,0,0.7,0,0.6-0.1C5.9,2.8,5.1,2.7,4.9,2.8z"/>
		<path class="st18" d="M11.6,2.3c-0.1,0.1,0.6,0.2,0.8,0.2c0.3,0,0.4-0.4,0.3-0.3C12.7,2.2,11.8,2.1,11.6,2.3z"/>
		<path class="st18" d="M27.1,2.9C27,3.1,27.8,3.3,28,3.1c0.3-0.1,0.6-0.3,0.3-0.4C28.1,2.6,27.2,2.7,27.1,2.9z"/>
		<path class="st18" d="M21.2,4.7c-0.3,0,0.6,0.4,0.9,0.3s0.6-0.4,0.4-0.4S22.2,4.8,21.2,4.7z"/>
		<path class="st18" d="M11.7,3.3c-0.3,0.1,1,0.3,1.4,0.1C13.6,3.4,11.9,3.3,11.7,3.3z"/>
	</g>
	<g>
		<path class="st19" d="M13.4,2.9c0,0,0.4-0.1,0.6-0.1c0.1,0,0.3,0.1,0.2,0.2c-0.1,0.1-0.6,0.1-0.7,0.1C13.2,3.1,13.4,2.9,13.4,2.9z
			"/>
		<path class="st20" d="M13.4,2.9c0,0,0.4-0.1,0.6-0.1c0.1,0,0.3,0.1,0.2,0.2c-0.1,0.1-0.6,0.1-0.7,0.1C13.2,3.1,13.4,2.9,13.4,2.9z
			"/>
	</g>
	<g>
		<path class="st19" d="M6.8,3.3c0,0,0.4-0.1,0.6-0.1c0.1,0,0.3,0.1,0.2,0.2C7.4,3.5,7,3.5,6.8,3.5C6.6,3.5,6.8,3.3,6.8,3.3z"/>
		<path class="st20" d="M6.8,3.2c0,0,0.4-0.1,0.6-0.1c0.1,0,0.3,0.1,0.2,0.2C7.5,3.4,7,3.5,6.8,3.4S6.8,3.2,6.8,3.2z"/>
	</g>
	<g>
		<path class="st19" d="M23.7,3.9c0,0,0.4-0.1,0.6-0.1c0.1,0,0.3,0.1,0.2,0.2c-0.1,0.1-0.6,0.1-0.7,0.1C23.5,4.1,23.7,3.9,23.7,3.9z
			"/>
		<path class="st20" d="M23.7,3.8c0,0,0.4-0.1,0.6-0.1c0.1,0,0.3,0.1,0.2,0.2C24.4,4,23.9,4,23.8,4C23.6,4.1,23.7,3.8,23.7,3.8z"/>
	</g>
	<g>
		<path class="st19" d="M16.8,4.2c0.1,0,0.4,0,0.6,0c0.1,0,0.2,0.2,0.2,0.2c-0.1,0.1-0.6,0-0.7,0C16.6,4.4,16.8,4.2,16.8,4.2z"/>
		<path class="st20" d="M16.8,4.1c0.1,0,0.4,0,0.6,0c0.1,0,0.2,0.2,0.2,0.2c-0.1,0.1-0.6,0-0.7,0C16.6,4.3,16.8,4.1,16.8,4.1z"/>
	</g>
	<g>
		<path class="st19" d="M9.7,4.7c0.1,0,0.4,0,0.6,0c0.1,0,0.2,0.2,0.2,0.2c-0.1,0.1-0.6,0-0.7,0C9.6,4.9,9.7,4.7,9.7,4.7z"/>
		<path class="st20" d="M9.8,4.6c0.1,0,0.4,0,0.6,0c0.1,0,0.2,0.2,0.2,0.2c-0.1,0.1-0.6,0-0.7,0C9.6,4.8,9.8,4.6,9.8,4.6z"/>
	</g>
	<g>
		<path class="st19" d="M20.6,2.8c0.1,0,0.4,0,0.6,0c0.1,0,0.2,0.2,0.2,0.2c-0.1,0.1-0.6,0-0.7,0C20.4,3,20.6,2.8,20.6,2.8z"/>
		<path class="st20" d="M20.6,2.7c0.1,0,0.4,0,0.6,0c0.1,0,0.2,0.2,0.2,0.2c-0.1,0.1-0.6,0-0.7,0C20.4,2.9,20.6,2.7,20.6,2.7z"/>
	</g>
</g>
</svg>
