<?xml version="1.0" encoding="utf-8"?>
<!-- Generator: Adobe Illustrator 27.1.1, SVG Export Plug-In . SVG Version: 6.00 Build 0)  -->
<svg version="1.1" id="Layer_1" xmlns="http://www.w3.org/2000/svg" xmlns:xlink="http://www.w3.org/1999/xlink" x="0px" y="0px"
	 viewBox="0 0 61.9 171.2" style="enable-background:new 0 0 61.9 171.2;" xml:space="preserve">
<style type="text/css">
	.st0{fill:#F2DECD;}
	.st1{fill:#E0AE81;}
	.st2{fill:#5D6581;}
	.st3{fill:#D58482;}
	.st4{fill:#F7FCFE;}
	.st5{fill:#5D6485;}
	.st6{fill:#2C4567;}
	.st7{fill:#B9CCD6;}
</style>
<g>
	<g>
		<path class="st0" d="M60,31.2c-0.3-7.2-8.4-8.2-12.4-12.7c-2.2-2.5-1.4-6.3-3.2-9.1c-1.5-2.4-4.2-4.1-6.7-5.4
			c-2.5-1.3-5.2-2-7.9-2.9c-2.5-0.8-5.6-1.7-8.1-0.7c-1.3,0.5-2.8,1.3-4.1,2.3c-1.8,0.9-3.2,2.5-4.1,4.5c-0.5,1.1-0.5,2.4-0.3,3.5
			c0.2,1.7,1.6,3.6,1,5.3c-0.6,1.7-0.4,3.2,0.7,4.6c-4.5,2.1-9.5,3.9-9.7,9.6C5,35.5,9,40,13.3,42.5c5.5,3.2,12.2,4,18.4,4.9
			c6.8,1,14.4,1.3,20.4-2.5C56.8,42,60.2,36.7,60,31.2z"/>
		<g>
			<path class="st1" d="M34,28.9c-0.2,0-0.4,0-0.6,0.1c-0.3-0.1-0.6-0.2-0.9-0.4c-0.2-0.7-0.4-1.3-0.6-1.9c-0.4-1.4,0.8-2.9,1.4-4.1
				c0.6-1.2,0.8-2.6,1-3.9c0.2-1.8,0.1-3.7-0.2-5.5c-0.1-1.6-0.5-3-1.3-4.2c-0.5-1-1.3-1.7-2.3-2.4c-0.7-0.1-1.4-0.2-2.1-0.1
				c-0.7,0.1-1.3,0.2-1.9,0.4c-1.1,3.5-3.9,5.9-5.8,9c0,0,0,0-0.1,0.1c0.1,1.6,0.4,3.1,0.8,4.5c0.4,1.5,1.4,2.7,1.8,4.2
				c0.2,0.6,0.3,1.3,0.3,2c-0.1,0.9-0.2,2.1-0.5,2.8c0,0,0,0-0.1,0.1c-0.2,0-0.3,0.2-0.2,0.4c0.6,3.3,3.3,4.3,6,3.9
				c0.1,0,0.1,0,0.2,0c2.4-0.4,4.7-1.9,5.7-4C34.7,29.5,34.5,28.9,34,28.9z"/>
			<g>
				<path class="st2" d="M26.6,15.2c-0.5-1.3-2.5-1.1-3.6-0.9c-0.5,0.1-1,0.3-1.1,0.9c0,0.1,0,0.3,0,0.4c-0.5,0.1-1.1,0.1-1.5,0.5
					c0,0.1,0,0.1,0.1,0.1c0.5-0.2,0.9-0.1,1.4-0.3c0,0.1,0,0.2,0,0.3c0,0.4-0.1,0.7,0,1c0,0.1,0.1,0.1,0.1,0.1
					c0.1,0.2,0.3,0.4,0.5,0.4c0,0,0.1,0,0.1,0c0.4,0.3,0.9,0.3,1.3,0.3C25.7,18.2,27.2,16.8,26.6,15.2z M24.7,17.6
					C24,17.8,23,18,22.6,17.2c0,0,0,0,0,0c0,0,0-0.1,0-0.1c0.2-0.5,0-1.2,0-1.6c0-0.7,0.6-0.7,1.2-0.7c0.5,0,1.1-0.1,1.6,0
					c0.7,0.1,0.9,0.6,0.9,1.2C26.2,16.9,25.4,17.3,24.7,17.6z"/>
				<path class="st2" d="M34,13.9c-0.3-0.1-0.7,0.1-1,0.3c-0.1-0.1-0.2-0.3-0.3-0.3c-0.5-0.3-1.2-0.3-1.7-0.3
					c-0.6,0-1.8,0.2-2.2,0.8c-0.6-0.4-2.1,0.1-2.1,0.9c0,0.1,0.1,0.2,0.2,0.1c0.3-0.5,1.2-0.8,1.7-0.5c0,0,0,0,0,0
					c0,0.1,0,0.2,0.1,0.4c0.1,0.1,0.2,0.2,0.3,0.1c-0.1,0.5,0,0.9,0.2,1.4c0.3,0.7,0.9,1,1.6,1c0.7,0,1.5,0.1,2.1-0.3
					c0.6-0.3,0.4-1.3,0.3-1.8c-0.1-0.3-0.1-0.7-0.2-1.1c0.4,0,0.8-0.1,1-0.4C34.2,14,34.1,13.9,34,13.9z M32.5,16.9
					c-0.5,0.2-1,0.1-1.5,0.2c-0.5,0-0.9,0-1.3-0.4c-0.5-0.6-0.5-1.2-0.4-1.9c0.2-0.4,1.4-0.5,1.8-0.5c0.3,0,0.5,0,0.8,0
					c0.7,0.1,0.7,0.7,0.8,1.2C32.7,15.7,33,16.7,32.5,16.9z"/>
			</g>
		</g>
	</g>
	<path class="st1" d="M14.2,55.3c-0.1-1.7,0-4.4-0.9-5.8c-0.8-1.2-2.7-1.8-4-1.3c-0.1,0-0.1,0.1-0.1,0.1c-0.1-0.2-0.5-0.2-0.5,0.1
		c0,0.2,0,0.3,0,0.5c-0.1,0.4-0.1,0.9,0,1.4c0,2.5,0.1,4.9-0.4,7.3c-0.5,2.8-1.5,5.6-2.1,8.4C5,71.3,5.2,76.8,4.6,82.2
		c-0.6,4.9-5.4,15,0.3,18.5c0.3,0.2,0.7,0,0.7-0.3c0-0.1,0-0.2,0-0.2c0.3,0.2,0.6,0,0.7-0.3c0.2-0.5,0.3-1.1,0.3-1.6
		c0.1-0.1,0.2-0.2,0.2-0.3c0-0.7,0-1.3,0-2c0.3-0.9,0.3-1.9,0.3-2.9c0-0.1,0.1-0.1,0.1-0.2c0.4-3.6,0.2-7.2,1.3-10.6
		c0.3-0.8,0.6-1.7,0.9-2.5c0.2-0.4,0.4-0.8,0.5-1.3c0.7-1.7,1.4-3.4,2-5.1c0.3-1,0.6-2,0.8-3c0.8-1.8,1.1-3.9,1.2-6.1
		C14.3,61.4,14.4,58.3,14.2,55.3z"/>
	<g>
		<path class="st3" d="M44.9,29.6c-1.8-0.9-3.8-1.5-6.2-1.3c-1.5,0.1-2.9,0.3-4.3,0.6c-0.6,1.5-1.4,2.6-2.8,3.6
			c-1.4,0.9-3.1,1.4-4.7,1.4c-1.6,0-2.5-1.7-3.3-2.9c-0.3-0.6-0.8-1-1.2-1.3c-4.7-0.6-10.2-1.2-12.4,3.9c-1.7,4.1-3.4,9-3.1,13.5
			c1.1,1.7,4.6,1.5,6.2,2c0.6,3.3,0.9,6.6,0.5,10c-0.3,2.3-0.5,5,1.2,7c2.8,3.3,7.8,3.4,11.8,3.7c3.1,0.3,6,0,9.1-0.5
			c2.1-0.4,4.3-0.2,5.4-2.3c1.3-2.5,0.1-6.3,0.3-9c0.1-1.8,0.3-3.7,0.6-5.5c0.3-2.4,0.4-4.3,3.1-4.6c1.5-0.2,3.8-0.2,4.7-1.6
			c1.2-1.7,0.2-5.1-0.1-6.9C49,35.8,47.7,32,44.9,29.6z"/>
		<g>
			<path class="st4" d="M16.8,53.8c-0.1-0.3-0.5-0.2-0.4,0.1c1,3.1,2,6.4,3.6,9.3c0.1,0.2,0.4,0.1,0.3-0.1
				C19.2,59.9,17.9,56.9,16.8,53.8z"/>
			<path class="st4" d="M29.6,55.5c-1-1.6-1.8-3.6-2.5-5.4c-0.7-1.9-1.9-3.2-1.9-6.2c0,0,0,0,0,0c-0.1,3,0.7,3.2,1.2,4.8
				c0.6,1.8,1.2,3.7,2.1,5.3c1.9,3.5,4.5,6.9,7,10c0,0.1,0.2,0,0.1,0C33.7,61.1,31.5,58.5,29.6,55.5z"/>
			<path class="st4" d="M35.1,53.1c-0.3-0.8-1-1.4-1.5-2.1c-0.6-0.8-1-1.7-1.2-2.7c0-0.2-0.4-0.2-0.4,0c-0.1,1,0.4,1.9,0.9,2.7
				c0.5,0.8,1.1,1.8,1.9,2.3C35,53.5,35.2,53.2,35.1,53.1z"/>
		</g>
	</g>
	<g>
		<g>
			<g>
				<path class="st5" d="M14,147c-2.3-0.1-4.5-0.4-6.8-0.4c-0.2,0-0.4,0.2-0.4,0.4c0,1.1,0.2,2.5,0.3,3.9c0,0.1,0,0.1,0,0.2
					c-0.4,1.7-0.2,3.8,0.2,5.5c-0.3,1-0.4,2.2-0.4,3.2c-0.2,0.6-0.4,1.2-0.7,1.7c-0.1,0.1-0.1,0.2-0.2,0.3c-0.3,0.5-0.7,0.9-1.1,1.3
					c-0.2,0.1,0,0.4,0.2,0.3c0.1-0.1,0.2-0.2,0.3-0.3c-0.1,0.3-0.1,0.5-0.2,0.8c0,0.3,0.3,0.6,0.5,0.6c0.6,0.1,1.4,0.1,2.3,0
					c0,0,0,0,0.1,0c2.1-0.1,4.3-0.8,4.9-2.7c0.5-1.7,0.2-3.9,0.3-5.7c0.2-2.5,0.6-5,1-7.5c0.1-0.4,0.1-0.8,0.2-1.2
					C14.5,147.4,14.3,147,14,147z"/>
				<path class="st5" d="M49.1,149.1c-0.8-1.3-1.5-2.5-2-3.9c-0.1-0.3-0.5-0.5-0.8-0.2c-0.1,0.1-0.2,0.1-0.2,0.2
					c-0.3-0.2-0.8,0-0.7,0.5c0,0,0,0,0,0.1c-0.2,0.1-0.4,0.3-0.6,0.4c-0.2-0.1-0.6,0-0.6,0.3c0,0,0,0.1,0,0.1c-0.4,0.2-0.9,0-1.4,0
					c-0.2,0-0.4,0-0.6,0c0.7,2,1,4,1.1,6c2.3,0.4,4.6-1,5.8-2.9C49.1,149.4,49.1,149.2,49.1,149.1z"/>
			</g>
			<g>
				<path class="st6" d="M13.5,161.2c0-0.5-0.6-0.8-1-0.4c-0.9,0.8-2.8,2.2-4.5,2.5c0-0.1-0.1,0-0.2-0.1c-0.5-0.3-0.9-0.4-1.3-0.4h0
					c-0.1,0-0.2-0.4-0.3-0.4c-0.1-0.1-0.2-0.2-0.3-0.1c-0.1,0.1-0.2,0.1-0.2,0.2c0,0-0.1,0-0.1,0.1c-1.1,1-2.1,2.1-3.3,3
					c-0.8,0.6-2,1.6-2.2,2.6c-0.1,0.3,0,0.6,0,0.8c0,0,0,0,0,0.1c-0.1,0.2,0,0.5,0.2,0.6c0,0,0,0,0,0c0.5,0.9,1.5,1.4,2.7,1.5
					c3.1,0.3,5.5-1,7.6-3.3c0.8-0.9,2-2,2.6-3C13.8,163.8,13.6,162.4,13.5,161.2z"/>
				<path class="st6" d="M50.7,154.9c0-0.4-0.1-0.8-0.1-1.2c0.1-1.7,0-3.3-0.9-4.9c-0.1-0.1-0.1-0.2-0.2-0.2
					c-0.2-0.6-0.5-1.1-0.9-1.7c-0.2-0.4-0.9-0.3-0.9,0.2c-0.1,2.5-2,3.7-4.2,4.3c-0.3-0.1-0.7,0.1-0.7,0.5c0,0.5,0,1,0,1.5
					c-0.1,2.3-0.2,4.5,1.3,6.4c0.4,0.8,1,1.5,1.7,1.9c0.2,0.1,0.4,0.3,0.6,0.3c0.6,0.2,1.4,0.3,2.2,0.1c1.7-0.4,2.1-2.7,2.2-4.1
					C50.9,157,50.8,155.9,50.7,154.9z"/>
			</g>
		</g>
		<g>
			<path class="st7" d="M50.7,137.6c-0.8-3.4-1.7-6.7-2-10.2c-0.8-7.3-1.4-14.7-2.3-22.1c-0.8-7.4-1.5-14.7-2.5-22.1
				c-0.5-3.4-1.1-6.8-1.6-10.2c-0.3-2-0.6-4.2-2-5.8c-0.3-0.3-0.7-0.2-1,0c-3.2,2.4-7.7,1.7-11.4,1.2c-4.1-0.6-8.4-0.3-12.3-1.4
				c-0.4-0.1-0.8,0.1-0.9,0.5c-0.1,0.3-0.2,0.6-0.3,1c-0.1,0-0.2,0-0.2,0.2c-0.6,2.6-2.3,4.9-3.1,7.5c-0.9,2.8-1,5.9-1.4,8.8
				c-0.9,7.1-2.1,14.2-2.9,21.3C6,113,5.5,119.8,5.1,126.5c-0.4,7.3-1.7,14.4-3.2,21.5c-0.1,0.3,0.1,0.6,0.4,0.7
				c5.2,1.9,10.8,2.2,16.4,2.6c1.6,0.1,2.7,0.2,3.8-1.1c0.5-0.6,0.3-1.7,0.3-2.4c-0.1-1.7,0.2-3.5,0.4-5.2
				c0.5-7.4-0.9-14.7-0.5-22.1c0.2-3.4,0.8-6.7,1.4-10.1c0.3-2,0.5-3.9,1.1-5.9c0.2-0.6,0.4-1.2,0.5-1.8c0.6,1.7,1.4,3.3,2.2,4.9
				c1.6,3.3,1.8,6.3,2.4,9.8c0.6,3.4,1,6.9,1.7,10.3c0.7,3.7,1.7,7.3,2.3,11c0.4,2.3,0.5,10.3,4.2,10.4c2.2,0,4.2-1.1,6.2-2.1
				c2-1,4.7-1.6,6.1-3.4C51.8,141.7,51.2,139.8,50.7,137.6z"/>
			<g>
				<path class="st6" d="M14.9,94.7c-0.1,4.5-0.7,9.1-1.1,13.6c-0.4,4.5-0.4,9-0.7,13.5c-0.3,4.5-0.9,9-1.4,13.4
					c-0.2,2.2-0.5,4.4-0.7,6.6c-0.3,2.4-0.2,5.2-1,7.5c-0.1,0.2,0.3,0.4,0.4,0.2c0.6-1.2,0.5-2.6,0.6-3.8c0.3-2.5,0.6-5.1,0.8-7.6
					c0.5-4.8,0.9-9.6,1.4-14.3c0.5-4.8,0.5-9.7,0.8-14.5c0.3-4.9,1-9.7,1-14.5C15,94.6,14.9,94.6,14.9,94.7z"/>
				<path class="st6" d="M43.8,137.1c-0.6-3-1.6-5.8-2.2-8.8c-1.2-5.8-2.8-11.6-3.4-17.5c0-0.1-0.2-0.1-0.2,0
					c0.5,6,2.1,11.7,3.3,17.6c0.6,3,1.5,5.8,2.2,8.8c0.5,2.3,0.2,4.7,1.1,6.9c0.1,0.1,0.3,0.1,0.2-0.1
					C44.3,141.7,44.3,139.4,43.8,137.1z"/>
			</g>
		</g>
	</g>
	<g>
		<path class="st2" d="M59,88.6c-1.1-2.9-2.6-5.7-4-8.5c-1-2.1-1.9-4.4-4.1-5.3c-0.5-0.2-1.4,0-1.8,0.3c-1.4,0.8-2.8,1.2-4.4,1.7
			c-2.6,0.7-4.9,2-7.3,2.9c-0.8-1-1.6-1.9-2.4-3c-1.3-1.9-2.4-4-3.6-5.9c-2.5-3.9-4.4-8.2-5.9-12.6c-1.5-4.3-2.4-8.7-3.5-13.1
			c-1.3-5.2-2.1-10.4-1.5-15.7c0-0.2-0.2-0.4-0.4-0.4c-0.5,0-1-0.1-1.5-0.1c-0.2,0-0.3,0.1-0.4,0.3c-0.1,0-0.2,0-0.3,0.2
			c-1.2,4.4,0.4,9.4,0.7,13.8C19,48,19.9,53,21.3,58.1c1.3,4.7,3.1,9.4,5.3,13.7c1.7,3.5,4.2,6.3,6.7,9.2c0.8,2.7,0.3,6.2,0.5,9
			c0.4,5.2,1.2,10.5,4.3,14.8c2.7,3.8,7.2,3.1,11.2,2.4c4.9-0.8,8.6-3.7,11.5-7.7C63.5,95.9,60.4,92.2,59,88.6z"/>
		<path class="st1" d="M53.8,93.2c-0.2-2.2-1.5-4.3-2.4-6.2c-1.6-3.2-1.7-6.3-1.7-9.7c0-7.2,0.5-14.4,0.2-21.6c0-1.2,0-3.1-0.2-4.8
			c0-1.3-0.2-2.6-0.3-3.7c0.2-0.4-0.2-0.9-0.6-0.8c-0.1,0-0.2,0-0.2,0c-0.1,0-0.1,0.1-0.2,0.1c-0.8,0.3-1.7,0.3-2.6,0.4
			c-0.4,0.1-0.8,0.1-1.1,0.2c-0.5-0.1-0.9,0-1.4,0.3c-0.1,0-0.1,0.1-0.1,0.2c-0.1,0-0.2,0.1-0.3,0.1c-0.1,0.1-0.2,0.2-0.2,0.4
			c0,0,0,0.1,0,0.2c0,0.1,0,0.1,0,0.2c-0.6,1.2-0.4,2.8-0.2,4.1c0.1,0.8,0.2,1.6,0.3,2.4c0.1,2.2,0.2,4.4,0.4,6.5
			c0.5,4.8,0.8,9.5,1.1,14.3c0.2,4.3,1.2,8.3,2.3,12.4c0.6,2.2-0.3,5.4,1.8,6.9c0.3,0.2,0.8,0,0.8-0.4c0-0.7-0.1-1.4,0.1-2.1
			c0.1,0.3,0.2,0.5,0.3,0.8c0.4,2.5,0.6,6.4,2.9,5.9c0.1,0,0.1,0,0.2-0.1c0.2,0,0.4-0.1,0.5-0.3C54.3,97.9,53.9,94.6,53.8,93.2z"/>
	</g>
</g>
</svg>
