<?xml version="1.0" encoding="utf-8"?>
<!-- Generator: Adobe Illustrator 27.1.1, SVG Export Plug-In . SVG Version: 6.00 Build 0)  -->
<svg version="1.1" id="Layer_1" xmlns="http://www.w3.org/2000/svg" xmlns:xlink="http://www.w3.org/1999/xlink" x="0px" y="0px"
	 viewBox="0 0 87.2 175" style="enable-background:new 0 0 87.2 175;" xml:space="preserve">
<style type="text/css">
	.st0{fill:#D58482;}
	.st1{fill:#41485C;}
	.st2{fill:#3A3C3F;}
	.st3{fill:#B9CCD6;}
	.st4{fill:#5D6485;}
	.st5{fill:#F2DECD;}
</style>
<g>
	<g>
		<path class="st0" d="M74.4,161.9c-0.5-2.3-1.2-4.6-1.9-6.9c-0.9-3-1.3-6-1.7-9.1c-1-8.4-1.9-16.8-2.7-25.3
			c-0.8-7.9-2.3-15.3-5.8-22.5c-1.5-3-2.6-6.3-4.3-9.3c-1.5-2.6-4.1-3.4-7-3.4c-1.7,0-3.3,0.2-5-0.3c-1.3-0.3-2.5-0.7-3.8-0.9
			c-1.7-0.2-3.1,0.8-2.2,2.6c0,0,0,0.1,0.1,0.1c0,4.3,2.1,8.2,4.3,11.9c2.8,4.7,6.8,8.7,9.7,13.4c2.8,4.5,3.6,9.6,4.1,14.8
			c0.6,5.5,1.1,11.3,2.6,16.7c1.5,5.4,4,10.3,5.6,15.7c0.8,2.7,1.4,7.8,4.7,8.3c0.9,0.2,3.1-0.3,3.7-1
			C75.6,165.6,74.6,162.9,74.4,161.9z"/>
		<path class="st0" d="M52.6,86.9c-0.9-3.7-5.3-3.4-8.1-3.7c-2-0.2-3.5-0.1-4.8,1.7c-0.2,0.3-0.4,0.7-0.6,1
			c0.3,4.9-2.5,9.6-3.8,14.1c-1.7,6-3.2,12.3-7.3,17.1c-2.3,2.8-5,5-7.3,7.8c-2.2,2.8-4.2,5.8-5.9,8.9c-3.1,5.7-5.8,11.6-9.3,17.1
			c-0.3,0.4-0.8,0.4-1.1,0.2c0,0.1-0.1,0.1-0.1,0.2c-0.1,0.1-0.1,0.2-0.2,0.4c-0.1,0.1,0,0.3,0.1,0.2c0,0.9,0.7,1.5,2.1,1.4
			c3.2-0.2,5.8-2.8,8-5.1c3.6-3.7,6.4-8.2,9.7-12.2c1.8-2.1,3.5-4.3,5.4-6.3c0.9-0.9,1.7-1.8,2.6-2.6c1-1,2.3-1.2,3.4-1.8
			c3.6-1.8,5.9-6.1,7.4-9.9c0.9-2.2,1.6-4.5,2.5-6.7c1.2-2.7,2.4-5.3,3.6-8c1-2.3,1.9-4.7,2.6-7.1C52.2,91.7,53.1,89,52.6,86.9z"/>
	</g>
	<g>
		<path class="st1" d="M86.8,172.3c-0.2-0.2-0.5-0.2-0.7-0.3c-0.9-0.2-1.8-0.6-2.6-1c-1.7-0.8-3.3-2.2-4.7-3.4
			c-1.2-1-2.5-2.1-3.4-3.4c-0.4-0.6-1.2-1.2-1.9-0.6c-0.4,0.3-0.4,0.8-0.2,1.2c-1.1,0.4-2.2,0.5-3.3,0.8c-0.5-0.1-0.9-0.3-1.3-0.6
			c-0.3-0.2-0.7,0-0.7,0.3c-0.1,0.5-0.2,1.1-0.2,1.6c-0.4,1.2-0.7,2.4-0.9,3.6c-0.1,0.8-0.3,2.1-0.1,2.9c0.3,0.8,1,0.9,1.8,1
			c1.4,0.1,2.5,0.2,3.9,0.5c0.4,0.1,0.8-0.3,0.9-0.7c0.1-0.4,0.1-0.7,0.1-1.1c0-0.1,1.5,0.8,1.8,0.9c3,1.3,6.1,1.3,9.3,0.7
			c0.8-0.1,2-0.2,2.6-0.9C87.3,173.4,87.2,172.6,86.8,172.3z"/>
		<path class="st1" d="M16.2,164.9c-0.1-0.2-0.3-0.4-0.4-0.6c-0.6-0.6-1-1.4-1.5-2.1c-0.9-1.5-1.4-3.4-1.9-5.1
			c-0.4-1.4-0.8-3-0.8-4.4c0-0.7-0.3-1.5-1.2-1.5c-0.5,0-0.7,0.4-0.8,0.8c-1-0.3-1.9-0.8-3-1.1c-0.3-0.3-0.6-0.7-0.7-1.2
			c-0.1-0.3-0.5-0.4-0.7-0.2c-0.4,0.4-0.7,0.7-1,1.1c-0.9,0.7-1.8,1.4-2.6,2.3c-0.5,0.6-1.4,1.4-1.6,2.2c-0.2,0.8,0.3,1.2,0.9,1.7
			c1,0.8,1.8,1.5,2.7,2.5c0.3,0.3,0.8,0.2,1.1,0c0.2-0.2,0.5-0.5,0.7-0.8c0,0,0.8,1.4,0.9,1.6c1.6,2.6,4.1,4.2,6.8,5.5
			c0.7,0.3,1.7,0.9,2.5,0.7C16,166.1,16.3,165.4,16.2,164.9z"/>
	</g>
	<g>
		<path class="st0" d="M70.8,17.7c0.4-2.2-0.1-5.5-2.8-5.7c-2.5-0.2-4.6,1.8-6,3.7c-0.1,0.2-0.3,0.3-0.4,0.5c-0.6,0.6-1-0.7-1.3-0.9
			c-0.5-0.4-1-0.5-1.6-0.5c-0.8,0-1.5,0.8-1.6,1.5c-0.1,0.5-0.1,1,0.1,1.5c0.5,1.3,0.6,2.3,0.2,3.7c-0.1,0.2-0.1,0.3-0.2,0.5
			c0,0.1,0,0.1,0,0.2c-0.2,1.2-0.5,2.5-1,3.6c-0.5,1.1-1.1,1.5-1.9,2c-0.3,1.5,1.2,2.8,2.6,3.5c1.1,0.6,2.4,0.9,3.6,1.2
			c1,0.3,1.3-0.3,1.7-1.2c0.2-0.5,1.3-4.6,1.5-4.6c1.1,0.4,2.5,0.5,3.5-0.1c1.2-0.6,1.7-1.6,2-2.8c0.2-0.4,0.5-0.8,0.7-1.2
			c0.7-0.1,1.3-0.3,1.4-1.3C71.5,20.2,71.2,19,70.8,17.7z"/>
		<g>
			<path class="st1" d="M72.2,10.7c-0.6-1.5-1.6-2.3-2.7-2.8c-1.6-1.4-3.6-2.1-5.8-2.5c-1.3-0.3-3.6-0.2-4.8,0.8
				c-0.1,0-0.1,0.1-0.2,0.1c0.2-1.2-0.1-2.8-0.4-3.5C57,0,53.8-0.6,51.2,0.5c-2.7,1.1-5.2,3.5-4.4,6.7c0.1,0.3,0.2,0.7,0.4,1
				c0,0,0,0,0,0c0.2,0.6,0.5,1.1,1,1.5c0.7,0.7,1.6,0.8,2.5,1.1c0.6,0.3,1.1,0.5,1.4,1c-0.2,0.4-0.3,0.7-0.4,1.1c-0.6,2-0.3,4,0.3,6
				c0.4,1.1,0.7,2.3,1.2,3.4c0.7,1.5,1.8,2.5,2,4.2c0,0.3,0.4,0.3,0.5,0.1c1.1-1.5,2.2-3,2.7-4.8c0.4-1.5-0.6-3-0.8-4.4
				c0.4-0.5,1.1-0.9,1.9-0.8c0.5,0,0.9,0.3,1.2,0.6c0.1,0.5,0.4,1,0.6,1.6c0,0.1,0.1,0.1,0.2,0.1c0,0,0.1,0,0.1,0
				c0.1,0,0.2-0.1,0.3-0.2c0.6-2.1,2.4-4.1,4-5.5c1.3-1.1,2.4-0.9,3.7-0.1c1.4,0.9,1.2,3,1,4.4c0,0.3,0.4,0.5,0.6,0.3
				C73,15.8,73.2,13,72.2,10.7z"/>
			<path class="st2" d="M50.4,2C50.4,2,50.4,2,50.4,2C50.4,2,50.4,2,50.4,2z"/>
		</g>
		<path class="st3" d="M58.9,4.3c-0.2-0.1-0.5-0.1-0.6,0.1c-0.3,0.7-0.6,1.4-0.9,2.1c-0.1,0.1-0.2,0.2-0.2,0.3
			c-0.8,1.2-2.3,2.4-3.6,3c-0.4,0.2-0.9,0.4-1.2,0.6c-0.4,0.1-0.9,0.2-1.4,0.2c-0.2,0-0.2,0.3,0,0.4c0,0,0,0,0,0.1
			c-0.2,0.4-0.1,1,0.1,1.5c1,2,5-1.1,5.9-1.9C58.2,9.5,61.3,5.9,58.9,4.3z"/>
	</g>
	<g>
		<path class="st3" d="M66.9,50.3c0.4-6.6-1.6-12.9-5-18.5c-0.4-0.1-0.9-0.1-1.6,0.2c-1.5,0.5-3.4-0.3-4.6-1.3
			c-0.7-0.6-1.1-1.5-1.5-2.3c-0.8,0.9-2,1.7-2.8,2.3c-0.9,0.6-1.9,1.2-2.8,1.7c-3.6,4.5-5.6,9.9-6.8,15.8c-1.4,7-1.9,14.9-5.4,21.3
			c-2.8,5.1-6.7,9.1-11.6,12c-1.8,1.6-3.7,3.1-5.8,4.2c-1.9,1.1-3.7,2-5.4,3.3c-1.7,1.2-3.5,2.8-5.6,3.5c2.6,2.2,5.6,6.7,7.5,9.5
			c0.4,0.3,0.9,0.7,1.3,1c2.3,1.7,5.6,1.9,8.3,1.4c3-0.5,5.5-2.1,8.1-3.3c2.4-0.3,4.7-0.9,7.1-0.2c2.1,0.6,4,1.6,6.2,1.4
			c2.5-0.3,4.8-1.5,7.3-2c2.7-0.5,5.6-0.5,8.4-0.7c1.4-0.1,2.9-0.4,4.3-0.4c-0.6-3.8-0.2-8-0.9-11.7c-1.1-5.9-2.8-11.9-2.5-18
			C63.6,62.9,66.6,56.8,66.9,50.3z"/>
		<g>
			<path class="st4" d="M36.9,75.9c-5.3,6.5-10,13-17,17.9c0,0,0,0.1,0,0c7.1-4.3,12.6-11,17.2-17.8C37.2,75.9,37,75.8,36.9,75.9z"
				/>
			<path class="st4" d="M34.5,90.6c-1.3,1.3-2.6,2.9-3.4,4.5c-0.1,0.2,0.2,0.3,0.3,0.2c0.6-0.8,1.2-1.6,1.8-2.4
				c0.5-0.7,1.2-1.3,1.6-2.1C34.9,90.6,34.6,90.4,34.5,90.6z"/>
			<path class="st4" d="M48.9,93c-0.8,1.1-1.4,2.5-1.7,3.8c-0.1,0.2,0.3,0.3,0.3,0.1c0.4-1.4,1.2-2.5,1.7-3.8
				C49.2,93,48.9,92.9,48.9,93z"/>
			<path class="st4" d="M56.7,93c-0.4,0.6-0.7,1.4-0.7,2.1c0,0.3,0.4,0.3,0.4,0c0-0.7,0.4-1.3,0.6-2C57.1,93,56.8,92.9,56.7,93z"/>
		</g>
	</g>
	<g>
		<g>
			<path class="st5" d="M78.3,34.7c-0.2-0.5-0.5-0.9-0.8-1c-0.3-0.1-0.5-0.1-0.8-0.1c-0.2-0.1-0.5-0.1-0.8-0.2c-0.2,0-0.4,0-0.5,0
				c-0.3,0-0.7,0-1.1-0.1c0-0.4-0.1-0.9-0.1-1.3c-0.1-1.3-0.1-2.7-0.1-4c0-0.8,0.4-1.9-0.8-1.7c-0.1,0-0.2,0.1-0.2,0.2
				c0,1.1,0.2,2.2,0.2,3.2c0,1.2,0,2.3,0.1,3.5c-1.3,0-2.5,0-3.7,0.2c-1.1,0.1-1.5,1.6-0.7,2.3c0,0,0,0,0,0v0c0,0.1,0.1,0.3,0.2,0.3
				c0.1,0.1,0.3,0.2,0.5,0.2c0,2.2,0.4,4.3,0.3,6.5c-0.1,1.7-0.3,3.6,0.6,5.1c0.1,0.1,0.1,0.1,0.2,0.1c0.3,0.3,0.8,0.4,1.5,0.5
				c1.3,0,2.9,0.1,3.7-1.1c0.9-1.4,0.6-3.8,0.8-5.3c0.2-1.8,0.6-3.6,0.7-5.4c0.1,0,0.2,0,0.2,0c0.6-0.1,0.7-0.9,0.6-1.6
				C78.5,35,78.4,34.8,78.3,34.7z"/>
			<path class="st0" d="M75.6,42.3c-1.4-0.6-3,0.4-4.4,1c0.1-0.2,0.1-0.6-0.2-0.7c-0.4-0.1-0.8,0-1.2,0.2c-0.6,0.2-0.9,0.7-1.2,1.2
				c-0.5,0.9-1,1.8-1.4,2.7c0-0.1,0-0.2,0-0.4c-0.6,1.4-1.6,2.2-2.7,3.2c-2.4,2-5.1,3.7-7.8,5.3c-1.5,0.9-3.4,1.5-5,2.4
				c2.2-6.2,5.3-12.5,4.7-19.1c-0.3-2.7-2-4.7-4.7-5c-0.7-0.1-1.4,0.1-2.1,0.5c-1.6,0.6-2.6,3.3-3,4.7c-0.1,0.3-0.1,0.5-0.2,0.8
				c-0.5,1.6-0.7,3.2-0.9,4.9c0,0.2-0.1,0.4-0.1,0.6c-0.1,0.6-0.2,1.2-0.2,1.7c-0.1,0.5-0.1,0.9-0.1,1.4c0,0.1,0,0.1,0,0.2
				c-0.4,2.6-0.7,5.2-0.7,7.8c-0.2,1.9-0.2,3.8,0.4,5.5c0.1,0.6,0.3,1.2,0.6,1.8c0.6,1.3,1.4,2.5,2.9,2.9c1.4,0.4,3-1,3.8-1.9
				c1.5-1.5,3.3-2.5,5-3.7c2-1.4,3.7-3.1,5.6-4.7c0.8-0.7,1.6-1.4,2.4-2.1c1.4-0.9,2.9-1.7,4.3-2.5c1.1-0.6,2.5-1.4,3.6-2.4
				c0.2-0.1,0.4-0.2,0.6-0.4c0.7-0.5,1.7-1.1,2.3-1.8c0.8-0.6,1.4-1.3,1.6-2C77.5,43.5,76.6,42.3,75.6,42.3z M67.9,51.1
				c-0.2,0.1-0.4,0.3-0.6,0.4c0.1-0.1,0.2-0.1,0.3-0.2c0.6-0.3,1.2-0.7,1.7-1c0.4-0.3,0.9-0.6,1.3-0.9c0,0,0,0.1,0,0.1
				C69.7,50.1,68.8,50.6,67.9,51.1z"/>
		</g>
		<path class="st4" d="M66.4,78.6c-0.2-1.9-0.8-3.8-1.5-5.6c-0.6-1.6-1.3-3.5-2.4-4.8c-0.8-0.8-2-0.9-3.1-0.9
			c-0.1-0.5-0.4-1.1-0.4-1.6c0,0,0,0,0,0c0-1.9-0.3-3.8-0.7-5.7c0-0.2-0.1-0.5-0.1-0.7c-0.4,0.3-0.7,0.7-1.1,1
			c0.1,0.5,0.3,1.1,0.4,1.7c0,0.2,0,0.3,0,0.5c0,0.7,0,1.4,0,2.1c-0.1,0.9-0.3,1.8-0.3,2.8c-1,0-1.9,0.3-2.8,0.5
			c-1,0.2-1.9,0.2-2.9,0.3c0-0.4,0.1-0.8,0.1-1.1c0.1-0.6,0.2-1.3,0.2-2c0.3-2.6,0.9-5.2,2-7.4c0.3-0.7,0.8-1.2,1.3-1.4c0,0,0,0,0,0
			c0.3-0.3,0.6-0.6,1-0.9c-0.3-0.2-0.7-0.3-1.1-0.2c-0.2,0-0.2,0.1-0.3,0.2c-1.5,0.2-2.3,1.7-3,3c-1.2,1.4-1.6,3.4-1.9,5.2
			c-0.2,0.8-0.4,1.7-0.6,2.5c-0.2,0.7-0.3,1.5-0.2,2.1c-0.8,0-1.5,0-2.3,0.1c-3.3,0.3-4.6,5.8-5.1,8.3c-0.2,1.5-1.1,4-0.2,5.4
			c0.7,1.2,2.1,1.5,3.4,1.6c2.6,0.3,5.1,0.1,7.7,0.3c2.5,0.2,5,0.7,7.6,0.4c1.8-0.2,3.6-0.6,5-1.7C66.4,81.5,66.6,80.3,66.4,78.6z"
			/>
	</g>
</g>
</svg>
