<?xml version="1.0" encoding="utf-8"?>
<!-- Generator: Adobe Illustrator 27.1.1, SVG Export Plug-In . SVG Version: 6.00 Build 0)  -->
<svg version="1.1" id="Layer_1" xmlns="http://www.w3.org/2000/svg" xmlns:xlink="http://www.w3.org/1999/xlink" x="0px" y="0px"
	 viewBox="0 0 59.7 172.8" style="enable-background:new 0 0 59.7 172.8;" xml:space="preserve">
<style type="text/css">
	.st0{fill:#D58482;}
	.st1{fill:#41485C;}
	.st2{fill:#E0AE81;}
	.st3{fill:#663759;}
	.st4{fill:#B9CCD6;}
	.st5{fill:#FFFFFF;}
	.st6{fill:#5D6581;}
</style>
<g>
	<g>
		<path class="st0" d="M9.6,99.8c0.1,1.7,0.3,3.3,0.6,5c0.9,4.2,1.5,8.5,1.9,12.8c0.4,4.3-0.2,8.6,0,12.9c0.2,4,0.5,8.1,1.2,12.1
			c0.7,4.1,2.1,8.5,3.3,12.5c1,3.6,0.3,6.6,0.4,7.2c0.1,1,0.6,0.7,1.5,1.4c1.1,0.9,2.3,1.3,3.7,0.9c1.3-0.4,1.6-3.1,1.4-3.1
			c0-0.8-0.8-4-1-4.9c-0.3-1.3-0.3-2.8-0.3-4.1c-0.2-6.5,0.8-12.8,1.4-19.3c0.5-6.5,0.7-13,0.4-19.4c-0.2-3.3-0.2-6.5-0.4-9.8
			c0-0.7,0.1-2.3-0.3-3c-0.3-0.4-0.9-0.5-1.3-0.6c-1.8-0.3-3.6-0.5-5.5-0.6c-1.9-0.1-3.8-0.5-5.7-0.7C10.1,99.1,9.6,99.1,9.6,99.8z"
			/>
		<path class="st0" d="M19.4,114.4c-0.2,2.8,0.2,5.6,1.2,8.2c2.3,6.7,6.6,12.4,7.5,19.6c0.3,2.1,0.7,4.3,0.3,6.3
			c-0.3,1.3,0.1,2.7,0.6,3.5c0.9,1.7,3.9-0.6,4.6-1.4c0.8-0.9,1-2.9,0.9-4c-0.1-1.9-0.2-3.7-0.1-5.6c0.2-3.9,0.8-7.8,0.3-11.7
			c-0.2-1.7-0.6-3.4-1.4-4.9c-0.9-1.7-2.5-3.4-2-5.5c0.8-3.7,2.3-7.2,3.5-10.8c0.3,0,0.5-0.4,0.2-0.6l-0.2-0.2
			c-0.1-0.2-5.1-1.8-7.6-2.1c-1.4-0.2-2.9-0.3-4.3-0.3c-0.7,0-1.1,0.1-1.5,0.6c-1,1.1-0.8,2.6-1.1,3.9
			C19.8,111,19.5,112.7,19.4,114.4z"/>
	</g>
	<g>
		<path class="st1" d="M10.2,171.4c0.5-1.9,3.4-4.3,4.1-5.1c0.9-0.9,1.5-2.3,2.1-3.5c0.1-0.1,0.1-0.3,0.2-0.4c0.5,0.2,1,0.3,1.6,0.3
			c2,0.2,3.9-0.6,5.3-2.1c0.3,1.2,0.8,3.6,0.7,4.4c0,0,0,0.1,0,0.1c-0.6,2.9-5.5,5.8-7.7,6.7c-1.8,0.8-4.3,1.4-5.9,0.1
			C10.4,171.8,10.3,171.6,10.2,171.4z"/>
		<path class="st1" d="M27.9,154.5c0.1-0.4,0.3-3.7,0.4-4.5c0.8,0.9,1,1.7,2.4,1.6c2.4-0.2,3.1-1.9,3.6-4c0.1-0.3-0.1-0.9,0-1.2
			c0.5,0.5,1,3.3,1,3.6c-0.2,1.6-0.1,2.7-0.2,3.7c-0.2,1.1-0.2,2.1-0.4,3.3c-0.2,0.8-0.4,1.5-0.6,2.3c-0.7,1.4-1.7,2.7-3.1,3.4
			c-2,1-3.3,0.1-4.1-1.5c0-0.1-0.1-0.2-0.1-0.4c0.1-1,0.3-2,0.4-2.9C27.5,156.7,27.6,155.6,27.9,154.5z"/>
	</g>
	<g>
		<path class="st2" d="M49.6,103.8c-0.1-0.2-0.2-0.5-0.2-0.7c-0.9-3-1.6-6-2.2-9.1c-0.6-2.6-1.3-5.1-2-7.6
			c-1.7-5.7-2.6-11.5-4.1-17.2c-0.7-2.6-1.8-5.1-2.4-7.6c0,0,0,0,0,0c-1.5,0.1-3.5-0.1-4.8,0.5c-2.3,1-4.1,1.4-6.5,0.7
			c-2.8-0.8-5.5-1.2-8.3-2.1c-1.4-0.4-2.9-0.2-4.2,0.4C10.1,70.2,5.2,79.2,3,89.5c-1.5,7.2-1.5,14.5-2.2,21.7c1,0.6,2.5,0.5,3.7,0.9
			c0.8,0.2,1.3,0.5,2.1,0c2-1.4,4.2-2.2,6.3-0.5c1.2,1,2.2,1.9,3.7,2.4c1.5,0.5,3.1,0.4,4.6,0.2c3.8-0.5,7.3-2,11.2-1.5
			c1.6,0.2,3.1,1.2,4.7,1.2c1.8,0,3.8-1.1,5.6-1.6c2.1-0.6,4.1-0.5,6.2-0.6c0.8,0,2.2-0.1,3.1-0.6C51.1,108.6,50.3,106.3,49.6,103.8
			z"/>
		<g>
			<path class="st3" d="M8,86.4c-0.1-0.5-0.8-0.4-0.8,0.1c0.5,3.4-0.8,7-0.8,10.5c0,3.6-0.1,7.2-0.2,10.8c0,0.2,0.3,0.3,0.3,0
				c0.3-3.6,0.6-7.1,0.6-10.7c0-2.2,0.1-4.1,0.7-6.2C8.2,89.3,8.3,88,8,86.4z"/>
			<path class="st3" d="M41.5,107.2c-2.8-4.7-4.7-9.7-6.1-15c-1.2-4.5-1.7-9.3-3.2-13.7c-0.1-0.3-0.4-0.1-0.4,0.1
				c0.9,9.7,4,20.5,9.4,28.8C41.3,107.5,41.6,107.3,41.5,107.2z"/>
			<path class="st3" d="M26.7,96.8c-0.1-0.3-0.4-0.2-0.4,0.1c0.3,2.8,0.5,5.7,1.2,8.4c0,0.2,0.3,0.1,0.3,0
				C27.5,102.4,27.5,99.5,26.7,96.8z"/>
			<path class="st3" d="M16.6,100.8c0-0.2-0.3-0.3-0.4,0c-0.4,2.4-0.7,5-0.1,7.4c0.1,0.2,0.4,0.2,0.4-0.1
				C16.2,105.6,16.6,103.2,16.6,100.8z"/>
		</g>
	</g>
	<path class="st1" d="M14.1,16.1c0.4,1.8,0.2,3.7,0.7,5.4c0.3,1.1,0.8,2,1.6,3c1.7,2.1,1.4,4,1.6,6.5c0.1,1.2,1,2.1,1.6,3
		c0.5,0.8,1.1,1.6,0.7,2.5c-0.2,0.4-0.5,1-0.5,1.5c0.1,2.5,0.3,5.1,1.2,7.4c1,2.7,3.7,4.9,5.6,6.9c1.8,2,3.6,4.2,6.3,5.1
		c2.8,0.9,5.5,2.6,8.6,1.8c1.5-0.4,2.7-1,4.1-1.6c1.5-0.7,3.2-1,4.7-1.6c1.7-0.7,5.5-2.3,6-4.4c0.4-1.5,0.9-1.9,2.1-2.8
		c0.7-0.5,1-1.1,1.2-1.9c0.6-2.4-0.1-5.5-1.2-7.7c-0.5-1.1-1.1-2.2-2-3c-0.3-0.3-0.7-0.5-1.1-0.7c-1.6-1.1-0.7-1.5-0.8-2.7
		c-0.2-2.4-1.3-4.8-3.3-6.2c-0.5-0.4-1.2-0.6-1.7-1c-1.7-1.2-0.7-1.4-1.3-2.5c-0.7-1.3-1.5-2.5-2.6-3.5c-1.1-1-2.1-1.4-3.5-2
		c-0.9-0.4-1.4-0.8-1.5-1.3c0.4-1.1,0.2-2.4-0.1-3.7c-0.3-2.3-0.5-4.8-2-6.8c-0.2-0.3-0.4-0.7-0.7-1c-3.6-4.1-9.8-4.7-14.9-3.7
		c-5.6,1.1-8,5.1-8.8,10.2C13.6,13.1,13.7,14.6,14.1,16.1z"/>
	<path class="st0" d="M34.2,31.7c-3-1.4-3.4-5.3-3.3-8.9c0.4-0.4,0.8-0.8,1.1-1.2c1.5-1.9,2-4.6,2.3-7c0.2-2.1-0.1-4.1-1.3-5.8
		c-0.7-1-1.7-1.7-2.7-2.2c-2.5,3.4-5.4,6.3-8.7,8.9c0.2,1.7,0.6,3.4,1.2,4.9c0.3,0.6,0.6,1.1,0.9,1.6c0,0.9,0.1,1.9,0.1,2.8
		c-0.1,2.4-2.1,4.5-4.2,5.1c-0.1,0-0.1,0-0.2,0c-0.1,0-0.1,0.1-0.2,0.1c0,0-0.1,0-0.1,0c-0.1,0-0.1,0.3,0,0.3c0.1,0,0.3,0,0.4,0
		c2,0.8,4,1.9,6.1,2.1c2.7,0.3,5.5,0.6,8.3,0.2c0.2,0,0.2-0.2,0.2-0.3C34.3,32.2,34.4,31.8,34.2,31.7z"/>
	<path class="st0" d="M20.9,86.8c0.7,0.5,0.8-0.6,0.8-1c-0.2-1.1-0.9-2.3-1.6-3.2c-0.8-1.1-1.6-2.2-2.3-3.3
		c-0.1-0.2-0.2-0.4-0.3-0.5c-0.2-0.5-0.4-1-0.7-1.4c-0.2-0.7-0.5-1.4-0.9-2.1c-0.1-0.2-0.4-0.3-0.6-0.1c-0.1,0.1-0.3,0.2-0.5,0.4
		c-0.6,0.3-1,0.4-1.6,0.8c-0.1,0-0.1,0-0.2,0c0,0,0,0-0.1,0c-0.1,0-0.1,0-0.1,0.1c-0.1,0.1-0.1,0.1-0.1,0.2c0,0,0,0,0,0
		c-0.1,0.1-0.1,0.1-0.1,0.2c0,0.1-0.1,0.1,0,0.2c0.4,1.5,1,2.8,1.6,4.2c0.7,1.9,1.2,3.6,2.1,5.4c0.5,0.9,2.3,2.3,3.7,2.4
		c0.1,0.1,0.3,0.1,0.4,0.2c0.6,0.2,2.4,0.7,2.3-0.4c0-0.6-1.1-0.9-1.5-1.1c-1-0.6-2-2.2-2.3-3.4C19.8,84.9,20,86.1,20.9,86.8z"/>
	<path class="st4" d="M13.3,64.8c-0.7-2.4-1.1-4.8-1.3-7.2c0-0.7-0.1-1.4-0.1-2.1c0-1.1,0.1-2.1,0.3-3.1c0.4-0.9,0.7-2,0.9-3.1
		c0,0.2,0.1,0.4,0.1,0.7c0,0.1,0,0.2,0,0.4c0.2,0.7,0.4,1.3,0.6,1.9c0.7,2.4,0.8,5.1,0.8,7.7c0.1,0.3,0.1,0.6,0.2,0.9
		c0,0.1,0,0.1,0,0.2c3.3,1.3,8.5,1.9,11.8,2.1c3.9,0.2,7.5-0.3,11.1-1.4c-0.5-0.9-0.3-3-0.2-3.7c0.1-1.8,0.6-3.6,0.8-5.4
		c0.4-3.9,0.5-7.9,1-11.8c0.3-1.8,0.6-3.6,0.9-5.4c0.2-1.1,0.2-2.5-0.6-3.4c-0.3-0.3-0.6-0.4-1.1-0.5c-0.1,0-0.1-0.1-0.2-0.1
		c-0.2-0.1-0.5-0.2-0.7-0.2c-0.4-0.2-0.9-0.4-1.4-0.5c-0.5-0.2-1-0.4-1.5-0.6c-0.7-0.2-1.3-0.2-1.9,0.2c-0.4,0.3-0.7,0.5-1.1,0.6
		c-0.2,0-0.3,0-0.5,0c-1.4,0.1-2.9,0.1-4.3,0c-1.4-0.1-2.7-0.3-4.1-0.5c-1.3-0.2-2.9-0.4-4.1-1.2c-0.1,0-0.1,0-0.2,0
		c-2-0.2-4,0.6-5.6,1.7c-2.1-0.3-3.3,2.1-4.1,3.6C8.4,36,8,37.2,7.6,38.6c-1.1,5.1-2.5,10-2.2,15.4c0.1,2.3,0.3,4.6,0.5,7
		c1.6,7,3.2,14.1,7.4,20.1c0.2,0.2,0.5,0.2,0.7,0c1.1-1.4,3-1.7,4-3.2c0.1-0.2,0.1-0.4,0-0.5C15.5,73.8,14.4,68.7,13.3,64.8z"/>
	<path class="st4" d="M38.6,58.5c0.9,1.1,0.8,2.6,0.6,3.9c-0.1,0.7-0.4,1.4-0.8,2.1c0,0.1-0.1,0.2-0.1,0.2c0.7,0.4,2.8,0.2,3.3,0
		c0.3-0.1,0.6-0.2,0.9-0.3c0,0,0.1-0.1,0.1-0.1c1.6-1.8,1.5-4.6,2.2-6.8c1.6-5,2.1-10.5,1.7-15.8c-0.2-2.3-0.7-4.9-1.9-6.9
		c-1-1.6-4-2.5-4.1-2.5c-0.6-0.9-1.3,0.5-1.5,1.4c-0.4,1.4-0.2,3.1-0.3,4.5c-0.1,1.7-0.7,3.4-0.7,5.1c0.1,1.9,0.7,3.7,1,5.5
		c0.3,1.7,0.4,3.4,0.1,5.1c-0.1,0.8-0.6,1.1-1,1.6c-0.1,0.1-0.1,0.7-0.1,0.8c-0.1,0-0.3,0.5-0.4,0.5h0c-0.1,0-0.2-0.4-0.3-0.4
		c-0.2,0.1-0.4-0.1-0.6-0.1c-0.2,0.1-0.3,0.2-0.1,0.4C37.2,57.3,38,57.8,38.6,58.5z"/>
	<g>
		<g>
			<path class="st5" d="M9.7,50C9.6,49.3,11.6,36,11.6,36l11.5,5l-0.6,12.8L9.7,50z"/>
			<path class="st5" d="M10.9,49C10.8,48.3,12.7,35,12.7,35l10.3,6l0.5,11.8L10.9,49z"/>
			<path class="st5" d="M35.8,51.5c0.1-0.7-0.3-14.1-0.3-14.1l-11.7,3.6l-1.1,12.9L35.8,51.5z"/>
			<path class="st5" d="M34.7,50.3c0.1-0.7-0.3-14.1-0.3-14.1l-11,4.8l-1.8,11.6L34.7,50.3z"/>
		</g>
		<polygon class="st6" points="24.2,55.1 22.2,54.9 23,40.8 25,40.8 		"/>
		<g>
			<path class="st1" d="M9.4,51.3c-0.1-0.7,1.1-14.2,1.1-14.2L23.1,41l-0.8,13.9L9.4,51.3z"/>
			<path class="st1" d="M36.4,52.5c0.1-0.7,1-14.3,1-14.3L25,40.8l-0.8,14.3L36.4,52.5z"/>
		</g>
	</g>
	<path class="st0" d="M39.6,63.6c0.3-0.7,0.7-1.3,0.6-2.2c-0.1-1.3-0.5-2.3-1.2-3.2c-0.6-0.8-1.9-1-2.7-1.2
		c-1.4-0.4-2.9-0.8-4.2-1.5c-1.3-0.7-2.8-1.1-4-2c-0.8-0.6,0.2-2.6-0.6-3.1c-0.4-0.3-0.8,0.1-1.1,0.4c-0.5,0.5-0.9,0.9-1.6,1
		c-0.8,0.1-1.6,0-2.3-0.3c-0.8-0.3-1.1-1.6-2.1-1.4c-0.6,0.1-0.8,1.1-0.9,1.7c-0.1,0.9,0.5,1.9,1,2.6c0.7,1.1,1.5,1.8,2.6,2.3
		c2.7,1.2,5.3,2.8,8,4.3c1.4,0.8,2.9,1.4,4.4,2.2c1.1,0.6,2.1,1.3,3.3,1.5C39,64.2,39.3,63.9,39.6,63.6z"/>
</g>
</svg>
