<?xml version="1.0" encoding="utf-8"?>
<!-- Generator: Adobe Illustrator 27.1.1, SVG Export Plug-In . SVG Version: 6.00 Build 0)  -->
<svg version="1.1" id="Layer_1" xmlns="http://www.w3.org/2000/svg" xmlns:xlink="http://www.w3.org/1999/xlink" x="0px" y="0px"
	 viewBox="0 0 47.2 170.6" style="enable-background:new 0 0 47.2 170.6;" xml:space="preserve">
<style type="text/css">
	.st0{fill:#F2DECD;}
	.st1{fill:#41485C;}
	.st2{fill:#5D6485;}
	.st3{fill:#D58482;}
	.st4{fill:#FFFFFF;}
	.st5{fill:#663759;}
	.st6{fill:#F7FCFE;}
</style>
<g>
	<g>
		<g>
			<path class="st0" d="M4.2,144.4c0.6,3.3,0.8,7.8,4.6,8.8c1.2,0.3,2-0.8,2-1.8c0-2.1-0.3-4.1-0.1-6.2c0.2-2.6,1.1-5,2.6-7.2
				c1.4-2,3.2-3.1,5.2-4.3c4.5-2.7,9.3-4.8,13.9-7.6c4-2.4,7.9-5,10.6-9c2.3-3.4,1.1-8.1,0-11.7c-0.8-2.6-1.5-5.1-2.4-7.7
				c-0.9-2.4-1.7-4.8-2.7-7.2c-1.1-2.5-2.3-4.9-3.1-7.4c-0.7-2-1.5-3.8-2.7-5.6c0.1-0.3-0.1-0.7-0.5-0.7c-2.1-0.2-4.6-0.6-6.6,0.3
				c-1.8,0.8-3.5,2-5.2,3.1c-1.1,0.7-2.5,1.7-2.8,3.1c-0.3,1.9,0.1,4,0.8,5.7c1.9,4.5,5.1,8.5,7.3,12.9c2.2,4.5,4.1,9.2,6.4,13.6
				c0,0.1,0.1,0.1,0.1,0.1c-0.1,0.4-0.4,0.7-1,0.8c-0.8,0.2-1.6,0.3-2.3,0.6c-3.7,1.5-7.3,2.9-10.4,5.4c-3,2.3-4.3,5.7-6.4,8.7
				c-0.7,1-1.3,2-2.5,2.3c-0.6,0.2-1.2,0.4-1.8,0.6c-1.3,0.6-3,1.3-3.8,2.5C1.7,139.2,3.8,142,4.2,144.4z"/>
			<path class="st0" d="M7.4,88.7c0.6,5,1.8,9.8,3.8,14.4c1,2.3,2.3,4.5,3.4,6.8c1.2,2.4,1.8,4.9,2.4,7.5c0.4,1.7,1,3.5,0.7,5.2
				c-0.2,1.2-0.6,2.3-0.9,3.5c-0.7,2.3-1.1,4.6-1.3,7c-0.4,5.5,0.3,11.1,1.1,16.5c0.4,2.8,0.9,5.5,0.9,8.3c0,1.4,0.2,3-0.2,4.3
				c-0.2,0.8-0.7,1.6-0.9,2.4c-1.2,4.2,4.4,2.9,6.7,3.5c3.3,0.8,7.3,1.8,10.4,0c0.2-0.1,0.3-0.3,0.2-0.5c-0.9-2.3-4-2.7-5.9-3.7
				c-3.6-1.8-3.4-7-3.3-10.4c0.1-4.2,0.7-8.2,1.3-12.3c0.5-3.3,0.7-6.5,0.8-9.8c0-0.1,0-0.2,0-0.2c0.3-1.9,0.5-3.8,0.8-5.7
				c0.5-3.9,0.6-7.8,0.5-11.8c-0.1-3.8,0-7.6-0.5-11.3c-0.5-4-1.2-8-2-12c-0.5-2.3-1.1-4.6-1.4-7c-0.2-1.5-0.2-3.1-0.6-4.5
				c-0.6-2.2-3.8-1.1-5.3-0.9c-2,0.3-4,0.5-6,0.2c-0.8-0.1-1.6-0.2-2.4,0.1c-1.3,0.5-1.7,2.2-1.9,3.4C7.2,83.9,7.2,86.3,7.4,88.7z"
				/>
		</g>
		<g>
			<path class="st1" d="M14.8,166.2c0,0.9,0.5,1.4,1.4,1.7c1,0.3,2,0.5,3.1,0.7c1.2,0.2,2.1,0.7,3.2,1.2c1.6,0.7,3.1,0.9,4.8,0.7
				c0.2,0,0.5-0.1,0.7-0.1c0.6,0,1.1,0,1.6-0.1c1.7-0.1,3.7-0.3,5.1-1.3c1.7-1.2-0.3-2.7-1.4-3.3c-1.5-0.8-3-1.3-4.6-1.8
				c-1.6-0.5-2.5,0.1-4.1,0.5c-2.4,0.5-4.7,0.9-6.8-0.6c-0.6-0.4-1.2-0.7-1.9-0.3C15.3,163.9,14.8,165.5,14.8,166.2z"/>
			<path class="st1" d="M1.8,138.1c-0.1,1.3,0.3,2.4,0.7,3.6c0.7,2,0.8,3.8,1,5.8c0,0.2,0,0.5,0.1,0.7c0,0,0,0,0,0
				c0.1,1.6,0.4,3,1.3,4.3c0.6,0.9,2,1.8,3.3,2.1c0.7,0.3,1.5,0.4,2.2,0.4c1-0.1,1.4-1,1.4-1.9c0.1-0.4,0.1-0.8,0-1.2
				c0.2-1.7-0.1-3.7-0.3-4.9c0,0,0,0,0,0c0-0.3,0-0.7,0-1c0-0.3-0.4-0.5-0.7-0.4c-1,0.6-1.9,0.2-2.7-0.3c-0.2-0.3-0.5-0.7-0.7-1.1
				c-0.6-1.3-1.1-2.6-1.4-3.9c0-0.3,0-0.5,0-0.8c0-0.9-0.1-1.9,0.2-2.7c0.2-0.7,0.5-1.2,0.7-1.8c0-0.1,0-0.1-0.1-0.2
				c0.1-0.3-0.2-0.6-0.6-0.4c-0.1,0.1-0.2,0.1-0.4,0.2c-0.1,0-0.2-0.1-0.4,0c-0.1,0.1-0.2,0.1-0.3,0.2c-1.4,0.3-2.8,0.2-3.3,2.1
				C1.7,137.2,1.7,137.6,1.8,138.1z"/>
		</g>
	</g>
	<path class="st2" d="M10,65.5c2.2,1,4.4,2.7,6.9,2.6c1.9-0.1,3.8-0.4,5.7-0.3c0.8,0,2.3,0.2,3.7,0.1c0,0.1,0.1,0.2,0.1,0.2
		c0.2,0.3,0.6,0.2,0.7,0c0-0.1,0.1-0.1,0.1-0.2c0.1,0,0.2,0,0.3,0c1.1,0,2.2-0.3,2.3-1c0.1-0.1,0.1-0.2,0.1-0.3
		c-0.1-0.9-0.3-1.8-0.6-2.7c0,0,0,0,0,0c0,0,0,0,0-0.1c-0.3-1.7-0.8-3.4-1.4-5c-0.3-1.4-0.5-2.8-0.9-4.2c0,0,0-0.1,0-0.1
		c0,0,0,0,0,0c-0.1-1-0.4-1.9-0.5-2.9c0-0.4-0.1-0.8-0.2-1.2c0-0.2,0-0.4,0-0.7c1.2-0.4,2.2-1,3.4-1.3c1.5-0.3,3.2,0.2,4.1-0.4
		c0.1,0.8,0,1.5,0,2.4c0,0.3,0.4,0.4,0.6,0.2c1.3-1.2,2.9-2.9,2.6-4.9C37,44.5,36.3,43.3,36,42c-0.3-1.5-0.5-3-0.7-4.5
		c-0.3-2-0.8-4.3-2.1-5.8c-1.3-1.6-2.9-2.1-4.7-2.8c-0.1,0-0.1,0-0.2,0c-0.3-0.2-0.6-0.3-0.8-0.2c-0.1,0-0.1,0.1-0.2,0.1
		c-0.2,0-0.3,0.1-0.4,0.2c-0.4,0.2-0.8,0.4-1.2,0.6c-1.5,0.7-2.2,2-2.7,3.5c-0.5,1-1,2.1-1.3,3.2c0,0.1-0.1,0.2-0.1,0.3c0,0,0,0,0,0
		c-0.5,0.8-0.9,1.6-1.3,2.4c-1.1,2-2.5,4.2-3.3,6.4c-0.4,0.2-0.9,0.3-1.5,0.3c-2.1-0.1-2.7-2.7-3.7-4.2c-0.3-0.4-0.7-0.2-0.9,0.1
		c-0.5,1.3,0,2.7,0.2,3.9c0.4,2.1,0.3,4.3,0.3,6.4c0,4.4-0.4,8.7-1.6,13C9.7,65.1,9.8,65.4,10,65.5z"/>
	<path class="st3" d="M7.5,107.2c-0.2,1.2-1.4,2.8-0.3,3.7c3.1,2.6,7.2,3.7,11.1,3.8c2.9,0,5.8-0.3,8.7-0.4c2.3-0.1,4.3-0.2,6.4-1
		c3.2-1.3,7.3-3.5,9.3-6.5c0.9-1.5,0.9-2.7,0.3-4.3c-0.8-2-1.2-4-1.8-6c-1.4-5-4-9.4-5.8-14.2c-1-2.8-2-5.6-3.1-8.4
		c-0.4-1-0.8-2-1.2-2.9c-0.5-0.9-1.3-2-1.4-3c0-0.2-0.3-0.3-0.4-0.1c0,0-0.1,0-0.1,0l-0.9,0.2c-0.1,0-0.2,0-0.2,0.1
		c-1,0.1-2.1,0-3.1-0.1c-1.9-0.2-3.8-0.2-5.7-0.4c-1.6-0.2-3.4-0.2-4.9-0.7c-0.5-0.2-1.1-0.4-1.6-0.4c-1-0.5-2-1.1-3-0.4
		c-1,0.8-1.5,2.1-1.8,3.3c-1.2,4.2-2.2,8.4-2.6,12.8c-0.5,4.6,1,8.9,2,13.3c0.3,1.1,1.7,2.3,1.7,3.4c0,0,0,0,0,0
		C9.1,101.4,8.1,104.4,7.5,107.2z"/>
	<g>
		<path class="st0" d="M16,32.5c0.6-0.7,1.3-1.3,2-2c0.3-0.4,0.7-0.8,1.2-1.2c0.7-0.9,1.5-1.8,2.5-2.3c0.9-1.1,1.6-2.4,2-3.8
			c0-0.2,0.1-0.4,0.1-0.6c0.6-3,0.2-5.4-1.1-8.1c-0.7-1.5-1.1-2.8-0.4-4.4c0.2-0.4,0.4-0.7,0.6-1.1c0.1-0.3,0.3-0.5,0.5-0.8
			c1.7-2.5,4.6-3.4,7.4-3.3c1.3,0.1,4.6,0.9,5.1,2.6c2.6,3.2-0.1,7.2,1.3,10.7c0,0,0,0,0,0.1c0,0.1,0.1,0.1,0.1,0.2c0,0,0,0,0,0
			c0,0.1,0,0.2,0,0.2c0.1,0.1,0.1,0.3-0.1,0.4c-1,0.9-1.6,2.6-2.5,3.7c-0.1,0.3-0.2,0.6-0.4,0.8c-0.8,1-1.9,1.4-3.1,0.9
			c-0.3-0.1-0.6-0.4-0.9-0.6c-0.4,1.6-1,3.2-0.2,4.9c-1,0.2-1.9,0.5-2.8,1c0-0.1,0.1-0.1,0.1-0.2c-0.5-0.1-2.3,0.5-2.7,1
			c-0.1,0.2-0.3,0.3-0.4,0.5c-0.5,1-0.9,2-1.3,2.8c-1.2,2.4-1.6,5.1-2.7,7.5c-0.8,1.8-3,5.6-5.6,4.6c-0.1-0.1-0.2-0.1-0.4-0.2
			c-0.2,0-0.3-0.1-0.4-0.3c-0.5-0.3-0.9-0.8-1.4-1.5C10.2,40.4,13.6,35.3,16,32.5z"/>
		<path class="st1" d="M3.4,23.2c0.3,1.7,1.2,3.2,2.9,3.9c1.4,0.6,2.7,1.3,4.2,0.8c0.3-0.1,0.8,2,1,2.3c0.4,0.6,0.9,1.2,1.5,1.6
			c1.2,0.7,2.8,1.2,4.2,0.9c3-0.6,4.2-3.8,5.9-6c1.1-1.3,2.7-1.9,3.2-3.7c0.5-1.9,0.3-3.9,0.7-5.8c0.6,0.6,1.3,1.2,2,0.6
			c0.5-0.4,0.5-0.9,0.5-1.5c0-0.3-0.2-0.6-0.3-0.9c-0.6-0.7-0.2-1.2,1-1.3c0.1,0.1,0.2,0.2,0.2,0.2C31,15,32.7,16,33,14.5
			c0.2-0.8,0.4-0.7,1.1-0.3c0.2,0.1,0.4,0.1,0.6,0.1c0.5,0,0.9,0,1.4-0.2c2.4-1.1,3.1-4.4,2.2-6.8c-0.1-0.8-0.4-1.6-1-2.2
			c-0.9-0.8-2.1-1-3-1.7c-1.4-1-2.3-3-4.2-3.4c-2.1-0.5-3.5,1-5.6,1c-1.5,0-4.1,0-5.4,1.1c-0.7,0.7-1,1.7-1.7,2.4
			c-0.8,0.8-1.7,1.4-2.7,1.9C12.6,7.6,10.6,9,8.4,9.9c-1.4,0.6-3.4,1.2-4.2,2.7c-0.9,1.6-0.9,3.5-0.9,5.3C3.3,19.6,3,21.4,3.4,23.2z
			"/>
		<path class="st4" d="M26.8,18.9c0.2,0.4,0.5,0.6,0.8,0.6c0.4,0.2,1,0.2,1.3-0.2c0.2-0.2,0.3-0.5,0.4-0.7c0-0.1,0.1-0.2,0.1-0.2
			c0.2-0.5,0.1-1.2-0.6-1.4c-0.6-0.6-1.4-0.3-1.8,0.5c-0.1,0.2-0.2,0.5-0.2,0.8C26.7,18.4,26.7,18.7,26.8,18.9z"/>
	</g>
	<path class="st0" d="M26.2,49.2c0,0.2,0,0.3,0,0.5c0.2,2.7,0.8,5.3,1.5,7.9c0.7,2.6,1.1,5.3,2.1,7.8c0.9,2.5,2.4,4.8,3.7,7.1
		c1.3,2.4,2.7,4.7,4.1,7c0.7,1.2,1.4,2.5,2.3,3.6c0.9,1.1,1.5,2.2,1.5,3.7c0,2.6,0.8,5.1,0.3,7.7c-0.2,1-1.6,4.5,0.1,4.6
		c0,0.5,0.1,1,0.6,1.1c0.1,0,0.2,0,0.3,0c0,0.6,0,1.3,0.2,1.8c0.1,0.1,0.2,0.2,0.4,0.2c1.8,0.1,2.9-2.5,3.3-4c1-3.2,0.5-6.8,0-10.1
		c-0.6-3.5-1.8-6.6-3.1-9.9c-1.3-3.6-2.6-7.1-4-10.7c-1.5-3.6-3.3-7.1-4.1-10.9c-0.5-2.7-0.7-5.6-0.9-8.4c0.2-0.3-0.1-0.6-0.4-0.4
		c-0.3,0.2-1.2-0.2-1.5-0.2c-0.7-0.1-1.2-0.1-1.9,0c-0.6,0.1-1.2,0.4-1.7,0.5c-0.4,0.1-1.3,0.2-1.7,0.4c-0.2,0.1-0.4,0.2-0.5,0.4
		C26.5,49.1,26.3,49.1,26.2,49.2z"/>
	<g>
		<path class="st5" d="M1.2,74c1.1,2.7,3.5,4.9,6.5,4.8c4-0.1,7.3-3,9.6-6.1c1.1-1.5,2.5-3.3,2.8-5.2c0,0,0,0,0-0.1
			c1.2-0.4,2.4-1.1,3.6-1.6c0.7-0.3,1.4-0.7,2.1-1c0.3-0.1,0.7-0.2,1-0.3c0.6-0.2,1.1-0.5,1.6-0.7c0.3-0.1,0.7-0.2,1.1-0.2
			c0.1,0,0.1-0.1,0.2-0.1c0,0,0,0,0,0c-0.1-0.5-0.3-0.9-0.4-1.4c-1.4,0.2-2.6,1-3.9,1.5c-0.1,0-0.2,0.1-0.3,0.1
			c-0.4,0.1-0.8,0.2-1.3,0.2c-1,0-2.1,0-3.2-0.1c0.2-1.4,0.2-2.8,0.1-4.4c-0.1-2.8-0.3-5.6-0.5-8.4c-0.1-1.1-0.5-2-0.5-3.1
			c0-0.2,0-0.4-0.1-0.6c0.8-1.3,1.3-2.9,1.9-4.3c0.8-1.7,1.7-3.4,2.4-5.1c0.7-1.9,0.9-4.1,1.8-5.9c0.5-1,1.2-1.8,2.1-2.2
			c0.6-0.2,1.2-0.3,1.7,0.1c0.2,0.2,0.4,0.1,0.5-0.1c0.2,0.1,0.3,0.1,0.4,0.2c1.7,1.2,2.7,4.3,2.9,5.9c0,0.3,0.4,0.4,0.6,0.3
			c0.1,0.2,0.1,0.4,0.2,0.6c0,0.1,0.2,0.1,0.2-0.1c-0.1-0.3-0.2-0.6-0.3-1c-0.3-2.1-1.4-5.6-3.4-6.7c-0.5-0.3-1-0.4-1.5-0.4
			c-0.2,0-0.4,0-0.5,0c-0.3,0-0.7,0.1-1.1,0.3c-0.3,0.1-0.5,0.2-0.8,0.4c-0.1,0.1-0.2,0.2-0.4,0.3c-1.1,0.9-2.2,2-2.5,2.7
			c-1.2,2.2-2,4.7-3.1,7c-0.8,1.8-1.8,3.5-2.8,5.1c-0.2-0.2-0.3-0.4-0.5-0.5c-1.4-1.4-2.8-2.6-4.9-3c-0.2,0-0.4,0-0.6-0.1
			c0.9-1.3,1.2-3,1.9-4.4c0.8-1.2,1.7-2.5,2.3-3.8c0.1-0.3-0.1-0.6-0.4-0.5c-0.9,0.2-1.2,1.5-1.6,2.3c-0.6,0.9-1.1,1.9-1.7,2.9
			c-0.1,0.1-0.1,0.2-0.2,0.3c-0.5,0.8-0.8,1.7-1.2,2.6c-0.1,0.2-0.2,0.4-0.3,0.6v0c-1.4,0-3,0.5-4.2,1.3c-1.5,1.1-1.3,3.2-1.5,4.9
			c-1.8,4.3-3.5,8.7-4.3,13.3C-0.1,64.9-0.5,69.8,1.2,74z"/>
		<path class="st6" d="M15.8,51.1c-0.4,0.3-0.5,0.7-0.8,1c-0.5,0.5-1,1-1.6,1.4c-0.9,0.6-1.8,0.8-2.7,0.6c-0.2-0.8-0.9-1.2-1.8-1.1
			c0,0,0,0,0,0c-2.6-1.1-3-3.5-4.2-5.7c-0.1-0.2-0.4-0.1-0.3,0.1c0.4,1.4,0.9,2.8,1.6,4.1c0.3,0.6,0.8,1,1.3,1.4
			c1,0.9,0.8,1.7,0.5,3C7.6,56.7,6.6,62,9.2,61c0.7-0.3,0.6-1,0.6-1.7c0-1.4,0.6-2.8,0.9-4.2c0.8,0.2,1.8,0,2.6-0.4
			c1.1-0.5,3.2-1.9,3.3-3.3C16.6,51,16.1,50.9,15.8,51.1z M9,58.7c0,0.2-0.1,0.4-0.1,0.6c-0.2,1.2-0.6-0.2-0.6-0.7
			c0.1-1.5,0.5-3,0.8-4.5c0,0,0.1,0,0.1,0c0,0,0,0,0,0c0.2,0.2,0.4,0.4,0.6,0.5C10,55.8,9.2,58.1,9,58.7z"/>
	</g>
</g>
</svg>
