<?xml version="1.0" encoding="utf-8"?>
<!-- Generator: Adobe Illustrator 27.1.1, SVG Export Plug-In . SVG Version: 6.00 Build 0)  -->
<svg version="1.1" id="Layer_1" xmlns="http://www.w3.org/2000/svg" xmlns:xlink="http://www.w3.org/1999/xlink" x="0px" y="0px"
	 viewBox="0 0 73.5 176.9" style="enable-background:new 0 0 73.5 176.9;" xml:space="preserve">
<style type="text/css">
	.st0{fill:#B9CCD6;}
	.st1{fill:#41485C;}
	.st2{fill:#D58482;}
	.st3{fill:#663759;}
	.st4{fill:#5D6581;}
	.st5{fill:#AAD9BA;}
	.st6{clip-path:url(#SVGID_00000181790011629030548690000006591969120023643824_);}
	.st7{fill:#5D6485;}
	.st8{clip-path:url(#SVGID_00000059268975474007252470000006568823282793880992_);}
	.st9{fill:#FFFFFF;}
</style>
<g>
	<g>
		<g>
			<path class="st0" d="M43.1,164c1.6,0,4.2,0.4,5.1-1.3c1.8-3.3,3.3-7,4.8-10.4c1.4-3.2,2.7-6.6,3.2-10c0.6-4.3,0.6-8.6,1.4-12.8
				c0.7-4,1.1-8.1,1.5-12.1c0.8-7.6,3.3-14.8,4.2-22.3c0.3-2.1,1.3-7-1-8.4c-0.1-0.3-0.4-0.5-0.7-0.5c-4.7-0.1-9.3,1.2-14.1,1.1
				c-2.4-0.1-4.1,0.6-4,3.3c0.3,7.8,1.5,15.5,1.7,23.4c0.1,4.4,0.1,8.7-0.2,13.1c-0.3,4.2-1,8.3-1.5,12.5
				c-0.9,7.4-1.3,14.8-2.6,22.1C40.5,163.2,41.6,164,43.1,164z"/>
			<path class="st0" d="M27.4,128.4c1.4,2.9,3.3,5.5,5.5,7.9c2.5,2.7,5,5,8,7c3.1,2.1,5.9,4.6,9,6.7c1.7,1.2,3.5,2.3,5.3,3.3
				c1.2,0.7,2.3,1.6,3.7,1.9c1.9,0.4,2.5-2.6,3.2-3.7c0.1-0.2,0.1-0.6-0.1-0.8c-0.4-0.3-0.7-0.6-1-1c-0.4-1.1-1.2-2-1.9-3
				c-1.2-1.9-2.5-3.6-3.9-5.4c-2.7-3.5-5.6-6.8-8.8-9.8c-1.5-1.4-3.3-2.6-4.4-4.3c-1.3-2-0.5-4-0.3-6.1c0.5-3.9,1.6-7.7,2.3-11.6
				c0.7-4,2-7.8,2.8-11.8c0.6-2.8,1.4-6.2,0.4-9c-0.7-1.8-2.7-1.9-4.4-1.9c-3.3,0-6.6-0.1-9.9,0c-1.2,0-4.1-1.2-4.7,0.3
				c-0.3,0.7,0,1.7,0,2.5c0.1,1.8-0.2,3.6-0.4,5.3c-1,7.8-1.4,15.6-1.7,23.5C25.9,121.8,25.9,125.2,27.4,128.4z"/>
		</g>
		<g>
			<path class="st1" d="M55.7,170.8c1.3,1.2,2.3,0.8,3.7,0.1c0.1-0.1,0.3-0.2,0.4-0.2c0.1-0.1,0.2-0.1,0.3-0.2
				c1.8-1,2.9-1.9,3.8-3.9c0.6-1.2,1.2-2.5,1.5-3.9c0.1-0.6,0.2-1.3,0.3-2c0.2-0.5,0.5-1,0.7-1.5c0.2-0.4,0.3-0.7,0.5-1.1
				c0.1-0.1,0.1-0.2,0.1-0.3c2.4-2.9-2.6-5.6-4.9-6.6c-0.3-0.1-0.5,0.1-0.5,0.3c-0.2,0.1-0.4,0.3-0.4,0.5c0.3,2-3.3,2.2-3.4,4.3
				c-0.2,3.5-0.7,6.3-1.8,9.6C55.6,167.2,54.3,169.5,55.7,170.8z"/>
			<path class="st1" d="M44.9,176.7c2.1,0.6,6.1-0.3,6.2-3c0.1-1.9-0.5-3.8-1.3-5.4c-0.7-1.5-1.2-3.5-2.4-4.7
				c-0.1-0.1-0.1-0.1-0.2-0.1c-0.2-0.3-0.5-0.5-0.8-0.5c-0.7-0.2-1.2-0.1-1.9,0c-1.2,0.2-2.1,0-3.2-0.5c-0.4-0.2-0.7,0-0.8,0.4
				C39.1,166.8,40,175.3,44.9,176.7z"/>
		</g>
	</g>
	<g>
		<path class="st2" d="M63.9,87.2c0.1,0.2,0.4,0.4,0.6,0.3c2.5-1.1,3.5-5.3,4.4-7.5c1.2-3.2,2.6-6.3,3.6-9.6c0.5-1.1,1-2.3,1-3.6
			c0-0.4-0.2-0.6-0.5-0.7c-0.7-0.2-4.1-2-5.2-1.2c-0.5,0.1-0.9,0.4-1,1.2c-0.1,0.7-0.3,1.5-0.4,2.3c-0.3,1.3-0.5,2.6-0.7,3.9
			c-0.3,1.4-0.7,2.8-1.1,4.2c-0.2,0.6-0.4,1.2-0.6,1.8c-0.5,1.4-1.1,2.7-1.5,4C61.8,84.2,63,85.5,63.9,87.2z"/>
		<g>
			<path class="st2" d="M35.3,16.1c0.3,0.8,0.8,2.5,1.9,2.6c0.2,0,0.4,0,0.6-0.1c0,0.1,0,0.1,0,0.2c0.2,0.9,0.5,1.8,0.8,2.7
				c-0.1,1.1-0.3,2.2-0.5,3.3c-0.2,0.9-0.9,2.7-0.6,3.6c0,0.1,0.1,0.1,0.1,0.2c0,0.7,0,1.2,0.3,1.6c0,0.1,0.1,0.2,0.2,0.2
				c0.1,0.1,0.2,0.1,0.4,0.2c0.5,0.4,1.1,0.8,1.6,1.1c2.7,1.3,6.8,1.4,8.4-1.5c0-0.1,0.1-0.2,0.1-0.3c0.1-0.2,0.2-0.4,0.1-0.6
				c0-0.1,0.1-0.1,0.1-0.2c0-0.3,0-0.5,0-0.8c0.1-0.6,0-1.2-0.1-1.9c0-0.3,0-0.6,0-0.9c0-0.1,0-0.1,0-0.2c0,0,0,0,0-0.1
				c0-1.1,0-2.1,0.1-3.2c0.7-0.9,1.1-2,1.3-3.5c0.4,0.3,0.9,0.4,1.3,0.4c0.6-0.1,1-0.7,1.2-1.2c0.3-0.8,0.4-1.8,0.8-2.6
				c0.2-0.5,0.4-1.4,0.1-1.9c-0.3-0.6-0.7-0.8-1.3-0.6c-0.4,0.1-0.7,0.4-1,0.7c0,0-0.1,0.2-0.2,0.4c0-0.4,0-0.8-0.1-1.1
				c0.1-1,0.2-2.1,0.1-3.1c0.2-1.3,0-2.7-0.7-3.6c-0.2-0.3-0.5-0.5-0.8-0.7c-0.2-0.3-0.5-0.5-0.9-0.7c-1.4-0.8-3.2-0.7-4.8-0.3
				c-2-0.1-4.1-0.1-5.6,1.4c-1.3,1.3-1.5,4.3-1.3,6c0.1,0.4,0.1,0.8,0.2,1.3c0,0,0,0,0,0.1c0,0-0.1,0-0.1,0
				c-0.1-0.5-0.1-0.9-0.2-1.2c-0.1-0.3-0.5-0.4-0.7-0.2c-0.1,0.1-0.2,0.2-0.3,0.3c-0.1-0.1-0.3,0-0.4,0.1
				C35.1,13.1,34.9,14.6,35.3,16.1z"/>
			<path class="st3" d="M36.1,5.9c1.4-3.4,3.7-5.5,7.4-5.8c4-0.4,7.3,0.7,9.6,4.2c1.4,2.2,1.8,6.4-0.1,8.4c-0.1,0.1-0.1,0.1-0.2,0.1
				c-0.1,0.3-0.3,0.6-0.5,0.8c-0.2,0.8-0.8,0.9-1.5,0.7c-1.1,0.2-2.5-0.3-3.5-1.2c-1.5-1.3-2-3.5-3-5.1c-1.3-2.2-4-3.3-5.6-0.6
				c-0.7,1.2-1.2,2.6-1.4,3.9c-0.1,0.4-0.4,0.4-0.7,0.3C34.4,10.8,35.5,7.3,36.1,5.9z"/>
		</g>
		<path class="st2" d="M14,81.8c0.1,6.9,0.7,14.5,6.6,19.2c1.1,0.8,4.5,3.1,5.1,0.4c0.2-0.8-0.8-1.4-1.2-1.9
			c-0.2-0.2-0.3-0.4-0.5-0.5c0-0.1,0-0.2-0.1-0.2c-0.1-0.1-0.1-0.2-0.2-0.4c0-0.1-0.1-0.2-0.3-0.2c-0.6-0.7-1.2-1.5-1.8-2.2
			c0.3,0.1,0.7,0,1-0.4c0.4-0.5,0.3-0.9,0-1.4c-0.8-1.4-2.1-1.7-2.9-3.1c0-0.1,0-0.2-0.1-0.3c-0.1-3.3-0.1-6.6,0.7-9.8
			c0.3-1.1,0.5-2.3,0.8-3.4c1-1.9,1.3-4.3,1.4-6.6c0.3-1.3,0.5-2.6,0.3-3.8c0-0.3,0-0.7-0.1-0.9c-0.8-2-3.6-3.1-5.6-2.8
			c-2.2,0.4-2,4.6-2.3,6.1C14.3,73.6,14,77.7,14,81.8z"/>
		<g>
			<path class="st4" d="M28.6,92c3.2,1,6.3,2,9.7,2.4c2.9,0.3,6,0,8.9-0.5c3.1-0.5,6.2-0.7,9.3-1.1c2.6-0.3,5-1.5,7.5-2.4
				c0.3-0.1,0.5-0.4,0.4-0.8c-0.8-3.2-2.1-6.3-2.7-9.5c-0.7-3.4-0.7-6.8-0.9-10.3c-0.2-3.2-0.2-6.5,0.2-9.7c0.4-2.7,1.5-5.3,1.3-8
				c-0.2-2.8-1.3-5.8-2.1-8.5c-0.9-3-1.9-5.9-3-8.8c-0.6-1.4-1.4-3-1.5-4.5c0-0.4,0-1-0.2-1.4c-0.2-0.3-0.4-0.5-0.8-0.6
				c-1.6-0.5-2.7-0.7-3.8-2.1c-0.5-0.6-1.5,0-1.1,0.7c0,0,0,0,0,0.1c-1.4,4.2-7.5,4.7-10.6,2.1c-0.9-0.8-2.3-2.2-3.6-2
				c-1.8,0.3-3.4,1.3-5,2.1c-1.1,0.6-2.5,0.7-2.9,2c-0.2,0.8,0,1.7,0.1,2.5c0.1,1.5,0.1,2.9,0.2,4.4c0.2,2.9,0.4,5.8,0.6,8.7
				c0.4,5.8,1.6,11.6,0.1,17.3c-0.2,0.1-0.3,0.2-0.4,0.4c-1,2.8-0.6,6-0.9,8.9c-0.3,3.1-0.5,6.3-0.9,9.4C26,85.8,24.6,90.7,28.6,92z
				"/>
			<g>
				<g>
					<path class="st5" d="M48.7,25.9c0-0.5,0.5-0.9,1-0.6c2.3,1.4,5.7,1.7,8.3,2.3c2.6,0.6,4.8,1.9,6.7,3.8c2.3,2.3,3.4,4.7,3.8,7.5
						c1,3.3,1.5,6.8,2.3,10.2c0.1,0.3,0.1,0.6,0.2,0.9c0.2,0.7,0.4,1.3,0.5,2c0.8,3.3,1.5,6.6,1.7,10.1c0.1,1.4,0.5,4.4-1.7,4.4
						c-0.9,0-1.7,0-2.5,0.1c-0.1,0.1-0.4,0.1-0.5,0c-0.3,0-0.7,0.1-1,0.1c-0.9,0.1-1.8,0.1-2.5-0.4c-0.4,0-0.8,0-1.1-0.2
						c0.1,3.5-0.1,7-0.2,10.4c0,1.2-0.1,2.5-0.1,3.7c0.2,1.4,0.2,3,0.1,4.5c0,0.1,0,0.1,0,0.2c0.3,1.2,0.8,2.5,1.3,3.8
						c1.1,2.7,1.5,5.8,1.9,8.7c0,0.2-0.1,0.3-0.2,0.4c0,0.1,0,0.1,0,0.2c0.1,0.3-0.1,0.5-0.3,0.6c-0.1,0.3-0.4,0.4-0.6,0.2
						c-0.5-0.6-0.9-1.1-1.3-1.7c-0.9-0.5-1.5-1.2-2-2.1c-2.2-2.5-3.8-5.7-4.8-9.2c-0.3-0.8-0.5-1.6-0.7-2.5
						c-0.1-0.9-0.3-1.8-0.4-2.7c0,0,0,0,0,0c-0.2-1-0.3-1.9-0.3-2.9c0,0,0-0.1,0-0.1c-0.1-0.4-0.2-0.8-0.3-1.3
						c-0.7-3.2-0.5-6.6-0.6-9.9c-0.1-6.9-1-13.9-1.4-20.8c-0.2-3.4-1.1-6.4-2.5-9.6c-1.2-2.7-1.9-5.6-2.4-8.5
						C48.9,27.1,48.7,26.5,48.7,25.9z"/>
					<path class="st5" d="M14.9,64.7c1.5-4.5,1.4-9.5,1.9-14.2c0.2-2.4,0.5-4.7,0.8-7.1c0.3-2.1,0.4-4.7,1.3-6.7
						c1.4-3.2,4.3-4.8,7.3-6.3c2.2-1.1,4.4-2.3,6.6-3.5c1.1-0.6,2.1-1.4,3.2-1.8c0,0,0,0,0,0c0.2-0.2,0.4-0.2,0.7-0.2
						c0.1,0,0.1,0,0.2,0c0.3,0,0.4,0.3,0.3,0.5c0,0,0,0.1,0,0.2c0.2,2.8-1,5.5-1.1,8.4c-0.1,1.4-0.2,2.8-0.2,4.1
						c0.2,2.1,0.5,4.3,1.1,6.4c1.5,6.2,2.7,12.6,3.6,18.9c1,6.7,1.4,13.6,1.4,20.4c0,3,0,6,0,9c0,1.1,0,2.2,0.1,3.4
						c0.1,0.8,0.4,1.7,0,2.5c-1.4,2.6-6.6-2-8.1-2.4c-1.3-0.4-2.7-0.5-4-0.9c-1.5-0.5-2.9-1.1-4.4-1.6c-1.7-0.6-2.4-0.4-2.7-2.3
						c-0.2-1.2,0.4-2.7,0.4-4c0.1-1.7,0.1-3.4,0.1-5c0.1-3.4,0.3-6.7,0.2-10.1c0-1.5-0.1-2.9-0.1-4.4c-0.1,0.2-0.3,0.3-0.5,0.4
						c-0.1,0-0.1,0-0.2,0c-0.1,0-0.1,0-0.2,0c0,0,0,0-0.1,0.1c-0.1,0.1-0.1,0.1-0.2,0.2c-0.1,0.1-0.3,0-0.4-0.2c0-0.2,0-0.3,0-0.5
						c-0.1-0.4-0.2-0.7-0.3-1.1c-0.1,0-0.1,0-0.2,0c-0.7,0.1-1.2-0.1-1.9-0.3c-1.4-0.6-2.5-1.2-4.1-1.1
						C15.2,65.5,14.8,65.1,14.9,64.7z"/>
				</g>
				<g>
					<defs>
						<path id="SVGID_1_" d="M48.7,25.9c0-0.5,0.5-0.9,1-0.6c2.3,1.4,5.7,1.7,8.3,2.3c2.6,0.6,4.8,1.9,6.7,3.8
							c2.3,2.3,3.4,4.7,3.8,7.5c1,3.3,1.5,6.8,2.3,10.2c0.1,0.3,0.1,0.6,0.2,0.9c0.2,0.7,0.4,1.3,0.5,2c0.8,3.3,1.5,6.6,1.7,10.1
							c0.1,1.4,0.5,4.4-1.7,4.4c-0.9,0-1.7,0-2.5,0.1c-0.1,0.1-0.4,0.1-0.5,0c-0.3,0-0.7,0.1-1,0.1c-0.9,0.1-1.8,0.1-2.5-0.4
							c-0.4,0-0.8,0-1.1-0.2c0.1,3.5-0.1,7-0.2,10.4c0,1.2-0.1,2.5-0.1,3.7c0.2,1.4,0.2,3,0.1,4.5c0,0.1,0,0.1,0,0.2
							c0.3,1.2,0.8,2.5,1.3,3.8c1.1,2.7,1.5,5.8,1.9,8.7c0,0.2-0.1,0.3-0.2,0.4c0,0.1,0,0.1,0,0.2c0.1,0.3-0.1,0.5-0.3,0.6
							c-0.1,0.3-0.4,0.4-0.6,0.2c-0.5-0.6-0.9-1.1-1.3-1.7c-0.9-0.5-1.5-1.2-2-2.1c-2.2-2.5-3.8-5.7-4.8-9.2
							c-0.3-0.8-0.5-1.6-0.7-2.5c-0.1-0.9-0.3-1.8-0.4-2.7c0,0,0,0,0,0c-0.2-1-0.3-1.9-0.3-2.9c0,0,0-0.1,0-0.1
							c-0.1-0.4-0.2-0.8-0.3-1.3c-0.7-3.2-0.5-6.6-0.6-9.9c-0.1-6.9-1-13.9-1.4-20.8c-0.2-3.4-1.1-6.4-2.5-9.6
							c-1.2-2.7-1.9-5.6-2.4-8.5C48.9,27.1,48.7,26.5,48.7,25.9z"/>
					</defs>
					<use xlink:href="#SVGID_1_"  style="overflow:visible;fill:#E0AE81;"/>
					<clipPath id="SVGID_00000015327758686128224010000001509540067225649340_">
						<use xlink:href="#SVGID_1_"  style="overflow:visible;"/>
					</clipPath>
					<g style="clip-path:url(#SVGID_00000015327758686128224010000001509540067225649340_);">
						<path class="st7" d="M135.4,44.2c-1.3,0-2.6,0.1-3.9,0.2c-0.3,0-0.3,0.4,0,0.4c0.5,0,1,0,1.5,0.1c-5.8,1.6-11.6,2.7-17.6,3.6
							c-0.8-3.7-1.5-7.4-2.2-11.2c5.3-0.7,10.6-1.8,15.7-3.6c0.4-0.1,0.4-0.8-0.1-0.7c-0.4,0-0.9,0-1.3,0c-0.3,0-0.4,0.2-0.3,0.4
							c-4.7,1.3-9.4,2.2-14.2,2.9c-1.3-7.3-2.5-14.6-3-22c0-0.3-0.6-0.4-0.5,0c0.5,7.4,1.6,14.8,2.9,22.1c-4.2,0.6-8.4,1-12.6,1.3
							c-0.7-6.7-1-13.4-0.3-20.1c0-0.3-0.4-0.3-0.4,0c-0.7,6.8-0.5,13.5,0.2,20.2c-2.8,0.2-5.7,0.4-8.5,0.7
							c-1.2-8.6-2-17.3-1.8-26.1c0-0.2-0.3-0.2-0.3,0c-0.2,8.8,0.5,17.5,1.6,26.1c-1.5,0.1-3.1,0.3-4.6,0.4
							c-5.8,0.5-11.6,1.2-17.4,1.8c-0.1-0.3-0.2-0.7-0.3-1c-2.6-8.4-4.9-17.1-4.6-26c0-0.2-0.3-0.2-0.3,0
							c-0.5,8.3,1.5,16.5,3.8,24.4c0.3,0.9,0.5,1.8,0.8,2.7c-2.1,0.2-4.1,0.4-6.2,0.6c-0.2,0-0.4,0-0.5,0
							c-1.5-9.8-2.7-19.6-2.7-29.6c0-0.3-0.4-0.3-0.4,0c0,10,1,19.9,2.5,29.7c-2.1,0.2-4.2,0.3-6.3,0.5c-1.5-7.7-3.1-15.4-5-23
							c0-0.2-0.3-0.1-0.3,0.1c1.7,7.6,3.2,15.3,4.6,22.9c-4.8,0.4-9.6,0.7-14.4,1.2c-0.2,0-0.2,0.4,0,0.3c4.8-0.4,9.6-0.7,14.4-1
							c0.7,3.9,1.5,7.7,2.2,11.6c-1.8,0.2-3.5,0.4-5.3,0.7c-4.1,0.6-8,2.1-12,2.9c-0.2,0-0.1,0.3,0.1,0.3c3.8-0.6,7.4-1.8,11.2-2.5
							c2-0.4,4.1-0.6,6.2-0.8c0.7,3.6,1.4,7.1,2.1,10.7c0.2,1.1,0.4,2.1,0.6,3.2c-4.8,0.3-10,0.6-13.7,3.5c-0.2,0.2,0.1,0.5,0.3,0.3
							c3.1-2.4,6.9-2.6,10.7-2.8c1-0.1,1.9-0.2,2.9-0.2c0.7,4.1,1.2,8.3,1.6,12.5c-4.6,0.9-9.1,2.2-13.4,4c-0.3,0.1-0.1,0.5,0.2,0.4
							c4.3-1.8,8.7-3,13.2-3.9c1,9.9,1.8,19.8,4.7,29.4c0.1,0.4,0.7,0.4,0.7-0.1c0-0.7-0.1-1.3-0.2-2c0-0.2-0.3-0.2-0.3,0
							c-2.2-9-3.1-18.2-4.2-27.4c2-0.4,4.1-0.7,6.2-1c0.7,4.2,1.3,8.4,2,12.6c1.2,7.5,1.8,15.4,4.5,22.6c0.1,0.3,0.7,0.2,0.6-0.1
							c-2-7.1-3-14.5-4.2-21.8c-0.7-4.4-1.4-8.9-2.1-13.3c2.8-0.4,5.6-0.7,8.4-1c1.8,11.8,3.2,23.7,5.2,35.5
							c0.1,0.4,0.7,0.3,0.6-0.1c-0.8-7.6-2-15.1-3.2-22.6c-0.6-4.3-1.3-8.6-1.9-12.8c4.1-0.4,8.2-0.8,12.3-1.3
							c2.5-0.3,4.9-0.7,7.4-1c0.2,1.5,0.4,2.9,0.6,4.4c0.7,6.4,0.8,12.8,1.4,19.2c0.4,4.5,0.9,12.4,5.3,15.1
							c0.3,0.2,0.6-0.3,0.3-0.5c-2.3-1.6-3.2-4.6-3.8-7.1c-0.9-3.4-1.2-7-1.5-10.5c-0.5-6.1-0.6-12.1-1.4-18.2
							c-0.1-0.8-0.2-1.7-0.3-2.5c2.7-0.4,5.4-0.9,8.1-1.4c0.9,7.1,1.7,14.4,3.3,21.4c0.4,1.9,0.4,3.9,1.2,5.7c0.3,0.9,1,0.6,1.1-0.2
							c0.1-0.3-0.3-0.4-0.5-0.1c-0.1,0.3,0-0.1-0.1-0.5c-0.1-0.4-0.2-0.8-0.2-1.1c-0.2-1-0.4-2.1-0.6-3.1c-0.5-2.7-1.1-5.3-1.5-8
							c-0.7-4.7-1.3-9.4-2-14.1c2.1-0.4,4.3-0.8,6.4-1.1c2.5-0.4,5-0.6,7.5-0.8c0.4,2.2,0.9,4.5,1.3,6.7c0.5,2.5,1.1,5,1.5,7.6
							c0.3,1.3,0.9,3.3,0.7,4.7c-0.1,0.3,0.3,0.5,0.4,0.2c0.4-0.8,0.1-2,0-2.9c-0.3-2.3-0.8-4.6-1.3-6.9c-0.7-3.1-1.3-6.3-1.9-9.4
							c4.2-0.3,8.5-0.8,12.4-2.3c0.3-0.1,0.2-0.7-0.1-0.7c-0.4,0-0.9,0-1.3,0c-0.3,0-0.4,0.3-0.3,0.4c-3.5,1-7.1,1.4-10.8,1.7
							c-0.3-1.6-0.6-3.2-0.9-4.7c-0.4-2.3-0.9-4.7-1.3-7c4.5-0.6,9-1.5,13.4-2.9c0.4-0.1,0.4-0.8-0.1-0.8c-0.7,0-1.3,0.1-2,0.1
							c-0.2,0-0.3,0.3-0.2,0.4c-3.7,0.9-7.5,1.6-11.3,2.2c-0.8-3.8-1.6-7.6-2.4-11.4c6.7-1,13.4-2.4,19.9-4.3
							C135.9,44.8,135.9,44.2,135.4,44.2z M112.6,37.4c0.7,3.7,1.4,7.5,2.2,11.2c-4.4,0.7-8.8,1.2-13.3,1.7
							c-0.6-3.9-1.2-7.8-1.6-11.6C104.1,38.3,108.4,38,112.6,37.4z M71.7,53.5c5.2-0.4,10.4-0.8,15.6-1.3c1.7-0.1,3.3-0.3,5-0.4
							c0.7,3.9,1.3,7.8,2,11.7c-2.1,0.3-4.2,0.6-6.2,1c-4.4,0.8-9,1.5-13.5,2.1c0-0.1,0-0.1,0-0.2C73.7,62.2,72.7,57.9,71.7,53.5z
							 M73.8,66.8c-2.8,0.4-5.6,0.7-8.3,1.1c-0.8-4.6-1.7-9.2-2.5-13.8c2.7-0.1,5.3-0.3,8-0.5c0.8,3.7,1.7,7.5,2.4,11.2
							C73.6,65.5,73.7,66.2,73.8,66.8z M92.9,51.8c2.7-0.2,5.4-0.5,8.2-0.7c0.6,3.8,1.3,7.6,2,11.4c-2.7,0.3-5.4,0.6-8.1,1
							C94.2,59.6,93.5,55.7,92.9,51.8z M99.3,38.7c0.4,3.9,1,7.8,1.6,11.7c-2.7,0.3-5.4,0.5-8.2,0.8c-0.7-4-1.3-7.9-1.9-11.9
							C93.7,39,96.5,38.8,99.3,38.7z M85.7,39.6c1.6-0.1,3.1-0.2,4.7-0.4c0.5,4,1.2,7.9,1.8,11.9c-1.9,0.2-3.8,0.3-5.7,0.5
							c-5,0.4-10,0.8-15,1.2c-1-3.9-2-7.7-3.2-11.5C74.1,40.8,79.9,40.1,85.7,39.6z M62.3,41.8c1.8-0.1,3.6-0.3,5.5-0.4
							c0.9,3,1.8,6,2.5,9.1c0.2,0.8,0.4,1.6,0.5,2.4c-2.7,0.2-5.3,0.4-8,0.6c-0.7-3.8-1.4-7.7-2-11.6C61.4,41.8,61.8,41.8,62.3,41.8
							z M53.9,42.3c2.1-0.1,4.2-0.3,6.3-0.4c0.6,3.9,1.2,7.7,1.9,11.6c-0.1,0-0.1,0-0.2,0c-1.9,0.1-3.9,0.3-5.8,0.4
							C55.4,50.1,54.7,46.2,53.9,42.3z M58.3,65.1c-0.7-3.5-1.4-7-2-10.6c2-0.2,4-0.3,6-0.4c0.8,4.3,1.5,8.6,2.3,12.8
							c0.1,0.3,0.1,0.6,0.2,1c-0.5,0.1-1,0.1-1.5,0.2c-1.4,0.1-2.8,0.2-4.3,0.3C58.7,67.3,58.6,66.2,58.3,65.1z M60.7,81.6
							c-0.5-4.1-1-8.3-1.7-12.4c1.9-0.2,3.9-0.4,5.8-0.6c0.7,4,1.3,7.9,2,11.9C64.8,80.8,62.8,81.2,60.7,81.6z M67.6,80.4
							c-0.6-3.9-1.3-7.8-2-11.7c0,0,0-0.1,0-0.1c0.2,0,0.4,0,0.7-0.1c2.6-0.3,5.1-0.6,7.7-1c0.8,4,1.4,7.9,2,11.9
							C73.2,79.7,70.4,80,67.6,80.4z M88.1,78.2c-3.8,0.5-7.6,0.8-11.4,1.2c-0.6-4-1.3-8-2-12c5.1-0.7,10.1-1.5,15.1-2.4
							c1.5-0.3,3.1-0.5,4.6-0.7c0.7,4.2,1.4,8.4,2,12.7C93.6,77.4,90.8,77.8,88.1,78.2z M97,76.9c-0.6-4.2-1.2-8.4-2-12.7
							c2.7-0.4,5.4-0.6,8.1-0.9c0.6,3.3,1.1,6.7,1.6,10c0.1,0.7,0.2,1.5,0.3,2.2C102.3,76,99.7,76.4,97,76.9z M118.1,65
							c0.5,2.8,1,5.6,1.6,8.4c-2.8,0.3-5.7,0.5-8.5,1c-1.8,0.3-3.6,0.6-5.4,0.9c-0.4-2.9-0.9-5.8-1.4-8.8c-0.2-1.1-0.4-2.2-0.6-3.4
							c4.6-0.5,9.1-0.9,13.7-1.5C117.7,62.8,117.9,63.9,118.1,65z M117.3,60.8c-4.5,0.6-9.1,1.1-13.6,1.6c-0.7-3.8-1.4-7.6-2-11.4
							c4.4-0.4,8.9-1,13.3-1.6C115.7,53.2,116.5,57,117.3,60.8z"/>
					</g>
				</g>
				<g>
					<defs>
						<path id="SVGID_00000090979564855060281160000017715894924349843367_" d="M14.9,64.7c1.5-4.5,1.4-9.5,1.9-14.2
							c0.2-2.4,0.5-4.7,0.8-7.1c0.3-2.1,0.4-4.7,1.3-6.7c1.4-3.2,4.3-4.8,7.3-6.3c2.2-1.1,4.4-2.3,6.6-3.5c1.1-0.6,2.1-1.4,3.2-1.8
							c0,0,0,0,0,0c0.2-0.2,0.4-0.2,0.7-0.2c0.1,0,0.1,0,0.2,0c0.3,0,0.4,0.3,0.3,0.5c0,0,0,0.1,0,0.2c0.2,2.8-1,5.5-1.1,8.4
							c-0.1,1.4-0.2,2.8-0.2,4.1c0.2,2.1,0.5,4.3,1.1,6.4c1.5,6.2,2.7,12.6,3.6,18.9c1,6.7,1.4,13.6,1.4,20.4c0,3,0,6,0,9
							c0,1.1,0,2.2,0.1,3.4c0.1,0.8,0.4,1.7,0,2.5c-1.4,2.6-6.6-2-8.1-2.4c-1.3-0.4-2.7-0.5-4-0.9c-1.5-0.5-2.9-1.1-4.4-1.6
							c-1.7-0.6-2.4-0.4-2.7-2.3c-0.2-1.2,0.4-2.7,0.4-4c0.1-1.7,0.1-3.4,0.1-5c0.1-3.4,0.3-6.7,0.2-10.1c0-1.5-0.1-2.9-0.1-4.4
							c-0.1,0.2-0.3,0.3-0.5,0.4c-0.1,0-0.1,0-0.2,0c-0.1,0-0.1,0-0.2,0c0,0,0,0-0.1,0.1c-0.1,0.1-0.1,0.1-0.2,0.2
							c-0.1,0.1-0.3,0-0.4-0.2c0-0.2,0-0.3,0-0.5c-0.1-0.4-0.2-0.7-0.3-1.1c-0.1,0-0.1,0-0.2,0c-0.7,0.1-1.2-0.1-1.9-0.3
							c-1.4-0.6-2.5-1.2-4.1-1.1C15.2,65.5,14.8,65.1,14.9,64.7z"/>
					</defs>
					<use xlink:href="#SVGID_00000090979564855060281160000017715894924349843367_"  style="overflow:visible;fill:#E0AE81;"/>
					<clipPath id="SVGID_00000040532934657316390100000002206479755567325347_">
						<use xlink:href="#SVGID_00000090979564855060281160000017715894924349843367_"  style="overflow:visible;"/>
					</clipPath>
					<g style="clip-path:url(#SVGID_00000040532934657316390100000002206479755567325347_);">
						<path class="st7" d="M97.5,49c-1.3,0-2.6,0.1-3.9,0.2c-0.3,0-0.3,0.4,0,0.4c0.5,0,1,0,1.5,0.1c-5.8,1.6-11.6,2.7-17.5,3.6
							c-0.8-3.7-1.5-7.4-2.2-11.2c5.3-0.7,10.6-1.8,15.7-3.6c0.4-0.1,0.4-0.8-0.1-0.7c-0.4,0-0.9,0-1.3,0c-0.3,0-0.4,0.2-0.3,0.4
							c-4.7,1.3-9.4,2.2-14.2,2.9c-1.3-7.3-2.5-14.6-3-22c0-0.3-0.6-0.4-0.5,0c0.5,7.4,1.6,14.8,2.9,22.1c-4.2,0.6-8.4,1-12.6,1.3
							c-0.7-6.7-1-13.4-0.3-20.1c0-0.3-0.4-0.3-0.4,0c-0.7,6.8-0.5,13.5,0.2,20.2c-2.8,0.2-5.7,0.4-8.5,0.7
							c-1.2-8.6-2-17.3-1.8-26.1c0-0.2-0.3-0.2-0.3,0c-0.2,8.8,0.5,17.5,1.6,26.1c-1.5,0.1-3.1,0.3-4.6,0.4
							c-5.8,0.5-11.6,1.2-17.4,1.8c-0.1-0.3-0.2-0.7-0.3-1c-2.6-8.4-5-17.1-4.6-26c0-0.2-0.3-0.2-0.3,0c-0.5,8.3,1.5,16.5,3.8,24.4
							c0.3,0.9,0.5,1.8,0.8,2.7c-2.1,0.2-4.1,0.4-6.2,0.6c-0.2,0-0.4,0-0.5,0c-1.5-9.8-2.7-19.6-2.7-29.6c0-0.3-0.4-0.3-0.4,0
							c0,10,1,19.9,2.5,29.7c-2.1,0.2-4.2,0.3-6.3,0.5c-1.5-7.7-3.1-15.4-5-23c0-0.2-0.3-0.1-0.3,0.1c1.7,7.6,3.2,15.3,4.6,22.9
							c-4.8,0.4-9.6,0.7-14.4,1.2c-0.2,0-0.2,0.3,0,0.3c4.8-0.4,9.6-0.7,14.4-1c0.7,3.9,1.5,7.7,2.2,11.6c-1.8,0.2-3.5,0.4-5.3,0.7
							c-4.1,0.6-8,2.1-12,2.9c-0.2,0-0.1,0.3,0.1,0.3c3.8-0.6,7.4-1.8,11.2-2.5c2-0.4,4.1-0.6,6.2-0.8c0.7,3.6,1.4,7.1,2.1,10.7
							c0.2,1.1,0.4,2.1,0.6,3.2c-4.8,0.3-10,0.6-13.7,3.5C6.5,77,6.8,77.3,7,77.1c3.1-2.4,6.9-2.6,10.7-2.8c1-0.1,1.9-0.1,2.9-0.2
							c0.7,4.1,1.2,8.3,1.6,12.5c-4.6,0.9-9.1,2.2-13.4,4c-0.3,0.1-0.1,0.5,0.2,0.4c4.3-1.8,8.7-3,13.2-3.9c1,9.9,1.8,19.8,4.7,29.4
							c0.1,0.4,0.7,0.4,0.7-0.1c-0.1-0.7-0.1-1.3-0.2-2c0-0.2-0.3-0.2-0.3,0c-2.2-9-3.1-18.2-4.2-27.5c2-0.4,4.1-0.7,6.2-1
							c0.7,4.2,1.3,8.4,2,12.6c1.2,7.5,1.9,15.4,4.5,22.6c0.1,0.3,0.7,0.2,0.6-0.1c-2-7.1-3-14.5-4.2-21.8
							c-0.7-4.4-1.4-8.9-2.1-13.3c2.8-0.4,5.6-0.7,8.4-1c1.8,11.8,3.2,23.7,5.2,35.5c0.1,0.4,0.7,0.3,0.6-0.1
							c-0.8-7.6-2-15.1-3.2-22.6c-0.6-4.3-1.3-8.6-1.9-12.8c4.1-0.4,8.2-0.8,12.3-1.3c2.5-0.3,4.9-0.7,7.4-1
							c0.2,1.5,0.4,2.9,0.6,4.4c0.7,6.4,0.8,12.8,1.4,19.2c0.4,4.5,0.9,12.4,5.3,15.1c0.3,0.2,0.6-0.3,0.3-0.5
							c-2.3-1.6-3.2-4.6-3.8-7.1c-0.9-3.4-1.2-7-1.5-10.5c-0.5-6.1-0.6-12.1-1.4-18.2c-0.1-0.8-0.2-1.7-0.3-2.5
							c2.7-0.4,5.4-0.9,8.1-1.4c0.9,7.1,1.7,14.4,3.3,21.4c0.4,1.9,0.4,3.9,1.2,5.7c0.4,0.9,1,0.6,1.1-0.2c0.1-0.3-0.3-0.4-0.5-0.1
							c-0.1,0.3,0-0.1-0.1-0.5c-0.1-0.4-0.2-0.8-0.2-1.1c-0.2-1-0.4-2.1-0.6-3.1c-0.5-2.7-1.1-5.3-1.5-8c-0.7-4.7-1.3-9.4-2-14.1
							c2.1-0.4,4.3-0.8,6.4-1.1c2.5-0.4,5-0.6,7.5-0.8c0.4,2.2,0.9,4.5,1.3,6.7c0.5,2.5,1.1,5,1.5,7.6c0.3,1.3,0.9,3.4,0.7,4.7
							c-0.1,0.3,0.3,0.5,0.4,0.2c0.4-0.8,0.1-2,0-2.9c-0.3-2.3-0.8-4.6-1.3-6.9c-0.7-3.1-1.3-6.3-1.9-9.4c4.2-0.4,8.5-0.8,12.4-2.3
							c0.3-0.1,0.2-0.7-0.1-0.6c-0.4,0-0.9,0-1.3,0c-0.3,0-0.4,0.3-0.3,0.4c-3.5,1-7.1,1.4-10.8,1.7c-0.3-1.6-0.6-3.2-0.9-4.7
							c-0.4-2.3-0.9-4.7-1.3-7c4.5-0.7,9-1.5,13.4-2.9c0.4-0.1,0.4-0.8-0.1-0.8c-0.7,0-1.3,0.1-2,0.1c-0.2,0-0.3,0.3-0.2,0.4
							c-3.7,0.9-7.5,1.6-11.3,2.2c-0.8-3.8-1.6-7.6-2.4-11.4c6.7-1,13.4-2.4,19.9-4.3C98,49.6,98,49,97.5,49z M74.7,42.2
							c0.7,3.7,1.4,7.5,2.2,11.2c-4.4,0.7-8.8,1.2-13.3,1.7c-0.6-3.9-1.2-7.8-1.6-11.6C66.3,43.1,70.5,42.7,74.7,42.2z M33.8,58.3
							c5.2-0.4,10.4-0.8,15.6-1.3c1.7-0.1,3.3-0.3,5-0.4c0.7,3.9,1.3,7.8,2,11.7c-2.1,0.3-4.2,0.6-6.2,1c-4.4,0.8-9,1.5-13.5,2.2
							c0-0.1,0-0.1,0-0.2C35.8,67,34.8,62.6,33.8,58.3z M35.9,71.6c-2.8,0.4-5.6,0.7-8.3,1c-0.8-4.6-1.7-9.2-2.5-13.8
							c2.7-0.1,5.3-0.3,8-0.5c0.9,3.7,1.7,7.5,2.4,11.2C35.7,70.3,35.8,70.9,35.9,71.6z M55,56.6c2.7-0.2,5.4-0.5,8.2-0.7
							c0.6,3.8,1.3,7.6,1.9,11.4c-2.7,0.3-5.4,0.6-8.1,1C56.3,64.4,55.6,60.5,55,56.6z M61.4,43.4c0.4,3.9,1,7.8,1.6,11.7
							c-2.7,0.3-5.4,0.5-8.2,0.8c-0.7-4-1.3-7.9-1.9-11.9C55.8,43.8,58.6,43.6,61.4,43.4z M47.8,44.4c1.6-0.1,3.1-0.2,4.7-0.4
							c0.5,4,1.2,7.9,1.8,11.9c-1.9,0.2-3.8,0.3-5.7,0.5c-5,0.4-10,0.8-15,1.2c-1-3.9-2-7.7-3.2-11.5C36.2,45.5,42,44.9,47.8,44.4z
							 M24.4,46.5c1.8-0.1,3.6-0.3,5.5-0.4c0.9,3,1.8,6,2.5,9.1c0.2,0.8,0.4,1.6,0.5,2.4c-2.7,0.2-5.3,0.4-8,0.6
							c-0.7-3.8-1.4-7.7-2-11.6C23.5,46.6,23.9,46.6,24.4,46.5z M16,47.1c2.1-0.1,4.2-0.3,6.3-0.4c0.6,3.9,1.2,7.7,1.9,11.6
							c-0.1,0-0.1,0-0.2,0c-1.9,0.1-3.9,0.3-5.8,0.4C17.5,54.8,16.8,51,16,47.1z M20.4,69.9c-0.7-3.5-1.4-7-2-10.6
							c2-0.2,4-0.3,6-0.4c0.8,4.3,1.5,8.6,2.3,12.8c0.1,0.3,0.1,0.6,0.2,1c-0.5,0.1-1,0.1-1.5,0.2c-1.4,0.2-2.8,0.2-4.3,0.3
							C20.9,72.1,20.7,71,20.4,69.9z M22.8,86.3c-0.5-4.1-1-8.3-1.7-12.4c1.9-0.2,3.9-0.4,5.8-0.6c0.7,4,1.3,7.9,2,11.9
							C26.9,85.6,24.9,85.9,22.8,86.3z M29.7,85.2c-0.6-3.9-1.3-7.8-2-11.7c0,0,0-0.1,0-0.1c0.2,0,0.4,0,0.7-0.1
							c2.6-0.3,5.1-0.6,7.7-1c0.8,4,1.4,7.9,2,11.9C35.3,84.5,32.5,84.8,29.7,85.2z M50.2,82.9c-3.8,0.5-7.6,0.8-11.4,1.2
							c-0.6-4-1.3-8-2-12c5.1-0.7,10.1-1.5,15.1-2.4c1.5-0.3,3.1-0.5,4.6-0.7c0.7,4.2,1.4,8.4,2,12.7C55.7,82.2,52.9,82.6,50.2,82.9
							z M59.1,81.6c-0.6-4.2-1.2-8.4-2-12.7c2.7-0.4,5.4-0.6,8.1-0.9c0.6,3.3,1.1,6.7,1.6,10c0.1,0.7,0.2,1.5,0.3,2.2
							C64.4,80.7,61.8,81.2,59.1,81.6z M80.2,69.8c0.5,2.8,1,5.6,1.6,8.4c-2.8,0.3-5.7,0.5-8.5,1c-1.8,0.3-3.6,0.6-5.4,0.9
							c-0.4-2.9-0.9-5.8-1.4-8.8c-0.2-1.1-0.4-2.2-0.6-3.4c4.6-0.5,9.1-0.9,13.7-1.5C79.8,67.6,80,68.7,80.2,69.8z M79.4,65.6
							c-4.5,0.6-9.1,1.1-13.6,1.6c-0.7-3.8-1.4-7.6-2-11.4c4.4-0.4,8.9-1,13.3-1.6C77.8,58,78.6,61.8,79.4,65.6z"/>
					</g>
				</g>
			</g>
		</g>
		<g>
			<g>
				<path class="st1" d="M41.8,117.1c-0.2-3-0.5-6-0.8-8.9c-0.2-2.1-0.6-4.4-2.3-5.9c-1.4-1.2-3.7-1-5.4-1c-1.9,0.1-3.7-0.1-5.6-0.3
					c0.4-3.8-2.5-5.3-6-5.7c-1.1-0.1-2.2,0.3-3.2,0.9c-1.5,0.7-3,2.3-2.9,3.8c-2.6,0-5.1-0.5-7.6-0.6c-1.4,0-2.4,0.6-3.2,1.7
					c-1.4,1.9-1.6,5.3-2,7.5c-0.5,2.6-0.7,5.3-1.4,7.9c-1,3.7-2.6,8.1,0.5,11.2c0.7,0.7,1.8,0.9,2.8,1c3.4,1.4,9.1,1.1,11.4,1.2
					c4.4,0.3,9,0.6,13.4,0.3c0.3,0,0.6-0.1,0.9-0.2c1.2,0.1,2.8-0.2,4.2-0.6c1.7-0.1,3.4-0.2,5-0.6c1.3-0.3,2.3-1.4,2.5-2.7
					C42.5,123.3,42,120.1,41.8,117.1z M17.5,100c0.2-0.6,0.4-1.1,0.8-1.6c0.8-0.9,2.6-1,3.7-1c0.2,0,0.4,0,0.6,0
					c1.4,0.5,2.5,1.6,2.8,3.3C22.8,100.4,20.1,100,17.5,100z"/>
				<path class="st9" d="M38.2,105.9c-0.4,0.8-0.6,1.5-0.6,2.4c-0.1,3.3-2.7,2.7-4.9,2.8c-4,0.2-8,0.1-11.9-0.2
					c-3.9-0.4-7.8-1.3-11.8-1.1c-0.7,0-3.8,0.7-3.8-0.3c-0.1-1.9,0.5-3.8,0.3-5.8c0-0.2-0.3-0.2-0.3,0c0,2.2-0.5,4.4-0.5,6.7
					c0,0.1,0.1,0.3,0.3,0.3c3.9,0.2,7.6,0,11.5,0.6c1,0.1,2,0.3,3,0.4c-0.6,1.4-0.6,3.1-0.4,4.6c0.1,0.5,0,0.8,0.5,1
					c0.8,0.3,2,0.2,2.8,0.2c0.2,0,0.4-0.2,0.4-0.4c0-1.7-0.1-3.4,0.4-5.1c1.7,0.1,3.4,0.2,5.1,0.2c1.8,0,3.6-0.1,5.4-0.2
					c1.1-0.1,2.2,0.2,3.3-0.1c2.1-0.6,1.3-4.1,1.9-5.5C39.2,105.9,38.5,105.4,38.2,105.9z M19.8,115.6c-0.1-0.4-0.1-0.8-0.1-1.2
					c0.4,0,0.7,0,1.1,0c-0.1,0.7-0.2,1.6,0.1,2.2c-0.2,0-0.4,0-0.5,0C19.7,116.5,19.9,116.2,19.8,115.6z M21.3,116.6
					c0-0.4-0.1-0.7-0.2-1.1c0-0.4,0-0.7,0-1.1c0.3,0,0.6,0,0.9,0c0,0.7,0,1.5,0,2.2C21.9,116.6,21.6,116.6,21.3,116.6z M22.1,113.8
					c-0.8,0-1.6,0-2.4,0c0.1-0.8,0.2-1.5,0.4-2.2c0.8,0.1,1.6,0.2,2.4,0.2C22.3,112.5,22.2,113.1,22.1,113.8z"/>
			</g>
			<path class="st2" d="M24.3,95.2c-0.3-1.2-1.5-2.1-2.5-2.8c-0.1-0.1-0.2-0.1-0.3-0.1c-0.9-1-2-1.7-3.2-2.3
				c-0.6-0.3-1.1,0.5-0.5,0.9c1.3,0.8,2.6,1.5,3.6,2.9c0.4,0.7,0.8,1.4,1.1,2.1c-0.5-0.7-0.9-1.5-1.5-2.1c-0.1-0.1-0.4,0-0.3,0.2
				c0.3,0.7,2.3,4.8,3.6,3.5C25,97,24.5,95.9,24.3,95.2z"/>
		</g>
	</g>
</g>
</svg>
