<?xml version="1.0" encoding="utf-8"?>
<!-- Generator: Adobe Illustrator 27.1.1, SVG Export Plug-In . SVG Version: 6.00 Build 0)  -->
<svg version="1.1" id="Layer_1" xmlns="http://www.w3.org/2000/svg" xmlns:xlink="http://www.w3.org/1999/xlink" x="0px" y="0px"
	 viewBox="0 0 77.2 177.8" style="enable-background:new 0 0 77.2 177.8;" xml:space="preserve">
<style type="text/css">
	.st0{fill:#E0AE81;}
	.st1{fill:#41485C;}
	.st2{fill:#B9CCD6;}
	.st3{fill:#F2DECD;}
	.st4{fill:#663759;}
	.st5{fill:#D58482;}
	.st6{fill:#F7FCFE;}
	.st7{fill:#F0C094;}
	.st8{fill:#5D6581;}
</style>
<g>
	<g>
		<path class="st0" d="M39.9,26.5c-1.9-2.3-3.8-4.6-5.3-7.3c-1.2-2.2-2.4-3.9-4.5-5.4c-1.1-0.8-2.4-1.1-3.8-1.2
			c-1.1-0.8-3.2-1-3.7,0.3c-0.3,0.1-0.5,0.2-0.7,0.3c-1.3,0.4-2.2,1.1-3.1,2.2c-0.3,0.4-0.8,1-0.8,1.6c-0.4,0.9-0.4,1.9-0.2,2.9
			c0,0.6,0.2,1.3,0.5,2c0.6,1.6,1.1,3.1,1.4,4.8c0.5,2.1,1.6,2.1,2.7,1.1c2.2,2.4,5.4,3.9,7.1,0c0.1-0.2,0.2-0.5,0.3-0.7
			c0.9,1.5,2,3.9,3.2,4.6c0.4,0.3,0.9,0.6,1.3,0.3c0.2,0.2,0.4,0.6,0.6,0.6h0c1.8,0,3.9-4,5-4.9C40.1,27.5,40,26.6,39.9,26.5z
			 M38.8,26.9c-0.1,0.1-0.2,0.2-0.3,0.3c0.1-0.3,0.2-0.7,0.2-1.1C38.9,26.4,39,26.7,38.8,26.9z"/>
		<path class="st1" d="M40.9,15.9c-0.2-0.7-0.5-1.3-0.9-1.9c-0.8-1.4-0.2-2.4,0.5-3.5c1.9-2.8-2.8-3.2-3.9-4.3
			c-0.4-0.4-0.5-1.2-0.8-1.7c-0.3-0.5-1.1-0.8-1.6-1c-1.6-0.7-2.7-2.1-4.4-2.7c-0.8-0.3-2.9-1.2-3.7-0.6c-0.8,0.6-1.2,1.1-2.2,0.5
			c-0.5-0.3-1.3-0.5-1.9-0.5c-1.2,0-1.9,0.4-2.7,1.1c-1.1,0.9-2.5,1.4-3.6,2.2c-1.8,1.3-2.3,2.9-1.3,4.6c0,0,0,0.1-0.1,0.1
			c-1.8,0.6-2.8,2.3-2.2,4.1c0,0.4,0,0.7,0.1,1c0.2,0.4,0.4,0.7,0.7,1.1c0,0.2-0.1,0.4-0.1,0.6c0,0.1-0.1,0.3-0.1,0.5
			c-0.1,0.5-0.3,1.4,0,1.9c0.1,0.3,0.3,0.5,0.5,0.6c0,0.2,0,0.4,0,0.5c-0.2,1.4,0,2.5,0.9,3.5c1.4,1.7,4.6,1.8,6.2,0.4c0,0,0,0,0,0
			c0.7,0.1,1.6-0.1,2.3-0.6c1.3-0.9,2.3-2.5,2.2-4c0.6-0.2,1.1-0.5,1.3-1.1c0.6-0.1,1.3,0.2,1.9,1c0.2,0.2,0.7,0.1,0.7-0.2
			c0.1-0.4,0.2-0.8,0.3-1.2c1-0.7,1.7-0.6,2,0.2c0.7,1.3,0.4,2.8,0.5,4.2c0.1,1.1,1.2,1.6,2.1,1.9c1.1,0.5,2.3,0.3,3.2-0.5
			c0.4-0.4,0.7-1.1,1-1.6c0.5-0.8,1.4-1.5,2.2-2.1C40.5,18.1,41.2,16.8,40.9,15.9z"/>
	</g>
	<path class="st2" d="M50.9,29.3c-2.9-3.8-7.5-4.4-11.8-5.6c-0.2-0.1-0.5,0.1-0.6,0.3c-0.9,2.5-1.7,5.2-3.4,7.2
		c-0.8,0.6-1.9,0.5-2.5,1.4c-1,1.7-1.4,3.7-1.7,5.6c-0.9,5.6-3.2,10.9-4.6,16.4c-0.6,2.3-1.4,4.5-2.2,6.7c-0.7,2.3-0.8,4.6-0.8,7.1
		c0.1,5.5-1.3,10.9-1.7,16.4c0,0.3,0.2,0.5,0.4,0.6c3.9,1.5,8,2.6,12.2,3c4.8,0.4,9.5-1.5,14.3-0.3c0.4,0.1,0.8-0.1,0.8-0.5
		c0-3.7-0.5-7.4-0.6-11c-0.1-4.1,0.5-8,1.7-11.9c1.8-6.3,4.3-12.4,4.5-19C55.1,40.3,54.3,33.6,50.9,29.3z"/>
	<path class="st2" d="M10.8,65.4c-0.4-1.6-0.7-3.1-1.1-4.7c-0.6-2-1.1-4-1.8-6c-0.4-1.1-0.8-2-1.7-2.5c-1-0.5-2.5,0.4-3.4,0.7
		c-1.2,0.4-2.3,1.3-2.7,2.8c-0.1,0.2-0.1,0.5,0,0.8c-0.4,2.1,1,4.6,1.6,6.4c0.3,1,0.7,1.9,1.1,2.8c0.2,0.6,0.4,1.2,0.7,1.8
		c0.1,0.3,0.2,0.5,0.3,0.8c0.3,0.8,0.6,1.6,1.4,1.6c0.1,0.1,0.2,0.2,0.3,0.2c0.8,0.1,1.5,0,2.2-0.2c0.6-0.2,1.3-0.4,1.9-0.8
		c0.7-0.4,1.5-1,1.6-2C11.2,66.6,10.9,65.9,10.8,65.4z"/>
	<g>
		<path class="st3" d="M57.5,144.8c-0.3-3-0.8-5.9-1.7-8.7c-0.9-3.1-2.4-5.9-3.7-8.9c-5-11.5-3.1-24.3-3.5-36.5
			c-0.1-2.5-1.5-3.6-3.3-4c-3,0.9-6.2,1.2-9.2,1.2c-2.9,0-5.4-0.3-7.7-0.9c-1.4-0.3-2.7-0.6-4-1.2c0,0,0,0,0,0c0,0,0,0,0,0
			c-0.4-0.2-0.9-0.3-1.3-0.5c0,0-0.1,0.1-0.1,0.1l0,0c-0.1,0-0.3,0.1-0.3,0.3c0,0,0,0.1,0,0.1c-0.1,0.2-0.1,0.3,0,0.5
			c-0.4,7.7-0.8,15.4-0.9,23.1c-0.1,3.9-0.1,7.9,0,11.8c0.1,4.2,1.4,8.1,1.5,12.3c0.1,3.8-0.8,7.7-1.3,11.5
			c-0.6,4.1-0.8,8.3-1.1,12.4c-0.2,2-0.9,4.9,0.7,6.5c1.4,1.4,4.7,1.1,6.5,1.1c0.3,0,0.5-0.2,0.5-0.5c0.5-8.7,3.4-16.9,5.4-25.4
			c1.3-5.5,1.5-11.1,1.8-16.8c0.6,1.9,1.2,3.8,1.9,5.6c1.1,3,2.4,5.9,4,8.6c1.9,3.3,2.9,6.5,3.5,10.3c0.5,3.6,0.5,7.2,0.5,10.9
			c0,2.5-0.4,5-0.4,7.5c0,1.1,0.1,2.9,1.2,3.6c1.5,0.9,3.5,1,5.2,0.8c1.6-0.2,3.3-0.4,4.4-1.7c1.2-1.4,1.3-3.6,1.4-5.3
			C57.7,156.6,58,150.6,57.5,144.8z"/>
		<g>
			<path class="st4" d="M29,166.6C29,166.6,29,166.6,29,166.6c0-1.2-0.1-2.4-0.7-3c-0.9-0.8-2.2-0.3-3.3-0.2
				c-1.5-0.3-3.2-0.4-4.5-0.7c-0.6,1.2-1.5,2.3-2.9,2.8c-0.6,0.2-1.2,0.3-1.9,0.4c-0.9,0.4-1.7,0.7-2.6,1c-0.5,0.2-1.2,0.5-1.8,0.9
				c-2.4,0.3-4.2,3.5-1.3,4.6c2.3,0.9,4.8,0.6,7.2,0.1c1.5-0.4,2.9-0.9,4.4-0.9c1.3,0,2.7,0.3,4,0c1.8-0.3,2.8-1.3,3.1-3.1
				c0-0.2,0.1-0.4,0.1-0.6C29,167.5,29.1,167.1,29,166.6z"/>
			<path class="st4" d="M55.1,166.2c-1.2-0.1-2.3,0.2-3.5-0.2c-0.2,0-0.3-0.1-0.4-0.2c-1.9,0-3.7-0.2-5.6-0.1
				c-0.1,0.1-0.2,0.3-0.3,0.4c-1.3,1.1-2.4,2.9-3.6,3.9c-1.8,1.6-4.6,1.6-5.7,3.9c-0.7,1.4,0.7,3.2,2.1,3.6c2,0.6,4.6,0.3,6.6-0.4
				c2.9-1.1,4.9-3.6,7.8-4.6c1.6-0.6,3.2-0.8,3.9-2.5C56.8,168.8,56.8,166.3,55.1,166.2z"/>
		</g>
	</g>
	<g>
		<path class="st5" d="M75,46.9c-1.4-1.8-2.3-3.9-4-5.4c0.1-1.7,0.1-3.3-0.6-4.9c-0.7-1.6-2.8-2.6-4.4-3.2c-2.4-0.8-6,1.1-7.1,3.4
			c0,0,0,0,0,0.1c-0.3,0.1-0.7,0.1-1,0.2c-0.6-1.7-1.3-3.3-2-4.9c-0.7-1.6-1.9-3.5-3.4-4.5c-1.5-1-5.2-3.4-7.4-2.6
			c-2.9-0.1-5.8,1.9-7.5,4.1c-0.5,0.7-1,1.4-1.4,2.1c0,0,0,0.1,0,0.1c-0.1,0.1-0.1,0.2-0.2,0.3c-0.1,0.1-0.1,0.2-0.1,0.2
			c-2.1,3.5-2.6,8.1-2.2,12.3c-0.2,4.6,0.4,9.2,1.1,13.7c1,5.8,3.4,14,9.3,16.6c0,0,0,0,0.1,0.1c0.1,0.1,0.3,0.2,0.4,0.2
			c0.2,0.1,0.3,0.1,0.5,0.1c-0.3,3,0.1,6,2.3,7.8c4,3.4,8.9,5.7,14.1,6.1c2.2,0.2,4.7,0,6.6-1.4c2-1.5,3.3-4,4.3-6.3
			c2.4-5.7,3.4-12,4.2-18.1C77.1,58.2,78.2,51.1,75,46.9z M54.9,39.8c-1.7,2.4-2.4,5.1-3.2,7.8c-0.1,0.5-0.3,1-0.4,1.4
			c-1,1.5-1.8,3.7-1.8,5.6c-0.2,0.7-0.5,1.5-0.7,2.2c-1,3.5-1.6,7-2.3,10.6c-0.3,1.6-0.8,3.6-1.2,5.6c-0.9-0.9-1.9-1.8-2.8-2.8
			c-1.6-1.7-2.8-4.3-3.6-6.4c-1.7-4.7-1.9-10.2-2.3-15.1c-0.2-2-0.4-4.1-0.5-6.1c0.1-1,0.2-2.1,0.3-3.1c0.1-1.1,0.2-2.2,0.4-3.3
			c0.3-1.3,0.8-2.6,1.4-3.7c0.5-0.9,1.1-1.7,1.8-2.3c1-0.7,2-1.3,3.1-1.7c1.6-0.4,3.4-0.3,5.2,0.2c1.9,0.5,3,2.8,4,4.3
			c1,1.5,1.5,3.4,2.3,4.9c0.2,0.5,0.4,0.9,0.6,1.4C55.1,39.5,55,39.6,54.9,39.8z M63.6,37.6c-0.7-0.3-1.5-0.5-2.2-0.6
			c0,0,0.1-0.1,0.1-0.1c0.5-0.3,0.9-0.7,1.4-1c1.4-0.7,3.1-0.6,4.6,0.7c1.1,0.9,1.7,2.3,2,3.8C67.6,39.2,65.5,38.3,63.6,37.6z"/>
		<g>
			<path class="st6" d="M62.1,39.7C62,39.7,62,39.8,62.1,39.7c-0.1-0.2-0.3-0.5-0.6-0.6c-0.4-0.2-1-0.2-1.4,0
				c-0.4,0.1-0.8,0.4-0.6,0.9c0.2,0.4,0.6,0.6,1.1,0.7c-1.1,1.1-1.6,2.8-2.1,4.2c-1.2,4-2.1,8.2-3.2,12.2c-1.3,4.6-1.8,9.4-2.7,14.2
				c-0.4,2-0.9,4-0.8,6.1c0,1.7,1,3.2,1.2,4.9c0.1,0.5,0.9,0.3,0.8-0.2c-0.1-1.2-0.7-2.2-1-3.4c-0.7-2.3,0.1-4.9,0.6-7.2
				c0.8-4.1,1.2-8.4,2.2-12.5c0.9-3.8,2.1-7.6,2.9-11.5c0.4-2.1,0.9-5.3,2.7-6.8c0,0,0,0,0.1,0c0.1,0,0.1-0.1,0.1-0.1
				c0.1-0.1,0.1-0.1,0.2-0.2c0.1,0,0.2,0,0.2-0.1c0,0,0,0,0-0.1c0.1-0.1,0.2-0.1,0.3-0.1C62.4,40,62.3,39.7,62.1,39.7z M59.9,39.7
				c-0.1-0.1,0.3-0.2,0.4-0.2c0.3-0.1,0.6-0.1,0.9,0c0.3,0.1,0.3,0.3,0.2,0.5c-0.2,0.1-0.3,0.2-0.5,0.3c-0.2-0.1-0.4-0.2-0.6-0.3
				C60.2,40,60,39.9,59.9,39.7z"/>
			<path class="st6" d="M57.8,84.2c-0.4-0.3-1-0.5-1.5-0.6c0,0,0,0,0,0c0.4,0.3,1,0.7,1.4,0.7C57.8,84.4,57.8,84.3,57.8,84.2z"/>
			<path class="st6" d="M61.5,85c-0.5-0.4-1.3-0.2-1.9-0.5c-0.1-0.1-0.3,0.1-0.1,0.2c0.3,0.2,0.6,0.3,0.9,0.3
				c0.3,0.1,0.7,0.2,1.1,0.1C61.6,85.2,61.6,85.1,61.5,85z"/>
			<path class="st6" d="M65.3,85.4c-0.4-0.1-0.9-0.1-1.3-0.1c-0.2,0-0.2,0.3,0,0.3c0.4,0,0.9,0.1,1.3,0
				C65.4,85.6,65.4,85.5,65.3,85.4z"/>
			<path class="st6" d="M68.7,84.2c-0.3,0.2-0.6,0.4-1,0.6c-0.1,0,0,0.2,0.1,0.1C68.2,84.8,68.5,84.7,68.7,84.2
				C68.8,84.3,68.7,84.2,68.7,84.2z"/>
			<path class="st6" d="M67,43.1c0-0.1-0.1,0-0.1,0C67,44,67,45,67,45.9c0,0,0.1,0,0.1,0C67.1,44.9,67.1,44,67,43.1z"/>
			<path class="st6" d="M69.9,49.2c-0.3,1.4-0.5,2.8-0.6,4.3c0,0,0.1,0,0.1,0C69.6,52,69.7,50.6,69.9,49.2
				C70,49.2,69.9,49.1,69.9,49.2z"/>
			<path class="st6" d="M68.9,56.8c-0.5,4.8-1,9.5-1.9,14.3c0,0.1,0.2,0.2,0.2,0.1c1.2-4.7,1.7-9.5,1.9-14.3
				C69.1,56.6,68.9,56.6,68.9,56.8z"/>
			<path class="st6" d="M66.3,76c0-0.2-0.2-0.3-0.3-0.1c-0.5,0.9-0.8,2-1.2,3.1c-0.2,0.6-0.7,1.9-0.2,2.4c0.1,0.1,0.2,0,0.1-0.1
				c-0.4-0.7,0.3-2,0.5-2.7C65.7,77.7,66.2,76.9,66.3,76z"/>
		</g>
	</g>
	<g>
		<path class="st7" d="M12.6,67.4c0-0.5-0.1-1.2-0.6-1.4c-0.9-0.5-1.9-0.6-2.7-1.1C8.6,64.4,8,64.1,7,64.2c-0.2,0-0.3,0.2-0.3,0.3
			c-0.1,0.7,0.5,1.2,0.9,1.7C7.7,66.3,6.5,66,6.3,66c-0.4-0.1-0.6-0.2-1-0.2c-1.2,0-1.6,0.9-1.6,1.8c0,0.2,0,0.5,0,0.8
			c0,0.1,0,0.2,0,0.2c0.3,1.4,1,2.6,2.6,3c0.7,0.2,1.5,0.3,2.3,0.3c0.5,0.1,1,0,1.5-0.1c0.8-0.1,1.5-0.2,2.2-0.4
			c0.3,0.1,0.6-0.1,0.5-0.4C12.6,69.7,12.6,68.6,12.6,67.4z"/>
		<path class="st8" d="M48.3,29.5c-2.1-1.6-5.4-1.7-7.5,0c-2.8,2.3-3.3,6.2-3.7,9.6c-0.5,3.8-1.6,7.2-3,10.7c-1.2,3-1.9,6.2-2.9,9.3
			c-0.3,0.8-0.6,1.5-0.9,2.2c-1.2,0.7-2.4,1.3-3.7,1.8c-4.3,1.5-9.2,1-13.6,1.3c-0.2,0-0.3,0.1-0.4,0.3c-0.3,1.5-0.3,3-0.3,4.5
			c0,0.8-0.3,2.1,0.3,2.9c0,0,0,0,0,0c0.2,0.4,0.5,0.7,0.7,1c2.5,0.2,5,0.2,7.5,0.3c2.5,0.1,5.2,0.6,7.6-0.2c0.1,0,0.2-0.1,0.4-0.1
			c1.3,0,2.5-0.2,3.8-0.5c4.7-1.3,8.4-5.1,11.1-9c3.5-5,5.2-11.6,6.4-17.4C51.2,41.5,52.9,33,48.3,29.5z"/>
		<g>
			<path class="st6" d="M35,47.5c4.1,2.3,9.4,2.8,14.2,3.3c0-0.1,0.5-2,0.7-3c0.2-0.8-0.1-0.7-0.2-0.8c-0.2-0.3-0.4-0.5-0.8-0.5
				c-1.2-0.2-2.2,0.2-3.5-0.1c-2.8-0.6-6.5-1.1-8.9-2.7c-0.3-0.2-0.5,0.2-0.3,0.4C35.3,44.9,35.3,46.4,35,47.5z"/>
			<path class="st6" d="M46.6,58.5c0.1-0.3,1.2-3,1.5-4.1c0,0-0.4-0.1-0.5-0.1c0,0-1.3-0.6-2.8-0.9c-1.9-0.3-3.8-0.9-5.7-1.3
				c-1.7-0.4-3-1.3-4.5-1.9c0,0-0.4-0.3-0.4-0.3c-0.5,1.3-0.9,2.5-1.4,4.1c-0.1,0.2,0,0.4,0.2,0.6c0.1,0.1,0.2,0.1,0.3,0.1
				c1.6,0.4,3.1,1.4,4.7,1.9c1.6,0.6,3.3,0.9,5,1.1C44.6,57.8,46.6,58.5,46.6,58.5z"/>
		</g>
	</g>
</g>
</svg>
