<?xml version="1.0" encoding="utf-8"?>
<!-- Generator: Adobe Illustrator 27.1.1, SVG Export Plug-In . SVG Version: 6.00 Build 0)  -->
<svg version="1.1" xmlns="http://www.w3.org/2000/svg" xmlns:xlink="http://www.w3.org/1999/xlink" x="0px" y="0px"
	 viewBox="0 0 750 500" style="enable-background:new 0 0 750 500;" xml:space="preserve">
<style type="text/css">
	.st0{fill:#D1D1ED;}
	.st1{opacity:0.8;fill:#D1D1ED;}
	.st2{fill:#FFFFFF;}
	.st3{fill:#FFB600;}
	.st4{fill:#1D1E1E;}
	.st5{fill:#FFD277;}
	.st6{fill:#434356;}
	.st7{fill:#5E5E72;}
	.st8{fill:#F3803D;}
	.st9{fill:#F15757;}
	.st10{fill:#343345;}
	.st11{fill:#CC4F29;}
	.st12{fill:#F3A080;}
	.st13{fill:#EA7C6F;}
	.st14{fill:#F8BF92;}
	.st15{fill:#B54B57;}
	.st16{fill:#DDE3F2;}
	.st17{fill:#EDF0F9;}
	.st18{fill:#DD9900;}
	.st19{fill:#683534;}
	.st20{fill:#526995;}
	.st21{fill:#845652;}
	.st22{fill:#996E6B;}
	.st23{fill:#07A899;}
	.st24{fill:#048273;}
	.st25{fill:#444444;}
	.st26{fill:#C4C4CB;}
	.st27{fill:#E2E3E4;}
	.st28{fill:#51A5BF;}
	.st29{fill:#77CBED;}
	.st30{fill:#D2F9FE;}
	.st31{fill:#B77158;}
	.st32{fill:#8E503D;}
	.st33{fill:#CC836D;}
	.st34{fill:#385077;}
	.st35{fill:#748BAF;}
	.st36{fill:#C93D3D;}
	.st37{fill:#BCACB8;}
	.st38{fill:#A897A5;}
	.st39{fill:#E593AB;}
	.st40{fill:#2A2B2B;}
	.st41{fill:#595959;}
	.st42{fill:#D3678B;}
	.st43{fill:#DD5B67;}
</style>
<g id="BACKGROUND">
	<rect x="0" y="0" class="st0" width="750" height="500"/>
</g>
<g id="OBJECTS">
	<g>
		<path class="st1" d="M353.6,403.2c0,0-38.9-9.5-86.9-9.5c-38.4,0-70.9,6.1-82.5,8.5c-10.7-2.3-43.9-8.7-83.3-8.7
			c-48,0-86.9,9.5-86.9,9.5s38.9,9.5,86.9,9.5c38.4,0,70.9-6.1,82.5-8.5c10.7,2.3,43.9,8.7,83.3,8.7
			C314.7,412.7,353.6,403.2,353.6,403.2z"/>
		<g>
			<g>
				<g>
					<polygon class="st2" points="69.1,66.1 54.8,46.9 46.9,57.6 					"/>
					<polygon class="st2" points="76.8,65.8 81.4,51.4 73.1,50.9 					"/>
					<polygon class="st2" points="66.4,76.2 50.7,73.3 49.9,80.8 					"/>
				</g>
				<g>
					<path class="st3" d="M68.9,95.2c0,0,63.1-5.6,67,0c4,5.6,5.5,26.6,5.5,26.6H70.1L68.9,95.2z"/>
					<path class="st4" d="M88.8,115.5h-2.9c1-7.4-0.5-15.2-4.4-21.6c1-0.9,2.8-1.1,3.9-0.3C88.6,100.7,89.4,107.9,88.8,115.5z"/>
					<path class="st4" d="M129.9,117.6h-3.4c1.2-8.7-0.6-17.9-5.2-25.4c1.2-1.1,3.3-1.3,4.6-0.3C129.6,100,130.5,108.5,129.9,117.6z
						"/>
					<path class="st5" d="M80.5,108.7c0,7.4-5.2,13.5-11.6,13.5c-6.4,0-11.6-6-11.6-13.5c0-7.4,5.1-13.4,11.5-13.5h0.1
						c0.7,0,1.4,0.1,2,0.2C76.4,96.5,80.5,102,80.5,108.7z"/>
					<path class="st6" d="M50.5,148.4c0,0-7.1,57.8-7.1,63.9c0,6.1,10.2,28.7,13.4,31.1c3.2,2.4,27.1,0,30.3-6.4s0-69.9,0-69.9
						l-12.8-30.8L50.5,148.4z"/>
					<path class="st7" d="M68.9,121.8c0,0-16.7,3.4-19.8,8.8c-3,5.4-8.1,39.8-8.1,39.8s7.1-4,9.5-7c2.4-3.1,4.5-11.9,4.5-11.9
						l17.5-8.7L68.9,121.8z"/>
					<g>
						<path class="st8" d="M141.5,120.3l2.9,44l2.9,43.8c0,0,26-2.4,29.1-9.1c1.6-3.5-3.9-22.6-9.7-40.3c-5.3-16.1-11-31.1-12-32.4
							C152.5,123.7,141.5,120.3,141.5,120.3z"/>
					</g>
					<g>
						<g>
							<path class="st9" d="M91.2,402.3c0.4-0.7,0.7-1.7,0.2-2.7c-1.6-2.9-7.8-13-8.7-16.7c-0.7-2.9,0.2-7.3,0.6-9.1L66.2,362
								c-4.3,3.4-11.4,11-12.9,12.6L91.2,402.3z"/>
							<polygon class="st2" points="88.4,406 50.5,378.3 53.4,374.6 91.2,402.3 							"/>
							<g>
								<path class="st2" d="M78.7,381.6c-0.1,0-0.1,0-0.2,0.1c-0.4,0.2-0.9,0.6-0.6,1.1c0.1,0.3,0.4,0.4,0.7,0.6c1,0.5,2,0.7,3,0.8
									c1.1,0.1,2.3,0.3,3.4-0.1c1.1-0.4,1-1.7-0.1-2.1C83.1,381.1,80.6,380.9,78.7,381.6z"/>
								<path class="st2" d="M80,385.7c-0.1,0-0.1,0-0.2,0.1c-0.4,0.2-0.9,0.6-0.6,1.1c0.1,0.3,0.4,0.4,0.7,0.6c1,0.5,2,0.7,3,0.8
									c1.1,0.1,2.3,0.3,3.4-0.1c1.1-0.4,1-1.7-0.1-2.1C84.5,385.2,81.9,385,80,385.7z"/>
								<path class="st2" d="M82.5,389.6c-0.1,0-0.1,0-0.2,0.1c-0.4,0.2-0.9,0.6-0.6,1.1c0.1,0.3,0.4,0.4,0.7,0.6c1,0.5,2,0.7,3,0.8
									c1.1,0.1,2.3,0.3,3.4-0.1c1.1-0.4,1-1.7-0.1-2.1C87,389.1,84.4,388.8,82.5,389.6z"/>
							</g>
						</g>
						<polygon class="st10" points="132.6,313.4 109.9,290.2 61.4,359.8 85.9,377.9 						"/>
						<path class="st10" d="M146.3,230.5l-32-0.9c1.2,17.3,2.8,48.6-0.1,55c-0.1,0.2-0.7,1.2-1.8,2.8l25.6,23.9
							c0,0,9.8-15.1,11.1-20.9C152.3,275.9,146.3,233.5,146.3,230.5z"/>
						<g>
							<path class="st6" d="M84.1,230.6c0,0,26.2,70.5,32.6,87.2l6.5,70.1l27-4.8l-0.4-8l-3.7-68.4l-22.1-75.2l-31.7-0.7L84.1,230.6
								z"/>
						</g>
						<path class="st7" d="M142.6,316.5c-1.8,3.2-5.4,3-8.2-0.1c-1.5-1.7-2.7-3.8-3.2-6.1c-0.5-2.3-0.1-4.9,1.1-6.7
							c1.3-1.9,3.6-2.9,5.6-2.4c2.4,0.7,4,3.4,4.9,6c0.7,2.2,1.1,4.5,0.7,6.7C143.3,315,143,315.8,142.6,316.5z"/>
						<g>
							<g>
								<path class="st9" d="M172.9,398.7c-0.2-0.8-0.6-1.7-1.7-2.1c-3.1-1.1-14.6-4.5-17.8-6.7c-2.5-1.7-4.8-5.5-5.8-7.2l-20.8,2.5
									c-0.8,5.4-0.9,15.7-0.9,17.8L172.9,398.7z"/>
								<polygon class="st2" points="173.4,403.3 126.4,407.7 126,403 172.9,398.7 								"/>
								<g>
									<path class="st2" d="M149.6,391.6c0,0.1-0.1,0.1-0.1,0.2c-0.2,0.4-0.3,1.1,0.3,1.3c0.3,0.1,0.6,0,0.9-0.1
										c1-0.3,1.9-0.8,2.8-1.4c0.9-0.6,1.9-1.3,2.5-2.3c0.6-1-0.4-1.9-1.5-1.5C152.5,388.3,150.4,389.8,149.6,391.6z"/>
									<path class="st2" d="M153.3,393.7c0,0.1-0.1,0.1-0.1,0.2c-0.2,0.4-0.3,1.1,0.3,1.3c0.3,0.1,0.6,0,0.9-0.1
										c1-0.3,1.9-0.8,2.8-1.4c0.9-0.6,1.9-1.3,2.5-2.3c0.6-1-0.4-1.9-1.5-1.5C156.3,390.4,154.2,391.9,153.3,393.7z"/>
									<path class="st2" d="M157.8,395c0,0.1-0.1,0.1-0.1,0.2c-0.2,0.4-0.3,1.1,0.3,1.3c0.3,0.1,0.6,0,0.9-0.1
										c1-0.3,1.9-0.8,2.8-1.4c0.9-0.6,1.9-1.3,2.5-2.3c0.6-1-0.4-1.9-1.5-1.5C160.8,391.6,158.7,393.2,157.8,395z"/>
								</g>
							</g>
						</g>
						<path class="st10" d="M84.1,230.6c0,0,26.2,70.5,32.6,87.2l6.5,70.1l27-4.8l-0.4-8l-21.2,1.6c0,0-5.4-56.9-6.8-63
							c-1.3-5.5-25.4-71.3-29.6-82.9L84.1,230.6z"/>
					</g>
					<path class="st8" d="M152.3,241.8c0,0-13.7,1-29.5,1.4c-0.6,0-1.3,0-1.9,0c-16.7,0.3-35.1-0.1-42.2-3.3l5.4-78.4l-3.8-47.4
						l9.1-1.6l2.3-0.4l9.1-1.6c0,0,3.4,2.2,7,3.9c4,1.8,8.3,3,8.9-0.1c0.1-0.3,0.1-0.7,0.1-1.1c0,0,3.6,0.7,7.8,1.8l0.1,0
						c2.5,0.6,5.4,1.4,7.8,2.1c3.2,1,8.1,2.2,8.9,3C144.1,122.9,152.3,241.8,152.3,241.8z"/>
					<path class="st10" d="M135.7,118.1l10.3,40.7h3.4l-3.8-37.2C145.5,121.6,141.1,118.3,135.7,118.1z"/>
					<g>
						<path class="st11" d="M122.6,152c1.6,16,2.3,32.1,2.3,48.2c0,14.4-0.7,28.7-2.1,43c-0.6,0-1.3,0-1.9,0
							c0.7-7.3,1.2-14.7,1.5-22c0.7-15.9,0.7-31.9-0.1-47.8c-0.8-15.9-2.5-31.7-4.9-47.4l-12.3,10l-13.4-24l9.1-3.5l7,5.8l8.8,7.3
							l0.1-7.4l0-1.7l7.9,2.4l0.1,0l2.8,16.2l-8.1-4.5C120.7,135.2,121.8,143.6,122.6,152z"/>
						<path class="st11" d="M114.9,139c-2.4,0-2.4,3.8,0,3.8C117.4,142.8,117.4,139,114.9,139z"/>
						<path class="st11" d="M117.6,149.8c-0.1-0.2-0.2-0.4-0.4-0.6c-0.2-0.2-0.4-0.3-0.6-0.4c-0.2-0.1-0.5-0.2-0.7-0.2
							c-0.2,0-0.3,0-0.5,0.1c-0.3,0.1-0.6,0.3-0.8,0.5c-0.1,0.1-0.2,0.3-0.3,0.4c-0.2,0.3-0.3,0.6-0.3,1v0.2c0,0.3,0,0.5,0.2,0.7
							c0.1,0.2,0.2,0.4,0.4,0.6c0.2,0.2,0.4,0.3,0.6,0.4c0.2,0.1,0.5,0.2,0.7,0.2c0.2,0,0.3,0,0.5-0.1c0.3-0.1,0.6-0.3,0.8-0.5
							c0.1-0.1,0.2-0.3,0.3-0.4c0.2-0.3,0.3-0.6,0.3-1v-0.2C117.7,150.3,117.7,150.1,117.6,149.8z"/>
						<path class="st11" d="M118.2,160c-0.1-0.2-0.2-0.4-0.4-0.6c-0.2-0.2-0.4-0.3-0.6-0.4c-0.2-0.1-0.5-0.2-0.7-0.2
							c-0.2,0-0.3,0-0.5,0.1c-0.3,0.1-0.6,0.3-0.8,0.5c-0.1,0.1-0.2,0.3-0.3,0.4c-0.2,0.3-0.3,0.6-0.3,1v0.2c0,0.3,0,0.5,0.2,0.7
							c0.1,0.2,0.2,0.4,0.4,0.6c0.2,0.2,0.4,0.3,0.6,0.4c0.2,0.1,0.5,0.2,0.7,0.2c0.2,0,0.3,0,0.5-0.1c0.3-0.1,0.6-0.3,0.8-0.5
							c0.1-0.1,0.2-0.3,0.3-0.4c0.2-0.3,0.3-0.6,0.3-1v-0.2C118.4,160.5,118.4,160.2,118.2,160z"/>
					</g>
					<polygon class="st2" points="124.7,204.2 119.7,151.5 128.8,154.5 141.5,149.5 150.2,156.2 159,153.2 163,158.7 176.6,154.5 
						169.8,209.8 164.5,212.3 158,206.6 148.2,209.8 140.4,204.5 133.1,208.1 					"/>
					<path class="st12" d="M171.1,179.1c-0.6,1.4,3.8,7.8,2.5,5.9c-1.3-2-9.2-6.8-10.4-5.5c-1.2,1.3,6.2,12.3,6.2,12.3
						s-7.7-7.2-9.5-4.3c-0.6,1,0,2.8,1.1,4.8c-2.4-0.7-4.5-0.8-4.4,0.9c0.2,4,10.7,8.1,10.7,8.1c12.6,3.5,12.8-17.3,12.8-17.3
						S171.7,177.6,171.1,179.1z"/>
					<g>
						<g>
							<g>
								<g>
									<g>
										<path class="st12" d="M100.9,112.6c0.4,0.4,16.7,11.8,16.7,11.8s-0.6-7.3-0.9-11.1c-0.1-1.2-0.1-2-0.1-2.2
											c0-1.5,1.1-8.1,1.1-8.1L101.4,96c0,0-0.2,3.3-0.3,7C100.9,107.5,100.7,112.4,100.9,112.6z"/>
										<path class="st13" d="M101.1,103c4.6,3.1,14.7,10,15.7,10.2c0,0,0.1,0,0.1,0c-0.1-1.2-0.1-2-0.1-2.2
											c0-1.5,1.1-8.1,1.1-8.1L101.4,96C101.4,96,101.2,99.3,101.1,103z"/>
									</g>
								</g>
								<g>
									<path class="st12" d="M99.2,96.6c0,0,0.4,1.2,2.3,2.7l0,0c0.4,0.3,0.8,0.7,1.3,1c1.9,1.3,19.9,8.4,22.6,8
										c2.7-0.4,5-9.9,5.2-10.9c0.7-6.1,2.6-24.9,2.6-24.9c-7.3-20.2-31.1-9-33.8-6.9C96.7,67.7,99.2,96.6,99.2,96.6z"/>
									<path class="st14" d="M101.5,99.3c0.4,0.3,0.8,0.7,1.3,1c1.9,1.3,19.9,8.4,22.6,8c2.7-0.4,5-9.9,5.2-10.9
										c-1.6,4.2-3.4,9.9-5.3,9.8C122.3,107,103.6,100.4,101.5,99.3z"/>
								</g>
								<g>
									<path class="st14" d="M101.8,97.3c-3.7-0.2-6.4-2.3-7.9-4.1c-0.3-0.4-0.6-0.8-0.8-1.1c-1.1-1.9-1.6-8.4,1.1-10
										c1.9-1.1,3.3,0.4,3.9,1.4c0,0,0,0,0,0c0.3,0.4,0.4,0.8,0.4,0.8L101.8,97.3z"/>
									<path class="st12" d="M101.8,97.3c-3.7-0.2-6.4-2.3-7.9-4.1c-0.1-0.2-0.2-0.4-0.3-0.5c-1.1-1.9-1.6-8.4,1.1-10
										c1.5-0.9,2.7-0.1,3.5,0.8c0,0,0,0,0,0c0.3,0.4,0.4,0.8,0.4,0.8L101.8,97.3z"/>
									<path class="st13" d="M93.5,87.3c-0.1,0.5,0,1.1,0.2,1.6c0.8,2.2,3,3.8,5.2,5.3c-0.7-1.1-0.9-2.3-0.8-3.4
										c0-0.4,0.1-0.8,0.1-1.2C98.1,87.9,94.2,84.2,93.5,87.3z"/>
									<g>
										<path class="st15" d="M99.9,94.8c0,0,0,0-0.1-0.1c-0.1,0-0.2-0.1-0.3-0.2c-0.3-0.2-0.7-0.5-1.1-0.9
											c-0.4-0.4-0.7-1-0.9-1.7c-0.2-0.7-0.2-1.5,0.2-2.3c0-0.1,0.1-0.2,0.1-0.3l0-0.1c0,0,0,0,0,0l0,0l0,0l0,0c0,0,0,0,0,0
											l0-0.1L97.8,89c-0.1-0.1-0.1-0.2-0.2-0.2c-0.2-0.3-0.4-0.6-0.7-0.9c-0.2-0.3-0.5-0.5-0.7-0.8c-0.2-0.2-0.5-0.4-0.7-0.6
											c-0.2-0.2-0.5-0.3-0.7-0.3c-0.2,0-0.4,0-0.6,0.1c-0.1,0.1-0.2,0.2-0.3,0.2c0,0.1,0,0.1,0,0.1c0,0,0,0,0-0.1
											c0-0.1,0.1-0.2,0.2-0.3c0.1-0.1,0.4-0.2,0.7-0.2c0.3,0,0.6,0.1,0.9,0.2c0.3,0.2,0.6,0.4,0.8,0.6c0.3,0.2,0.6,0.5,0.8,0.7
											c0.3,0.3,0.5,0.6,0.8,0.9c0.1,0.1,0.1,0.2,0.2,0.3l0.1,0.1l0.1,0.2l0.1,0.1c0,0,0,0.1-0.1,0.1l-0.1,0.2
											c0,0.1-0.1,0.2-0.1,0.3c-0.3,0.7-0.4,1.4-0.3,2.1c0.1,0.6,0.3,1.2,0.6,1.7c0.3,0.4,0.6,0.8,0.8,1c0.1,0.1,0.2,0.2,0.3,0.2
											C99.9,94.8,99.9,94.8,99.9,94.8z"/>
									</g>
								</g>
							</g>
						</g>
						<g>
							<path class="st16" d="M135.6,76.9c-2-1.3-3.6-3-4.9-4.9c0,0.5-0.1,1.1-0.1,1.6c-1.3-1.7-2.5-3.4-3.8-5.2
								c-0.1,1-0.1,1.9-0.2,2.9c-1.5-1.1-2.6-2.7-3.2-4.4c-1.2,1.3-2.8,2.2-4.6,2.4c0.8-1,1.3-2.3,1.5-3.6c-1.9,1.2-4.2,1.9-6.5,1.9
								c0.6-0.7,1-1.6,0.9-2.6c-1.6,1.7-3.8,2.9-6,3.5l0.7-3.2c-0.9,2.9-3.1,5.4-5.9,6.7c0.4-1.4,0.9-2.8,1.3-4.3
								c-1,2.5-2.3,5-4.3,6.9c0.4,4.6,0.4,9.2,0,13.7c-1.2-2.8-3.4-5.1-6-6.6c-0.3-1.1-0.7-2.2-1.1-3.4c-1.1-3.7-2.2-7.8-1.6-11.2
								c-1,0.1-2.1,0.4-2.9,1c0.7-2.6,2-5.1,3.9-7c-0.9,0.1-1.8,0.3-2.7,0.4c0.7-3.1,2.8-5.8,5.6-7.3c2.8-1.4,6.7-1.3,9.4,0.2
								c0.2,0.1,0.5,0.3,0.7,0.4c6.8-3.5,15.7-5.4,21.9-0.8c4.3,3.2,7.1,9.3,7.9,15.3C136,72,136,74.6,135.6,76.9z"/>
							<path class="st17" d="M135.7,69.3c-2.7-0.9-5.2-2.5-7.2-4.7c-0.1,1.1-0.2,2.1-0.3,3.2c-1.1-1.6-2-3.4-2.7-5.2
								c-0.3,0.9-0.7,1.9-1,2.8c-0.8-1.3-1.2-2.9-1.3-4.4c-0.9,1.1-2.2,1.9-3.6,2.3c0.2-0.9,0.4-1.9,0.6-2.8
								c-1.4,1.3-3.3,2.1-5.2,2.2c0.2-0.9,0.4-1.8,0.6-2.6c-1.6,2.1-4,3.6-6.6,4.2c0.1-0.7,0.2-1.4,0.3-2.2
								c-1.4,2.3-3.6,4.2-6.1,5.4c0.1-0.8,0.3-1.6,0.4-2.4c-1.8,3.5-4.5,6.5-7.9,8.5c1,2.2,1.5,4.6,1.4,7c-0.9-1.2-2.3-2-3.8-2.3
								c-0.7-2.2-1.3-4.5-1.6-6.8c-0.2-1.5-0.2-3,0-4.4c-1,0.1-2.1,0.4-2.9,1c0.7-2.6,2-5.1,3.9-7c-0.9,0.1-1.8,0.3-2.7,0.4
								c0.7-3.1,2.8-5.8,5.6-7.3c2.8-1.4,6.7-1.3,9.4,0.2c0.2,0.1,0.5,0.3,0.7,0.4c6.8-3.5,15.7-5.4,21.9-0.8c2.6,1.9,4.7,5,6.1,8.5
								C134.7,64.7,135.3,67,135.7,69.3z"/>
							<path class="st2" d="M133.8,62.5c-3.3-1.4-6.3-3.6-8.7-6.4c-0.3,0.8-0.5,1.6-0.8,2.4c-0.6-1.3-1.1-2.6-1.7-3.9
								c-1.3,0.9-2.5,1.7-3.8,2.6c0.5-0.9,0.7-1.8,0.7-2.8c-1.6,1.2-3.3,2.2-5.1,2.9c0.1-0.5,0.3-1,0.4-1.6c-1.9,2-4.2,3.5-6.8,4.4
								c0.2-0.8,0.3-1.7,0.5-2.5c-0.6,0.6-1.2,1.1-1.8,1.7c-2.2-2.1-5.8-2.7-8.6-1.4c1.2,0.7,2.4,1.4,3.6,2c-2.5,1.4-4.9,3-7,4.9
								c1.1,0,2.2,0,3.3,0.1c-2.5,1.8-4.6,4.1-6.2,6.6c-0.2-1.5-0.2-3,0-4.4c-1,0.1-2.1,0.4-2.9,1c0.7-2.6,2-5.1,3.9-7
								c-0.9,0.1-1.8,0.3-2.7,0.4c0.7-3.1,2.8-5.8,5.6-7.3c2.8-1.4,6.7-1.3,9.4,0.2c0.2,0.1,0.5,0.3,0.7,0.4
								c6.8-3.5,15.7-5.4,21.9-0.8C130.4,56,132.4,59.1,133.8,62.5z"/>
						</g>
					</g>
					<g>
						<g>
							<g>
								<g>
									<g>
										<path class="st12" d="M123,167.5c0.5-0.7,1-1.3,1.5-1.7c3.7-2.7,9.4-6.8,10.7-5.5c1.3,1.4-9.2,9.2-9.2,9.2l1,3.5l4.7-2.9
											l8-0.4c0,0,0.7,1.4,1.5,3.1c0.1,0.2,0.2,0.3,0.2,0.5c0,0,0,0,0,0c0,0,0,0.1,0.1,0.2c0.1,0.2,0.2,0.4,0.3,0.6
											c0.4,0.9,0.7,1.8,1,2.6c0,0.1,0.1,0.2,0.1,0.3c0.1,0.5,0.2,1,0.3,1.4c0.1,0.4,0.1,0.8-0.1,1.1l-6,1.6c0,0-3.4,7.9-4.5,8.7
											c-0.4,0.3-10.9,2.6-10.9,2.6l-5.8-11.4l3.1-1.4C119,179.5,121.9,169.1,123,167.5z"/>
										<polygon class="st12" points="115.8,181 93.1,187.2 98.6,202.6 121.7,192.4 										"/>
										<g>
											<g>
												<path class="st15" d="M141.2,172.9c0.1,0.2,0.2,0.4,0.3,0.7c-0.1,0-0.1,0-0.2,0c-0.9,0.1-2.2,0.3-3.5,0.6
													c-1.3,0.2-2.5,0.5-3.4,0.9c-0.2,0.1-0.4,0.2-0.6,0.2c-0.2,0.1-0.3,0.2-0.4,0.2c-0.2,0.1-0.4,0.2-0.4,0.2
													s0.1-0.1,0.3-0.3c0.1-0.1,0.2-0.2,0.4-0.4c0.1-0.1,0.3-0.3,0.5-0.5c0.8-0.6,2.1-1.3,3.5-1.6
													C139.1,172.6,140.3,172.7,141.2,172.9z"/>
											</g>
										</g>
										<g>
											<path class="st15" d="M142.7,176.7c0,0.1,0.1,0.2,0.1,0.3c-0.3,0-0.6,0.1-1,0.1c-0.9,0.1-2.2,0.3-3.5,0.6
												c-1.3,0.2-2.5,0.5-3.4,0.9c-0.2,0.1-0.4,0.2-0.6,0.2c-0.2,0.1-0.3,0.2-0.4,0.2c-0.2,0.1-0.4,0.2-0.4,0.2s0.1-0.1,0.3-0.3
												c0.1-0.1,0.2-0.2,0.3-0.4c0.2-0.1,0.3-0.3,0.5-0.5c0.8-0.6,2.1-1.3,3.5-1.6c1.5-0.3,2.8-0.1,3.7,0.1
												C142.2,176.5,142.5,176.6,142.7,176.7z"/>
										</g>
									</g>
								</g>
							</g>
						</g>
					</g>
					<polygon class="st11" points="86.1,185.8 93.6,183.4 102.2,207.2 96.8,209.8 					"/>
					<path class="st8" d="M80.3,114.1c0,0-12,2.9-13.6,4.7c-1.6,1.8-14.8,72.3-14,75.1c0.8,2.8,8.2,17,9.3,18.4
						c1.1,1.4,34-4.2,34-4.2l-9-20.3h-4.7l1.8-26.2L80.3,114.1z"/>
					<path class="st11" d="M78.7,127.2c0,0,5.3,9.3,6.6,14.2c1.4,4.9-11,44.8-11,44.8l11.8-0.3l-14.5,3c0,0,11.1-43,11-46.5
						C82.4,138.8,78.7,127.2,78.7,127.2z"/>
					<path class="st10" d="M78.8,114.1c0,0,15.9,33.8,15.2,44.7c-0.7,10.9-9.9,27.4-9.9,27.4l2-0.4l5.6-1.8c0,0,10.9-20.6,9.7-26
						c-1.2-5.4-11.2-38.5-13.9-45.1C87.6,112.9,83.5,110.9,78.8,114.1z"/>
					<path class="st18" d="M76.1,114c-0.9,2.6-3,4.8-5.8,5.2c-1.4,0.2-2.8,0-4-0.8c-1.2-0.8-2.1-2.1-2.8-3.3
						c-1.5-2.6-2.3-5.7-2.1-8.7c0.3-4.7,3.2-9.2,7.4-11.2h0.1c0.7,0,1.4,0.1,2,0.2c-5.1,1.4-8.6,6.4-8.7,11.6c0,2.5,0.6,5.1,1.8,7.3
						c0.6,1.1,1.3,2.3,2.3,3.1c1,0.8,2.3,1.1,3.5,0.9c2.5-0.3,4.4-2.3,5.2-4.6c0.9-2.6,0.7-5.6-0.2-8.1c-0.8-2.2-2.5-4.2-5-4.1
						c-1.1,0-2.1,0.5-2.6,1.4c-0.7,1.1-0.8,2.5-0.8,3.8c0,1.2,0.2,2.3,0.6,3.4c0.4,1,1.4,2.6,2.7,2.5c1.3,0,1.8-1.7,1.9-2.7
						c0.2-1.3-0.1-2.6-0.8-3.8c-0.3-0.5,0.5-1,0.8-0.5c0.9,1.4,1.1,3.1,0.9,4.7c-0.2,1.4-1.1,3.1-2.6,3.2c-1.5,0.1-2.8-1.3-3.4-2.5
						c-0.7-1.4-1-3-1-4.6c0-1.4,0.2-2.9,0.9-4.1c0.7-1.1,1.8-1.7,3-1.9c2.7-0.3,5,1.6,6,4C76.8,107.4,77.1,111,76.1,114z"/>
				</g>
			</g>
			<g>
				<g>
					<path class="st19" d="M232.1,113.6c0,0-23.9-2.3-29.6,3.8c-5.7,6.1-13.2,35.4-13.2,35.4l11.5-2c0,0-10.5,59.2-8.1,66
						c2.4,6.8,8.4,13.5,10.8,13c2.4-0.5,22.5,0.9,22.5,0.9l30.1-57.4L232.1,113.6z"/>
					<g>
						<path class="st16" d="M265.7,79.1c-0.5,4.5-2.3,8.8-5.5,12.1c-5.3-2.6-10.6-5.2-15.8-7.8c-4.6,5.4-7.6,11.6-9.1,18.5
							c-3.9,0.9-7.6,3.8-8.3,7.7c-0.4-2-0.4-4.1,0.1-6.1c-1.8,0.6-3.4,2.1-4,4c-0.3-2.4,0.8-4.9,2.7-6.3c-1.2-2-2.4-4.3-3.6-6.7
							c-1.4-2.9-2.6-5.9-3.5-8.7c-1.6-5-1.9-10.6,0.2-15.4c2.1-4.8,7.1-7.8,12.4-7.7c1.5-1.6,3.9-2.8,5.8-3.8
							c8.5-4.1,19.6-1.2,25.1,6.4C265.1,69.3,266.2,74.3,265.7,79.1z"/>
						<g>
							<g>
								<g>
									<g>
										<path class="st12" d="M252.4,116.8c-7.4,2.9-13.1,1.1-15.9-0.2c0.6-2.5,1.1-5.7,1.1-7.6c-0.1-3.2-0.3-6.2-0.3-6.2l11,1.3
											c0,0-0.2,4.5,0.2,7.6C248.7,113,252,116.5,252.4,116.8z"/>
										<path class="st13" d="M237.7,109c3.3,1.5,7.3,3.2,8.5,3.3c1,0.1,1.8-0.3,2.4-0.7c-0.4-3.1-0.2-7.6-0.2-7.6l-11-1.3
											C237.3,102.8,237.6,105.8,237.7,109z"/>
									</g>
									<g>
										<path class="st14" d="M233.8,70.7c6.3-6,16.1-7.1,23.2-2.1c1.6,1.2,2.9,2.4,3.4,3.7c2,5.2,3.9,23.9-0.8,32.4
											c-4.6,8.5-10.5,6.7-12.6,5.9c-2.1-0.8-11.7-5.9-13.8-9.4c-2-3.5-5.4-20.8-3.9-25.2C229.9,74.7,231.7,72.7,233.8,70.7z"/>
										<path class="st12" d="M233.2,69.3c6.3-6,16.1-7.1,23.2-2.1c1.6,1.2,2.9,2.4,3.4,3.7c2,5.2,3.9,23.9-0.8,32.4
											c-4.6,8.5-10.5,6.7-12.6,5.9c-2.1-0.8-11.7-5.9-13.8-9.4c-2-3.5-5.4-20.8-3.9-25.2C229.4,73.3,231.1,71.3,233.2,69.3z"/>
										<path class="st12" d="M233.2,92c-0.5-0.3-2.9-4.1-5-2.1c-2.1,2-2.9,5.5-1.3,7.7c1.5,2,3.6,4.1,6.4,3.7L233.2,92z"/>
										<path class="st13" d="M228,92.7c-0.2,0.5-0.1,1,0,1.4c0.5,2,2.2,3.7,3.9,5.3c-0.5-1-0.6-2.1-0.4-3.2
											c0.1-0.4,0.2-0.7,0.2-1.1C231.9,93.6,228.9,89.9,228,92.7z"/>
										<g>
											<path class="st15" d="M232.8,100C232.8,100,232.7,100,232.8,100c-0.2-0.1-0.3-0.2-0.4-0.3c-0.2-0.2-0.5-0.5-0.8-0.9
												c-0.3-0.4-0.5-1-0.6-1.6c-0.1-0.6,0-1.4,0.4-2.1c0-0.1,0.1-0.2,0.2-0.3l0-0.1c0,0,0,0,0,0l0,0l0,0l0,0c0,0,0,0,0,0l0-0.1
												l-0.1-0.1c0-0.1-0.1-0.2-0.1-0.2c-0.1-0.3-0.3-0.6-0.5-0.9c-0.2-0.3-0.3-0.5-0.5-0.7c-0.2-0.2-0.3-0.4-0.5-0.6
												c-0.2-0.2-0.4-0.3-0.6-0.3c-0.2,0-0.4,0-0.5,0c-0.1,0.1-0.2,0.1-0.2,0.2c0,0.1,0,0.1,0,0.1c0,0,0,0,0-0.1
												c0-0.1,0.1-0.2,0.2-0.3c0.1-0.1,0.3-0.2,0.6-0.1c0.3,0,0.5,0.1,0.7,0.3c0.2,0.2,0.4,0.4,0.7,0.6c0.2,0.2,0.4,0.5,0.6,0.7
												c0.2,0.3,0.4,0.6,0.6,0.9c0,0.1,0.1,0.2,0.1,0.2l0.1,0.1l0.1,0.2l0.1,0.1c0,0,0,0.1-0.1,0.1l-0.1,0.2
												c0,0.1-0.1,0.1-0.1,0.2c-0.3,0.6-0.4,1.2-0.4,1.8c0,0.6,0.2,1.1,0.4,1.5c0.2,0.4,0.4,0.8,0.6,1
												C232.6,99.8,232.7,99.9,232.8,100C232.8,100,232.8,100,232.8,100z"/>
										</g>
									</g>
								</g>
							</g>
							<path class="st16" d="M221.4,77.3c0.4-1.6,1.6-3.1,2.5-4.4c2-2.7,4.7-5.3,7.7-7.3c3.8-2.5,8.1-4.3,12.4-4.7
								c1.7-0.2,3.5,0,5.4,0.3c3.9,0.7,7.9,2.4,11.2,4.8c0.8,0.6,1.5,2.3,1.9,3.2c0.6,1.3,1,2.6,1.2,3.9c0.4,2.7-0.3,5.8-1.5,8.3
								c0,0-10.3-6.3-11.8-8.8l2.4,4.7c0,0-5.9-0.8-6.8-4.4c0,0-4.6,7.6-13.5,9.1c-0.2,2.8-0.7,8-1.1,9.1c0,0-1.4-1.4-3-0.5
								c-1.6,0.9-2.2,3.6-2.2,3.6c-0.8-1.5-1.6-3.1-2.3-4.8c-0.3-0.6-0.5-1.3-0.7-1.9C222,84.5,220.7,80.4,221.4,77.3z"/>
						</g>
						<path class="st17" d="M265.7,79.1c-0.8-0.4-1.5-0.7-2.3-1.1c-5.4-2.9-10.3-6.7-14.5-11.1c-0.2,1.5-0.4,3-0.6,4.5
							c-1.6-1.2-2.8-2.8-3.6-4.7c-4.1,6-10.2,10.5-17.1,12.7c0.3,2.8,0.5,5.5,0.8,8.3c-1.1-1.1-2.3-2.3-3.4-3.4
							c-0.1,1.4-0.2,2.8-0.3,4.2c-1-1.2-1.8-2.6-2.1-4.1c-0.1,0.4-0.1,0.7-0.2,1.1c-0.4,3-0.5,6-0.2,9.1c-1.3-2.8-2.5-5.7-3.4-8.4
							c0-0.1-0.1-0.2-0.1-0.3c-1.6-5-1.9-10.6,0.2-15.4c2.1-4.8,7.1-7.8,12.4-7.7c1.5-1.6,3.9-2.8,5.8-3.8
							c8.5-4.1,19.6-1.2,25.1,6.4c0.5,0.7,0.9,1.4,1.3,2.2C265.4,71,266.1,75.1,265.7,79.1z"/>
						<path class="st2" d="M263.6,67.5c-6-1-11.7-3.4-16.6-6.9c-0.4,1.3-0.8,2.7-1.1,4c-1.1-1.4-2.1-2.8-3.1-4.3
							c-3.9,6.5-10.6,11.3-18.1,12.9c0,1.5,0,3-0.1,4.5c-0.7-0.9-1.4-1.9-2-2.9c0.1,2,0.2,4,0.3,5.9c-1-0.8-1.8-1.8-2.2-3.1
							c-0.6,2.8-1.1,5.7-1.7,8.5c0-0.1-0.1-0.2-0.1-0.3c-1.6-5-1.9-10.6,0.2-15.4c2.1-4.8,7.1-7.8,12.4-7.7c1.5-1.6,3.9-2.8,5.8-3.8
							c8.5-4.1,19.6-1.2,25.1,6.4C262.7,66,263.2,66.7,263.6,67.5z"/>
					</g>
					<g>
						<g>
							<g>
								<g>
									<g>
										<g>
											<g>
												<g>
													<path class="st12" d="M247.2,270.7c-2.8,15-5.8,29.6-7.2,32.9c-3.2,7.3-15,83-15,83h-16.3c0,0,5.3-59.6,5.8-66.5
														c0-0.2,0-0.3,0-0.4c0.6-8.4,10.8-29.2,10.8-29.2s-0.1-10.5-0.2-23.1c1.5,0.3,3.1,0.6,4.6,0.9
														C235.5,269.2,241.3,270,247.2,270.7z"/>
													<path class="st12" d="M280.3,271.1c-1.7,13.9-3.6,26.2-4.4,28.6c-1.7,5.3-6.2,89.9-6.2,89.9l-9.8-0.9l-2.5-0.2
														c0,0-5.4-63.6-4.8-72.4c0-0.1,0-0.2,0-0.3c0-0.2,0-0.3,0.1-0.4c1.4-7.4,5.9-21.6,5.9-21.6c-0.2-1.2-0.4-11-0.6-22.4
														c0.9,0.1,1.9,0.1,2.8,0.1c0.5,0,1,0,1.4,0.1C268.3,271.8,274.3,271.7,280.3,271.1z"/>
													<path class="st13" d="M230.5,288.2c0,0-11.4,29.3-12.5,30.4c-0.9,0.9-4,51.7-4.9,67.9h-4.5c0,0,5.3-59.6,5.8-66.5
														c0-0.2,0-0.3,0-0.4c0.6-8.4,10.8-29.2,10.8-29.2s-0.1-10.5-0.2-23.1c1.5,0.3,3.1,0.6,4.6,0.9
														C230.1,279.5,230.5,288.2,230.5,288.2z"/>
													<path class="st13" d="M255.8,319.4l4.2,69.4l-2.5-0.2c0,0-5.4-63.6-4.8-72.4c0-0.1,0-0.2,0-0.3c0-0.2,0-0.3,0.1-0.4
														c1.4-7.4,5.9-21.6,5.9-21.6c-0.2-1.2-0.4-11-0.6-22.4c0.9,0.1,1.9,0.1,2.8,0.1c0.5,0,1,0,1.4,0v0l0.1,20.6L255.8,319.4
														z"/>
												</g>
											</g>
										</g>
									</g>
								</g>
							</g>
							<g>
								<g>
									<path class="st20" d="M297.1,396.3l-41.1,1.2c-0.1-4.2,0.1-7.6,0.2-9.5c0.4,0,0.8,0,1.2,0c0.8,0,1.7,0,2.5,0.1
										c2.7,0,5.2,0,5.7-0.2c1.3-0.4,4.1-9.5,4.1-9.5v0l0.6,0l3.7-0.2c0.8,1.8,2.8,5.9,5,7.8c2.9,2.4,13.6,6.7,16.5,8.1
										C296.6,394.5,297,395.5,297.1,396.3z"/>
									<path class="st2" d="M297.3,401.1l-41.1,1.2c-0.1-1.7-0.1-3.3-0.2-4.8l41.1-1.2L297.3,401.1z"/>
								</g>
							</g>
							<g>
								<g>
									<g>
										<path class="st20" d="M231.3,402.1c0,1.9-14,5.8-16.6,5.5c-2.7-0.2-12.4-7.7-12.4-7.7s0.4-1.5,1-3.9
											c0.7-2.6,1.6-6.3,2.7-10c1.4-0.4,3-0.9,3.4-1.2c0.7-0.6,2.9-6,3.9-6c1.1,0,10.4,0,11,0.9c0.6,0.9,0.8,5.3,1.8,5.8
											c0.4,0.2,1.6,0.6,2.9,0.9c0.7,3.8,1.4,7.5,1.7,9.7C231,399.1,231.3,401.4,231.3,402.1z"/>
										<path class="st2" d="M202.2,400c0,0,9.8,7.5,12.4,7.7c2.7,0.2,16.6-3.6,16.6-5.5c0-0.7-0.3-3.1-0.7-5.9
											c-4.5,1.9-14.3,5.8-17.5,4.5c-2.2-0.9-6.3-2.9-9.8-4.6C202.6,398.4,202.2,400,202.2,400z"/>
									</g>
								</g>
							</g>
						</g>
						<path class="st21" d="M279.8,300.8l-3.2,75.6l-19.4,1.4l-4.6,0.3c0,0-3.3-55.4-2.3-61.5c1-6.1,4-22.6,4-22.6l-3.4-48.3l0,0.1
							c-0.3,2.9-4.9,50-5.4,53.2c-0.6,3.3-12.3,73.8-12.3,73.8h-27.2c0,0,3.6-49.7,5.4-56.2c1.8-6.5,9.8-28.5,9.8-28.5
							s-5.5-47.5-4.3-52.8c1.2-5.3,4.3-20.1,4.3-20.1h59.6c0,0,0.3,3,0.8,7.1c0.6,4.9,1.4,11.2,2.2,15.4
							C285,245.4,279.8,300.8,279.8,300.8z"/>
						<path class="st22" d="M277.7,300.5c-0.1,2.9-1.2,5.8-3.2,7.9c-1.3,1.4-3.4,2.5-5.1,1.8c-1.6-0.7-2.3-2.7-2.6-4.4
							c-0.4-2.2-0.5-4.5-0.3-6.8c0.2-2,0.7-4.2,2.1-5.6C273.8,288.3,277.8,296.2,277.7,300.5z"/>
						<path class="st22" d="M240.8,300.5c-0.1,2.9-1.2,5.8-3.2,7.9c-1.3,1.4-3.4,2.5-5.1,1.8c-1.6-0.7-2.3-2.7-2.6-4.4
							c-0.4-2.2-0.5-4.5-0.3-6.8c0.2-2,0.7-4.2,2.1-5.6C236.9,288.3,240.9,296.2,240.8,300.5z"/>
						<path class="st19" d="M281.4,222.3c-3.2,1-8.7,2.5-9.7,2.5c-1.4,0-32.6,2.3-34.2,1.5c-1.6-0.8-12.9-1.7-12.9-1.7
							s-4.2,18.6-3.6,21.9c0.6,3.2,4.5,40.9,4.5,40.9s-7.2,24.7-8.1,32.3c-0.8,6.4-2.9,41.8-3.6,53.1h-8c0,0,3.6-49.7,5.4-56.2
							c1.8-6.5,9.8-28.5,9.8-28.5s-5.5-47.5-4.3-52.8c1.2-5.3,4.3-20.1,4.3-20.1s10.6,3.3,15.4,3.9c4.8,0.6,33.6-0.8,33.6-0.8
							l10.5-3.1C280.7,215.2,281,218.2,281.4,222.3z"/>
						<path class="st19" d="M258.6,292.1c0,0-6.1,21.5-6,24.1c0.1,2.1,3.4,47.4,4.5,61.6l-4.6,0.3c0,0-3.3-55.4-2.3-61.5
							c1-6.1,4-22.6,4-22.6l-3.4-48.3l10.2-4.1l-6.9,9.4L258.6,292.1z"/>
					</g>
					<g>
						<path class="st23" d="M268.4,117.3c0,0,7.7,4.2,9.3,6.9c1.7,2.7,20.5,57.1,20.5,57.1s-16,16.9-18.4,16.3
							c-2.4-0.6-6.2-36.8-6.2-36.8L268.4,117.3z"/>
						<path class="st23" d="M286.3,245.3c-8.7,2.2-19.5,3-30.2,3c-0.6,0-1.3,0-1.9,0c-21.2-0.1-41.2-3-41.2-3l2.1-38.2l1.3-24.4
							L213,119c2.1-0.6,3.8-0.8,4.4-0.9l0.2,0l11.4-1.2l0,0l3.1-3.3l1.2-1.3c0,0,9.7,0.7,10.7,2.3c0.3,0.4,0.5,0.8,0.7,1.2
							c0,0,0,0,0,0.1c0.5,0.9,0.8,1.4,0.8,1.4s0.3-0.7,0.8-1.4c0.1-0.1,0.2-0.3,0.3-0.4c0.4-0.5,0.8-1,1.1-1.1
							c0.9-0.2,7.5,0.2,7.9,0.5c0.2,0.1,0.3,0.3,0.4,0.6c0.2,0.4,0.4,0.8,0.4,0.8l12,1.2c0,0,13.5,29.6,13.2,36.8
							c-0.3,7.2-3.4,27.5-3.4,27.5L286.3,245.3z"/>
						<path class="st21" d="M217.7,118.1c0,0,12.4,23,12.2,30.3c-0.2,7.3-9.5,33.3-9.5,33.3l4.4-0.2c0,0,13.2-27.3,11.8-32.8
							c-1.4-5.6-11.7-31.3-11.7-31.3S222.7,115.6,217.7,118.1z"/>
						<path class="st24" d="M254.8,204c-1.6-18.8-4.2-37.4-6.1-56.2c-0.9-9.1-1.6-20.3-2-30c1-1.3,2.5-2.1,4.1-2.5
							c1.7-0.4,3.6-0.3,5.3,0.1c-0.1-0.2-0.3-0.5-0.4-0.6c-0.4-0.3-7-0.6-7.9-0.5c-0.4,0.1-0.8,0.5-1.1,1.1
							c-0.1,0.1-0.2,0.3-0.3,0.4c-0.4,0.7-0.8,1.4-0.8,1.4s-0.3-0.5-0.8-1.4c0,0,0,0,0-0.1c-0.2-0.4-0.4-0.7-0.7-1.2
							c-1-1.6-10.7-2.3-10.7-2.3l-1.2,1.3c2.4,0.3,4.8,0.6,7.1,1.3c2,0.6,4,1.6,5.6,3.1c0.7,17.7,2.7,37.3,4.7,54.6
							c2.2,18.7,4.3,37.3,4.8,56.1c0.2,6.5,0.1,13.1-0.2,19.6c0.6,0,1.3,0,1.9,0C256.8,233.5,256.1,218.7,254.8,204z"/>
					</g>
					<path class="st25" d="M282.5,169.4c0,0-11-49.7-14.1-52.1c-3.1-2.4-6.4-0.6-6.4-0.6l2,4.5l15.9,49.7L282.5,169.4z"/>
					<g>
						<g>
							<g>
								<g>
									<polygon class="st25" points="257.7,177.4 259,182.1 262.9,196.3 267.9,198.1 294.7,188.9 291.8,169.5 285.3,167 									
										"/>
								</g>
								<polygon class="st26" points="257.7,177.4 259,182.1 264.7,183.5 292.5,174.3 291.8,169.5 285.3,167 								"/>
								<polygon class="st27" points="291.8,169.5 263.7,179 257.7,177.4 285.3,167 								"/>
								<polygon class="st26" points="263.7,179 267.9,198.1 262.9,196.3 257.7,177.4 								"/>
							</g>
							<g>
								<polygon class="st25" points="285.3,173.1 285.7,175.1 287.8,174.5 288.6,174.2 289,174.1 290.3,173.7 290.7,173.5 
									290.4,171.2 289,171.8 287.7,172.2 287.4,172.3 286.5,172.6 								"/>
								<polygon class="st25" points="287.7,172.2 289,174.1 290.3,173.7 289,171.8 								"/>
								<polygon class="st25" points="286.5,172.6 287.8,174.5 288.6,174.2 287.4,172.3 								"/>
							</g>
							<g>
								<polygon class="st27" points="265.5,179.6 266.2,181.3 267.5,180.8 268.1,180.6 269,180.3 269.6,180.1 269.8,180.1 
									271.5,179.5 272.6,179.1 272.2,177.5 270.3,178.1 268.9,178.5 268.8,178.6 268.1,178.8 267.3,179.1 266.7,179.3 								"/>
								<polygon class="st25" points="268.9,178.5 269.8,180.1 271.5,179.5 270.3,178.1 								"/>
								<polygon class="st25" points="268.1,178.8 269,180.3 269.6,180.1 268.8,178.6 								"/>
								<polygon class="st25" points="266.7,179.3 267.5,180.8 268.1,180.6 267.3,179.1 								"/>
							</g>
							<polygon class="st26" points="283.7,172.3 281.9,170.9 273.6,173.4 273.2,175.8 							"/>
							<g>
								<polygon class="st27" points="281.9,170.9 277.8,169.4 270.3,171.7 273.6,173.4 								"/>
								<polygon class="st25" points="281.9,170.9 277.8,169.4 270.3,171.7 273.6,173.4 								"/>
							</g>
							<g>
								<polygon class="st26" points="270.3,171.7 268.9,173.2 273.2,175.8 273.6,173.4 								"/>
								<polygon class="st26" points="270.3,171.7 268.9,173.2 273.2,175.8 273.6,173.4 								"/>
							</g>
							<g>
								<path class="st26" d="M283,168.5l5-0.7l0.6-0.1l0.1,0.8c0.1,0.8-1.2,1.6-2.9,1.8c-1.7,0.3-3.2-0.2-3.3-0.9l-0.1-0.8
									L283,168.5z"/>
								<g>
									<path class="st27" d="M282.4,168.6c0.1,0.8,1.6,1.2,3.3,0.9s3-1.1,2.9-1.8c-0.1-0.8-1.6-1.2-3.3-0.9
										C283.6,167,282.3,167.8,282.4,168.6z"/>
									<path class="st25" d="M282.4,168.6c0.1,0.8,1.6,1.2,3.3,0.9s3-1.1,2.9-1.8c-0.1-0.8-1.6-1.2-3.3-0.9
										C283.6,167,282.3,167.8,282.4,168.6z"/>
								</g>
							</g>
							<g>
								<path class="st26" d="M261.6,175.9l3.2-0.5l0.4-0.1l0.1,0.5c0.1,0.5-0.8,1-1.8,1.2c-1.1,0.2-2-0.1-2.1-0.6l-0.1-0.5
									L261.6,175.9z"/>
								<g>
									<path class="st27" d="M261.2,175.9c0.1,0.5,1,0.7,2.1,0.6c1.1-0.2,1.9-0.7,1.8-1.2s-1-0.7-2.1-0.6
										C261.9,174.9,261.1,175.5,261.2,175.9z"/>
									<path class="st25" d="M261.2,175.9c0.1,0.5,1,0.7,2.1,0.6c1.1-0.2,1.9-0.7,1.8-1.2s-1-0.7-2.1-0.6
										C261.9,174.9,261.1,175.5,261.2,175.9z"/>
								</g>
							</g>
							<polygon class="st26" points="282.4,172.4 282.8,174.7 275.8,176.9 274.7,174.4 							"/>
							<g>
								<g>
									<path class="st26" d="M284.6,177.4l-6.1,0.4c0,0-3.9,2.7-3,8.7c0.7,4.8,2,5.2,2,5.2l8.2,0.9L284.6,177.4z"/>
									<path class="st26" d="M275.5,186.5c0.7,4.8,2,5.2,2,5.2l1.2,0.1l0.6,0.1l6.4,0.7l-1.1-15.2l-3.9,0.3l-0.7,0l-1.5,0.1
										C278.5,177.8,274.6,180.5,275.5,186.5z"/>
								</g>
								<g>
									<path class="st27" d="M278.9,186c0.6,4.2,4.2,7.1,7.9,6.6c3.8-0.6,6.3-4.4,5.7-8.6c-0.6-4.2-4.2-7.1-7.9-6.6
										C280.9,177.9,278.3,181.8,278.9,186z"/>
									<g>
										<path class="st25" d="M279.9,185.8c-0.5-3.7,1.7-7.1,5.1-7.6c3.3-0.5,6.5,2.1,7.1,5.8c0.5,3.7-1.7,7.1-5.1,7.6
											S280.5,189.5,279.9,185.8z M280.1,185.8c0.5,3.6,3.6,6.2,6.9,5.7c3.3-0.5,5.5-3.8,4.9-7.4c-0.5-3.6-3.6-6.2-6.9-5.7
											C281.7,178.9,279.5,182.2,280.1,185.8z"/>
									</g>
									<g>
										<path class="st28" d="M280.8,185.6c0.5,3.2,3.2,5.5,6.1,5.1c1.5-0.2,2.8-1.2,3.6-2.4c0.7-1.2,1-2.7,0.8-4.2
											c-0.5-3.2-3.2-5.5-6.1-5.1c-1.9,0.3-3.4,1.6-4,3.4C280.8,183.4,280.7,184.5,280.8,185.6z"/>
										<path class="st29" d="M280.8,185.6c0.5,3.2,3.2,5.5,6.1,5.1c1.5-0.2,2.8-1.2,3.6-2.4c0.4-1,0.5-2.1,0.3-3.2
											c-0.5-3.2-3.2-5.5-6.1-5.1c-1.5,0.2-2.8,1.1-3.6,2.4C280.8,183.4,280.7,184.5,280.8,185.6z"/>
										<path class="st30" d="M282.5,181.7c0.6-1,1.9-1.4,3-1.3c1.1,0.1,2.2,0.7,3,1.6c0.8,0.9,1.3,1.9,1.6,3
											C287.3,184.8,284.5,183.5,282.5,181.7z"/>
									</g>
								</g>
								<g>
									<path class="st25" d="M278.7,191.9l0.6,0.1c-0.7-1-2.1-3.1-2.2-5.9c-0.2-4.4,2.6-7.4,3.5-8.3l-0.7,0
										c-1.2,1.3-3.5,4.2-3.3,8.3C276.8,188.7,277.9,190.7,278.7,191.9z"/>
								</g>
							</g>
						</g>
						<g>
							<path class="st26" d="M269.9,192.4c0.1,0.9,1,1.5,1.9,1.4c0.9-0.1,1.5-1,1.4-1.9c-0.1-0.9-1-1.5-1.9-1.4
								C270.4,190.7,269.8,191.5,269.9,192.4z"/>
							<path class="st26" d="M270.6,192.3c0.1,0.5,0.6,0.9,1.1,0.8c0.5-0.1,0.9-0.6,0.8-1.1c-0.1-0.5-0.6-0.9-1.1-0.8
								C270.9,191.3,270.5,191.8,270.6,192.3z"/>
						</g>
					</g>
					<path class="st23" d="M246.1,204.1c0,0-6.1,0.8-14.3,1.5c0,0-8,0.9-16.8,1.4c-3.1,0.2-6.2,0.4-9.1,0.4
						c-0.3-0.2-0.6-0.3-0.9-0.5c-0.1,0-0.2-0.1-0.3-0.2c-0.3-0.2-0.7-0.4-1-0.6c-0.3-0.2-0.7-0.4-1-0.6c-0.2-0.1-0.3-0.2-0.5-0.3
						c-0.3-0.2-0.5-0.3-0.8-0.5c-1.1-0.7-2.3-1.4-3.4-2.2c-1-0.7-2-1.3-2.9-2c-1.4-0.9-2.7-1.9-4-2.8c-0.8-19.4,10.3-70.7,12.6-73.5
						c2.3-2.8,6.2-4.4,9.3-5.3c2.1-0.6,3.8-0.8,4.4-0.9c0.2,0,0.2,0,0.2,0l-0.3,65.9h25.5L246.1,204.1z"/>
					<path class="st25" d="M262,183.5c0,0-33.7-59.3-32.9-66.6c0,0-7.6-1.9-7.8,0.8c-0.3,2.7,40.4,69.4,40.4,69.4L262,183.5z"/>
					<g>
						<g>
							<g>
								<g>
									<g>
										<g>
											<g>
												<g>
													<path class="st12" d="M272,178.6c0.4,1.9-13.2,3.1-13.2,3.1l-1,3.6l5.7,0l7.3,4c0,0-0.1,1.6-0.4,3.6
														c0,0.2,0,0.4-0.1,0.5c0,0,0,0,0,0c0,0.1,0,0.1,0,0.2c0,0.2-0.1,0.5-0.1,0.7c-0.1,1-0.3,2-0.6,2.8
														c0,0.1-0.1,0.2-0.1,0.3c-0.2,0.5-0.3,1-0.5,1.4c-0.2,0.4-0.4,0.7-0.7,0.9l-6.2-1.8c0,0-6.1,3.9-7.5,4.1
														c-2.8,0.3-9.4-2.9-9.7-3.1l-1.6-9.1c0.1-0.2,4.2-4.1,4.4-4.3c0.5-0.6,1.2-1.2,1.9-1.9c0.5-0.4,1-0.9,1.5-1.3
														c1.9-1.7,4-3.3,5.9-4.2c0.8-0.4,1.6-0.6,2.3-0.7C264.2,177.2,271.6,176.6,272,178.6z"/>
												</g>
											</g>
										</g>
									</g>
									<g>
										<g>
											<path class="st15" d="M270.4,193c0,0.2-0.1,0.5-0.1,0.8c-0.1,0-0.1,0-0.2-0.1c-0.9-0.4-2.1-0.9-3.4-1.4
												c-1.3-0.5-2.5-0.9-3.5-1.1c-0.2,0-0.5-0.1-0.6-0.1c-0.2,0-0.4,0-0.5-0.1c-0.3,0-0.4,0-0.4,0s0.1-0.1,0.4-0.1
												c0.1,0,0.3-0.1,0.5-0.2c0.2,0,0.4-0.1,0.7-0.1c1.1-0.1,2.6,0,4,0.5C268.7,191.6,269.7,192.4,270.4,193z"/>
										</g>
									</g>
									<g>
										<path class="st15" d="M269.6,197.3c0,0.1-0.1,0.2-0.1,0.3c-0.2-0.1-0.6-0.3-1-0.4c-0.9-0.4-2.1-0.9-3.4-1.4
											c-1.3-0.5-2.5-0.9-3.5-1.1c-0.2,0-0.5-0.1-0.7-0.1c-0.2,0-0.4,0-0.5,0c-0.3,0-0.4-0.1-0.4-0.1s0.2-0.1,0.4-0.1
											c0.1,0,0.3-0.1,0.5-0.2c0.2,0,0.4-0.1,0.7-0.1c1.1-0.1,2.6,0,4,0.5c1.4,0.6,2.5,1.4,3.2,2.1
											C269.3,196.8,269.5,197.1,269.6,197.3z"/>
									</g>
								</g>
							</g>
						</g>
					</g>
					<path class="st12" d="M290.9,174.5c0.3,1.4,7.2,3.5,5.1,2.8c-2.1-0.7-10.5,0.3-10.6,1.9c-0.1,1.6,11.5,5.4,11.5,5.4
						s-9.6-0.9-9.2,2.2c0.1,1,1.6,2,3.5,2.8c-2.1,0.9-3.7,2-2.7,3.2c2.4,2.8,12.3-0.2,12.3-0.2c11.1-4.6-0.5-19.7-0.5-19.7
						S290.6,173.2,290.9,174.5z"/>
					<path class="st24" d="M213,126.8c0,0,7.7,9.2,9.2,13.3c1.6,4.1-5.5,44.6-5.5,44.6l21.2-0.7l2.5,18.1l-34.4,5.4l40.2-2.4
						l-3.4-24.2l-22.3,0.9c0,0,5.7-34.6,4.7-40.9C224.2,134.5,213,126.8,213,126.8z"/>
				</g>
				<g>
					<polygon class="st2" points="284.9,103.7 305.6,91.7 295.8,82.6 					"/>
					<polygon class="st2" points="284.4,111.4 298.1,117.6 299.5,109.4 					"/>
					<polygon class="st2" points="275.1,99.8 279.9,84.6 272.4,83 					"/>
				</g>
			</g>
		</g>
	</g>
	<g>
		<g>
			<path class="st1" d="M300.7,457.4c0,0,45.1,11,100.8,11c55.7,0,100.8-11,100.8-11s-45.1-11-100.8-11
				C345.9,446.4,300.7,457.4,300.7,457.4z"/>
			<path class="st1" d="M540.6,457.4c0,0,45.1,11,100.8,11c55.7,0,100.8-11,100.8-11s-45.1-11-100.8-11
				C585.7,446.4,540.6,457.4,540.6,457.4z"/>
		</g>
		<g>
			<g>
				<g>
					<g>
						<g>
							<g>
								<g>
									<g>
										<path class="st31" d="M538.9,133.2l3.1,1.2l2.5,4.7l3.9-2.7l4-2.7l2.4-1.6c-0.4-0.7-0.6-1.2-0.7-1.3c0,0,0,0,0,0
											s0.6-0.7,1.5-1.8c0.1-0.1,0.2-0.3,0.3-0.4c0.2-0.3,0.4-0.6,0.6-0.9c0.1-0.2,0.3-0.4,0.4-0.7c0.1-0.2,0.3-0.5,0.4-0.7
											c0.1-0.2,0.2-0.5,0.3-0.7l0,0c0.7-1.5,1.2-3.2,0.8-4.7c-0.1-0.5-0.2-1-0.4-1.6c-0.1-0.5-0.2-1-0.3-1.6
											c-0.2-1.4-0.3-2.9-0.1-4.4c0-0.2,0.1-0.3,0.1-0.5c0.1-0.6,0.3-1.3,0.4-1.9c0.1-0.3,0.1-0.6,0.1-1c0-0.2,0-0.4,0-0.5
											c0-0.2,0-0.3,0-0.5c0-0.5-0.1-1-0.3-1.5c-0.2-0.5-0.4-0.9-0.7-1.3c-0.1-0.1-0.2-0.2-0.3-0.4c0,0-0.1,0-0.1-0.1
											c0,0-0.1,0-0.1-0.1c-0.1,0-0.1-0.1-0.2-0.1c-0.1,0-0.2,0-0.3,0c0,0-0.1,0-0.1,0c-0.1,0.1-0.3,0.2-0.4,0.3
											c0,0-0.1,0.1-0.1,0.1c0,0,0,0.1-0.1,0.1c-2.4,2.9-3.7,6.6-3.8,10.3c0,0-15.2-17.9-16.5-17.2c-0.5,0.3-0.8,0.6-1.1,0.9
											c-0.4,0.5-0.5,1-0.5,1s8.7,13.7,8.6,14.5c-0.1,0.5-5.4-4.5-9-7.4c-1.4-1.2-2.6-2-3-2c-0.4,0-0.8,0.3-1.2,0.8
											c-0.3,0.3-0.5,0.7-0.7,1.1c-0.1,0.1-0.1,0.3-0.2,0.4c-0.5,0.8-0.8,1.6-0.8,1.6s-0.2,0.1-0.4,0.3l0,0l0,0
											c-0.1,0.1-0.2,0.1-0.3,0.2c-0.3,0.2-0.7,0.5-1,0.9c-0.3,0.3-0.6,0.6-0.9,0.9C524,113.6,536.8,132.1,538.9,133.2z"/>
										<g>
											<g>
												<path class="st32" d="M528.3,108.4c0.3,0.3,0.5,0.7,0.8,1c1.7,1.9,3.5,3.4,4.8,4.4c1.2,0.9,2.1,1.5,2.2,1.5
													c-0.1-0.1-0.7-0.9-1.6-2.2c-1-1.3-2.5-3.1-4.1-4.9c-0.4-0.4-0.8-0.9-1.2-1.3C528.9,107.3,528.6,107.9,528.3,108.4z"/>
											</g>
											<g>
												<path class="st32" d="M525.8,111.5c2.7,3.1,5.3,5,5.5,5.2c-0.1-0.2-1.6-3.1-4.2-6.3C526.8,110.6,526.3,111,525.8,111.5z
													"/>
											</g>
										</g>
										<path class="st33" d="M551.6,131.7c0,0.3,0.1,0.6,0.2,0.9c0.1,0.3,0.3,0.7,0.5,1c0,0.1,0.1,0.1,0.1,0.2l2.4-1.6
											c-0.4-0.7-0.6-1.2-0.7-1.3c0,0,0,0,0,0s0.6-0.7,1.5-1.8c0.1-0.1,0.2-0.3,0.3-0.4c0.2-0.3,0.4-0.6,0.6-0.9
											c0.1-0.2,0.3-0.4,0.4-0.7c0.1-0.2,0.3-0.5,0.4-0.7c0.1-0.2,0.2-0.5,0.3-0.7l0,0c0.7-1.5,1.2-3.2,0.8-4.7
											c-0.1-0.5-0.2-1-0.4-1.6c-0.1-0.5-0.2-1-0.3-1.6c-0.2-1.4-0.3-2.9-0.1-4.4c0-0.2,0.1-0.3,0.1-0.5c0.1-0.6,0.3-1.3,0.4-1.9
											c0.1-0.3,0.1-0.6,0.1-1c0-0.2,0-0.4,0-0.5c0-0.2,0-0.3,0-0.5c0-0.5-0.1-1-0.3-1.5c-0.2-0.5-0.4-0.9-0.7-1.3
											c-0.1-0.1-0.2-0.3-0.3-0.4c0,0-0.1,0-0.1-0.1c0,0-0.1,0-0.1-0.1c-0.1,0-0.1-0.1-0.2-0.1c-0.1,0-0.2,0-0.3,0
											c0,0-0.1,0-0.1,0c-0.1,0.1-0.3,0.2-0.4,0.3c0,0-0.1,0.1-0.1,0.1c0.1,0.3,0.2,0.5,0.3,0.8c0.6,2.1,0,4.4-0.1,6.7
											c-0.1,3.1,0.9,6.2,0.3,9.2c-0.6,2.5-2.2,4.7-3.7,6.8C552,130.2,551.5,130.9,551.6,131.7z"/>
									</g>
									<g>
										<path class="st32" d="M546.3,131.3c0,0-0.1-0.1-0.3-0.4c-0.2-0.2-0.4-0.6-0.6-1.1c-0.4-1-0.8-2.5-0.5-4.2
											c0.3-1.7,1.1-3,1.9-3.8c0.4-0.4,0.7-0.7,1-0.9c0.2-0.2,0.4-0.3,0.4-0.3s-0.1,0.2-0.2,0.4c-0.1,0.3-0.3,0.7-0.5,1.1
											c-0.4,1-0.7,2.2-0.9,3.7c-0.2,1.4-0.3,2.8-0.3,3.8c0,0.5,0,0.9,0.1,1.2C546.3,131.1,546.3,131.3,546.3,131.3z"/>
									</g>
								</g>
							</g>
							<g>
								<g>
									<path class="st31" d="M589.9,169.4l-7.2,17.7c-7.7-4.6-19-9-20.3-10.2c-0.5-0.5-1.5-2.2-2.8-4.7
										c-4.1-7.9-10.8-23.1-13.8-29.8c-0.9-2-1.4-3.3-1.4-3.3l3.9-2.7l4-2.7l2.4-1.6l17.4,26.3L589.9,169.4z"/>
									<polygon class="st33" points="552.4,133.7 552.4,133.7 572.1,158.4 554.7,132.1 									"/>
								</g>
							</g>
						</g>
					</g>
					<path class="st2" d="M614.8,207.6l1-31.5l-35.5-19.5l-13.1-14.3L544.8,160c0,0,14,17.5,15.1,19.3
						C561,181,614.8,207.6,614.8,207.6z"/>
					<path class="st16" d="M578.8,163.8c0,0,1.1-5.4,0.5-6s-7.2,1.7-6.8,2.2c0.4,0.5,5.2-0.3,5.2-0.3S577.1,165.9,578.8,163.8z"/>
				</g>
				<g>
					<polygon class="st2" points="680.3,129.8 699.1,115 703.9,127.4 					"/>
					<polygon class="st2" points="672.9,127.4 672.3,112.4 680.4,114.1 					"/>
					<polygon class="st2" points="680.3,140.3 696.2,141.5 694.9,149 					"/>
				</g>
				<g>
					<g>
						<polygon class="st32" points="704.4,389.9 689.2,383.6 697.1,366.8 711.8,373.9 						"/>
						<g>
							<path class="st3" d="M708.9,418.3c-0.7-0.4-1.5-1.1-1.5-2.2c-0.1-3.3,0.1-15.1-1.1-18.8c-0.9-2.8-3.9-6.2-5.2-7.5l8.6-18.9
								c5.5,0.8,15.4,3.6,17.5,4.3L708.9,418.3z"/>
							<polygon class="st2" points="713.2,420.1 731.6,376.9 727.2,375.1 708.9,418.3 							"/>
							<g>
								<path class="st2" d="M709,394.2c0.1,0,0.1,0,0.2,0c0.5-0.1,1.1,0,1.1,0.6c0,0.3-0.2,0.6-0.3,0.8c-0.6,0.9-1.4,1.6-2.2,2.2
									c-0.9,0.7-1.9,1.4-3,1.7c-1.2,0.2-1.7-0.9-1-1.9C705,396,707,394.5,709,394.2z"/>
								<path class="st2" d="M710,398.4c0.1,0,0.1,0,0.2,0c0.5-0.1,1.1,0,1.1,0.6c0,0.3-0.2,0.6-0.3,0.8c-0.6,0.9-1.4,1.6-2.2,2.2
									c-0.9,0.7-1.9,1.4-3,1.7c-1.2,0.2-1.7-0.9-1-1.9C705.9,400.2,708,398.7,710,398.4z"/>
								<path class="st2" d="M709.8,403c0.1,0,0.1,0,0.2,0c0.5-0.1,1.1,0,1.1,0.6c0,0.3-0.2,0.6-0.3,0.8c-0.6,0.9-1.4,1.6-2.2,2.2
									c-0.9,0.7-1.9,1.4-3,1.7c-1.2,0.2-1.7-0.9-1-1.9C705.7,404.8,707.8,403.3,709.8,403z"/>
							</g>
						</g>
						<polygon class="st34" points="627.7,363.1 640.9,326.1 701.6,358 685.1,393.5 						"/>
					</g>
					<path class="st34" d="M605.4,283.2l32.1-0.9c-1.2,17.3-2.8,48.7,0.1,55.1c0.1,0.2,0.7,1.2,1.8,2.8l-25.6,24
						c0,0-9.8-15.1-11.1-20.9C599.4,328.7,605.4,286.1,605.4,283.2z"/>
					<g>
						<polygon class="st31" points="605.3,438.1 606.3,421.6 624.7,423.4 622.9,439.7 						"/>
						<g>
							<g>
								<path class="st20" d="M667.7,283.3c0,0-26.3,70.6-32.7,87.3l-1.9,55.9l-34.5-3.2l1.2-11.3l5.8-52.5l22.2-75.3l31.7-0.7
									L667.7,283.3z"/>
							</g>
							<path class="st34" d="M667.7,283.3c0,0-26.3,70.6-32.7,87.3l-1.9,55.9l-34.5-3.2l1.2-11.3h26.9l4-45.2l28.9-83.3L667.7,283.3
								z"/>
							<path class="st35" d="M609.2,369.3c1.8,3.2,5.4,3,8.2-0.1c1.5-1.7,2.7-3.8,3.2-6.1c0.5-2.3,0.1-4.9-1.1-6.7
								c-1.3-1.9-3.6-3-5.6-2.4c-2.4,0.7-4,3.4-4.9,6c-0.7,2.2-1.1,4.5-0.7,6.7C608.5,367.8,608.8,368.6,609.2,369.3z"/>
						</g>
						<g>
							<g>
								<path class="st3" d="M578.8,451.5c0.2-0.8,0.6-1.7,1.7-2.1c3.1-1.1,14.6-4.5,17.8-6.7c2.5-1.7,4.8-5.5,5.8-7.2l20.8,2.5
									c0.8,5.4,0.9,15.7,0.9,17.8L578.8,451.5z"/>
								<polygon class="st2" points="578.3,456.2 625.4,460.6 625.8,455.9 578.8,451.5 								"/>
								<g>
									<path class="st2" d="M602.2,444.4c0,0.1,0.1,0.1,0.1,0.2c0.2,0.4,0.3,1.1-0.3,1.3c-0.3,0.1-0.6,0-0.9-0.1
										c-1-0.3-1.9-0.8-2.8-1.4c-0.9-0.6-1.9-1.3-2.5-2.3c-0.6-1,0.4-1.9,1.5-1.5C599.3,441.1,601.3,442.7,602.2,444.4z"/>
									<path class="st2" d="M598.4,446.6c0,0.1,0.1,0.1,0.1,0.2c0.2,0.4,0.3,1.1-0.3,1.3c-0.3,0.1-0.6,0-0.9-0.1
										c-1-0.3-1.9-0.8-2.8-1.4c-0.9-0.6-1.9-1.3-2.5-2.3c-0.6-1,0.4-1.9,1.5-1.5C595.5,443.3,597.5,444.8,598.4,446.6z"/>
									<path class="st2" d="M593.9,447.8c0,0.1,0.1,0.1,0.1,0.2c0.2,0.4,0.3,1.1-0.3,1.3c-0.3,0.1-0.6,0-0.9-0.1
										c-1-0.3-1.9-0.8-2.8-1.4c-0.9-0.6-1.9-1.3-2.5-2.3c-0.6-1,0.4-1.9,1.5-1.5C591,444.5,593,446,593.9,447.8z"/>
								</g>
							</g>
						</g>
					</g>
				</g>
				<g>
					<path class="st9" d="M673.1,292.7c-14.2,6.3-73.7,1.9-73.7,1.9s0.2-2.4,0.5-6.6c1.8-25,8.2-112.9,10.4-115.1
						c0.8-0.8,5.7-2.1,8.9-3c0.9-0.3,1.7-0.5,2.7-0.8c6.2-1.7,13.1-3.2,13.1-3.2c-0.4,8.1,16-2.7,16-2.7l11.4,2l0.5,0.1l8.6,1.5
						l-3.8,47.5l5,72.9L673.1,292.7z"/>
					<path class="st36" d="M673.1,292.7c-14.2,6.3-73.7,1.9-73.7,1.9s0.2-2.4,0.5-6.6c13.3,0.6,54.6,2.2,72.9-0.9L673.1,292.7z"/>
				</g>
				<g>
					<g>
						<g>
							<g>
								<g>
									<path class="st31" d="M650.9,165.2c-0.4,0.4-16.7,11.8-16.7,11.8s0.6-7.3,0.9-11.1c0.1-1.2,0.1-2,0.1-2.2
										c0-1.5-1.1-8.2-1.1-8.2l16.4-7c0,0,0.2,3.3,0.3,7C650.9,160,651.1,165,650.9,165.2z"/>
									<path class="st32" d="M650.8,155.6c-4.6,3.1-14.7,10-15.7,10.3c0,0-0.1,0-0.1,0c0.1-1.2,0.1-2,0.1-2.2
										c0-1.5-1.1-8.2-1.1-8.2l16.4-7C650.4,148.5,650.6,151.9,650.8,155.6z"/>
								</g>
							</g>
							<g>
								<path class="st31" d="M652.6,149.2c0,0-0.4,1.2-2.3,2.7l0,0c-0.4,0.3-0.8,0.7-1.3,1c-1.9,1.3-19.9,8.4-22.6,8
									c-2.7-0.4-5-9.9-5.2-10.9c-0.7-6.1-2.6-24.9-2.6-24.9c7.3-20.3,31.1-9,33.8-6.9C655.1,120.2,652.6,149.2,652.6,149.2z"/>
								<path class="st16" d="M658.2,126.1c0.5,0.9,0.8,2,0.9,3.2c0.1,1.9-0.4,3.9-1.3,5.4c-2.3,0.5-4,2.3-4.1,4.6
									c-2.6-4.3-3.4-9.7-2.5-14.6c-2.5-0.5-4.4-2.9-3.9-5.4c-0.9,1.3-2.7,2-4.3,1.7c-1.6-0.3-3-1.6-3.4-3.2
									c-0.6,1.8-2.3,3.2-4.1,3.5c-1.9,0.3-4.2-0.5-5.3-2.1c0.1,1.9-1.1,3.9-2.8,4.7c-1.7,0.8-4,0.5-5.4-0.8
									c-0.6,2.2-1.7,4.4-3.5,5.9c-1.8,1.4-4.5,1.9-6.4,0.6c-1.3-0.8-1.9-2.3-2.1-3.8c-0.2-1.3,0-2.7,0.5-4
									c0.5-1.3,1.2-2.6,2.5-3.1c-1-2.5-0.2-6.1,1.7-7.9c1.9-1.9,5-2.4,7.5-1.4c1.2-2.2,3.3-4.4,5.8-4.6c2.5-0.3,5.1,0.7,6.7,2.6
									c1.3-2.1,3.7-3.4,6.2-3.2c2.4,0.2,4.7,1.8,5.7,4c0.8-1,2.4-1.7,3.6-1.5c3.2,0.5,5.3,3.4,4.9,6.6c2.2,0.8,3.9,2.8,4.4,5.1
									C660,121,659.1,123.8,658.2,126.1z"/>
								<path class="st17" d="M658.2,126.1c0.5,0.9,0.8,2,0.9,3.2c-1.3-0.1-2.6,0.2-2.9,1.4c-2.5-2-2.9-6.1-0.8-8.5
									c-3-0.5-5.2-3.8-4.5-6.7c-1.6,1.3-3.8,1.8-5.8,1.1c-1.9-0.7-3.5-2.4-3.9-4.4c-1.2,2.3-3.5,3.9-6,4.3c-2.5,0.4-5.2-0.6-7-2.4
									c-0.4,2-1.2,4.1-2.9,5.2c-1.7,1.1-4.5,0.6-5-1.4c-0.4,2.9-1.9,5.7-4.3,7.3c-1.8,1.1-4.2,1.5-6.2,0.8c-0.2-1.3,0-2.7,0.5-4
									c0.5-1.3,1.2-2.6,2.5-3.1c-0.4-1.1-0.5-2.3-0.3-3.5c0.2-1.7,0.9-3.3,2.1-4.4c1.9-1.9,5-2.4,7.5-1.4c1.2-2.2,3.3-4.4,5.8-4.6
									c2.5-0.3,5.1,0.7,6.7,2.6c1.3-2.1,3.7-3.4,6.2-3.2c2.4,0.2,4.7,1.8,5.7,4c0.8-1,2.4-1.7,3.6-1.5c3.2,0.5,5.3,3.4,4.9,6.6
									c2.2,0.8,3.9,2.8,4.4,5.1c0,0.2,0.1,0.3,0.1,0.5C659.9,121.4,659,123.9,658.2,126.1z"/>
								<path class="st2" d="M659.6,119c-1.4-0.8-3.2-1.1-4.7-0.5c-0.2-2.4-0.7-5-2.6-6.6c-1.8-1.6-5.2-1.5-6.2,0.7
									c-1-2.1-2.7-4-4.9-4.6c-2.2-0.6-5,0.6-5.6,2.8c-1.4-2.2-4.3-3.3-6.8-2.6c-2.5,0.6-4.5,3-4.7,5.6c-3.5-2.3-8.5-1.5-11.5,1.4
									c0.2-1.7,0.9-3.3,2.1-4.4c1.9-1.9,5-2.4,7.5-1.4c1.2-2.2,3.3-4.4,5.8-4.6c2.5-0.3,5.1,0.7,6.7,2.6c1.3-2.1,3.7-3.4,6.2-3.2
									c2.4,0.2,4.7,1.8,5.7,4c0.8-1,2.4-1.7,3.6-1.5c3.2,0.5,5.3,3.4,4.9,6.6c2.2,0.8,3.9,2.8,4.4,5.1
									C659.5,118.7,659.5,118.9,659.6,119z"/>
								<path class="st33" d="M650.4,151.9c-0.4,0.3-0.8,0.7-1.3,1c-1.9,1.3-19.9,8.4-22.6,8c-2.7-0.4-5-9.9-5.2-10.9
									c1.6,4.2,3.4,9.9,5.3,9.8C629.5,159.6,648.2,152.9,650.4,151.9z"/>
							</g>
							<g>
								<path class="st33" d="M650,149.8c3.7-0.2,6.4-2.3,7.9-4.1c0.3-0.4,0.6-0.8,0.8-1.1c1.1-1.9,1.6-8.4-1.1-10
									c-1.9-1.1-3.3,0.4-4,1.4c0,0,0,0,0,0c-0.3,0.4-0.4,0.8-0.4,0.8L650,149.8z"/>
								<path class="st31" d="M650,149.8c3.7-0.2,6.4-2.3,7.9-4.1c0.1-0.2,0.2-0.4,0.3-0.5c1.1-1.9,1.6-8.4-1.1-10
									c-1.5-0.9-2.7-0.1-3.5,0.8c0,0,0,0,0,0c-0.3,0.4-0.4,0.8-0.4,0.8L650,149.8z"/>
								<path class="st33" d="M658.3,139.8c0.1,0.5,0,1.1-0.2,1.6c-0.8,2.2-3,3.8-5.2,5.3c0.7-1.1,0.9-2.3,0.8-3.4
									c0-0.4-0.1-0.8-0.1-1.2C653.7,140.4,657.6,136.7,658.3,139.8z"/>
								<g>
									<path class="st32" d="M651.9,147.3c0,0,0,0,0.1-0.1c0.1,0,0.2-0.1,0.3-0.2c0.3-0.2,0.7-0.5,1.1-0.9c0.4-0.4,0.7-1,0.9-1.7
										c0.2-0.7,0.2-1.5-0.2-2.3c0-0.1-0.1-0.2-0.1-0.3l0-0.1c0,0,0,0,0,0l0,0l0,0h0c0,0,0,0,0,0l0-0.1l0.1-0.1
										c0.1-0.1,0.1-0.2,0.2-0.2c0.2-0.3,0.4-0.6,0.7-0.9c0.2-0.3,0.5-0.5,0.7-0.8c0.2-0.2,0.5-0.4,0.7-0.6
										c0.2-0.2,0.5-0.3,0.7-0.3c0.2,0,0.4,0,0.6,0.1c0.1,0.1,0.2,0.2,0.3,0.2c0,0.1,0,0.1,0,0.1c0,0,0,0,0-0.1
										c0-0.1-0.1-0.2-0.2-0.3c-0.1-0.1-0.4-0.2-0.7-0.2c-0.3,0-0.6,0.1-0.9,0.2c-0.3,0.2-0.6,0.4-0.8,0.6
										c-0.3,0.2-0.6,0.5-0.8,0.7c-0.3,0.3-0.5,0.6-0.8,0.9c-0.1,0.1-0.1,0.2-0.2,0.3l-0.1,0.1l-0.1,0.2l-0.1,0.1
										c0,0,0,0.1,0.1,0.1l0.1,0.2c0,0.1,0.1,0.2,0.1,0.3c0.3,0.7,0.4,1.4,0.3,2.1c-0.1,0.6-0.3,1.2-0.6,1.7
										c-0.3,0.4-0.6,0.8-0.8,1c-0.1,0.1-0.2,0.2-0.3,0.2C651.9,147.3,651.9,147.3,651.9,147.3z"/>
								</g>
							</g>
						</g>
					</g>
					<path class="st2" d="M662.9,165.2c-3.3,5.9-13.7,22.6-24.4,22.2c-10.2-0.4-15.1-13.1-16.7-18.5c6.2-1.7,13.1-3.2,13.1-3.2
						c-0.4,8.1,16-2.7,16-2.7l11.4,2L662.9,165.2z"/>
					<path class="st16" d="M635,165.8c0,0-6.8,0.5-9,2.1l6.4,10.4l6-7.4l7.9,7.4c0,0,8.5-9.5,11.5-13.9c0,0-3.8-1.3-6.8-1.2
						C651,163.2,639.1,170.7,635,165.8z"/>
				</g>
				<g>
					<g>
						<g>
							<g>
								<g>
									<path class="st31" d="M611.2,227.3c-0.7-0.4-1.3-0.8-1.9-0.9c-4.2-0.9-10.7-2.2-11.3-0.5c-0.6,1.7,11.5,4.3,11.5,4.3
										l0.5,3.4l-5.1-0.6l-7,2.8c0,0-0.1,1.5-0.1,3.2c0,0.2,0,0.3,0,0.5c0,0,0,0,0,0c0,0,0,0.1,0,0.2c0,0.2,0,0.4,0,0.6
										c0,0.9,0.1,1.8,0.2,2.6c0,0.1,0,0.2,0,0.3c0.1,0.5,0.2,0.9,0.3,1.3c0.1,0.4,0.3,0.7,0.5,0.9l5.8-0.9c0,0,6,5.4,7.2,5.7
										c0.5,0.1,10.4-2,10.4-2l0.5-12l-3.2,0C619.4,236,612.8,228.3,611.2,227.3z"/>
									<g>
										<g>
											<path class="st32" d="M597.7,239c0,0.2,0,0.5,0,0.7c0,0,0.1,0,0.1,0c0.8-0.2,2-0.6,3.2-0.9c1.2-0.3,2.4-0.5,3.3-0.6
												c0.2,0,0.4,0,0.6,0c0.2,0,0.3,0,0.5,0c0.3,0,0.4,0,0.4,0s-0.1-0.1-0.4-0.2c-0.1-0.1-0.3-0.1-0.5-0.2
												c-0.2-0.1-0.4-0.1-0.6-0.2c-0.9-0.2-2.3-0.3-3.7,0C599.4,238,598.4,238.5,597.7,239z"/>
										</g>
									</g>
									<g>
										<path class="st32" d="M597.9,242.9c0,0.1,0,0.2,0,0.3c0.2-0.1,0.5-0.2,0.9-0.3c0.8-0.2,2-0.6,3.2-0.9
											c1.2-0.3,2.4-0.5,3.2-0.6c0.2,0,0.4,0,0.6,0c0.2,0,0.3,0,0.5,0c0.3,0,0.4,0,0.4,0s-0.1-0.1-0.4-0.2
											c-0.1-0.1-0.3-0.1-0.5-0.2c-0.2-0.1-0.4-0.1-0.6-0.2c-0.9-0.2-2.3-0.3-3.7,0c-1.4,0.4-2.4,1-3.1,1.5
											C598.3,242.6,598.1,242.8,597.9,242.9z"/>
									</g>
								</g>
							</g>
						</g>
					</g>
					<polygon class="st31" points="622.6,236.1 647.7,231.7 650.3,248.7 622.1,248.1 					"/>
				</g>
				<path class="st2" d="M671.5,166.7c0,0,12.1,10.6,14.2,14.6s12.9,59.9,10.5,63.9c-2.4,4.1-45.9,10.5-45.9,10.5
					s-7.3-12.3-4.7-28.8l25.2-5l-3.1-7.7L671.5,166.7z"/>
			</g>
			<g>
				<g>
					<g>
						<g>
							<path class="st12" d="M451.1,329.3c-1.8,14.2-3.9,26.6-4.7,29.1c-1.9,5.4-6.8,91.7-6.8,91.7l-11.5,0.3l-2.8,0.1
								c0,0-4.5-62.6-4.2-74.4c0-0.2,0-0.4,0-0.6c0-0.4,0.1-0.8,0.1-1c1.5-7.6,6.4-22,6.4-22c-0.2-1.2-0.5-11.2-0.7-22.8
								c1.2,0.1,2.5,0.1,3.7,0.1c0.3,0,0.6,0,0.9,0C438,330,444.6,329.9,451.1,329.3z"/>
							<path class="st13" d="M424.6,378.4l3.5,71.9l-2.8,0.1c0,0-4.5-62.6-4.2-74.4c0-0.2,0-0.4,0-0.6c0-0.4,0.1-0.8,0.1-1
								c1.5-7.6,6.4-22,6.4-22c-0.2-1.2-0.5-11.2-0.7-22.8c1.2,0.1,2.5,0.1,3.7,0.1c0.3,0,0.6,0,0.9,0l0.2,21L424.6,378.4z"/>
							<g>
								<g>
									<path class="st25" d="M469.3,456.8l-48.7,1.3c0.1-1.4,0.4-5.8,0.9-10.3c4.3,0.5,13.3,1.6,14.6,0.9c1.4-0.7,2-7.8,2.1-10.1
										l6.1-0.3c0.8,1.8,3,6,5.4,7.9c3.1,2.5,14.7,6.9,17.9,8.3C468.7,454.9,469.1,455.9,469.3,456.8z"/>
									<polygon class="st2" points="469.4,461.7 420.7,463 420.6,458.1 469.3,456.8 									"/>
								</g>
							</g>
						</g>
						<g>
							<path class="st12" d="M423.8,336c-8.2,11.7-15.8,21.8-17.7,23.6c-4.1,3.9-51.9,79.3-51.9,79.3l-7.2-5.9l-3.7-3.1
								c0,0,26.4-56.5,32.3-66.4c0.2-0.3,0.4-0.6,0.5-0.8c0.1-0.1,0.1-0.2,0.2-0.3c0,0,0.1-0.1,0.1-0.1c4.8-6,15.8-16.6,15.8-16.6
								c0.4-1.2,4.8-10.1,9.9-20.5c1.3,0.8,2.7,1.5,4,2.3C411.9,330.6,417.7,333.5,423.8,336z"/>
							<path class="st13" d="M406.1,327.4l-9.6,18.7l-19,21.1L347,432.9l-3.7-3.1c0,0,26.4-56.5,32.3-66.4c0.2-0.3,0.4-0.6,0.5-0.8
								c0.1-0.1,0.1-0.2,0.2-0.3c0,0,0.1-0.1,0.1-0.1c4.8-6,15.8-16.6,15.8-16.6c0.4-1.2,4.8-10.1,9.9-20.5
								C403.4,325.9,404.8,326.7,406.1,327.4z"/>
							<g>
								<g>
									<path class="st25" d="M380.9,457.4L337.2,436c0.7-1.1,2.9-4.7,5.4-8.4c2.6,2.6,7.5,7.4,9.7,7.7c2.2,0.3,6.1-5.6,8.1-9.1
										l6.9,3.2c-0.1,2-0.1,6.7,1.1,9.6c1.6,3.7,9.9,12.9,12,15.6C381.3,455.6,381.2,456.6,380.9,457.4z"/>
									<polygon class="st2" points="378.8,461.8 335,440.5 337.2,436 380.9,457.4 									"/>
								</g>
							</g>
						</g>
						<g>
							<path class="st37" d="M460.9,416c0,0-69.8,6.8-112.2-13.1l36.6-104.6c0,0-0.9-35,0.7-39.7c0.4-1,3.4-1.8,7.9-2.4
								c16.2-2.3,51.5-2.5,51.5-2.5s12.7,122.1,15.2,157.6C460.7,413.1,460.8,414.7,460.9,416z"/>
							<path class="st38" d="M460.9,416c0,0-69.8,6.8-112.2-13.1l36.6-104.6c0,0-0.9-35,0.7-39.7c0.4-1,3.4-1.8,7.9-2.4
								c0.2,12.8,0.6,41.5-0.1,44.4c-0.9,3.6-32,95.2-32,95.2l98.8,15.6C460.7,413.1,460.8,414.7,460.9,416z"/>
						</g>
					</g>
					<path class="st16" d="M446.1,179.8c-0.6,3.3-1.3,6.7-1.9,10c-0.1,0.3-0.2,0.6-0.5,0.6c-0.2,0-0.2-0.3-0.1-0.4h-57.6
						c-4-3.8-6.4-9.4-6.6-14.7c-0.3-5.3,1.6-10.7,5.1-14.8c0.2-0.3,0.5-0.6,0.8-0.9c2.8-3,6.1-5.8,6.4-9.7c0.2-2.8-1.4-5.3-2-8
						c-0.5-2.2-0.4-4.4,0.4-6.5c0.9-2.6,2.7-4.9,3.3-7.5c0.9-4.1,0.6-7.2,3.5-10.7c1.3-1.6,2.8-3.1,4.5-4.4
						c5.2-4.3,11.9-7.3,18.9-6.9c6.9,0.4,13.6,4.2,16.8,9.9c3,5.2,3,11.4,4.9,17c1,3,2.6,5.9,3.4,8.9c0.7,2.8,0.8,5.7,0.3,8.5
						c0,0.2-0.1,0.5-0.2,0.7c-0.7,2.7-1.9,5.3-1.9,8.1c0,4,2.5,7.7,3.2,11.7C447.3,173.6,446.7,176.7,446.1,179.8z"/>
					<g>
						<g>
							<g>
								<path class="st12" d="M409.9,162.6c0,0,8.9,6.1,10.7,5.5c1.7-0.6,4.2-4.1,4.2-4.1c-0.4-0.4-2.9-2.2-2.8-3.5
									c0.3-3.1,1.4-7.5,1.4-7.5l-10.5-3.6c0,0-0.4,3-1,6.2C411.3,158.7,410.5,162.1,409.9,162.6z"/>
								<path class="st13" d="M411.9,155.5c2.9,2.2,6.4,4.7,7.6,5.1c0.9,0.3,1.8,0.1,2.5-0.2c0.3-3.1,1.4-7.5,1.4-7.5l-10.5-3.6
									C413,149.3,412.5,152.3,411.9,155.5z"/>
								<g>
									<path class="st14" d="M407.2,119.9c5.8-6.6,15.4-8.6,23-4.2c1.7,1,3.1,2.1,3.8,3.4c2.5,5,6.1,23.5,2.2,32.4
										c-3.8,8.9-9.9,7.7-12,7c-2.1-0.6-12.2-4.8-14.6-8.1c-2.3-3.3-7.3-20.3-6.2-24.7C403.7,124.3,405.3,122.1,407.2,119.9z"/>
									<path class="st12" d="M406.5,118.6c5.8-6.6,15.4-8.6,23-4.2c1.7,1,3.1,2.1,3.8,3.4c2.5,5,6.1,23.5,2.2,32.4
										c-3.8,8.9-9.9,7.7-12,7c-2.1-0.6-12.2-4.8-14.6-8.1c-2.3-3.3-7.3-20.3-6.2-24.7C403,123,404.6,120.8,406.5,118.6z"/>
									<path class="st16" d="M431.9,113.1c-1.8-1.5-4.2-2.3-6.5-2.8c-6.4-1.1-13.3,0.5-18.6,4.4c-2.5,1.9-4.7,4.3-5.9,7.2
										c-1.2,3-1.4,6.3-1,9.6c0.4,3.2,1.5,6.7,2.4,9.8c0,0,1.2-2.3,2.1-2.3c0.8,0,2.5,1.4,2.5,1.4c1.3-1.3,2.6-1.5,2.8-9.9
										c0-1.2-0.8-3.1-2-4.1c1.1-1.1,2.1-2.3,3.1-3.5c0.2-0.3,0.4-0.6,0.6-1c0.1,0.3,0.1,0.6,0.1,0.8c0,1-0.4,2.1-1.2,2.7
										c3.3,0.3,6.7-1.9,7.7-5c1.1,1.1,0.7,3.2-0.8,3.8c1.8,0.9,4,0.9,5.8,0c1.8-0.9,3.1-2.6,3.5-4.6c0.7,0.5,1.1,1.5,0.8,2.3
										c-0.2,0.8-1,1.5-1.9,1.6c1.7,1.1,3.9,1.3,5.8,0.4c1.8-0.8,3.1-2.7,3.4-4.7C434.9,117,433.7,114.6,431.9,113.1z"/>
									<path class="st12" d="M408.6,141.3c-0.5-0.3-3.3-3.8-5.2-1.6c-1.9,2.2-2.4,5.8-0.6,7.8c1.6,1.8,3.9,3.8,6.7,3.1
										L408.6,141.3z"/>
									<path class="st13" d="M403.5,142.4c-0.1,0.5,0,1,0.1,1.4c0.7,2,2.6,3.5,4.4,4.9c-0.6-1-0.8-2.1-0.7-3.1
										c0-0.4,0.1-0.7,0.1-1.1C407.4,143,404.1,139.5,403.5,142.4z"/>
									<g>
										<path class="st15" d="M408.9,149.3c0,0,0,0-0.1-0.1c-0.1,0-0.2-0.1-0.3-0.2c-0.2-0.2-0.6-0.4-0.9-0.8
											c-0.3-0.4-0.6-0.9-0.8-1.6c-0.1-0.6-0.1-1.4,0.2-2.1c0-0.1,0.1-0.2,0.1-0.3l0-0.1c0,0,0,0,0,0l0,0l0,0l0,0c0,0,0,0,0,0
											l0-0.1l-0.1-0.1c0-0.1-0.1-0.1-0.1-0.2c-0.2-0.3-0.4-0.6-0.6-0.8c-0.2-0.3-0.4-0.5-0.6-0.7c-0.2-0.2-0.4-0.4-0.6-0.6
											c-0.2-0.1-0.4-0.2-0.6-0.3c-0.2,0-0.4,0-0.5,0.1c-0.1,0.1-0.2,0.2-0.2,0.2c0,0.1,0,0.1,0,0.1c0,0,0,0,0-0.1
											c0-0.1,0.1-0.2,0.2-0.3c0.1-0.1,0.3-0.2,0.6-0.2c0.3,0,0.5,0.1,0.8,0.2c0.2,0.1,0.5,0.3,0.7,0.5c0.2,0.2,0.5,0.4,0.7,0.7
											c0.2,0.3,0.4,0.5,0.7,0.8c0.1,0.1,0.1,0.2,0.1,0.2l0.1,0.1l0.1,0.2l0.1,0.1c0,0,0,0.1-0.1,0.1l-0.1,0.2
											c0,0.1-0.1,0.1-0.1,0.2c-0.3,0.6-0.3,1.3-0.3,1.9c0.1,0.6,0.3,1.1,0.5,1.5c0.2,0.4,0.5,0.7,0.7,0.9
											C408.7,149.1,408.7,149.1,408.9,149.3C408.9,149.2,408.9,149.3,408.9,149.3z"/>
									</g>
								</g>
							</g>
						</g>
					</g>
					<g>
						<path class="st39" d="M384.2,261.2c21.8,6.1,65.9-4.1,65.9-4.1l-7.6-39.9c0,0,6.9-14.5,6.6-24.3c-0.3-9.8-11.3-24.6-11.3-24.6
							l-0.8-0.3l-3.4-1.1l-8.9-2.8l-14.9-1.4l-10.5,3.2l-4.7,1.7l-2.7,0.9l2,44.6L384.2,261.2z"/>
						<path class="st12" d="M399.4,165.8c2.3,4.2,9.8,15.7,21.1,14.7c11-1,12.9-10.1,13.2-13.7l-8.9-2.8l-14.9-1.4L399.4,165.8z"/>
						<path class="st2" d="M399.4,165.8c0,0,6.3,19.9,11.8,19.2c5.5-0.7,9.2-4.6,9.2-4.6s7.4,5.5,9.7,4.6c2.3-0.9,3.4-18.3,3.4-18.3
							l-9.2-3.5c0,0-1.5,7.7-5.3,7.4c-3.8-0.3-9.3-8.1-9.3-8.1L399.4,165.8z"/>
					</g>
					<g>
						<g>
							<g>
								<g>
									<g>
										<path class="st40" d="M446.4,237.7c0,0,5.5-0.3,6.5-1.1l-5.9-28.7l-9,3.1C438,211,445.6,236.1,446.4,237.7z"/>
										<g>
											<path class="st41" d="M476.3,410.6c-2.9-4.9-7.6-8.4-11.9-11.3l-1.5-1c-3.9-2.6-7.9-5.3-10.9-8.9
												c-5.4-6.6-7.6-16.6-5.8-27.6c1.1-6.9,3.5-13.6,5.8-20.1c1.5-4.1,3-8.4,4.1-12.7c8.8-31.7,0.6-65.1-6.5-94.6l-1.8,0.4
												c7.1,29.3,15.2,62.4,6.5,93.7c-1.2,4.2-2.7,8.4-4.1,12.5c-2.3,6.6-4.7,13.4-5.9,20.4c-1.1,6.8-1.7,19.5,6.2,29.1
												c3.1,3.8,7.3,6.6,11.3,9.2l1.5,1c4.1,2.8,8.6,6.1,11.3,10.7c2.3,4,3.3,9.9,0.1,14.1c-2,2.7-5.4,4.4-10.7,5.4
												c-6.5,1.2-16.9,0.6-23.4-0.7l-0.1,2.1c3.3,0.6,10.5,1.4,13.9,1.4c3.3,0,6.6-0.3,9.9-0.9c5.7-1.1,9.6-3.1,11.9-6.1
												C480,422,478.9,415.2,476.3,410.6z"/>
										</g>
										<g>
											<path class="st25" d="M435.7,200.2l0.1-0.1c0.4-0.5,0.9-0.8,1.4-1.2c0.5-0.3,0.9-0.5,1.4-0.7c0.8-0.3,1.6-0.4,2.4-0.5
												c0.6,0,1.1,0,1.7,0.1c0.7,0.1,1.4,0.4,2.1,0.7c0.5,0.3,1,0.6,1.5,1c0.2,0.1,0.3,0.3,0.4,0.4c0.3,0.3,0.7,0.7,0.9,1.1
												c0.4,0.5,0.7,1.1,0.9,1.6c0.3,0.8,0.5,1.5,0.5,2.3c0,0.2,0,0.4,0,0.6c0,0.8-0.2,1.6-0.4,2.4c-0.2,0.5-0.4,1-0.7,1.4
												c-0.3,0.5-0.7,1-1.1,1.4l-0.1,0.1c-0.5,0.5-1.1,0.9-1.6,1.2c-0.7,0.4-1.4,0.6-2.1,0.8c-0.7,0.2-1.3,0.2-2,0.2
												c-0.8,0-1.6-0.2-2.4-0.5c-0.6-0.2-1.1-0.5-1.6-0.8c-0.4-0.3-0.8-0.6-1.1-0.9c-0.1-0.1-0.3-0.3-0.4-0.4
												c-0.4-0.5-0.7-1-1-1.5c-0.4-0.7-0.6-1.4-0.8-2.1c-0.2-1-0.2-2.1,0-3.1c0.1-0.7,0.4-1.4,0.7-2.1
												C434.9,201.3,435.3,200.7,435.7,200.2z"/>
											<path class="st41" d="M438.2,202.6l-1.4,1.4l-2.2-2.2c-0.4,0.7-0.6,1.4-0.7,2.1l1.5,1.5l-1.5,1.6
												c0.1,0.7,0.4,1.4,0.8,2.1l2.2-2.3l1.3,1.2l-2.5,2.5c0.1,0.1,0.3,0.3,0.4,0.4c0.3,0.3,0.7,0.6,1.1,0.9l2.4-2.4l1.3,1.2
												l-2,2.1c0.8,0.3,1.6,0.4,2.4,0.5l1.1-1.1l0.9,0.9c0.7-0.2,1.4-0.4,2.1-0.8l-1.6-1.6l1.4-1.4l1.8,1.8l0.1-0.1
												c0.4-0.5,0.8-0.9,1.1-1.4l-1.7-1.7l1.1-1.1l1.3,1.3c0.3-0.8,0.4-1.6,0.4-2.4l-0.3-0.3l0.3-0.3c-0.1-0.8-0.2-1.6-0.5-2.3
												l-1.2,1.2l-1.3-1.2l1.6-1.6c-0.3-0.4-0.6-0.7-0.9-1.1c-0.1-0.1-0.3-0.3-0.4-0.4l-1.7,1.7l-1.3-1.2l1.4-1.5
												c-0.7-0.3-1.4-0.6-2.1-0.7l-0.8,0.8l-0.9-0.9c-0.8,0-1.6,0.2-2.4,0.5l1.9,1.9l-1.1,1.1l-2.3-2.2c-0.5,0.3-1,0.7-1.4,1.2
												l-0.1,0.1L438.2,202.6z M444.8,204.1l1.3,1.2l-1.1,1.1l-1.3-1.2L444.8,204.1z M442.3,206.6l1.3,1.2l-1.4,1.4l-1.3-1.2
												L442.3,206.6z M442.1,201.5l1.3,1.2l-1.1,1.1l-1.3-1.2L442.1,201.5z M439.6,204l1.3,1.2l-1.4,1.4l-1.3-1.2L439.6,204z"/>
										</g>
									</g>
									<path class="st12" d="M439.8,215.8c0.5-0.7,1-1.4,1.6-1.8c3.8-2.8,9.8-7,11.1-5.6c1.3,1.4-9.5,9.5-9.5,9.5l1,3.6l4.8-2.9
										l8.3-0.4c0,0,0.7,1.4,1.5,3.2c0.1,0.2,0.2,0.3,0.2,0.5c0,0,0,0,0,0c0,0,0,0.1,0.1,0.2c0.1,0.2,0.2,0.4,0.3,0.6
										c0.4,0.9,0.7,1.8,1,2.7c0,0.1,0.1,0.2,0.1,0.3c0.1,0.5,0.2,1,0.3,1.4c0.1,0.5,0.1,0.8-0.1,1.1l-6.2,1.7
										c0,0-3.6,8.1-4.6,8.9c-0.4,0.3-11.3,2.7-11.3,2.7l-6-11.7l3.2-1.4C435.6,228.2,438.6,217.6,439.8,215.8z"/>
									<g>
										<g>
											<path class="st15" d="M458.6,221.4c0.1,0.2,0.2,0.5,0.3,0.7c-0.1,0-0.1,0-0.2,0c-1,0.1-2.2,0.3-3.6,0.6
												c-1.4,0.3-2.6,0.6-3.5,0.9c-0.2,0.1-0.4,0.2-0.6,0.2c-0.2,0.1-0.3,0.2-0.5,0.2c-0.3,0.1-0.4,0.2-0.4,0.2s0.1-0.1,0.3-0.4
												c0.1-0.1,0.2-0.3,0.4-0.4c0.2-0.1,0.3-0.3,0.5-0.5c0.8-0.7,2.1-1.4,3.7-1.6C456.4,221.1,457.7,221.2,458.6,221.4z"/>
										</g>
									</g>
									<g>
										<path class="st15" d="M460.1,225.3c0,0.1,0.1,0.2,0.1,0.3c-0.3,0-0.6,0.1-1,0.1c-1,0.1-2.2,0.3-3.6,0.6
											c-1.4,0.3-2.6,0.6-3.5,0.9c-0.2,0.1-0.4,0.2-0.6,0.2c-0.2,0.1-0.3,0.2-0.4,0.2c-0.3,0.1-0.4,0.2-0.4,0.2s0.1-0.1,0.3-0.4
											c0.1-0.1,0.2-0.3,0.4-0.4c0.2-0.1,0.3-0.3,0.5-0.5c0.8-0.7,2.1-1.4,3.7-1.6c1.5-0.3,2.9-0.1,3.8,0.1
											C459.6,225.2,459.9,225.3,460.1,225.3z"/>
									</g>
								</g>
							</g>
						</g>
					</g>
					<path class="st39" d="M392,168.5c0,0-14.9,5.3-15.6,6.6c-0.7,1.4-12.2,72.4-10.5,75.4c1.7,3,15.2,10.5,18.3,10.6
						c3,0.2,55-16.6,55-16.6l-6.9-21.4l-40.3,6.8l2.8-35L392,168.5z"/>
					<path class="st42" d="M383.5,186.4c0,0,4.8,8.4,5,13.2c0.2,4.7-3.5,34.3-3.5,34.3l44.1-7l5.5,16l-56.9,15.9
						c0,0,33.1-3.5,61.4-14.1l-6.9-21.4l-41.2,5.6c0,0,2.9-22.9,0.8-30.1C390.8,195.1,383.5,186.4,383.5,186.4z"/>
					<g>
						<path class="st17" d="M445.6,150.1c-0.4-1.2-0.8-2.3-1.2-3.5c-1.9-5.3-3.7-10.5-5.2-15.9c-1.5-5.7-2.8-11.8-7.2-15.7
							c-0.9,1.4-2.2,2.5-3.6,3.2c0.1-2-0.6-4-1.8-5.5c-1.4,3-3.9,5.4-7,6.6c-0.1-1.9-0.6-3.8-1.4-5.6c-1.3,2.3-3.4,4-5.9,4.8
							c-0.2-1.1-0.4-2.3-0.6-3.4c-2.3,3.6-5.6,6.5-9.5,8.4c1.8,3.8,1.4,8.6-1.1,12.1c-0.3-0.8-0.7-1.6-1.3-2.2
							c-0.6-0.6-1.6-0.8-2.3-0.4c-0.3,0.2-0.6,0.5-0.7,0.9c-1.1,1.7-1.8,3.6-2.1,5.6c-0.4,2.7-0.1,5.5-0.6,8.2
							c-0.5,3.5-2.3,6.8-5,9.2c-1.1,1-2.4,1.9-3.7,2.7c2.8-3,6.1-5.8,6.4-9.7c0.2-2.8-1.4-5.3-2-8c0-0.2-0.1-0.4-0.1-0.6
							c0,0,0,0,0,0c-0.3-1.9-0.2-4,0.5-5.8c0.9-2.6,2.7-4.9,3.3-7.5c0.9-4.1,0.6-7.2,3.5-10.7c1.3-1.6,2.8-3.1,4.5-4.4
							c5.2-4.3,11.9-7.3,18.9-6.9c6.9,0.4,13.6,4.2,16.8,9.9c2.8,4.8,3,10.5,4.5,15.8c0.1,0.4,0.2,0.8,0.4,1.2c1,3,2.6,5.9,3.4,8.9
							C446.1,144.4,446.2,147.3,445.6,150.1z"/>
						<path class="st2" d="M441.6,131.5c-1.2-2.2-2.2-4.7-3.1-7.1c-1.7-4.6-3.8-9.5-7.9-12c-0.2,0.9-0.5,1.9-0.7,2.8
							c-0.6-2.3-2.1-4.4-4.1-5.7c-1.6,1.5-3.5,2.6-5.5,3.4c0.2-1.6-0.1-3.2-0.8-4.6c-2,2.4-4.6,4.3-7.5,5.5
							c-0.2-0.9-0.6-1.8-1.1-2.6c-2.9,4.9-7.2,8.9-12.3,11.4c0.8,2.5,1,5.3,0.6,7.9c-0.6-1-1.6-1.8-2.7-2.1c0.3,1.7-0.5,3.5-1.6,4.9
							c-1.1,1.4-2.4,2.6-3.4,4c-0.8,1.2-1.4,2.6-1.8,4c-0.3-1.9-0.2-4,0.5-5.8c0.9-2.6,2.7-4.9,3.3-7.5c0.9-4.1,0.6-7.2,3.5-10.7
							c1.3-1.6,2.8-3.1,4.5-4.4c5.2-4.3,11.9-7.3,18.9-6.9c6.9,0.4,13.6,4.2,16.8,9.9C439.8,120.5,440,126.2,441.6,131.5z"/>
					</g>
					<g>
						<g>
							<g>
								<g>
									<g>
										<g>
											<path class="st12" d="M503.7,117.4l-2.1,2.1l-0.3,3.9l-0.1,0.8l-4.1-0.8l-0.9-0.2l-3.3-0.6l-2.5-0.4
												c0.1-0.7,0.1-1.2,0.1-1.3c0,0,0,0,0,0s-0.8-0.3-1.8-0.9c-0.1-0.1-0.3-0.2-0.4-0.2c-0.3-0.2-0.5-0.3-0.8-0.5
												c-0.2-0.1-0.4-0.3-0.6-0.4c-0.2-0.1-0.4-0.3-0.6-0.4c-0.2-0.1-0.4-0.3-0.5-0.5l0,0c-0.4-0.4-0.8-0.8-1.2-1.2
												c-0.2-0.3-0.4-0.6-0.6-0.9c0,0,0,0,0,0c-0.1-0.1-0.2-0.3-0.2-0.5c0,0,0,0,0,0c-0.1-0.2-0.1-0.3-0.2-0.5c0,0,0,0,0,0
												c-0.1-0.2-0.1-0.3-0.1-0.5l0,0c-0.1-0.5-0.2-0.9-0.3-1.4c-0.1-0.5-0.2-0.9-0.3-1.4c-0.3-1.3-0.8-2.5-1.5-3.6
												c-0.1-0.1-0.2-0.2-0.2-0.4c-0.3-0.5-0.7-0.9-1-1.4c-0.2-0.2-0.3-0.5-0.5-0.7c-0.1-0.1-0.2-0.3-0.2-0.4
												c-0.1-0.1-0.1-0.3-0.2-0.4c-0.2-0.4-0.3-0.8-0.3-1.3c-0.1-0.4,0-0.9,0.1-1.3c0-0.1,0.1-0.3,0.1-0.4c0,0,0-0.1,0-0.1
												c0,0,0-0.1,0.1-0.1c0-0.1,0.1-0.1,0.1-0.2c0.1,0,0.1-0.1,0.2-0.1c0,0,0.1,0,0.1,0c0.1,0,0.3,0,0.4,0.1c0,0,0,0,0,0
												c0,0,0,0,0.1,0c0,0,0.1,0,0.1,0c3,1.5,5.4,4,6.8,7c0,0,5.8-20,7.1-19.9c0.5,0,0.9,0.2,1.2,0.3c0.5,0.3,0.8,0.6,0.8,0.6
												s-2.1,14.2-1.7,14.8c0.3,0.4,2.8-5.6,4.6-9.3c0.7-1.5,1.4-2.6,1.7-2.7c0.3-0.1,0.8,0,1.2,0.2c0.2,0.1,0.5,0.3,0.7,0.5
												c0.1,0.1,0.2,0.1,0.2,0.2c0.1,0.1,0.2,0.2,0.3,0.2c0.7,0.5,1.2,1.1,1.2,1.1s0.2,0,0.4,0.1c0,0,0.1,0,0.1,0
												c0.1,0,0.1,0,0.2,0c0.1,0,0.2,0,0.3,0.1c0.3,0.1,0.6,0.2,0.9,0.3c0.4,0.1,0.7,0.3,1.1,0.4
												C508.6,96.1,505,115.7,503.7,117.4z"/>
											<g>
												<g>
													<path class="st15" d="M503.3,93.4c-0.1,0.4-0.2,0.7-0.3,1.1c-0.7,2.1-1.6,4-2.3,5.3c-0.7,1.2-1.2,2-1.2,2.1
														c0-0.1,0.2-1,0.5-2.3c0.4-1.4,0.9-3.4,1.6-5.5c0.2-0.5,0.3-1,0.5-1.5C502.5,92.8,502.9,93.1,503.3,93.4z"/>
												</g>
												<g>
													<path class="st32" d="M506.4,95c-1.1,3.4-2.5,6-2.6,6.2c0-0.2,0.2-3.1,1.1-6.6C505.3,94.7,505.8,94.8,506.4,95z"/>
												</g>
											</g>
											<path class="st14" d="M493,121.5c0,0.3,0,0.7,0,1c0,0.1,0,0.1,0,0.2l-2.5-0.4c0.1-0.7,0.1-1.2,0.1-1.3c0,0,0,0,0,0
												s-0.8-0.3-1.8-0.9c-0.1-0.1-0.3-0.2-0.4-0.2c-0.3-0.2-0.5-0.3-0.8-0.5c-0.2-0.1-0.4-0.3-0.6-0.4
												c-0.2-0.1-0.4-0.3-0.6-0.4c-0.2-0.1-0.4-0.3-0.5-0.5l0,0c-0.4-0.4-0.8-0.8-1.2-1.2c-0.2-0.3-0.4-0.6-0.6-0.9c0,0,0,0,0,0
												c-0.1-0.1-0.2-0.3-0.2-0.5c0,0,0,0,0,0c-0.1-0.2-0.1-0.3-0.2-0.5c0,0,0,0,0,0c-0.1-0.2-0.1-0.3-0.1-0.5l0,0
												c-0.1-0.5-0.2-0.9-0.3-1.4c-0.1-0.5-0.2-0.9-0.3-1.4c-0.3-1.3-0.8-2.5-1.5-3.6c-0.1-0.1-0.2-0.2-0.2-0.4
												c-0.3-0.5-0.7-0.9-1-1.4c-0.2-0.2-0.3-0.5-0.5-0.7c-0.1-0.1-0.2-0.3-0.2-0.4c-0.1-0.1-0.1-0.3-0.2-0.4
												c-0.2-0.4-0.3-0.8-0.3-1.3c-0.1-0.4,0-0.9,0.1-1.3c0-0.1,0.1-0.3,0.1-0.4c0,0,0-0.1,0-0.1c0,0,0-0.1,0.1-0.1
												c0-0.1,0.1-0.1,0.1-0.2c0.1,0,0.1-0.1,0.2-0.1c0,0,0.1,0,0.1,0c0.1,0,0.3,0,0.4,0.1c0,0,0,0,0,0c0,0,0,0,0,0
												c0,0.3,0,0.5,0.1,0.7c0.3,2,1.6,3.6,2.5,5.4c1.2,2.5,1.5,5.3,3.1,7.5c1.4,1.9,3.5,3,5.5,4.2c0.6,0.4,1.2,0.8,1.5,1.5
												C493,121,493,121.2,493,121.5z"/>
										</g>
										<g>
											<path class="st43" d="M497,118.5c0,0,0-0.1,0.1-0.4c0.1-0.3,0.1-0.7,0.1-1.1c0-1-0.3-2.3-1.1-3.6c-0.8-1.3-2-2.1-2.9-2.4
												c-0.4-0.2-0.8-0.3-1.1-0.4c-0.3,0-0.4-0.1-0.4-0.1s0.1,0.1,0.3,0.3c0.2,0.2,0.5,0.4,0.8,0.8c0.6,0.6,1.4,1.6,2.1,2.6
												c0.7,1.1,1.3,2.1,1.6,3c0.2,0.4,0.3,0.8,0.4,1C496.9,118.4,497,118.5,497,118.5z"/>
										</g>
									</g>
								</g>
							</g>
						</g>
						<path class="st39" d="M503.1,123c0,0-8.6,39-9,41.1c-0.4,2.1-47.6,29.5-47.6,29.5l-8.7-25.4l35.5-15.5l11.4-31.1l4,0.3
							l2.8,0.2l3.9,0.3l5.7,0.5L503.1,123z"/>
						<path class="st42" d="M477.2,158.8c0,0-2.9-4.7-2.5-5.5c0.4-0.8,7.3-0.9,7.1-0.3s-5,1.6-5,1.6S479.5,160.2,477.2,158.8z"/>
					</g>
				</g>
				<g>
					<polygon class="st2" points="364.3,145.8 342.8,135.2 352,125.5 					"/>
					<polygon class="st2" points="365.3,153.5 352,160.5 350.1,152.5 					"/>
					<polygon class="st2" points="373.8,141.3 368.1,126.4 375.4,124.3 					"/>
				</g>
			</g>
			<g>
				<path class="st6" d="M582.4,76.6c-1.3-1.4-3.3-1.6-5.2-1.8c-1.2-0.2-2.5-0.3-3.7-0.4c-1.1,1.4-2.1,2.8-2.8,4.5
					c0.2,0,0.3,0.1,0.5,0.1c2,0.2,4.1,0,6.1,0.1c0.4,0,0.8,0,1.2,0.1c-0.7,0.5-3.8,3.7-4.8,4.9c-1,1.2-5.3,6.6-5.4,7.8
					c-0.2,1.7,0.4,3.3,1.5,4.5c2.4,2.6,7.3,2.4,7.4-1.8c0.1-2.2-1.9-5.9-4.4-6.1c0.9-1.1,1.8-2.4,2.6-3.3c0.9-1,6.5-6.3,6.8-6.4
					c0,0,0,0,0,0C582.8,78.2,583,77.2,582.4,76.6z"/>
				<path class="st6" d="M565.3,206.3c1.3-1.4,3.3-1.6,5.2-1.8c1.2-0.2,2.5-0.3,3.7-0.4c1.1,1.4,2.1,2.8,2.8,4.5
					c-0.2,0-0.3,0.1-0.5,0.1c-2,0.2-4.1,0-6.1,0.1c-0.4,0-0.8,0-1.2,0.1c0.7,0.5,3.8,3.7,4.8,4.9c1,1.2,5.3,6.6,5.4,7.8
					c0.2,1.7-0.4,3.3-1.5,4.5c-2.4,2.6-7.3,2.4-7.4-1.8c-0.1-2.2,1.9-5.9,4.4-6.1c-0.9-1.1-1.8-2.4-2.6-3.3c-0.9-1-6.5-6.3-6.8-6.4
					c0,0,0,0,0,0C564.8,207.9,564.6,207,565.3,206.3z"/>
				<path class="st6" d="M485.8,195.1c-1.3-1.4-3.3-1.6-5.2-1.8c-1.2-0.2-2.5-0.3-3.7-0.4c-1.1,1.4-2.1,2.8-2.8,4.5
					c0.2,0,0.3,0.1,0.5,0.1c2,0.2,4.1,0,6.1,0.1c0.4,0,0.8,0,1.2,0.1c-0.7,0.5-3.8,3.7-4.8,4.9c-1,1.2-5.3,6.6-5.4,7.8
					c-0.2,1.7,0.4,3.3,1.5,4.5c2.4,2.6,7.3,2.4,7.4-1.8c0.1-2.2-1.9-5.9-4.4-6.1c0.9-1.1,1.8-2.4,2.6-3.3c0.9-1,6.5-6.3,6.8-6.4
					c0,0,0,0,0,0C486.3,196.7,486.5,195.7,485.8,195.1z"/>
				<path class="st6" d="M552,84.7c-0.7-2.1-3.8-4.9-6.3-4.2c0.5-1.4,0.8-2.9,1.2-4c0.5-1.2,3.9-8.1,4.2-8.4c0,0,0,0,0,0
					c0.5-0.6,0.3-1.6-0.5-2c-1.5-0.7-12.1,0.3-15.6,0.8l-1.5,0.2c-0.4,0.8-2.9,8.7-3.3,10.2c-0.4,1.6-2,8.2-1.5,9.4
					c0.6,1.6,1.8,2.8,3.3,3.4c3.2,1.3,7.6-1,5.9-4.9c-0.9-2-4.3-4.5-6.6-3.6c0.3-1.4,0.5-2.9,0.9-4.1c0.2-0.7,1.2-3.3,2-5.5
					c3-0.5,10.8-1.3,12.5-1.8c0.4-0.1,0.8-0.2,1.1-0.3c-0.4,0.7-2.3,4.8-2.8,6.3c-0.5,1.5-2.7,8-2.4,9.2c0.4,1.6,1.5,2.9,3,3.7
					C548.7,90.6,553.3,88.7,552,84.7z"/>
				<path class="st6" d="M507.9,175c0.7-2.1,3.8-4.9,6.3-4.2c-0.5-1.4-0.8-2.9-1.2-4c-0.5-1.2-3.9-8.1-4.2-8.4c0,0,0,0,0,0
					c-0.5-0.6-0.3-1.6,0.5-2c1.5-0.7,12.1,0.3,15.6,0.8l1.5,0.2c0.4,0.8,2.9,8.7,3.3,10.2c0.4,1.6,2,8.2,1.5,9.4
					c-0.6,1.6-1.8,2.8-3.3,3.4c-3.2,1.3-7.6-1-5.9-4.9c0.9-2,4.3-4.5,6.6-3.6c-0.3-1.4-0.5-2.9-0.9-4.1c-0.2-0.7-1.2-3.3-2-5.5
					c-3-0.5-10.8-1.3-12.5-1.8c-0.4-0.1-0.8-0.2-1.1-0.3c0.4,0.7,2.3,4.8,2.8,6.3c0.5,1.5,2.7,8,2.4,9.2c-0.4,1.6-1.5,2.9-3,3.7
					C511.2,180.9,506.6,179,507.9,175z"/>
				<path class="st6" d="M461.3,85.4c1.8-0.6,3.7,0.2,5.4,0.9c1.1,0.4,2.3,0.9,3.4,1.4c0.3,1.8,0.5,3.5,0.3,5.3
					c-0.2,0-0.3-0.1-0.5-0.2c-1.8-0.8-3.6-1.9-5.4-2.8c-0.4-0.2-0.7-0.3-1.1-0.5c0.3,0.8,1.5,5.1,1.8,6.6c0.3,1.6,1.5,8.3,1.1,9.4
					c-0.7,1.6-1.9,2.7-3.5,3.2c-3.3,1.1-7.6-1.4-5.7-5.2c1-1.9,4.5-4.3,6.8-3.3c-0.3-1.4-0.4-2.9-0.7-4.1c-0.3-1.3-2.7-8.6-2.9-8.9
					c0,0,0,0,0,0C460.1,86.6,460.4,85.7,461.3,85.4z"/>
			</g>
		</g>
	</g>
</g>
</svg>
