<svg width="98" height="336" viewBox="0 0 98 336" fill="none" xmlns="http://www.w3.org/2000/svg">
<path d="M4.01395 169.643C3.57592 176.041 3.13789 176.498 2.69986 180.611C2.26183 186.095 6.20411 191.123 9.70835 194.779C13.2126 198.435 13.6506 190.209 13.6506 185.181C13.6506 179.697 10.5844 179.697 10.1464 171.014C10.1464 162.33 4.89001 160.959 4.01395 169.643Z" fill="#FFC296"/>
<path d="M30.7337 71.382C42.1225 69.0969 49.131 70.925 50.8831 71.382C52.6353 71.839 74.0987 75.9523 46.5028 76.8663C19.3449 77.3233 28.1055 71.839 30.7337 71.382Z" fill="#825860"/>
<path d="M19.345 76.4093C-5.18473 85.0928 0.947692 133.08 0.509661 138.108C-0.366399 143.592 0.509661 170.557 1.38572 172.842C2.26178 174.67 14.5266 176.955 16.7168 169.186C19.345 161.873 18.9069 110.686 20.221 97.8895C21.5351 86.4638 19.783 77.3233 19.345 76.4093Z" fill="#F7FFF7"/>
<path d="M79.3551 168.729C80.2312 175.127 80.6692 175.584 81.5453 179.697C82.4213 185.181 78.479 190.209 75.4128 194.322C72.3466 198.435 71.0325 190.209 70.5945 184.724C70.1565 179.24 73.6607 179.24 73.2227 170.557C72.7847 161.873 78.479 160.045 79.3551 168.729Z" fill="#FFC296"/>
<path d="M81.1073 137.194C80.2313 132.166 82.8595 78.2374 51.7593 73.2101L45.1888 83.2647C45.1888 83.2647 56.1396 86.4638 58.3298 98.8035C60.5199 111.143 63.5861 162.33 66.6523 169.643C69.7185 176.955 81.5454 173.756 82.4214 171.928C83.2975 169.643 82.4214 142.221 81.1073 137.194Z" fill="#F7FFF7"/>
<path d="M28.5437 321.375C19.783 323.66 10.5844 328.688 9.70835 330.973C9.27032 333.258 10.1464 337.828 21.0971 335.086C32.4859 332.344 39.9324 330.516 39.9324 326.402C39.9324 322.289 39.4944 320.004 39.4944 320.004C39.4944 320.004 32.4859 320.461 28.5437 321.375Z" fill="#0F1A20"/>
<path d="M81.5453 320.918C90.3059 323.203 97.3144 328.688 97.7524 330.516C98.1904 332.801 97.3144 337.371 86.3636 334.629C74.9748 331.887 67.5283 330.059 67.5283 325.945C67.5283 321.832 67.9664 319.547 67.9664 319.547C67.9664 319.547 77.603 320.004 81.5453 320.918Z" fill="#0F1A20"/>
<path d="M21.0972 271.102C21.0972 280.7 27.6676 317.262 28.5437 321.375C29.4197 325.488 39.0564 325.945 39.9325 320.004C40.8085 313.606 42.5607 278.415 39.9325 268.817C37.3043 258.306 21.0972 261.505 21.0972 271.102Z" fill="#F7FFF7"/>
<path opacity="0.2" d="M39.9324 268.36C39.0563 265.161 36.8662 263.333 34.238 262.876C35.5521 263.79 36.4282 265.161 36.8662 266.989C39.4944 276.587 37.7423 312.235 36.8662 318.176C36.4282 321.832 32.4859 323.203 29.4197 322.746C32.0479 325.488 39.4944 325.031 39.9324 319.547C40.8085 313.606 42.5606 277.958 39.9324 268.36Z" fill="#8F5904"/>
<path d="M40.8085 304.465C40.8085 304.008 40.8085 304.008 40.8085 303.551C37.7423 304.465 34.6761 305.379 32.0479 305.836C29.8577 305.836 27.6676 305.379 25.4774 305.379C25.4774 305.836 25.4774 306.293 25.4774 306.293C26.3535 306.293 27.2295 306.75 28.1056 306.75C27.6676 306.75 26.7915 307.207 26.3535 307.207C26.3535 307.664 26.3535 307.664 26.3535 308.121C28.1056 307.664 30.2958 307.664 32.4859 307.207C35.1141 307.207 38.1803 307.207 40.8085 307.207C40.8085 306.75 40.8085 306.293 40.8085 306.293C39.0564 306.293 37.7423 306.293 35.9901 306.293C37.7423 305.836 39.4944 304.922 40.8085 304.465Z" fill="#0F1A20"/>
<path d="M22.8493 287.098C23.7253 286.641 24.6014 286.184 25.4775 285.727C30.7338 288.012 35.9902 288.469 41.2466 288.469C41.2466 288.012 41.2466 288.012 41.2466 287.555C36.4282 287.555 31.6099 287.098 26.7916 284.813C31.1719 282.071 35.9902 278.415 40.8085 273.387C40.8085 272.93 40.8085 272.473 40.8085 272.016C35.5522 277.501 30.2958 281.614 25.9155 284.356C24.6014 283.899 23.7253 283.442 22.4113 282.528C22.4113 282.985 22.4113 283.442 22.4113 283.899C23.2873 284.356 23.7253 284.813 24.6014 284.813C24.1634 285.27 23.2873 285.27 22.8493 285.727C22.8493 286.641 22.8493 286.641 22.8493 287.098Z" fill="#0F1A20"/>
<path d="M30.2958 323.203C33.8 321.375 36.8662 320.004 39.4944 318.176H39.9325C39.9325 317.719 39.9325 317.262 39.9325 316.805C39.4944 316.805 39.4944 317.262 39.0564 317.262C35.1141 317.719 31.6099 318.176 27.6676 318.176C27.6676 318.633 27.6676 318.633 27.6676 319.09C30.2958 319.09 33.362 318.633 36.4282 318.176C34.2381 319.547 31.6099 320.918 28.9817 322.289C29.8578 322.746 29.8578 323.203 30.2958 323.203Z" fill="#0F1A20"/>
<path d="M24.1634 296.696C24.1634 297.153 24.1634 297.153 24.1634 297.61C27.2296 297.61 30.7339 297.61 34.6761 297.153C36.8663 297.61 38.6184 298.067 40.8086 298.524C40.8086 298.067 40.8086 298.067 40.8086 297.61C39.4945 297.153 38.6184 297.153 37.3043 296.696C38.6184 296.696 39.4945 296.239 40.8086 296.239C40.8086 295.782 40.8086 295.782 40.8086 295.325C38.6184 295.782 36.8663 295.782 34.6761 296.239C30.7339 295.325 26.7916 293.954 23.2874 293.04C23.2874 293.497 23.2874 293.954 23.2874 293.954C25.9155 294.868 28.5437 295.325 31.6099 296.239C29.4198 296.696 26.7916 296.696 24.1634 296.696Z" fill="#0F1A20"/>
<path d="M40.8085 311.778C38.1803 312.235 35.5521 312.692 32.9239 312.692C30.7338 312.692 28.9817 312.235 26.7915 311.778C26.7915 312.235 26.7915 312.692 26.7915 312.692C27.2295 312.692 27.6676 312.692 28.1056 312.692C27.6676 312.692 27.2295 312.692 26.7915 312.692C26.7915 313.149 26.7915 313.149 26.7915 313.606C28.5436 313.606 30.2957 313.606 32.0479 313.149C33.362 313.149 34.6761 313.606 35.5521 313.606C37.3042 313.606 38.6183 313.606 39.9324 313.606C39.9324 313.149 39.9324 313.149 39.9324 312.692C39.0564 312.692 38.1803 312.692 36.8662 312.692C37.7423 312.692 39.0564 312.235 39.9324 312.235C40.3704 312.692 40.8085 312.235 40.8085 311.778Z" fill="#0F1A20"/>
<path opacity="0.2" d="M41.2466 284.356C41.2466 277.501 40.8085 271.559 39.9325 268.36C37.3043 258.763 21.0972 261.505 21.0972 271.102C21.0972 273.844 21.5352 278.415 21.9732 283.899C27.6676 286.641 35.9902 286.641 41.2466 284.356Z" fill="#CD1127"/>
<path d="M14.9647 153.19C16.2788 183.81 18.469 260.591 17.1549 270.645C14.5267 285.727 46.0649 285.27 45.6269 274.759C45.1888 263.333 46.941 169.186 43.4367 151.819C40.3705 133.995 14.5267 145.42 14.9647 153.19Z" fill="#F42C04"/>
<path opacity="0.4" d="M43.4366 151.819C42.5606 146.791 39.9324 144.049 36.4281 143.135C38.6183 144.506 40.3704 146.791 41.2465 150.904C44.3127 168.728 42.9986 262.419 43.4366 273.844C43.4366 280.243 30.7338 282.985 21.9731 279.786C30.2957 284.356 46.0648 282.071 45.6268 274.759C45.6268 263.333 46.9409 169.186 43.4366 151.819Z" fill="#F42C04"/>
<path opacity="0.2" d="M22.8493 266.075C23.7253 256.02 18.469 182.896 15.4028 151.362C14.9647 151.819 14.9647 152.733 14.9647 153.19C16.2788 183.81 18.469 260.591 17.1549 270.645C14.9647 285.27 43.8747 285.27 45.6269 275.673C36.8662 278.872 21.5352 276.587 22.8493 266.075Z" fill="#33040A"/>
<path d="M81.1074 269.274C82.4214 278.872 82.4214 315.891 81.9834 320.004C81.5454 324.117 69.2805 325.945 67.9664 320.004C66.2143 314.063 60.9579 279.329 62.272 269.274C63.5861 259.22 79.7933 260.134 81.1074 269.274Z" fill="#F7FFF7"/>
<path opacity="0.1" d="M69.7185 317.719C67.9663 311.778 62.71 277.044 64.0241 266.989C64.0241 266.075 64.4621 265.161 64.9001 264.704C63.586 266.075 62.71 267.446 62.71 269.274C61.3959 279.329 67.0903 314.063 68.4044 320.004C70.1565 325.945 81.9833 324.117 82.4213 320.004C78.4791 322.746 70.5945 322.746 69.7185 317.719Z" fill="#8F5904"/>
<path d="M82.4213 304.008C82.4213 303.551 82.4213 303.094 82.4213 303.094C78.479 304.465 75.4128 305.379 72.3466 306.293C70.1564 306.293 67.9663 305.836 65.7761 305.379C65.7761 305.836 65.7761 306.293 65.7761 306.293C66.6522 306.293 67.9663 306.75 68.8423 306.75C67.9663 306.75 66.6522 307.207 65.7761 307.207C65.7761 307.664 65.7761 307.664 65.7761 308.121C67.9663 308.121 69.7184 307.664 72.3466 307.207C75.8508 307.207 79.3551 307.207 82.4213 307.207C82.4213 306.75 82.4213 306.293 82.4213 306.293C80.2311 306.293 78.041 306.293 75.8508 306.293C77.6029 305.379 79.7931 304.922 82.4213 304.008Z" fill="#0F1A20"/>
<path d="M62.71 287.098C63.586 286.641 64.4621 286.184 65.3381 285.727C71.0325 288.012 76.7269 288.926 81.9833 288.469C81.9833 288.012 81.9833 288.012 81.9833 287.555C76.7269 287.555 71.4706 287.098 66.2142 285.27C70.5945 282.528 76.2889 278.415 81.1072 272.93C81.1072 272.473 81.1072 272.016 81.1072 271.559C75.8509 277.501 70.1565 282.071 65.3381 284.813C64.4621 284.356 63.586 283.899 62.71 283.442C62.71 283.899 62.71 284.356 62.71 284.813C63.148 285.27 64.0241 285.27 64.4621 285.727C64.0241 286.184 63.586 286.184 62.71 287.098C62.71 286.184 62.71 286.641 62.71 287.098Z" fill="#0F1A20"/>
<path d="M82.4214 311.321C78.9171 311.778 75.8509 312.235 72.3467 312.692C70.5945 312.235 68.4044 312.235 66.2142 311.778C66.2142 312.235 66.2142 312.692 66.2142 312.692C66.6523 312.692 67.0903 312.692 67.9664 313.149C67.5283 313.149 67.0903 313.149 66.6523 313.149C66.6523 313.606 66.6523 314.063 66.6523 314.063C68.4044 314.063 70.1565 314.063 72.3467 313.606C73.6607 313.606 74.9748 314.063 75.8509 314.063C78.4791 314.063 80.6692 314.063 81.9833 314.063C81.9833 313.606 81.9833 313.149 81.9833 313.149C80.6692 313.149 79.3551 313.149 77.165 313.149C78.9171 313.149 80.6692 312.692 81.9833 312.235C82.4214 312.235 82.4214 311.778 82.4214 311.321Z" fill="#0F1A20"/>
<path d="M64.024 296.696C64.024 297.153 64.024 297.153 64.024 297.61C67.0902 297.61 71.0325 297.61 74.5367 297.153C77.1649 297.61 79.7931 298.524 81.9833 298.981C81.9833 298.524 81.9833 298.067 81.9833 298.067C80.6692 297.61 78.917 297.61 77.1649 297.153C78.479 297.153 80.2311 296.696 81.9833 296.239C81.9833 295.782 81.9833 295.325 81.9833 295.325C79.3551 295.782 77.1649 296.239 74.5367 296.696C70.5945 295.782 66.6522 294.411 63.1479 293.497C63.1479 293.954 63.1479 294.411 63.1479 294.411C65.7761 295.325 68.4043 295.782 71.4705 296.696C69.2804 296.696 66.6522 296.696 64.024 296.696Z" fill="#0F1A20"/>
<path d="M70.1565 323.203C73.6607 321.832 76.727 320.004 78.9171 318.633C79.7932 318.633 80.6692 318.176 81.9833 318.176C81.9833 317.719 81.9833 317.719 81.9833 317.262H81.5453C81.9833 317.262 81.9833 316.805 81.9833 316.805C81.9833 316.348 81.9833 315.891 81.9833 315.434C81.1073 315.891 80.2312 316.805 78.9171 317.262C74.9748 317.719 71.0326 318.176 67.5283 318.176C67.5283 318.633 67.5283 318.633 67.9664 319.09C71.0326 319.09 73.6607 318.633 76.727 318.176C74.5368 319.547 71.9086 320.918 69.2804 321.832C69.7185 322.746 70.1565 322.746 70.1565 323.203Z" fill="#0F1A20"/>
<path opacity="0.3" d="M81.1073 269.274C79.7932 260.134 63.5861 259.22 62.272 269.274C61.834 272.473 62.272 278.415 62.71 285.27C68.4044 287.098 77.1651 285.27 81.9834 281.614C81.5454 276.13 81.5454 272.016 81.1073 269.274Z" fill="#CD1127"/>
<path d="M72.3466 160.045C76.7269 190.209 82.4213 258.306 85.0495 268.36C89.4298 282.985 58.3297 286.641 57.4536 276.587C56.1395 265.161 40.8084 172.385 42.5606 154.561C42.9986 147.705 71.4706 153.647 72.3466 160.045Z" fill="#F42C04"/>
<path opacity="0.2" d="M85.0496 268.36C81.9834 258.763 76.727 190.666 72.3467 160.045C71.4707 155.475 57.8917 151.362 49.1311 151.362C57.0156 152.733 66.6523 155.932 67.0903 159.588C71.4707 189.752 77.165 257.849 79.7932 267.903C82.4214 276.587 72.3467 281.157 63.5861 281.614C72.7847 283.442 88.1158 278.872 85.0496 268.36Z" fill="#FF1531"/>
<path opacity="0.1" d="M60.5198 269.274C59.2057 258.763 46.0648 177.412 45.6268 151.819C43.8747 152.276 42.9986 153.19 42.5606 154.104C40.8084 171.928 56.1395 264.704 57.4536 276.13C58.3297 285.727 86.8016 282.528 85.4875 269.731C78.4791 276.587 61.3959 277.044 60.5198 269.274Z" fill="#33040A"/>
<path d="M12.3365 81.8936C7.51812 91.9482 13.6506 102.003 14.9646 114.342C17.5928 136.28 14.0886 148.619 14.5266 153.647C14.5266 158.674 73.2227 159.131 71.4706 151.819C69.7184 144.506 65.7762 110.686 68.8424 98.3465C71.9086 86.0068 67.0903 82.8076 57.4536 75.0382C47.8169 67.2688 16.7168 72.7531 12.3365 81.8936Z" fill="#F7FFF7"/>
<path opacity="0.2" d="M74.0988 187.467C74.5369 187.01 75.4129 187.01 75.8509 187.01C74.9749 180.611 74.5369 174.67 73.6608 169.186C72.3467 164.615 71.4706 160.502 71.4706 158.674C71.0326 157.76 70.1565 157.303 68.8425 156.846C65.3382 156.846 58.3297 157.76 45.6268 157.76C26.7915 157.76 15.8408 157.76 14.9647 157.76C15.4028 166.443 15.8408 177.412 16.2788 189.752C17.5929 189.752 18.907 189.752 19.7831 189.295C23.2873 187.924 27.6676 187.467 31.6099 188.381C35.5521 189.295 42.5606 189.752 46.0649 188.838C49.5691 187.924 53.5114 186.553 59.2058 187.924C64.4622 188.381 70.5946 189.295 74.0988 187.467Z" fill="#2E1B00"/>
<path d="M14.9647 153.19C14.5267 161.873 11.0224 176.498 9.27033 179.697C7.95624 183.353 15.8408 186.095 19.345 184.267C22.8493 182.896 27.2296 182.439 31.1719 183.353C35.1141 184.267 42.1226 184.724 45.6269 183.81C49.1311 182.896 53.0734 181.525 58.7678 182.896C64.4622 183.81 70.5946 184.724 74.0988 183.353C77.6031 181.982 80.2313 182.439 78.0411 178.326C75.851 173.756 71.0326 155.932 71.4706 153.647C71.9087 151.362 65.7763 153.19 45.6269 153.19C25.9155 153.647 14.9647 153.19 14.9647 153.19Z" fill="#F7FFF7"/>
<path opacity="0.1" d="M77.6031 177.412C74.0988 178.783 68.4044 177.869 63.1481 176.955C57.4537 176.041 53.5114 176.955 50.0072 177.869C46.5029 178.783 39.4944 178.326 35.5522 177.412C31.6099 176.498 27.2296 176.498 23.7253 178.326C20.2211 179.697 11.8985 176.955 13.6506 173.756C14.9647 171.014 17.1549 161.873 18.469 153.647C16.2788 153.647 14.9647 153.647 14.9647 153.647C14.5267 162.33 11.0224 176.955 9.27033 180.154C7.95624 183.81 15.8408 186.553 19.345 184.724C22.8493 183.353 27.2296 182.896 31.1719 183.81C35.1141 184.724 42.1226 185.181 45.6269 184.267C49.1311 183.353 53.0734 181.982 58.7678 183.353C64.4622 184.267 70.5946 185.181 74.0988 183.81C77.6031 182.439 80.2313 182.896 78.0411 178.783C77.6031 178.326 77.6031 177.869 77.6031 177.412Z" fill="#DE9624"/>
<path opacity="0.2" d="M45.6268 153.19C25.9154 153.19 14.5267 153.19 14.5267 153.19C14.5267 154.104 14.5267 155.018 14.0886 155.932V156.389C14.0886 161.416 72.7847 161.873 71.0326 154.561C71.0326 154.104 70.5945 153.19 70.5945 152.733C69.2805 151.819 61.8339 153.19 45.6268 153.19Z" fill="#DE9624"/>
<path d="M14.9646 146.791C14.5266 149.99 14.5266 152.276 14.5266 154.104C14.5266 159.131 73.2227 159.588 71.4706 152.276C71.0325 150.904 70.5945 148.162 70.1565 144.963C52.6353 148.162 32.0478 149.076 14.9646 146.791Z" fill="#0F1A20"/>
<path d="M39.9325 105.659H39.4944C37.3043 105.659 35.1141 103.831 35.1141 101.089V76.4093H44.3128V101.089C44.3128 103.831 42.5607 105.659 39.9325 105.659Z" fill="#F42C04"/>
<path d="M49.131 71.839C42.9986 70.925 35.5521 71.382 28.5436 72.7531C28.9816 75.4952 30.7337 79.6085 39.4943 79.1514C46.9409 78.6944 48.693 75.0382 49.131 71.839Z" fill="#F42C04"/>
<path d="M14.0886 27.9645C14.0886 27.9645 8.3942 14.2538 18.0309 6.48433C27.6675 -1.28511 39.4944 0.542989 43.8747 3.74217C47.8169 6.94135 50.0071 16.5389 49.131 17.4529C48.255 18.367 14.0886 27.9645 14.0886 27.9645Z" fill="#FFB778"/>
<path d="M61.3959 11.5116C64.024 18.367 53.9493 28.8786 39.0563 34.8199C24.1633 40.7613 10.1463 39.8472 7.51811 32.5348C5.32796 25.6794 14.9646 15.1678 29.8577 9.22649C44.7507 3.28515 58.7677 4.1992 61.3959 11.5116Z" fill="#FFB778"/>
<path opacity="0.3" d="M61.3958 11.5116C58.7676 4.65622 44.7507 3.74217 29.8576 9.6835C23.2872 11.9686 17.5928 15.6248 13.6505 19.281C17.1548 16.9959 21.097 14.7108 25.9154 12.8827C40.3704 6.94135 54.3873 7.8554 57.0155 14.7108C58.3296 18.367 56.1395 23.3943 51.3211 27.9645C58.7677 22.4802 63.1479 16.0819 61.3958 11.5116Z" fill="#FFDECF"/>
<path d="M22.4111 39.8472C21.9731 38.9332 18.0308 39.8472 19.3449 43.0464C20.659 46.2456 20.659 46.7026 20.659 48.0737C20.221 49.4448 23.2872 49.4448 23.2872 47.1597L22.4111 39.8472Z" fill="#FFC296"/>
<path d="M49.5691 39.3902C50.0071 38.4761 53.9494 38.4761 53.0733 42.1323C52.6353 45.3315 52.6353 45.7886 53.0733 47.1596C53.5114 48.5307 50.8832 48.9877 50.4452 46.7026L49.5691 39.3902Z" fill="#FFC296"/>
<path d="M32.0478 58.5853C33.8 63.6126 33.8 70.925 33.8 72.296C33.8 74.1241 46.9409 73.6671 45.6268 71.382C44.3127 69.0969 42.5606 61.7844 44.3127 56.7572C46.0648 52.1869 31.1718 55.8431 32.0478 58.5853Z" fill="#FFC296"/>
<path opacity="0.3" d="M32.0479 58.5853C32.4859 60.4134 32.9239 62.6985 33.3619 64.5266C34.676 64.9836 35.9901 65.4407 37.3042 65.8977C39.0563 65.8977 41.2465 65.4407 43.4366 64.5266C42.9986 62.2415 43.4366 59.4993 43.8747 57.2142C46.0648 52.1869 31.1718 55.8431 32.0479 58.5853Z" fill="#A62D2D"/>
<path d="M19.783 24.3083C19.3449 31.6207 21.0971 41.6753 21.5351 47.6167C22.4112 55.3861 31.1718 62.6985 37.7422 63.1555C43.8746 63.6126 51.3212 56.3001 51.7592 50.3588C52.1972 44.4175 51.7592 28.4216 52.1972 23.3943C52.1972 18.367 19.783 17.91 19.783 24.3083Z" fill="#FFC296"/>
<path opacity="0.2" d="M51.7592 24.7654C51.7592 24.3083 51.7592 23.8513 51.7592 23.8513V23.3943C51.7592 23.3943 51.7592 22.9373 51.3211 22.9373C48.693 20.1951 35.5521 19.2811 27.2295 20.6521C26.7914 20.6521 26.7914 20.6521 26.7914 20.6521C26.7914 20.6521 25.9154 20.6521 25.0393 20.6521C21.5351 21.5662 19.783 22.4802 19.783 24.3083C19.783 29.3356 20.221 35.734 20.659 41.2183C21.097 39.8472 22.4111 34.3629 22.4111 31.6208C22.4111 28.4216 26.3534 26.5935 26.3534 26.5935C26.3534 26.5935 40.3704 30.7067 48.693 26.5935C49.131 27.9645 49.569 28.8786 50.4451 31.6208C51.3211 34.3629 51.7592 38.0191 51.7592 39.8472C51.7592 34.3629 51.7592 28.4216 51.7592 24.7654Z" fill="#5C0E0E"/>
<path d="M47.8169 21.1092C48.2549 26.1364 48.693 25.6794 50.007 29.7927C51.7592 34.3629 51.3211 39.8472 51.3211 39.3902C51.3211 38.9332 53.5113 32.9918 52.1972 25.6794C50.8831 18.824 48.2549 18.367 48.2549 18.367L47.8169 21.1092Z" fill="#5C4040"/>
<path d="M52.1972 22.0232C45.6268 29.7926 25.9154 24.7654 25.9154 24.7654C25.9154 24.7654 22.4112 26.5935 22.4112 29.7926C22.4112 32.9918 20.659 39.8472 20.659 39.8472C20.659 39.8472 17.5928 27.9645 18.0309 22.9373C18.4689 17.91 26.7915 18.824 26.7915 18.824C26.7915 18.824 29.8577 14.7108 39.9324 14.7108C50.0071 14.7108 52.1972 22.0232 52.1972 22.0232Z" fill="#5C4040"/>
<path opacity="0.3" d="M52.1972 21.5662C51.3211 20.1951 48.2549 14.7108 39.9323 14.7108C29.8576 14.7108 26.3534 18.824 26.3534 18.824C26.3534 18.824 18.4688 17.91 17.5928 22.9373C17.5928 23.3943 17.5928 23.8513 17.5928 23.8513C29.4196 17.91 42.5605 18.367 52.1972 21.5662Z" fill="#0F0A07"/>
<path d="M20.2209 36.191C20.659 40.3042 21.097 44.4175 21.535 47.6167C22.4111 55.3861 31.1717 62.6985 37.7422 63.1555C43.8746 63.6126 51.3211 56.3002 51.7591 50.3588C51.7591 47.1596 52.1972 41.6753 52.1972 36.648H51.7591C52.1972 38.0191 51.7591 45.3315 49.569 48.5307C47.3788 52.1869 44.7506 50.3588 43.8746 48.5307C42.9985 46.7026 37.3041 46.2456 33.3619 47.6167C28.1055 49.4448 29.4196 54.015 25.9153 51.2729C22.4111 48.9877 20.659 43.0464 20.2209 36.191Z" fill="#5C4040"/>
<path d="M34.2379 49.4448C34.6759 49.4448 40.3703 49.4448 40.3703 49.4448C40.3703 49.4448 39.4943 50.3588 37.3041 50.3588C35.114 50.3588 34.2379 49.4448 34.2379 49.4448Z" fill="#FFE0E0"/>
<path opacity="0.3" d="M12.7745 84.6357C13.2126 91.9481 14.0886 119.827 14.9647 128.51C15.8408 137.194 33.362 136.737 35.9902 135.366C38.6183 133.995 33.8 104.288 32.9239 95.6043C31.6098 86.9209 32.0479 75.0382 31.6098 74.5812C30.7338 74.1241 12.3365 79.6084 12.7745 84.6357Z" fill="#FFB778"/>
<path d="M12.7745 81.8936C13.2126 89.206 14.0886 117.542 14.9647 126.225C15.8408 134.909 33.362 134.452 35.9902 133.08C38.6183 131.709 33.8 102.003 32.9239 93.3192C31.6098 84.6357 32.0479 72.753 31.6098 72.296C30.7338 71.382 12.3365 76.8663 12.7745 81.8936Z" fill="#FF6B6B"/>
<path d="M32.9239 92.4052C31.6098 83.7217 32.0479 71.839 31.6098 71.382C31.6098 71.382 29.8577 71.839 28.1056 72.296C28.1056 76.8663 28.5436 82.8076 28.9817 88.292C30.2957 96.9754 35.1141 126.682 32.0479 128.053C30.2957 128.967 20.6591 129.424 15.4027 126.682C17.5929 133.995 33.362 133.995 35.9901 132.166C38.6183 130.795 33.8 101.089 32.9239 92.4052Z" fill="#C14A4A"/>
<path opacity="0.3" d="M67.5283 82.3506C67.5283 89.663 68.4043 117.999 67.9663 126.682C67.5283 135.366 50.4451 136.28 47.3789 134.909C44.7507 133.538 47.3789 103.831 48.2549 94.6903C49.131 85.5498 47.8169 74.1241 48.2549 73.6671C49.131 73.2101 67.9663 77.7803 67.5283 82.3506Z" fill="#DE9624"/>
<path d="M67.5283 79.6085C67.5283 86.9209 68.4043 115.256 67.9663 123.94C67.5283 132.623 50.4451 133.538 47.3789 132.166C44.7507 130.795 47.3789 101.089 48.2549 91.9481C49.131 82.8076 47.8169 71.382 48.2549 70.925C49.131 70.4679 67.9663 75.0382 67.5283 79.6085Z" fill="#FF6B6B"/>
<path d="M50.8832 128.51C48.255 127.139 50.8832 97.4325 51.7593 88.2919C52.1973 82.8076 51.7593 75.9522 51.7593 71.382C50.0071 70.925 49.1311 70.925 48.6931 70.925C47.817 71.382 49.1311 83.2647 48.6931 91.9481C48.255 100.632 45.1888 130.795 47.817 132.166C50.4452 133.538 65.7762 132.623 67.9664 125.768C62.71 128.967 53.0734 129.424 50.8832 128.51Z" fill="#C14A4A"/>
<path d="M74.0987 180.611C70.5945 182.439 64.9001 181.525 58.7677 180.154C53.0733 179.24 49.131 180.154 45.6268 181.068C42.1225 181.982 35.114 181.525 31.1718 180.611C27.2295 179.697 22.8492 179.697 19.3449 181.525C16.7168 182.896 11.0224 181.068 9.27025 178.783C9.27025 179.24 9.27025 179.24 8.83222 179.697C7.51813 183.353 15.4027 186.095 18.9069 184.267C22.4112 182.896 26.7915 182.439 30.7337 183.353C34.676 184.267 41.6845 184.724 45.1887 183.81C48.693 182.896 52.6353 181.525 58.3297 182.896C64.024 183.81 70.1565 184.724 73.6607 183.353C77.165 181.525 79.3551 182.439 78.041 178.783C77.603 179.697 75.8509 179.697 74.0987 180.611Z" fill="#CD1127"/>
</svg>
