<?xml version="1.0" encoding="utf-8"?>
<!-- Generator: Adobe Illustrator 27.1.1, SVG Export Plug-In . SVG Version: 6.00 Build 0)  -->
<svg version="1.1" id="Layer_1" xmlns="http://www.w3.org/2000/svg" xmlns:xlink="http://www.w3.org/1999/xlink" x="0px" y="0px"
	 viewBox="0 0 20.5 73.5" style="enable-background:new 0 0 20.5 73.5;" xml:space="preserve">
<style type="text/css">
	.st0{fill:#784949;}
	.st1{fill:#FCC297;}
	.st2{fill:#FFF2DC;}
	.st3{fill:#9C6B73;}
	.st4{opacity:0.3;fill:#9C6B73;enable-background:new    ;}
	.st5{opacity:0.3;fill:#6A323B;enable-background:new    ;}
	.st6{fill:#E6AEB7;}
	.st7{fill:#925152;}
	.st8{fill:#FFE9C7;}
	.st9{fill:#D67676;}
	.st10{opacity:0.1;fill:#925152;enable-background:new    ;}
	.st11{opacity:0.3;fill:#451313;enable-background:new    ;}
	.st12{opacity:0.4;fill:#FACCD5;enable-background:new    ;}
	.st13{fill:#CD2029;}
	.st14{opacity:0.3;fill:#A42B2A;enable-background:new    ;}
	.st15{opacity:0.2;fill:#A42B2A;enable-background:new    ;}
</style>
<g>
	<path class="st0" d="M7.1,1.2c-5.2,0.4-3.6,6.5-2.9,9.3C5,13.3,4,14.3,3.5,15.2s10.9,1.3,10.3-0.1s-1.3-5.1-1-8.2
		c0.2-3.1-0.6-4.6-1.9-5.2C9.7,1.3,8.4,1.1,7.1,1.2z"/>
	<g>
		<path class="st1" d="M1,34.6c-0.2,1.1-0.4,1.1-0.4,1.9c-0.1,0.8,0.3,2.2,0.8,2.6c0.5,0.4,1.5-0.4,1.3-2.2C2.5,35,1.1,33.7,1,34.6z
			"/>
		<path class="st2" d="M3.2,14c-4,1.5-3.2,12-3,15.1c0.1,3.2,0.5,5.1,0.6,5.6s1.9,1,2.3,0.3C4.4,32.4,3.2,14,3.2,14z"/>
		<path class="st1" d="M17.4,34.5c0.3,1.1,0.5,1.1,0.6,1.8c0.1,0.8-0.1,2.2-0.5,2.7S16,38.7,16,36.9S17.2,33.6,17.4,34.5z"/>
		<path class="st2" d="M12.9,14.1c4.1,1.1,4.6,11.6,4.8,14.8s0,5.1,0,5.7c0,0.6-1.8,1.2-2.3,0.5C13.8,32.6,12.9,14.1,12.9,14.1z"/>
		<g>
			<g>
				<path class="st3" d="M8.3,70.5c0,0-1-0.3-1.8-0.1H6.4c-1,0.3-3.1,1.4-3.3,1.8S2.5,73.6,4,73.5s3.9-0.7,4.2-1.6
					C8.5,71,8.3,70.5,8.3,70.5z"/>
				<path class="st2" d="M5.5,63.2c0.1,3,0.9,6.9,0.9,7.4s1.7,0.8,1.8-0.3c0.1-1.1,0.7-5.4,0.5-8.6S5.4,60.3,5.5,63.2z"/>
				<path class="st4" d="M6.4,70.4c0.1,0,0.2-0.1,0.3-0.1c0.3,0.2,0.7,0.5,1,0.7c0.1,0,0.1-0.1,0.2-0.1c-0.4-0.2-0.7-0.4-1-0.6
					c0.3-0.2,0.6-0.5,1-0.8c0.1,0.1,0.3,0.1,0.4,0.2c0-0.1,0-0.1,0-0.2c-0.1,0-0.2-0.1-0.3-0.1c0.1-0.1,0.2-0.3,0.3-0.4
					c0-0.1,0-0.3,0-0.4c-0.1,0-0.3,0.2-0.5,0.4c-0.6-0.3-1.1-0.6-1.6-0.9C7,68,7.7,67.8,8.3,67.4c0.1,0,0.1,0.1,0.2,0.1
					c0-0.2,0-0.3,0-0.5c-0.1,0-0.1,0.1-0.2,0.1c-0.4-0.3-0.8-0.6-1.1-0.9c0.5-0.2,1-0.5,1.4-0.9c0-0.1,0-0.2,0-0.3
					c-0.5,0.4-1,0.7-1.6,1c-0.5-0.4-1-0.8-1.4-1.2c0,0.1,0,0.2,0,0.3c0.4,0.3,0.7,0.7,1.2,1c-0.3,0.1-0.7,0.2-1,0.3
					c0,0.1,0,0.2,0,0.2c0.4-0.1,0.8-0.2,1.2-0.4c0.4,0.3,0.7,0.6,1.1,0.9C7.5,67.6,6.7,67.8,6,68c0,0.1,0,0.2,0,0.3
					c0.5,0.3,1,0.6,1.6,0.9C7.4,69.5,7,69.8,6.7,70c-0.2-0.1-0.3-0.2-0.5-0.4c0,0.1,0,0.2,0.1,0.3C6.4,70,6.5,70,6.5,70.1
					c-0.1,0-0.1,0-0.2,0.1C6.4,70.2,6.4,70.3,6.4,70.4z"/>
				<path class="st5" d="M8.7,61.7c-0.2-3.2-3.3-1.4-3.2,1.5c0,1.1,0.2,2.3,0.3,3.4c0.8,0.1,1.8,0.1,2.7,0.1
					C8.7,65.1,8.8,63.3,8.7,61.7z"/>
			</g>
			<g>
				<path class="st3" d="M13.7,70.5c0,0,1-0.3,1.8-0.1h0.1c1,0.3,3.1,1.4,3.3,1.8c0.2,0.4,0.6,1.4-0.9,1.3s-3.9-0.7-4.2-1.6
					C13.5,71,13.7,70.5,13.7,70.5z"/>
				<path class="st2" d="M16.5,63.2c-0.1,3-0.9,6.9-0.9,7.4s-1.7,0.8-1.8-0.3c-0.1-1.1-0.7-5.4-0.5-8.6
					C13.4,58.5,16.6,60.3,16.5,63.2z"/>
				<path class="st4" d="M15.6,70.4c-0.1,0-0.2-0.1-0.3-0.1c-0.3,0.2-0.7,0.5-1,0.7c-0.1,0-0.1-0.1-0.2-0.1c0.4-0.2,0.7-0.4,1-0.6
					c-0.3-0.2-0.6-0.5-1-0.8c-0.1,0.1-0.3,0.1-0.4,0.2c0-0.1,0-0.1,0-0.2c0.1,0,0.2-0.1,0.3-0.1c-0.1-0.1-0.2-0.3-0.3-0.4
					c0-0.1,0-0.3,0-0.4c0.2,0.3,0.4,0.5,0.6,0.7c0.6-0.3,1.1-0.6,1.6-0.9c-0.7-0.1-1.5-0.4-2.1-0.7c-0.1,0-0.1,0.1-0.2,0.1
					c0-0.2,0-0.3,0-0.5c0.1,0,0.1,0.1,0.2,0.1c0.4-0.3,0.8-0.6,1.1-0.9c-0.5-0.2-1-0.5-1.4-0.9c0-0.1,0-0.2,0-0.3
					c0.5,0.4,1,0.7,1.6,1c0.5-0.4,1-0.8,1.4-1.2c0,0.1,0,0.2,0,0.3c-0.4,0.3-0.7,0.7-1.2,1c0.3,0.1,0.7,0.2,1,0.3c0,0.1,0,0.2,0,0.2
					c-0.4-0.1-0.8-0.2-1.2-0.4c-0.4,0.3-0.7,0.6-1.1,0.9c0.6,0.3,1.4,0.6,2.1,0.7c0,0.1,0,0.2,0,0.3c-0.5,0.3-1,0.6-1.6,0.9
					c0.3,0.3,0.6,0.6,0.9,0.8c0.2-0.1,0.3-0.2,0.5-0.4c0,0.1,0,0.2-0.1,0.3c-0.1,0.1-0.1,0.1-0.2,0.2c0.1,0,0.1,0,0.2,0.1
					C15.6,70.2,15.6,70.3,15.6,70.4z"/>
				<path class="st5" d="M13.3,61.7c0.2-3.2,3.3-1.4,3.2,1.5c0,1.1-0.2,2.3-0.3,3.4c-0.8,0.1-1.8,0.1-2.7,0.1
					C13.3,65.1,13.2,63.3,13.3,61.7z"/>
			</g>
			<path class="st3" d="M2.3,32.2C0.2,40.9,1.9,64.4,2,65.3c0.1,0.9,18.3,1.4,18.5-0.4c0.2-1.7-3.3-29.4-4.5-32.5
				C14.9,29.2,2.9,29.9,2.3,32.2z"/>
			<path class="st2" d="M2.6,14.3c-2.4,2,0.1,8.7,0.4,11c0.5,4.2-0.7,6.4-0.7,7.2c-0.1,0.8,14,1,13.8,0c-0.2-1-1.4-4.7-1.5-8.7
				c-0.1-2.7,1.6-7.3-0.8-9.2C11.3,12.7,3.9,13.2,2.6,14.3z"/>
			<path class="st6" d="M1.8,61.4C1.9,63.6,2,65,2.1,65.2c0.1,0.9,18.3,1.4,18.5-0.4c0-0.3-0.1-1.6-0.3-3.4
				C14.9,62.3,8.5,62.6,1.8,61.4z"/>
			<path class="st7" d="M5.2,32.1C5,33.8,4.3,53.2,4.5,55.4c0.1,2.2,12.6,1.9,12.4,0s-3.2-22.2-3.7-23.1
				C12.8,31.4,5.2,31.7,5.2,32.1z"/>
			<path class="st3" d="M6,32.6c-0.2,1.6-0.7,20-0.6,22s10.7,1.8,10.5,0c-0.2-1.8-2.7-21-3.1-21.8C12.4,31.9,6.1,32.2,6,32.6z"/>
			<path class="st2" d="M6.7,32.8c-0.1,1.5-0.6,18.5-0.5,20.4c0.1,1.9,9.2,1.6,9,0s-2.4-19.5-2.7-20.3C12.2,32.2,6.7,32.4,6.7,32.8z
				"/>
			<path class="st7" d="M7.6,32.5C7.4,34,7.1,50.2,7.2,52s7.2,1.6,7.1,0s-1.8-18.6-2.1-19.3C11.9,31.9,7.6,32.2,7.6,32.5z"/>
			<path class="st8" d="M14.2,52c-0.1-0.7-0.4-4.4-0.8-8.4c-1.9,0.1-3.9,0-6.1-0.3c-0.1,4-0.1,7.9-0.1,8.7
				C7.2,53.8,14.3,53.5,14.2,52z"/>
			<path class="st9" d="M7.2,51.7c0,0.1,0,0.2,0,0.3c0.1,1.8,7.2,1.6,7.1,0c0,0,0-0.1,0-0.2C12.4,52,10.1,52,7.2,51.7z"/>
			<path class="st10" d="M20.5,64.9c0-0.1,0-0.5,0-1C8,66.6,3.3,63,4.5,56.4c1.2-6.7-0.1-14.6-1.2-25.1c-0.5,0.3-0.8,0.6-0.9,0.9
				C0.3,40.9,2,64.4,2.1,65.3C2.2,66.1,20.4,66.6,20.5,64.9z"/>
			<path class="st11" d="M13.6,30.7c-2.7,0.3-5.9,0.4-9,0.1c-1,0.3-1.8,0.6-2.1,1c-0.1,0.5-0.3,0.8-0.3,1.1c-0.1,0.8,14,1,13.8,0
				c0-0.2-0.1-0.5-0.2-0.8C15.5,31.5,14.7,31,13.6,30.7z"/>
			<path class="st7" d="M2.9,30.2c-0.2,1.2-0.6,1.9-0.6,2.3c-0.1,0.8,14,1,13.8,0c-0.1-0.4-0.3-1.3-0.6-2.4
				C11.9,30.6,7.1,30.8,2.9,30.2z"/>
			<path class="st9" d="M7.3,41.5c2.1,0.3,4.1,0.4,5.9,0.4c-0.1-0.5-0.1-1-0.2-1.4c-1.8,0-3.8-0.1-5.7-0.4C7.3,40.5,7.3,41,7.3,41.5
				z"/>
			<path class="st8" d="M7.4,36.8c0,0.4,0,0.9,0,1.4c1.9,0.3,3.7,0.3,5.5,0.3c-0.1-0.6-0.1-1.1-0.2-1.7C11.1,36.9,9.3,36.9,7.4,36.8
				z"/>
			<path class="st12" d="M2.5,64.9C2.4,64,0.7,40.5,2.8,31.8c0-0.1,0.1-0.3,0.2-0.4c-0.3,0.2-0.6,0.5-0.6,0.7
				C0.3,40.8,2,64.3,2.1,65.2c0.1,0.9,17.7,1.4,18.4-0.3C17.7,66.2,2.6,65.7,2.5,64.9z"/>
		</g>
	</g>
	<path class="st13" d="M11,13.6c-1.7-0.3-3.8-0.3-5.5-0.1c0.2,0.6,1.3,1.1,2.8,1.1C9.6,14.6,10.7,14.1,11,13.6z"/>
	<g>
		<g>
			<path class="st1" d="M6.8,10.3C7.4,11.6,7,12.9,7,13.4s2.8,0.4,2.7,0s-0.4-2,0-3.3C10.2,8.8,6.4,9.6,6.8,10.3z"/>
			<path class="st14" d="M6.8,10.3c0.3,0.6,0.4,1.1,0.4,1.6c0.4,0.3,0.9,0.5,1.2,0.6c0.3,0,0.7-0.2,1.2-0.5c0-0.6,0-1.2,0.2-1.9
				C10.2,8.8,6.4,9.6,6.8,10.3z"/>
			<path class="st1" d="M4.4,2.9c0,2.1,0,4.5,0.6,5.8c0.7,1.6,2.4,3.2,3.4,3.3s3.2-2.2,3.4-4C12,6.4,12.1,4.5,12,3.2
				C11.8,1.8,4.4,1.5,4.4,2.9z"/>
		</g>
		<path class="st15" d="M11.8,7c0.1-1.4,0.2-2.8,0.1-3.9C11.8,2,6.4,1.6,4.8,2.4c0,0-0.1,0.1-0.2,0.2C4.5,2.7,4.5,2.9,4.4,3
			c0,1.6,0,3.2,0.2,4.5c0.1-1,0.4-2.9,2.1-2.7C8.1,5,10,4.9,11.1,4.3C11.6,5.2,11.8,6.3,11.8,7z"/>
		<path class="st0" d="M12,2.4C12,4,8.9,4.5,6.8,4.2C4.6,3.9,4.6,7.4,4.6,7.4s-1-4,0-5.4S12,1,12,2.4z"/>
		<path class="st0" d="M10.4,2.9c1.6,1.3,1.4,4.2,1.4,4.2s1.2-3.7,0-4.9C10.7,0.9,9.4,2.1,10.4,2.9z"/>
		<path class="st13" d="M4.4,6.3c0,0-1.2-2.8-0.3-4.3c1.3-2.1,3.4-2.1,5.3-1.9s3.1,1.5,3.3,2.9c0.2,1.3-0.6,3.8-0.6,3.8
			s0.3-2.9-0.6-3.8c-0.9-0.9-3.8-1.8-6.1-0.1C4,3.9,4.4,6.3,4.4,6.3z"/>
	</g>
	<path class="st13" d="M8.8,19.5H7.7c-0.2,0-0.4-0.2-0.4-0.4v-4.6c0-0.2,0.2-0.4,0.4-0.4h1.1c0.2,0,0.4,0.2,0.4,0.4v4.6
		C9.3,19.3,9.1,19.5,8.8,19.5z"/>
</g>
</svg>
