<svg width="97" height="336" viewBox="0 0 97 336" fill="none" xmlns="http://www.w3.org/2000/svg">
<path d="M33.4462 5.46936C9.05925 7.29249 16.5629 35.0952 19.8458 47.8571C23.5976 60.619 18.9078 65.1768 16.5629 69.2789C14.218 73.3809 67.6818 75.204 64.8679 68.8231C62.054 62.4421 58.7712 45.5782 60.1781 31.4489C61.1161 17.3197 57.3642 10.483 51.2675 7.74827C45.6397 5.92514 39.543 5.01358 33.4462 5.46936Z" fill="#784949"/>
<path d="M4.83853 157.701C3.90056 162.714 2.9626 162.714 2.9626 166.361C2.49362 170.007 4.36954 176.388 6.71445 178.211C9.05935 180.034 13.7492 176.388 12.8112 168.184C11.8732 159.524 5.30751 153.599 4.83853 157.701Z" fill="#FCC297"/>
<path d="M15.1561 63.8095C-3.60316 70.6462 0.148682 118.503 1.08664 132.633C1.55562 147.218 3.43154 155.878 3.90052 158.156C4.3695 160.435 12.8111 162.714 14.6871 159.524C20.7838 147.673 15.1561 63.8095 15.1561 63.8095Z" fill="#F7FFF7"/>
<path d="M81.7513 157.245C83.1582 162.258 84.0962 162.258 84.5652 165.449C85.0341 169.095 84.0962 175.476 82.2203 177.755C80.3443 180.034 75.1855 176.388 75.1855 168.184C75.1855 159.98 80.8133 153.143 81.7513 157.245Z" fill="#FCC297"/>
<path d="M60.6471 64.2653C79.8753 69.2789 82.2202 117.136 83.1582 131.721C84.0961 146.306 83.1582 154.966 83.1582 157.701C83.1582 160.435 74.7165 163.17 72.3716 159.98C64.8679 148.585 60.6471 64.2653 60.6471 64.2653Z" fill="#F7FFF7"/>
<path d="M39.0741 321.327C39.0741 321.327 34.3843 319.959 30.6324 320.871H30.1634C25.4736 322.238 15.6251 327.252 14.6871 329.075C13.7491 330.898 11.8732 335.456 18.9079 335C25.9426 334.544 37.1981 331.81 38.6051 327.708C40.012 323.606 39.0741 321.327 39.0741 321.327Z" fill="#0F1A20"/>
<path d="M25.9426 288.054C26.4116 301.728 30.1634 319.503 30.1634 321.782C30.1634 324.061 38.1361 325.429 38.6051 320.415C39.0741 315.401 41.888 295.803 40.95 281.218C40.012 266.633 25.4736 274.837 25.9426 288.054Z" fill="#F7FFF7"/>
<path opacity="0.3" d="M30.1635 320.871C30.6324 320.871 31.1014 320.415 31.5704 320.415C32.9773 321.327 34.8533 322.694 36.2602 323.605C36.7292 323.605 36.7292 323.15 37.1982 323.15C35.3222 322.238 33.9153 321.327 32.5084 320.415C33.9153 319.503 35.3222 318.136 37.1982 316.769C37.6671 317.224 38.6051 317.224 39.0741 317.68C39.0741 317.224 39.0741 317.224 39.0741 316.769C38.6051 316.769 38.1361 316.313 37.6671 316.313C38.1361 315.857 38.6051 314.946 39.0741 314.49C39.0741 314.034 39.0741 313.122 39.0741 312.667C38.6051 312.667 37.6671 313.578 36.7292 314.49C33.9153 313.122 31.5704 311.755 29.2255 310.388C32.9773 309.932 36.2602 309.02 39.0741 307.197C39.5431 307.197 39.5431 307.653 40.0121 307.653C40.0121 306.741 40.0121 306.286 40.0121 305.374C39.5431 305.374 39.5431 305.83 39.0741 305.83C37.1982 304.463 35.3222 303.095 33.9153 301.728C36.2602 300.816 38.6051 299.449 40.481 297.626C40.481 297.17 40.481 296.714 40.481 296.259C38.1361 298.082 35.7912 299.449 32.9773 300.816C30.6324 298.993 28.2875 297.17 26.4116 295.347C26.4116 295.803 26.4116 296.258 26.4116 296.714C28.2875 298.082 29.6945 299.905 32.0394 301.272C30.6324 301.728 28.7565 302.184 27.3496 302.639C27.3496 303.095 27.3496 303.551 27.3496 303.551C29.2255 303.095 31.1014 302.639 32.9773 301.728C34.8533 303.095 36.2602 304.463 38.1361 305.83C35.3222 308.109 31.5704 309.02 28.2875 309.932C28.2875 310.388 28.2875 310.844 28.2875 311.299C30.6324 312.667 32.9773 314.034 35.7912 315.401C34.8533 316.769 32.9773 318.136 31.5704 319.048C30.6324 318.592 30.1635 318.136 29.2255 317.224C29.2255 317.68 29.2255 318.136 29.6945 318.592C30.1635 319.048 30.6324 319.048 30.6324 319.503C30.1635 319.503 30.1635 319.503 29.6945 319.959C30.1635 319.959 30.1635 320.415 30.1635 320.871Z" fill="#0F1A20"/>
<path opacity="0.3" d="M40.95 281.218C40.012 266.633 25.4736 274.837 25.9426 288.054C25.9426 293.068 26.8806 298.537 27.3496 303.551C31.1014 304.007 35.7912 304.007 40.012 304.007C40.95 296.714 41.419 288.51 40.95 281.218Z" fill="#6A323B"/>
<path d="M64.3989 321.327C64.3989 321.327 69.0887 319.959 72.8406 320.871H73.3096C77.9994 322.238 87.8479 327.252 88.7859 329.075C89.7239 330.898 91.5998 335.456 84.5651 335C77.5304 334.544 66.2748 331.81 64.8679 327.708C63.461 323.606 64.3989 321.327 64.3989 321.327Z" fill="#0F1A20"/>
<path d="M77.5305 288.054C77.0615 301.728 73.3096 319.503 73.3096 321.782C73.3096 324.061 65.337 325.429 64.868 320.415C64.399 315.401 61.5851 295.803 62.5231 281.218C62.9921 266.633 77.9994 274.837 77.5305 288.054Z" fill="#F7FFF7"/>
<path opacity="0.3" d="M73.3096 320.871C72.8407 320.871 72.3717 320.415 71.9027 320.415C70.4958 321.327 68.6198 322.694 67.2129 323.605C66.7439 323.605 66.7439 323.15 66.2749 323.15C68.1509 322.238 69.5578 321.327 70.9647 320.415C69.5578 319.503 68.1509 318.136 66.2749 316.769C65.806 317.225 64.868 317.224 64.399 317.68C64.399 317.224 64.399 317.225 64.399 316.769C64.868 316.769 65.337 316.313 65.806 316.313C65.337 315.857 64.868 314.946 64.399 314.49C64.399 314.034 64.399 313.122 64.399 312.667C65.337 314.034 66.2749 314.946 67.2129 315.857C70.0268 314.49 72.3717 313.122 74.7166 311.755C71.4337 311.299 67.6819 309.932 64.868 308.565C64.399 308.565 64.399 309.02 63.93 309.02C63.93 308.109 63.93 307.653 63.93 306.742C64.399 306.742 64.399 307.197 64.868 307.197C66.7439 305.83 68.6198 304.463 70.0268 303.095C67.6819 302.184 65.337 300.816 63.4611 298.993C63.4611 298.537 63.4611 298.082 63.4611 297.626C65.806 299.449 68.1509 300.816 70.9647 302.184C73.3096 300.361 75.6545 298.537 77.5305 296.714C77.5305 297.17 77.5305 297.626 77.5305 298.082C75.6545 299.449 74.2476 301.272 71.9027 302.639C73.3096 303.095 75.1856 303.551 76.5925 304.007C76.5925 304.463 76.5925 304.918 76.5925 304.918C74.7166 304.463 72.8407 304.007 70.9647 303.095C69.0888 304.463 67.6819 305.83 65.806 307.197C68.6198 308.565 72.3717 309.932 75.6545 310.388C75.6545 310.844 75.6545 311.299 75.6545 311.755C73.3096 313.122 70.9647 314.49 68.1509 315.857C69.5578 317.225 70.9647 318.592 72.3717 319.503C73.3096 319.048 73.7786 318.592 74.7166 317.68C74.7166 318.136 74.7166 318.592 74.2476 319.048C73.7786 319.503 73.7786 319.503 73.3096 319.959C73.7786 319.959 73.7786 319.959 74.2476 320.415C73.3096 319.959 73.3096 320.415 73.3096 320.871Z" fill="#0F1A20"/>
<path opacity="0.3" d="M62.5231 281.218C63.4611 266.633 77.9994 274.837 77.5305 288.054C77.5305 293.068 76.5925 298.537 76.1235 303.551C72.3717 304.007 67.6819 304.007 63.4611 304.007C62.5231 296.714 62.0541 288.51 62.5231 281.218Z" fill="#6A323B"/>
<path d="M10.9352 146.762C1.08661 186.415 9.05928 293.524 9.52826 297.626C9.99724 301.728 95.3516 304.007 96.2896 295.803C97.2276 288.054 80.8133 161.803 75.1855 147.673C70.0267 133.088 13.7491 136.279 10.9352 146.762Z" fill="#F42C04"/>
<path d="M12.3422 65.1769C1.08664 74.2925 12.8111 104.83 14.2181 115.313C16.563 134.456 10.9352 144.483 10.9352 148.129C10.4662 151.776 76.5925 152.687 75.6545 148.129C74.7165 143.571 69.0888 126.708 68.6198 108.476C68.1508 96.1701 76.1235 75.2041 64.868 66.5442C53.1435 57.8844 18.4389 60.1633 12.3422 65.1769Z" fill="#F7FFF7"/>
<path d="M8.59033 279.85C9.05931 289.878 9.52829 296.259 9.99727 297.17C10.4663 301.272 95.8207 303.551 96.7586 295.347C96.7586 293.98 96.2896 288.054 95.3517 279.85C70.0268 283.952 40.012 285.32 8.59033 279.85Z" fill="#0F1A20"/>
<path d="M24.5357 146.306C23.5977 154.054 20.3149 242.476 21.2528 252.503C21.7218 262.531 80.3443 261.163 79.4064 252.503C78.4684 243.844 64.399 151.32 62.0541 147.218C60.1782 143.116 24.5357 144.483 24.5357 146.306Z" fill="#CD3B1E"/>
<path d="M28.2874 148.585C27.3495 155.878 25.0046 239.741 25.4736 248.857C25.9425 257.973 75.6545 257.061 74.7165 248.857C73.7785 240.653 62.054 153.143 60.1781 149.497C58.3022 145.395 28.7564 146.762 28.2874 148.585Z" fill="#FF6B6B"/>
<path d="M31.5704 149.497C31.1014 156.333 28.7565 233.816 29.2255 242.476C29.6945 251.136 72.3717 249.769 71.4337 242.476C70.4958 235.184 60.1782 153.599 58.7712 149.952C57.3643 146.762 31.5704 147.674 31.5704 149.497Z" fill="#F7FFF7"/>
<path d="M35.7912 148.129C34.8533 154.966 33.4463 228.803 33.9153 237.007C34.3843 245.211 67.6819 244.299 67.2129 237.007C66.7439 229.714 58.7713 152.231 57.3643 149.041C55.9574 145.395 35.7912 146.762 35.7912 148.129Z" fill="#F42C04"/>
<path d="M66.7439 237.007C66.2749 233.816 64.868 216.952 62.9921 198.721C54.0814 199.177 44.7018 198.721 34.3843 197.354C33.9153 215.585 33.9153 233.361 33.9153 237.007C33.9153 245.211 67.2129 243.844 66.7439 237.007Z" fill="#F7FFF7"/>
<path d="M33.9153 235.639C33.9153 236.095 33.9153 236.551 33.9153 237.007C34.3843 245.211 67.6819 244.299 67.2129 237.007C67.2129 237.007 67.2129 236.551 67.2129 236.095C58.3023 237.007 47.5157 237.007 33.9153 235.639Z" fill="#FF6B6B"/>
<path opacity="0.1" d="M96.2896 295.803C96.2896 295.347 96.2896 293.524 96.2896 291.245C37.6671 303.551 15.625 287.143 21.2528 257.061C26.8805 226.524 20.7838 190.517 15.625 142.66C13.2801 144.027 11.8732 145.395 11.4042 146.762C1.5556 186.415 9.52827 293.524 9.99725 297.626C10.4662 301.272 95.8206 303.551 96.2896 295.803Z" fill="#F42C04"/>
<path opacity="0.3" d="M63.93 139.925C51.2675 141.293 36.2601 141.748 21.7218 140.381C17.032 141.748 13.2801 143.116 11.8732 144.939C11.4042 147.218 10.4662 148.585 10.4662 149.952C9.99725 153.599 76.1235 154.51 75.1855 149.952C75.1855 149.041 74.7165 147.673 74.2476 146.306C72.8406 143.571 69.0888 141.293 63.93 139.925Z" fill="#451313"/>
<path d="M13.7491 137.646C12.8111 143.116 10.9352 146.306 10.9352 148.129C10.4662 151.776 76.5925 152.687 75.6545 148.129C75.1855 146.306 74.2476 142.204 72.8406 137.19C55.9573 139.469 33.4463 140.381 13.7491 137.646Z" fill="#0F1A20"/>
<path d="M34.3843 189.15C44.2329 190.517 53.6125 190.973 62.0541 190.973C61.5851 188.694 61.5851 186.415 61.1162 184.592C52.6745 184.592 43.2949 184.136 34.3843 182.769C34.3843 184.592 34.3843 186.871 34.3843 189.15Z" fill="#FF6B6B"/>
<path d="M34.8533 167.728C34.8533 169.551 34.8533 171.83 34.8533 174.109C43.7639 175.476 52.2055 175.476 60.6472 175.476C60.1782 172.742 60.1782 170.463 59.7092 167.728C52.2055 168.184 43.7639 168.184 34.8533 167.728Z" fill="#F7FFF7"/>
<path opacity="0.4" d="M11.8732 295.803C11.4042 291.701 3.43153 184.592 13.2801 144.939C13.2801 144.483 13.7491 143.571 14.2181 143.116C12.8111 144.027 11.4042 145.395 11.4042 146.306C1.5556 185.959 9.52827 293.068 9.99725 297.17C10.4662 301.272 93.0068 303.551 96.2896 295.803C83.1582 301.728 12.3422 299.449 11.8732 295.803Z" fill="#F42C04"/>
<path d="M51.7365 61.9864C43.7639 60.6191 33.9153 60.6191 25.9426 61.5306C26.8806 64.2653 32.0394 66.5442 39.0741 66.5442C45.1708 66.5442 50.3296 64.2653 51.7365 61.9864Z" fill="#CD2029"/>
<path d="M32.0393 46.9456C34.8532 52.8708 32.9772 58.7959 32.9772 61.0749C32.9772 63.3538 46.1087 62.898 45.6397 61.0749C45.1707 59.2517 43.7638 51.9592 45.6397 46.034C47.9846 40.1089 30.1634 43.7551 32.0393 46.9456Z" fill="#FCC297"/>
<path opacity="0.3" d="M32.0393 46.9456C33.4463 49.6803 33.9153 51.9592 33.9153 54.2381C35.7912 55.6055 38.1361 56.517 39.543 56.9728C40.95 56.9728 42.8259 56.0613 45.1708 54.6939C45.1708 51.9592 45.1708 49.2245 46.1088 46.034C47.9847 40.1089 30.1634 43.7551 32.0393 46.9456Z" fill="#A42B2A"/>
<path d="M20.7838 13.2177C20.7838 22.7892 20.7838 33.7279 23.5977 39.6531C26.8806 46.9456 34.8532 54.2381 39.543 54.6939C44.2328 55.1497 54.5504 44.6667 55.4884 36.4626C56.4263 29.1701 56.8953 20.5102 56.4263 14.5851C55.4884 8.20412 20.7838 6.83677 20.7838 13.2177Z" fill="#FCC297"/>
<path opacity="0.2" d="M55.4884 31.9048C55.9573 25.5238 56.4263 19.1429 55.9573 14.1293C55.4883 9.11565 30.1634 7.29253 22.6597 10.9388C22.6597 10.9388 22.1908 11.3946 21.7218 11.8503C21.2528 12.3061 21.2528 13.2177 20.7838 13.6735C20.7838 20.966 20.7838 28.2585 21.7218 34.1837C22.1908 29.6259 23.5977 20.966 31.5704 21.8776C38.1361 22.7891 47.0467 22.3333 52.2055 19.5986C54.5504 23.7007 55.4884 28.7143 55.4884 31.9048Z" fill="#A42B2A"/>
<path d="M56.4263 10.9388C56.4263 18.2313 41.888 20.5102 32.0394 19.1429C21.7218 17.7755 21.7218 33.7279 21.7218 33.7279C21.7218 33.7279 17.032 15.4966 21.7218 9.11567C26.4116 2.73472 56.4263 4.55785 56.4263 10.9388Z" fill="#784949"/>
<path d="M48.9227 13.2177C56.4263 19.1428 55.4884 32.3605 55.4884 32.3605C55.4884 32.3605 61.1161 15.4966 55.4884 10.0272C50.3296 4.10203 44.2329 9.57142 48.9227 13.2177Z" fill="#784949"/>
<path d="M20.7838 28.7143C20.7838 28.7143 15.156 15.9524 19.3769 9.11565C25.4736 -0.455777 35.3222 -0.455778 44.2328 0.455787C53.1434 1.36735 58.7712 7.29252 59.7092 13.6735C60.6471 19.5986 56.8953 30.9932 56.8953 30.9932C56.8953 30.9932 58.3022 17.7755 54.0814 13.6735C49.8606 9.57143 36.2601 5.46939 25.4736 13.2177C18.9079 17.7755 20.7838 28.7143 20.7838 28.7143Z" fill="#CD2029"/>
<path d="M41.419 88.8776H36.2602C35.3222 88.8776 34.3843 87.966 34.3843 87.0544V66.0884C34.3843 65.1769 35.3222 64.2653 36.2602 64.2653H41.419C42.3569 64.2653 43.2949 65.1769 43.2949 66.0884V87.0544C43.7639 87.966 42.8259 88.8776 41.419 88.8776Z" fill="#CD2029"/>
</svg>
